<?xml version="1.0" encoding="UTF-8" standalone="no"?><!DOCTYPE svg PUBLIC "-//W3C//DTD SVG 1.1//EN" "http://www.w3.org/Graphics/SVG/1.1/DTD/svg11.dtd"><svg width="100%" height="100%" viewBox="0 0 4789 2395" version="1.1" xmlns="http://www.w3.org/2000/svg" xmlns:xlink="http://www.w3.org/1999/xlink" xml:space="preserve" xmlns:serif="http://www.serif.com/" style="fill-rule:evenodd;clip-rule:evenodd;stroke-linejoin:bevel;stroke-miterlimit:1;"><rect x="0" y="0" width="4788.89" height="2394.44" style="fill:#fefefe;"/><path d="M3687.97,1083.28l-0.063,-3.488l-0.191,-3.474l-0.317,-3.473l-0.461,-3.457l-0.571,-3.443l-0.715,-3.426l-0.825,-3.411l-0.969,-3.381l-1.079,-3.364l-1.207,-3.318l-1.333,-3.288l-1.461,-3.256l-1.571,-3.209l-1.683,-3.163l-1.81,-3.117l-1.921,-3.07l-2.032,-3.024l-2.159,-2.961l-2.255,-2.9l-2.365,-2.822l-2.461,-2.775l-2.572,-2.698l-2.667,-2.636l-2.762,-2.558l-2.858,-2.481l-2.937,-2.404l-3.032,-2.325l-3.128,-2.233l-3.191,-2.155l-3.286,-2.063l-3.35,-1.969l-3.429,-1.891l-3.492,-1.784l-3.557,-1.69l-3.619,-1.597l-3.683,-1.504l-3.731,-1.395l-3.779,-1.287l-3.826,-1.194l-3.873,-1.085l-3.906,-0.977l-3.937,-0.884l-3.969,-0.76l-4,-0.667l-4.017,-0.542l-4.048,-0.434l-4.049,-0.341l-4.064,-0.218l-4.064,-0.108l-4.08,-0l-4.064,0.108l-4.064,0.218l-4.064,0.341l-4.033,0.434l-4.016,0.542l-4.001,0.667l-3.969,0.76l-3.953,0.884l-3.905,0.977l-3.858,1.085l-3.826,1.194l-3.779,1.287l-3.731,1.395l-3.683,1.504l-3.619,1.597l-3.556,1.69l-3.493,1.784l-3.429,1.891l-3.35,1.969l-3.286,2.063l-3.191,2.155l-3.128,2.233l-3.032,2.325l-2.953,2.404l-2.858,2.481l-2.762,2.558l-2.667,2.636l-2.556,2.698l-2.477,2.775l-2.349,2.822l-2.27,2.9l-2.144,2.961l-2.032,3.024l-1.921,3.07l-1.81,3.117l-1.698,3.163l-1.572,3.209l-1.445,3.256l-1.333,3.288l-1.207,3.318l-1.095,3.364l-0.953,3.381l-0.841,3.411l-0.699,3.426l-0.587,3.443l-0.445,3.457l-0.317,3.473l-0.206,3.474l-0.064,3.488" style="fill:none;fill-rule:nonzero;stroke:#333;stroke-opacity:0.27;stroke-width:51.88px;"/><path d="M3687.97,1217.88l-0.127,6.858l-0.381,6.858l-0.651,6.827l-0.905,6.827l-1.159,6.782l-1.412,6.75l-1.667,6.721l-1.921,6.659l-2.159,6.613l-2.429,6.552l-2.652,6.476l-2.921,6.415l-3.143,6.323l-3.382,6.247l-3.619,6.14l-3.842,6.048l-4.064,5.941l-4.303,5.819l-4.508,5.713l-4.731,5.59l-4.922,5.452l-5.144,5.331l-5.334,5.177l-5.525,5.04l-5.715,4.888l-5.89,4.735l-6.064,4.566l-6.239,4.414l-6.398,4.246l-6.557,4.063l-6.715,3.895l-6.843,3.696l-7.001,3.528l-7.112,3.33l-7.239,3.146l-7.351,2.948l-7.461,2.749l-7.557,2.55l-7.652,2.353l-7.748,2.138l-7.811,1.924l-7.874,1.726l-7.954,1.512l-7.985,1.298l-8.049,1.085l-8.081,0.87l-8.112,0.657l-8.129,0.428l-8.128,0.214l-8.144,-0l-8.144,-0.214l-8.129,-0.428l-8.112,-0.657l-8.065,-0.87l-8.049,-1.085l-8.001,-1.298l-7.938,-1.512l-7.89,-1.726l-7.811,-1.924l-7.732,-2.138l-7.652,-2.353l-7.557,-2.55l-7.461,-2.749l-7.366,-2.948l-7.24,-3.146l-7.112,-3.33l-6.985,-3.528l-6.859,-3.696l-6.699,-3.895l-6.557,-4.063l-6.398,-4.246l-6.239,-4.414l-6.08,-4.566l-5.89,-4.735l-5.715,-4.888l-5.525,-5.04l-5.334,-5.177l-5.128,-5.331l-4.937,-5.452l-4.716,-5.59l-4.524,-5.713l-4.287,-5.819l-4.08,-5.941l-3.842,-6.048l-3.619,-6.14l-3.382,-6.247l-3.143,-6.323l-2.905,-6.415l-2.667,-6.476l-2.414,-6.552l-2.175,-6.613l-1.92,-6.659l-1.667,-6.721l-1.413,-6.75l-1.159,-6.782l-0.905,-6.827l-0.635,-6.827l-0.397,-6.858l-0.127,-6.858" style="fill:none;fill-rule:nonzero;stroke:#333;stroke-opacity:0.27;stroke-width:53.52px;"/><path d="M3687.97,1083.28l-0.19,-10.45l-0.572,-10.42l-0.968,-10.419l-1.366,-10.374l-1.73,-10.342l-2.127,-10.28l-2.493,-10.233l-2.889,-10.141l-3.255,-10.078l-3.619,-9.97l-4.001,-9.862l-4.366,-9.768l-4.715,-9.629l-5.064,-9.505l-5.43,-9.349l-5.778,-9.211l-6.097,-9.039l-6.445,-8.885l-6.763,-8.698l-7.097,-8.497l-7.398,-8.311l-7.699,-8.109l-8.002,-7.893l-8.287,-7.675l-8.573,-7.442l-8.827,-7.21l-9.112,-6.962l-9.351,-6.714l-9.605,-6.466l-9.843,-6.186l-10.065,-5.924l-10.272,-5.643l-10.477,-5.365l-10.685,-5.086l-10.859,-4.776l-11.017,-4.496l-11.193,-4.187l-11.351,-3.876l-11.478,-3.582l-11.605,-3.256l-11.716,-2.946l-11.828,-2.62l-11.907,-2.295l-12.002,-1.985l-12.065,-1.643l-12.113,-1.318l-12.161,-0.993l-12.193,-0.666l-12.208,-0.326l-12.224,-0l-12.209,0.326l-12.192,0.666l-12.161,0.993l-12.113,1.318l-12.066,1.643l-11.986,1.985l-11.922,2.295l-11.828,2.62l-11.716,2.946l-11.605,3.256l-11.478,3.582l-11.335,3.876l-11.193,4.187l-11.033,4.496l-10.859,4.776l-10.669,5.086l-10.494,5.365l-10.271,5.643l-10.065,5.924l-9.827,6.186l-9.605,6.466l-9.367,6.714l-9.097,6.962l-8.842,7.21l-8.573,7.442l-8.287,7.675l-8.002,7.893l-7.699,8.109l-7.398,8.311l-7.081,8.497l-6.779,8.698l-6.429,8.885l-6.113,9.039l-5.762,9.211l-5.43,9.349l-5.08,9.505l-4.715,9.629l-4.366,9.768l-3.985,9.862l-3.635,9.97l-3.255,10.078l-2.873,10.141l-2.509,10.233l-2.127,10.28l-1.731,10.342l-1.349,10.374l-0.968,10.419l-0.588,10.42l-0.19,10.45" style="fill:none;fill-rule:nonzero;stroke:#333;stroke-opacity:0.27;stroke-width:46.4px;"/><path d="M3687.97,1217.88l-0.254,13.716l-0.778,13.7l-1.286,13.685l-1.809,13.624l-2.318,13.578l-2.826,13.517l-3.334,13.425l-3.842,13.333l-4.334,13.212l-4.842,13.104l-5.318,12.967l-5.827,12.815l-6.287,12.646l-6.763,12.478l-7.239,12.295l-7.684,12.081l-8.144,11.883l-8.589,11.654l-9.017,11.424l-9.462,11.18l-9.859,10.905l-10.271,10.661l-10.669,10.355l-11.049,10.081l-11.431,9.775l-11.78,9.469l-12.144,9.149l-12.479,8.812l-12.796,8.477l-13.113,8.141l-13.415,7.774l-13.7,7.423l-13.987,7.041l-14.225,6.674l-14.478,6.277l-14.717,5.896l-14.907,5.498l-15.13,5.102l-15.304,4.688l-15.479,4.292l-15.621,3.864l-15.765,3.437l-15.891,3.024l-15.987,2.596l-16.098,2.169l-16.146,1.741l-16.225,1.299l-16.256,0.87l-16.273,0.443l-16.288,0l-16.273,-0.443l-16.257,-0.87l-16.225,-1.299l-16.145,-1.741l-16.082,-2.169l-16.003,-2.596l-15.891,-3.024l-15.765,-3.437l-15.622,-3.864l-15.478,-4.292l-15.305,-4.688l-15.113,-5.102l-14.923,-5.498l-14.717,-5.896l-14.479,-6.277l-14.224,-6.674l-13.971,-7.041l-13.716,-7.423l-13.415,-7.774l-13.114,-8.141l-12.796,-8.477l-12.478,-8.812l-12.145,-9.149l-11.779,-9.469l-11.431,-9.775l-11.049,-10.081l-10.669,-10.355l-10.271,-10.661l-9.859,-10.905l-9.446,-11.18l-9.033,-11.424l-8.589,-11.654l-8.144,-11.883l-7.684,-12.081l-7.24,-12.295l-6.763,-12.478l-6.286,-12.646l-5.811,-12.815l-5.334,-12.967l-4.842,-13.104l-4.334,-13.212l-3.842,-13.333l-3.334,-13.425l-2.826,-13.517l-2.318,-13.578l-1.81,-13.624l-1.286,-13.685l-0.777,-13.7l-0.254,-13.716" style="fill:none;fill-rule:nonzero;stroke:#333;stroke-opacity:0.27;stroke-width:55.94px;"/><path d="M3687.97,1083.28l-0.317,-17.412l-0.969,-17.382l-1.619,-17.35l-2.254,-17.304l-2.89,-17.227l-3.54,-17.149l-4.175,-17.04l-4.795,-16.916l-5.429,-16.777l-6.033,-16.622l-6.668,-16.451l-7.271,-16.265l-7.858,-16.048l-8.462,-15.831l-9.033,-15.599l-9.621,-15.35l-10.176,-15.071l-10.732,-14.792l-11.288,-14.498l-11.811,-14.172l-12.32,-13.862l-12.843,-13.505l-13.336,-13.148l-13.812,-12.792l-14.288,-12.404l-14.732,-12.017l-15.162,-11.614l-15.605,-11.179l-16.003,-10.761l-16.4,-10.326l-16.764,-9.862l-17.13,-9.412l-17.464,-8.946l-17.796,-8.466l-18.098,-7.97l-18.384,-7.489l-18.654,-6.977l-18.892,-6.466l-19.131,-5.954l-19.352,-5.443l-19.527,-4.899l-19.718,-4.373l-19.86,-3.83l-19.988,-3.302l-20.098,-2.745l-20.194,-2.201l-20.273,-1.659l-20.321,-1.101l-20.353,-0.559l-20.353,0l-20.352,0.559l-20.321,1.101l-20.273,1.659l-20.194,2.201l-20.099,2.745l-19.987,3.302l-19.861,3.83l-19.717,4.373l-19.527,4.899l-19.353,5.443l-19.13,5.954l-18.892,6.466l-18.654,6.977l-18.384,7.489l-18.098,7.97l-17.797,8.466l-17.463,8.946l-17.13,9.412l-16.765,9.862l-16.399,10.326l-16.003,10.761l-15.606,11.179l-15.161,11.614l-14.748,12.017l-14.273,12.404l-13.812,12.792l-13.335,13.148l-12.844,13.505l-12.319,13.862l-11.812,14.172l-11.287,14.498l-10.732,14.792l-10.176,15.071l-9.621,15.35l-9.033,15.599l-8.462,15.831l-7.874,16.048l-7.256,16.265l-6.667,16.451l-6.033,16.622l-5.43,16.777l-4.81,16.916l-4.159,17.04l-3.541,17.149l-2.889,17.227l-2.27,17.304l-1.604,17.35l-0.968,17.382l-0.333,17.412" style="fill:none;fill-rule:nonzero;stroke:#333;stroke-opacity:0.27;stroke-width:10.96px;"/><path d="M3687.97,1217.88l-0.381,20.574l-1.159,20.557l-1.937,20.512l-2.714,20.451l-3.477,20.36l-4.239,20.267l-5.001,20.146l-5.763,19.993l-6.509,19.824l-7.255,19.657l-7.985,19.443l-8.732,19.214l-9.43,18.985l-10.145,18.725l-10.859,18.435l-11.541,18.129l-12.209,17.824l-12.875,17.488l-13.542,17.121l-14.177,16.77l-14.796,16.373l-15.399,15.961l-16.003,15.563l-16.574,15.106l-17.146,14.662l-17.669,14.204l-18.21,13.716l-18.717,13.226l-19.21,12.723l-19.67,12.203l-20.13,11.669l-20.543,11.119l-20.972,10.569l-21.353,10.004l-21.718,9.439l-22.051,8.843l-22.385,8.248l-22.686,7.637l-22.956,7.041l-23.211,6.43l-23.448,5.788l-23.639,5.163l-23.829,4.536l-23.988,3.895l-24.131,3.253l-24.243,2.611l-24.321,1.955l-24.385,1.299l-24.417,0.656l-24.433,0l-24.416,-0.656l-24.385,-1.299l-24.322,-1.955l-24.226,-2.611l-24.131,-3.253l-23.988,-3.895l-23.83,-4.536l-23.655,-5.163l-23.432,-5.788l-23.226,-6.43l-22.956,-7.041l-22.671,-7.637l-22.385,-8.248l-22.067,-8.843l-21.718,-9.439l-21.337,-10.004l-20.971,-10.569l-20.559,-11.119l-20.115,-11.669l-19.67,-12.203l-19.209,-12.723l-18.718,-13.226l-18.209,-13.716l-17.686,-14.204l-17.129,-14.662l-16.575,-15.106l-16.002,-15.563l-15.416,-15.961l-14.796,-16.373l-14.161,-16.77l-13.542,-17.121l-12.875,-17.488l-12.224,-17.824l-11.526,-18.129l-10.859,-18.435l-10.145,-18.725l-9.446,-18.985l-8.715,-19.214l-7.986,-19.443l-7.255,-19.657l-6.509,-19.824l-5.763,-19.993l-5.001,-20.146l-4.254,-20.267l-3.477,-20.36l-2.699,-20.451l-1.937,-20.512l-1.159,-20.557l-0.397,-20.574" style="fill:none;fill-rule:nonzero;stroke:#333;stroke-opacity:0.27;stroke-width:15.45px;"/><path d="M3687.97,1083.28l-0.444,-24.374l-1.35,-24.343l-2.27,-24.282l-3.159,-24.219l-4.049,-24.127l-4.953,-24.002l-5.842,-23.863l-6.715,-23.676l-7.589,-23.491l-8.478,-23.274l-9.319,-23.025l-10.176,-22.762l-11.002,-22.483l-11.843,-22.172l-12.653,-21.832l-13.462,-21.475l-14.257,-21.118l-15.034,-20.7l-15.781,-20.296l-16.542,-19.847l-17.257,-19.398l-17.971,-18.916l-18.67,-18.42l-19.336,-17.894l-20.004,-17.366l-20.622,-16.823l-21.242,-16.25l-21.829,-15.66l-22.416,-15.071l-22.957,-14.451l-23.464,-13.816l-23.988,-13.179l-24.449,-12.513l-24.909,-11.846l-25.337,-11.179l-25.735,-10.467l-26.115,-9.768l-26.465,-9.055l-26.782,-8.342l-27.084,-7.598l-27.354,-6.868l-27.592,-6.125l-27.798,-5.365l-27.989,-4.621l-28.147,-3.845l-28.275,-3.085l-28.37,-2.311l-28.449,-1.55l-28.497,-0.776l-28.497,0l-28.497,0.776l-28.433,1.55l-28.386,2.311l-28.274,3.085l-28.148,3.845l-27.989,4.621l-27.798,5.365l-27.592,6.125l-27.354,6.868l-27.068,7.598l-26.798,8.342l-26.449,9.055l-26.115,9.768l-25.735,10.467l-25.337,11.179l-24.909,11.846l-24.465,12.513l-23.972,13.179l-23.48,13.816l-22.956,14.451l-22.401,15.071l-21.829,15.66l-21.257,16.25l-20.623,16.823l-19.987,17.366l-19.353,17.894l-18.654,18.42l-17.987,18.916l-17.257,19.398l-16.526,19.847l-15.797,20.296l-15.018,20.7l-14.256,21.118l-13.463,21.475l-12.653,21.832l-11.843,22.172l-11.018,22.483l-10.176,22.762l-9.319,23.025l-8.462,23.274l-7.604,23.491l-6.716,23.676l-5.842,23.863l-4.937,24.002l-4.064,24.127l-3.16,24.219l-2.254,24.282l-1.365,24.343l-0.445,24.374" style="fill:none;fill-rule:nonzero;stroke:#333;stroke-opacity:0.27;stroke-width:12.25px;"/><path d="M3687.97,1217.89l-0.508,27.431l-1.556,27.4l-2.571,27.355l-3.62,27.263l-4.636,27.155l-5.652,27.019l-6.667,26.85l-7.684,26.668l-8.684,26.438l-9.668,26.209l-10.653,25.918l-11.637,25.629l-12.573,25.308l-13.542,24.957l-14.463,24.574l-15.384,24.193l-16.288,23.75l-17.178,23.323l-18.034,22.833l-18.908,22.36l-19.718,21.826l-20.543,21.291l-21.337,20.741l-22.099,20.145l-22.861,19.55l-23.575,18.939l-24.274,18.298l-24.957,17.625l-25.607,16.969l-26.227,16.266l-26.83,15.548l-27.401,14.846l-27.957,14.082l-28.465,13.348l-28.957,12.57l-29.418,11.791l-29.83,10.997l-30.244,10.203l-30.624,9.377l-30.941,8.554l-31.26,7.728l-31.529,6.903l-31.783,6.033l-31.973,5.193l-32.18,4.338l-32.307,3.467l-32.434,2.612l-32.514,1.741l-32.545,0.87l-32.577,0l-32.561,-0.87l-32.513,-1.741l-32.434,-2.612l-32.307,-3.467l-32.164,-4.338l-31.99,-5.193l-31.783,-6.033l-31.529,-6.903l-31.259,-7.728l-30.942,-8.554l-30.608,-9.377l-30.243,-10.203l-29.847,-10.997l-29.417,-11.791l-28.958,-12.57l-28.465,-13.348l-27.941,-14.082l-27.417,-14.846l-26.83,-15.548l-26.227,-16.266l-25.607,-16.969l-24.957,-17.625l-24.274,-18.298l-23.575,-18.939l-22.861,-19.55l-22.099,-20.145l-21.337,-20.741l-20.527,-21.291l-19.734,-21.826l-18.892,-22.36l-18.05,-22.833l-17.178,-23.323l-16.288,-23.75l-15.384,-24.193l-14.462,-24.574l-13.526,-24.957l-12.59,-25.308l-11.621,-25.629l-10.668,-25.918l-9.669,-26.209l-8.684,-26.438l-7.668,-26.668l-6.683,-26.85l-5.652,-27.019l-4.636,-27.155l-3.603,-27.263l-2.588,-27.355l-1.556,-27.4l-0.508,-27.431" style="fill:none;fill-rule:nonzero;stroke:#333;stroke-opacity:0.27;stroke-width:15.14px;"/><path d="M3687.97,1083.28l-0.571,-31.336l-1.747,-31.29l-2.905,-31.243l-4.064,-31.135l-5.207,-31.011l-6.366,-30.855l-7.51,-30.67l-8.636,-30.452l-9.764,-30.205l-10.89,-29.925l-11.986,-29.6l-13.082,-29.274l-14.145,-28.902l-15.225,-28.499l-16.288,-28.08l-17.305,-27.615l-18.32,-27.135l-19.321,-26.622l-20.305,-26.096l-21.258,-25.522l-22.194,-24.932l-23.099,-24.328l-24.004,-23.677l-24.861,-23.01l-25.719,-22.328l-26.512,-21.63l-27.322,-20.886l-28.068,-20.141l-28.815,-19.382l-29.513,-18.575l-30.179,-17.769l-30.831,-16.932l-31.434,-16.095l-32.037,-15.242l-32.577,-14.357l-33.085,-13.459l-33.577,-12.575l-34.021,-11.645l-34.435,-10.714l-34.815,-9.768l-35.165,-8.838l-35.482,-7.861l-35.736,-6.9l-35.99,-5.939l-36.181,-4.946l-36.355,-3.969l-36.482,-2.977l-36.578,-1.985l-36.625,-0.993l-36.657,0l-36.625,0.993l-36.578,1.985l-36.482,2.977l-36.355,3.969l-36.181,4.946l-35.99,5.939l-35.736,6.9l-35.482,7.861l-35.165,8.838l-34.815,9.768l-34.435,10.714l-34.021,11.645l-33.577,12.575l-33.085,13.459l-32.577,14.357l-32.021,15.242l-31.45,16.095l-30.831,16.932l-30.179,17.769l-29.513,18.575l-28.815,19.382l-28.068,20.141l-27.322,20.886l-26.512,21.63l-25.719,22.328l-24.861,23.01l-24.004,23.677l-23.099,24.328l-22.194,24.932l-21.258,25.522l-20.305,26.096l-19.321,26.622l-18.32,27.135l-17.305,27.615l-16.288,28.08l-15.225,28.499l-14.145,28.902l-13.082,29.274l-11.986,29.6l-10.89,29.925l-9.764,30.205l-8.636,30.452l-7.51,30.67l-6.366,30.855l-5.207,31.011l-4.064,31.135l-2.905,31.243l-1.747,31.29l-0.571,31.336" style="fill:none;fill-rule:nonzero;stroke:#333;stroke-opacity:0.27;stroke-width:9.33px;"/><path d="M3687.97,1217.88l-0.635,34.289l-1.937,34.258l-3.238,34.182l-4.509,34.09l-5.795,33.937l-7.064,33.785l-8.351,33.555l-9.589,33.326l-10.859,33.067l-12.081,32.746l-13.32,32.395l-14.542,32.043l-15.733,31.631l-16.907,31.188l-18.083,30.73l-19.225,30.226l-20.369,29.706l-21.464,29.142l-22.559,28.546l-23.623,27.935l-24.655,27.293l-25.671,26.621l-26.671,25.919l-27.624,25.186l-28.576,24.452l-29.465,23.659l-30.338,22.864l-31.196,22.039l-32.021,21.2l-32.784,20.344l-33.545,19.443l-34.244,18.541l-34.942,17.61l-35.578,16.679l-36.196,15.716l-36.768,14.739l-37.308,13.746l-37.8,12.753l-38.26,11.73l-38.689,10.691l-39.07,9.668l-39.42,8.614l-39.721,7.545l-39.975,6.492l-40.213,5.422l-40.387,4.337l-40.547,3.269l-40.642,2.169l-40.689,1.084l-40.721,-0l-40.705,-1.084l-40.626,-2.169l-40.547,-3.269l-40.387,-4.337l-40.213,-5.422l-39.975,-6.492l-39.721,-7.545l-39.42,-8.614l-39.07,-9.668l-38.689,-10.691l-38.26,-11.73l-37.8,-12.753l-37.308,-13.746l-36.768,-14.739l-36.197,-15.716l-35.577,-16.679l-34.942,-17.61l-34.26,-18.541l-33.529,-19.443l-32.8,-20.344l-32.005,-21.2l-31.196,-22.039l-30.338,-22.864l-29.481,-23.659l-28.561,-24.452l-27.623,-25.186l-26.671,-25.919l-25.671,-26.621l-24.655,-27.293l-23.623,-27.935l-22.56,-28.546l-21.463,-29.142l-20.369,-29.706l-19.225,-30.226l-18.083,-30.73l-16.923,-31.188l-15.733,-31.631l-14.526,-32.043l-13.32,-32.395l-12.081,-32.746l-10.859,-33.067l-9.605,-33.326l-8.335,-33.555l-7.065,-33.785l-5.794,-33.937l-4.525,-34.09l-3.222,-34.182l-1.937,-34.258l-0.651,-34.289" style="fill:none;fill-rule:nonzero;stroke:#333;stroke-opacity:0.27;stroke-width:8.94px;"/><path d="M3431.32,1217.88l-0.063,3.437l-0.191,3.421l-0.317,3.421l-0.461,3.406l-0.571,3.391l-0.715,3.375l-0.825,3.36l-0.969,3.33l-1.079,3.314l-1.207,3.269l-1.333,3.238l-1.461,3.207l-1.572,3.162l-1.682,3.116l-1.81,3.069l-1.921,3.025l-2.048,2.978l-2.143,2.917l-2.255,2.856l-2.365,2.78l-2.461,2.734l-2.572,2.657l-2.667,2.597l-2.762,2.52l-2.858,2.444l-2.937,2.367l-3.048,2.291l-3.112,2.199l-3.207,2.123l-3.27,2.032l-3.35,1.939l-3.429,1.864l-3.493,1.756l-3.556,1.665l-3.619,1.573l-3.684,1.482l-3.73,1.374l-3.779,1.268l-3.826,1.176l-3.873,1.069l-3.906,0.962l-3.937,0.871l-3.969,0.748l-4.001,0.657l-4.016,0.535l-4.048,0.427l-4.049,0.336l-4.064,0.214l-4.08,0.107l-4.064,0l-4.064,-0.107l-4.064,-0.214l-4.065,-0.336l-4.032,-0.427l-4.017,-0.535l-4,-0.657l-3.969,-0.748l-3.953,-0.871l-3.906,-0.962l-3.873,-1.069l-3.826,-1.176l-3.779,-1.268l-3.731,-1.374l-3.667,-1.482l-3.619,-1.573l-3.557,-1.665l-3.492,-1.756l-3.429,-1.864l-3.35,-1.939l-3.286,-2.032l-3.207,-2.123l-3.112,-2.199l-3.032,-2.291l-2.953,-2.367l-2.858,-2.444l-2.762,-2.52l-2.667,-2.597l-2.572,-2.657l-2.461,-2.734l-2.365,-2.78l-2.255,-2.856l-2.143,-2.917l-2.032,-2.978l-1.921,-3.025l-1.81,-3.069l-1.698,-3.116l-1.572,-3.162l-1.445,-3.207l-1.333,-3.238l-1.223,-3.269l-1.079,-3.314l-0.953,-3.33l-0.841,-3.36l-0.699,-3.375l-0.587,-3.391l-0.445,-3.406l-0.333,-3.421l-0.191,-3.421l-0.063,-3.437" style="fill:none;fill-rule:nonzero;stroke:#333;stroke-opacity:0.27;stroke-width:50.15px;"/><path d="M3431.32,1083.28l-0.127,-6.962l-0.381,-6.961l-0.651,-6.931l-0.905,-6.931l-1.159,-6.885l-1.413,-6.853l-1.667,-6.822l-1.921,-6.761l-2.175,-6.714l-2.413,-6.651l-2.667,-6.575l-2.905,-6.512l-3.143,-6.419l-3.382,-6.342l-3.62,-6.233l-3.841,-6.14l-4.081,-6.032l-4.286,-5.907l-4.509,-5.799l-4.731,-5.675l-4.921,-5.536l-5.144,-5.411l-5.334,-5.256l-5.525,-5.117l-5.715,-4.962l-5.89,-4.806l-6.064,-4.637l-6.239,-4.481l-6.414,-4.31l-6.557,-4.125l-6.699,-3.953l-6.859,-3.753l-6.985,-3.581l-7.112,-3.381l-7.24,-3.194l-7.35,-2.992l-7.462,-2.791l-7.556,-2.59l-7.653,-2.387l-7.747,-2.171l-7.811,-1.954l-7.89,-1.752l-7.938,-1.535l-8.001,-1.318l-8.033,-1.101l-8.081,-0.884l-8.112,-0.666l-8.129,-0.435l-8.128,-0.217l-8.144,0l-8.145,0.217l-8.128,0.435l-8.112,0.666l-8.081,0.884l-8.033,1.101l-8.001,1.318l-7.938,1.535l-7.891,1.752l-7.81,1.954l-7.732,2.171l-7.652,2.387l-7.573,2.59l-7.461,2.791l-7.351,2.992l-7.239,3.194l-7.112,3.381l-6.985,3.581l-6.859,3.753l-6.699,3.953l-6.557,4.125l-6.414,4.31l-6.239,4.481l-6.064,4.637l-5.89,4.806l-5.716,4.962l-5.524,5.117l-5.334,5.256l-5.128,5.411l-4.938,5.536l-4.731,5.675l-4.508,5.799l-4.287,5.907l-4.08,6.032l-3.842,6.14l-3.619,6.233l-3.382,6.342l-3.143,6.419l-2.906,6.512l-2.667,6.575l-2.413,6.651l-2.175,6.714l-1.921,6.761l-1.667,6.822l-1.413,6.853l-1.158,6.885l-0.905,6.931l-0.651,6.931l-0.381,6.961l-0.127,6.962" style="fill:none;fill-rule:nonzero;stroke:#333;stroke-opacity:0.27;stroke-width:44.47px;"/><path d="M3431.32,1217.88l-0.19,10.295l-0.588,10.263l-0.968,10.264l-1.35,10.218l-1.73,10.187l-2.127,10.126l-2.509,10.081l-2.873,9.988l-3.255,9.928l-3.62,9.821l-4,9.714l-4.366,9.622l-4.715,9.485l-5.08,9.362l-5.414,9.21l-5.779,9.072l-6.112,8.905l-6.429,8.751l-6.763,8.568l-7.097,8.37l-7.398,8.187l-7.7,7.988l-8.001,7.774l-8.287,7.56l-8.573,7.331l-8.843,7.102l-9.096,6.858l-9.367,6.613l-9.589,6.369l-9.843,6.094l-10.065,5.835l-10.272,5.559l-10.478,5.285l-10.684,5.009l-10.859,4.705l-11.034,4.429l-11.176,4.124l-11.351,3.818l-11.478,3.528l-11.605,3.208l-11.717,2.901l-11.827,2.582l-11.923,2.26l-11.986,1.955l-12.065,1.619l-12.113,1.298l-12.161,0.978l-12.193,0.657l-12.208,0.32l-12.224,0l-12.209,-0.32l-12.192,-0.657l-12.161,-0.978l-12.113,-1.298l-12.066,-1.619l-11.986,-1.955l-11.922,-2.26l-11.828,-2.582l-11.716,-2.901l-11.605,-3.208l-11.478,-3.528l-11.351,-3.818l-11.193,-4.124l-11.017,-4.429l-10.859,-4.705l-10.685,-5.009l-10.478,-5.285l-10.271,-5.559l-10.065,-5.835l-9.843,-6.094l-9.605,-6.369l-9.351,-6.613l-9.097,-6.858l-8.842,-7.102l-8.573,-7.331l-8.287,-7.56l-8.002,-7.774l-7.699,-7.988l-7.399,-8.187l-7.096,-8.37l-6.763,-8.568l-6.446,-8.751l-6.096,-8.905l-5.779,-9.072l-5.413,-9.21l-5.08,-9.362l-4.715,-9.485l-4.366,-9.622l-4.001,-9.714l-3.62,-9.821l-3.254,-9.928l-2.889,-9.988l-2.493,-10.081l-2.127,-10.126l-1.731,-10.187l-1.365,-10.218l-0.968,-10.264l-0.572,-10.263l-0.19,-10.295" style="fill:none;fill-rule:nonzero;stroke:#333;stroke-opacity:0.27;stroke-width:50.01px;"/><path d="M3431.32,1083.28l-0.254,-13.923l-0.778,-13.909l-1.286,-13.893l-1.81,-13.83l-2.317,-13.785l-2.826,-13.722l-3.334,-13.629l-3.842,-13.536l-4.334,-13.412l-4.842,-13.304l-5.335,-13.164l-5.81,-13.009l-6.287,-12.839l-6.763,-12.667l-7.239,-12.482l-7.684,-12.265l-8.144,-12.063l-8.589,-11.831l-9.033,-11.598l-9.446,-11.35l-9.859,-11.071l-10.272,-10.822l-10.668,-10.513l-11.049,-10.233l-11.431,-9.924l-11.78,-9.613l-12.145,-9.288l-12.478,-8.947l-12.796,-8.605l-13.129,-8.264l-13.415,-7.893l-13.701,-7.535l-13.97,-7.148l-14.225,-6.776l-14.478,-6.373l-14.717,-5.985l-14.923,-5.582l-15.114,-5.179l-15.304,-4.76l-15.479,-4.357l-15.621,-3.923l-15.781,-3.488l-15.876,-3.07l-16.002,-2.636l-16.082,-2.202l-16.146,-1.768l-16.225,-1.318l-16.257,-0.883l-16.272,-0.45l-16.289,-0l-16.288,0.45l-16.257,0.883l-16.209,1.318l-16.161,1.768l-16.082,2.202l-15.987,2.636l-15.892,3.07l-15.764,3.488l-15.622,3.923l-15.479,4.357l-15.304,4.76l-15.129,5.179l-14.923,5.582l-14.701,5.985l-14.479,6.373l-14.224,6.776l-13.987,7.148l-13.701,7.535l-13.415,7.893l-13.113,8.264l-12.796,8.605l-12.478,8.947l-12.145,9.288l-11.795,9.613l-11.415,9.924l-11.05,10.233l-10.668,10.513l-10.272,10.822l-9.874,11.071l-9.446,11.35l-9.018,11.598l-8.588,11.831l-8.145,12.063l-7.683,12.265l-7.24,12.482l-6.763,12.667l-6.302,12.839l-5.811,13.009l-5.318,13.164l-4.842,13.304l-4.334,13.412l-3.842,13.536l-3.334,13.629l-2.826,13.722l-2.318,13.785l-1.81,13.83l-1.302,13.893l-0.762,13.909l-0.269,13.923" style="fill:none;fill-rule:nonzero;stroke:#333;stroke-opacity:0.27;stroke-width:11.29px;"/><path d="M3431.32,1217.88l-0.317,17.152l-0.969,17.122l-1.619,17.091l-2.255,17.045l-2.889,16.968l-3.54,16.892l-4.175,16.786l-4.795,16.663l-5.429,16.526l-6.049,16.373l-6.652,16.205l-7.271,16.021l-7.858,15.808l-8.462,15.594l-9.049,15.365l-9.605,15.121l-10.176,14.845l-10.748,14.571l-11.272,14.281l-11.812,13.96l-12.335,13.654l-12.827,13.303l-13.336,12.952l-13.812,12.6l-14.288,12.219l-14.733,11.837l-15.177,11.439l-15.59,11.012l-16.002,10.6l-16.4,10.172l-16.765,9.714l-17.129,9.271l-17.464,8.812l-17.796,8.34l-18.099,7.85l-18.384,7.377l-18.654,6.873l-18.908,6.369l-19.13,5.865l-19.336,5.361l-19.543,4.826l-19.702,4.307l-19.86,3.773l-19.988,3.253l-20.114,2.704l-20.194,2.168l-20.258,1.635l-20.32,1.084l-20.353,0.55l-20.369,-0l-20.336,-0.55l-20.321,-1.084l-20.273,-1.635l-20.194,-2.168l-20.099,-2.704l-20.003,-3.253l-19.861,-3.773l-19.701,-4.307l-19.527,-4.826l-19.353,-5.361l-19.13,-5.865l-18.908,-6.369l-18.638,-6.873l-18.384,-7.377l-18.098,-7.85l-17.797,-8.34l-17.463,-8.812l-17.13,-9.271l-16.781,-9.714l-16.383,-10.172l-16.003,-10.6l-15.606,-11.012l-15.177,-11.439l-14.733,-11.837l-14.272,-12.219l-13.828,-12.6l-13.319,-12.952l-12.844,-13.303l-12.335,-13.654l-11.812,-13.96l-11.271,-14.281l-10.732,-14.571l-10.177,-14.845l-9.62,-15.121l-9.049,-15.365l-8.446,-15.594l-7.875,-15.808l-7.255,-16.021l-6.668,-16.205l-6.048,-16.373l-5.414,-16.526l-4.81,-16.663l-4.16,-16.786l-3.54,-16.892l-2.905,-16.968l-2.254,-17.045l-1.604,-17.091l-0.968,-17.122l-0.334,-17.152" style="fill:none;fill-rule:nonzero;stroke:#333;stroke-opacity:0.27;stroke-width:16.06px;"/><path d="M3431.32,1083.28l-0.381,-20.885l-1.159,-20.871l-1.937,-20.823l-2.714,-20.762l-3.477,-20.669l-4.239,-20.575l-5.001,-20.452l-5.763,-20.296l-6.509,-20.126l-7.255,-19.956l-8.001,-19.738l-8.716,-19.506l-9.43,-19.273l-10.161,-19.01l-10.843,-18.715l-11.541,-18.404l-12.209,-18.095l-12.891,-17.754l-13.526,-17.381l-14.177,-17.025l-14.796,-16.622l-15.399,-16.203l-16.003,-15.8l-16.574,-15.335l-17.146,-14.885l-17.685,-14.42l-18.21,-13.924l-18.701,-13.428l-19.21,-12.916l-19.67,-12.388l-20.13,-11.846l-20.559,-11.288l-20.956,-10.73l-21.353,-10.156l-21.718,-9.582l-22.051,-8.978l-22.385,-8.373l-22.686,-7.753l-22.956,-7.148l-23.211,-6.527l-23.448,-5.877l-23.639,-5.241l-23.845,-4.605l-23.988,-3.954l-24.116,-3.302l-24.242,-2.652l-24.321,-1.984l-24.385,-1.318l-24.417,-0.667l-24.433,-0l-24.417,0.667l-24.385,1.318l-24.321,1.984l-24.226,2.652l-24.131,3.302l-23.989,3.954l-23.829,4.605l-23.655,5.241l-23.448,5.877l-23.21,6.527l-22.957,7.148l-22.686,7.753l-22.369,8.373l-22.067,8.978l-21.718,9.582l-21.353,10.156l-20.955,10.73l-20.559,11.288l-20.115,11.846l-19.686,12.388l-19.193,12.916l-18.718,13.428l-18.209,13.924l-17.686,14.42l-17.146,14.885l-16.574,15.335l-16.002,15.8l-15.4,16.203l-14.796,16.622l-14.177,17.025l-13.526,17.381l-12.875,17.754l-12.224,18.095l-11.542,18.404l-10.843,18.715l-10.145,19.01l-9.446,19.273l-8.715,19.506l-8.002,19.738l-7.255,19.956l-6.509,20.126l-5.747,20.296l-5.017,20.452l-4.239,20.575l-3.476,20.669l-2.699,20.762l-1.937,20.823l-1.175,20.871l-0.381,20.885" style="fill:none;fill-rule:nonzero;stroke:#333;stroke-opacity:0.27;stroke-width:12.73px;"/><path d="M3431.32,1217.89l-0.444,24.01l-1.366,23.979l-2.254,23.918l-3.159,23.857l-4.049,23.765l-4.953,23.643l-5.842,23.506l-6.716,23.322l-7.604,23.139l-8.462,22.925l-9.319,22.681l-10.176,22.421l-11.002,22.147l-11.843,21.84l-12.669,21.505l-13.463,21.154l-14.24,20.802l-15.034,20.39l-15.781,19.993l-16.542,19.549l-17.257,19.107l-17.971,18.634l-18.67,18.144l-19.337,17.626l-20.003,17.106l-20.622,16.571l-21.242,16.007l-21.845,15.426l-22.401,14.846l-22.956,14.234l-23.48,13.609l-23.972,12.982l-24.465,12.326l-24.909,11.669l-25.321,11.012l-25.751,10.309l-26.099,9.622l-26.465,8.92l-26.782,8.217l-27.084,7.484l-27.354,6.766l-27.592,6.033l-27.798,5.284l-27.989,4.552l-28.148,3.788l-28.274,3.039l-28.37,2.276l-28.449,1.527l-28.497,0.764l-28.497,-0l-28.497,-0.764l-28.449,-1.527l-28.37,-2.276l-28.274,-3.039l-28.148,-3.788l-27.989,-4.552l-27.798,-5.284l-27.592,-6.033l-27.354,-6.766l-27.084,-7.484l-26.782,-8.217l-26.465,-8.92l-26.099,-9.622l-25.751,-10.309l-25.321,-11.012l-24.909,-11.669l-24.465,-12.326l-23.972,-12.982l-23.48,-13.609l-22.956,-14.234l-22.401,-14.846l-21.845,-15.426l-21.241,-16.007l-20.623,-16.571l-20.003,-17.106l-19.337,-17.626l-18.67,-18.144l-17.971,-18.634l-17.257,-19.107l-16.542,-19.549l-15.781,-19.993l-15.034,-20.39l-14.24,-20.802l-13.463,-21.154l-12.669,-21.505l-11.843,-21.84l-11.002,-22.147l-10.176,-22.421l-9.319,-22.681l-8.462,-22.925l-7.604,-23.139l-6.716,-23.322l-5.842,-23.506l-4.953,-23.643l-4.049,-23.765l-3.159,-23.857l-2.254,-23.918l-1.365,-23.979l-0.445,-24.01" style="fill:none;fill-rule:nonzero;stroke:#333;stroke-opacity:0.27;stroke-width:16.83px;"/><path d="M3431.32,1083.28l-0.508,-27.847l-1.556,-27.817l-2.588,-27.77l-3.603,-27.677l-4.636,-27.569l-5.652,-27.429l-6.683,-27.258l-7.668,-27.072l-8.684,-26.84l-9.669,-26.607l-10.652,-26.313l-11.637,-26.018l-12.589,-25.692l-13.527,-25.336l-14.462,-24.948l-15.384,-24.561l-16.288,-24.111l-17.178,-23.676l-18.05,-23.181l-18.892,-22.7l-19.734,-22.157l-20.527,-21.614l-21.337,-21.057l-22.099,-20.451l-22.861,-19.847l-23.575,-19.227l-24.274,-18.575l-24.957,-17.894l-25.607,-17.226l-26.227,-16.513l-26.83,-15.785l-27.417,-15.071l-27.941,-14.296l-28.465,-13.552l-28.958,-12.76l-29.417,-11.971l-29.847,-11.163l-30.243,-10.358l-30.608,-9.52l-30.942,-8.683l-31.259,-7.846l-31.529,-7.008l-31.783,-6.125l-31.99,-5.272l-32.164,-4.403l-32.307,-3.52l-32.434,-2.652l-32.513,-1.767l-32.561,-0.884l-32.577,-0l-32.545,0.884l-32.513,1.767l-32.434,2.652l-32.307,3.52l-32.18,4.403l-31.974,5.272l-31.783,6.125l-31.529,7.008l-31.259,7.846l-30.942,8.683l-30.624,9.52l-30.243,10.358l-29.831,11.163l-29.418,11.971l-28.957,12.76l-28.465,13.552l-27.957,14.296l-27.401,15.071l-26.83,15.785l-26.227,16.513l-25.607,17.226l-24.957,17.894l-24.274,18.575l-23.575,19.227l-22.861,19.847l-22.099,20.451l-21.337,21.057l-20.543,21.614l-19.718,22.157l-18.908,22.7l-18.034,23.181l-17.178,23.676l-16.288,24.111l-15.384,24.561l-14.463,24.948l-13.542,25.336l-12.573,25.692l-11.637,26.018l-10.652,26.313l-9.669,26.607l-8.684,26.84l-7.684,27.072l-6.667,27.258l-5.652,27.429l-4.636,27.569l-3.619,27.677l-2.572,27.77l-1.556,27.817l-0.508,27.847" style="fill:none;fill-rule:nonzero;stroke:#333;stroke-opacity:0.27;stroke-width:8.51px;"/><path d="M3431.32,1217.88l-0.571,30.868l-1.747,30.821l-2.905,30.776l-4.064,30.669l-5.223,30.546l-6.351,30.394l-7.509,30.211l-8.636,29.997l-9.78,29.752l-10.874,29.478l-11.987,29.156l-13.081,28.836l-14.161,28.47l-15.225,28.072l-16.273,27.66l-17.304,27.202l-18.321,26.728l-19.32,26.224l-20.305,25.705l-21.258,25.14l-22.194,24.56l-23.115,23.963l-23.988,23.323l-24.877,22.665l-25.703,21.994l-26.528,21.306l-27.306,20.573l-28.069,19.84l-28.814,19.092l-29.513,18.297l-30.179,17.504l-30.831,16.678l-31.45,15.854l-32.021,15.013l-32.577,14.143l-33.085,13.258l-33.577,12.386l-34.021,11.471l-34.435,10.553l-34.815,9.623l-35.165,8.705l-35.482,7.744l-35.736,6.797l-35.99,5.849l-36.197,4.872l-36.339,3.91l-36.482,2.933l-36.578,1.955l-36.625,0.977l-36.657,0l-36.625,-0.977l-36.578,-1.955l-36.482,-2.933l-36.355,-3.91l-36.181,-4.872l-35.99,-5.849l-35.752,-6.797l-35.467,-7.744l-35.164,-8.705l-34.816,-9.623l-34.434,-10.553l-34.037,-11.471l-33.561,-12.386l-33.101,-13.258l-32.561,-14.143l-32.037,-15.013l-31.434,-15.854l-30.831,-16.678l-30.195,-17.504l-29.513,-18.297l-28.799,-19.092l-28.084,-19.84l-27.306,-20.573l-26.528,-21.306l-25.703,-21.994l-24.861,-22.665l-24.004,-23.323l-23.099,-23.963l-22.195,-24.56l-21.273,-25.14l-20.289,-25.705l-19.321,-26.224l-18.32,-26.728l-17.321,-27.202l-16.272,-27.66l-15.225,-28.072l-14.161,-28.47l-13.066,-28.836l-11.986,-29.156l-10.891,-29.478l-9.763,-29.752l-8.637,-29.997l-7.509,-30.211l-6.366,-30.394l-5.207,-30.546l-4.064,-30.669l-2.905,-30.776l-1.747,-30.821l-0.587,-30.868" style="fill:none;fill-rule:nonzero;stroke:#333;stroke-opacity:0.27;stroke-width:9.27px;"/><path d="M3174.68,1083.28l-0.064,-3.488l-0.19,-3.474l-0.334,-3.473l-0.444,-3.457l-0.572,-3.443l-0.714,-3.426l-0.841,-3.411l-0.953,-3.381l-1.079,-3.364l-1.223,-3.318l-1.318,-3.288l-1.46,-3.256l-1.572,-3.209l-1.699,-3.163l-1.793,-3.117l-1.937,-3.07l-2.032,-3.024l-2.144,-2.961l-2.254,-2.9l-2.365,-2.822l-2.461,-2.775l-2.572,-2.698l-2.667,-2.636l-2.763,-2.558l-2.857,-2.481l-2.953,-2.404l-3.032,-2.325l-3.112,-2.233l-3.207,-2.155l-3.27,-2.063l-3.366,-1.969l-3.413,-1.891l-3.493,-1.784l-3.572,-1.69l-3.619,-1.597l-3.668,-1.504l-3.73,-1.395l-3.779,-1.287l-3.826,-1.194l-3.874,-1.085l-3.905,-0.977l-3.937,-0.884l-3.985,-0.76l-3.985,-0.667l-4.032,-0.542l-4.033,-0.434l-4.048,-0.341l-4.064,-0.218l-4.08,-0.108l-4.064,-0l-4.08,0.108l-4.065,0.218l-4.048,0.341l-4.032,0.434l-4.033,0.542l-4,0.667l-3.969,0.76l-3.937,0.884l-3.906,0.977l-3.873,1.085l-3.827,1.194l-3.778,1.287l-3.731,1.395l-3.667,1.504l-3.62,1.597l-3.572,1.69l-3.492,1.784l-3.414,1.891l-3.365,1.969l-3.271,2.063l-3.207,2.155l-3.111,2.233l-3.048,2.325l-2.937,2.404l-2.858,2.481l-2.762,2.558l-2.667,2.636l-2.572,2.698l-2.461,2.775l-2.365,2.822l-2.255,2.9l-2.143,2.961l-2.032,3.024l-1.937,3.07l-1.81,3.117l-1.683,3.163l-1.571,3.209l-1.461,3.256l-1.333,3.288l-1.207,3.318l-1.079,3.364l-0.969,3.381l-0.825,3.411l-0.715,3.426l-0.571,3.443l-0.461,3.457l-0.317,3.473l-0.191,3.474l-0.063,3.488" style="fill:none;fill-rule:nonzero;stroke:#333;stroke-opacity:0.27;stroke-width:50.1px;"/><path d="M3174.68,1217.88l-0.127,6.858l-0.381,6.858l-0.651,6.827l-0.905,6.827l-1.159,6.782l-1.413,6.75l-1.667,6.721l-1.921,6.659l-2.175,6.613l-2.413,6.552l-2.667,6.476l-2.905,6.415l-3.144,6.323l-3.381,6.247l-3.62,6.14l-3.842,6.048l-4.08,5.941l-4.286,5.819l-4.509,5.713l-4.731,5.59l-4.937,5.452l-5.128,5.331l-5.334,5.177l-5.525,5.04l-5.715,4.888l-5.89,4.735l-6.08,4.566l-6.24,4.414l-6.397,4.246l-6.557,4.063l-6.7,3.895l-6.858,3.696l-6.985,3.528l-7.113,3.33l-7.239,3.146l-7.35,2.948l-7.462,2.749l-7.573,2.55l-7.652,2.353l-7.731,2.138l-7.811,1.924l-7.89,1.726l-7.938,1.512l-8.001,1.298l-8.033,1.085l-8.081,0.87l-8.113,0.657l-8.128,0.428l-8.144,0.214l-8.144,-0l-8.129,-0.214l-8.128,-0.428l-8.112,-0.657l-8.081,-0.87l-8.033,-1.085l-8.002,-1.298l-7.937,-1.512l-7.891,-1.726l-7.811,-1.924l-7.747,-2.138l-7.652,-2.353l-7.557,-2.55l-7.461,-2.749l-7.351,-2.948l-7.239,-3.146l-7.112,-3.33l-6.986,-3.528l-6.858,-3.696l-6.699,-3.895l-6.573,-4.063l-6.398,-4.246l-6.239,-4.414l-6.065,-4.566l-5.889,-4.735l-5.716,-4.888l-5.524,-5.04l-5.335,-5.177l-5.143,-5.331l-4.922,-5.452l-4.731,-5.59l-4.508,-5.713l-4.303,-5.819l-4.064,-5.941l-3.842,-6.048l-3.62,-6.14l-3.381,-6.247l-3.143,-6.323l-2.906,-6.415l-2.667,-6.476l-2.429,-6.552l-2.159,-6.613l-1.921,-6.659l-1.667,-6.721l-1.413,-6.75l-1.159,-6.782l-0.905,-6.827l-0.65,-6.827l-0.381,-6.858l-0.127,-6.858" style="fill:none;fill-rule:nonzero;stroke:#333;stroke-opacity:0.27;stroke-width:54.87px;"/><path d="M3174.68,1083.28l-0.191,-10.45l-0.587,-10.42l-0.968,-10.419l-1.35,-10.374l-1.746,-10.342l-2.112,-10.28l-2.508,-10.233l-2.874,-10.141l-3.254,-10.078l-3.636,-9.97l-3.984,-9.862l-4.366,-9.768l-4.715,-9.629l-5.08,-9.505l-5.43,-9.349l-5.763,-9.211l-6.112,-9.039l-6.43,-8.885l-6.779,-8.698l-7.08,-8.497l-7.398,-8.311l-7.7,-8.109l-8.001,-7.893l-8.287,-7.675l-8.573,-7.442l-8.843,-7.21l-9.097,-6.962l-9.366,-6.714l-9.605,-6.466l-9.827,-6.186l-10.065,-5.924l-10.272,-5.643l-10.494,-5.365l-10.668,-5.086l-10.859,-4.776l-11.034,-4.496l-11.192,-4.187l-11.335,-3.876l-11.478,-3.582l-11.606,-3.256l-11.716,-2.946l-11.827,-2.62l-11.923,-2.295l-11.986,-1.985l-12.065,-1.643l-12.129,-1.318l-12.161,-0.993l-12.177,-0.666l-12.224,-0.326l-12.209,-0l-12.208,0.326l-12.192,0.666l-12.161,0.993l-12.113,1.318l-12.066,1.643l-12.002,1.985l-11.907,2.295l-11.827,2.62l-11.716,2.946l-11.605,3.256l-11.494,3.582l-11.336,3.876l-11.192,4.187l-11.034,4.496l-10.858,4.776l-10.669,5.086l-10.478,5.365l-10.271,5.643l-10.066,5.924l-9.843,6.186l-9.604,6.466l-9.351,6.714l-9.113,6.962l-8.842,7.21l-8.557,7.442l-8.288,7.675l-8.001,7.893l-7.715,8.109l-7.399,8.311l-7.08,8.497l-6.763,8.698l-6.446,8.885l-6.112,9.039l-5.763,9.211l-5.429,9.349l-5.065,9.505l-4.73,9.629l-4.35,9.768l-4.001,9.862l-3.62,9.97l-3.254,10.078l-2.89,10.141l-2.492,10.233l-2.127,10.28l-1.747,10.342l-1.349,10.374l-0.969,10.419l-0.571,10.42l-0.206,10.45" style="fill:none;fill-rule:nonzero;stroke:#333;stroke-opacity:0.27;stroke-width:11.77px;"/><path d="M3174.68,1217.88l-0.254,13.716l-0.778,13.7l-1.286,13.685l-1.81,13.624l-2.318,13.578l-2.826,13.517l-3.333,13.425l-3.842,13.333l-4.35,13.212l-4.826,13.104l-5.335,12.967l-5.81,12.815l-6.287,12.646l-6.779,12.478l-7.223,12.295l-7.7,12.081l-8.144,11.883l-8.589,11.654l-9.017,11.424l-9.446,11.18l-9.859,10.905l-10.272,10.661l-10.668,10.355l-11.05,10.081l-11.43,9.775l-11.796,9.469l-12.129,9.149l-12.478,8.812l-12.812,8.477l-13.113,8.141l-13.415,7.774l-13.701,7.423l-13.97,7.041l-14.241,6.674l-14.478,6.277l-14.701,5.896l-14.923,5.498l-15.114,5.102l-15.304,4.688l-15.479,4.292l-15.638,3.864l-15.764,3.437l-15.876,3.024l-16.002,2.596l-16.082,2.169l-16.162,1.741l-16.209,1.299l-16.257,0.87l-16.272,0.443l-16.289,0l-16.288,-0.443l-16.257,-0.87l-16.209,-1.299l-16.161,-1.741l-16.082,-2.169l-15.987,-2.596l-15.892,-3.024l-15.764,-3.437l-15.638,-3.864l-15.463,-4.292l-15.304,-4.688l-15.129,-5.102l-14.924,-5.498l-14.7,-5.896l-14.479,-6.277l-14.24,-6.674l-13.971,-7.041l-13.701,-7.423l-13.415,-7.774l-13.113,-8.141l-12.812,-8.477l-12.478,-8.812l-12.129,-9.149l-11.796,-9.469l-11.414,-9.775l-11.066,-10.081l-10.652,-10.355l-10.272,-10.661l-9.874,-10.905l-9.446,-11.18l-9.018,-11.424l-8.589,-11.654l-8.144,-11.883l-7.699,-12.081l-7.224,-12.295l-6.763,-12.478l-6.303,-12.646l-5.81,-12.815l-5.318,-12.967l-4.843,-13.104l-4.349,-13.212l-3.827,-13.333l-3.349,-13.425l-2.826,-13.517l-2.318,-13.578l-1.794,-13.624l-1.302,-13.685l-0.778,-13.7l-0.254,-13.716" style="fill:none;fill-rule:nonzero;stroke:#333;stroke-opacity:0.27;stroke-width:17.14px;"/><path d="M3174.68,1083.28l-0.318,-17.412l-0.968,-17.382l-1.619,-17.35l-2.255,-17.304l-2.905,-17.227l-3.524,-17.149l-4.176,-17.04l-4.794,-16.916l-5.43,-16.777l-6.048,-16.622l-6.652,-16.451l-7.271,-16.265l-7.859,-16.048l-8.461,-15.831l-9.05,-15.599l-9.604,-15.35l-10.192,-15.071l-10.732,-14.792l-11.272,-14.498l-11.812,-14.172l-12.335,-13.862l-12.828,-13.505l-13.335,-13.148l-13.812,-12.792l-14.288,-12.404l-14.733,-12.017l-15.177,-11.614l-15.59,-11.179l-16.003,-10.761l-16.399,-10.326l-16.781,-9.862l-17.114,-9.412l-17.479,-8.946l-17.781,-8.466l-18.098,-7.97l-18.384,-7.489l-18.654,-6.977l-18.908,-6.466l-19.13,-5.954l-19.336,-5.443l-19.543,-4.899l-19.702,-4.373l-19.861,-3.83l-19.987,-3.302l-20.115,-2.745l-20.193,-2.201l-20.274,-1.659l-20.305,-1.101l-20.352,-0.559l-20.369,0l-20.352,0.559l-20.305,1.101l-20.274,1.659l-20.193,2.201l-20.115,2.745l-19.987,3.302l-19.861,3.83l-19.702,4.373l-19.543,4.899l-19.336,5.443l-19.13,5.954l-18.908,6.466l-18.654,6.977l-18.384,7.489l-18.098,7.97l-17.781,8.466l-17.479,8.946l-17.114,9.412l-16.781,9.862l-16.399,10.326l-16.003,10.761l-15.59,11.179l-15.177,11.614l-14.733,12.017l-14.288,12.404l-13.812,12.792l-13.335,13.148l-12.828,13.505l-12.335,13.862l-11.812,14.172l-11.272,14.498l-10.731,14.792l-10.193,15.071l-9.604,15.35l-9.05,15.599l-8.461,15.831l-7.859,16.048l-7.271,16.265l-6.652,16.451l-6.048,16.622l-5.43,16.777l-4.794,16.916l-4.176,17.04l-3.524,17.149l-2.905,17.227l-2.255,17.304l-1.619,17.35l-0.968,17.382l-0.318,17.412" style="fill:none;fill-rule:nonzero;stroke:#333;stroke-opacity:0.27;stroke-width:12.09px;"/><path d="M3174.68,1217.89l-0.381,20.573l-1.175,20.558l-1.937,20.512l-2.699,20.451l-3.476,20.359l-4.239,20.268l-5.017,20.146l-5.747,19.992l-6.509,19.825l-7.255,19.657l-8.001,19.443l-8.716,19.214l-9.446,18.984l-10.145,18.725l-10.843,18.435l-11.542,18.13l-12.224,17.824l-12.875,17.487l-13.526,17.122l-14.177,16.77l-14.796,16.373l-15.4,15.961l-16.002,15.563l-16.574,15.105l-17.146,14.663l-17.686,14.204l-18.209,13.715l-18.717,13.227l-19.194,12.723l-19.686,12.203l-20.114,11.669l-20.559,11.119l-20.956,10.569l-21.353,10.004l-21.718,9.439l-22.067,8.843l-22.369,8.248l-22.686,7.636l-22.957,7.041l-23.21,6.43l-23.448,5.789l-23.655,5.162l-23.829,4.536l-23.989,3.895l-24.131,3.253l-24.226,2.612l-24.321,1.955l-24.385,1.298l-24.417,0.657l-24.433,0l-24.417,-0.657l-24.385,-1.298l-24.321,-1.955l-24.242,-2.612l-24.116,-3.253l-23.988,-3.895l-23.845,-4.536l-23.639,-5.162l-23.448,-5.789l-23.21,-6.43l-22.957,-7.041l-22.686,-7.636l-22.385,-8.248l-22.051,-8.843l-21.718,-9.439l-21.353,-10.004l-20.956,-10.569l-20.559,-11.119l-20.13,-11.669l-19.67,-12.203l-19.21,-12.723l-18.701,-13.227l-18.209,-13.715l-17.686,-14.204l-17.146,-14.663l-16.574,-15.105l-16.003,-15.563l-15.399,-15.961l-14.796,-16.373l-14.177,-16.77l-13.526,-17.122l-12.891,-17.487l-12.209,-17.824l-11.541,-18.13l-10.843,-18.435l-10.161,-18.725l-9.43,-18.984l-8.716,-19.214l-8.001,-19.443l-7.255,-19.657l-6.509,-19.825l-5.763,-19.992l-5.001,-20.146l-4.239,-20.268l-3.476,-20.359l-2.715,-20.451l-1.937,-20.512l-1.159,-20.558l-0.381,-20.573" style="fill:none;fill-rule:nonzero;stroke:#333;stroke-opacity:0.27;stroke-width:15.91px;"/><path d="M3174.68,1083.28l-0.445,-24.374l-1.365,-24.343l-2.254,-24.282l-3.16,-24.219l-4.064,-24.127l-4.937,-24.002l-5.842,-23.863l-6.716,-23.676l-7.604,-23.491l-8.462,-23.274l-9.319,-23.025l-10.176,-22.762l-11.018,-22.483l-11.843,-22.172l-12.653,-21.832l-13.463,-21.475l-14.24,-21.118l-15.034,-20.7l-15.797,-20.296l-16.526,-19.847l-17.257,-19.398l-17.987,-18.916l-18.654,-18.42l-19.353,-17.894l-19.987,-17.366l-20.623,-16.823l-21.257,-16.25l-21.829,-15.66l-22.401,-15.071l-22.956,-14.451l-23.48,-13.816l-23.972,-13.179l-24.465,-12.513l-24.909,-11.846l-25.337,-11.179l-25.735,-10.467l-26.115,-9.768l-26.449,-9.055l-26.798,-8.342l-27.068,-7.598l-27.354,-6.868l-27.592,-6.125l-27.798,-5.365l-27.989,-4.621l-28.148,-3.845l-28.274,-3.085l-28.386,-2.311l-28.433,-1.55l-28.497,-0.776l-28.497,0l-28.497,0.776l-28.449,1.55l-28.37,2.311l-28.275,3.085l-28.147,3.845l-27.989,4.621l-27.798,5.365l-27.592,6.125l-27.354,6.868l-27.084,7.598l-26.782,8.342l-26.465,9.055l-26.115,9.768l-25.735,10.467l-25.337,11.179l-24.909,11.846l-24.449,12.513l-23.972,13.179l-23.48,13.816l-22.956,14.451l-22.401,15.071l-21.845,15.66l-21.242,16.25l-20.622,16.823l-20.003,17.366l-19.337,17.894l-18.67,18.42l-17.971,18.916l-17.257,19.398l-16.542,19.847l-15.781,20.296l-15.034,20.7l-14.256,21.118l-13.463,21.475l-12.653,21.832l-11.843,22.172l-11.002,22.483l-10.176,22.762l-9.319,23.025l-8.478,23.274l-7.589,23.491l-6.715,23.676l-5.842,23.863l-4.953,24.002l-4.049,24.127l-3.159,24.219l-2.27,24.282l-1.35,24.343l-0.444,24.374" style="fill:none;fill-rule:nonzero;stroke:#333;stroke-opacity:0.27;stroke-width:9.99px;"/><path d="M3174.68,1217.88l-0.508,27.431l-1.556,27.401l-2.588,27.354l-3.603,27.263l-4.636,27.156l-5.668,27.018l-6.668,26.851l-7.683,26.667l-8.669,26.438l-9.684,26.209l-10.652,25.919l-11.621,25.628l-12.59,25.308l-13.526,24.957l-14.462,24.575l-15.384,24.193l-16.288,23.75l-17.178,23.322l-18.051,22.833l-18.892,22.361l-19.733,21.825l-20.543,21.291l-21.321,20.741l-22.115,20.146l-22.845,19.55l-23.576,18.938l-24.273,18.298l-24.957,17.625l-25.607,16.969l-26.243,16.266l-26.83,15.548l-27.401,14.846l-27.941,14.082l-28.466,13.349l-28.957,12.57l-29.417,11.791l-29.847,10.996l-30.243,10.203l-30.608,9.378l-30.942,8.553l-31.259,7.728l-31.529,6.904l-31.783,6.033l-31.99,5.193l-32.164,4.337l-32.307,3.467l-32.434,2.612l-32.513,1.741l-32.561,0.871l-32.577,-0l-32.561,-0.871l-32.514,-1.741l-32.418,-2.612l-32.323,-3.467l-32.164,-4.337l-31.989,-5.193l-31.767,-6.033l-31.529,-6.904l-31.26,-7.728l-30.957,-8.553l-30.609,-9.378l-30.243,-10.203l-29.846,-10.996l-29.402,-11.791l-28.957,-12.57l-28.465,-13.349l-27.957,-14.082l-27.401,-14.846l-26.83,-15.548l-26.227,-16.266l-25.607,-16.969l-24.957,-17.625l-24.29,-18.298l-23.575,-18.938l-22.845,-19.55l-22.099,-20.146l-21.337,-20.741l-20.543,-21.291l-19.734,-21.825l-18.892,-22.361l-18.035,-22.833l-17.177,-23.322l-16.288,-23.75l-15.384,-24.193l-14.463,-24.575l-13.542,-24.957l-12.589,-25.308l-11.621,-25.628l-10.653,-25.919l-9.668,-26.209l-8.684,-26.438l-7.684,-26.667l-6.668,-26.851l-5.651,-27.018l-4.636,-27.156l-3.62,-27.263l-2.587,-27.354l-1.54,-27.401l-0.524,-27.431" style="fill:none;fill-rule:nonzero;stroke:#333;stroke-opacity:0.27;stroke-width:9.43px;"/><path d="M2918.03,1217.88l-0.064,3.437l-0.19,3.421l-0.334,3.421l-0.444,3.406l-0.588,3.391l-0.698,3.375l-0.842,3.36l-0.952,3.33l-1.096,3.314l-1.206,3.269l-1.334,3.238l-1.444,3.207l-1.572,3.162l-1.699,3.116l-1.81,3.069l-1.92,3.025l-2.033,2.978l-2.143,2.917l-2.254,2.856l-2.366,2.78l-2.476,2.734l-2.556,2.657l-2.667,2.597l-2.763,2.52l-2.857,2.444l-2.953,2.367l-3.032,2.291l-3.112,2.199l-3.207,2.123l-3.286,2.032l-3.35,1.939l-3.429,1.864l-3.493,1.756l-3.556,1.665l-3.62,1.573l-3.667,1.482l-3.731,1.374l-3.794,1.268l-3.826,1.176l-3.858,1.069l-3.905,0.962l-3.953,0.871l-3.969,0.748l-4.001,0.657l-4.016,0.535l-4.033,0.427l-4.064,0.336l-4.064,0.214l-4.064,0.107l-4.08,0l-4.065,-0.107l-4.064,-0.214l-4.048,-0.336l-4.048,-0.427l-4.017,-0.535l-4,-0.657l-3.969,-0.748l-3.938,-0.871l-3.905,-0.962l-3.874,-1.069l-3.826,-1.176l-3.778,-1.268l-3.731,-1.374l-3.683,-1.482l-3.62,-1.573l-3.556,-1.665l-3.492,-1.756l-3.43,-1.864l-3.349,-1.939l-3.271,-2.032l-3.207,-2.123l-3.127,-2.199l-3.032,-2.291l-2.937,-2.367l-2.858,-2.444l-2.762,-2.52l-2.668,-2.597l-2.571,-2.657l-2.461,-2.734l-2.366,-2.78l-2.254,-2.856l-2.143,-2.917l-2.048,-2.978l-1.921,-3.025l-1.81,-3.069l-1.683,-3.116l-1.571,-3.162l-1.461,-3.207l-1.334,-3.238l-1.206,-3.269l-1.08,-3.314l-0.968,-3.33l-0.826,-3.36l-0.714,-3.375l-0.572,-3.391l-0.46,-3.406l-0.317,-3.421l-0.191,-3.421l-0.063,-3.437" style="fill:none;fill-rule:nonzero;stroke:#333;stroke-opacity:0.27;stroke-width:46.61px;"/><path d="M2918.03,1083.28l-0.127,-6.962l-0.397,-6.961l-0.635,-6.931l-0.905,-6.931l-1.159,-6.885l-1.413,-6.853l-1.667,-6.822l-1.921,-6.761l-2.175,-6.714l-2.413,-6.651l-2.667,-6.575l-2.905,-6.512l-3.144,-6.419l-3.381,-6.342l-3.62,-6.233l-3.858,-6.14l-4.064,-6.032l-4.286,-5.907l-4.525,-5.799l-4.715,-5.675l-4.937,-5.536l-5.128,-5.411l-5.334,-5.256l-5.525,-5.117l-5.715,-4.962l-5.89,-4.806l-6.081,-4.637l-6.239,-4.481l-6.398,-4.31l-6.556,-4.125l-6.716,-3.953l-6.842,-3.753l-6.985,-3.581l-7.129,-3.381l-7.239,-3.194l-7.35,-2.992l-7.462,-2.791l-7.557,-2.59l-7.652,-2.387l-7.731,-2.171l-7.827,-1.954l-7.874,-1.752l-7.938,-1.535l-8.001,-1.318l-8.049,-1.101l-8.081,-0.884l-8.097,-0.666l-8.128,-0.435l-8.144,-0.217l-8.145,0l-8.144,0.217l-8.128,0.435l-8.097,0.666l-8.08,0.884l-8.049,1.101l-7.986,1.318l-7.954,1.535l-7.874,1.752l-7.811,1.954l-7.747,2.171l-7.652,2.387l-7.557,2.59l-7.461,2.791l-7.351,2.992l-7.239,3.194l-7.113,3.381l-7.001,3.581l-6.842,3.753l-6.716,3.953l-6.556,4.125l-6.398,4.31l-6.239,4.481l-6.065,4.637l-5.905,4.806l-5.7,4.962l-5.525,5.117l-5.334,5.256l-5.144,5.411l-4.937,5.536l-4.715,5.675l-4.509,5.799l-4.302,5.907l-4.064,6.032l-3.842,6.14l-3.62,6.233l-3.381,6.342l-3.159,6.419l-2.906,6.512l-2.651,6.575l-2.429,6.651l-2.159,6.714l-1.921,6.761l-1.667,6.822l-1.429,6.853l-1.159,6.885l-0.889,6.931l-0.651,6.931l-0.381,6.961l-0.142,6.962" style="fill:none;fill-rule:nonzero;stroke:#333;stroke-opacity:0.27;stroke-width:10.64px;"/><path d="M2918.03,1217.88l-0.191,10.295l-0.587,10.263l-0.969,10.264l-1.349,10.218l-1.746,10.187l-2.112,10.126l-2.508,10.081l-2.874,9.988l-3.254,9.928l-3.636,9.821l-4,9.714l-4.35,9.622l-4.715,9.485l-5.081,9.362l-5.429,9.21l-5.763,9.072l-6.112,8.905l-6.446,8.751l-6.763,8.568l-7.08,8.37l-7.398,8.187l-7.7,7.988l-8.001,7.774l-8.287,7.56l-8.573,7.331l-8.843,7.102l-9.113,6.858l-9.35,6.613l-9.605,6.369l-9.843,6.094l-10.049,5.835l-10.288,5.559l-10.478,5.285l-10.668,5.009l-10.859,4.705l-11.034,4.429l-11.192,4.124l-11.335,3.818l-11.479,3.528l-11.605,3.208l-11.732,2.901l-11.811,2.582l-11.923,2.26l-12.002,1.955l-12.05,1.619l-12.129,1.298l-12.16,0.978l-12.193,0.657l-12.208,0.32l-12.209,0l-12.208,-0.32l-12.193,-0.657l-12.16,-0.978l-12.129,-1.298l-12.05,-1.619l-12.002,-1.955l-11.907,-2.26l-11.827,-2.582l-11.732,-2.901l-11.605,-3.208l-11.479,-3.528l-11.335,-3.818l-11.192,-4.124l-11.034,-4.429l-10.859,-4.705l-10.668,-5.009l-10.478,-5.285l-10.287,-5.559l-10.05,-5.835l-9.843,-6.094l-9.604,-6.369l-9.351,-6.613l-9.113,-6.858l-8.843,-7.102l-8.573,-7.331l-8.287,-7.56l-8.001,-7.774l-7.7,-7.988l-7.398,-8.187l-7.08,-8.37l-6.763,-8.568l-6.446,-8.751l-6.112,-8.905l-5.763,-9.072l-5.429,-9.21l-5.081,-9.362l-4.715,-9.485l-4.35,-9.622l-4,-9.714l-3.636,-9.821l-3.254,-9.928l-2.874,-9.988l-2.508,-10.081l-2.112,-10.126l-1.746,-10.187l-1.349,-10.218l-0.969,-10.264l-0.587,-10.263l-0.191,-10.295" style="fill:none;fill-rule:nonzero;stroke:#333;stroke-opacity:0.27;stroke-width:14.36px;"/><path d="M2918.03,1083.28l-0.254,-13.923l-0.778,-13.909l-1.302,-13.893l-1.794,-13.83l-2.318,-13.785l-2.826,-13.722l-3.349,-13.629l-3.826,-13.536l-4.35,-13.412l-4.827,-13.304l-5.334,-13.164l-5.81,-13.009l-6.303,-12.839l-6.763,-12.667l-7.223,-12.482l-7.7,-12.265l-8.144,-12.063l-8.589,-11.831l-9.018,-11.598l-9.446,-11.35l-9.874,-11.071l-10.272,-10.822l-10.652,-10.513l-11.066,-10.233l-11.414,-9.924l-11.796,-9.613l-12.129,-9.288l-12.478,-8.947l-12.812,-8.605l-13.113,-8.264l-13.415,-7.893l-13.701,-7.535l-13.97,-7.148l-14.241,-6.776l-14.479,-6.373l-14.7,-5.985l-14.924,-5.582l-15.129,-5.179l-15.304,-4.76l-15.463,-4.357l-15.638,-3.923l-15.764,-3.488l-15.892,-3.07l-15.987,-2.636l-16.082,-2.202l-16.161,-1.768l-16.209,-1.318l-16.257,-0.883l-16.288,-0.45l-16.289,-0l-16.272,0.45l-16.257,0.883l-16.209,1.318l-16.161,1.768l-16.083,2.202l-15.986,2.636l-15.892,3.07l-15.764,3.488l-15.638,3.923l-15.479,4.357l-15.304,4.76l-15.114,5.179l-14.923,5.582l-14.701,5.985l-14.478,6.373l-14.241,6.776l-13.97,7.148l-13.701,7.535l-13.415,7.893l-13.113,8.264l-12.812,8.605l-12.478,8.947l-12.129,9.288l-11.796,9.613l-11.43,9.924l-11.05,10.233l-10.668,10.513l-10.272,10.822l-9.859,11.071l-9.446,11.35l-9.017,11.598l-8.589,11.831l-8.144,12.063l-7.7,12.265l-7.223,12.482l-6.779,12.667l-6.287,12.839l-5.81,13.009l-5.334,13.164l-4.827,13.304l-4.35,13.412l-3.842,13.536l-3.333,13.629l-2.826,13.722l-2.318,13.785l-1.81,13.83l-1.286,13.893l-0.778,13.909l-0.254,13.923" style="fill:none;fill-rule:nonzero;stroke:#333;stroke-opacity:0.27;stroke-width:11.45px;"/><path d="M2918.03,1217.89l-0.334,17.152l-0.968,17.121l-1.604,17.091l-2.254,17.045l-2.905,16.969l-3.54,16.892l-4.16,16.785l-4.81,16.664l-5.414,16.525l-6.048,16.373l-6.668,16.205l-7.255,16.022l-7.875,15.808l-8.446,15.594l-9.049,15.365l-9.62,15.12l-10.177,14.846l-10.732,14.571l-11.271,14.28l-11.812,13.96l-12.335,13.654l-12.844,13.304l-13.319,12.951l-13.828,12.601l-14.272,12.218l-14.733,11.837l-15.177,11.44l-15.606,11.012l-16.003,10.6l-16.383,10.172l-16.781,9.713l-17.13,9.271l-17.463,8.813l-17.797,8.339l-18.098,7.851l-18.368,7.377l-18.654,6.873l-18.908,6.369l-19.13,5.865l-19.352,5.361l-19.528,4.826l-19.701,4.307l-19.861,3.773l-20.003,3.253l-20.099,2.703l-20.194,2.169l-20.273,1.634l-20.321,1.085l-20.336,0.549l-20.369,0l-20.353,-0.549l-20.32,-1.085l-20.258,-1.634l-20.194,-2.169l-20.114,-2.703l-19.988,-3.253l-19.86,-3.773l-19.702,-4.307l-19.543,-4.826l-19.336,-5.361l-19.13,-5.865l-18.908,-6.369l-18.654,-6.873l-18.384,-7.377l-18.099,-7.851l-17.78,-8.339l-17.479,-8.813l-17.13,-9.271l-16.765,-9.713l-16.4,-10.172l-16.002,-10.6l-15.59,-11.012l-15.177,-11.44l-14.733,-11.837l-14.288,-12.218l-13.812,-12.601l-13.335,-12.951l-12.828,-13.304l-12.335,-13.654l-11.812,-13.96l-11.272,-14.28l-10.748,-14.571l-10.176,-14.846l-9.605,-15.12l-9.049,-15.365l-8.461,-15.594l-7.859,-15.808l-7.271,-16.022l-6.652,-16.205l-6.049,-16.373l-5.429,-16.525l-4.794,-16.664l-4.176,-16.785l-3.54,-16.892l-2.889,-16.969l-2.255,-17.045l-1.619,-17.091l-0.968,-17.121l-0.318,-17.152" style="fill:none;fill-rule:nonzero;stroke:#333;stroke-opacity:0.27;stroke-width:14.67px;"/><path d="M2918.03,1083.28l-0.397,-20.885l-1.159,-20.871l-1.937,-20.823l-2.699,-20.762l-3.477,-20.669l-4.254,-20.575l-5.001,-20.452l-5.763,-20.296l-6.509,-20.126l-7.255,-19.956l-7.986,-19.738l-8.715,-19.506l-9.446,-19.273l-10.145,-19.01l-10.843,-18.715l-11.542,-18.404l-12.224,-18.095l-12.875,-17.754l-13.542,-17.381l-14.161,-17.025l-14.796,-16.622l-15.416,-16.203l-15.986,-15.8l-16.59,-15.335l-17.13,-14.885l-17.686,-14.42l-18.209,-13.924l-18.718,-13.428l-19.209,-12.916l-19.67,-12.388l-20.115,-11.846l-20.559,-11.288l-20.956,-10.73l-21.352,-10.156l-21.718,-9.582l-22.067,-8.978l-22.385,-8.373l-22.671,-7.753l-22.956,-7.148l-23.226,-6.527l-23.432,-5.877l-23.655,-5.241l-23.83,-4.605l-23.988,-3.954l-24.131,-3.302l-24.226,-2.652l-24.322,-1.984l-24.385,-1.318l-24.416,-0.667l-24.433,-0l-24.417,0.667l-24.385,1.318l-24.321,1.984l-24.243,2.652l-24.131,3.302l-23.988,3.954l-23.829,4.605l-23.639,5.241l-23.448,5.877l-23.211,6.527l-22.956,7.148l-22.686,7.753l-22.385,8.373l-22.051,8.978l-21.718,9.582l-21.353,10.156l-20.972,10.73l-20.543,11.288l-20.13,11.846l-19.67,12.388l-19.21,12.916l-18.717,13.428l-18.21,13.924l-17.669,14.42l-17.146,14.885l-16.574,15.335l-16.003,15.8l-15.399,16.203l-14.796,16.622l-14.177,17.025l-13.526,17.381l-12.891,17.754l-12.209,18.095l-11.541,18.404l-10.859,18.715l-10.145,19.01l-9.43,19.273l-8.732,19.506l-7.985,19.738l-7.255,19.956l-6.509,20.126l-5.763,20.296l-5.001,20.452l-4.239,20.575l-3.477,20.669l-2.714,20.762l-1.937,20.823l-1.159,20.871l-0.381,20.885" style="fill:none;fill-rule:nonzero;stroke:#333;stroke-opacity:0.27;stroke-width:8.84px;"/><path d="M2918.03,1217.88l-0.461,24.01l-1.349,23.979l-2.254,23.918l-3.16,23.857l-4.064,23.765l-4.953,23.643l-5.826,23.506l-6.732,23.322l-7.588,23.139l-8.462,22.926l-9.319,22.68l-10.176,22.422l-11.018,22.146l-11.843,21.841l-12.653,21.505l-13.463,21.153l-14.256,20.802l-15.019,20.39l-15.796,19.993l-16.526,19.55l-17.273,19.107l-17.971,18.633l-18.67,18.145l-19.337,17.625l-19.987,17.106l-20.639,16.572l-21.241,16.006l-21.829,15.426l-22.401,14.846l-22.956,14.235l-23.48,13.608l-23.988,12.983l-24.449,12.325l-24.909,11.669l-25.338,11.012l-25.734,10.309l-26.115,9.623l-26.465,8.919l-26.783,8.217l-27.083,7.484l-27.338,6.766l-27.592,6.033l-27.814,5.285l-27.989,4.551l-28.148,3.788l-28.274,3.039l-28.37,2.276l-28.449,1.527l-28.481,0.764l-28.513,0l-28.481,-0.764l-28.449,-1.527l-28.37,-2.276l-28.275,-3.039l-28.147,-3.788l-27.989,-4.551l-27.814,-5.285l-27.576,-6.033l-27.354,-6.766l-27.084,-7.484l-26.782,-8.217l-26.465,-8.919l-26.116,-9.623l-25.734,-10.309l-25.338,-11.012l-24.908,-11.669l-24.449,-12.325l-23.988,-12.983l-23.48,-13.608l-22.941,-14.235l-22.416,-14.846l-21.829,-15.426l-21.242,-16.006l-20.638,-16.572l-19.988,-17.106l-19.336,-17.625l-18.67,-18.145l-17.971,-18.633l-17.273,-19.107l-16.527,-19.55l-15.796,-19.993l-15.018,-20.39l-14.257,-20.802l-13.462,-21.153l-12.653,-21.505l-11.843,-21.841l-11.018,-22.146l-10.161,-22.422l-9.334,-22.68l-8.462,-22.926l-7.589,-23.139l-6.715,-23.322l-5.842,-23.506l-4.954,-23.643l-4.048,-23.765l-3.159,-23.857l-2.27,-23.918l-1.35,-23.979l-0.46,-24.01" style="fill:none;fill-rule:nonzero;stroke:#333;stroke-opacity:0.27;stroke-width:8.44px;"/><path d="M2661.39,1083.28l-0.064,-3.488l-0.206,-3.474l-0.318,-3.473l-0.444,-3.457l-0.588,-3.443l-0.698,-3.426l-0.842,-3.411l-0.952,-3.381l-1.096,-3.364l-1.206,-3.318l-1.334,-3.288l-1.444,-3.256l-1.572,-3.209l-1.699,-3.163l-1.81,-3.117l-1.921,-3.07l-2.032,-3.024l-2.159,-2.961l-2.254,-2.9l-2.35,-2.822l-2.476,-2.775l-2.556,-2.698l-2.667,-2.636l-2.763,-2.558l-2.857,-2.481l-2.953,-2.404l-3.033,-2.325l-3.127,-2.233l-3.191,-2.155l-3.286,-2.063l-3.35,-1.969l-3.429,-1.891l-3.493,-1.784l-3.556,-1.69l-3.62,-1.597l-3.683,-1.504l-3.731,-1.395l-3.778,-1.287l-3.826,-1.194l-3.858,-1.085l-3.921,-0.977l-3.937,-0.884l-3.969,-0.76l-4.001,-0.667l-4.017,-0.542l-4.048,-0.434l-4.048,-0.341l-4.064,-0.218l-4.064,-0.108l-4.081,-0l-4.064,0.108l-4.064,0.218l-4.048,0.341l-4.048,0.434l-4.017,0.542l-4.001,0.667l-3.969,0.76l-3.937,0.884l-3.921,0.977l-3.858,1.085l-3.826,1.194l-3.778,1.287l-3.731,1.395l-3.683,1.504l-3.62,1.597l-3.556,1.69l-3.493,1.784l-3.429,1.891l-3.35,1.969l-3.286,2.063l-3.191,2.155l-3.127,2.233l-3.033,2.325l-2.952,2.404l-2.858,2.481l-2.762,2.558l-2.668,2.636l-2.556,2.698l-2.476,2.775l-2.35,2.822l-2.254,2.9l-2.159,2.961l-2.032,3.024l-1.921,3.07l-1.81,3.117l-1.683,3.163l-1.587,3.209l-1.445,3.256l-1.334,3.288l-1.206,3.318l-1.096,3.364l-0.952,3.381l-0.842,3.411l-0.698,3.426l-0.588,3.443l-0.444,3.457l-0.318,3.473l-0.206,3.474l-0.063,3.488" style="fill:none;fill-rule:nonzero;stroke:#333;stroke-opacity:0.27;stroke-width:10.8px;"/><path d="M2661.39,1217.88l-0.143,6.858l-0.381,6.858l-0.651,6.827l-0.889,6.827l-1.159,6.782l-1.429,6.75l-1.667,6.721l-1.921,6.659l-2.159,6.613l-2.429,6.552l-2.651,6.476l-2.905,6.415l-3.16,6.323l-3.381,6.247l-3.604,6.14l-3.858,6.048l-4.064,5.941l-4.302,5.819l-4.509,5.713l-4.715,5.59l-4.937,5.452l-5.144,5.331l-5.318,5.177l-5.541,5.04l-5.699,4.888l-5.906,4.735l-6.065,4.566l-6.239,4.414l-6.398,4.246l-6.556,4.063l-6.716,3.895l-6.842,3.696l-6.986,3.528l-7.128,3.33l-7.239,3.146l-7.35,2.948l-7.462,2.749l-7.557,2.55l-7.652,2.353l-7.747,2.138l-7.811,1.924l-7.874,1.726l-7.954,1.512l-7.986,1.298l-8.049,1.085l-8.08,0.87l-8.097,0.657l-8.128,0.428l-8.144,0.214l-8.145,-0l-8.144,-0.214l-8.128,-0.428l-8.097,-0.657l-8.081,-0.87l-8.049,-1.085l-8.001,-1.298l-7.938,-1.512l-7.874,-1.726l-7.827,-1.924l-7.731,-2.138l-7.652,-2.353l-7.557,-2.55l-7.462,-2.749l-7.35,-2.948l-7.239,-3.146l-7.129,-3.33l-6.985,-3.528l-6.842,-3.696l-6.716,-3.895l-6.556,-4.063l-6.398,-4.246l-6.239,-4.414l-6.081,-4.566l-5.89,-4.735l-5.715,-4.888l-5.525,-5.04l-5.334,-5.177l-5.128,-5.331l-4.937,-5.452l-4.715,-5.59l-4.509,-5.713l-4.302,-5.819l-4.064,-5.941l-3.858,-6.048l-3.62,-6.14l-3.381,-6.247l-3.144,-6.323l-2.905,-6.415l-2.667,-6.476l-2.413,-6.552l-2.175,-6.613l-1.921,-6.659l-1.667,-6.721l-1.413,-6.75l-1.159,-6.782l-0.905,-6.827l-0.635,-6.827l-0.397,-6.858l-0.127,-6.858" style="fill:none;fill-rule:nonzero;stroke:#333;stroke-opacity:0.27;stroke-width:15.76px;"/><path d="M2661.39,1083.28l-0.207,-10.45l-0.571,-10.42l-0.969,-10.419l-1.349,-10.374l-1.747,-10.342l-2.127,-10.28l-2.492,-10.233l-2.89,-10.141l-3.254,-10.078l-3.62,-9.97l-4.001,-9.862l-4.35,-9.768l-4.73,-9.629l-5.065,-9.505l-5.429,-9.349l-5.763,-9.211l-6.112,-9.039l-6.446,-8.885l-6.763,-8.698l-7.08,-8.497l-7.398,-8.311l-7.716,-8.109l-8.001,-7.893l-8.287,-7.675l-8.557,-7.442l-8.843,-7.21l-9.113,-6.962l-9.351,-6.714l-9.604,-6.466l-9.843,-6.186l-10.066,-5.924l-10.271,-5.643l-10.478,-5.365l-10.668,-5.086l-10.859,-4.776l-11.034,-4.496l-11.192,-4.187l-11.336,-3.876l-11.494,-3.582l-11.605,-3.256l-11.716,-2.946l-11.827,-2.62l-11.907,-2.295l-12.002,-1.985l-12.066,-1.643l-12.113,-1.318l-12.161,-0.993l-12.192,-0.666l-12.208,-0.326l-12.209,-0l-12.224,0.326l-12.177,0.666l-12.161,0.993l-12.129,1.318l-12.065,1.643l-11.986,1.985l-11.923,2.295l-11.827,2.62l-11.716,2.946l-11.606,3.256l-11.478,3.582l-11.335,3.876l-11.192,4.187l-11.034,4.496l-10.859,4.776l-10.668,5.086l-10.494,5.365l-10.272,5.643l-10.065,5.924l-9.827,6.186l-9.605,6.466l-9.366,6.714l-9.097,6.962l-8.843,7.21l-8.573,7.442l-8.287,7.675l-8.001,7.893l-7.7,8.109l-7.398,8.311l-7.08,8.497l-6.779,8.698l-6.43,8.885l-6.112,9.039l-5.763,9.211l-5.429,9.349l-5.081,9.505l-4.715,9.629l-4.366,9.768l-3.984,9.862l-3.636,9.97l-3.254,10.078l-2.874,10.141l-2.508,10.233l-2.112,10.28l-1.746,10.342l-1.35,10.374l-0.968,10.419l-0.587,10.42l-0.191,10.45" style="fill:none;fill-rule:nonzero;stroke:#333;stroke-opacity:0.27;stroke-width:11.93px;"/><path d="M2661.39,1217.89l-0.27,13.715l-0.762,13.701l-1.302,13.685l-1.81,13.623l-2.318,13.578l-2.826,13.517l-3.334,13.425l-3.842,13.334l-4.334,13.211l-4.842,13.105l-5.318,12.967l-5.811,12.814l-6.302,12.647l-6.763,12.478l-7.24,12.295l-7.683,12.081l-8.145,11.883l-8.588,11.653l-9.018,11.425l-9.446,11.18l-9.874,10.905l-10.272,10.661l-10.668,10.355l-11.05,10.08l-11.414,9.775l-11.796,9.47l-12.145,9.148l-12.478,8.813l-12.796,8.477l-13.113,8.14l-13.415,7.774l-13.701,7.423l-13.986,7.041l-14.225,6.675l-14.479,6.277l-14.701,5.896l-14.923,5.498l-15.129,5.101l-15.304,4.689l-15.479,4.292l-15.622,3.864l-15.764,3.437l-15.892,3.024l-15.987,2.596l-16.082,2.169l-16.161,1.741l-16.209,1.298l-16.257,0.871l-16.288,0.443l-16.289,-0l-16.272,-0.443l-16.257,-0.871l-16.209,-1.298l-16.162,-1.741l-16.082,-2.169l-16.002,-2.596l-15.876,-3.024l-15.78,-3.437l-15.622,-3.864l-15.479,-4.292l-15.304,-4.689l-15.114,-5.101l-14.923,-5.498l-14.717,-5.896l-14.462,-6.277l-14.241,-6.675l-13.97,-7.041l-13.701,-7.423l-13.415,-7.774l-13.129,-8.14l-12.796,-8.477l-12.478,-8.813l-12.145,-9.148l-11.78,-9.47l-11.43,-9.775l-11.05,-10.08l-10.668,-10.355l-10.272,-10.661l-9.859,-10.905l-9.446,-11.18l-9.033,-11.425l-8.589,-11.653l-8.128,-11.883l-7.7,-12.081l-7.239,-12.295l-6.763,-12.478l-6.287,-12.647l-5.81,-12.814l-5.335,-12.967l-4.842,-13.105l-4.334,-13.211l-3.842,-13.334l-3.334,-13.425l-2.825,-13.517l-2.318,-13.578l-1.81,-13.623l-1.286,-13.685l-0.778,-13.701l-0.254,-13.715" style="fill:none;fill-rule:nonzero;stroke:#333;stroke-opacity:0.27;stroke-width:15.6px;"/><path d="M2661.39,1083.28l-0.334,-17.412l-0.968,-17.382l-1.604,-17.35l-2.27,-17.304l-2.889,-17.227l-3.541,-17.149l-4.159,-17.04l-4.81,-16.916l-5.414,-16.777l-6.049,-16.622l-6.667,-16.451l-7.256,-16.265l-7.874,-16.048l-8.462,-15.831l-9.033,-15.599l-9.621,-15.35l-10.176,-15.071l-10.732,-14.792l-11.287,-14.498l-11.796,-14.172l-12.335,-13.862l-12.844,-13.505l-13.335,-13.148l-13.812,-12.792l-14.272,-12.404l-14.749,-12.017l-15.161,-11.614l-15.606,-11.179l-16.003,-10.761l-16.399,-10.326l-16.765,-9.862l-17.13,-9.412l-17.463,-8.946l-17.797,-8.466l-18.098,-7.97l-18.384,-7.489l-18.654,-6.977l-18.892,-6.466l-19.13,-5.954l-19.353,-5.443l-19.527,-4.899l-19.717,-4.373l-19.861,-3.83l-19.987,-3.302l-20.099,-2.745l-20.194,-2.201l-20.273,-1.659l-20.321,-1.101l-20.352,-0.559l-20.353,0l-20.353,0.559l-20.321,1.101l-20.273,1.659l-20.194,2.201l-20.098,2.745l-19.988,3.302l-19.86,3.83l-19.718,4.373l-19.527,4.899l-19.352,5.443l-19.13,5.954l-18.893,6.466l-18.653,6.977l-18.384,7.489l-18.099,7.97l-17.796,8.466l-17.464,8.946l-17.129,9.412l-16.765,9.862l-16.4,10.326l-16.002,10.761l-15.59,11.179l-15.178,11.614l-14.732,12.017l-14.288,12.404l-13.812,12.792l-13.336,13.148l-12.843,13.505l-12.32,13.862l-11.811,14.172l-11.288,14.498l-10.732,14.792l-10.176,15.071l-9.621,15.35l-9.033,15.599l-8.462,15.831l-7.858,16.048l-7.271,16.265l-6.668,16.451l-6.033,16.622l-5.429,16.777l-4.795,16.916l-4.175,17.04l-3.54,17.149l-2.89,17.227l-2.254,17.304l-1.619,17.35l-0.969,17.382l-0.317,17.412" style="fill:none;fill-rule:nonzero;stroke:#333;stroke-opacity:0.27;stroke-width:9px;"/><path d="M2661.39,1217.88l-0.397,20.574l-1.159,20.557l-1.937,20.512l-2.715,20.451l-3.477,20.36l-4.238,20.267l-5.001,20.146l-5.763,19.993l-6.509,19.824l-7.255,19.657l-7.986,19.443l-8.716,19.214l-9.446,18.985l-10.144,18.725l-10.859,18.435l-11.542,18.129l-12.208,17.824l-12.875,17.488l-13.542,17.121l-14.177,16.77l-14.796,16.373l-15.4,15.961l-16.002,15.563l-16.575,15.106l-17.129,14.662l-17.686,14.204l-18.209,13.716l-18.718,13.226l-19.209,12.723l-19.67,12.203l-20.131,11.669l-20.543,11.119l-20.972,10.569l-21.352,10.004l-21.702,9.439l-22.068,8.843l-22.384,8.248l-22.687,7.637l-22.956,7.041l-23.21,6.43l-23.433,5.788l-23.654,5.163l-23.83,4.536l-23.988,3.895l-24.131,3.253l-24.242,2.611l-24.322,1.955l-24.369,1.299l-24.432,0.656l-24.433,0l-24.417,-0.656l-24.385,-1.299l-24.321,-1.955l-24.227,-2.611l-24.131,-3.253l-23.988,-3.895l-23.829,-4.536l-23.655,-5.163l-23.433,-5.788l-23.21,-6.43l-22.972,-7.041l-22.67,-7.637l-22.385,-8.248l-22.067,-8.843l-21.718,-9.439l-21.337,-10.004l-20.972,-10.569l-20.543,-11.119l-20.13,-11.669l-19.67,-12.203l-19.21,-12.723l-18.717,-13.226l-18.21,-13.716l-17.685,-14.204l-17.13,-14.662l-16.574,-15.106l-16.003,-15.563l-15.415,-15.961l-14.796,-16.373l-14.161,-16.77l-13.542,-17.121l-12.876,-17.488l-12.224,-17.824l-11.526,-18.129l-10.859,-18.435l-10.144,-18.725l-9.446,-18.985l-8.716,-19.214l-7.985,-19.443l-7.256,-19.657l-6.509,-19.824l-5.762,-19.993l-5.001,-20.146l-4.239,-20.267l-3.493,-20.36l-2.699,-20.451l-1.936,-20.512l-1.159,-20.557l-0.397,-20.574" style="fill:none;fill-rule:nonzero;stroke:#333;stroke-opacity:0.27;stroke-width:8.94px;"/><path d="M2404.72,1217.88l-0.064,3.437l-0.191,3.421l-0.317,3.421l-0.46,3.406l-0.572,3.391l-0.714,3.375l-0.826,3.36l-0.968,3.33l-1.08,3.314l-1.206,3.269l-1.334,3.238l-1.461,3.207l-1.571,3.162l-1.683,3.116l-1.81,3.069l-1.921,3.025l-2.048,2.978l-2.143,2.917l-2.254,2.856l-2.366,2.78l-2.461,2.734l-2.571,2.657l-2.668,2.597l-2.762,2.52l-2.858,2.444l-2.937,2.367l-3.032,2.291l-3.127,2.199l-3.207,2.123l-3.271,2.032l-3.349,1.939l-3.429,1.864l-3.493,1.756l-3.556,1.665l-3.62,1.573l-3.683,1.482l-3.731,1.374l-3.778,1.268l-3.826,1.176l-3.874,1.069l-3.905,0.962l-3.938,0.871l-3.968,0.748l-4.001,0.657l-4.017,0.535l-4.048,0.427l-4.048,0.336l-4.064,0.214l-4.065,0.107l-4.08,0l-4.064,-0.107l-4.064,-0.214l-4.064,-0.336l-4.033,-0.427l-4.016,-0.535l-4.001,-0.657l-3.969,-0.748l-3.953,-0.871l-3.905,-0.962l-3.858,-1.069l-3.826,-1.176l-3.794,-1.268l-3.731,-1.374l-3.667,-1.482l-3.62,-1.573l-3.556,-1.665l-3.493,-1.756l-3.429,-1.864l-3.35,-1.939l-3.286,-2.032l-3.207,-2.123l-3.112,-2.199l-3.032,-2.291l-2.953,-2.367l-2.857,-2.444l-2.763,-2.52l-2.667,-2.597l-2.556,-2.657l-2.476,-2.734l-2.366,-2.78l-2.254,-2.856l-2.143,-2.917l-2.032,-2.978l-1.921,-3.025l-1.81,-3.069l-1.699,-3.116l-1.572,-3.162l-1.444,-3.207l-1.334,-3.238l-1.206,-3.269l-1.096,-3.314l-0.952,-3.33l-0.842,-3.36l-0.698,-3.375l-0.588,-3.391l-0.444,-3.406l-0.334,-3.421l-0.19,-3.421l-0.064,-3.437" style="fill:none;fill-rule:nonzero;stroke:#333;stroke-opacity:0.27;stroke-width:10.56px;"/><path d="M2404.72,1083.28l-0.128,-6.962l-0.381,-6.961l-0.65,-6.931l-0.905,-6.931l-1.159,-6.885l-1.413,-6.853l-1.667,-6.822l-1.921,-6.761l-2.159,-6.714l-2.429,-6.651l-2.667,-6.575l-2.906,-6.512l-3.143,-6.419l-3.381,-6.342l-3.62,-6.233l-3.842,-6.14l-4.064,-6.032l-4.302,-5.907l-4.509,-5.799l-4.731,-5.675l-4.922,-5.536l-5.143,-5.411l-5.335,-5.256l-5.524,-5.117l-5.716,-4.962l-5.889,-4.806l-6.065,-4.637l-6.239,-4.481l-6.398,-4.31l-6.557,-4.125l-6.715,-3.953l-6.858,-3.753l-6.986,-3.581l-7.112,-3.381l-7.239,-3.194l-7.351,-2.992l-7.461,-2.791l-7.557,-2.59l-7.652,-2.387l-7.747,-2.171l-7.811,-1.954l-7.875,-1.752l-7.953,-1.535l-8.002,-1.318l-8.033,-1.101l-8.08,-0.884l-8.113,-0.666l-8.128,-0.435l-8.129,-0.217l-8.144,0l-8.144,0.217l-8.128,0.435l-8.113,0.666l-8.081,0.884l-8.033,1.101l-8.001,1.318l-7.938,1.535l-7.89,1.752l-7.811,1.954l-7.731,2.171l-7.652,2.387l-7.573,2.59l-7.462,2.791l-7.35,2.992l-7.239,3.194l-7.113,3.381l-6.985,3.581l-6.858,3.753l-6.7,3.953l-6.557,4.125l-6.397,4.31l-6.24,4.481l-6.08,4.637l-5.89,4.806l-5.715,4.962l-5.525,5.117l-5.334,5.256l-5.128,5.411l-4.937,5.536l-4.731,5.675l-4.509,5.799l-4.286,5.907l-4.08,6.032l-3.842,6.14l-3.62,6.233l-3.381,6.342l-3.144,6.419l-2.905,6.512l-2.667,6.575l-2.413,6.651l-2.175,6.714l-1.921,6.761l-1.667,6.822l-1.413,6.853l-1.159,6.885l-0.905,6.931l-0.635,6.931l-0.397,6.961l-0.127,6.962" style="fill:none;fill-rule:nonzero;stroke:#333;stroke-opacity:0.27;stroke-width:9.66px;"/><path d="M2404.72,1217.89l-0.191,10.294l-0.572,10.264l-0.968,10.264l-1.365,10.217l-1.731,10.188l-2.127,10.126l-2.493,10.08l-2.889,9.989l-3.254,9.928l-3.62,9.82l-4.001,9.714l-4.366,9.622l-4.715,9.485l-5.08,9.363l-5.413,9.209l-5.779,9.073l-6.096,8.904l-6.446,8.752l-6.763,8.568l-7.096,8.37l-7.399,8.186l-7.699,7.988l-8.002,7.774l-8.287,7.561l-8.573,7.331l-8.842,7.102l-9.097,6.858l-9.351,6.613l-9.605,6.369l-9.843,6.094l-10.065,5.834l-10.271,5.56l-10.478,5.284l-10.685,5.01l-10.858,4.704l-11.018,4.43l-11.193,4.123l-11.351,3.819l-11.478,3.528l-11.605,3.207l-11.716,2.902l-11.828,2.581l-11.922,2.261l-11.986,1.955l-12.066,1.619l-12.113,1.298l-12.161,0.977l-12.192,0.657l-12.209,0.321l-12.224,-0l-12.208,-0.321l-12.193,-0.657l-12.161,-0.977l-12.113,-1.298l-12.065,-1.619l-11.986,-1.955l-11.923,-2.261l-11.827,-2.581l-11.717,-2.902l-11.605,-3.207l-11.478,-3.528l-11.351,-3.819l-11.176,-4.123l-11.034,-4.43l-10.859,-4.704l-10.684,-5.01l-10.478,-5.284l-10.272,-5.56l-10.065,-5.834l-9.843,-6.094l-9.589,-6.369l-9.366,-6.613l-9.097,-6.858l-8.843,-7.102l-8.573,-7.331l-8.287,-7.561l-8.001,-7.774l-7.7,-7.988l-7.398,-8.186l-7.096,-8.37l-6.764,-8.568l-6.429,-8.752l-6.112,-8.904l-5.779,-9.073l-5.414,-9.209l-5.08,-9.363l-4.715,-9.485l-4.366,-9.622l-4,-9.714l-3.62,-9.82l-3.255,-9.928l-2.873,-9.989l-2.508,-10.08l-2.128,-10.126l-1.73,-10.188l-1.35,-10.217l-0.968,-10.264l-0.587,-10.264l-0.191,-10.294" style="fill:none;fill-rule:nonzero;stroke:#333;stroke-opacity:0.27;stroke-width:17.29px;"/><path d="M2404.72,1083.28l-0.255,-13.923l-0.777,-13.909l-1.286,-13.893l-1.81,-13.83l-2.318,-13.785l-2.826,-13.722l-3.334,-13.629l-3.842,-13.536l-4.334,-13.412l-4.842,-13.304l-5.318,-13.164l-5.827,-13.009l-6.286,-12.839l-6.763,-12.667l-7.24,-12.482l-7.684,-12.265l-8.144,-12.063l-8.588,-11.831l-9.034,-11.598l-9.446,-11.35l-9.859,-11.071l-10.271,-10.822l-10.669,-10.513l-11.049,-10.233l-11.431,-9.924l-11.779,-9.613l-12.145,-9.288l-12.478,-8.947l-12.796,-8.605l-13.114,-8.264l-13.414,-7.893l-13.717,-7.535l-13.971,-7.148l-14.224,-6.776l-14.479,-6.373l-14.717,-5.985l-14.923,-5.582l-15.113,-5.179l-15.305,-4.76l-15.478,-4.357l-15.622,-3.923l-15.765,-3.488l-15.891,-3.07l-16.003,-2.636l-16.082,-2.202l-16.145,-1.768l-16.225,-1.318l-16.257,-0.883l-16.273,-0.45l-16.288,-0l-16.273,0.45l-16.256,0.883l-16.225,1.318l-16.146,1.768l-16.098,2.202l-15.987,2.636l-15.891,3.07l-15.765,3.488l-15.621,3.923l-15.479,4.357l-15.304,4.76l-15.13,5.179l-14.907,5.582l-14.717,5.985l-14.478,6.373l-14.225,6.776l-13.986,7.148l-13.701,7.535l-13.415,7.893l-13.113,8.264l-12.796,8.605l-12.479,8.947l-12.144,9.288l-11.78,9.613l-11.431,9.924l-11.049,10.233l-10.669,10.513l-10.271,10.822l-9.859,11.071l-9.462,11.35l-9.017,11.598l-8.589,11.831l-8.144,12.063l-7.684,12.265l-7.239,12.482l-6.763,12.667l-6.287,12.839l-5.826,13.009l-5.319,13.164l-4.842,13.304l-4.334,13.412l-3.842,13.536l-3.334,13.629l-2.826,13.722l-2.317,13.785l-1.81,13.83l-1.286,13.893l-0.778,13.909l-0.254,13.923" style="fill:none;fill-rule:nonzero;stroke:#333;stroke-opacity:0.27;stroke-width:10.96px;"/><path d="M2404.72,1217.88l-0.318,17.152l-0.968,17.122l-1.62,17.091l-2.254,17.045l-2.889,16.968l-3.541,16.892l-4.175,16.786l-4.794,16.663l-5.43,16.526l-6.049,16.373l-6.652,16.205l-7.271,16.021l-7.858,15.808l-8.462,15.594l-9.033,15.365l-9.621,15.121l-10.176,14.845l-10.732,14.571l-11.288,14.281l-11.811,13.96l-12.32,13.654l-12.843,13.303l-13.336,12.952l-13.811,12.6l-14.289,12.219l-14.732,11.837l-15.177,11.439l-15.59,11.012l-16.003,10.6l-16.399,10.172l-16.765,9.714l-17.13,9.271l-17.463,8.812l-17.797,8.34l-18.098,7.85l-18.384,7.377l-18.654,6.873l-18.892,6.369l-19.146,5.865l-19.337,5.361l-19.527,4.826l-19.717,4.307l-19.861,3.773l-19.987,3.253l-20.099,2.704l-20.21,2.168l-20.257,1.635l-20.321,1.084l-20.353,0.55l-20.352,-0l-20.353,-0.55l-20.321,-1.084l-20.273,-1.635l-20.194,-2.168l-20.098,-2.704l-20.004,-3.253l-19.844,-3.773l-19.718,-4.307l-19.527,-4.826l-19.352,-5.361l-19.131,-5.865l-18.892,-6.369l-18.654,-6.873l-18.384,-7.377l-18.098,-7.85l-17.797,-8.34l-17.463,-8.812l-17.13,-9.271l-16.764,-9.714l-16.4,-10.172l-16.003,-10.6l-15.605,-11.012l-15.162,-11.439l-14.748,-11.837l-14.272,-12.219l-13.812,-12.6l-13.336,-12.952l-12.843,-13.303l-12.336,-13.654l-11.795,-13.96l-11.288,-14.281l-10.732,-14.571l-10.176,-14.845l-9.621,-15.121l-9.033,-15.365l-8.462,-15.594l-7.874,-15.808l-7.255,-16.021l-6.668,-16.205l-6.049,-16.373l-5.413,-16.526l-4.811,-16.663l-4.159,-16.786l-3.54,-16.892l-2.906,-16.968l-2.254,-17.045l-1.603,-17.091l-0.969,-17.122l-0.333,-17.152" style="fill:none;fill-rule:nonzero;stroke:#333;stroke-opacity:0.27;stroke-width:9.59px;"/><path d="M2148.08,1083.28l-0.063,-3.488l-0.191,-3.474l-0.317,-3.473l-0.461,-3.457l-0.571,-3.443l-0.715,-3.426l-0.825,-3.411l-0.968,-3.381l-1.08,-3.364l-1.207,-3.318l-1.333,-3.288l-1.461,-3.256l-1.571,-3.209l-1.683,-3.163l-1.81,-3.117l-1.937,-3.07l-2.032,-3.024l-2.143,-2.961l-2.255,-2.9l-2.365,-2.822l-2.461,-2.775l-2.572,-2.698l-2.667,-2.636l-2.762,-2.558l-2.858,-2.481l-2.937,-2.404l-3.048,-2.325l-3.111,-2.233l-3.207,-2.155l-3.271,-2.063l-3.365,-1.969l-3.414,-1.891l-3.492,-1.784l-3.572,-1.69l-3.604,-1.597l-3.683,-1.504l-3.731,-1.395l-3.778,-1.287l-3.826,-1.194l-3.874,-1.085l-3.906,-0.977l-3.937,-0.884l-3.969,-0.76l-4,-0.667l-4.033,-0.542l-4.032,-0.434l-4.048,-0.341l-4.065,-0.218l-4.08,-0.108l-4.064,-0l-4.08,0.108l-4.064,0.218l-4.048,0.341l-4.033,0.434l-4.032,0.542l-3.985,0.667l-3.985,0.76l-3.937,0.884l-3.905,0.977l-3.874,1.085l-3.826,1.194l-3.778,1.287l-3.731,1.395l-3.668,1.504l-3.619,1.597l-3.556,1.69l-3.509,1.784l-3.413,1.891l-3.366,1.969l-3.27,2.063l-3.207,2.155l-3.112,2.233l-3.032,2.325l-2.953,2.404l-2.857,2.481l-2.763,2.558l-2.667,2.636l-2.572,2.698l-2.461,2.775l-2.365,2.822l-2.254,2.9l-2.144,2.961l-2.032,3.024l-1.921,3.07l-1.809,3.117l-1.699,3.163l-1.572,3.209l-1.46,3.256l-1.318,3.288l-1.222,3.318l-1.08,3.364l-0.953,3.381l-0.841,3.411l-0.714,3.426l-0.572,3.443l-0.444,3.457l-0.334,3.473l-0.19,3.474l-0.064,3.488" style="fill:none;fill-rule:nonzero;stroke:#333;stroke-opacity:0.27;stroke-width:10.8px;"/><path d="M2148.08,1217.89l-0.127,6.858l-0.381,6.857l-0.651,6.828l-0.905,6.827l-1.158,6.781l-1.413,6.751l-1.667,6.72l-1.921,6.659l-2.175,6.614l-2.413,6.552l-2.667,6.476l-2.906,6.415l-3.143,6.323l-3.382,6.247l-3.619,6.139l-3.842,6.049l-4.08,5.941l-4.287,5.819l-4.508,5.712l-4.731,5.59l-4.938,5.453l-5.127,5.33l-5.335,5.178l-5.524,5.04l-5.716,4.888l-5.89,4.734l-6.064,4.567l-6.239,4.414l-6.414,4.246l-6.557,4.063l-6.699,3.894l-6.858,3.697l-6.986,3.528l-7.112,3.329l-7.239,3.147l-7.351,2.947l-7.461,2.749l-7.573,2.551l-7.652,2.352l-7.732,2.138l-7.81,1.925l-7.891,1.726l-7.937,1.512l-8.002,1.298l-8.033,1.084l-8.081,0.871l-8.112,0.657l-8.128,0.427l-8.145,0.214l-8.144,0l-8.128,-0.214l-8.129,-0.427l-8.112,-0.657l-8.081,-0.871l-8.033,-1.084l-8.001,-1.298l-7.938,-1.512l-7.89,-1.726l-7.811,-1.925l-7.732,-2.138l-7.667,-2.352l-7.557,-2.551l-7.462,-2.749l-7.35,-2.947l-7.24,-3.147l-7.112,-3.329l-6.985,-3.528l-6.859,-3.697l-6.699,-3.894l-6.557,-4.063l-6.413,-4.246l-6.24,-4.414l-6.064,-4.567l-5.89,-4.734l-5.715,-4.888l-5.525,-5.04l-5.334,-5.178l-5.144,-5.33l-4.921,-5.453l-4.731,-5.59l-4.509,-5.712l-4.286,-5.819l-4.081,-5.941l-3.841,-6.049l-3.62,-6.139l-3.382,-6.247l-3.143,-6.323l-2.905,-6.415l-2.667,-6.476l-2.413,-6.552l-2.175,-6.614l-1.921,-6.659l-1.667,-6.72l-1.413,-6.751l-1.159,-6.781l-0.905,-6.827l-0.651,-6.828l-0.381,-6.857l-0.127,-6.858" style="fill:none;fill-rule:nonzero;stroke:#333;stroke-opacity:0.27;stroke-width:16.52px;"/><path d="M2148.08,1083.28l-0.19,-10.45l-0.588,-10.42l-0.968,-10.419l-1.349,-10.374l-1.731,-10.342l-2.127,-10.28l-2.509,-10.233l-2.873,-10.141l-3.255,-10.078l-3.635,-9.97l-3.985,-9.862l-4.366,-9.768l-4.715,-9.629l-5.08,-9.505l-5.414,-9.349l-5.778,-9.211l-6.112,-9.039l-6.43,-8.885l-6.779,-8.698l-7.081,-8.497l-7.398,-8.311l-7.699,-8.109l-8.002,-7.893l-8.287,-7.675l-8.573,-7.442l-8.842,-7.21l-9.097,-6.962l-9.367,-6.714l-9.605,-6.466l-9.827,-6.186l-10.065,-5.924l-10.271,-5.643l-10.478,-5.365l-10.685,-5.086l-10.859,-4.776l-11.033,-4.496l-11.193,-4.187l-11.335,-3.876l-11.478,-3.582l-11.605,-3.256l-11.716,-2.946l-11.828,-2.62l-11.922,-2.295l-11.986,-1.985l-12.066,-1.643l-12.113,-1.318l-12.161,-0.993l-12.192,-0.666l-12.209,-0.326l-12.224,-0l-12.208,0.326l-12.193,0.666l-12.161,0.993l-12.113,1.318l-12.065,1.643l-12.002,1.985l-11.907,2.295l-11.828,2.62l-11.716,2.946l-11.605,3.256l-11.478,3.582l-11.351,3.876l-11.192,4.187l-11.018,4.496l-10.859,4.776l-10.684,5.086l-10.478,5.365l-10.272,5.643l-10.065,5.924l-9.843,6.186l-9.605,6.466l-9.351,6.714l-9.112,6.962l-8.827,7.21l-8.573,7.442l-8.287,7.675l-8.001,7.893l-7.7,8.109l-7.398,8.311l-7.097,8.497l-6.763,8.698l-6.445,8.885l-6.096,9.039l-5.779,9.211l-5.43,9.349l-5.064,9.505l-4.715,9.629l-4.366,9.768l-4.001,9.862l-3.619,9.97l-3.255,10.078l-2.889,10.141l-2.493,10.233l-2.127,10.28l-1.73,10.342l-1.366,10.374l-0.968,10.419l-0.572,10.42l-0.19,10.45" style="fill:none;fill-rule:nonzero;stroke:#333;stroke-opacity:0.27;stroke-width:7.16px;"/><path d="M2148.08,1217.88l-0.254,13.716l-0.778,13.7l-1.286,13.685l-1.809,13.624l-2.318,13.578l-2.826,13.517l-3.334,13.425l-3.842,13.333l-4.35,13.212l-4.826,13.104l-5.334,12.967l-5.811,12.815l-6.287,12.646l-6.763,12.478l-7.239,12.295l-7.7,12.081l-8.144,11.883l-8.573,11.654l-9.033,11.424l-9.446,11.18l-9.859,10.905l-10.271,10.661l-10.669,10.355l-11.049,10.081l-11.431,9.775l-11.779,9.469l-12.145,9.149l-12.479,8.812l-12.795,8.477l-13.13,8.141l-13.415,7.774l-13.7,7.423l-13.971,7.041l-14.24,6.674l-14.479,6.277l-14.701,5.896l-14.923,5.498l-15.114,5.102l-15.304,4.688l-15.479,4.292l-15.637,3.864l-15.765,3.437l-15.875,3.024l-16.003,2.596l-16.082,2.169l-16.161,1.741l-16.21,1.299l-16.256,0.87l-16.273,0.443l-16.288,0l-16.289,-0.443l-16.256,-0.87l-16.209,-1.299l-16.162,-1.741l-16.082,-2.169l-15.987,-2.596l-15.891,-3.024l-15.765,-3.437l-15.621,-3.864l-15.479,-4.292l-15.304,-4.688l-15.13,-5.102l-14.923,-5.498l-14.701,-5.896l-14.479,-6.277l-14.224,-6.674l-13.987,-7.041l-13.7,-7.423l-13.415,-7.774l-13.114,-8.141l-12.811,-8.477l-12.479,-8.812l-12.129,-9.149l-11.795,-9.469l-11.415,-9.775l-11.049,-10.081l-10.669,-10.355l-10.271,-10.661l-9.875,-10.905l-9.446,-11.18l-9.017,-11.424l-8.589,-11.654l-8.144,-11.883l-7.684,-12.081l-7.239,-12.295l-6.764,-12.478l-6.302,-12.646l-5.811,-12.815l-5.318,-12.967l-4.842,-13.104l-4.334,-13.212l-3.842,-13.333l-3.334,-13.425l-2.842,-13.517l-2.318,-13.578l-1.793,-13.624l-1.302,-13.685l-0.762,-13.7l-0.27,-13.716" style="fill:none;fill-rule:nonzero;stroke:#333;stroke-opacity:0.27;stroke-width:8.28px;"/><path d="M1891.43,1217.89l-0.063,3.437l-0.191,3.421l-0.333,3.421l-0.445,3.406l-0.587,3.391l-0.699,3.375l-0.841,3.36l-0.953,3.33l-1.079,3.314l-1.223,3.269l-1.333,3.237l-1.445,3.208l-1.572,3.161l-1.698,3.116l-1.81,3.07l-1.921,3.024l-2.032,2.979l-2.143,2.917l-2.255,2.856l-2.365,2.78l-2.461,2.733l-2.572,2.658l-2.667,2.596l-2.762,2.521l-2.858,2.443l-2.953,2.368l-3.032,2.291l-3.112,2.199l-3.206,2.123l-3.271,2.031l-3.366,1.94l-3.429,1.863l-3.492,1.757l-3.556,1.665l-3.62,1.573l-3.667,1.481l-3.731,1.375l-3.779,1.268l-3.826,1.176l-3.873,1.069l-3.906,0.962l-3.937,0.871l-3.985,0.748l-4,0.657l-4.017,0.534l-4.032,0.428l-4.064,0.336l-4.065,0.214l-4.064,0.107l-4.064,-0l-4.08,-0.107l-4.064,-0.214l-4.049,-0.336l-4.032,-0.428l-4.032,-0.534l-4.001,-0.657l-3.969,-0.748l-3.937,-0.871l-3.906,-0.962l-3.873,-1.069l-3.826,-1.176l-3.779,-1.268l-3.73,-1.375l-3.684,-1.481l-3.619,-1.573l-3.556,-1.665l-3.493,-1.757l-3.429,-1.863l-3.35,-1.94l-3.27,-2.031l-3.207,-2.123l-3.112,-2.199l-3.048,-2.291l-2.937,-2.368l-2.858,-2.443l-2.762,-2.521l-2.667,-2.596l-2.572,-2.658l-2.461,-2.733l-2.365,-2.78l-2.255,-2.856l-2.143,-2.917l-2.048,-2.979l-1.921,-3.024l-1.809,-3.07l-1.683,-3.116l-1.572,-3.161l-1.461,-3.208l-1.333,-3.237l-1.207,-3.269l-1.079,-3.314l-0.969,-3.33l-0.825,-3.36l-0.715,-3.375l-0.571,-3.391l-0.46,-3.406l-0.318,-3.421l-0.191,-3.421l-0.063,-3.437" style="fill:none;fill-rule:nonzero;stroke:#333;stroke-opacity:0.27;stroke-width:10.72px;"/><path d="M1891.43,1083.28l-0.127,-6.962l-0.397,-6.961l-0.635,-6.931l-0.905,-6.931l-1.159,-6.885l-1.413,-6.853l-1.666,-6.822l-1.921,-6.761l-2.175,-6.714l-2.414,-6.651l-2.667,-6.575l-2.905,-6.512l-3.143,-6.419l-3.382,-6.342l-3.619,-6.233l-3.842,-6.14l-4.08,-6.032l-4.287,-5.907l-4.524,-5.799l-4.715,-5.675l-4.938,-5.536l-5.128,-5.411l-5.334,-5.256l-5.525,-5.117l-5.715,-4.962l-5.89,-4.806l-6.08,-4.637l-6.239,-4.481l-6.398,-4.31l-6.557,-4.125l-6.699,-3.953l-6.859,-3.753l-6.985,-3.581l-7.112,-3.381l-7.24,-3.194l-7.366,-2.992l-7.461,-2.791l-7.557,-2.59l-7.652,-2.387l-7.732,-2.171l-7.811,-1.954l-7.89,-1.752l-7.938,-1.535l-8.001,-1.318l-8.049,-1.101l-8.065,-0.884l-8.112,-0.666l-8.129,-0.435l-8.144,-0.217l-8.144,0l-8.128,0.217l-8.129,0.435l-8.112,0.666l-8.081,0.884l-8.033,1.101l-8.001,1.318l-7.954,1.535l-7.874,1.752l-7.811,1.954l-7.748,2.171l-7.652,2.387l-7.556,2.59l-7.462,2.791l-7.35,2.992l-7.24,3.194l-7.112,3.381l-6.985,3.581l-6.859,3.753l-6.715,3.953l-6.557,4.125l-6.398,4.31l-6.239,4.481l-6.064,4.637l-5.89,4.806l-5.715,4.962l-5.525,5.117l-5.334,5.256l-5.144,5.411l-4.922,5.536l-4.731,5.675l-4.508,5.799l-4.303,5.907l-4.064,6.032l-3.842,6.14l-3.619,6.233l-3.382,6.342l-3.143,6.419l-2.921,6.512l-2.652,6.575l-2.428,6.651l-2.16,6.714l-1.921,6.761l-1.666,6.822l-1.413,6.853l-1.159,6.885l-0.905,6.931l-0.651,6.931l-0.381,6.961l-0.127,6.962" style="fill:none;fill-rule:nonzero;stroke:#333;stroke-opacity:0.27;stroke-width:8.17px;"/><path d="M1891.43,1217.88l-0.19,10.295l-0.588,10.263l-0.968,10.264l-1.35,10.218l-1.746,10.187l-2.111,10.126l-2.509,10.081l-2.873,9.988l-3.255,9.928l-3.635,9.821l-3.985,9.714l-4.366,9.622l-4.715,9.485l-5.08,9.362l-5.43,9.21l-5.763,9.072l-6.112,8.905l-6.445,8.751l-6.763,8.568l-7.081,8.37l-7.398,8.187l-7.7,7.988l-8.001,7.774l-8.287,7.56l-8.573,7.331l-8.843,7.102l-9.096,6.858l-9.367,6.613l-9.605,6.369l-9.827,6.094l-10.065,5.835l-10.287,5.559l-10.478,5.285l-10.669,5.009l-10.859,4.705l-11.033,4.429l-11.193,4.124l-11.335,3.818l-11.478,3.528l-11.605,3.208l-11.732,2.901l-11.812,2.582l-11.922,2.26l-12.002,1.955l-12.05,1.619l-12.129,1.298l-12.161,0.978l-12.192,0.657l-12.209,0.32l-12.208,0l-12.209,-0.32l-12.192,-0.657l-12.161,-0.978l-12.113,-1.298l-12.066,-1.619l-12.002,-1.955l-11.906,-2.26l-11.828,-2.582l-11.716,-2.901l-11.621,-3.208l-11.478,-3.528l-11.335,-3.818l-11.193,-4.124l-11.033,-4.429l-10.859,-4.705l-10.669,-5.009l-10.478,-5.285l-10.287,-5.559l-10.049,-5.835l-9.843,-6.094l-9.605,-6.369l-9.351,-6.613l-9.112,-6.858l-8.843,-7.102l-8.557,-7.331l-8.303,-7.56l-7.986,-7.774l-7.715,-7.988l-7.398,-8.187l-7.081,-8.37l-6.763,-8.568l-6.445,-8.751l-6.113,-8.905l-5.762,-9.072l-5.43,-9.21l-5.064,-9.362l-4.731,-9.485l-4.35,-9.622l-4.001,-9.714l-3.619,-9.821l-3.255,-9.928l-2.889,-9.988l-2.493,-10.081l-2.127,-10.126l-1.746,-10.187l-1.35,-10.218l-0.968,-10.264l-0.572,-10.263l-0.206,-10.295" style="fill:none;fill-rule:nonzero;stroke:#333;stroke-opacity:0.27;stroke-width:12.64px;"/><path d="M1634.79,1083.28l-0.064,-3.488l-0.206,-3.474l-0.317,-3.473l-0.445,-3.457l-0.587,-3.443l-0.699,-3.426l-0.841,-3.411l-0.953,-3.381l-1.095,-3.364l-1.207,-3.318l-1.333,-3.288l-1.445,-3.256l-1.572,-3.209l-1.698,-3.163l-1.81,-3.117l-1.921,-3.07l-2.032,-3.024l-2.143,-2.961l-2.255,-2.9l-2.365,-2.822l-2.477,-2.775l-2.556,-2.698l-2.667,-2.636l-2.762,-2.558l-2.858,-2.481l-2.953,-2.404l-3.032,-2.325l-3.128,-2.233l-3.191,-2.155l-3.286,-2.063l-3.35,-1.969l-3.429,-1.891l-3.492,-1.784l-3.557,-1.69l-3.619,-1.597l-3.683,-1.504l-3.715,-1.395l-3.795,-1.287l-3.826,-1.194l-3.857,-1.085l-3.906,-0.977l-3.953,-0.884l-3.969,-0.76l-4.001,-0.667l-4.016,-0.542l-4.032,-0.434l-4.065,-0.341l-4.064,-0.218l-4.064,-0.108l-4.08,-0l-4.064,0.108l-4.064,0.218l-4.049,0.341l-4.048,0.434l-4.017,0.542l-4,0.667l-3.969,0.76l-3.937,0.884l-3.906,0.977l-3.873,1.085l-3.826,1.194l-3.779,1.287l-3.731,1.395l-3.683,1.504l-3.619,1.597l-3.557,1.69l-3.492,1.784l-3.429,1.891l-3.35,1.969l-3.286,2.063l-3.191,2.155l-3.128,2.233l-3.032,2.325l-2.937,2.404l-2.858,2.481l-2.762,2.558l-2.667,2.636l-2.572,2.698l-2.461,2.775l-2.365,2.822l-2.255,2.9l-2.159,2.961l-2.032,3.024l-1.921,3.07l-1.81,3.117l-1.682,3.163l-1.572,3.209l-1.461,3.256l-1.333,3.288l-1.207,3.318l-1.079,3.364l-0.969,3.381l-0.825,3.411l-0.715,3.426l-0.571,3.443l-0.461,3.457l-0.317,3.473l-0.191,3.474l-0.063,3.488" style="fill:none;fill-rule:nonzero;stroke:#333;stroke-opacity:0.27;stroke-width:9px;"/><path d="M1634.79,1217.88l-0.127,6.858l-0.397,6.858l-0.635,6.827l-0.905,6.827l-1.159,6.782l-1.413,6.75l-1.667,6.721l-1.921,6.659l-2.175,6.613l-2.413,6.552l-2.667,6.476l-2.905,6.415l-3.143,6.323l-3.398,6.247l-3.604,6.14l-3.857,6.048l-4.065,5.941l-4.302,5.819l-4.509,5.713l-4.715,5.59l-4.937,5.452l-5.128,5.331l-5.334,5.177l-5.525,5.04l-5.715,4.888l-5.906,4.735l-6.064,4.566l-6.239,4.414l-6.398,4.246l-6.557,4.063l-6.715,3.895l-6.843,3.696l-6.985,3.528l-7.128,3.33l-7.24,3.146l-7.35,2.948l-7.462,2.749l-7.556,2.55l-7.652,2.353l-7.732,2.138l-7.827,1.924l-7.874,1.726l-7.954,1.512l-7.985,1.298l-8.049,1.085l-8.081,0.87l-8.096,0.657l-8.129,0.428l-8.144,0.214l-8.144,-0l-8.144,-0.214l-8.129,-0.428l-8.096,-0.657l-8.081,-0.87l-8.049,-1.085l-7.986,-1.298l-7.953,-1.512l-7.875,-1.726l-7.826,-1.924l-7.732,-2.138l-7.652,-2.353l-7.557,-2.55l-7.461,-2.749l-7.351,-2.948l-7.239,-3.146l-7.128,-3.33l-6.985,-3.528l-6.843,-3.696l-6.715,-3.895l-6.557,-4.063l-6.398,-4.246l-6.239,-4.414l-6.064,-4.566l-5.906,-4.735l-5.715,-4.888l-5.525,-5.04l-5.334,-5.177l-5.128,-5.331l-4.938,-5.452l-4.715,-5.59l-4.508,-5.713l-4.303,-5.819l-4.064,-5.941l-3.858,-6.048l-3.603,-6.14l-3.382,-6.247l-3.159,-6.323l-2.905,-6.415l-2.668,-6.476l-2.413,-6.552l-2.175,-6.613l-1.905,-6.659l-1.683,-6.721l-1.412,-6.75l-1.159,-6.782l-0.889,-6.827l-0.651,-6.827l-0.397,-6.858l-0.127,-6.858" style="fill:none;fill-rule:nonzero;stroke:#333;stroke-opacity:0.27;stroke-width:9.75px;"/><path d="M1378.14,1217.88l-0.08,3.437l-0.19,3.421l-0.318,3.421l-0.46,3.406l-0.571,3.391l-0.715,3.375l-0.825,3.36l-0.969,3.33l-1.079,3.314l-1.207,3.269l-1.334,3.238l-1.444,3.207l-1.588,3.162l-1.683,3.116l-1.809,3.069l-1.921,3.025l-2.032,2.978l-2.16,2.917l-2.254,2.856l-2.349,2.78l-2.477,2.734l-2.572,2.657l-2.667,2.597l-2.762,2.52l-2.842,2.444l-2.953,2.367l-3.032,2.291l-3.128,2.199l-3.191,2.123l-3.286,2.032l-3.35,1.939l-3.429,1.864l-3.493,1.756l-3.556,1.665l-3.619,1.573l-3.684,1.482l-3.73,1.374l-3.779,1.268l-3.826,1.176l-3.874,1.069l-3.905,0.962l-3.937,0.871l-3.969,0.748l-4.001,0.657l-4.016,0.535l-4.049,0.427l-4.048,0.336l-4.064,0.214l-4.064,0.107l-4.08,0l-4.064,-0.107l-4.065,-0.214l-4.064,-0.336l-4.032,-0.427l-4.017,-0.535l-4,-0.657l-3.969,-0.748l-3.953,-0.871l-3.906,-0.962l-3.858,-1.069l-3.826,-1.176l-3.778,-1.268l-3.731,-1.374l-3.683,-1.482l-3.62,-1.573l-3.556,-1.665l-3.492,-1.756l-3.43,-1.864l-3.349,-1.939l-3.287,-2.032l-3.191,-2.123l-3.127,-2.199l-3.032,-2.291l-2.953,-2.367l-2.858,-2.444l-2.762,-2.52l-2.667,-2.597l-2.556,-2.657l-2.477,-2.734l-2.35,-2.78l-2.27,-2.856l-2.143,-2.917l-2.032,-2.978l-1.921,-3.025l-1.81,-3.069l-1.699,-3.116l-1.571,-3.162l-1.445,-3.207l-1.333,-3.238l-1.207,-3.269l-1.095,-3.314l-0.953,-3.33l-0.841,-3.36l-0.699,-3.375l-0.587,-3.391l-0.445,-3.406l-0.317,-3.421l-0.207,-3.421l-0.063,-3.437" style="fill:none;fill-rule:nonzero;stroke:#333;stroke-opacity:0.27;stroke-width:12.32px;"/><circle cx="1118.24" cy="1133.29" r="34.843" style="fill:#686a94;stroke:#0d0d12;stroke-opacity:0.67;stroke-width:5.87px;stroke-linecap:round;stroke-linejoin:round;stroke-miterlimit:1.5;"/><circle cx="1375.42" cy="1133.29" r="34.843" style="fill:#686a94;stroke:#0d0d12;stroke-opacity:0.67;stroke-width:5.87px;stroke-linecap:round;stroke-linejoin:round;stroke-miterlimit:1.5;"/><circle cx="1632.61" cy="1133.29" r="34.843" style="fill:#686a94;stroke:#0d0d12;stroke-opacity:0.67;stroke-width:5.87px;stroke-linecap:round;stroke-linejoin:round;stroke-miterlimit:1.5;"/><circle cx="1889.8" cy="1133.29" r="34.843" style="fill:#686a94;stroke:#0d0d12;stroke-opacity:0.67;stroke-width:5.87px;stroke-linecap:round;stroke-linejoin:round;stroke-miterlimit:1.5;"/><circle cx="2146.99" cy="1133.29" r="34.843" style="fill:#686a94;stroke:#0d0d12;stroke-opacity:0.67;stroke-width:5.87px;stroke-linecap:round;stroke-linejoin:round;stroke-miterlimit:1.5;"/><circle cx="2404.17" cy="1133.29" r="34.843" style="fill:#686a94;stroke:#0d0d12;stroke-opacity:0.67;stroke-width:5.87px;stroke-linecap:round;stroke-linejoin:round;stroke-miterlimit:1.5;"/><circle cx="2661.36" cy="1133.29" r="34.843" style="fill:#686a94;stroke:#0d0d12;stroke-opacity:0.67;stroke-width:5.87px;stroke-linecap:round;stroke-linejoin:round;stroke-miterlimit:1.5;"/><circle cx="2918.55" cy="1133.29" r="34.843" style="fill:#686a94;stroke:#0d0d12;stroke-opacity:0.67;stroke-width:5.87px;stroke-linecap:round;stroke-linejoin:round;stroke-miterlimit:1.5;"/><circle cx="3175.74" cy="1133.29" r="34.843" style="fill:#686a94;stroke:#0d0d12;stroke-opacity:0.67;stroke-width:5.87px;stroke-linecap:round;stroke-linejoin:round;stroke-miterlimit:1.5;"/><circle cx="3432.93" cy="1133.29" r="34.843" style="fill:#686a94;stroke:#0d0d12;stroke-opacity:0.67;stroke-width:5.87px;stroke-linecap:round;stroke-linejoin:round;stroke-miterlimit:1.5;"/><circle cx="3690.11" cy="1133.29" r="34.843" style="fill:#686a94;stroke:#0d0d12;stroke-opacity:0.67;stroke-width:5.87px;stroke-linecap:round;stroke-linejoin:round;stroke-miterlimit:1.5;"/><text x="1053.27px" y="1203.23px" style="font-family:'OpenSans-SemiBold', 'Open Sans', sans-serif;font-weight:600;font-size:37.901px;">Spleen</text><text x="1287.2px" y="1207.01px" style="font-family:'OpenSans-SemiBold', 'Open Sans', sans-serif;font-weight:600;font-size:37.901px;">Pancreas</text><text x="1564.93px" y="1203.23px" style="font-family:'OpenSans-SemiBold', 'Open Sans', sans-serif;font-weight:600;font-size:37.901px;">Kidney</text><text x="1840.18px" y="1202.28px" style="font-family:'OpenSans-SemiBold', 'Open Sans', sans-serif;font-weight:600;font-size:37.901px;">Lung</text><text x="2090.9px" y="1207.01px" style="font-family:'OpenSans-SemiBold', 'Open Sans', sans-serif;font-weight:600;font-size:37.901px;">Heart</text><text x="2355.19px" y="1207.69px" style="font-family:'OpenSans-SemiBold', 'Open Sans', sans-serif;font-weight:600;font-size:37.901px;">Liver</text><text x="2582.01px" y="1207.13px" style="font-family:'OpenSans-SemiBold', 'Open Sans', sans-serif;font-weight:600;font-size:37.901px;">S.Cortex</text><text x="2842.24px" y="1207.95px" style="font-family:'OpenSans-SemiBold', 'Open Sans', sans-serif;font-weight:600;font-size:37.901px;">Medulla</text><text x="3038.93px" y="1203.23px" style="font-family:'OpenSans-SemiBold', 'Open Sans', sans-serif;font-weight:600;font-size:37.901px;">Hypothalamus</text><text x="3326.18px" y="1207.95px" style="font-family:'OpenSans-SemiBold', 'Open Sans', sans-serif;font-weight:600;font-size:37.901px;">Cerebellum</text><text x="3608.91px" y="1207.13px" style="font-family:'OpenSans-SemiBold', 'Open Sans', sans-serif;font-weight:600;font-size:37.901px;">B.Cortex</text></svg>