<?xml version="1.0" encoding="UTF-8" standalone="no"?><!DOCTYPE svg PUBLIC "-//W3C//DTD SVG 1.1//EN" "http://www.w3.org/Graphics/SVG/1.1/DTD/svg11.dtd"><svg width="100%" height="100%" viewBox="0 0 3728 1778" version="1.1" xmlns="http://www.w3.org/2000/svg" xmlns:xlink="http://www.w3.org/1999/xlink" xml:space="preserve" xmlns:serif="http://www.serif.com/" style="fill-rule:evenodd;clip-rule:evenodd;stroke-linejoin:bevel;stroke-miterlimit:1;"><g id="surface1"><rect x="0" y="0" width="3727.78" height="1777.78" style="fill:#fefefe;"/><text x="731.269px" y="877.922px" style="font-family:'Arial-BoldMT', 'Arial', sans-serif;font-weight:700;font-size:29.477px;">Spleen</text><text x="946.784px" y="877.922px" style="font-family:'Arial-BoldMT', 'Arial', sans-serif;font-weight:700;font-size:29.477px;">Pancreas</text><text x="1196.26px" y="877.922px" style="font-family:'Arial-BoldMT', 'Arial', sans-serif;font-weight:700;font-size:29.477px;">Kidney</text><text x="1443.63px" y="877.922px" style="font-family:'Arial-BoldMT', 'Arial', sans-serif;font-weight:700;font-size:29.477px;">Lung</text><text x="1674.81px" y="877.922px" style="font-family:'Arial-BoldMT', 'Arial', sans-serif;font-weight:700;font-size:29.477px;">Heart</text><text x="1910.41px" y="877.922px" style="font-family:'Arial-BoldMT', 'Arial', sans-serif;font-weight:700;font-size:29.477px;">Liver</text><text x="2119.51px" y="877.922px" style="font-family:'Arial-BoldMT', 'Arial', sans-serif;font-weight:700;font-size:29.477px;">S.Cortex</text><text x="2545.72px" y="877.922px" style="font-family:'Arial-BoldMT', 'Arial', sans-serif;font-weight:700;font-size:29.477px;">Hypothalamus</text><text x="2358.67px" y="877.922px" style="font-family:'Arial-BoldMT', 'Arial', sans-serif;font-weight:700;font-size:29.477px;">Medulla</text><text x="2801.2px" y="877.922px" style="font-family:'Arial-BoldMT', 'Arial', sans-serif;font-weight:700;font-size:29.477px;">Cerebellum</text><text x="3052.41px" y="877.922px" style="font-family:'Arial-BoldMT', 'Arial', sans-serif;font-weight:700;font-size:29.477px;">B.Cortex</text><path d="M3112.81,798.192l-0.057,-2.705l-0.173,-2.706l-0.307,-2.687l-0.403,-2.687l-0.538,-2.687l-0.633,-2.667l-0.768,-2.648l-0.863,-2.63l-0.998,-2.609l-1.094,-2.591l-1.209,-2.553l-1.324,-2.533l-1.439,-2.495l-1.536,-2.456l-1.65,-2.418l-1.747,-2.399l-1.842,-2.341l-1.957,-2.303l-2.054,-2.246l-2.149,-2.206l-2.245,-2.15l-2.342,-2.111l-2.418,-2.034l-2.514,-1.996l-2.61,-1.919l-2.686,-1.881l-2.745,-1.804l-2.84,-1.746l-2.917,-1.67l-2.994,-1.592l-3.051,-1.536l-3.109,-1.477l-3.186,-1.382l-3.243,-1.324l-3.282,-1.229l-3.358,-1.17l-3.378,-1.075l-3.454,-1.017l-3.474,-0.921l-3.531,-0.845l-3.55,-0.767l-3.589,-0.672l-3.608,-0.595l-3.646,-0.518l-3.646,-0.422l-3.685,-0.346l-3.684,-0.268l-3.704,-0.154l-3.704,-0.096l-3.704,0l-3.704,0.096l-3.704,0.154l-3.684,0.268l-3.666,0.346l-3.665,0.422l-3.646,0.518l-3.608,0.595l-3.589,0.672l-3.55,0.767l-3.531,0.845l-3.474,0.921l-3.435,1.017l-3.397,1.075l-3.358,1.17l-3.282,1.229l-3.243,1.324l-3.186,1.382l-3.109,1.477l-3.051,1.536l-2.994,1.592l-2.898,1.67l-2.84,1.746l-2.763,1.804l-2.687,1.881l-2.591,1.919l-2.514,1.996l-2.437,2.034l-2.342,2.111l-2.245,2.15l-2.149,2.206l-2.054,2.246l-1.938,2.303l-1.861,2.341l-1.747,2.399l-1.65,2.418l-1.535,2.456l-1.44,2.495l-1.324,2.533l-1.209,2.553l-1.094,2.591l-0.979,2.609l-0.882,2.63l-0.768,2.648l-0.633,2.667l-0.538,2.687l-0.403,2.687l-0.288,2.687l-0.172,2.706l-0.077,2.705" style="fill:none;fill-rule:nonzero;stroke:#333;stroke-opacity:0.25;stroke-width:35.51px;"/><path d="M3112.81,894.301l-0.115,5.412l-0.365,5.393l-0.575,5.411l-0.826,5.374l-1.055,5.354l-1.286,5.335l-1.516,5.297l-1.746,5.258l-1.977,5.22l-2.207,5.182l-2.418,5.104l-2.648,5.067l-2.86,4.989l-3.09,4.913l-3.281,4.855l-3.512,4.779l-3.704,4.683l-3.896,4.605l-4.107,4.51l-4.298,4.395l-4.491,4.318l-4.683,4.203l-4.836,4.087l-5.028,3.973l-5.2,3.857l-5.374,3.742l-5.527,3.608l-5.68,3.474l-5.815,3.358l-5.968,3.205l-6.103,3.071l-6.237,2.936l-6.352,2.763l-6.487,2.649l-6.582,2.475l-6.698,2.322l-6.794,2.169l-6.87,2.015l-6.966,1.862l-7.043,1.688l-7.101,1.516l-7.177,1.363l-7.235,1.19l-7.274,1.017l-7.33,0.864l-7.351,0.69l-7.369,0.499l-7.388,0.346l-7.408,0.173l-7.427,-0l-7.408,-0.173l-7.388,-0.346l-7.369,-0.499l-7.37,-0.69l-7.311,-0.864l-7.274,-1.017l-7.235,-1.19l-7.177,-1.363l-7.101,-1.516l-7.043,-1.688l-6.966,-1.862l-6.87,-2.015l-6.794,-2.169l-6.698,-2.322l-6.582,-2.475l-6.486,-2.649l-6.353,-2.763l-6.237,-2.936l-6.102,-3.071l-5.969,-3.205l-5.834,-3.358l-5.661,-3.474l-5.527,-3.608l-5.374,-3.742l-5.2,-3.857l-5.028,-3.973l-4.836,-4.087l-4.683,-4.203l-4.491,-4.318l-4.298,-4.395l-4.107,-4.51l-3.896,-4.605l-3.704,-4.683l-3.512,-4.779l-3.281,-4.855l-3.09,-4.913l-2.86,-4.989l-2.648,-5.067l-2.418,-5.104l-2.207,-5.182l-1.977,-5.22l-1.746,-5.258l-1.516,-5.297l-1.286,-5.335l-1.055,-5.354l-0.825,-5.374l-0.576,-5.411l-0.365,-5.393l-0.115,-5.412" style="fill:none;fill-rule:nonzero;stroke:#333;stroke-opacity:0.25;stroke-width:37.99px;"/><path d="M3112.81,798.192l-0.173,-8.117l-0.537,-8.099l-0.883,-8.098l-1.228,-8.08l-1.593,-8.041l-1.919,-7.983l-2.284,-7.945l-2.61,-7.907l-2.974,-7.81l-3.301,-7.754l-3.627,-7.676l-3.973,-7.599l-4.298,-7.485l-4.606,-7.388l-4.951,-7.274l-5.239,-7.158l-5.566,-7.024l-5.853,-6.909l-6.16,-6.755l-6.448,-6.621l-6.736,-6.467l-7.005,-6.294l-7.293,-6.142l-7.542,-5.968l-7.791,-5.776l-8.041,-5.604l-8.291,-5.412l-8.52,-5.22l-8.732,-5.028l-8.943,-4.817l-9.173,-4.606l-9.346,-4.375l-9.538,-4.184l-9.711,-3.953l-9.883,-3.704l-10.037,-3.493l-10.19,-3.262l-10.325,-3.013l-10.44,-2.783l-10.555,-2.533l-10.67,-2.284l-10.766,-2.034l-10.843,-1.804l-10.919,-1.535l-10.978,-1.286l-11.015,-1.017l-11.073,-0.768l-11.093,-0.518l-11.111,-0.268l-11.112,-0l-11.111,0.268l-11.092,0.518l-11.074,0.768l-11.034,1.017l-10.978,1.286l-10.9,1.535l-10.862,1.804l-10.747,2.034l-10.67,2.284l-10.555,2.533l-10.459,2.783l-10.325,3.013l-10.171,3.262l-10.037,3.493l-9.883,3.704l-9.711,3.953l-9.537,4.184l-9.366,4.375l-9.154,4.606l-8.943,4.817l-8.751,5.028l-8.501,5.22l-8.291,5.412l-8.041,5.604l-7.81,5.776l-7.542,5.968l-7.274,6.142l-7.004,6.294l-6.736,6.467l-6.448,6.621l-6.161,6.755l-5.853,6.909l-5.565,7.024l-5.259,7.158l-4.932,7.274l-4.625,7.388l-4.279,7.485l-3.973,7.599l-3.646,7.676l-3.301,7.754l-2.955,7.81l-2.629,7.907l-2.265,7.945l-1.938,7.983l-1.574,8.041l-1.228,8.08l-0.883,8.098l-0.537,8.099l-0.173,8.117" style="fill:none;fill-rule:nonzero;stroke:#333;stroke-opacity:0.25;stroke-width:33.55px;"/><path d="M3112.81,894.301l-0.23,10.824l-0.71,10.804l-1.171,10.805l-1.65,10.747l-2.111,10.727l-2.572,10.651l-3.032,10.613l-3.493,10.516l-3.953,10.44l-4.414,10.325l-4.836,10.248l-5.297,10.113l-5.719,9.98l-6.16,9.845l-6.582,9.71l-7.005,9.538l-7.408,9.384l-7.81,9.193l-8.214,9.019l-8.598,8.809l-8.981,8.617l-9.346,8.405l-9.711,8.195l-10.056,7.945l-10.401,7.715l-10.708,7.465l-11.054,7.235l-11.361,6.947l-11.649,6.698l-11.937,6.428l-12.205,6.122l-12.474,5.854l-12.724,5.565l-12.935,5.277l-13.184,4.952l-13.376,4.663l-13.587,4.337l-13.76,4.011l-13.932,3.704l-14.087,3.378l-14.22,3.051l-14.336,2.725l-14.469,2.38l-14.547,2.053l-14.643,1.708l-14.7,1.382l-14.758,1.017l-14.796,0.691l-14.815,0.345l-14.816,0l-14.815,-0.345l-14.796,-0.691l-14.758,-1.017l-14.7,-1.382l-14.624,-1.708l-14.565,-2.053l-14.451,-2.38l-14.355,-2.725l-14.22,-3.051l-14.086,-3.378l-13.933,-3.704l-13.76,-4.011l-13.568,-4.337l-13.395,-4.663l-13.165,-4.952l-12.954,-5.277l-12.723,-5.565l-12.455,-5.854l-12.225,-6.122l-11.937,-6.428l-11.648,-6.698l-11.342,-6.947l-11.054,-7.235l-10.728,-7.465l-10.401,-7.715l-10.056,-7.945l-9.711,-8.195l-9.346,-8.405l-8.962,-8.617l-8.617,-8.809l-8.194,-9.019l-7.83,-9.193l-7.408,-9.384l-7.004,-9.538l-6.583,-9.71l-6.141,-9.845l-5.738,-9.98l-5.278,-10.113l-4.855,-10.248l-4.395,-10.325l-3.953,-10.44l-3.493,-10.516l-3.032,-10.613l-2.591,-10.651l-2.111,-10.727l-1.631,-10.747l-1.17,-10.805l-0.711,-10.804l-0.23,-10.824" style="fill:none;fill-rule:nonzero;stroke:#333;stroke-opacity:0.25;stroke-width:40.27px;"/><path d="M3112.81,798.192l-0.307,-13.529l-0.864,-13.51l-1.477,-13.492l-2.054,-13.452l-2.629,-13.396l-3.224,-13.337l-3.8,-13.242l-4.356,-13.146l-4.951,-13.05l-5.489,-12.915l-6.064,-12.8l-6.621,-12.647l-7.158,-12.474l-7.696,-12.321l-8.213,-12.128l-8.751,-11.918l-9.27,-11.726l-9.768,-11.495l-10.267,-11.265l-10.747,-11.035l-11.226,-10.766l-11.669,-10.497l-12.147,-10.229l-12.57,-9.941l-12.993,-9.653l-13.414,-9.346l-13.798,-9.019l-14.202,-8.694l-14.565,-8.367l-14.912,-8.022l-15.276,-7.676l-15.583,-7.312l-15.89,-6.966l-16.197,-6.583l-16.466,-6.198l-16.734,-5.815l-16.965,-5.431l-17.195,-5.028l-17.425,-4.625l-17.598,-4.222l-17.771,-3.819l-17.943,-3.397l-18.078,-2.975l-18.193,-2.571l-18.289,-2.13l-18.385,-1.708l-18.442,-1.286l-18.481,-0.864l-18.519,-0.422l-18.539,0l-18.519,0.422l-18.481,0.864l-18.442,1.286l-18.385,1.708l-18.289,2.13l-18.193,2.571l-18.078,2.975l-17.943,3.397l-17.771,3.819l-17.598,4.222l-17.406,4.625l-17.214,5.028l-16.965,5.431l-16.734,5.815l-16.466,6.198l-16.197,6.583l-15.89,6.966l-15.583,7.312l-15.276,7.676l-14.911,8.022l-14.566,8.367l-14.202,8.694l-13.798,9.019l-13.414,9.346l-12.992,9.653l-12.57,9.941l-12.129,10.229l-11.687,10.497l-11.227,10.766l-10.747,11.035l-10.267,11.265l-9.768,11.495l-9.25,11.726l-8.751,11.918l-8.233,12.128l-7.696,12.321l-7.158,12.474l-6.621,12.647l-6.045,12.8l-5.508,12.915l-4.932,13.05l-4.375,13.146l-3.8,13.242l-3.205,13.337l-2.648,13.396l-2.054,13.452l-1.458,13.492l-0.883,13.51l-0.307,13.529" style="fill:none;fill-rule:nonzero;stroke:#333;stroke-opacity:0.25;stroke-width:6.44px;"/><path d="M3112.81,894.301l-0.365,16.236l-1.055,16.216l-1.766,16.197l-2.456,16.139l-3.167,16.063l-3.857,16.005l-4.548,15.89l-5.239,15.795l-5.93,15.64l-6.602,15.506l-7.273,15.353l-7.945,15.18l-8.579,14.969l-9.23,14.777l-9.884,14.547l-10.497,14.316l-11.112,14.067l-11.725,13.798l-12.321,13.53l-12.896,13.222l-13.472,12.935l-14.009,12.589l-14.566,12.282l-15.084,11.937l-15.602,11.572l-16.082,11.207l-16.581,10.824l-17.023,10.44l-17.482,10.037l-17.906,9.634l-18.308,9.211l-18.711,8.77l-19.075,8.348l-19.422,7.907l-19.766,7.427l-20.074,6.985l-20.361,6.506l-20.65,6.045l-20.899,5.546l-21.11,5.067l-21.34,4.586l-21.513,4.069l-21.686,3.589l-21.839,3.07l-21.954,2.572l-22.05,2.053l-22.147,1.535l-22.184,1.037l-22.223,0.518l-22.223,-0l-22.223,-0.518l-22.204,-1.037l-22.127,-1.535l-22.051,-2.053l-21.954,-2.572l-21.839,-3.07l-21.686,-3.589l-21.513,-4.069l-21.34,-4.586l-21.129,-5.067l-20.88,-5.546l-20.649,-6.045l-20.362,-6.506l-20.074,-6.985l-19.766,-7.427l-19.421,-7.907l-19.076,-8.348l-18.711,-8.77l-18.308,-9.211l-17.905,-9.634l-17.483,-10.037l-17.042,-10.44l-16.561,-10.824l-16.082,-11.207l-15.603,-11.572l-15.084,-11.937l-14.565,-12.282l-14.01,-12.589l-13.472,-12.935l-12.896,-13.222l-12.321,-13.53l-11.725,-13.798l-11.112,-14.067l-10.497,-14.316l-9.883,-14.547l-9.231,-14.777l-8.598,-14.969l-7.926,-15.18l-7.273,-15.353l-6.602,-15.506l-5.93,-15.64l-5.239,-15.795l-4.548,-15.89l-3.857,-16.005l-3.167,-16.063l-2.475,-16.139l-1.747,-16.197l-1.055,-16.216l-0.365,-16.236" style="fill:none;fill-rule:nonzero;stroke:#333;stroke-opacity:0.25;stroke-width:10.4px;"/><path d="M3112.81,798.192l-0.422,-18.941l-1.228,-18.922l-2.054,-18.884l-2.878,-18.826l-3.685,-18.769l-4.51,-18.653l-5.316,-18.539l-6.102,-18.423l-6.928,-18.27l-7.696,-18.078l-8.482,-17.905l-9.25,-17.713l-10.037,-17.463l-10.766,-17.234l-11.515,-16.984l-12.263,-16.696l-12.973,-16.408l-13.664,-16.101l-14.374,-15.775l-15.045,-15.449l-15.718,-15.065l-16.35,-14.719l-16.984,-14.316l-17.598,-13.914l-18.193,-13.51l-18.769,-13.069l-19.344,-12.628l-19.863,-12.186l-20.4,-11.706l-20.879,-11.246l-21.36,-10.747l-21.839,-10.229l-22.242,-9.73l-22.665,-9.23l-23.067,-8.675l-23.413,-8.137l-23.758,-7.599l-24.085,-7.043l-24.372,-6.487l-24.66,-5.911l-24.872,-5.335l-25.121,-4.759l-25.293,-4.164l-25.466,-3.589l-25.62,-2.994l-25.735,-2.399l-25.812,-1.804l-25.888,-1.209l-25.927,-0.595l-25.946,0l-25.927,0.595l-25.889,1.209l-25.811,1.804l-25.735,2.399l-25.62,2.994l-25.467,3.589l-25.312,4.164l-25.102,4.759l-24.891,5.335l-24.641,5.911l-24.372,6.487l-24.085,7.043l-23.758,7.599l-23.432,8.137l-23.048,8.675l-22.665,9.23l-22.261,9.73l-21.82,10.229l-21.359,10.747l-20.899,11.246l-20.381,11.706l-19.882,12.186l-19.325,12.628l-18.769,13.069l-18.193,13.51l-17.598,13.914l-17.003,14.316l-16.35,14.719l-15.698,15.065l-15.046,15.449l-14.374,15.775l-13.683,16.101l-12.973,16.408l-12.244,16.696l-11.515,16.984l-10.785,17.234l-10.017,17.463l-9.25,17.713l-8.483,17.905l-7.715,18.078l-6.908,18.27l-6.122,18.423l-5.297,18.539l-4.51,18.653l-3.684,18.769l-2.879,18.826l-2.053,18.884l-1.248,18.922l-0.403,18.941" style="fill:none;fill-rule:nonzero;stroke:#333;stroke-opacity:0.25;stroke-width:7.92px;"/><path d="M3112.81,894.301l-0.48,21.647l-1.401,21.628l-2.36,21.59l-3.282,21.513l-4.222,21.436l-5.143,21.321l-6.064,21.206l-7.005,21.034l-7.887,20.879l-8.809,20.669l-9.691,20.476l-10.574,20.228l-11.457,19.958l-12.321,19.709l-13.165,19.402l-13.99,19.076l-14.835,18.769l-15.621,18.384l-16.427,18.04l-17.195,17.636l-17.944,17.234l-18.692,16.811l-19.421,16.35l-20.112,15.91l-20.803,15.448l-21.455,14.931l-22.089,14.451l-22.703,13.913l-23.317,13.376l-23.873,12.839l-24.411,12.282l-24.929,11.706l-25.447,11.131l-25.908,10.536l-26.349,9.921l-26.752,9.308l-27.174,8.674l-27.52,8.041l-27.846,7.408l-28.172,6.755l-28.441,6.103l-28.69,5.45l-28.921,4.759l-29.112,4.107l-29.266,3.416l-29.42,2.745l-29.496,2.053l-29.593,1.382l-29.63,0.671l-29.65,0l-29.631,-0.671l-29.573,-1.382l-29.516,-2.053l-29.4,-2.745l-29.285,-3.416l-29.113,-4.107l-28.901,-4.759l-28.71,-5.45l-28.441,-6.103l-28.153,-6.755l-27.865,-7.408l-27.52,-8.041l-27.155,-8.674l-26.771,-9.308l-26.349,-9.921l-25.908,-10.536l-25.428,-11.131l-24.948,-11.706l-24.411,-12.282l-23.873,-12.839l-23.298,-13.376l-22.722,-13.913l-22.089,-14.451l-21.455,-14.931l-20.784,-15.448l-20.131,-15.91l-19.402,-16.35l-18.692,-16.811l-17.962,-17.234l-17.195,-17.636l-16.409,-18.04l-15.64,-18.384l-14.816,-18.769l-14.009,-19.076l-13.165,-19.402l-12.301,-19.709l-11.457,-19.958l-10.593,-20.228l-9.692,-20.476l-8.789,-20.669l-7.907,-20.879l-6.985,-21.034l-6.084,-21.206l-5.143,-21.321l-4.222,-21.436l-3.282,-21.513l-2.341,-21.59l-1.42,-21.628l-0.461,-21.647" style="fill:none;fill-rule:nonzero;stroke:#333;stroke-opacity:0.25;stroke-width:8.97px;"/><path d="M3112.81,798.192l-0.537,-24.353l-1.593,-24.334l-2.629,-24.276l-3.704,-24.219l-4.74,-24.104l-5.796,-23.988l-6.832,-23.855l-7.868,-23.681l-8.885,-23.471l-9.903,-23.259l-10.9,-23.029l-11.899,-22.76l-12.896,-22.473l-13.856,-22.146l-14.796,-21.839l-15.756,-21.475l-16.677,-21.091l-17.578,-20.707l-18.481,-20.265l-19.345,-19.844l-20.188,-19.402l-21.034,-18.903l-21.839,-18.404l-22.626,-17.905l-23.393,-17.348l-24.143,-16.812l-24.852,-16.254l-25.543,-15.66l-26.234,-15.046l-26.848,-14.45l-27.462,-13.818l-28.057,-13.165l-28.614,-12.512l-29.151,-11.86l-29.649,-11.15l-30.111,-10.478l-30.552,-9.768l-30.955,-9.058l-31.338,-8.329l-31.684,-7.6l-32.011,-6.851l-32.279,-6.122l-32.528,-5.373l-32.74,-4.606l-32.932,-3.858l-33.085,-3.07l-33.2,-2.322l-33.296,-1.555l-33.335,-0.767l-33.334,-0l-33.335,0.767l-33.296,1.555l-33.2,2.322l-33.085,3.07l-32.932,3.858l-32.739,4.606l-32.529,5.373l-32.279,6.122l-32.01,6.851l-31.684,7.6l-31.339,8.329l-30.955,9.058l-30.552,9.768l-30.11,10.478l-29.65,11.15l-29.151,11.86l-28.614,12.512l-28.057,13.165l-27.462,13.818l-26.848,14.45l-26.215,15.046l-25.562,15.66l-24.852,16.254l-24.142,16.812l-23.394,17.348l-22.626,17.905l-21.839,18.404l-21.033,18.903l-20.189,19.402l-19.345,19.844l-18.48,20.265l-17.579,20.707l-16.677,21.091l-15.756,21.475l-14.796,21.839l-13.856,22.146l-12.896,22.473l-11.898,22.76l-10.901,23.029l-9.902,23.259l-8.886,23.471l-7.868,23.681l-6.832,23.855l-5.795,23.988l-4.741,24.104l-3.703,24.219l-2.63,24.276l-1.592,24.334l-0.538,24.353" style="fill:none;fill-rule:nonzero;stroke:#333;stroke-opacity:0.25;stroke-width:6.44px;"/><path d="M3112.81,894.301l-0.595,27.059l-1.765,27.04l-2.937,26.983l-4.106,26.905l-5.278,26.791l-6.429,26.656l-7.58,26.483l-8.751,26.311l-9.864,26.08l-10.997,25.85l-12.128,25.582l-13.223,25.293l-14.316,24.968l-15.391,24.622l-16.466,24.238l-17.502,23.873l-18.519,23.432l-19.537,23.01l-20.534,22.53l-21.494,22.05l-22.434,21.532l-23.374,21.014l-24.258,20.458l-25.14,19.882l-26.003,19.287l-26.81,18.691l-27.616,18.04l-28.402,17.406l-29.113,16.734l-29.841,16.044l-30.533,15.353l-31.166,14.623l-31.799,13.914l-32.375,13.145l-32.951,12.417l-33.45,11.629l-33.948,10.862l-34.41,10.056l-34.812,9.25l-35.215,8.444l-35.542,7.638l-35.867,6.794l-36.156,5.968l-36.386,5.124l-36.597,4.261l-36.75,3.435l-36.885,2.571l-36.981,1.708l-37.039,0.864l-37.057,0l-37.038,-0.864l-36.981,-1.708l-36.885,-2.571l-36.77,-3.435l-36.578,-4.261l-36.386,-5.124l-36.155,-5.968l-35.868,-6.794l-35.561,-7.638l-35.196,-8.444l-34.831,-9.25l-34.39,-10.056l-33.949,-10.862l-33.469,-11.629l-32.931,-12.417l-32.375,-13.145l-31.8,-13.914l-31.165,-14.623l-30.533,-15.353l-29.842,-16.044l-29.132,-16.734l-28.383,-17.406l-27.616,-18.04l-26.809,-18.691l-26.004,-19.287l-25.14,-19.882l-24.257,-20.458l-23.375,-21.014l-22.434,-21.532l-21.494,-22.05l-20.534,-22.53l-19.536,-23.01l-18.539,-23.432l-17.482,-23.873l-16.466,-24.238l-15.391,-24.622l-14.317,-24.968l-13.222,-25.293l-12.129,-25.582l-10.996,-25.85l-9.884,-26.08l-8.731,-26.311l-7.581,-26.483l-6.448,-26.656l-5.258,-26.791l-4.107,-26.905l-2.936,-26.983l-1.766,-27.04l-0.595,-27.059" style="fill:none;fill-rule:nonzero;stroke:#333;stroke-opacity:0.25;stroke-width:6.01px;"/><path d="M2879.24,894.301l-0.058,2.706l-0.172,2.706l-0.288,2.687l-0.403,2.686l-0.538,2.687l-0.633,2.668l-0.767,2.648l-0.883,2.629l-0.979,2.61l-1.094,2.591l-1.209,2.552l-1.324,2.533l-1.439,2.495l-1.536,2.457l-1.65,2.418l-1.746,2.399l-1.862,2.341l-1.957,2.303l-2.035,2.245l-2.149,2.207l-2.245,2.149l-2.342,2.111l-2.437,2.035l-2.514,1.995l-2.591,1.92l-2.686,1.88l-2.764,1.804l-2.84,1.747l-2.898,1.669l-2.994,1.593l-3.051,1.535l-3.109,1.478l-3.186,1.382l-3.243,1.324l-3.282,1.228l-3.358,1.171l-3.397,1.074l-3.435,1.018l-3.473,0.921l-3.532,0.844l-3.55,0.768l-3.589,0.671l-3.607,0.595l-3.647,0.519l-3.665,0.422l-3.666,0.345l-3.684,0.269l-3.704,0.153l-3.704,0.096l-3.704,0l-3.704,-0.096l-3.703,-0.153l-3.685,-0.269l-3.685,-0.345l-3.646,-0.422l-3.646,-0.519l-3.608,-0.595l-3.589,-0.671l-3.55,-0.768l-3.531,-0.844l-3.474,-0.921l-3.454,-1.018l-3.397,-1.074l-3.339,-1.171l-3.282,-1.228l-3.243,-1.324l-3.186,-1.382l-3.109,-1.478l-3.051,-1.535l-2.994,-1.593l-2.917,-1.669l-2.84,-1.747l-2.744,-1.804l-2.687,-1.88l-2.61,-1.92l-2.514,-1.995l-2.418,-2.035l-2.341,-2.111l-2.246,-2.149l-2.149,-2.207l-2.054,-2.245l-1.957,-2.303l-1.842,-2.341l-1.747,-2.399l-1.65,-2.418l-1.535,-2.457l-1.44,-2.495l-1.324,-2.533l-1.209,-2.552l-1.094,-2.591l-0.998,-2.61l-0.863,-2.629l-0.768,-2.648l-0.633,-2.668l-0.538,-2.687l-0.403,-2.686l-0.307,-2.687l-0.172,-2.706l-0.058,-2.706" style="fill:none;fill-rule:nonzero;stroke:#333;stroke-opacity:0.25;stroke-width:35.51px;"/><path d="M2879.24,798.192l-0.115,-5.411l-0.346,-5.393l-0.595,-5.412l-0.806,-5.373l-1.055,-5.355l-1.286,-5.335l-1.535,-5.296l-1.746,-5.259l-1.958,-5.219l-2.207,-5.182l-2.418,-5.105l-2.648,-5.066l-2.86,-4.99l-3.089,-4.913l-3.282,-4.855l-3.512,-4.778l-3.704,-4.683l-3.896,-4.606l-4.106,-4.51l-4.299,-4.394l-4.491,-4.318l-4.682,-4.203l-4.856,-4.088l-5.028,-3.972l-5.2,-3.858l-5.355,-3.742l-5.527,-3.608l-5.68,-3.473l-5.815,-3.359l-5.968,-3.205l-6.103,-3.07l-6.237,-2.936l-6.371,-2.764l-6.468,-2.648l-6.582,-2.476l-6.698,-2.322l-6.793,-2.168l-6.871,-2.016l-6.966,-1.861l-7.043,-1.689l-7.12,-1.516l-7.177,-1.362l-7.216,-1.19l-7.273,-1.017l-7.331,-0.864l-7.35,-0.691l-7.37,-0.499l-7.407,-0.345l-7.408,-0.173l-7.408,-0l-7.407,0.173l-7.389,0.345l-7.388,0.499l-7.351,0.691l-7.311,0.864l-7.274,1.017l-7.235,1.19l-7.177,1.362l-7.101,1.516l-7.043,1.689l-6.966,1.861l-6.889,2.016l-6.775,2.168l-6.697,2.322l-6.583,2.476l-6.486,2.648l-6.353,2.764l-6.237,2.936l-6.102,3.07l-5.969,3.205l-5.834,3.359l-5.68,3.473l-5.508,3.608l-5.373,3.742l-5.201,3.858l-5.028,3.972l-4.855,4.088l-4.664,4.203l-4.491,4.318l-4.298,4.394l-4.107,4.51l-3.915,4.606l-3.704,4.683l-3.493,4.778l-3.3,4.855l-3.071,4.913l-2.859,4.99l-2.649,5.066l-2.418,5.105l-2.207,5.182l-1.976,5.219l-1.747,5.259l-1.516,5.296l-1.286,5.335l-1.055,5.355l-0.825,5.373l-0.595,5.412l-0.346,5.393l-0.115,5.411" style="fill:none;fill-rule:nonzero;stroke:#333;stroke-opacity:0.25;stroke-width:31.76px;"/><path d="M2879.24,894.301l-0.173,8.118l-0.518,8.098l-0.883,8.099l-1.228,8.079l-1.593,8.041l-1.919,7.984l-2.284,7.945l-2.629,7.906l-2.955,7.811l-3.301,7.753l-3.627,7.676l-3.972,7.6l-4.299,7.484l-4.625,7.389l-4.932,7.273l-5.239,7.158l-5.566,7.024l-5.853,6.909l-6.16,6.755l-6.448,6.621l-6.736,6.467l-7.005,6.295l-7.293,6.141l-7.542,5.968l-7.791,5.777l-8.041,5.604l-8.291,5.411l-8.52,5.22l-8.732,5.028l-8.962,4.817l-9.154,4.606l-9.346,4.376l-9.538,4.183l-9.711,3.954l-9.883,3.703l-10.037,3.493l-10.19,3.263l-10.325,3.013l-10.44,2.782l-10.574,2.533l-10.651,2.284l-10.766,2.034l-10.843,1.804l-10.919,1.536l-10.978,1.285l-11.034,1.018l-11.054,0.767l-11.093,0.518l-11.111,0.269l-11.131,-0l-11.111,-0.269l-11.093,-0.518l-11.054,-0.767l-11.034,-1.018l-10.977,-1.285l-10.92,-1.536l-10.843,-1.804l-10.766,-2.034l-10.651,-2.284l-10.574,-2.533l-10.44,-2.782l-10.325,-3.013l-10.171,-3.263l-10.056,-3.493l-9.864,-3.703l-9.73,-3.954l-9.538,-4.183l-9.346,-4.376l-9.154,-4.606l-8.962,-4.817l-8.732,-5.028l-8.52,-5.22l-8.272,-5.411l-8.06,-5.604l-7.791,-5.777l-7.542,-5.968l-7.274,-6.141l-7.023,-6.295l-6.717,-6.467l-6.448,-6.621l-6.161,-6.755l-5.872,-6.909l-5.546,-7.024l-5.259,-7.158l-4.932,-7.273l-4.625,-7.389l-4.298,-7.484l-3.954,-7.6l-3.646,-7.676l-3.301,-7.753l-2.955,-7.811l-2.629,-7.906l-2.265,-7.945l-1.938,-7.984l-1.574,-8.041l-1.247,-8.079l-0.883,-8.099l-0.518,-8.098l-0.173,-8.118" style="fill:none;fill-rule:nonzero;stroke:#333;stroke-opacity:0.25;stroke-width:35.34px;"/><path d="M2879.24,798.192l-0.23,-10.823l-0.71,-10.805l-1.171,-10.804l-1.631,-10.747l-2.111,-10.728l-2.572,-10.651l-3.051,-10.612l-3.493,-10.517l-3.934,-10.44l-4.414,-10.324l-4.836,-10.248l-5.297,-10.114l-5.719,-9.979l-6.16,-9.845l-6.582,-9.711l-7.005,-9.537l-7.408,-9.385l-7.81,-9.192l-8.214,-9.02l-8.598,-8.809l-8.981,-8.616l-9.346,-8.406l-9.71,-8.194l-10.056,-7.945l-10.402,-7.715l-10.728,-7.465l-11.034,-7.235l-11.361,-6.947l-11.649,-6.698l-11.937,-6.429l-12.205,-6.122l-12.474,-5.853l-12.724,-5.565l-12.954,-5.278l-13.165,-4.951l-13.395,-4.664l-13.568,-4.337l-13.76,-4.011l-13.932,-3.703l-14.086,-3.378l-14.221,-3.051l-14.355,-2.725l-14.45,-2.38l-14.547,-2.054l-14.643,-1.708l-14.7,-1.381l-14.758,-1.017l-14.796,-0.691l-14.815,-0.346l-14.816,0l-14.815,0.346l-14.796,0.691l-14.758,1.017l-14.7,1.381l-14.643,1.708l-14.546,2.054l-14.47,2.38l-14.336,2.725l-14.22,3.051l-14.086,3.378l-13.933,3.703l-13.76,4.011l-13.568,4.337l-13.395,4.664l-13.165,4.951l-12.954,5.278l-12.723,5.565l-12.474,5.853l-12.206,6.122l-11.937,6.429l-11.648,6.698l-11.361,6.947l-11.035,7.235l-10.728,7.465l-10.401,7.715l-10.056,7.945l-9.711,8.194l-9.346,8.406l-8.981,8.616l-8.598,8.809l-8.213,9.02l-7.811,9.192l-7.408,9.385l-7.004,9.537l-6.583,9.711l-6.16,9.845l-5.719,9.979l-5.297,10.114l-4.836,10.248l-4.414,10.324l-3.934,10.44l-3.512,10.517l-3.032,10.612l-2.572,10.651l-2.111,10.728l-1.631,10.747l-1.19,10.804l-0.69,10.805l-0.25,10.823" style="fill:none;fill-rule:nonzero;stroke:#333;stroke-opacity:0.25;stroke-width:6.87px;"/><path d="M2879.24,894.301l-0.288,13.53l-0.883,13.51l-1.458,13.491l-2.054,13.453l-2.648,13.395l-3.205,13.338l-3.8,13.242l-4.375,13.145l-4.932,13.05l-5.508,12.916l-6.045,12.8l-6.621,12.647l-7.158,12.474l-7.696,12.32l-8.233,12.129l-8.751,11.917l-9.25,11.726l-9.768,11.495l-10.267,11.265l-10.747,11.035l-11.226,10.766l-11.688,10.498l-12.128,10.228l-12.57,9.941l-12.993,9.653l-13.414,9.346l-13.817,9.02l-14.182,8.693l-14.566,8.368l-14.931,8.021l-15.257,7.677l-15.583,7.312l-15.89,6.966l-16.197,6.582l-16.465,6.199l-16.735,5.815l-16.965,5.431l-17.214,5.028l-17.406,4.625l-17.598,4.222l-17.79,3.819l-17.924,3.397l-18.078,2.974l-18.193,2.572l-18.289,2.13l-18.385,1.708l-18.442,1.286l-18.481,0.863l-18.519,0.422l-18.539,0l-18.519,-0.422l-18.481,-0.863l-18.461,-1.286l-18.366,-1.708l-18.308,-2.13l-18.193,-2.572l-18.058,-2.974l-17.944,-3.397l-17.771,-3.819l-17.598,-4.222l-17.425,-4.625l-17.195,-5.028l-16.965,-5.431l-16.734,-5.815l-16.466,-6.199l-16.197,-6.582l-15.89,-6.966l-15.602,-7.312l-15.257,-7.677l-14.911,-8.021l-14.566,-8.368l-14.201,-8.693l-13.799,-9.02l-13.414,-9.346l-12.992,-9.653l-12.57,-9.941l-12.148,-10.228l-11.668,-10.498l-11.227,-10.766l-10.747,-11.035l-10.267,-11.265l-9.768,-11.495l-9.269,-11.726l-8.751,-11.917l-8.214,-12.129l-7.696,-12.32l-7.158,-12.474l-6.621,-12.647l-6.064,-12.8l-5.489,-12.916l-4.951,-13.05l-4.356,-13.145l-3.8,-13.242l-3.224,-13.338l-2.629,-13.395l-2.054,-13.453l-1.477,-13.491l-0.883,-13.51l-0.288,-13.53" style="fill:none;fill-rule:nonzero;stroke:#333;stroke-opacity:0.25;stroke-width:11.41px;"/><path d="M2879.24,798.192l-0.345,-16.235l-1.056,-16.216l-1.766,-16.197l-2.456,-16.14l-3.166,-16.063l-3.858,-16.005l-4.567,-15.89l-5.239,-15.794l-5.911,-15.641l-6.602,-15.506l-7.273,-15.352l-7.945,-15.18l-8.578,-14.969l-9.25,-14.777l-9.865,-14.547l-10.497,-14.316l-11.131,-14.067l-11.706,-13.799l-12.321,-13.529l-12.896,-13.223l-13.472,-12.934l-14.009,-12.589l-14.566,-12.283l-15.084,-11.936l-15.602,-11.572l-16.082,-11.208l-16.581,-10.824l-17.023,-10.439l-17.482,-10.037l-17.905,-9.634l-18.309,-9.212l-18.711,-8.77l-19.075,-8.348l-19.422,-7.907l-19.766,-7.426l-20.074,-6.986l-20.381,-6.506l-20.63,-6.045l-20.899,-5.546l-21.129,-5.066l-21.321,-4.587l-21.532,-4.068l-21.686,-3.589l-21.82,-3.071l-21.954,-2.571l-22.07,-2.054l-22.127,-1.535l-22.184,-1.036l-22.223,-0.518l-22.243,-0l-22.223,0.518l-22.184,1.036l-22.127,1.535l-22.051,2.054l-21.954,2.571l-21.839,3.071l-21.686,3.589l-21.532,4.068l-21.321,4.587l-21.129,5.066l-20.899,5.546l-20.63,6.045l-20.362,6.506l-20.093,6.986l-19.747,7.426l-19.44,7.907l-19.076,8.348l-18.692,8.77l-18.327,9.212l-17.905,9.634l-17.464,10.037l-17.042,10.439l-16.561,10.824l-16.101,11.208l-15.583,11.572l-15.104,11.936l-14.546,12.283l-14.029,12.589l-13.453,12.934l-12.896,13.223l-12.32,13.529l-11.726,13.799l-11.112,14.067l-10.497,14.316l-9.883,14.547l-9.231,14.777l-8.598,14.969l-7.925,15.18l-7.274,15.352l-6.601,15.506l-5.93,15.641l-5.24,15.794l-4.548,15.89l-3.876,16.005l-3.148,16.063l-2.475,16.14l-1.766,16.197l-1.055,16.216l-0.346,16.235" style="fill:none;fill-rule:nonzero;stroke:#333;stroke-opacity:0.25;stroke-width:8.55px;"/><path d="M2879.24,894.301l-0.403,18.941l-1.228,18.923l-2.054,18.883l-2.878,18.827l-3.704,18.768l-4.491,18.654l-5.316,18.538l-6.122,18.424l-6.908,18.269l-7.696,18.078l-8.482,17.905l-9.269,17.713l-10.018,17.464l-10.766,17.233l-11.534,16.984l-12.244,16.696l-12.973,16.409l-13.664,16.101l-14.373,15.775l-15.046,15.448l-15.717,15.065l-16.351,14.72l-16.984,14.316l-17.598,13.913l-18.193,13.511l-18.788,13.069l-19.325,12.627l-19.863,12.186l-20.4,11.707l-20.879,11.246l-21.379,10.747l-21.82,10.228l-22.242,9.73l-22.684,9.231l-23.048,8.674l-23.413,8.137l-23.777,7.6l-24.085,7.043l-24.372,6.486l-24.641,5.911l-24.891,5.335l-25.102,4.759l-25.312,4.165l-25.467,3.589l-25.6,2.993l-25.735,2.399l-25.831,1.804l-25.889,1.209l-25.926,0.595l-25.927,0l-25.927,-0.595l-25.889,-1.209l-25.831,-1.804l-25.735,-2.399l-25.6,-2.993l-25.466,-3.589l-25.313,-4.165l-25.102,-4.759l-24.89,-5.335l-24.642,-5.911l-24.372,-6.486l-24.084,-7.043l-23.759,-7.6l-23.432,-8.137l-23.048,-8.674l-22.664,-9.231l-22.262,-9.73l-21.82,-10.228l-21.379,-10.747l-20.879,-11.246l-20.381,-11.707l-19.882,-12.186l-19.325,-12.627l-18.769,-13.069l-18.212,-13.511l-17.598,-13.913l-16.984,-14.316l-16.35,-14.72l-15.718,-15.065l-15.045,-15.448l-14.355,-15.775l-13.683,-16.101l-12.973,-16.409l-12.244,-16.696l-11.514,-16.984l-10.786,-17.233l-10.017,-17.464l-9.27,-17.713l-8.482,-17.905l-7.695,-18.078l-6.909,-18.269l-6.122,-18.424l-5.316,-18.538l-4.491,-18.654l-3.703,-18.768l-2.879,-18.827l-2.053,-18.883l-1.229,-18.923l-0.403,-18.941" style="fill:none;fill-rule:nonzero;stroke:#333;stroke-opacity:0.25;stroke-width:10.2px;"/><path d="M2879.24,798.192l-0.461,-21.647l-1.42,-21.628l-2.341,-21.59l-3.282,-21.513l-4.222,-21.436l-5.143,-21.321l-6.083,-21.206l-6.986,-21.033l-7.887,-20.88l-8.809,-20.668l-9.691,-20.477l-10.594,-20.227l-11.437,-19.959l-12.321,-19.709l-13.165,-19.402l-14.009,-19.075l-14.816,-18.769l-15.621,-18.385l-16.427,-18.039l-17.195,-17.637l-17.963,-17.233l-18.692,-16.811l-19.402,-16.351l-20.112,-15.909l-20.803,-15.449l-21.455,-14.93l-22.089,-14.451l-22.722,-13.913l-23.298,-13.376l-23.873,-12.839l-24.411,-12.282l-24.948,-11.707l-25.428,-11.13l-25.908,-10.536l-26.349,-9.922l-26.771,-9.308l-27.155,-8.674l-27.52,-8.041l-27.865,-7.407l-28.153,-6.756l-28.441,-6.102l-28.709,-5.451l-28.902,-4.759l-29.112,-4.107l-29.286,-3.416l-29.4,-2.744l-29.516,-2.053l-29.573,-1.382l-29.63,-0.672l-29.65,0l-29.631,0.672l-29.592,1.382l-29.497,2.053l-29.419,2.744l-29.266,3.416l-29.113,4.107l-28.921,4.759l-28.69,5.451l-28.441,6.102l-28.172,6.756l-27.846,7.407l-27.52,8.041l-27.155,8.674l-26.771,9.308l-26.349,9.922l-25.908,10.536l-25.447,11.13l-24.929,11.707l-24.411,12.282l-23.873,12.839l-23.317,13.376l-22.703,13.913l-22.088,14.451l-21.456,14.93l-20.803,15.449l-20.112,15.909l-19.402,16.351l-18.711,16.811l-17.943,17.233l-17.195,17.637l-16.428,18.039l-15.621,18.385l-14.835,18.769l-13.99,19.075l-13.165,19.402l-12.32,19.709l-11.457,19.959l-10.574,20.227l-9.692,20.477l-8.808,20.668l-7.888,20.88l-7.005,21.033l-6.064,21.206l-5.143,21.321l-4.222,21.436l-3.282,21.513l-2.36,21.59l-1.401,21.628l-0.48,21.647" style="fill:none;fill-rule:nonzero;stroke:#333;stroke-opacity:0.25;stroke-width:5.79px;"/><path d="M2879.24,894.301l-0.518,24.353l-1.593,24.334l-2.629,24.277l-3.704,24.219l-4.74,24.103l-5.796,23.989l-6.832,23.854l-7.868,23.682l-8.885,23.47l-9.903,23.26l-10.9,23.029l-11.918,22.76l-12.877,22.472l-13.856,22.147l-14.815,21.839l-15.737,21.475l-16.676,21.09l-17.579,20.707l-18.481,20.266l-19.344,19.843l-20.208,19.402l-21.014,18.903l-21.84,18.404l-22.645,17.905l-23.394,17.349l-24.123,16.811l-24.852,16.255l-25.562,15.659l-26.215,15.046l-26.848,14.451l-27.481,13.817l-28.057,13.165l-28.614,12.513l-29.131,11.86l-29.65,11.15l-30.111,10.478l-30.552,9.768l-30.955,9.058l-31.338,8.329l-31.704,7.599l-31.991,6.852l-32.279,6.121l-32.528,5.374l-32.759,4.606l-32.932,3.857l-33.085,3.071l-33.2,2.322l-33.277,1.554l-33.335,0.768l-33.353,-0l-33.335,-0.768l-33.277,-1.554l-33.2,-2.322l-33.085,-3.071l-32.932,-3.857l-32.739,-4.606l-32.529,-5.374l-32.298,-6.121l-31.991,-6.852l-31.684,-7.599l-31.339,-8.329l-30.955,-9.058l-30.552,-9.768l-30.129,-10.478l-29.631,-11.15l-29.151,-11.86l-28.614,-12.513l-28.057,-13.165l-27.462,-13.817l-26.867,-14.451l-26.215,-15.046l-25.543,-15.659l-24.852,-16.255l-24.142,-16.811l-23.394,-17.349l-22.626,-17.905l-21.839,-18.404l-21.033,-18.903l-20.189,-19.402l-19.344,-19.843l-18.481,-20.266l-17.579,-20.707l-16.677,-21.09l-15.756,-21.475l-14.815,-21.839l-13.856,-22.147l-12.877,-22.472l-11.898,-22.76l-10.92,-23.029l-9.902,-23.26l-8.886,-23.47l-7.849,-23.682l-6.832,-23.854l-5.795,-23.989l-4.741,-24.103l-3.703,-24.219l-2.649,-24.277l-1.573,-24.334l-0.538,-24.353" style="fill:none;fill-rule:nonzero;stroke:#333;stroke-opacity:0.25;stroke-width:6.44px;"/><path d="M2645.69,798.192l-0.058,-2.705l-0.172,-2.706l-0.288,-2.687l-0.422,-2.687l-0.518,-2.687l-0.653,-2.667l-0.748,-2.648l-0.883,-2.63l-0.979,-2.609l-1.113,-2.591l-1.209,-2.553l-1.324,-2.533l-1.42,-2.495l-1.536,-2.456l-1.65,-2.418l-1.746,-2.399l-1.862,-2.341l-1.957,-2.303l-2.054,-2.246l-2.149,-2.206l-2.245,-2.15l-2.323,-2.111l-2.437,-2.034l-2.514,-1.996l-2.591,-1.919l-2.686,-1.881l-2.764,-1.804l-2.84,-1.746l-2.917,-1.67l-2.975,-1.592l-3.051,-1.536l-3.128,-1.477l-3.167,-1.382l-3.243,-1.324l-3.301,-1.229l-3.339,-1.17l-3.397,-1.075l-3.435,-1.017l-3.493,-0.921l-3.512,-0.845l-3.55,-0.767l-3.589,-0.672l-3.627,-0.595l-3.627,-0.518l-3.665,-0.422l-3.666,-0.346l-3.703,-0.268l-3.685,-0.154l-3.704,-0.096l-3.704,0l-3.704,0.096l-3.703,0.154l-3.685,0.268l-3.685,0.346l-3.665,0.422l-3.627,0.518l-3.627,0.595l-3.57,0.672l-3.569,0.767l-3.512,0.845l-3.493,0.921l-3.435,1.017l-3.397,1.075l-3.339,1.17l-3.301,1.229l-3.224,1.324l-3.186,1.382l-3.128,1.477l-3.051,1.536l-2.975,1.592l-2.917,1.67l-2.84,1.746l-2.764,1.804l-2.667,1.881l-2.61,1.919l-2.514,1.996l-2.418,2.034l-2.341,2.111l-2.246,2.15l-2.149,2.206l-2.053,2.246l-1.958,2.303l-1.842,2.341l-1.766,2.399l-1.631,2.418l-1.555,2.456l-1.42,2.495l-1.324,2.533l-1.209,2.553l-1.113,2.591l-0.979,2.609l-0.882,2.63l-0.749,2.648l-0.652,2.667l-0.519,2.687l-0.422,2.687l-0.288,2.687l-0.172,2.706l-0.058,2.705" style="fill:none;fill-rule:nonzero;stroke:#333;stroke-opacity:0.25;stroke-width:36.75px;"/><path d="M2645.69,894.301l-0.115,5.412l-0.346,5.393l-0.594,5.411l-0.826,5.374l-1.055,5.354l-1.286,5.335l-1.516,5.297l-1.746,5.258l-1.977,5.22l-2.188,5.182l-2.437,5.104l-2.648,5.067l-2.86,4.989l-3.07,4.913l-3.301,4.855l-3.493,4.779l-3.704,4.683l-3.915,4.605l-4.107,4.51l-4.298,4.395l-4.491,4.318l-4.663,4.203l-4.856,4.087l-5.028,3.973l-5.2,3.857l-5.355,3.742l-5.527,3.608l-5.68,3.474l-5.834,3.358l-5.969,3.205l-6.102,3.071l-6.237,2.936l-6.352,2.763l-6.468,2.649l-6.601,2.475l-6.679,2.322l-6.793,2.169l-6.89,2.015l-6.966,1.862l-7.024,1.688l-7.12,1.516l-7.177,1.363l-7.235,1.19l-7.274,1.017l-7.311,0.864l-7.35,0.69l-7.389,0.499l-7.388,0.346l-7.408,0.173l-7.408,-0l-7.407,-0.173l-7.408,-0.346l-7.369,-0.499l-7.35,-0.69l-7.312,-0.864l-7.293,-1.017l-7.215,-1.19l-7.178,-1.363l-7.12,-1.516l-7.043,-1.688l-6.947,-1.862l-6.889,-2.015l-6.794,-2.169l-6.678,-2.322l-6.602,-2.475l-6.467,-2.649l-6.372,-2.763l-6.218,-2.936l-6.121,-3.071l-5.95,-3.205l-5.834,-3.358l-5.68,-3.474l-5.527,-3.608l-5.354,-3.742l-5.201,-3.857l-5.028,-3.973l-4.855,-4.087l-4.683,-4.203l-4.471,-4.318l-4.299,-4.395l-4.107,-4.51l-3.915,-4.605l-3.704,-4.683l-3.493,-4.779l-3.3,-4.855l-3.071,-4.913l-2.879,-4.989l-2.629,-5.067l-2.437,-5.104l-2.188,-5.182l-1.976,-5.22l-1.747,-5.258l-1.516,-5.297l-1.286,-5.335l-1.055,-5.354l-0.825,-5.374l-0.595,-5.411l-0.346,-5.393l-0.115,-5.412" style="fill:none;fill-rule:nonzero;stroke:#333;stroke-opacity:0.25;stroke-width:39.75px;"/><path d="M2645.69,798.192l-0.173,-8.117l-0.537,-8.099l-0.864,-8.098l-1.247,-8.08l-1.574,-8.041l-1.938,-7.983l-2.264,-7.945l-2.63,-7.907l-2.955,-7.81l-3.301,-7.754l-3.646,-7.676l-3.953,-7.599l-4.299,-7.485l-4.625,-7.388l-4.932,-7.274l-5.259,-7.158l-5.546,-7.024l-5.872,-6.909l-6.16,-6.755l-6.449,-6.621l-6.716,-6.467l-7.024,-6.294l-7.274,-6.142l-7.542,-5.968l-7.791,-5.776l-8.06,-5.604l-8.271,-5.412l-8.521,-5.22l-8.751,-5.028l-8.943,-4.817l-9.154,-4.606l-9.346,-4.375l-9.538,-4.184l-9.73,-3.953l-9.883,-3.704l-10.037,-3.493l-10.171,-3.262l-10.325,-3.013l-10.44,-2.783l-10.574,-2.533l-10.67,-2.284l-10.747,-2.034l-10.843,-1.804l-10.919,-1.535l-10.977,-1.286l-11.035,-1.017l-11.054,-0.768l-11.112,-0.518l-11.111,-0.268l-11.112,-0l-11.111,0.268l-11.093,0.518l-11.073,0.768l-11.015,1.017l-10.977,1.286l-10.92,1.535l-10.843,1.804l-10.766,2.034l-10.67,2.284l-10.555,2.533l-10.44,2.783l-10.325,3.013l-10.19,3.262l-10.037,3.493l-9.883,3.704l-9.711,3.953l-9.537,4.184l-9.346,4.375l-9.154,4.606l-8.963,4.817l-8.731,5.028l-8.521,5.22l-8.291,5.412l-8.041,5.604l-7.791,5.776l-7.542,5.968l-7.293,6.142l-7.004,6.294l-6.736,6.467l-6.449,6.621l-6.16,6.755l-5.853,6.909l-5.565,7.024l-5.239,7.158l-4.933,7.274l-4.625,7.388l-4.298,7.485l-3.973,7.599l-3.627,7.676l-3.301,7.754l-2.955,7.81l-2.629,7.907l-2.284,7.945l-1.919,7.983l-1.593,8.041l-1.228,8.08l-0.883,8.098l-0.518,8.099l-0.192,8.117" style="fill:none;fill-rule:nonzero;stroke:#333;stroke-opacity:0.25;stroke-width:7.29px;"/><path d="M2645.69,894.301l-0.23,10.824l-0.71,10.804l-1.171,10.805l-1.65,10.747l-2.111,10.727l-2.572,10.651l-3.032,10.613l-3.493,10.516l-3.953,10.44l-4.395,10.325l-4.855,10.248l-5.278,10.113l-5.738,9.98l-6.16,9.845l-6.582,9.71l-6.986,9.538l-7.427,9.384l-7.81,9.193l-8.214,9.019l-8.598,8.809l-8.962,8.617l-9.346,8.405l-9.71,8.195l-10.056,7.945l-10.402,7.715l-10.728,7.465l-11.053,7.235l-11.342,6.947l-11.649,6.698l-11.937,6.428l-12.224,6.122l-12.455,5.854l-12.724,5.565l-12.954,5.277l-13.184,4.952l-13.376,4.663l-13.568,4.337l-13.779,4.011l-13.913,3.704l-14.086,3.378l-14.221,3.051l-14.355,2.725l-14.45,2.38l-14.566,2.053l-14.624,1.708l-14.7,1.382l-14.758,1.017l-14.796,0.691l-14.815,0.345l-14.835,0l-14.796,-0.345l-14.796,-0.691l-14.758,-1.017l-14.7,-1.382l-14.643,-1.708l-14.546,-2.053l-14.47,-2.38l-14.336,-2.725l-14.239,-3.051l-14.067,-3.378l-13.933,-3.704l-13.76,-4.011l-13.587,-4.337l-13.376,-4.663l-13.184,-4.952l-12.954,-5.277l-12.704,-5.565l-12.474,-5.854l-12.206,-6.122l-11.936,-6.428l-11.649,-6.698l-11.361,-6.947l-11.054,-7.235l-10.728,-7.465l-10.382,-7.715l-10.056,-7.945l-9.711,-8.195l-9.346,-8.405l-8.981,-8.617l-8.598,-8.809l-8.213,-9.019l-7.811,-9.193l-7.408,-9.384l-7.004,-9.538l-6.583,-9.71l-6.16,-9.845l-5.719,-9.98l-5.297,-10.113l-4.855,-10.248l-4.395,-10.325l-3.953,-10.44l-3.493,-10.516l-3.032,-10.613l-2.571,-10.651l-2.111,-10.727l-1.651,-10.747l-1.17,-10.805l-0.711,-10.804l-0.23,-10.824" style="fill:none;fill-rule:nonzero;stroke:#333;stroke-opacity:0.25;stroke-width:12.02px;"/><path d="M2645.69,798.192l-0.288,-13.529l-0.883,-13.51l-1.477,-13.492l-2.054,-13.452l-2.629,-13.396l-3.224,-13.337l-3.781,-13.242l-4.375,-13.146l-4.932,-13.05l-5.508,-12.915l-6.064,-12.8l-6.602,-12.647l-7.158,-12.474l-7.696,-12.321l-8.232,-12.128l-8.752,-11.918l-9.269,-11.726l-9.768,-11.495l-10.267,-11.265l-10.747,-11.035l-11.207,-10.766l-11.688,-10.497l-12.128,-10.229l-12.57,-9.941l-13.012,-9.653l-13.395,-9.346l-13.817,-9.019l-14.182,-8.694l-14.566,-8.367l-14.931,-8.022l-15.256,-7.676l-15.583,-7.312l-15.91,-6.966l-16.178,-6.583l-16.465,-6.198l-16.735,-5.815l-16.984,-5.431l-17.195,-5.028l-17.406,-4.625l-17.598,-4.222l-17.79,-3.819l-17.924,-3.397l-18.078,-2.975l-18.193,-2.571l-18.289,-2.13l-18.385,-1.708l-18.442,-1.286l-18.5,-0.864l-18.519,-0.422l-18.519,0l-18.52,0.422l-18.5,0.864l-18.442,1.286l-18.366,1.708l-18.308,2.13l-18.193,2.571l-18.078,2.975l-17.924,3.397l-17.771,3.819l-17.617,4.222l-17.406,4.625l-17.195,5.028l-16.984,5.431l-16.715,5.815l-16.485,6.198l-16.178,6.583l-15.909,6.966l-15.583,7.312l-15.257,7.676l-14.93,8.022l-14.547,8.367l-14.201,8.694l-13.818,9.019l-13.395,9.346l-13.011,9.653l-12.571,9.941l-12.128,10.229l-11.687,10.497l-11.208,10.766l-10.747,11.035l-10.267,11.265l-9.768,11.495l-9.269,11.726l-8.751,11.918l-8.233,12.128l-7.696,12.321l-7.158,12.474l-6.602,12.647l-6.064,12.8l-5.508,12.915l-4.932,13.05l-4.375,13.146l-3.781,13.242l-3.224,13.337l-2.629,13.396l-2.053,13.452l-1.478,13.492l-0.883,13.51l-0.288,13.529" style="fill:none;fill-rule:nonzero;stroke:#333;stroke-opacity:0.25;stroke-width:7.71px;"/><path d="M2645.69,894.301l-0.345,16.236l-1.056,16.216l-1.765,16.197l-2.476,16.139l-3.147,16.063l-3.877,16.005l-4.548,15.89l-5.239,15.795l-5.93,15.64l-6.602,15.506l-7.273,15.353l-7.926,15.18l-8.598,14.969l-9.23,14.777l-9.865,14.547l-10.516,14.316l-11.112,14.067l-11.725,13.798l-12.302,13.53l-12.915,13.222l-13.453,12.935l-14.028,12.589l-14.547,12.282l-15.084,11.937l-15.602,11.572l-16.101,11.207l-16.562,10.824l-17.042,10.44l-17.463,10.037l-17.905,9.634l-18.328,9.211l-18.692,8.77l-19.075,8.348l-19.441,7.907l-19.747,7.427l-20.074,6.985l-20.38,6.506l-20.631,6.045l-20.899,5.546l-21.129,5.067l-21.321,4.586l-21.532,4.069l-21.686,3.589l-21.839,3.07l-21.954,2.572l-22.05,2.053l-22.128,1.535l-22.184,1.037l-22.223,0.518l-22.242,-0l-22.223,-0.518l-22.185,-1.037l-22.127,-1.535l-22.07,-2.053l-21.954,-2.572l-21.82,-3.07l-21.686,-3.589l-21.532,-4.069l-21.321,-4.586l-21.129,-5.067l-20.899,-5.546l-20.63,-6.045l-20.381,-6.506l-20.074,-6.985l-19.766,-7.427l-19.421,-7.907l-19.076,-8.348l-18.711,-8.77l-18.308,-9.211l-17.905,-9.634l-17.483,-10.037l-17.023,-10.44l-16.58,-10.824l-16.082,-11.207l-15.603,-11.572l-15.084,-11.937l-14.565,-12.282l-14.01,-12.589l-13.472,-12.935l-12.896,-13.222l-12.301,-13.53l-11.726,-13.798l-11.131,-14.067l-10.497,-14.316l-9.864,-14.547l-9.231,-14.777l-8.598,-14.969l-7.945,-15.18l-7.254,-15.353l-6.601,-15.506l-5.93,-15.64l-5.239,-15.795l-4.568,-15.89l-3.857,-16.005l-3.167,-16.063l-2.456,-16.139l-1.766,-16.197l-1.055,-16.216l-0.346,-16.236" style="fill:none;fill-rule:nonzero;stroke:#333;stroke-opacity:0.25;stroke-width:9.58px;"/><path d="M2645.69,798.192l-0.403,-18.941l-1.247,-18.922l-2.054,-18.884l-2.859,-18.826l-3.704,-18.769l-4.51,-18.653l-5.297,-18.539l-6.121,-18.423l-6.909,-18.27l-7.715,-18.078l-8.482,-17.905l-9.25,-17.713l-10.018,-17.463l-10.785,-17.234l-11.515,-16.984l-12.244,-16.696l-12.973,-16.408l-13.683,-16.101l-14.354,-15.775l-15.046,-15.449l-15.717,-15.065l-16.351,-14.719l-16.984,-14.316l-17.617,-13.914l-18.193,-13.51l-18.769,-13.069l-19.325,-12.628l-19.882,-12.186l-20.38,-11.706l-20.899,-11.246l-21.36,-10.747l-21.82,-10.229l-22.261,-9.73l-22.665,-9.23l-23.048,-8.675l-23.432,-8.137l-23.758,-7.599l-24.085,-7.043l-24.372,-6.487l-24.641,-5.911l-24.891,-5.335l-25.101,-4.759l-25.313,-4.164l-25.466,-3.589l-25.62,-2.994l-25.716,-2.399l-25.831,-1.804l-25.888,-1.209l-25.927,-0.595l-25.946,0l-25.927,0.595l-25.87,1.209l-25.83,1.804l-25.735,2.399l-25.601,2.994l-25.486,3.589l-25.293,4.164l-25.102,4.759l-24.89,5.335l-24.661,5.911l-24.372,6.487l-24.065,7.043l-23.778,7.599l-23.413,8.137l-23.067,8.675l-22.665,9.23l-22.242,9.73l-21.82,10.229l-21.378,10.747l-20.88,11.246l-20.4,11.706l-19.863,12.186l-19.325,12.628l-18.788,13.069l-18.193,13.51l-17.598,13.914l-16.984,14.316l-16.35,14.719l-15.718,15.065l-15.045,15.449l-14.374,15.775l-13.664,16.101l-12.973,16.408l-12.263,16.696l-11.515,16.984l-10.766,17.234l-10.017,17.463l-9.269,17.713l-8.483,17.905l-7.695,18.078l-6.909,18.27l-6.122,18.423l-5.316,18.539l-4.51,18.653l-3.684,18.769l-2.879,18.826l-2.053,18.884l-1.229,18.922l-0.422,18.941" style="fill:none;fill-rule:nonzero;stroke:#333;stroke-opacity:0.25;stroke-width:7.29px;"/><path d="M2645.69,894.301l-0.461,21.647l-1.42,21.628l-2.341,21.59l-3.282,21.513l-4.222,21.436l-5.162,21.321l-6.064,21.206l-6.986,21.034l-7.906,20.879l-8.79,20.669l-9.71,20.476l-10.575,20.228l-11.456,19.958l-12.302,19.709l-13.165,19.402l-14.009,19.076l-14.815,18.769l-15.641,18.384l-16.408,18.04l-17.195,17.636l-17.963,17.234l-18.692,16.811l-19.421,16.35l-20.112,15.91l-20.784,15.448l-21.455,14.931l-22.108,14.451l-22.703,13.913l-23.298,13.376l-23.873,12.839l-24.411,12.282l-24.948,11.706l-25.428,11.131l-25.907,10.536l-26.35,9.921l-26.771,9.308l-27.155,8.674l-27.52,8.041l-27.865,7.408l-28.153,6.755l-28.46,6.103l-28.69,5.45l-28.921,4.759l-29.093,4.107l-29.285,3.416l-29.401,2.745l-29.515,2.053l-29.593,1.382l-29.611,0.671l-29.65,0l-29.631,-0.671l-29.592,-1.382l-29.516,-2.053l-29.4,-2.745l-29.266,-3.416l-29.113,-4.107l-28.92,-4.759l-28.691,-5.45l-28.441,-6.103l-28.172,-6.755l-27.846,-7.408l-27.539,-8.041l-27.155,-8.674l-26.771,-9.308l-26.349,-9.921l-25.889,-10.536l-25.447,-11.131l-24.929,-11.706l-24.43,-12.282l-23.873,-12.839l-23.298,-13.376l-22.703,-13.913l-22.088,-14.451l-21.456,-14.931l-20.803,-15.448l-20.112,-15.91l-19.421,-16.35l-18.692,-16.811l-17.943,-17.234l-17.195,-17.636l-16.428,-18.04l-15.621,-18.384l-14.835,-18.769l-13.99,-19.076l-13.165,-19.402l-12.32,-19.709l-11.457,-19.958l-10.574,-20.228l-9.692,-20.476l-8.808,-20.669l-7.907,-20.879l-6.985,-21.034l-6.065,-21.206l-5.143,-21.321l-4.222,-21.436l-3.301,-21.513l-2.341,-21.59l-1.401,-21.628l-0.48,-21.647" style="fill:none;fill-rule:nonzero;stroke:#333;stroke-opacity:0.25;stroke-width:7.08px;"/><path d="M2412.14,894.301l-0.057,2.706l-0.173,2.706l-0.307,2.687l-0.403,2.686l-0.518,2.687l-0.653,2.668l-0.768,2.648l-0.863,2.629l-0.998,2.61l-1.094,2.591l-1.209,2.552l-1.324,2.533l-1.439,2.495l-1.536,2.457l-1.65,2.418l-1.746,2.399l-1.843,2.341l-1.957,2.303l-2.054,2.245l-2.149,2.207l-2.245,2.149l-2.342,2.111l-2.418,2.035l-2.514,1.995l-2.61,1.92l-2.667,1.88l-2.764,1.804l-2.84,1.747l-2.917,1.669l-2.975,1.593l-3.07,1.535l-3.109,1.478l-3.186,1.382l-3.224,1.324l-3.301,1.228l-3.339,1.171l-3.397,1.074l-3.435,1.018l-3.493,0.921l-3.511,0.844l-3.57,0.768l-3.589,0.671l-3.608,0.595l-3.646,0.519l-3.646,0.422l-3.685,0.345l-3.684,0.269l-3.704,0.153l-3.704,0.096l-3.704,0l-3.704,-0.096l-3.684,-0.153l-3.704,-0.269l-3.666,-0.345l-3.665,-0.422l-3.627,-0.519l-3.627,-0.595l-3.589,-0.671l-3.55,-0.768l-3.512,-0.844l-3.493,-0.921l-3.435,-1.018l-3.397,-1.074l-3.339,-1.171l-3.301,-1.228l-3.243,-1.324l-3.167,-1.382l-3.128,-1.478l-3.051,-1.535l-2.975,-1.593l-2.917,-1.669l-2.84,-1.747l-2.763,-1.804l-2.687,-1.88l-2.591,-1.92l-2.514,-1.995l-2.437,-2.035l-2.322,-2.111l-2.246,-2.149l-2.149,-2.207l-2.053,-2.245l-1.958,-2.303l-1.861,-2.341l-1.747,-2.399l-1.65,-2.418l-1.535,-2.457l-1.421,-2.495l-1.324,-2.533l-1.228,-2.552l-1.094,-2.591l-0.979,-2.61l-0.882,-2.629l-0.749,-2.648l-0.652,-2.668l-0.518,-2.687l-0.423,-2.686l-0.288,-2.687l-0.172,-2.706l-0.058,-2.706" style="fill:none;fill-rule:nonzero;stroke:#333;stroke-opacity:0.25;stroke-width:34.62px;"/><path d="M2412.14,798.192l-0.115,-5.411l-0.365,-5.393l-0.575,-5.412l-0.826,-5.373l-1.055,-5.355l-1.286,-5.335l-1.516,-5.296l-1.746,-5.259l-1.977,-5.219l-2.207,-5.182l-2.418,-5.105l-2.648,-5.066l-2.86,-4.99l-3.07,-4.913l-3.301,-4.855l-3.493,-4.778l-3.704,-4.683l-3.915,-4.606l-4.106,-4.51l-4.299,-4.394l-4.491,-4.318l-4.663,-4.203l-4.856,-4.088l-5.028,-3.972l-5.2,-3.858l-5.374,-3.742l-5.508,-3.608l-5.68,-3.473l-5.834,-3.359l-5.968,-3.205l-6.103,-3.07l-6.237,-2.936l-6.352,-2.764l-6.487,-2.648l-6.582,-2.476l-6.698,-2.322l-6.774,-2.168l-6.89,-2.016l-6.966,-1.861l-7.043,-1.689l-7.101,-1.516l-7.177,-1.362l-7.235,-1.19l-7.273,-1.017l-7.312,-0.864l-7.35,-0.691l-7.389,-0.499l-7.388,-0.345l-7.408,-0.173l-7.408,-0l-7.407,0.173l-7.408,0.345l-7.369,0.499l-7.35,0.691l-7.331,0.864l-7.274,1.017l-7.235,1.19l-7.158,1.362l-7.12,1.516l-7.043,1.689l-6.966,1.861l-6.87,2.016l-6.794,2.168l-6.697,2.322l-6.583,2.476l-6.467,2.648l-6.372,2.764l-6.237,2.936l-6.102,3.07l-5.969,3.205l-5.815,3.359l-5.68,3.473l-5.527,3.608l-5.354,3.742l-5.201,3.858l-5.028,3.972l-4.855,4.088l-4.683,4.203l-4.491,4.318l-4.298,4.394l-4.107,4.51l-3.896,4.606l-3.704,4.683l-3.512,4.778l-3.281,4.855l-3.09,4.913l-2.859,4.99l-2.649,5.066l-2.418,5.105l-2.207,5.182l-1.976,5.219l-1.747,5.259l-1.516,5.296l-1.286,5.335l-1.055,5.355l-0.806,5.373l-0.595,5.412l-0.346,5.393l-0.134,5.411" style="fill:none;fill-rule:nonzero;stroke:#333;stroke-opacity:0.25;stroke-width:7.08px;"/><path d="M2412.14,894.301l-0.173,8.118l-0.537,8.098l-0.883,8.099l-1.228,8.079l-1.574,8.041l-1.938,7.984l-2.284,7.945l-2.61,7.906l-2.974,7.811l-3.301,7.753l-3.627,7.676l-3.973,7.6l-4.298,7.484l-4.606,7.389l-4.932,7.273l-5.258,7.158l-5.566,7.024l-5.853,6.909l-6.16,6.755l-6.448,6.621l-6.736,6.467l-7.005,6.295l-7.273,6.141l-7.542,5.968l-7.811,5.777l-8.041,5.604l-8.291,5.411l-8.501,5.22l-8.751,5.028l-8.943,4.817l-9.154,4.606l-9.365,4.376l-9.538,4.183l-9.711,3.954l-9.883,3.703l-10.037,3.493l-10.19,3.263l-10.306,3.013l-10.459,2.782l-10.555,2.533l-10.67,2.284l-10.766,2.034l-10.843,1.804l-10.9,1.536l-10.977,1.285l-11.035,1.018l-11.073,0.767l-11.093,0.518l-11.111,0.269l-11.112,-0l-11.111,-0.269l-11.092,-0.518l-11.074,-0.767l-11.015,-1.018l-10.977,-1.285l-10.92,-1.536l-10.843,-1.804l-10.766,-2.034l-10.67,-2.284l-10.555,-2.533l-10.459,-2.782l-10.305,-3.013l-10.191,-3.263l-10.037,-3.493l-9.883,-3.703l-9.711,-3.954l-9.537,-4.183l-9.366,-4.376l-9.154,-4.606l-8.943,-4.817l-8.731,-5.028l-8.521,-5.22l-8.291,-5.411l-8.041,-5.604l-7.81,-5.777l-7.542,-5.968l-7.274,-6.141l-7.004,-6.295l-6.736,-6.467l-6.448,-6.621l-6.161,-6.755l-5.853,-6.909l-5.565,-7.024l-5.259,-7.158l-4.932,-7.273l-4.605,-7.389l-4.299,-7.484l-3.973,-7.6l-3.627,-7.676l-3.301,-7.753l-2.974,-7.811l-2.61,-7.906l-2.284,-7.945l-1.938,-7.984l-1.574,-8.041l-1.228,-8.079l-0.883,-8.099l-0.537,-8.098l-0.173,-8.118" style="fill:none;fill-rule:nonzero;stroke:#333;stroke-opacity:0.25;stroke-width:10.2px;"/><path d="M2412.14,798.192l-0.23,-10.823l-0.71,-10.805l-1.171,-10.804l-1.65,-10.747l-2.111,-10.728l-2.572,-10.651l-3.032,-10.612l-3.493,-10.517l-3.953,-10.44l-4.395,-10.324l-4.855,-10.248l-5.297,-10.114l-5.719,-9.979l-6.16,-9.845l-6.582,-9.711l-7.005,-9.537l-7.408,-9.385l-7.81,-9.192l-8.214,-9.02l-8.598,-8.809l-8.981,-8.616l-9.346,-8.406l-9.691,-8.194l-10.075,-7.945l-10.383,-7.715l-10.727,-7.465l-11.054,-7.235l-11.361,-6.947l-11.649,-6.698l-11.937,-6.429l-12.205,-6.122l-12.474,-5.853l-12.705,-5.565l-12.954,-5.278l-13.184,-4.951l-13.376,-4.664l-13.587,-4.337l-13.76,-4.011l-13.932,-3.703l-14.067,-3.378l-14.221,-3.051l-14.355,-2.725l-14.45,-2.38l-14.566,-2.054l-14.643,-1.708l-14.7,-1.381l-14.758,-1.017l-14.777,-0.691l-14.815,-0.346l-14.835,0l-14.815,0.346l-14.796,0.691l-14.739,1.017l-14.719,1.381l-14.624,1.708l-14.565,2.054l-14.451,2.38l-14.355,2.725l-14.22,3.051l-14.086,3.378l-13.914,3.703l-13.76,4.011l-13.587,4.337l-13.376,4.664l-13.184,4.951l-12.954,5.278l-12.723,5.565l-12.455,5.853l-12.225,6.122l-11.917,6.429l-11.668,6.698l-11.342,6.947l-11.054,7.235l-10.728,7.465l-10.401,7.715l-10.056,7.945l-9.711,8.194l-9.346,8.406l-8.962,8.616l-8.598,8.809l-8.213,9.02l-7.811,9.192l-7.427,9.385l-6.985,9.537l-6.583,9.711l-6.16,9.845l-5.738,9.979l-5.278,10.114l-4.855,10.248l-4.395,10.324l-3.953,10.44l-3.493,10.517l-3.032,10.612l-2.571,10.651l-2.111,10.728l-1.651,10.747l-1.17,10.804l-0.71,10.805l-0.231,10.823" style="fill:none;fill-rule:nonzero;stroke:#333;stroke-opacity:0.25;stroke-width:7.92px;"/><path d="M2412.14,894.301l-0.288,13.53l-0.883,13.51l-1.477,13.491l-2.054,13.453l-2.629,13.395l-3.224,13.338l-3.8,13.242l-4.356,13.145l-4.951,13.05l-5.489,12.916l-6.064,12.8l-6.621,12.647l-7.158,12.474l-7.696,12.32l-8.213,12.129l-8.751,11.917l-9.27,11.726l-9.768,11.495l-10.267,11.265l-10.747,11.035l-11.226,10.766l-11.669,10.498l-12.147,10.228l-12.57,9.941l-12.993,9.653l-13.414,9.346l-13.798,9.02l-14.201,8.693l-14.566,8.368l-14.912,8.021l-15.256,7.677l-15.603,7.312l-15.89,6.966l-16.197,6.582l-16.465,6.199l-16.716,5.815l-16.984,5.431l-17.195,5.028l-17.406,4.625l-17.617,4.222l-17.771,3.819l-17.943,3.397l-18.059,2.974l-18.193,2.572l-18.308,2.13l-18.366,1.708l-18.461,1.286l-18.481,0.863l-18.519,0.422l-18.519,0l-18.52,-0.422l-18.5,-0.863l-18.442,-1.286l-18.385,-1.708l-18.289,-2.13l-18.193,-2.572l-18.078,-2.974l-17.924,-3.397l-17.79,-3.819l-17.598,-4.222l-17.406,-4.625l-17.214,-5.028l-16.965,-5.431l-16.734,-5.815l-16.466,-6.199l-16.197,-6.582l-15.89,-6.966l-15.583,-7.312l-15.257,-7.677l-14.93,-8.021l-14.566,-8.368l-14.182,-8.693l-13.818,-9.02l-13.414,-9.346l-12.992,-9.653l-12.57,-9.941l-12.129,-10.228l-11.687,-10.498l-11.227,-10.766l-10.747,-11.035l-10.248,-11.265l-9.768,-11.495l-9.269,-11.726l-8.751,-11.917l-8.233,-12.129l-7.696,-12.32l-7.158,-12.474l-6.621,-12.647l-6.045,-12.8l-5.508,-12.916l-4.932,-13.05l-4.375,-13.145l-3.8,-13.242l-3.205,-13.338l-2.648,-13.395l-2.054,-13.453l-1.458,-13.491l-0.883,-13.51l-0.288,-13.53" style="fill:none;fill-rule:nonzero;stroke:#333;stroke-opacity:0.25;stroke-width:9.79px;"/><path d="M2412.14,798.192l-0.345,-16.235l-1.075,-16.216l-1.746,-16.197l-2.476,-16.14l-3.166,-16.063l-3.858,-16.005l-4.548,-15.89l-5.239,-15.794l-5.93,-15.641l-6.602,-15.506l-7.273,-15.352l-7.926,-15.18l-8.598,-14.969l-9.23,-14.777l-9.884,-14.547l-10.497,-14.316l-11.112,-14.067l-11.725,-13.799l-12.321,-13.529l-12.896,-13.223l-13.453,-12.934l-14.028,-12.589l-14.566,-12.283l-15.084,-11.936l-15.583,-11.572l-16.101,-11.208l-16.562,-10.824l-17.042,-10.439l-17.482,-10.037l-17.906,-9.634l-18.308,-9.212l-18.692,-8.77l-19.075,-8.348l-19.441,-7.907l-19.766,-7.426l-20.074,-6.986l-20.361,-6.506l-20.65,-6.045l-20.879,-5.546l-21.13,-5.066l-21.34,-4.587l-21.513,-4.068l-21.685,-3.589l-21.84,-3.071l-21.954,-2.571l-22.05,-2.054l-22.127,-1.535l-22.204,-1.036l-22.223,-0.518l-22.223,-0l-22.223,0.518l-22.185,1.036l-22.146,1.535l-22.051,2.054l-21.954,2.571l-21.839,3.071l-21.686,3.589l-21.513,4.068l-21.34,4.587l-21.11,5.066l-20.899,5.546l-20.649,6.045l-20.362,6.506l-20.073,6.986l-19.767,7.426l-19.421,7.907l-19.076,8.348l-18.711,8.77l-18.308,9.212l-17.905,9.634l-17.483,10.037l-17.022,10.439l-16.581,10.824l-16.082,11.208l-15.602,11.572l-15.085,11.936l-14.565,12.283l-14.01,12.589l-13.472,12.934l-12.896,13.223l-12.321,13.529l-11.725,13.799l-11.112,14.067l-10.497,14.316l-9.864,14.547l-9.25,14.777l-8.578,14.969l-7.946,15.18l-7.273,15.352l-6.602,15.506l-5.91,15.641l-5.259,15.794l-4.548,15.89l-3.857,16.005l-3.167,16.063l-2.456,16.14l-1.766,16.197l-1.055,16.216l-0.365,16.235" style="fill:none;fill-rule:nonzero;stroke:#333;stroke-opacity:0.25;stroke-width:6.87px;"/><path d="M2412.14,894.301l-0.422,18.941l-1.228,18.923l-2.054,18.883l-2.878,18.827l-3.685,18.768l-4.51,18.654l-5.316,18.538l-6.102,18.424l-6.909,18.269l-7.715,18.078l-8.482,17.905l-9.25,17.713l-10.018,17.464l-10.785,17.233l-11.515,16.984l-12.263,16.696l-12.953,16.409l-13.684,16.101l-14.374,15.775l-15.045,15.448l-15.698,15.065l-16.37,14.72l-16.984,14.316l-17.598,13.913l-18.193,13.511l-18.769,13.069l-19.344,12.627l-19.863,12.186l-20.38,11.707l-20.899,11.246l-21.36,10.747l-21.82,10.228l-22.261,9.73l-22.665,9.231l-23.067,8.674l-23.413,8.137l-23.758,7.6l-24.085,7.043l-24.372,6.486l-24.641,5.911l-24.891,5.335l-25.121,4.759l-25.293,4.165l-25.466,3.589l-25.62,2.993l-25.735,2.399l-25.812,1.804l-25.888,1.209l-25.927,0.595l-25.946,0l-25.927,-0.595l-25.889,-1.209l-25.811,-1.804l-25.735,-2.399l-25.62,-2.993l-25.466,-3.589l-25.294,-4.165l-25.121,-4.759l-24.89,-5.335l-24.642,-5.911l-24.372,-6.486l-24.085,-7.043l-23.758,-7.6l-23.413,-8.137l-23.067,-8.674l-22.665,-9.231l-22.261,-9.73l-21.82,-10.228l-21.359,-10.747l-20.899,-11.246l-20.381,-11.707l-19.863,-12.186l-19.344,-12.627l-18.769,-13.069l-18.193,-13.511l-17.598,-13.913l-16.984,-14.316l-16.369,-14.72l-15.698,-15.065l-15.046,-15.448l-14.374,-15.775l-13.683,-16.101l-12.954,-16.409l-12.263,-16.696l-11.514,-16.984l-10.786,-17.233l-10.017,-17.464l-9.25,-17.713l-8.483,-17.905l-7.714,-18.078l-6.909,-18.269l-6.103,-18.424l-5.316,-18.538l-4.51,-18.654l-3.684,-18.768l-2.879,-18.827l-2.053,-18.883l-1.248,-18.923l-0.403,-18.941" style="fill:none;fill-rule:nonzero;stroke:#333;stroke-opacity:0.25;stroke-width:6.44px;"/><path d="M2178.58,798.192l-0.057,-2.705l-0.192,-2.706l-0.288,-2.687l-0.403,-2.687l-0.538,-2.687l-0.633,-2.667l-0.767,-2.648l-0.864,-2.63l-0.998,-2.609l-1.094,-2.591l-1.209,-2.553l-1.324,-2.533l-1.439,-2.495l-1.536,-2.456l-1.65,-2.418l-1.746,-2.399l-1.862,-2.341l-1.938,-2.303l-2.054,-2.246l-2.149,-2.206l-2.245,-2.15l-2.342,-2.111l-2.418,-2.034l-2.514,-1.996l-2.61,-1.919l-2.686,-1.881l-2.764,-1.804l-2.821,-1.746l-2.917,-1.67l-2.994,-1.592l-3.051,-1.536l-3.109,-1.477l-3.186,-1.382l-3.243,-1.324l-3.282,-1.229l-3.358,-1.17l-3.397,-1.075l-3.435,-1.017l-3.473,-0.921l-3.532,-0.845l-3.55,-0.767l-3.589,-0.672l-3.607,-0.595l-3.647,-0.518l-3.646,-0.422l-3.685,-0.346l-3.684,-0.268l-3.704,-0.154l-3.704,-0.096l-3.704,0l-3.704,0.096l-3.703,0.154l-3.685,0.268l-3.666,0.346l-3.665,0.422l-3.646,0.518l-3.608,0.595l-3.589,0.672l-3.55,0.767l-3.531,0.845l-3.474,0.921l-3.435,1.017l-3.397,1.075l-3.358,1.17l-3.282,1.229l-3.243,1.324l-3.186,1.382l-3.109,1.477l-3.051,1.536l-2.994,1.592l-2.898,1.67l-2.84,1.746l-2.763,1.804l-2.687,1.881l-2.591,1.919l-2.514,1.996l-2.437,2.034l-2.341,2.111l-2.246,2.15l-2.149,2.206l-2.054,2.246l-1.938,2.303l-1.861,2.341l-1.747,2.399l-1.65,2.418l-1.535,2.456l-1.44,2.495l-1.324,2.533l-1.209,2.553l-1.094,2.591l-0.998,2.609l-0.863,2.63l-0.768,2.648l-0.633,2.667l-0.538,2.687l-0.403,2.687l-0.287,2.687l-0.192,2.706l-0.058,2.705" style="fill:none;fill-rule:nonzero;stroke:#333;stroke-opacity:0.25;stroke-width:6.22px;"/><path d="M2178.58,894.301l-0.115,5.412l-0.365,5.393l-0.575,5.411l-0.826,5.374l-1.055,5.354l-1.286,5.335l-1.516,5.297l-1.746,5.258l-1.977,5.22l-2.207,5.182l-2.418,5.104l-2.648,5.067l-2.86,4.989l-3.089,4.913l-3.282,4.855l-3.512,4.779l-3.704,4.683l-3.896,4.605l-4.106,4.51l-4.299,4.395l-4.491,4.318l-4.682,4.203l-4.856,4.087l-5.028,3.973l-5.181,3.857l-5.374,3.742l-5.527,3.608l-5.68,3.474l-5.815,3.358l-5.968,3.205l-6.103,3.071l-6.237,2.936l-6.352,2.763l-6.487,2.649l-6.582,2.475l-6.698,2.322l-6.793,2.169l-6.871,2.015l-6.966,1.862l-7.043,1.688l-7.12,1.516l-7.158,1.363l-7.235,1.19l-7.273,1.017l-7.331,0.864l-7.35,0.69l-7.37,0.499l-7.407,0.346l-7.408,0.173l-7.408,-0l-7.407,-0.173l-7.389,-0.346l-7.388,-0.499l-7.351,-0.69l-7.311,-0.864l-7.274,-1.017l-7.235,-1.19l-7.177,-1.363l-7.101,-1.516l-7.043,-1.688l-6.966,-1.862l-6.889,-2.015l-6.775,-2.169l-6.697,-2.322l-6.583,-2.475l-6.486,-2.649l-6.353,-2.763l-6.237,-2.936l-6.102,-3.071l-5.969,-3.205l-5.834,-3.358l-5.661,-3.474l-5.527,-3.608l-5.373,-3.742l-5.201,-3.857l-5.028,-3.973l-4.855,-4.087l-4.664,-4.203l-4.49,-4.318l-4.299,-4.395l-4.107,-4.51l-3.896,-4.605l-3.723,-4.683l-3.493,-4.779l-3.281,-4.855l-3.09,-4.913l-2.859,-4.989l-2.649,-5.067l-2.418,-5.104l-2.207,-5.182l-1.976,-5.22l-1.747,-5.258l-1.516,-5.297l-1.286,-5.335l-1.055,-5.354l-0.825,-5.374l-0.576,-5.411l-0.365,-5.393l-0.115,-5.412" style="fill:none;fill-rule:nonzero;stroke:#333;stroke-opacity:0.25;stroke-width:11.01px;"/><path d="M2178.58,798.192l-0.192,-8.117l-0.518,-8.099l-0.883,-8.098l-1.228,-8.08l-1.593,-8.041l-1.919,-7.983l-2.284,-7.945l-2.609,-7.907l-2.975,-7.81l-3.301,-7.754l-3.627,-7.676l-3.972,-7.599l-4.299,-7.485l-4.606,-7.388l-4.951,-7.274l-5.239,-7.158l-5.566,-7.024l-5.853,-6.909l-6.16,-6.755l-6.448,-6.621l-6.736,-6.467l-7.005,-6.294l-7.293,-6.142l-7.542,-5.968l-7.791,-5.776l-8.041,-5.604l-8.29,-5.412l-8.521,-5.22l-8.732,-5.028l-8.962,-4.817l-9.154,-4.606l-9.346,-4.375l-9.538,-4.184l-9.711,-3.953l-9.883,-3.704l-10.037,-3.493l-10.19,-3.262l-10.325,-3.013l-10.44,-2.783l-10.555,-2.533l-10.67,-2.284l-10.766,-2.034l-10.843,-1.804l-10.919,-1.535l-10.977,-1.286l-11.016,-1.017l-11.073,-0.768l-11.093,-0.518l-11.111,-0.268l-11.112,-0l-11.111,0.268l-11.092,0.518l-11.074,0.768l-11.034,1.017l-10.977,1.286l-10.92,1.535l-10.843,1.804l-10.747,2.034l-10.67,2.284l-10.555,2.533l-10.459,2.783l-10.325,3.013l-10.171,3.262l-10.037,3.493l-9.883,3.704l-9.71,3.953l-9.538,4.184l-9.365,4.375l-9.155,4.606l-8.942,4.817l-8.752,5.028l-8.501,5.22l-8.291,5.412l-8.041,5.604l-7.81,5.776l-7.542,5.968l-7.274,6.142l-7.004,6.294l-6.736,6.467l-6.448,6.621l-6.161,6.755l-5.872,6.909l-5.546,7.024l-5.258,7.158l-4.933,7.274l-4.625,7.388l-4.279,7.485l-3.973,7.599l-3.646,7.676l-3.301,7.754l-2.955,7.81l-2.629,7.907l-2.265,7.945l-1.938,7.983l-1.574,8.041l-1.228,8.08l-0.883,8.098l-0.537,8.099l-0.173,8.117" style="fill:none;fill-rule:nonzero;stroke:#333;stroke-opacity:0.25;stroke-width:7.5px;"/><path d="M2178.58,894.301l-0.249,10.824l-0.691,10.804l-1.19,10.805l-1.631,10.747l-2.111,10.727l-2.572,10.651l-3.032,10.613l-3.493,10.516l-3.953,10.44l-4.414,10.325l-4.836,10.248l-5.297,10.113l-5.719,9.98l-6.16,9.845l-6.582,9.71l-7.005,9.538l-7.408,9.384l-7.81,9.193l-8.214,9.019l-8.598,8.809l-8.981,8.617l-9.346,8.405l-9.71,8.195l-10.056,7.945l-10.402,7.715l-10.728,7.465l-11.034,7.235l-11.361,6.947l-11.649,6.698l-11.937,6.428l-12.205,6.122l-12.474,5.854l-12.724,5.565l-12.954,5.277l-13.165,4.952l-13.376,4.663l-13.587,4.337l-13.76,4.011l-13.932,3.704l-14.086,3.378l-14.221,3.051l-14.335,2.725l-14.47,2.38l-14.547,2.053l-14.643,1.708l-14.7,1.382l-14.758,1.017l-14.796,0.691l-14.815,0.345l-14.816,0l-14.815,-0.345l-14.796,-0.691l-14.758,-1.017l-14.7,-1.382l-14.643,-1.708l-14.546,-2.053l-14.451,-2.38l-14.355,-2.725l-14.22,-3.051l-14.086,-3.378l-13.933,-3.704l-13.76,-4.011l-13.568,-4.337l-13.395,-4.663l-13.165,-4.952l-12.954,-5.277l-12.723,-5.565l-12.474,-5.854l-12.206,-6.122l-11.937,-6.428l-11.648,-6.698l-11.361,-6.947l-11.035,-7.235l-10.728,-7.465l-10.401,-7.715l-10.056,-7.945l-9.711,-8.195l-9.346,-8.405l-8.981,-8.617l-8.598,-8.809l-8.194,-9.019l-7.83,-9.193l-7.408,-9.384l-7.004,-9.538l-6.583,-9.71l-6.141,-9.845l-5.738,-9.98l-5.297,-10.113l-4.836,-10.248l-4.394,-10.325l-3.954,-10.44l-3.493,-10.516l-3.051,-10.613l-2.571,-10.651l-2.111,-10.727l-1.632,-10.747l-1.17,-10.805l-0.71,-10.804l-0.231,-10.824" style="fill:none;fill-rule:nonzero;stroke:#333;stroke-opacity:0.25;stroke-width:9.17px;"/><path d="M2178.58,798.192l-0.307,-13.529l-0.883,-13.51l-1.458,-13.492l-2.054,-13.452l-2.648,-13.396l-3.205,-13.337l-3.8,-13.242l-4.375,-13.146l-4.932,-13.05l-5.489,-12.915l-6.064,-12.8l-6.621,-12.647l-7.158,-12.474l-7.696,-12.321l-8.233,-12.128l-8.751,-11.918l-9.25,-11.726l-9.768,-11.495l-10.267,-11.265l-10.747,-11.035l-11.226,-10.766l-11.688,-10.497l-12.128,-10.229l-12.57,-9.941l-12.993,-9.653l-13.414,-9.346l-13.798,-9.019l-14.201,-8.694l-14.566,-8.367l-14.912,-8.022l-15.276,-7.676l-15.583,-7.312l-15.89,-6.966l-16.197,-6.583l-16.465,-6.198l-16.735,-5.815l-16.965,-5.431l-17.214,-5.028l-17.406,-4.625l-17.598,-4.222l-17.771,-3.819l-17.943,-3.397l-18.078,-2.975l-18.193,-2.571l-18.289,-2.13l-18.385,-1.708l-18.442,-1.286l-18.481,-0.864l-18.519,-0.422l-18.539,0l-18.519,0.422l-18.481,0.864l-18.442,1.286l-18.385,1.708l-18.289,2.13l-18.193,2.571l-18.077,2.975l-17.944,3.397l-17.771,3.819l-17.598,4.222l-17.425,4.625l-17.195,5.028l-16.965,5.431l-16.734,5.815l-16.466,6.198l-16.197,6.583l-15.89,6.966l-15.583,7.312l-15.276,7.676l-14.911,8.022l-14.566,8.367l-14.201,8.694l-13.799,9.019l-13.414,9.346l-12.992,9.653l-12.57,9.941l-12.129,10.229l-11.687,10.497l-11.227,10.766l-10.747,11.035l-10.267,11.265l-9.768,11.495l-9.25,11.726l-8.751,11.918l-8.233,12.128l-7.696,12.321l-7.158,12.474l-6.621,12.647l-6.064,12.8l-5.488,12.915l-4.952,13.05l-4.356,13.146l-3.8,13.242l-3.224,13.337l-2.629,13.396l-2.053,13.452l-1.459,13.492l-0.883,13.51l-0.307,13.529" style="fill:none;fill-rule:nonzero;stroke:#333;stroke-opacity:0.25;stroke-width:6.22px;"/><path d="M2178.58,894.301l-0.364,16.236l-1.056,16.216l-1.765,16.197l-2.457,16.139l-3.166,16.063l-3.858,16.005l-4.548,15.89l-5.258,15.795l-5.911,15.64l-6.602,15.506l-7.273,15.353l-7.945,15.18l-8.578,14.969l-9.25,14.777l-9.865,14.547l-10.497,14.316l-11.111,14.067l-11.726,13.798l-12.321,13.53l-12.896,13.222l-13.472,12.935l-14.009,12.589l-14.566,12.282l-15.084,11.937l-15.602,11.572l-16.082,11.207l-16.581,10.824l-17.022,10.44l-17.483,10.037l-17.905,9.634l-18.309,9.211l-18.711,8.77l-19.075,8.348l-19.422,7.907l-19.766,7.427l-20.074,6.985l-20.361,6.506l-20.65,6.045l-20.899,5.546l-21.11,5.067l-21.34,4.586l-21.513,4.069l-21.685,3.589l-21.84,3.07l-21.954,2.572l-22.05,2.053l-22.147,1.535l-22.184,1.037l-22.223,0.518l-22.223,-0l-22.223,-0.518l-22.204,-1.037l-22.127,-1.535l-22.051,-2.053l-21.954,-2.572l-21.839,-3.07l-21.686,-3.589l-21.513,-4.069l-21.34,-4.586l-21.129,-5.067l-20.88,-5.546l-20.649,-6.045l-20.362,-6.506l-20.073,-6.985l-19.767,-7.427l-19.44,-7.907l-19.076,-8.348l-18.692,-8.77l-18.308,-9.211l-17.905,-9.634l-17.483,-10.037l-17.042,-10.44l-16.561,-10.824l-16.101,-11.207l-15.583,-11.572l-15.084,-11.937l-14.566,-12.282l-14.029,-12.589l-13.453,-12.935l-12.896,-13.222l-12.32,-13.53l-11.726,-13.798l-11.112,-14.067l-10.497,-14.316l-9.883,-14.547l-9.231,-14.777l-8.598,-14.969l-7.925,-15.18l-7.274,-15.353l-6.601,-15.506l-5.93,-15.64l-5.24,-15.795l-4.548,-15.89l-3.857,-16.005l-3.167,-16.063l-2.475,-16.139l-1.747,-16.197l-1.074,-16.216l-0.346,-16.236" style="fill:none;fill-rule:nonzero;stroke:#333;stroke-opacity:0.25;stroke-width:6.22px;"/><path d="M1945.01,894.301l-0.057,2.706l-0.173,2.706l-0.288,2.687l-0.422,2.686l-0.518,2.687l-0.653,2.668l-0.748,2.648l-0.883,2.629l-0.979,2.61l-1.094,2.591l-1.228,2.552l-1.305,2.533l-1.439,2.495l-1.536,2.457l-1.65,2.418l-1.746,2.399l-1.862,2.341l-1.957,2.303l-2.054,2.245l-2.149,2.207l-2.226,2.149l-2.342,2.111l-2.437,2.035l-2.514,1.995l-2.591,1.92l-2.686,1.88l-2.764,1.804l-2.84,1.747l-2.917,1.669l-2.975,1.593l-3.051,1.535l-3.109,1.478l-3.186,1.382l-3.243,1.324l-3.301,1.228l-3.339,1.171l-3.397,1.074l-3.435,1.018l-3.473,0.921l-3.531,0.844l-3.551,0.768l-3.588,0.671l-3.608,0.595l-3.647,0.519l-3.665,0.422l-3.666,0.345l-3.684,0.269l-3.704,0.153l-3.704,0.096l-3.704,0l-3.704,-0.096l-3.703,-0.153l-3.685,-0.269l-3.685,-0.345l-3.646,-0.422l-3.646,-0.519l-3.608,-0.595l-3.589,-0.671l-3.569,-0.768l-3.512,-0.844l-3.474,-0.921l-3.454,-1.018l-3.397,-1.074l-3.339,-1.171l-3.301,-1.228l-3.224,-1.324l-3.186,-1.382l-3.109,-1.478l-3.051,-1.535l-2.994,-1.593l-2.917,-1.669l-2.84,-1.747l-2.763,-1.804l-2.668,-1.88l-2.61,-1.92l-2.514,-1.995l-2.418,-2.035l-2.341,-2.111l-2.246,-2.149l-2.149,-2.207l-2.053,-2.245l-1.958,-2.303l-1.842,-2.341l-1.747,-2.399l-1.65,-2.418l-1.535,-2.457l-1.44,-2.495l-1.324,-2.533l-1.209,-2.552l-1.094,-2.591l-0.998,-2.61l-0.863,-2.629l-0.768,-2.648l-0.633,-2.668l-0.537,-2.687l-0.404,-2.686l-0.307,-2.687l-0.172,-2.706l-0.058,-2.706" style="fill:none;fill-rule:nonzero;stroke:#333;stroke-opacity:0.25;stroke-width:6.44px;"/><path d="M1945.01,798.192l-0.115,-5.411l-0.346,-5.393l-0.594,-5.412l-0.826,-5.373l-1.036,-5.355l-1.305,-5.335l-1.516,-5.296l-1.746,-5.259l-1.977,-5.219l-2.188,-5.182l-2.437,-5.105l-2.629,-5.066l-2.879,-4.99l-3.07,-4.913l-3.301,-4.855l-3.493,-4.778l-3.704,-4.683l-3.915,-4.606l-4.107,-4.51l-4.298,-4.394l-4.472,-4.318l-4.682,-4.203l-4.856,-4.088l-5.028,-3.972l-5.2,-3.858l-5.355,-3.742l-5.527,-3.608l-5.68,-3.473l-5.815,-3.359l-5.968,-3.205l-6.122,-3.07l-6.218,-2.936l-6.371,-2.764l-6.468,-2.648l-6.582,-2.476l-6.698,-2.322l-6.793,-2.168l-6.871,-2.016l-6.966,-1.861l-7.043,-1.689l-7.12,-1.516l-7.177,-1.362l-7.216,-1.19l-7.293,-1.017l-7.311,-0.864l-7.35,-0.691l-7.37,-0.499l-7.407,-0.345l-7.408,-0.173l-7.408,-0l-7.407,0.173l-7.389,0.345l-7.388,0.499l-7.35,0.691l-7.312,0.864l-7.274,1.017l-7.234,1.19l-7.178,1.362l-7.1,1.516l-7.044,1.689l-6.966,1.861l-6.889,2.016l-6.794,2.168l-6.678,2.322l-6.602,2.476l-6.467,2.648l-6.352,2.764l-6.238,2.936l-6.102,3.07l-5.969,3.205l-5.834,3.359l-5.68,3.473l-5.527,3.608l-5.354,3.742l-5.201,3.858l-5.028,3.972l-4.855,4.088l-4.664,4.203l-4.49,4.318l-4.299,4.394l-4.107,4.51l-3.915,4.606l-3.704,4.683l-3.493,4.778l-3.3,4.855l-3.071,4.913l-2.859,4.99l-2.649,5.066l-2.418,5.105l-2.207,5.182l-1.976,5.219l-1.747,5.259l-1.516,5.296l-1.286,5.335l-1.055,5.355l-0.825,5.373l-0.595,5.412l-0.346,5.393l-0.115,5.411" style="fill:none;fill-rule:nonzero;stroke:#333;stroke-opacity:0.25;stroke-width:6.22px;"/><path d="M1945.01,894.301l-0.173,8.118l-0.518,8.098l-0.883,8.099l-1.228,8.079l-1.593,8.041l-1.919,7.984l-2.283,7.945l-2.63,7.906l-2.955,7.811l-3.301,7.753l-3.646,7.676l-3.953,7.6l-4.299,7.484l-4.625,7.389l-4.932,7.273l-5.259,7.158l-5.546,7.024l-5.872,6.909l-6.141,6.755l-6.448,6.621l-6.736,6.467l-7.024,6.295l-7.273,6.141l-7.542,5.968l-7.792,5.777l-8.06,5.604l-8.271,5.411l-8.521,5.22l-8.732,5.028l-8.962,4.817l-9.154,4.606l-9.346,4.376l-9.538,4.183l-9.73,3.954l-9.864,3.703l-10.037,3.493l-10.19,3.263l-10.325,3.013l-10.44,2.782l-10.574,2.533l-10.651,2.284l-10.766,2.034l-10.843,1.804l-10.919,1.536l-10.977,1.285l-11.035,1.018l-11.054,0.767l-11.092,0.518l-11.112,0.269l-11.131,-0l-11.111,-0.269l-11.093,-0.518l-11.053,-0.767l-11.035,-1.018l-10.977,-1.285l-10.92,-1.536l-10.843,-1.804l-10.766,-2.034l-10.651,-2.284l-10.574,-2.533l-10.44,-2.782l-10.325,-3.013l-10.19,-3.263l-10.037,-3.493l-9.883,-3.703l-9.711,-3.954l-9.537,-4.183l-9.346,-4.376l-9.154,-4.606l-8.963,-4.817l-8.731,-5.028l-8.521,-5.22l-8.271,-5.411l-8.061,-5.604l-7.791,-5.777l-7.542,-5.968l-7.273,-6.141l-7.024,-6.295l-6.736,-6.467l-6.448,-6.621l-6.142,-6.755l-5.872,-6.909l-5.546,-7.024l-5.258,-7.158l-4.932,-7.273l-4.625,-7.389l-4.299,-7.484l-3.954,-7.6l-3.646,-7.676l-3.301,-7.753l-2.955,-7.811l-2.629,-7.906l-2.284,-7.945l-1.919,-7.984l-1.593,-8.041l-1.228,-8.079l-0.883,-8.099l-0.518,-8.098l-0.173,-8.118" style="fill:none;fill-rule:nonzero;stroke:#333;stroke-opacity:0.25;stroke-width:10.4px;"/><path d="M1945.01,798.192l-0.23,-10.823l-0.71,-10.805l-1.171,-10.804l-1.631,-10.747l-2.111,-10.728l-2.572,-10.651l-3.051,-10.612l-3.493,-10.517l-3.953,-10.44l-4.395,-10.324l-4.855,-10.248l-5.278,-10.114l-5.738,-9.979l-6.141,-9.845l-6.582,-9.711l-7.005,-9.537l-7.408,-9.385l-7.829,-9.192l-8.195,-9.02l-8.597,-8.809l-8.982,-8.616l-9.346,-8.406l-9.71,-8.194l-10.056,-7.945l-10.402,-7.715l-10.728,-7.465l-11.034,-7.235l-11.361,-6.947l-11.649,-6.698l-11.937,-6.429l-12.205,-6.122l-12.474,-5.853l-12.724,-5.565l-12.954,-5.278l-13.165,-4.951l-13.395,-4.664l-13.568,-4.337l-13.76,-4.011l-13.932,-3.703l-14.086,-3.378l-14.221,-3.051l-14.355,-2.725l-14.45,-2.38l-14.547,-2.054l-14.643,-1.708l-14.7,-1.381l-14.758,-1.017l-14.796,-0.691l-14.815,-0.346l-14.815,0l-14.816,0.346l-14.796,0.691l-14.758,1.017l-14.7,1.381l-14.643,1.708l-14.546,2.054l-14.47,2.38l-14.336,2.725l-14.22,3.051l-14.086,3.378l-13.933,3.703l-13.76,4.011l-13.587,4.337l-13.376,4.664l-13.165,4.951l-12.954,5.278l-12.723,5.565l-12.474,5.853l-12.206,6.122l-11.936,6.429l-11.649,6.698l-11.361,6.947l-11.035,7.235l-10.728,7.465l-10.401,7.715l-10.056,7.945l-9.711,8.194l-9.346,8.406l-8.981,8.616l-8.598,8.809l-8.213,9.02l-7.811,9.192l-7.408,9.385l-7.004,9.537l-6.583,9.711l-6.16,9.845l-5.719,9.979l-5.297,10.114l-4.836,10.248l-4.414,10.324l-3.953,10.44l-3.493,10.517l-3.032,10.612l-2.571,10.651l-2.111,10.728l-1.632,10.747l-1.189,10.804l-0.691,10.805l-0.25,10.823" style="fill:none;fill-rule:nonzero;stroke:#333;stroke-opacity:0.25;stroke-width:6.22px;"/><path d="M1945.01,894.301l-0.288,13.53l-0.883,13.51l-1.458,13.491l-2.053,13.453l-2.649,13.395l-3.205,13.338l-3.8,13.242l-4.375,13.145l-4.932,13.05l-5.508,12.916l-6.045,12.8l-6.621,12.647l-7.158,12.474l-7.696,12.32l-8.232,12.129l-8.751,11.917l-9.27,11.726l-9.768,11.495l-10.248,11.265l-10.747,11.035l-11.226,10.766l-11.688,10.498l-12.128,10.228l-12.57,9.941l-12.992,9.653l-13.415,9.346l-13.817,9.02l-14.182,8.693l-14.566,8.368l-14.931,8.021l-15.256,7.677l-15.583,7.312l-15.89,6.966l-16.198,6.582l-16.465,6.199l-16.735,5.815l-16.965,5.431l-17.214,5.028l-17.406,4.625l-17.598,4.222l-17.79,3.819l-17.924,3.397l-18.078,2.974l-18.193,2.572l-18.289,2.13l-18.385,1.708l-18.442,1.286l-18.5,0.863l-18.519,0.422l-18.519,0l-18.52,-0.422l-18.5,-0.863l-18.442,-1.286l-18.366,-1.708l-18.308,-2.13l-18.193,-2.572l-18.058,-2.974l-17.944,-3.397l-17.771,-3.819l-17.617,-4.222l-17.406,-4.625l-17.195,-5.028l-16.984,-5.431l-16.715,-5.815l-16.466,-6.199l-16.197,-6.582l-15.89,-6.966l-15.602,-7.312l-15.257,-7.677l-14.911,-8.021l-14.566,-8.368l-14.201,-8.693l-13.799,-9.02l-13.414,-9.346l-12.992,-9.653l-12.57,-9.941l-12.148,-10.228l-11.668,-10.498l-11.227,-10.766l-10.747,-11.035l-10.267,-11.265l-9.768,-11.495l-9.269,-11.726l-8.751,-11.917l-8.214,-12.129l-7.715,-12.32l-7.158,-12.474l-6.601,-12.647l-6.065,-12.8l-5.508,-12.916l-4.932,-13.05l-4.356,-13.145l-3.8,-13.242l-3.224,-13.338l-2.629,-13.395l-2.053,-13.453l-1.478,-13.491l-0.883,-13.51l-0.288,-13.53" style="fill:none;fill-rule:nonzero;stroke:#333;stroke-opacity:0.25;stroke-width:4.92px;"/><path d="M1711.46,798.192l-0.057,-2.705l-0.173,-2.706l-0.288,-2.687l-0.422,-2.687l-0.518,-2.687l-0.653,-2.667l-0.748,-2.648l-0.883,-2.63l-0.979,-2.609l-1.113,-2.591l-1.209,-2.553l-1.324,-2.533l-1.42,-2.495l-1.555,-2.456l-1.631,-2.418l-1.765,-2.399l-1.843,-2.341l-1.957,-2.303l-2.054,-2.246l-2.149,-2.206l-2.245,-2.15l-2.342,-2.111l-2.418,-2.034l-2.514,-1.996l-2.59,-1.919l-2.687,-1.881l-2.764,-1.804l-2.84,-1.746l-2.917,-1.67l-2.975,-1.592l-3.051,-1.536l-3.128,-1.477l-3.166,-1.382l-3.244,-1.324l-3.301,-1.229l-3.339,-1.17l-3.397,-1.075l-3.435,-1.017l-3.492,-0.921l-3.512,-0.845l-3.551,-0.767l-3.588,-0.672l-3.627,-0.595l-3.628,-0.518l-3.665,-0.422l-3.685,-0.346l-3.684,-0.268l-3.685,-0.154l-3.704,-0.096l-3.723,0l-3.704,0.096l-3.684,0.154l-3.685,0.268l-3.685,0.346l-3.665,0.422l-3.627,0.518l-3.627,0.595l-3.589,0.672l-3.55,0.767l-3.512,0.845l-3.493,0.921l-3.435,1.017l-3.397,1.075l-3.339,1.17l-3.301,1.229l-3.243,1.324l-3.167,1.382l-3.128,1.477l-3.051,1.536l-2.975,1.592l-2.917,1.67l-2.84,1.746l-2.763,1.804l-2.687,1.881l-2.591,1.919l-2.514,1.996l-2.418,2.034l-2.341,2.111l-2.246,2.15l-2.149,2.206l-2.053,2.246l-1.958,2.303l-1.861,2.341l-1.747,2.399l-1.631,2.418l-1.554,2.456l-1.421,2.495l-1.324,2.533l-1.209,2.553l-1.113,2.591l-0.979,2.609l-0.882,2.63l-0.749,2.648l-0.652,2.667l-0.518,2.687l-0.423,2.687l-0.287,2.687l-0.173,2.706l-0.058,2.705" style="fill:none;fill-rule:nonzero;stroke:#333;stroke-opacity:0.25;stroke-width:7.71px;"/><path d="M1711.46,894.301l-0.115,5.412l-0.345,5.393l-0.595,5.411l-0.826,5.374l-1.055,5.354l-1.286,5.335l-1.516,5.297l-1.746,5.258l-1.977,5.22l-2.207,5.182l-2.418,5.104l-2.648,5.067l-2.86,4.989l-3.07,4.913l-3.301,4.855l-3.493,4.779l-3.704,4.683l-3.915,4.605l-4.106,4.51l-4.299,4.395l-4.491,4.318l-4.663,4.203l-4.856,4.087l-5.028,3.973l-5.2,3.857l-5.374,3.742l-5.508,3.608l-5.68,3.474l-5.834,3.358l-5.968,3.205l-6.103,3.071l-6.237,2.936l-6.352,2.763l-6.468,2.649l-6.601,2.475l-6.679,2.322l-6.793,2.169l-6.89,2.015l-6.966,1.862l-7.043,1.688l-7.101,1.516l-7.177,1.363l-7.235,1.19l-7.273,1.017l-7.312,0.864l-7.35,0.69l-7.389,0.499l-7.388,0.346l-7.408,0.173l-7.408,-0l-7.407,-0.173l-7.408,-0.346l-7.369,-0.499l-7.35,-0.69l-7.312,-0.864l-7.293,-1.017l-7.215,-1.19l-7.178,-1.363l-7.12,-1.516l-7.043,-1.688l-6.966,-1.862l-6.87,-2.015l-6.794,-2.169l-6.697,-2.322l-6.583,-2.475l-6.467,-2.649l-6.372,-2.763l-6.237,-2.936l-6.102,-3.071l-5.969,-3.205l-5.815,-3.358l-5.68,-3.474l-5.527,-3.608l-5.354,-3.742l-5.201,-3.857l-5.028,-3.973l-4.855,-4.087l-4.683,-4.203l-4.491,-4.318l-4.298,-4.395l-4.088,-4.51l-3.915,-4.605l-3.704,-4.683l-3.512,-4.779l-3.281,-4.855l-3.071,-4.913l-2.878,-4.989l-2.63,-5.067l-2.437,-5.104l-2.188,-5.182l-1.976,-5.22l-1.747,-5.258l-1.516,-5.297l-1.305,-5.335l-1.055,-5.354l-0.806,-5.374l-0.595,-5.411l-0.346,-5.393l-0.115,-5.412" style="fill:none;fill-rule:nonzero;stroke:#333;stroke-opacity:0.25;stroke-width:10.61px;"/><path d="M1711.46,798.192l-0.173,-8.117l-0.537,-8.099l-0.883,-8.098l-1.228,-8.08l-1.574,-8.041l-1.938,-7.983l-2.264,-7.945l-2.63,-7.907l-2.955,-7.81l-3.301,-7.754l-3.646,-7.676l-3.973,-7.599l-4.279,-7.485l-4.625,-7.388l-4.932,-7.274l-5.258,-7.158l-5.547,-7.024l-5.872,-6.909l-6.16,-6.755l-6.448,-6.621l-6.736,-6.467l-7.005,-6.294l-7.273,-6.142l-7.542,-5.968l-7.811,-5.776l-8.041,-5.604l-8.291,-5.412l-8.501,-5.22l-8.751,-5.028l-8.943,-4.817l-9.154,-4.606l-9.365,-4.375l-9.538,-4.184l-9.711,-3.953l-9.883,-3.704l-10.037,-3.493l-10.171,-3.262l-10.325,-3.013l-10.459,-2.783l-10.555,-2.533l-10.67,-2.284l-10.747,-2.034l-10.843,-1.804l-10.919,-1.535l-10.977,-1.286l-11.035,-1.017l-11.073,-0.768l-11.093,-0.518l-11.111,-0.268l-11.112,-0l-11.111,0.268l-11.092,0.518l-11.074,0.768l-11.015,1.017l-10.977,1.286l-10.92,1.535l-10.843,1.804l-10.766,2.034l-10.67,2.284l-10.555,2.533l-10.44,2.783l-10.324,3.013l-10.191,3.262l-10.037,3.493l-9.883,3.704l-9.711,3.953l-9.537,4.184l-9.346,4.375l-9.154,4.606l-8.963,4.817l-8.731,5.028l-8.521,5.22l-8.291,5.412l-8.041,5.604l-7.791,5.776l-7.542,5.968l-7.293,6.142l-7.004,6.294l-6.736,6.467l-6.448,6.621l-6.161,6.755l-5.853,6.909l-5.565,7.024l-5.239,7.158l-4.952,7.274l-4.605,7.388l-4.299,7.485l-3.973,7.599l-3.627,7.676l-3.301,7.754l-2.974,7.81l-2.61,7.907l-2.284,7.945l-1.919,7.983l-1.593,8.041l-1.228,8.08l-0.883,8.098l-0.518,8.099l-0.192,8.117" style="fill:none;fill-rule:nonzero;stroke:#333;stroke-opacity:0.25;stroke-width:4.69px;"/><path d="M1711.46,894.301l-0.23,10.824l-0.71,10.804l-1.171,10.805l-1.65,10.747l-2.111,10.727l-2.572,10.651l-3.032,10.613l-3.493,10.516l-3.953,10.44l-4.395,10.325l-4.855,10.248l-5.278,10.113l-5.738,9.98l-6.16,9.845l-6.582,9.71l-6.986,9.538l-7.427,9.384l-7.81,9.193l-8.214,9.019l-8.598,8.809l-8.962,8.617l-9.346,8.405l-9.71,8.195l-10.056,7.945l-10.402,7.715l-10.727,7.465l-11.054,7.235l-11.342,6.947l-11.668,6.698l-11.937,6.428l-12.205,6.122l-12.455,5.854l-12.724,5.565l-12.954,5.277l-13.184,4.952l-13.376,4.663l-13.587,4.337l-13.76,4.011l-13.913,3.704l-14.086,3.378l-14.221,3.051l-14.354,2.725l-14.451,2.38l-14.566,2.053l-14.624,1.708l-14.719,1.382l-14.739,1.017l-14.796,0.691l-14.815,0.345l-14.835,0l-14.815,-0.345l-14.777,-0.691l-14.758,-1.017l-14.7,-1.382l-14.643,-1.708l-14.565,-2.053l-14.451,-2.38l-14.355,-2.725l-14.22,-3.051l-14.067,-3.378l-13.933,-3.704l-13.76,-4.011l-13.587,-4.337l-13.376,-4.663l-13.184,-4.952l-12.954,-5.277l-12.704,-5.565l-12.474,-5.854l-12.206,-6.122l-11.936,-6.428l-11.649,-6.698l-11.361,-6.947l-11.054,-7.235l-10.728,-7.465l-10.382,-7.715l-10.075,-7.945l-9.692,-8.195l-9.346,-8.405l-8.981,-8.617l-8.598,-8.809l-8.213,-9.019l-7.811,-9.193l-7.408,-9.384l-7.004,-9.538l-6.583,-9.71l-6.16,-9.845l-5.719,-9.98l-5.297,-10.113l-4.855,-10.248l-4.395,-10.325l-3.953,-10.44l-3.493,-10.516l-3.032,-10.613l-2.571,-10.651l-2.111,-10.727l-1.651,-10.747l-1.17,-10.805l-0.71,-10.804l-0.231,-10.824" style="fill:none;fill-rule:nonzero;stroke:#333;stroke-opacity:0.25;stroke-width:5.79px;"/><path d="M1477.9,894.301l-0.057,2.706l-0.173,2.706l-0.307,2.687l-0.403,2.686l-0.537,2.687l-0.634,2.668l-0.767,2.648l-0.864,2.629l-0.998,2.61l-1.094,2.591l-1.209,2.552l-1.324,2.533l-1.439,2.495l-1.536,2.457l-1.65,2.418l-1.746,2.399l-1.843,2.341l-1.957,2.303l-2.054,2.245l-2.149,2.207l-2.245,2.149l-2.342,2.111l-2.418,2.035l-2.514,1.995l-2.61,1.92l-2.667,1.88l-2.764,1.804l-2.84,1.747l-2.917,1.669l-2.994,1.593l-3.051,1.535l-3.109,1.478l-3.186,1.382l-3.224,1.324l-3.3,1.228l-3.34,1.171l-3.396,1.074l-3.455,1.018l-3.473,0.921l-3.512,0.844l-3.57,0.768l-3.589,0.671l-3.607,0.595l-3.647,0.519l-3.646,0.422l-3.685,0.345l-3.684,0.269l-3.704,0.153l-3.704,0.096l-3.704,0l-3.704,-0.096l-3.703,-0.153l-3.685,-0.269l-3.666,-0.345l-3.665,-0.422l-3.646,-0.519l-3.608,-0.595l-3.589,-0.671l-3.55,-0.768l-3.531,-0.844l-3.474,-0.921l-3.435,-1.018l-3.397,-1.074l-3.339,-1.171l-3.301,-1.228l-3.243,-1.324l-3.186,-1.382l-3.109,-1.478l-3.051,-1.535l-2.975,-1.593l-2.917,-1.669l-2.84,-1.747l-2.763,-1.804l-2.687,-1.88l-2.591,-1.92l-2.514,-1.995l-2.437,-2.035l-2.341,-2.111l-2.227,-2.149l-2.149,-2.207l-2.053,-2.245l-1.958,-2.303l-1.861,-2.341l-1.747,-2.399l-1.65,-2.418l-1.535,-2.457l-1.44,-2.495l-1.305,-2.533l-1.228,-2.552l-1.094,-2.591l-0.978,-2.61l-0.883,-2.629l-0.749,-2.648l-0.652,-2.668l-0.518,-2.687l-0.423,-2.686l-0.287,-2.687l-0.173,-2.706l-0.058,-2.706" style="fill:none;fill-rule:nonzero;stroke:#333;stroke-opacity:0.25;stroke-width:6.22px;"/><path d="M1477.9,798.192l-0.115,-5.411l-0.365,-5.393l-0.575,-5.412l-0.825,-5.373l-1.056,-5.355l-1.286,-5.335l-1.516,-5.296l-1.746,-5.259l-1.977,-5.219l-2.207,-5.182l-2.418,-5.105l-2.648,-5.066l-2.86,-4.99l-3.089,-4.913l-3.282,-4.855l-3.493,-4.778l-3.723,-4.683l-3.896,-4.606l-4.106,-4.51l-4.299,-4.394l-4.491,-4.318l-4.663,-4.203l-4.855,-4.088l-5.028,-3.972l-5.201,-3.858l-5.374,-3.742l-5.527,-3.608l-5.661,-3.473l-5.834,-3.359l-5.968,-3.205l-6.103,-3.07l-6.237,-2.936l-6.352,-2.764l-6.487,-2.648l-6.582,-2.476l-6.698,-2.322l-6.774,-2.168l-6.89,-2.016l-6.966,-1.861l-7.043,-1.689l-7.101,-1.516l-7.177,-1.362l-7.235,-1.19l-7.273,-1.017l-7.312,-0.864l-7.35,-0.691l-7.389,-0.499l-7.388,-0.345l-7.408,-0.173l-7.427,-0l-7.407,0.173l-7.389,0.345l-7.369,0.499l-7.35,0.691l-7.331,0.864l-7.274,1.017l-7.235,1.19l-7.158,1.362l-7.12,1.516l-7.043,1.689l-6.966,1.861l-6.87,2.016l-6.794,2.168l-6.697,2.322l-6.583,2.476l-6.486,2.648l-6.353,2.764l-6.237,2.936l-6.102,3.07l-5.969,3.205l-5.814,3.359l-5.681,3.473l-5.527,3.608l-5.373,3.742l-5.182,3.858l-5.028,3.972l-4.855,4.088l-4.683,4.203l-4.49,4.318l-4.299,4.394l-4.107,4.51l-3.896,4.606l-3.704,4.683l-3.512,4.778l-3.281,4.855l-3.09,4.913l-2.859,4.99l-2.649,5.066l-2.418,5.105l-2.207,5.182l-1.976,5.219l-1.747,5.259l-1.516,5.296l-1.286,5.335l-1.055,5.355l-0.825,5.373l-0.576,5.412l-0.365,5.393l-0.115,5.411" style="fill:none;fill-rule:nonzero;stroke:#333;stroke-opacity:0.25;stroke-width:5.36px;"/><path d="M1477.9,894.301l-0.172,8.118l-0.538,8.098l-0.883,8.099l-1.228,8.079l-1.573,8.041l-1.939,7.984l-2.283,7.945l-2.61,7.906l-2.975,7.811l-3.301,7.753l-3.627,7.676l-3.972,7.6l-4.299,7.484l-4.606,7.389l-4.932,7.273l-5.258,7.158l-5.566,7.024l-5.853,6.909l-6.16,6.755l-6.448,6.621l-6.736,6.467l-7.005,6.295l-7.273,6.141l-7.542,5.968l-7.811,5.777l-8.041,5.604l-8.29,5.411l-8.521,5.22l-8.732,5.028l-8.943,4.817l-9.173,4.606l-9.346,4.376l-9.538,4.183l-9.711,3.954l-9.883,3.703l-10.037,3.493l-10.19,3.263l-10.306,3.013l-10.459,2.782l-10.555,2.533l-10.67,2.284l-10.766,2.034l-10.843,1.804l-10.919,1.536l-10.977,1.285l-11.016,1.018l-11.073,0.767l-11.092,0.518l-11.112,0.269l-11.112,-0l-11.111,-0.269l-11.092,-0.518l-11.073,-0.767l-11.035,-1.018l-10.977,-1.285l-10.901,-1.536l-10.843,-1.804l-10.766,-2.034l-10.67,-2.284l-10.555,-2.533l-10.459,-2.782l-10.305,-3.013l-10.191,-3.263l-10.037,-3.493l-9.883,-3.703l-9.71,-3.954l-9.538,-4.183l-9.365,-4.376l-9.155,-4.606l-8.942,-4.817l-8.751,-5.028l-8.502,-5.22l-8.291,-5.411l-8.04,-5.604l-7.811,-5.777l-7.542,-5.968l-7.274,-6.141l-7.004,-6.295l-6.736,-6.467l-6.448,-6.621l-6.161,-6.755l-5.853,-6.909l-5.565,-7.024l-5.258,-7.158l-4.933,-7.273l-4.605,-7.389l-4.299,-7.484l-3.973,-7.6l-3.627,-7.676l-3.3,-7.753l-2.975,-7.811l-2.61,-7.906l-2.284,-7.945l-1.938,-7.984l-1.574,-8.041l-1.228,-8.079l-0.883,-8.099l-0.537,-8.098l-0.173,-8.118" style="fill:none;fill-rule:nonzero;stroke:#333;stroke-opacity:0.25;stroke-width:8.55px;"/><path d="M1244.35,798.192l-0.057,-2.705l-0.192,-2.706l-0.288,-2.687l-0.403,-2.687l-0.537,-2.687l-0.634,-2.667l-0.767,-2.648l-0.864,-2.63l-0.998,-2.609l-1.094,-2.591l-1.209,-2.553l-1.324,-2.533l-1.439,-2.495l-1.536,-2.456l-1.65,-2.418l-1.746,-2.399l-1.862,-2.341l-1.938,-2.303l-2.054,-2.246l-2.149,-2.206l-2.245,-2.15l-2.342,-2.111l-2.437,-2.034l-2.514,-1.996l-2.591,-1.919l-2.686,-1.881l-2.764,-1.804l-2.84,-1.746l-2.898,-1.67l-2.994,-1.592l-3.051,-1.536l-3.109,-1.477l-3.186,-1.382l-3.243,-1.324l-3.281,-1.229l-3.359,-1.17l-3.397,-1.075l-3.435,-1.017l-3.473,-0.921l-3.531,-0.845l-3.551,-0.767l-3.588,-0.672l-3.608,-0.595l-3.647,-0.518l-3.665,-0.422l-3.666,-0.346l-3.684,-0.268l-3.704,-0.154l-3.704,-0.096l-3.704,0l-3.704,0.096l-3.703,0.154l-3.685,0.268l-3.685,0.346l-3.646,0.422l-3.646,0.518l-3.608,0.595l-3.589,0.672l-3.55,0.767l-3.531,0.845l-3.474,0.921l-3.454,1.017l-3.378,1.075l-3.358,1.17l-3.282,1.229l-3.243,1.324l-3.186,1.382l-3.109,1.477l-3.051,1.536l-2.994,1.592l-2.917,1.67l-2.821,1.746l-2.763,1.804l-2.687,1.881l-2.61,1.919l-2.514,1.996l-2.418,2.034l-2.341,2.111l-2.246,2.15l-2.149,2.206l-2.053,2.246l-1.939,2.303l-1.861,2.341l-1.747,2.399l-1.65,2.418l-1.535,2.456l-1.44,2.495l-1.324,2.533l-1.209,2.553l-1.094,2.591l-0.998,2.609l-0.863,2.63l-0.768,2.648l-0.633,2.667l-0.537,2.687l-0.403,2.687l-0.288,2.687l-0.192,2.706l-0.058,2.705" style="fill:none;fill-rule:nonzero;stroke:#333;stroke-opacity:0.25;stroke-width:5.57px;"/><path d="M1244.35,894.301l-0.134,5.412l-0.345,5.393l-0.595,5.411l-0.806,5.374l-1.056,5.354l-1.286,5.335l-1.516,5.297l-1.746,5.258l-1.977,5.22l-2.207,5.182l-2.418,5.104l-2.648,5.067l-2.86,4.989l-3.089,4.913l-3.282,4.855l-3.512,4.779l-3.704,4.683l-3.895,4.605l-4.107,4.51l-4.299,4.395l-4.491,4.318l-4.682,4.203l-4.856,4.087l-5.028,3.973l-5.2,3.857l-5.355,3.742l-5.527,3.608l-5.68,3.474l-5.815,3.358l-5.968,3.205l-6.103,3.071l-6.237,2.936l-6.371,2.763l-6.468,2.649l-6.582,2.475l-6.698,2.322l-6.793,2.169l-6.871,2.015l-6.966,1.862l-7.043,1.688l-7.12,1.516l-7.158,1.363l-7.235,1.19l-7.273,1.017l-7.331,0.864l-7.35,0.69l-7.37,0.499l-7.407,0.346l-7.408,0.173l-7.408,-0l-7.407,-0.173l-7.389,-0.346l-7.388,-0.499l-7.35,-0.69l-7.312,-0.864l-7.273,-1.017l-7.235,-1.19l-7.178,-1.363l-7.1,-1.516l-7.043,-1.688l-6.967,-1.862l-6.889,-2.015l-6.775,-2.169l-6.697,-2.322l-6.583,-2.475l-6.486,-2.649l-6.352,-2.763l-6.237,-2.936l-6.103,-3.071l-5.969,-3.205l-5.834,-3.358l-5.68,-3.474l-5.508,-3.608l-5.373,-3.742l-5.201,-3.857l-5.028,-3.973l-4.855,-4.087l-4.664,-4.203l-4.49,-4.318l-4.299,-4.395l-4.107,-4.51l-3.915,-4.605l-3.704,-4.683l-3.492,-4.779l-3.301,-4.855l-3.071,-4.913l-2.859,-4.989l-2.649,-5.067l-2.418,-5.104l-2.207,-5.182l-1.976,-5.22l-1.747,-5.258l-1.516,-5.297l-1.286,-5.335l-1.055,-5.354l-0.825,-5.374l-0.576,-5.411l-0.365,-5.393l-0.115,-5.412" style="fill:none;fill-rule:nonzero;stroke:#333;stroke-opacity:0.25;stroke-width:5.79px;"/><path d="M1010.78,894.301l-0.057,2.706l-0.173,2.706l-0.288,2.687l-0.422,2.686l-0.518,2.687l-0.653,2.668l-0.748,2.648l-0.883,2.629l-0.979,2.61l-1.113,2.591l-1.209,2.552l-1.324,2.533l-1.42,2.495l-1.535,2.457l-1.651,2.418l-1.746,2.399l-1.862,2.341l-1.957,2.303l-2.054,2.245l-2.149,2.207l-2.245,2.149l-2.322,2.111l-2.438,2.035l-2.514,1.995l-2.59,1.92l-2.687,1.88l-2.764,1.804l-2.84,1.747l-2.917,1.669l-2.974,1.593l-3.052,1.535l-3.128,1.478l-3.166,1.382l-3.244,1.324l-3.301,1.228l-3.339,1.171l-3.397,1.074l-3.435,1.018l-3.492,0.921l-3.512,0.844l-3.551,0.768l-3.588,0.671l-3.627,0.595l-3.628,0.519l-3.665,0.422l-3.665,0.345l-3.704,0.269l-3.685,0.153l-3.704,0.096l-3.704,0l-3.703,-0.096l-3.704,-0.153l-3.685,-0.269l-3.685,-0.345l-3.646,-0.422l-3.646,-0.519l-3.608,-0.595l-3.589,-0.671l-3.569,-0.768l-3.512,-0.844l-3.493,-0.921l-3.435,-1.018l-3.397,-1.074l-3.339,-1.171l-3.301,-1.228l-3.224,-1.324l-3.186,-1.382l-3.128,-1.478l-3.051,-1.535l-2.975,-1.593l-2.917,-1.669l-2.84,-1.747l-2.763,-1.804l-2.668,-1.88l-2.61,-1.92l-2.514,-1.995l-2.418,-2.035l-2.341,-2.111l-2.246,-2.149l-2.149,-2.207l-2.053,-2.245l-1.958,-2.303l-1.842,-2.341l-1.766,-2.399l-1.631,-2.418l-1.535,-2.457l-1.44,-2.495l-1.324,-2.533l-1.209,-2.552l-1.094,-2.591l-0.998,-2.61l-0.863,-2.629l-0.768,-2.648l-0.652,-2.668l-0.518,-2.687l-0.403,-2.686l-0.307,-2.687l-0.173,-2.706l-0.058,-2.706" style="fill:none;fill-rule:nonzero;stroke:#333;stroke-opacity:0.25;stroke-width:8.13px;"/><ellipse cx="777.768" cy="819.224" rx="24.736" ry="24.734" style="fill:#837bab;stroke:#000;stroke-width:3.33px;stroke-linecap:round;stroke-linejoin:miter;stroke-miterlimit:2;"/><ellipse cx="1011.36" cy="819.224" rx="24.736" ry="24.734" style="fill:#837bab;stroke:#000;stroke-width:3.33px;stroke-linecap:round;stroke-linejoin:miter;stroke-miterlimit:2;"/><ellipse cx="1244.95" cy="819.224" rx="24.736" ry="24.734" style="fill:#837bab;stroke:#000;stroke-width:3.33px;stroke-linecap:round;stroke-linejoin:miter;stroke-miterlimit:2;"/><circle cx="1478.54" cy="819.224" r="24.734" style="fill:#837bab;stroke:#000;stroke-width:3.33px;stroke-linecap:round;stroke-linejoin:miter;stroke-miterlimit:2;"/><ellipse cx="1712.13" cy="819.224" rx="24.736" ry="24.734" style="fill:#837bab;stroke:#000;stroke-width:3.33px;stroke-linecap:round;stroke-linejoin:miter;stroke-miterlimit:2;"/><ellipse cx="1945.72" cy="819.224" rx="24.736" ry="24.734" style="fill:#837bab;stroke:#000;stroke-width:3.33px;stroke-linecap:round;stroke-linejoin:miter;stroke-miterlimit:2;"/><circle cx="2179.31" cy="819.224" r="24.734" style="fill:#837bab;stroke:#000;stroke-width:3.33px;stroke-linecap:round;stroke-linejoin:miter;stroke-miterlimit:2;"/><ellipse cx="2412.9" cy="819.224" rx="24.736" ry="24.734" style="fill:#837bab;stroke:#000;stroke-width:3.33px;stroke-linecap:round;stroke-linejoin:miter;stroke-miterlimit:2;"/><ellipse cx="2646.49" cy="819.224" rx="24.736" ry="24.734" style="fill:#837bab;stroke:#000;stroke-width:3.33px;stroke-linecap:round;stroke-linejoin:miter;stroke-miterlimit:2;"/><circle cx="2880.08" cy="819.224" r="24.734" style="fill:#837bab;stroke:#000;stroke-width:3.33px;stroke-linecap:round;stroke-linejoin:miter;stroke-miterlimit:2;"/><ellipse cx="3113.67" cy="819.224" rx="24.736" ry="24.734" style="fill:#837bab;stroke:#000;stroke-width:3.33px;stroke-linecap:round;stroke-linejoin:miter;stroke-miterlimit:2;"/></g></svg>