<?xml version="1.0" encoding="UTF-8" standalone="no"?><!DOCTYPE svg PUBLIC "-//W3C//DTD SVG 1.1//EN" "http://www.w3.org/Graphics/SVG/1.1/DTD/svg11.dtd"><svg width="100%" height="100%" viewBox="0 0 3728 1778" version="1.1" xmlns="http://www.w3.org/2000/svg" xmlns:xlink="http://www.w3.org/1999/xlink" xml:space="preserve" xmlns:serif="http://www.serif.com/" style="fill-rule:evenodd;clip-rule:evenodd;stroke-linejoin:bevel;stroke-miterlimit:1;"><g id="surface6"><rect x="0" y="0" width="3727.78" height="1777.78" style="fill:#fefefe;"/><path d="M3074.49,805.85l-0.056,-2.617l-0.167,-2.617l-0.297,-2.598l-0.39,-2.598l-0.519,-2.599l-0.613,-2.579l-0.742,-2.562l-0.835,-2.542l-0.965,-2.524l-1.058,-2.506l-1.169,-2.468l-1.281,-2.45l-1.392,-2.413l-1.485,-2.376l-1.596,-2.338l-1.689,-2.32l-1.782,-2.264l-1.893,-2.228l-1.986,-2.171l-2.078,-2.134l-2.172,-2.079l-2.264,-2.042l-2.338,-1.967l-2.432,-1.93l-2.524,-1.856l-2.598,-1.819l-2.654,-1.744l-2.747,-1.689l-2.821,-1.615l-2.895,-1.541l-2.951,-1.484l-3.007,-1.429l-3.081,-1.337l-3.137,-1.28l-3.173,-1.188l-3.248,-1.132l-3.267,-1.04l-3.34,-0.983l-3.36,-0.891l-3.415,-0.817l-3.433,-0.742l-3.471,-0.65l-3.489,-0.575l-3.526,-0.501l-3.527,-0.408l-3.563,-0.335l-3.563,-0.259l-3.582,-0.149l-3.583,-0.093l-3.582,0l-3.582,0.093l-3.582,0.149l-3.563,0.259l-3.545,0.335l-3.545,0.408l-3.526,0.501l-3.489,0.575l-3.471,0.65l-3.433,0.742l-3.415,0.817l-3.36,0.891l-3.322,0.983l-3.285,1.04l-3.248,1.132l-3.173,1.188l-3.137,1.28l-3.081,1.337l-3.007,1.429l-2.951,1.484l-2.895,1.541l-2.802,1.615l-2.747,1.689l-2.673,1.744l-2.598,1.819l-2.506,1.856l-2.431,1.93l-2.357,1.967l-2.264,2.042l-2.172,2.079l-2.078,2.134l-1.986,2.171l-1.875,2.228l-1.8,2.264l-1.689,2.32l-1.596,2.338l-1.485,2.376l-1.392,2.413l-1.281,2.45l-1.169,2.468l-1.058,2.506l-0.946,2.524l-0.854,2.542l-0.742,2.562l-0.613,2.579l-0.519,2.599l-0.39,2.598l-0.279,2.598l-0.167,2.617l-0.074,2.617" style="fill:none;fill-rule:nonzero;stroke:#333;stroke-opacity:0.25;stroke-width:25.62px;"/><path d="M3074.49,889.449l-0.111,5.234l-0.353,5.215l-0.557,5.234l-0.798,5.196l-1.021,5.178l-1.243,5.16l-1.466,5.122l-1.689,5.086l-1.912,5.048l-2.134,5.011l-2.339,4.937l-2.561,4.9l-2.765,4.825l-2.989,4.751l-3.173,4.696l-3.397,4.621l-3.582,4.529l-3.767,4.454l-3.972,4.362l-4.157,4.25l-4.343,4.176l-4.529,4.064l-4.677,3.953l-4.862,3.842l-5.03,3.731l-5.197,3.619l-5.345,3.489l-5.494,3.359l-5.623,3.248l-5.772,3.1l-5.902,2.969l-6.032,2.84l-6.143,2.673l-6.273,2.561l-6.366,2.394l-6.478,2.246l-6.57,2.097l-6.644,1.949l-6.737,1.8l-6.812,1.633l-6.867,1.466l-6.941,1.318l-6.997,1.151l-7.034,0.983l-7.09,0.836l-7.108,0.668l-7.127,0.482l-7.145,0.334l-7.164,0.167l-7.183,0l-7.164,-0.167l-7.145,-0.334l-7.127,-0.482l-7.127,-0.668l-7.071,-0.836l-7.034,-0.983l-6.997,-1.151l-6.942,-1.318l-6.867,-1.466l-6.811,-1.633l-6.737,-1.8l-6.645,-1.949l-6.57,-2.097l-6.477,-2.246l-6.366,-2.394l-6.273,-2.561l-6.143,-2.673l-6.032,-2.84l-5.902,-2.969l-5.772,-3.1l-5.642,-3.248l-5.475,-3.359l-5.345,-3.489l-5.197,-3.619l-5.03,-3.731l-4.862,-3.842l-4.677,-3.953l-4.529,-4.064l-4.343,-4.176l-4.157,-4.25l-3.972,-4.362l-3.768,-4.454l-3.582,-4.529l-3.396,-4.621l-3.174,-4.696l-2.988,-4.751l-2.765,-4.825l-2.561,-4.9l-2.339,-4.937l-2.134,-5.011l-1.912,-5.048l-1.689,-5.086l-1.466,-5.122l-1.244,-5.16l-1.02,-5.178l-0.798,-5.196l-0.557,-5.234l-0.353,-5.215l-0.111,-5.234" style="fill:none;fill-rule:nonzero;stroke:#333;stroke-opacity:0.25;stroke-width:27.22px;"/><path d="M3074.49,805.85l-0.167,-7.851l-0.52,-7.832l-0.854,-7.832l-1.187,-7.813l-1.541,-7.777l-1.856,-7.721l-2.208,-7.683l-2.524,-7.647l-2.877,-7.554l-3.192,-7.498l-3.508,-7.424l-3.842,-7.349l-4.157,-7.238l-4.455,-7.146l-4.788,-7.034l-5.067,-6.923l-5.382,-6.792l-5.661,-6.682l-5.957,-6.533l-6.236,-6.403l-6.515,-6.255l-6.774,-6.087l-7.053,-5.939l-7.294,-5.772l-7.535,-5.587l-7.776,-5.419l-8.018,-5.234l-8.241,-5.048l-8.444,-4.863l-8.649,-4.658l-8.871,-4.454l-9.039,-4.232l-9.224,-4.046l-9.391,-3.823l-9.558,-3.582l-9.707,-3.378l-9.855,-3.155l-9.985,-2.914l-10.097,-2.691l-10.207,-2.45l-10.32,-2.209l-10.412,-1.967l-10.486,-1.745l-10.56,-1.484l-10.616,-1.244l-10.653,-0.984l-10.709,-0.742l-10.728,-0.501l-10.746,-0.26l-10.746,0l-10.746,0.26l-10.727,0.501l-10.709,0.742l-10.672,0.984l-10.616,1.244l-10.542,1.484l-10.505,1.745l-10.393,1.967l-10.319,2.209l-10.208,2.45l-10.115,2.691l-9.985,2.914l-9.836,3.155l-9.707,3.378l-9.558,3.582l-9.391,3.823l-9.225,4.046l-9.057,4.232l-8.853,4.454l-8.648,4.658l-8.464,4.863l-8.221,5.048l-8.018,5.234l-7.777,5.419l-7.553,5.587l-7.294,5.772l-7.034,5.939l-6.775,6.087l-6.514,6.255l-6.236,6.403l-5.958,6.533l-5.66,6.682l-5.383,6.792l-5.085,6.923l-4.77,7.034l-4.473,7.146l-4.138,7.238l-3.842,7.349l-3.527,7.424l-3.192,7.498l-2.858,7.554l-2.543,7.647l-2.19,7.683l-1.874,7.721l-1.522,7.777l-1.188,7.813l-0.854,7.832l-0.519,7.832l-0.167,7.851" style="fill:none;fill-rule:nonzero;stroke:#333;stroke-opacity:0.25;stroke-width:24.2px;"/><path d="M3074.49,889.449l-0.223,10.467l-0.687,10.449l-1.132,10.449l-1.596,10.394l-2.041,10.375l-2.487,10.3l-2.933,10.264l-3.378,10.17l-3.823,10.097l-4.269,9.985l-4.677,9.911l-5.122,9.781l-5.531,9.651l-5.957,9.521l-6.366,9.391l-6.775,9.224l-7.164,9.076l-7.553,8.89l-7.944,8.723l-8.315,8.518l-8.685,8.334l-9.039,8.129l-9.391,7.925l-9.725,7.683l-10.06,7.461l-10.356,7.22l-10.69,6.997l-10.988,6.719l-11.265,6.477l-11.544,6.217l-11.804,5.921l-12.064,5.661l-12.305,5.382l-12.509,5.104l-12.751,4.788l-12.936,4.51l-13.14,4.195l-13.307,3.878l-13.474,3.582l-13.623,3.267l-13.753,2.951l-13.864,2.635l-13.994,2.302l-14.068,1.986l-14.161,1.651l-14.216,1.337l-14.273,0.983l-14.309,0.669l-14.328,0.334l-14.328,-0l-14.328,-0.334l-14.31,-0.669l-14.272,-0.983l-14.217,-1.337l-14.142,-1.651l-14.087,-1.986l-13.975,-2.302l-13.883,-2.635l-13.752,-2.951l-13.623,-3.267l-13.474,-3.582l-13.308,-3.878l-13.121,-4.195l-12.955,-4.51l-12.732,-4.788l-12.527,-5.104l-12.305,-5.382l-12.046,-5.661l-11.822,-5.921l-11.544,-6.217l-11.266,-6.477l-10.969,-6.719l-10.69,-6.997l-10.375,-7.22l-10.059,-7.461l-9.725,-7.683l-9.391,-7.925l-9.039,-8.129l-8.667,-8.334l-8.333,-8.518l-7.925,-8.723l-7.573,-8.89l-7.164,-9.076l-6.774,-9.224l-6.366,-9.391l-5.939,-9.521l-5.549,-9.651l-5.104,-9.781l-4.696,-9.911l-4.25,-9.985l-3.823,-10.097l-3.378,-10.17l-2.932,-10.264l-2.506,-10.3l-2.042,-10.375l-1.577,-10.394l-1.132,-10.449l-0.687,-10.449l-0.223,-10.467" style="fill:none;fill-rule:nonzero;stroke:#333;stroke-opacity:0.25;stroke-width:28.27px;"/><path d="M3074.49,805.85l-0.297,-13.084l-0.835,-13.066l-1.429,-13.048l-1.986,-13.01l-2.543,-12.955l-3.118,-12.898l-3.675,-12.807l-4.213,-12.713l-4.788,-12.62l-5.308,-12.491l-5.865,-12.379l-6.403,-12.231l-6.923,-12.064l-7.442,-11.915l-7.944,-11.73l-8.463,-11.525l-8.964,-11.34l-9.447,-11.117l-9.929,-10.895l-10.394,-10.672l-10.857,-10.412l-11.284,-10.152l-11.749,-9.892l-12.156,-9.614l-12.565,-9.335l-12.973,-9.039l-13.344,-8.723l-13.734,-8.407l-14.087,-8.092l-14.421,-7.758l-14.773,-7.424l-15.071,-7.071l-15.367,-6.737l-15.664,-6.366l-15.925,-5.995l-16.184,-5.624l-16.406,-5.252l-16.63,-4.863l-16.852,-4.472l-17.019,-4.084l-17.186,-3.693l-17.353,-3.285l-17.483,-2.877l-17.595,-2.487l-17.687,-2.06l-17.78,-1.652l-17.836,-1.243l-17.873,-0.835l-17.91,-0.409l-17.929,0l-17.91,0.409l-17.872,0.835l-17.836,1.243l-17.78,1.652l-17.688,2.06l-17.594,2.487l-17.483,2.877l-17.353,3.285l-17.187,3.693l-17.019,4.084l-16.833,4.472l-16.648,4.863l-16.407,5.252l-16.184,5.624l-15.924,5.995l-15.664,6.366l-15.368,6.737l-15.07,7.071l-14.774,7.424l-14.42,7.758l-14.087,8.092l-13.734,8.407l-13.345,8.723l-12.973,9.039l-12.565,9.335l-12.156,9.614l-11.73,9.892l-11.303,10.152l-10.857,10.412l-10.393,10.672l-9.93,10.895l-9.446,11.117l-8.946,11.34l-8.463,11.525l-7.962,11.73l-7.443,11.915l-6.923,12.064l-6.403,12.231l-5.846,12.379l-5.326,12.491l-4.77,12.62l-4.232,12.713l-3.675,12.807l-3.099,12.898l-2.561,12.955l-1.986,13.01l-1.411,13.048l-0.854,13.066l-0.296,13.084" style="fill:none;fill-rule:nonzero;stroke:#333;stroke-opacity:0.25;stroke-width:5.81px;"/><path d="M3074.49,889.449l-0.353,15.701l-1.021,15.683l-1.707,15.664l-2.376,15.609l-3.062,15.534l-3.73,15.479l-4.399,15.367l-5.067,15.275l-5.735,15.126l-6.384,14.996l-7.034,14.848l-7.684,14.68l-8.296,14.477l-8.927,14.291l-9.558,14.068l-10.153,13.845l-10.746,13.605l-11.339,13.344l-11.916,13.084l-12.472,12.788l-13.029,12.509l-13.548,12.175l-14.087,11.878l-14.588,11.545l-15.089,11.191l-15.553,10.839l-16.035,10.467l-16.462,10.097l-16.908,9.706l-17.316,9.317l-17.706,8.909l-18.096,8.482l-18.448,8.073l-18.782,7.647l-19.117,7.182l-19.413,6.756l-19.692,6.292l-19.97,5.846l-20.211,5.364l-20.416,4.899l-20.638,4.436l-20.805,3.935l-20.973,3.47l-21.121,2.97l-21.232,2.487l-21.325,1.986l-21.417,1.485l-21.455,1.002l-21.492,0.501l-21.492,-0l-21.492,-0.501l-21.474,-1.002l-21.399,-1.485l-21.325,-1.986l-21.232,-2.487l-21.121,-2.97l-20.972,-3.47l-20.806,-3.935l-20.638,-4.436l-20.434,-4.899l-20.193,-5.364l-19.97,-5.846l-19.692,-6.292l-19.413,-6.756l-19.116,-7.182l-18.783,-7.647l-18.448,-8.073l-18.096,-8.482l-17.705,-8.909l-17.317,-9.317l-16.907,-9.706l-16.481,-10.097l-16.017,-10.467l-15.553,-10.839l-15.089,-11.191l-14.588,-11.545l-14.087,-11.878l-13.548,-12.175l-13.029,-12.509l-12.472,-12.788l-11.915,-13.084l-11.34,-13.344l-10.746,-13.605l-10.152,-13.845l-9.559,-14.068l-8.927,-14.291l-8.314,-14.477l-7.665,-14.68l-7.035,-14.848l-6.384,-14.996l-5.735,-15.126l-5.067,-15.275l-4.398,-15.367l-3.731,-15.479l-3.062,-15.534l-2.394,-15.609l-1.689,-15.664l-1.021,-15.683l-0.353,-15.701" style="fill:none;fill-rule:nonzero;stroke:#333;stroke-opacity:0.25;stroke-width:8.67px;"/><path d="M3074.49,805.85l-0.408,-18.318l-1.188,-18.3l-1.986,-18.263l-2.784,-18.206l-3.563,-18.152l-4.362,-18.04l-5.141,-17.928l-5.902,-17.817l-6.7,-17.669l-7.442,-17.483l-8.204,-17.316l-8.945,-17.131l-9.707,-16.889l-10.412,-16.667l-11.136,-16.425l-11.859,-16.147l-12.547,-15.868l-13.214,-15.572l-13.901,-15.256l-14.551,-14.94l-15.2,-14.569l-15.813,-14.236l-16.425,-13.845l-17.019,-13.456l-17.595,-13.066l-18.151,-12.639l-18.708,-12.212l-19.209,-11.785l-19.729,-11.322l-20.193,-10.876l-20.657,-10.393l-21.121,-9.892l-21.51,-9.41l-21.919,-8.927l-22.309,-8.389l-22.643,-7.869l-22.976,-7.35l-23.293,-6.811l-23.57,-6.274l-23.849,-5.716l-24.054,-5.159l-24.294,-4.603l-24.462,-4.028l-24.628,-3.47l-24.777,-2.896l-24.889,-2.32l-24.962,-1.744l-25.037,-1.169l-25.074,-0.576l-25.093,0l-25.074,0.576l-25.037,1.169l-24.962,1.744l-24.889,2.32l-24.777,2.896l-24.628,3.47l-24.481,4.028l-24.275,4.603l-24.072,5.159l-23.831,5.716l-23.57,6.274l-23.293,6.811l-22.977,7.35l-22.661,7.869l-22.29,8.389l-21.919,8.927l-21.529,9.41l-21.102,9.892l-20.657,10.393l-20.211,10.876l-19.711,11.322l-19.227,11.785l-18.69,12.212l-18.151,12.639l-17.595,13.066l-17.019,13.456l-16.444,13.845l-15.812,14.236l-15.182,14.569l-14.551,14.94l-13.901,15.256l-13.233,15.572l-12.546,15.868l-11.841,16.147l-11.136,16.425l-10.431,16.667l-9.688,16.889l-8.945,17.131l-8.204,17.316l-7.461,17.483l-6.681,17.669l-5.921,17.817l-5.122,17.928l-4.362,18.04l-3.563,18.152l-2.784,18.206l-1.986,18.263l-1.206,18.3l-0.39,18.318" style="fill:none;fill-rule:nonzero;stroke:#333;stroke-opacity:0.25;stroke-width:7.05px;"/><path d="M3074.49,889.449l-0.464,20.935l-1.355,20.917l-2.283,20.879l-3.173,20.805l-4.084,20.732l-4.974,20.619l-5.864,20.509l-6.775,20.341l-7.628,20.193l-8.518,19.988l-9.373,19.804l-10.226,19.561l-11.08,19.302l-11.916,19.061l-12.732,18.764l-13.53,18.448l-14.346,18.151l-15.108,17.78l-15.887,17.446l-16.629,17.057l-17.353,16.666l-18.077,16.258l-18.783,15.813l-19.45,15.386l-20.119,14.941l-20.749,14.439l-21.362,13.975l-21.956,13.456l-22.55,12.936l-23.088,12.416l-23.608,11.879l-24.109,11.321l-24.61,10.764l-25.056,10.19l-25.482,9.595l-25.872,9.001l-26.28,8.389l-26.615,7.777l-26.93,7.164l-27.245,6.533l-27.506,5.902l-27.746,5.271l-27.97,4.602l-28.154,3.972l-28.304,3.304l-28.452,2.654l-28.526,1.986l-28.619,1.336l-28.656,0.65l-28.674,-0l-28.656,-0.65l-28.601,-1.336l-28.544,-1.986l-28.434,-2.654l-28.321,-3.304l-28.155,-3.972l-27.951,-4.602l-27.765,-5.271l-27.506,-5.902l-27.226,-6.533l-26.949,-7.164l-26.614,-7.777l-26.262,-8.389l-25.891,-9.001l-25.482,-9.595l-25.056,-10.19l-24.591,-10.764l-24.128,-11.321l-23.607,-11.879l-23.089,-12.416l-22.531,-12.936l-21.974,-13.456l-21.363,-13.975l-20.749,-14.439l-20.1,-14.941l-19.469,-15.386l-18.764,-15.813l-18.077,-16.258l-17.372,-16.666l-16.629,-17.057l-15.869,-17.446l-15.126,-17.78l-14.328,-18.151l-13.548,-18.448l-12.732,-18.764l-11.897,-19.061l-11.08,-19.302l-10.245,-19.561l-9.372,-19.804l-8.501,-19.988l-7.646,-20.193l-6.756,-20.341l-5.883,-20.509l-4.974,-20.619l-4.083,-20.732l-3.174,-20.805l-2.264,-20.879l-1.374,-20.917l-0.445,-20.935" style="fill:none;fill-rule:nonzero;stroke:#333;stroke-opacity:0.25;stroke-width:7.87px;"/><path d="M3074.49,805.85l-0.52,-23.552l-1.54,-23.534l-2.543,-23.477l-3.582,-23.423l-4.584,-23.31l-5.605,-23.2l-6.607,-23.07l-7.61,-22.902l-8.593,-22.698l-9.577,-22.495l-10.541,-22.271l-11.507,-22.012l-12.472,-21.733l-13.4,-21.418l-14.31,-21.121l-15.237,-20.768l-16.129,-20.397l-17,-20.026l-17.873,-19.599l-18.708,-19.19l-19.525,-18.764l-20.341,-18.281l-21.121,-17.799l-21.882,-17.316l-22.624,-16.778l-23.348,-16.258l-24.035,-15.72l-24.702,-15.145l-25.371,-14.55l-25.965,-13.976l-26.559,-13.363l-27.134,-12.732l-27.672,-12.1l-28.192,-11.47l-28.675,-10.783l-29.12,-10.134l-29.547,-9.447l-29.937,-8.76l-30.307,-8.055l-30.642,-7.349l-30.958,-6.626l-31.217,-5.921l-31.458,-5.196l-31.663,-4.455l-31.848,-3.73l-31.997,-2.97l-32.108,-2.245l-32.201,-1.504l-32.238,-0.742l-32.238,0l-32.238,0.742l-32.201,1.504l-32.108,2.245l-31.997,2.97l-31.848,3.73l-31.663,4.455l-31.458,5.196l-31.217,5.921l-30.958,6.626l-30.642,7.349l-30.308,8.055l-29.936,8.76l-29.547,9.447l-29.12,10.134l-28.675,10.783l-28.192,11.47l-27.672,12.1l-27.134,12.732l-26.559,13.363l-25.965,13.976l-25.352,14.55l-24.722,15.145l-24.034,15.72l-23.348,16.258l-22.624,16.778l-21.882,17.316l-21.121,17.799l-20.341,18.281l-19.525,18.764l-18.708,19.19l-17.873,19.599l-17,20.026l-16.129,20.397l-15.237,20.768l-14.31,21.121l-13.4,21.418l-12.472,21.733l-11.507,22.012l-10.542,22.271l-9.576,22.495l-8.593,22.698l-7.61,22.902l-6.607,23.07l-5.605,23.2l-4.584,23.31l-3.582,23.423l-2.543,23.477l-1.54,23.534l-0.52,23.552" style="fill:none;fill-rule:nonzero;stroke:#333;stroke-opacity:0.25;stroke-width:6.64px;"/><path d="M3074.49,889.449l-0.575,26.169l-1.708,26.15l-2.84,26.095l-3.971,26.021l-5.104,25.909l-6.218,25.779l-7.331,25.612l-8.463,25.445l-9.539,25.223l-10.635,25l-11.73,24.74l-12.787,24.461l-13.846,24.146l-14.885,23.812l-15.924,23.441l-16.926,23.088l-17.91,22.661l-18.894,22.253l-19.859,21.789l-20.786,21.325l-21.696,20.824l-22.606,20.323l-23.459,19.784l-24.313,19.228l-25.149,18.653l-25.927,18.077l-26.708,17.446l-27.468,16.833l-28.155,16.184l-28.86,15.516l-29.528,14.848l-30.141,14.142l-30.753,13.456l-31.31,12.713l-31.867,12.008l-32.35,11.247l-32.831,10.505l-33.278,9.725l-33.667,8.946l-34.057,8.166l-34.372,7.387l-34.688,6.57l-34.966,5.772l-35.189,4.955l-35.393,4.121l-35.542,3.322l-35.672,2.487l-35.764,1.652l-35.82,0.835l-35.838,-0l-35.82,-0.835l-35.765,-1.652l-35.671,-2.487l-35.561,-3.322l-35.374,-4.121l-35.189,-4.955l-34.966,-5.772l-34.688,-6.57l-34.391,-7.387l-34.038,-8.166l-33.686,-8.946l-33.259,-9.725l-32.832,-10.505l-32.368,-11.247l-31.848,-12.008l-31.31,-12.713l-30.753,-13.456l-30.141,-14.142l-29.528,-14.848l-28.861,-15.516l-28.173,-16.184l-27.45,-16.833l-26.707,-17.446l-25.928,-18.077l-25.148,-18.653l-24.313,-19.228l-23.459,-19.784l-22.606,-20.323l-21.696,-20.824l-20.787,-21.325l-19.859,-21.789l-18.893,-22.253l-17.929,-22.661l-16.908,-23.088l-15.924,-23.441l-14.885,-23.812l-13.845,-24.146l-12.788,-24.461l-11.729,-24.74l-10.635,-25l-9.558,-25.223l-8.445,-25.445l-7.331,-25.612l-6.236,-25.779l-5.085,-25.909l-3.972,-26.021l-2.839,-26.095l-1.708,-26.15l-0.575,-26.169" style="fill:none;fill-rule:nonzero;stroke:#333;stroke-opacity:0.25;stroke-width:5.39px;"/><path d="M2848.6,889.449l-0.056,2.617l-0.167,2.617l-0.278,2.598l-0.39,2.598l-0.519,2.599l-0.613,2.579l-0.742,2.562l-0.854,2.542l-0.947,2.524l-1.057,2.506l-1.17,2.468l-1.28,2.45l-1.392,2.413l-1.485,2.376l-1.596,2.338l-1.689,2.32l-1.8,2.264l-1.893,2.227l-1.968,2.172l-2.078,2.134l-2.172,2.079l-2.264,2.042l-2.357,1.967l-2.432,1.93l-2.505,1.856l-2.598,1.819l-2.673,1.744l-2.747,1.689l-2.802,1.615l-2.896,1.54l-2.951,1.485l-3.006,1.429l-3.081,1.337l-3.137,1.28l-3.173,1.188l-3.248,1.132l-3.285,1.04l-3.323,0.983l-3.359,0.891l-3.415,0.817l-3.433,0.742l-3.471,0.65l-3.489,0.575l-3.527,0.501l-3.544,0.408l-3.545,0.334l-3.564,0.26l-3.582,0.149l-3.582,0.093l-3.582,-0l-3.582,-0.093l-3.582,-0.149l-3.563,-0.26l-3.564,-0.334l-3.526,-0.408l-3.526,-0.501l-3.489,-0.575l-3.471,-0.65l-3.434,-0.742l-3.415,-0.817l-3.359,-0.891l-3.341,-0.983l-3.285,-1.04l-3.229,-1.132l-3.174,-1.188l-3.136,-1.28l-3.081,-1.337l-3.007,-1.429l-2.951,-1.485l-2.895,-1.54l-2.821,-1.615l-2.747,-1.689l-2.654,-1.744l-2.598,-1.819l-2.524,-1.856l-2.432,-1.93l-2.338,-1.967l-2.265,-2.042l-2.171,-2.079l-2.079,-2.134l-1.986,-2.172l-1.893,-2.227l-1.781,-2.264l-1.689,-2.32l-1.596,-2.338l-1.485,-2.376l-1.392,-2.413l-1.281,-2.45l-1.169,-2.468l-1.058,-2.506l-0.965,-2.524l-0.835,-2.542l-0.743,-2.562l-0.612,-2.579l-0.52,-2.599l-0.389,-2.598l-0.297,-2.598l-0.167,-2.617l-0.056,-2.617" style="fill:none;fill-rule:nonzero;stroke:#333;stroke-opacity:0.25;stroke-width:26.16px;"/><path d="M2848.6,805.85l-0.111,-5.234l-0.334,-5.215l-0.576,-5.234l-0.779,-5.196l-1.021,-5.178l-1.243,-5.16l-1.485,-5.122l-1.689,-5.086l-1.893,-5.048l-2.135,-5.011l-2.338,-4.937l-2.561,-4.9l-2.766,-4.825l-2.988,-4.751l-3.173,-4.696l-3.397,-4.621l-3.582,-4.529l-3.767,-4.454l-3.972,-4.362l-4.158,-4.25l-4.343,-4.176l-4.528,-4.064l-4.696,-3.954l-4.862,-3.841l-5.03,-3.731l-5.178,-3.619l-5.345,-3.489l-5.494,-3.359l-5.623,-3.248l-5.772,-3.1l-5.902,-2.969l-6.032,-2.84l-6.162,-2.673l-6.255,-2.561l-6.366,-2.394l-6.477,-2.246l-6.57,-2.097l-6.644,-1.949l-6.737,-1.8l-6.812,-1.633l-6.885,-1.466l-6.942,-1.318l-6.978,-1.151l-7.034,-0.983l-7.09,-0.836l-7.108,-0.668l-7.127,-0.482l-7.164,-0.334l-7.164,-0.167l-7.164,-0l-7.164,0.167l-7.146,0.334l-7.145,0.482l-7.108,0.668l-7.072,0.836l-7.034,0.983l-6.997,1.151l-6.941,1.318l-6.867,1.466l-6.811,1.633l-6.737,1.8l-6.663,1.949l-6.552,2.097l-6.477,2.246l-6.366,2.394l-6.273,2.561l-6.144,2.673l-6.031,2.84l-5.902,2.969l-5.772,3.1l-5.642,3.248l-5.494,3.359l-5.327,3.489l-5.196,3.619l-5.03,3.731l-4.863,3.841l-4.695,3.954l-4.51,4.064l-4.343,4.176l-4.158,4.25l-3.971,4.362l-3.786,4.454l-3.582,4.529l-3.378,4.621l-3.193,4.696l-2.969,4.751l-2.765,4.825l-2.562,4.9l-2.338,4.937l-2.135,5.011l-1.911,5.048l-1.689,5.086l-1.466,5.122l-1.244,5.16l-1.021,5.178l-0.798,5.196l-0.575,5.234l-0.334,5.215l-0.111,5.234" style="fill:none;fill-rule:nonzero;stroke:#333;stroke-opacity:0.25;stroke-width:23.49px;"/><path d="M2848.6,889.449l-0.167,7.85l-0.501,7.833l-0.854,7.832l-1.188,7.813l-1.54,7.777l-1.856,7.721l-2.209,7.683l-2.542,7.647l-2.858,7.554l-3.193,7.498l-3.507,7.424l-3.842,7.349l-4.158,7.238l-4.473,7.146l-4.769,7.034l-5.067,6.923l-5.382,6.792l-5.661,6.682l-5.958,6.533l-6.236,6.403l-6.514,6.254l-6.774,6.088l-7.053,5.939l-7.294,5.772l-7.535,5.587l-7.777,5.419l-8.017,5.234l-8.241,5.048l-8.444,4.863l-8.668,4.658l-8.853,4.454l-9.038,4.232l-9.224,4.046l-9.391,3.823l-9.559,3.582l-9.706,3.378l-9.855,3.155l-9.986,2.914l-10.096,2.691l-10.226,2.45l-10.301,2.209l-10.412,1.967l-10.486,1.745l-10.56,1.484l-10.616,1.244l-10.672,0.983l-10.691,0.743l-10.727,0.501l-10.746,0.26l-10.765,-0l-10.746,-0.26l-10.727,-0.501l-10.69,-0.743l-10.672,-0.983l-10.616,-1.244l-10.561,-1.484l-10.486,-1.745l-10.412,-1.967l-10.3,-2.209l-10.227,-2.45l-10.096,-2.691l-9.985,-2.914l-9.837,-3.155l-9.725,-3.378l-9.54,-3.582l-9.409,-3.823l-9.224,-4.046l-9.039,-4.232l-8.853,-4.454l-8.667,-4.658l-8.445,-4.863l-8.24,-5.048l-7.999,-5.234l-7.795,-5.419l-7.536,-5.587l-7.294,-5.772l-7.034,-5.939l-6.792,-6.088l-6.496,-6.254l-6.236,-6.403l-5.958,-6.533l-5.679,-6.682l-5.364,-6.792l-5.085,-6.923l-4.77,-7.034l-4.473,-7.146l-4.157,-7.238l-3.824,-7.349l-3.526,-7.424l-3.192,-7.498l-2.858,-7.554l-2.543,-7.647l-2.19,-7.683l-1.875,-7.721l-1.521,-7.777l-1.207,-7.813l-0.854,-7.832l-0.501,-7.833l-0.167,-7.85" style="fill:none;fill-rule:nonzero;stroke:#333;stroke-opacity:0.25;stroke-width:26.33px;"/><path d="M2848.6,805.85l-0.223,-10.467l-0.686,-10.449l-1.132,-10.45l-1.578,-10.393l-2.042,-10.375l-2.487,-10.3l-2.951,-10.264l-3.377,-10.17l-3.805,-10.097l-4.269,-9.985l-4.677,-9.911l-5.122,-9.781l-5.531,-9.651l-5.958,-9.521l-6.366,-9.391l-6.774,-9.224l-7.164,-9.076l-7.554,-8.89l-7.943,-8.723l-8.315,-8.518l-8.686,-8.334l-9.038,-8.129l-9.391,-7.925l-9.726,-7.683l-10.059,-7.461l-10.375,-7.22l-10.671,-6.997l-10.988,-6.719l-11.265,-6.477l-11.545,-6.217l-11.803,-5.921l-12.064,-5.661l-12.305,-5.382l-12.528,-5.104l-12.732,-4.788l-12.954,-4.51l-13.122,-4.195l-13.307,-3.879l-13.474,-3.582l-13.623,-3.266l-13.753,-2.951l-13.882,-2.635l-13.976,-2.302l-14.068,-1.986l-14.161,-1.652l-14.217,-1.336l-14.272,-0.983l-14.309,-0.669l-14.328,-0.334l-14.328,0l-14.328,0.334l-14.31,0.669l-14.272,0.983l-14.217,1.336l-14.161,1.652l-14.068,1.986l-13.994,2.302l-13.864,2.635l-13.753,2.951l-13.622,3.266l-13.475,3.582l-13.307,3.879l-13.121,4.195l-12.955,4.51l-12.732,4.788l-12.528,5.104l-12.305,5.382l-12.063,5.661l-11.804,5.921l-11.544,6.217l-11.266,6.477l-10.987,6.719l-10.672,6.997l-10.375,7.22l-10.059,7.461l-9.725,7.683l-9.392,7.925l-9.038,8.129l-8.686,8.334l-8.315,8.518l-7.943,8.723l-7.554,8.89l-7.164,9.076l-6.774,9.224l-6.366,9.391l-5.958,9.521l-5.531,9.651l-5.122,9.781l-4.677,9.911l-4.269,9.985l-3.804,10.097l-3.397,10.17l-2.932,10.264l-2.487,10.3l-2.042,10.375l-1.577,10.393l-1.151,10.45l-0.668,10.449l-0.241,10.467" style="fill:none;fill-rule:nonzero;stroke:#333;stroke-opacity:0.25;stroke-width:6.44px;"/><path d="M2848.6,889.449l-0.278,13.084l-0.854,13.066l-1.411,13.048l-1.985,13.01l-2.562,12.954l-3.099,12.899l-3.675,12.807l-4.232,12.713l-4.769,12.62l-5.327,12.491l-5.846,12.379l-6.403,12.231l-6.923,12.064l-7.442,11.915l-7.962,11.73l-8.464,11.525l-8.945,11.34l-9.447,11.117l-9.93,10.895l-10.393,10.672l-10.857,10.411l-11.303,10.153l-11.73,9.892l-12.156,9.614l-12.565,9.335l-12.973,9.039l-13.363,8.723l-13.716,8.407l-14.086,8.092l-14.44,7.758l-14.755,7.424l-15.07,7.071l-15.367,6.737l-15.665,6.366l-15.924,5.995l-16.184,5.623l-16.407,5.253l-16.647,4.862l-16.834,4.473l-17.019,4.083l-17.205,3.694l-17.335,3.285l-17.483,2.877l-17.594,2.487l-17.687,2.06l-17.781,1.651l-17.835,1.244l-17.873,0.835l-17.91,0.408l-17.929,0l-17.91,-0.408l-17.873,-0.835l-17.854,-1.244l-17.762,-1.651l-17.705,-2.06l-17.595,-2.487l-17.464,-2.877l-17.354,-3.285l-17.186,-3.694l-17.019,-4.083l-16.852,-4.473l-16.63,-4.862l-16.406,-5.253l-16.184,-5.623l-15.924,-5.995l-15.665,-6.366l-15.367,-6.737l-15.089,-7.071l-14.755,-7.424l-14.421,-7.758l-14.086,-8.092l-13.734,-8.407l-13.345,-8.723l-12.973,-9.039l-12.565,-9.335l-12.156,-9.614l-11.749,-9.892l-11.284,-10.153l-10.857,-10.411l-10.393,-10.672l-9.93,-10.895l-9.447,-11.117l-8.964,-11.34l-8.463,-11.525l-7.944,-11.73l-7.442,-11.915l-6.923,-12.064l-6.403,-12.231l-5.865,-12.379l-5.308,-12.491l-4.788,-12.62l-4.213,-12.713l-3.675,-12.807l-3.118,-12.899l-2.543,-12.954l-1.985,-13.01l-1.43,-13.048l-0.853,-13.066l-0.279,-13.084" style="fill:none;fill-rule:nonzero;stroke:#333;stroke-opacity:0.25;stroke-width:9.27px;"/><path d="M2848.6,805.85l-0.334,-15.701l-1.021,-15.683l-1.707,-15.664l-2.376,-15.609l-3.062,-15.534l-3.731,-15.479l-4.417,-15.367l-5.067,-15.275l-5.716,-15.126l-6.384,-14.996l-7.035,-14.848l-7.683,-14.681l-8.296,-14.476l-8.946,-14.291l-9.54,-14.068l-10.152,-13.845l-10.764,-13.605l-11.322,-13.344l-11.915,-13.085l-12.472,-12.787l-13.029,-12.509l-13.548,-12.175l-14.087,-11.878l-14.588,-11.545l-15.089,-11.191l-15.553,-10.839l-16.035,-10.467l-16.463,-10.097l-16.907,-9.707l-17.317,-9.316l-17.705,-8.909l-18.096,-8.482l-18.448,-8.073l-18.783,-7.647l-19.116,-7.182l-19.413,-6.756l-19.711,-6.292l-19.951,-5.846l-20.212,-5.364l-20.434,-4.899l-20.619,-4.436l-20.824,-3.935l-20.973,-3.47l-21.102,-2.97l-21.232,-2.487l-21.344,-1.986l-21.399,-1.485l-21.455,-1.002l-21.492,-0.501l-21.51,0l-21.492,0.501l-21.455,1.002l-21.399,1.485l-21.325,1.986l-21.232,2.487l-21.121,2.97l-20.973,3.47l-20.823,3.935l-20.62,4.436l-20.434,4.899l-20.212,5.364l-19.951,5.846l-19.692,6.292l-19.432,6.756l-19.098,7.182l-18.801,7.647l-18.448,8.073l-18.077,8.482l-17.724,8.909l-17.316,9.316l-16.89,9.707l-16.481,10.097l-16.016,10.467l-15.572,10.839l-15.07,11.191l-14.607,11.545l-14.068,11.878l-13.567,12.175l-13.01,12.509l-12.472,12.787l-11.916,13.085l-11.339,13.344l-10.746,13.605l-10.153,13.845l-9.558,14.068l-8.927,14.291l-8.315,14.476l-7.665,14.681l-7.034,14.848l-6.384,14.996l-5.735,15.126l-5.067,15.275l-4.399,15.367l-3.749,15.479l-3.043,15.534l-2.395,15.609l-1.707,15.664l-1.021,15.683l-0.334,15.701" style="fill:none;fill-rule:nonzero;stroke:#333;stroke-opacity:0.25;stroke-width:7.46px;"/><path d="M2848.6,889.449l-0.39,18.318l-1.187,18.3l-1.986,18.262l-2.784,18.207l-3.582,18.152l-4.343,18.04l-5.141,17.928l-5.921,17.817l-6.681,17.669l-7.443,17.483l-8.203,17.316l-8.964,17.131l-9.688,16.889l-10.412,16.667l-11.155,16.425l-11.841,16.147l-12.546,15.868l-13.214,15.572l-13.901,15.256l-14.551,14.94l-15.2,14.569l-15.813,14.236l-16.425,13.845l-17.02,13.456l-17.594,13.066l-18.17,12.639l-18.689,12.212l-19.21,11.785l-19.729,11.322l-20.192,10.876l-20.676,10.393l-21.102,9.892l-21.511,9.41l-21.937,8.927l-22.29,8.389l-22.643,7.869l-22.995,7.35l-23.292,6.811l-23.571,6.273l-23.831,5.717l-24.071,5.159l-24.276,4.603l-24.48,4.028l-24.629,3.47l-24.759,2.896l-24.888,2.319l-24.981,1.745l-25.037,1.169l-25.074,0.576l-25.074,-0l-25.074,-0.576l-25.037,-1.169l-24.981,-1.745l-24.889,-2.319l-24.758,-2.896l-24.629,-3.47l-24.48,-4.028l-24.276,-4.603l-24.072,-5.159l-23.83,-5.717l-23.571,-6.273l-23.292,-6.811l-22.977,-7.35l-22.661,-7.869l-22.29,-8.389l-21.919,-8.927l-21.529,-9.41l-21.102,-9.892l-20.676,-10.393l-20.193,-10.876l-19.71,-11.322l-19.228,-11.785l-18.689,-12.212l-18.151,-12.639l-17.613,-13.066l-17.02,-13.456l-16.425,-13.845l-15.813,-14.236l-15.2,-14.569l-14.551,-14.94l-13.882,-15.256l-13.233,-15.572l-12.547,-15.868l-11.841,-16.147l-11.135,-16.425l-10.431,-16.667l-9.688,-16.889l-8.964,-17.131l-8.204,-17.316l-7.442,-17.483l-6.681,-17.669l-5.921,-17.817l-5.141,-17.928l-4.343,-18.04l-3.582,-18.152l-2.784,-18.207l-1.986,-18.262l-1.187,-18.3l-0.39,-18.318" style="fill:none;fill-rule:nonzero;stroke:#333;stroke-opacity:0.25;stroke-width:8.67px;"/><path d="M2848.6,805.85l-0.445,-20.935l-1.374,-20.917l-2.264,-20.879l-3.174,-20.806l-4.083,-20.731l-4.974,-20.619l-5.883,-20.509l-6.756,-20.341l-7.628,-20.193l-8.519,-19.988l-9.372,-19.804l-10.245,-19.561l-11.062,-19.302l-11.915,-19.061l-12.732,-18.764l-13.548,-18.448l-14.328,-18.151l-15.108,-17.78l-15.887,-17.446l-16.629,-17.057l-17.372,-16.666l-18.077,-16.258l-18.764,-15.813l-19.45,-15.386l-20.119,-14.941l-20.75,-14.439l-21.362,-13.975l-21.974,-13.456l-22.532,-12.936l-23.088,-12.416l-23.607,-11.879l-24.128,-11.321l-24.591,-10.764l-25.056,-10.19l-25.482,-9.595l-25.891,-9.001l-26.262,-8.389l-26.614,-7.777l-26.949,-7.164l-27.227,-6.533l-27.505,-5.902l-27.765,-5.271l-27.951,-4.602l-28.155,-3.972l-28.322,-3.304l-28.433,-2.654l-28.545,-1.986l-28.6,-1.336l-28.656,-0.65l-28.674,0l-28.656,0.65l-28.619,1.336l-28.526,1.986l-28.452,2.654l-28.304,3.304l-28.155,3.972l-27.969,4.602l-27.746,5.271l-27.506,5.902l-27.245,6.533l-26.93,7.164l-26.615,7.777l-26.262,8.389l-25.89,9.001l-25.483,9.595l-25.055,10.19l-24.61,10.764l-24.109,11.321l-23.608,11.879l-23.088,12.416l-22.55,12.936l-21.956,13.456l-21.362,13.975l-20.749,14.439l-20.119,14.941l-19.45,15.386l-18.764,15.813l-18.096,16.258l-17.353,16.666l-16.629,17.057l-15.887,17.446l-15.108,17.78l-14.347,18.151l-13.529,18.448l-12.732,18.764l-11.916,19.061l-11.08,19.302l-10.226,19.561l-9.373,19.804l-8.518,19.988l-7.628,20.193l-6.775,20.341l-5.865,20.509l-4.974,20.619l-4.083,20.731l-3.173,20.806l-2.283,20.879l-1.355,20.917l-0.464,20.935" style="fill:none;fill-rule:nonzero;stroke:#333;stroke-opacity:0.25;stroke-width:5.81px;"/><path d="M2848.6,889.449l-0.501,23.552l-1.54,23.533l-2.543,23.478l-3.582,23.423l-4.584,23.31l-5.605,23.2l-6.608,23.069l-7.609,22.903l-8.593,22.698l-9.577,22.495l-10.542,22.271l-11.525,22.012l-12.454,21.733l-13.4,21.418l-14.328,21.121l-15.219,20.768l-16.128,20.397l-17,20.026l-17.873,19.599l-18.708,19.19l-19.544,18.764l-20.322,18.281l-21.121,17.799l-21.901,17.316l-22.624,16.778l-23.329,16.258l-24.035,15.72l-24.721,15.145l-25.353,14.55l-25.964,13.976l-26.578,13.363l-27.134,12.731l-27.672,12.101l-28.174,11.47l-28.674,10.783l-29.12,10.134l-29.547,9.447l-29.937,8.76l-30.308,8.055l-30.66,7.349l-30.939,6.626l-31.217,5.921l-31.459,5.196l-31.681,4.454l-31.848,3.731l-31.997,2.97l-32.108,2.245l-32.182,1.504l-32.238,0.742l-32.257,-0l-32.238,-0.742l-32.182,-1.504l-32.108,-2.245l-31.997,-2.97l-31.848,-3.731l-31.663,-4.454l-31.458,-5.196l-31.236,-5.921l-30.939,-6.626l-30.642,-7.349l-30.308,-8.055l-29.936,-8.76l-29.547,-9.447l-29.139,-10.134l-28.656,-10.783l-28.192,-11.47l-27.672,-12.101l-27.134,-12.731l-26.559,-13.363l-25.984,-13.976l-25.352,-14.55l-24.703,-15.145l-24.035,-15.72l-23.347,-16.258l-22.625,-16.778l-21.881,-17.316l-21.121,-17.799l-20.342,-18.281l-19.524,-18.764l-18.708,-19.19l-17.873,-19.599l-17.001,-20.026l-16.128,-20.397l-15.237,-20.768l-14.328,-21.121l-13.4,-21.418l-12.454,-21.733l-11.507,-22.012l-10.56,-22.271l-9.577,-22.495l-8.593,-22.698l-7.591,-22.903l-6.607,-23.069l-5.605,-23.2l-4.584,-23.31l-3.582,-23.423l-2.562,-23.478l-1.522,-23.533l-0.519,-23.552" style="fill:none;fill-rule:nonzero;stroke:#333;stroke-opacity:0.25;stroke-width:5.6px;"/><path d="M2622.73,805.85l-0.056,-2.617l-0.167,-2.617l-0.278,-2.598l-0.409,-2.598l-0.501,-2.599l-0.631,-2.579l-0.724,-2.562l-0.853,-2.542l-0.947,-2.524l-1.076,-2.506l-1.17,-2.468l-1.28,-2.45l-1.374,-2.413l-1.484,-2.376l-1.596,-2.338l-1.689,-2.32l-1.801,-2.264l-1.893,-2.228l-1.986,-2.171l-2.078,-2.134l-2.172,-2.079l-2.245,-2.042l-2.358,-1.967l-2.431,-1.93l-2.505,-1.856l-2.599,-1.819l-2.672,-1.744l-2.747,-1.689l-2.821,-1.615l-2.877,-1.541l-2.951,-1.484l-3.025,-1.429l-3.062,-1.337l-3.137,-1.28l-3.192,-1.188l-3.23,-1.132l-3.285,-1.04l-3.322,-0.983l-3.378,-0.891l-3.396,-0.817l-3.434,-0.742l-3.47,-0.65l-3.508,-0.575l-3.508,-0.501l-3.545,-0.408l-3.545,-0.335l-3.582,-0.259l-3.563,-0.149l-3.582,-0.093l-3.582,0l-3.582,0.093l-3.582,0.149l-3.563,0.259l-3.564,0.335l-3.545,0.408l-3.508,0.501l-3.507,0.575l-3.452,0.65l-3.452,0.742l-3.397,0.817l-3.378,0.891l-3.322,0.983l-3.285,1.04l-3.229,1.132l-3.193,1.188l-3.118,1.28l-3.08,1.337l-3.026,1.429l-2.951,1.484l-2.876,1.541l-2.821,1.615l-2.747,1.689l-2.673,1.744l-2.58,1.819l-2.524,1.856l-2.431,1.93l-2.339,1.967l-2.264,2.042l-2.171,2.079l-2.079,2.134l-1.986,2.171l-1.893,2.228l-1.782,2.264l-1.707,2.32l-1.578,2.338l-1.503,2.376l-1.373,2.413l-1.281,2.45l-1.169,2.468l-1.077,2.506l-0.946,2.524l-0.854,2.542l-0.724,2.562l-0.631,2.579l-0.501,2.599l-0.408,2.598l-0.279,2.598l-0.167,2.617l-0.055,2.617" style="fill:none;fill-rule:nonzero;stroke:#333;stroke-opacity:0.25;stroke-width:25.98px;"/><path d="M2622.73,889.449l-0.112,5.234l-0.334,5.215l-0.575,5.234l-0.798,5.196l-1.021,5.178l-1.243,5.16l-1.466,5.122l-1.689,5.086l-1.912,5.048l-2.116,5.011l-2.357,4.937l-2.561,4.9l-2.765,4.825l-2.97,4.751l-3.192,4.696l-3.378,4.621l-3.582,4.529l-3.786,4.454l-3.972,4.362l-4.157,4.25l-4.343,4.176l-4.51,4.064l-4.696,3.953l-4.863,3.842l-5.029,3.731l-5.178,3.619l-5.345,3.489l-5.494,3.359l-5.642,3.248l-5.772,3.1l-5.902,2.969l-6.032,2.84l-6.143,2.673l-6.255,2.561l-6.384,2.394l-6.459,2.246l-6.57,2.097l-6.663,1.949l-6.737,1.8l-6.793,1.633l-6.886,1.466l-6.941,1.318l-6.997,1.151l-7.034,0.983l-7.071,0.836l-7.109,0.668l-7.145,0.482l-7.145,0.334l-7.164,0.167l-7.164,0l-7.164,-0.167l-7.164,-0.334l-7.127,-0.482l-7.109,-0.668l-7.071,-0.836l-7.052,-0.983l-6.979,-1.151l-6.941,-1.318l-6.886,-1.466l-6.811,-1.633l-6.719,-1.8l-6.663,-1.949l-6.57,-2.097l-6.458,-2.246l-6.385,-2.394l-6.255,-2.561l-6.161,-2.673l-6.014,-2.84l-5.92,-2.969l-5.754,-3.1l-5.642,-3.248l-5.493,-3.359l-5.346,-3.489l-5.178,-3.619l-5.029,-3.731l-4.863,-3.842l-4.695,-3.953l-4.529,-4.064l-4.324,-4.176l-4.158,-4.25l-3.972,-4.362l-3.786,-4.454l-3.582,-4.529l-3.378,-4.621l-3.192,-4.696l-2.969,-4.751l-2.784,-4.825l-2.543,-4.9l-2.357,-4.937l-2.116,-5.011l-1.911,-5.048l-1.689,-5.086l-1.467,-5.122l-1.243,-5.16l-1.021,-5.178l-0.798,-5.196l-0.575,-5.234l-0.334,-5.215l-0.112,-5.234" style="fill:none;fill-rule:nonzero;stroke:#333;stroke-opacity:0.25;stroke-width:28.8px;"/><path d="M2622.73,805.85l-0.167,-7.851l-0.52,-7.832l-0.835,-7.832l-1.206,-7.813l-1.522,-7.777l-1.875,-7.721l-2.19,-7.683l-2.543,-7.647l-2.858,-7.554l-3.192,-7.498l-3.526,-7.424l-3.824,-7.349l-4.157,-7.238l-4.473,-7.146l-4.77,-7.034l-5.085,-6.923l-5.364,-6.792l-5.679,-6.682l-5.957,-6.533l-6.237,-6.403l-6.495,-6.255l-6.793,-6.087l-7.034,-5.939l-7.294,-5.772l-7.535,-5.587l-7.795,-5.419l-8,-5.234l-8.24,-5.048l-8.463,-4.863l-8.649,-4.658l-8.853,-4.454l-9.038,-4.232l-9.225,-4.046l-9.409,-3.823l-9.558,-3.582l-9.707,-3.378l-9.837,-3.155l-9.985,-2.914l-10.096,-2.691l-10.227,-2.45l-10.319,-2.209l-10.393,-1.967l-10.486,-1.745l-10.561,-1.484l-10.616,-1.244l-10.671,-0.984l-10.691,-0.742l-10.746,-0.501l-10.746,-0.26l-10.746,0l-10.746,0.26l-10.727,0.501l-10.709,0.742l-10.653,0.984l-10.616,1.244l-10.561,1.484l-10.486,1.745l-10.412,1.967l-10.319,2.209l-10.208,2.45l-10.096,2.691l-9.985,2.914l-9.855,3.155l-9.707,3.378l-9.558,3.582l-9.391,3.823l-9.225,4.046l-9.038,4.232l-8.853,4.454l-8.667,4.658l-8.445,4.863l-8.24,5.048l-8.018,5.234l-7.777,5.419l-7.535,5.587l-7.294,5.772l-7.052,5.939l-6.775,6.087l-6.514,6.255l-6.236,6.403l-5.958,6.533l-5.66,6.682l-5.383,6.792l-5.066,6.923l-4.77,7.034l-4.473,7.146l-4.158,7.238l-3.841,7.349l-3.508,7.424l-3.192,7.498l-2.859,7.554l-2.542,7.647l-2.209,7.683l-1.856,7.721l-1.54,7.777l-1.188,7.813l-0.854,7.832l-0.501,7.832l-0.185,7.851" style="fill:none;fill-rule:nonzero;stroke:#333;stroke-opacity:0.25;stroke-width:6.23px;"/><path d="M2622.73,889.449l-0.223,10.467l-0.687,10.449l-1.132,10.449l-1.596,10.394l-2.041,10.375l-2.487,10.3l-2.933,10.264l-3.378,10.17l-3.823,10.097l-4.25,9.985l-4.696,9.911l-5.104,9.781l-5.549,9.651l-5.957,9.521l-6.366,9.391l-6.756,9.224l-7.183,9.076l-7.553,8.89l-7.944,8.723l-8.315,8.518l-8.667,8.334l-9.038,8.129l-9.392,7.925l-9.725,7.683l-10.059,7.461l-10.375,7.22l-10.69,6.997l-10.969,6.719l-11.266,6.477l-11.544,6.217l-11.822,5.921l-12.045,5.661l-12.305,5.382l-12.528,5.104l-12.751,4.788l-12.936,4.51l-13.121,4.195l-13.326,3.878l-13.456,3.582l-13.622,3.267l-13.753,2.951l-13.883,2.635l-13.975,2.302l-14.087,1.986l-14.142,1.651l-14.217,1.337l-14.272,0.983l-14.31,0.669l-14.328,0.334l-14.346,-0l-14.31,-0.334l-14.309,-0.669l-14.272,-0.983l-14.217,-1.337l-14.161,-1.651l-14.068,-1.986l-13.994,-2.302l-13.864,-2.635l-13.771,-2.951l-13.605,-3.267l-13.474,-3.582l-13.307,-3.878l-13.14,-4.195l-12.936,-4.51l-12.751,-4.788l-12.527,-5.104l-12.287,-5.382l-12.064,-5.661l-11.804,-5.921l-11.544,-6.217l-11.265,-6.477l-10.988,-6.719l-10.69,-6.997l-10.375,-7.22l-10.04,-7.461l-9.726,-7.683l-9.391,-7.925l-9.038,-8.129l-8.686,-8.334l-8.315,-8.518l-7.943,-8.723l-7.554,-8.89l-7.164,-9.076l-6.774,-9.224l-6.366,-9.391l-5.958,-9.521l-5.531,-9.651l-5.122,-9.781l-4.696,-9.911l-4.25,-9.985l-3.823,-10.097l-3.378,-10.17l-2.932,-10.264l-2.487,-10.3l-2.042,-10.375l-1.596,-10.394l-1.132,-10.449l-0.687,-10.449l-0.223,-10.467" style="fill:none;fill-rule:nonzero;stroke:#333;stroke-opacity:0.25;stroke-width:10.26px;"/><path d="M2622.73,805.85l-0.279,-13.084l-0.853,-13.066l-1.429,-13.048l-1.986,-13.01l-2.543,-12.955l-3.118,-12.898l-3.656,-12.807l-4.232,-12.713l-4.77,-12.62l-5.326,-12.491l-5.865,-12.379l-6.385,-12.231l-6.922,-12.064l-7.443,-11.915l-7.962,-11.73l-8.463,-11.525l-8.964,-11.34l-9.447,-11.117l-9.929,-10.895l-10.394,-10.672l-10.839,-10.412l-11.302,-10.152l-11.73,-9.892l-12.157,-9.614l-12.583,-9.335l-12.955,-9.039l-13.362,-8.723l-13.716,-8.407l-14.087,-8.092l-14.439,-7.758l-14.755,-7.424l-15.07,-7.071l-15.386,-6.737l-15.646,-6.366l-15.924,-5.995l-16.184,-5.624l-16.425,-5.252l-16.63,-4.863l-16.833,-4.472l-17.019,-4.084l-17.205,-3.693l-17.335,-3.285l-17.483,-2.877l-17.594,-2.487l-17.688,-2.06l-17.78,-1.652l-17.836,-1.243l-17.891,-0.835l-17.91,-0.409l-17.91,0l-17.91,0.409l-17.892,0.835l-17.835,1.243l-17.762,1.652l-17.706,2.06l-17.594,2.487l-17.483,2.877l-17.335,3.285l-17.186,3.693l-17.038,4.084l-16.833,4.472l-16.63,4.863l-16.425,5.252l-16.165,5.624l-15.943,5.995l-15.646,6.366l-15.386,6.737l-15.07,7.071l-14.755,7.424l-14.439,7.758l-14.069,8.092l-13.734,8.407l-13.363,8.723l-12.954,9.039l-12.584,9.335l-12.156,9.614l-11.73,9.892l-11.303,10.152l-10.838,10.412l-10.394,10.672l-9.929,10.895l-9.447,11.117l-8.964,11.34l-8.463,11.525l-7.962,11.73l-7.443,11.915l-6.923,12.064l-6.384,12.231l-5.865,12.379l-5.327,12.491l-4.769,12.62l-4.232,12.713l-3.656,12.807l-3.118,12.898l-2.543,12.955l-1.986,13.01l-1.429,13.048l-0.854,13.066l-0.278,13.084" style="fill:none;fill-rule:nonzero;stroke:#333;stroke-opacity:0.25;stroke-width:7.05px;"/><path d="M2622.73,889.449l-0.334,15.701l-1.021,15.683l-1.707,15.664l-2.395,15.609l-3.043,15.534l-3.749,15.479l-4.399,15.367l-5.067,15.275l-5.735,15.126l-6.384,14.996l-7.034,14.848l-7.665,14.68l-8.315,14.477l-8.927,14.291l-9.54,14.068l-10.171,13.845l-10.746,13.605l-11.34,13.344l-11.896,13.084l-12.491,12.788l-13.01,12.509l-13.567,12.175l-14.068,11.878l-14.588,11.545l-15.089,11.191l-15.572,10.839l-16.017,10.467l-16.481,10.097l-16.889,9.706l-17.316,9.317l-17.724,8.909l-18.077,8.482l-18.449,8.073l-18.8,7.647l-19.098,7.182l-19.414,6.756l-19.71,6.292l-19.951,5.846l-20.212,5.364l-20.434,4.899l-20.62,4.436l-20.823,3.935l-20.973,3.47l-21.121,2.97l-21.232,2.487l-21.325,1.986l-21.399,1.485l-21.455,1.002l-21.492,0.501l-21.51,-0l-21.492,-0.501l-21.455,-1.002l-21.4,-1.485l-21.343,-1.986l-21.232,-2.487l-21.103,-2.97l-20.972,-3.47l-20.824,-3.935l-20.619,-4.436l-20.435,-4.899l-20.211,-5.364l-19.952,-5.846l-19.71,-6.292l-19.413,-6.756l-19.117,-7.182l-18.782,-7.647l-18.448,-8.073l-18.096,-8.482l-17.706,-8.909l-17.316,-9.317l-16.907,-9.706l-16.463,-10.097l-16.035,-10.467l-15.553,-10.839l-15.089,-11.191l-14.588,-11.545l-14.087,-11.878l-13.548,-12.175l-13.029,-12.509l-12.472,-12.788l-11.897,-13.084l-11.34,-13.344l-10.764,-13.605l-10.152,-13.845l-9.54,-14.068l-8.927,-14.291l-8.315,-14.477l-7.684,-14.68l-7.015,-14.848l-6.385,-14.996l-5.734,-15.126l-5.067,-15.275l-4.417,-15.367l-3.731,-15.479l-3.062,-15.534l-2.376,-15.609l-1.707,-15.664l-1.021,-15.683l-0.334,-15.701" style="fill:none;fill-rule:nonzero;stroke:#333;stroke-opacity:0.25;stroke-width:8.47px;"/><path d="M2622.73,805.85l-0.39,-18.318l-1.206,-18.3l-1.986,-18.263l-2.766,-18.206l-3.582,-18.152l-4.361,-18.04l-5.122,-17.928l-5.921,-17.817l-6.681,-17.669l-7.461,-17.483l-8.204,-17.316l-8.945,-17.131l-9.689,-16.889l-10.43,-16.667l-11.136,-16.425l-11.841,-16.147l-12.546,-15.868l-13.233,-15.572l-13.883,-15.256l-14.55,-14.94l-15.201,-14.569l-15.812,-14.236l-16.426,-13.845l-17.037,-13.456l-17.595,-13.066l-18.151,-12.639l-18.69,-12.212l-19.227,-11.785l-19.711,-11.322l-20.211,-10.876l-20.657,-10.393l-21.102,-9.892l-21.529,-9.41l-21.919,-8.927l-22.29,-8.389l-22.662,-7.869l-22.976,-7.35l-23.293,-6.811l-23.57,-6.274l-23.831,-5.716l-24.072,-5.159l-24.276,-4.603l-24.48,-4.028l-24.628,-3.47l-24.777,-2.896l-24.87,-2.32l-24.981,-1.744l-25.037,-1.169l-25.074,-0.576l-25.093,0l-25.074,0.576l-25.018,1.169l-24.981,1.744l-24.889,2.32l-24.758,2.896l-24.647,3.47l-24.462,4.028l-24.276,4.603l-24.072,5.159l-23.849,5.716l-23.571,6.274l-23.273,6.811l-22.996,7.35l-22.642,7.869l-22.309,8.389l-21.919,8.927l-21.51,9.41l-21.103,9.892l-20.675,10.393l-20.193,10.876l-19.729,11.322l-19.209,11.785l-18.689,12.212l-18.17,12.639l-17.595,13.066l-17.019,13.456l-16.425,13.845l-15.813,14.236l-15.2,14.569l-14.551,14.94l-13.901,15.256l-13.214,15.572l-12.547,15.868l-11.859,16.147l-11.136,16.425l-10.412,16.667l-9.688,16.889l-8.964,17.131l-8.204,17.316l-7.442,17.483l-6.682,17.669l-5.92,17.817l-5.141,17.928l-4.362,18.04l-3.563,18.152l-2.784,18.206l-1.986,18.263l-1.188,18.3l-0.408,18.318" style="fill:none;fill-rule:nonzero;stroke:#333;stroke-opacity:0.25;stroke-width:6.23px;"/><path d="M2622.73,889.449l-0.446,20.935l-1.373,20.917l-2.264,20.879l-3.174,20.805l-4.083,20.732l-4.993,20.619l-5.864,20.509l-6.756,20.341l-7.647,20.193l-8.5,19.988l-9.391,19.804l-10.226,19.561l-11.081,19.302l-11.896,19.061l-12.732,18.764l-13.549,18.448l-14.328,18.151l-15.126,17.78l-15.868,17.446l-16.63,17.057l-17.371,16.666l-18.077,16.258l-18.783,15.813l-19.45,15.386l-20.1,14.941l-20.75,14.439l-21.38,13.975l-21.956,13.456l-22.532,12.936l-23.088,12.416l-23.608,11.879l-24.127,11.321l-24.592,10.764l-25.055,10.19l-25.482,9.595l-25.891,9.001l-26.262,8.389l-26.614,7.777l-26.949,7.164l-27.227,6.533l-27.524,5.902l-27.746,5.271l-27.97,4.602l-28.136,3.972l-28.322,3.304l-28.433,2.654l-28.545,1.986l-28.619,1.336l-28.637,0.65l-28.675,-0l-28.656,-0.65l-28.619,-1.336l-28.544,-1.986l-28.434,-2.654l-28.303,-3.304l-28.155,-3.972l-27.969,-4.602l-27.747,-5.271l-27.505,-5.902l-27.246,-6.533l-26.93,-7.164l-26.633,-7.777l-26.261,-8.389l-25.891,-9.001l-25.482,-9.595l-25.037,-10.19l-24.61,-10.764l-24.109,-11.321l-23.626,-11.879l-23.089,-12.416l-22.531,-12.936l-21.956,-13.456l-21.362,-13.975l-20.75,-14.439l-20.118,-14.941l-19.451,-15.386l-18.782,-15.813l-18.077,-16.258l-17.353,-16.666l-16.63,-17.057l-15.887,-17.446l-15.107,-17.78l-14.347,-18.151l-13.53,-18.448l-12.732,-18.764l-11.915,-19.061l-11.08,-19.302l-10.226,-19.561l-9.373,-19.804l-8.519,-19.988l-7.646,-20.193l-6.756,-20.341l-5.865,-20.509l-4.974,-20.619l-4.083,-20.732l-3.192,-20.805l-2.264,-20.879l-1.355,-20.917l-0.464,-20.935" style="fill:none;fill-rule:nonzero;stroke:#333;stroke-opacity:0.25;stroke-width:6.23px;"/><path d="M2396.86,889.449l-0.056,2.617l-0.167,2.617l-0.297,2.598l-0.39,2.598l-0.501,2.599l-0.631,2.579l-0.742,2.562l-0.836,2.542l-0.965,2.524l-1.058,2.506l-1.169,2.468l-1.28,2.45l-1.392,2.413l-1.485,2.376l-1.596,2.338l-1.689,2.32l-1.782,2.264l-1.893,2.227l-1.986,2.172l-2.079,2.134l-2.171,2.079l-2.264,2.042l-2.339,1.967l-2.431,1.93l-2.524,1.856l-2.58,1.819l-2.673,1.744l-2.746,1.689l-2.821,1.615l-2.877,1.54l-2.97,1.485l-3.006,1.429l-3.081,1.337l-3.118,1.28l-3.193,1.188l-3.229,1.132l-3.285,1.04l-3.322,0.983l-3.378,0.891l-3.396,0.817l-3.452,0.742l-3.471,0.65l-3.489,0.575l-3.527,0.501l-3.526,0.408l-3.563,0.334l-3.564,0.26l-3.582,0.149l-3.582,0.093l-3.582,-0l-3.582,-0.093l-3.563,-0.149l-3.582,-0.26l-3.545,-0.334l-3.545,-0.408l-3.508,-0.501l-3.508,-0.575l-3.47,-0.65l-3.434,-0.742l-3.396,-0.817l-3.378,-0.891l-3.322,-0.983l-3.285,-1.04l-3.23,-1.132l-3.192,-1.188l-3.136,-1.28l-3.063,-1.337l-3.025,-1.429l-2.951,-1.485l-2.877,-1.54l-2.821,-1.615l-2.747,-1.689l-2.672,-1.744l-2.598,-1.819l-2.506,-1.856l-2.431,-1.93l-2.357,-1.967l-2.246,-2.042l-2.172,-2.079l-2.078,-2.134l-1.986,-2.172l-1.893,-2.227l-1.8,-2.264l-1.689,-2.32l-1.596,-2.338l-1.485,-2.376l-1.374,-2.413l-1.28,-2.45l-1.188,-2.468l-1.058,-2.506l-0.947,-2.524l-0.853,-2.542l-0.724,-2.562l-0.631,-2.579l-0.501,-2.599l-0.409,-2.598l-0.278,-2.598l-0.167,-2.617l-0.056,-2.617" style="fill:none;fill-rule:nonzero;stroke:#333;stroke-opacity:0.25;stroke-width:25.62px;"/><path d="M2396.86,805.85l-0.112,-5.234l-0.352,-5.215l-0.557,-5.234l-0.798,-5.196l-1.021,-5.178l-1.244,-5.16l-1.466,-5.122l-1.689,-5.086l-1.911,-5.048l-2.135,-5.011l-2.338,-4.937l-2.561,-4.9l-2.766,-4.825l-2.969,-4.751l-3.193,-4.696l-3.377,-4.621l-3.582,-4.529l-3.787,-4.454l-3.971,-4.362l-4.158,-4.25l-4.343,-4.176l-4.51,-4.064l-4.695,-3.954l-4.863,-3.841l-5.029,-3.731l-5.197,-3.619l-5.327,-3.489l-5.493,-3.359l-5.642,-3.248l-5.772,-3.1l-5.902,-2.969l-6.032,-2.84l-6.144,-2.673l-6.273,-2.561l-6.366,-2.394l-6.477,-2.246l-6.551,-2.097l-6.663,-1.949l-6.737,-1.8l-6.812,-1.633l-6.867,-1.466l-6.941,-1.318l-6.997,-1.151l-7.034,-0.983l-7.071,-0.836l-7.109,-0.668l-7.145,-0.482l-7.146,-0.334l-7.164,-0.167l-7.164,-0l-7.164,0.167l-7.164,0.334l-7.127,0.482l-7.108,0.668l-7.09,0.836l-7.034,0.983l-6.997,1.151l-6.922,1.318l-6.886,1.466l-6.811,1.633l-6.738,1.8l-6.644,1.949l-6.57,2.097l-6.477,2.246l-6.366,2.394l-6.255,2.561l-6.162,2.673l-6.031,2.84l-5.902,2.969l-5.772,3.1l-5.624,3.248l-5.494,3.359l-5.345,3.489l-5.178,3.619l-5.03,3.731l-4.862,3.841l-4.696,3.954l-4.528,4.064l-4.343,4.176l-4.158,4.25l-3.971,4.362l-3.768,4.454l-3.582,4.529l-3.396,4.621l-3.174,4.696l-2.988,4.751l-2.765,4.825l-2.562,4.9l-2.338,4.937l-2.135,5.011l-1.911,5.048l-1.689,5.086l-1.466,5.122l-1.244,5.16l-1.021,5.178l-0.779,5.196l-0.575,5.234l-0.335,5.215l-0.129,5.234" style="fill:none;fill-rule:nonzero;stroke:#333;stroke-opacity:0.25;stroke-width:6.64px;"/><path d="M2396.86,889.449l-0.167,7.85l-0.52,7.833l-0.854,7.832l-1.188,7.813l-1.522,7.777l-1.874,7.721l-2.209,7.683l-2.524,7.647l-2.876,7.554l-3.193,7.498l-3.508,7.424l-3.841,7.349l-4.158,7.238l-4.454,7.146l-4.77,7.034l-5.085,6.923l-5.382,6.792l-5.661,6.682l-5.958,6.533l-6.236,6.403l-6.514,6.254l-6.774,6.088l-7.035,5.939l-7.293,5.772l-7.554,5.587l-7.777,5.419l-8.017,5.234l-8.222,5.048l-8.463,4.863l-8.649,4.658l-8.853,4.454l-9.057,4.232l-9.224,4.046l-9.392,3.823l-9.558,3.582l-9.706,3.378l-9.856,3.155l-9.966,2.914l-10.115,2.691l-10.208,2.45l-10.319,2.209l-10.412,1.967l-10.486,1.745l-10.542,1.484l-10.616,1.244l-10.672,0.983l-10.709,0.743l-10.727,0.501l-10.746,0.26l-10.746,-0l-10.746,-0.26l-10.728,-0.501l-10.708,-0.743l-10.654,-0.983l-10.616,-1.244l-10.56,-1.484l-10.486,-1.745l-10.412,-1.967l-10.319,-2.209l-10.208,-2.45l-10.115,-2.691l-9.967,-2.914l-9.855,-3.155l-9.706,-3.378l-9.559,-3.582l-9.391,-3.823l-9.224,-4.046l-9.057,-4.232l-8.853,-4.454l-8.649,-4.658l-8.444,-4.863l-8.241,-5.048l-8.017,-5.234l-7.777,-5.419l-7.554,-5.587l-7.294,-5.772l-7.034,-5.939l-6.774,-6.088l-6.514,-6.254l-6.236,-6.403l-5.958,-6.533l-5.661,-6.682l-5.382,-6.792l-5.085,-6.923l-4.77,-7.034l-4.454,-7.146l-4.158,-7.238l-3.842,-7.349l-3.507,-7.424l-3.193,-7.498l-2.876,-7.554l-2.524,-7.647l-2.209,-7.683l-1.875,-7.721l-1.521,-7.777l-1.188,-7.813l-0.854,-7.832l-0.52,-7.833l-0.167,-7.85" style="fill:none;fill-rule:nonzero;stroke:#333;stroke-opacity:0.25;stroke-width:8.67px;"/><path d="M2396.86,805.85l-0.223,-10.467l-0.687,-10.449l-1.132,-10.45l-1.596,-10.393l-2.042,-10.375l-2.487,-10.3l-2.932,-10.264l-3.378,-10.17l-3.823,-10.097l-4.25,-9.985l-4.696,-9.911l-5.122,-9.781l-5.531,-9.651l-5.958,-9.521l-6.366,-9.391l-6.774,-9.224l-7.164,-9.076l-7.554,-8.89l-7.943,-8.723l-8.315,-8.518l-8.686,-8.334l-9.038,-8.129l-9.373,-7.925l-9.744,-7.683l-10.04,-7.461l-10.375,-7.22l-10.691,-6.997l-10.987,-6.719l-11.265,-6.477l-11.545,-6.217l-11.803,-5.921l-12.064,-5.661l-12.287,-5.382l-12.527,-5.104l-12.751,-4.788l-12.936,-4.51l-13.14,-4.195l-13.307,-3.879l-13.475,-3.582l-13.604,-3.266l-13.752,-2.951l-13.883,-2.635l-13.975,-2.302l-14.087,-1.986l-14.161,-1.652l-14.217,-1.336l-14.272,-0.983l-14.291,-0.669l-14.328,-0.334l-14.346,0l-14.328,0.334l-14.31,0.669l-14.254,0.983l-14.235,1.336l-14.142,1.652l-14.087,1.986l-13.975,2.302l-13.883,2.635l-13.753,2.951l-13.622,3.266l-13.456,3.582l-13.307,3.879l-13.141,4.195l-12.936,4.51l-12.75,4.788l-12.528,5.104l-12.305,5.382l-12.045,5.661l-11.822,5.921l-11.526,6.217l-11.284,6.477l-10.969,6.719l-10.69,6.997l-10.375,7.22l-10.059,7.461l-9.725,7.683l-9.392,7.925l-9.038,8.129l-8.667,8.334l-8.315,8.518l-7.944,8.723l-7.553,8.89l-7.183,9.076l-6.756,9.224l-6.366,9.391l-5.957,9.521l-5.55,9.651l-5.103,9.781l-4.696,9.911l-4.25,9.985l-3.823,10.097l-3.378,10.17l-2.933,10.264l-2.487,10.3l-2.041,10.375l-1.596,10.393l-1.133,10.45l-0.686,10.449l-0.223,10.467" style="fill:none;fill-rule:nonzero;stroke:#333;stroke-opacity:0.25;stroke-width:6.85px;"/><path d="M2396.86,889.449l-0.279,13.084l-0.854,13.066l-1.429,13.048l-1.985,13.01l-2.543,12.954l-3.118,12.899l-3.675,12.807l-4.213,12.713l-4.788,12.62l-5.308,12.491l-5.865,12.379l-6.403,12.231l-6.923,12.064l-7.442,11.915l-7.944,11.73l-8.463,11.525l-8.964,11.34l-9.447,11.117l-9.93,10.895l-10.393,10.672l-10.857,10.411l-11.285,10.153l-11.748,9.892l-12.156,9.614l-12.565,9.335l-12.973,9.039l-13.345,8.723l-13.734,8.407l-14.087,8.092l-14.42,7.758l-14.755,7.424l-15.089,7.071l-15.367,6.737l-15.665,6.366l-15.924,5.995l-16.165,5.623l-16.426,5.253l-16.629,4.862l-16.834,4.473l-17.037,4.083l-17.186,3.694l-17.354,3.285l-17.464,2.877l-17.595,2.487l-17.706,2.06l-17.761,1.651l-17.854,1.244l-17.873,0.835l-17.91,0.408l-17.91,0l-17.91,-0.408l-17.892,-0.835l-17.836,-1.244l-17.78,-1.651l-17.687,-2.06l-17.594,-2.487l-17.484,-2.877l-17.334,-3.285l-17.205,-3.694l-17.019,-4.083l-16.834,-4.473l-16.648,-4.862l-16.406,-5.253l-16.184,-5.623l-15.924,-5.995l-15.665,-6.366l-15.367,-6.737l-15.07,-7.071l-14.755,-7.424l-14.44,-7.758l-14.086,-8.092l-13.716,-8.407l-13.363,-8.723l-12.973,-9.039l-12.565,-9.335l-12.156,-9.614l-11.73,-9.892l-11.303,-10.153l-10.857,-10.411l-10.394,-10.672l-9.91,-10.895l-9.447,-11.117l-8.964,-11.34l-8.464,-11.525l-7.962,-11.73l-7.442,-11.915l-6.923,-12.064l-6.403,-12.231l-5.846,-12.379l-5.327,-12.491l-4.77,-12.62l-4.231,-12.713l-3.675,-12.807l-3.099,-12.899l-2.562,-12.954l-1.986,-13.01l-1.41,-13.048l-0.854,-13.066l-0.278,-13.084" style="fill:none;fill-rule:nonzero;stroke:#333;stroke-opacity:0.25;stroke-width:8.67px;"/><path d="M2396.86,805.85l-0.334,-15.701l-1.04,-15.683l-1.689,-15.664l-2.394,-15.609l-3.062,-15.534l-3.731,-15.479l-4.398,-15.367l-5.067,-15.275l-5.735,-15.126l-6.385,-14.996l-7.034,-14.848l-7.665,-14.681l-8.314,-14.476l-8.928,-14.291l-9.558,-14.068l-10.152,-13.845l-10.746,-13.605l-11.34,-13.344l-11.915,-13.085l-12.472,-12.787l-13.01,-12.509l-13.567,-12.175l-14.087,-11.878l-14.588,-11.545l-15.07,-11.191l-15.572,-10.839l-16.017,-10.467l-16.481,-10.097l-16.908,-9.707l-17.316,-9.316l-17.705,-8.909l-18.078,-8.482l-18.448,-8.073l-18.801,-7.647l-19.116,-7.182l-19.413,-6.756l-19.692,-6.292l-19.97,-5.846l-20.193,-5.364l-20.434,-4.899l-20.638,-4.436l-20.806,-3.935l-20.972,-3.47l-21.121,-2.97l-21.232,-2.487l-21.325,-1.986l-21.399,-1.485l-21.474,-1.002l-21.492,-0.501l-21.492,0l-21.492,0.501l-21.455,1.002l-21.417,1.485l-21.325,1.986l-21.233,2.487l-21.12,2.97l-20.973,3.47l-20.805,3.935l-20.638,4.436l-20.416,4.899l-20.211,5.364l-19.97,5.846l-19.692,6.292l-19.413,6.756l-19.117,7.182l-18.782,7.647l-18.448,8.073l-18.096,8.482l-17.706,8.909l-17.316,9.316l-16.908,9.707l-16.462,10.097l-16.036,10.467l-15.552,10.839l-15.089,11.191l-14.588,11.545l-14.087,11.878l-13.548,12.175l-13.029,12.509l-12.472,12.787l-11.916,13.085l-11.34,13.344l-10.746,13.605l-10.152,13.845l-9.539,14.068l-8.946,14.291l-8.296,14.476l-7.684,14.681l-7.034,14.848l-6.384,14.996l-5.717,15.126l-5.085,15.275l-4.399,15.367l-3.73,15.479l-3.062,15.534l-2.376,15.609l-1.708,15.664l-1.02,15.683l-0.353,15.701" style="fill:none;fill-rule:nonzero;stroke:#333;stroke-opacity:0.25;stroke-width:6.23px;"/><path d="M2396.86,889.449l-0.409,18.318l-1.188,18.3l-1.985,18.262l-2.784,18.207l-3.564,18.152l-4.361,18.04l-5.141,17.928l-5.902,17.817l-6.682,17.669l-7.461,17.483l-8.203,17.316l-8.946,17.131l-9.688,16.889l-10.43,16.667l-11.136,16.425l-11.86,16.147l-12.527,15.868l-13.233,15.572l-13.902,15.256l-14.55,14.94l-15.182,14.569l-15.831,14.236l-16.426,13.845l-17.019,13.456l-17.594,13.066l-18.151,12.639l-18.709,12.212l-19.209,11.785l-19.71,11.322l-20.211,10.876l-20.657,10.393l-21.102,9.892l-21.53,9.41l-21.918,8.927l-22.309,8.389l-22.643,7.869l-22.977,7.35l-23.292,6.811l-23.571,6.273l-23.83,5.717l-24.072,5.159l-24.294,4.603l-24.462,4.028l-24.629,3.47l-24.777,2.896l-24.888,2.319l-24.963,1.745l-25.037,1.169l-25.074,0.576l-25.092,-0l-25.074,-0.576l-25.037,-1.169l-24.963,-1.745l-24.888,-2.319l-24.777,-2.896l-24.629,-3.47l-24.461,-4.028l-24.295,-4.603l-24.072,-5.159l-23.83,-5.717l-23.571,-6.273l-23.292,-6.811l-22.977,-7.35l-22.643,-7.869l-22.308,-8.389l-21.919,-8.927l-21.529,-9.41l-21.102,-9.892l-20.657,-10.393l-20.212,-10.876l-19.71,-11.322l-19.209,-11.785l-18.708,-12.212l-18.151,-12.639l-17.595,-13.066l-17.019,-13.456l-16.425,-13.845l-15.832,-14.236l-15.181,-14.569l-14.551,-14.94l-13.901,-15.256l-13.233,-15.572l-12.528,-15.868l-11.86,-16.147l-11.135,-16.425l-10.431,-16.667l-9.688,-16.889l-8.946,-17.131l-8.203,-17.316l-7.461,-17.483l-6.681,-17.669l-5.902,-17.817l-5.141,-17.928l-4.362,-18.04l-3.563,-18.152l-2.784,-18.207l-1.986,-18.262l-1.207,-18.3l-0.389,-18.318" style="fill:none;fill-rule:nonzero;stroke:#333;stroke-opacity:0.25;stroke-width:5.81px;"/><path d="M2170.99,805.85l-0.055,-2.617l-0.186,-2.617l-0.278,-2.598l-0.39,-2.598l-0.52,-2.599l-0.612,-2.579l-0.743,-2.562l-0.835,-2.542l-0.965,-2.524l-1.058,-2.506l-1.169,-2.468l-1.281,-2.45l-1.392,-2.413l-1.484,-2.376l-1.596,-2.338l-1.689,-2.32l-1.801,-2.264l-1.874,-2.228l-1.986,-2.171l-2.079,-2.134l-2.171,-2.079l-2.265,-2.042l-2.338,-1.967l-2.431,-1.93l-2.524,-1.856l-2.599,-1.819l-2.672,-1.744l-2.729,-1.689l-2.821,-1.615l-2.895,-1.541l-2.951,-1.484l-3.007,-1.429l-3.08,-1.337l-3.137,-1.28l-3.174,-1.188l-3.248,-1.132l-3.285,-1.04l-3.322,-0.983l-3.359,-0.891l-3.415,-0.817l-3.434,-0.742l-3.47,-0.65l-3.49,-0.575l-3.526,-0.501l-3.526,-0.408l-3.564,-0.335l-3.563,-0.259l-3.582,-0.149l-3.582,-0.093l-3.582,0l-3.582,0.093l-3.582,0.149l-3.564,0.259l-3.544,0.335l-3.545,0.408l-3.527,0.501l-3.489,0.575l-3.47,0.65l-3.434,0.742l-3.415,0.817l-3.359,0.891l-3.322,0.983l-3.285,1.04l-3.248,1.132l-3.174,1.188l-3.137,1.28l-3.081,1.337l-3.006,1.429l-2.951,1.484l-2.895,1.541l-2.803,1.615l-2.747,1.689l-2.672,1.744l-2.599,1.819l-2.505,1.856l-2.432,1.93l-2.357,1.967l-2.264,2.042l-2.171,2.079l-2.079,2.134l-1.986,2.171l-1.874,2.228l-1.801,2.264l-1.689,2.32l-1.596,2.338l-1.485,2.376l-1.391,2.413l-1.281,2.45l-1.169,2.468l-1.058,2.506l-0.965,2.524l-0.836,2.542l-0.742,2.562l-0.612,2.579l-0.52,2.599l-0.39,2.598l-0.278,2.598l-0.186,2.617l-0.055,2.617" style="fill:none;fill-rule:nonzero;stroke:#333;stroke-opacity:0.25;stroke-width:5.81px;"/><path d="M2170.99,889.449l-0.111,5.234l-0.353,5.215l-0.556,5.234l-0.798,5.196l-1.021,5.178l-1.244,5.16l-1.466,5.122l-1.689,5.086l-1.912,5.048l-2.134,5.011l-2.338,4.937l-2.562,4.9l-2.765,4.825l-2.988,4.751l-3.174,4.696l-3.396,4.621l-3.582,4.529l-3.768,4.454l-3.972,4.362l-4.157,4.25l-4.343,4.176l-4.528,4.064l-4.696,3.953l-4.863,3.842l-5.011,3.731l-5.196,3.619l-5.346,3.489l-5.493,3.359l-5.624,3.248l-5.772,3.1l-5.902,2.969l-6.032,2.84l-6.143,2.673l-6.273,2.561l-6.366,2.394l-6.477,2.246l-6.57,2.097l-6.645,1.949l-6.737,1.8l-6.811,1.633l-6.886,1.466l-6.922,1.318l-6.997,1.151l-7.034,0.983l-7.09,0.836l-7.109,0.668l-7.126,0.482l-7.164,0.334l-7.164,0.167l-7.164,0l-7.164,-0.167l-7.146,-0.334l-7.145,-0.482l-7.109,-0.668l-7.071,-0.836l-7.034,-0.983l-6.997,-1.151l-6.941,-1.318l-6.867,-1.466l-6.812,-1.633l-6.737,-1.8l-6.663,-1.949l-6.551,-2.097l-6.477,-2.246l-6.366,-2.394l-6.274,-2.561l-6.143,-2.673l-6.032,-2.84l-5.902,-2.969l-5.772,-3.1l-5.642,-3.248l-5.475,-3.359l-5.345,-3.489l-5.197,-3.619l-5.029,-3.731l-4.863,-3.842l-4.696,-3.953l-4.51,-4.064l-4.342,-4.176l-4.158,-4.25l-3.972,-4.362l-3.767,-4.454l-3.601,-4.529l-3.378,-4.621l-3.173,-4.696l-2.988,-4.751l-2.766,-4.825l-2.561,-4.9l-2.338,-4.937l-2.135,-5.011l-1.911,-5.048l-1.689,-5.086l-1.467,-5.122l-1.243,-5.16l-1.021,-5.178l-0.798,-5.196l-0.557,-5.234l-0.352,-5.215l-0.112,-5.234" style="fill:none;fill-rule:nonzero;stroke:#333;stroke-opacity:0.25;stroke-width:9.27px;"/><path d="M2170.99,805.85l-0.185,-7.851l-0.501,-7.832l-0.854,-7.832l-1.188,-7.813l-1.54,-7.777l-1.856,-7.721l-2.209,-7.683l-2.524,-7.647l-2.877,-7.554l-3.192,-7.498l-3.508,-7.424l-3.842,-7.349l-4.157,-7.238l-4.454,-7.146l-4.789,-7.034l-5.066,-6.923l-5.383,-6.792l-5.66,-6.682l-5.958,-6.533l-6.236,-6.403l-6.514,-6.255l-6.775,-6.087l-7.052,-5.939l-7.294,-5.772l-7.535,-5.587l-7.777,-5.419l-8.018,-5.234l-8.24,-5.048l-8.445,-4.863l-8.667,-4.658l-8.853,-4.454l-9.038,-4.232l-9.225,-4.046l-9.391,-3.823l-9.558,-3.582l-9.707,-3.378l-9.855,-3.155l-9.985,-2.914l-10.096,-2.691l-10.208,-2.45l-10.319,-2.209l-10.412,-1.967l-10.486,-1.745l-10.561,-1.484l-10.616,-1.244l-10.653,-0.984l-10.709,-0.742l-10.727,-0.501l-10.746,-0.26l-10.746,0l-10.746,0.26l-10.728,0.501l-10.709,0.742l-10.671,0.984l-10.616,1.244l-10.561,1.484l-10.486,1.745l-10.393,1.967l-10.32,2.209l-10.207,2.45l-10.115,2.691l-9.985,2.914l-9.837,3.155l-9.707,3.378l-9.558,3.582l-9.391,3.823l-9.224,4.046l-9.057,4.232l-8.853,4.454l-8.649,4.658l-8.463,4.863l-8.222,5.048l-8.018,5.234l-7.776,5.419l-7.554,5.587l-7.294,5.772l-7.034,5.939l-6.774,6.087l-6.515,6.255l-6.236,6.403l-5.957,6.533l-5.679,6.682l-5.364,6.792l-5.086,6.923l-4.769,7.034l-4.473,7.146l-4.139,7.238l-3.842,7.349l-3.526,7.424l-3.192,7.498l-2.859,7.554l-2.542,7.647l-2.19,7.683l-1.875,7.721l-1.522,7.777l-1.188,7.813l-0.853,7.832l-0.52,7.832l-0.167,7.851" style="fill:none;fill-rule:nonzero;stroke:#333;stroke-opacity:0.25;stroke-width:6.64px;"/><path d="M2170.99,889.449l-0.241,10.467l-0.668,10.449l-1.151,10.449l-1.577,10.394l-2.042,10.375l-2.487,10.3l-2.932,10.264l-3.378,10.17l-3.823,10.097l-4.269,9.985l-4.677,9.911l-5.123,9.781l-5.53,9.651l-5.958,9.521l-6.366,9.391l-6.774,9.224l-7.164,9.076l-7.554,8.89l-7.943,8.723l-8.315,8.518l-8.686,8.334l-9.039,8.129l-9.391,7.925l-9.725,7.683l-10.059,7.461l-10.375,7.22l-10.672,6.997l-10.987,6.719l-11.266,6.477l-11.544,6.217l-11.804,5.921l-12.063,5.661l-12.305,5.382l-12.528,5.104l-12.732,4.788l-12.936,4.51l-13.14,4.195l-13.308,3.878l-13.474,3.582l-13.623,3.267l-13.752,2.951l-13.864,2.635l-13.994,2.302l-14.068,1.986l-14.161,1.651l-14.217,1.337l-14.272,0.983l-14.31,0.669l-14.328,0.334l-14.328,-0l-14.328,-0.334l-14.309,-0.669l-14.272,-0.983l-14.217,-1.337l-14.161,-1.651l-14.068,-1.986l-13.976,-2.302l-13.882,-2.635l-13.753,-2.951l-13.623,-3.267l-13.474,-3.582l-13.307,-3.878l-13.122,-4.195l-12.954,-4.51l-12.732,-4.788l-12.528,-5.104l-12.305,-5.382l-12.064,-5.661l-11.804,-5.921l-11.544,-6.217l-11.265,-6.477l-10.988,-6.719l-10.671,-6.997l-10.375,-7.22l-10.059,-7.461l-9.726,-7.683l-9.391,-7.925l-9.038,-8.129l-8.686,-8.334l-8.315,-8.518l-7.925,-8.723l-7.572,-8.89l-7.164,-9.076l-6.775,-9.224l-6.365,-9.391l-5.94,-9.521l-5.549,-9.651l-5.122,-9.781l-4.677,-9.911l-4.25,-9.985l-3.824,-10.097l-3.378,-10.17l-2.951,-10.264l-2.487,-10.3l-2.041,-10.375l-1.578,-10.394l-1.132,-10.449l-0.686,-10.449l-0.223,-10.467" style="fill:none;fill-rule:nonzero;stroke:#333;stroke-opacity:0.25;stroke-width:8.07px;"/><path d="M2170.99,805.85l-0.297,-13.084l-0.853,-13.066l-1.411,-13.048l-1.986,-13.01l-2.561,-12.955l-3.099,-12.898l-3.675,-12.807l-4.232,-12.713l-4.77,-12.62l-5.308,-12.491l-5.865,-12.379l-6.403,-12.231l-6.922,-12.064l-7.443,-11.915l-7.962,-11.73l-8.463,-11.525l-8.946,-11.34l-9.446,-11.117l-9.93,-10.895l-10.393,-10.672l-10.858,-10.412l-11.302,-10.152l-11.73,-9.892l-12.157,-9.614l-12.564,-9.335l-12.974,-9.039l-13.344,-8.723l-13.734,-8.407l-14.087,-8.092l-14.421,-7.758l-14.773,-7.424l-15.07,-7.071l-15.368,-6.737l-15.664,-6.366l-15.924,-5.995l-16.184,-5.624l-16.407,-5.252l-16.648,-4.863l-16.833,-4.472l-17.019,-4.084l-17.187,-3.693l-17.353,-3.285l-17.483,-2.877l-17.594,-2.487l-17.688,-2.06l-17.78,-1.652l-17.836,-1.243l-17.873,-0.835l-17.91,-0.409l-17.928,0l-17.91,0.409l-17.873,0.835l-17.836,1.243l-17.78,1.652l-17.687,2.06l-17.595,2.487l-17.483,2.877l-17.353,3.285l-17.186,3.693l-17.019,4.084l-16.852,4.472l-16.63,4.863l-16.407,5.252l-16.183,5.624l-15.925,5.995l-15.664,6.366l-15.367,6.737l-15.071,7.071l-14.773,7.424l-14.421,7.758l-14.087,8.092l-13.734,8.407l-13.344,8.723l-12.973,9.039l-12.565,9.335l-12.157,9.614l-11.729,9.892l-11.303,10.152l-10.857,10.412l-10.394,10.672l-9.929,10.895l-9.447,11.117l-8.946,11.34l-8.463,11.525l-7.962,11.73l-7.442,11.915l-6.923,12.064l-6.403,12.231l-5.865,12.379l-5.308,12.491l-4.788,12.62l-4.213,12.713l-3.675,12.807l-3.118,12.898l-2.543,12.955l-1.986,13.01l-1.41,13.048l-0.854,13.066l-0.297,13.084" style="fill:none;fill-rule:nonzero;stroke:#333;stroke-opacity:0.25;stroke-width:6.02px;"/><path d="M2170.99,889.449l-0.352,15.701l-1.021,15.683l-1.708,15.664l-2.375,15.609l-3.063,15.534l-3.73,15.479l-4.399,15.367l-5.085,15.275l-5.716,15.126l-6.385,14.996l-7.034,14.848l-7.684,14.68l-8.296,14.477l-8.945,14.291l-9.54,14.068l-10.152,13.845l-10.746,13.605l-11.34,13.344l-11.915,13.084l-12.472,12.788l-13.029,12.509l-13.549,12.175l-14.086,11.878l-14.588,11.545l-15.089,11.191l-15.553,10.839l-16.036,10.467l-16.462,10.097l-16.908,9.706l-17.316,9.317l-17.706,8.909l-18.095,8.482l-18.449,8.073l-18.782,7.647l-19.116,7.182l-19.414,6.756l-19.691,6.292l-19.97,5.846l-20.212,5.364l-20.415,4.899l-20.639,4.436l-20.805,3.935l-20.972,3.47l-21.121,2.97l-21.232,2.487l-21.325,1.986l-21.418,1.485l-21.455,1.002l-21.492,0.501l-21.492,-0l-21.492,-0.501l-21.473,-1.002l-21.4,-1.485l-21.325,-1.986l-21.232,-2.487l-21.121,-2.97l-20.972,-3.47l-20.805,-3.935l-20.639,-4.436l-20.434,-4.899l-20.192,-5.364l-19.971,-5.846l-19.691,-6.292l-19.414,-6.756l-19.116,-7.182l-18.801,-7.647l-18.448,-8.073l-18.077,-8.482l-17.706,-8.909l-17.316,-9.317l-16.908,-9.706l-16.481,-10.097l-16.017,-10.467l-15.571,-10.839l-15.071,-11.191l-14.587,-11.545l-14.087,-11.878l-13.567,-12.175l-13.011,-12.509l-12.472,-12.788l-11.915,-13.084l-11.34,-13.344l-10.746,-13.605l-10.152,-13.845l-9.558,-14.068l-8.927,-14.291l-8.315,-14.477l-7.665,-14.68l-7.034,-14.848l-6.385,-14.996l-5.735,-15.126l-5.066,-15.275l-4.399,-15.367l-3.73,-15.479l-3.063,-15.534l-2.394,-15.609l-1.689,-15.664l-1.039,-15.683l-0.334,-15.701" style="fill:none;fill-rule:nonzero;stroke:#333;stroke-opacity:0.25;stroke-width:5.6px;"/><path d="M1945.1,889.449l-0.056,2.617l-0.167,2.617l-0.279,2.598l-0.408,2.598l-0.501,2.599l-0.631,2.579l-0.724,2.562l-0.854,2.542l-0.946,2.524l-1.058,2.506l-1.188,2.468l-1.262,2.45l-1.392,2.413l-1.485,2.376l-1.596,2.338l-1.689,2.32l-1.8,2.264l-1.893,2.227l-1.986,2.172l-2.079,2.134l-2.152,2.079l-2.265,2.042l-2.357,1.967l-2.431,1.93l-2.506,1.856l-2.598,1.819l-2.673,1.744l-2.746,1.689l-2.821,1.615l-2.877,1.54l-2.951,1.485l-3.007,1.429l-3.081,1.337l-3.136,1.28l-3.193,1.188l-3.229,1.132l-3.285,1.04l-3.322,0.983l-3.359,0.891l-3.415,0.817l-3.434,0.742l-3.471,0.65l-3.489,0.575l-3.526,0.501l-3.545,0.408l-3.545,0.334l-3.563,0.26l-3.582,0.149l-3.582,0.093l-3.582,-0l-3.582,-0.093l-3.582,-0.149l-3.564,-0.26l-3.563,-0.334l-3.527,-0.408l-3.526,-0.501l-3.489,-0.575l-3.471,-0.65l-3.452,-0.742l-3.396,-0.817l-3.359,-0.891l-3.341,-0.983l-3.285,-1.04l-3.23,-1.132l-3.192,-1.188l-3.118,-1.28l-3.081,-1.337l-3.006,-1.429l-2.951,-1.485l-2.896,-1.54l-2.821,-1.615l-2.747,-1.689l-2.672,-1.744l-2.58,-1.819l-2.524,-1.856l-2.431,-1.93l-2.339,-1.967l-2.264,-2.042l-2.172,-2.079l-2.078,-2.134l-1.986,-2.172l-1.893,-2.227l-1.782,-2.264l-1.689,-2.32l-1.596,-2.338l-1.485,-2.376l-1.392,-2.413l-1.28,-2.45l-1.17,-2.468l-1.057,-2.506l-0.966,-2.524l-0.835,-2.542l-0.742,-2.562l-0.613,-2.579l-0.519,-2.599l-0.39,-2.598l-0.297,-2.598l-0.167,-2.617l-0.056,-2.617" style="fill:none;fill-rule:nonzero;stroke:#333;stroke-opacity:0.25;stroke-width:5.81px;"/><path d="M1945.1,805.85l-0.112,-5.234l-0.334,-5.215l-0.575,-5.234l-0.798,-5.196l-1.003,-5.178l-1.262,-5.16l-1.466,-5.122l-1.689,-5.086l-1.911,-5.048l-2.116,-5.011l-2.357,-4.937l-2.543,-4.9l-2.784,-4.825l-2.969,-4.751l-3.193,-4.696l-3.377,-4.621l-3.582,-4.529l-3.787,-4.454l-3.971,-4.362l-4.158,-4.25l-4.324,-4.176l-4.529,-4.064l-4.695,-3.954l-4.863,-3.841l-5.029,-3.731l-5.179,-3.619l-5.345,-3.489l-5.493,-3.359l-5.624,-3.248l-5.772,-3.1l-5.92,-2.969l-6.014,-2.84l-6.162,-2.673l-6.254,-2.561l-6.366,-2.394l-6.477,-2.246l-6.57,-2.097l-6.645,-1.949l-6.737,-1.8l-6.811,-1.633l-6.886,-1.466l-6.941,-1.318l-6.979,-1.151l-7.052,-0.983l-7.071,-0.836l-7.109,-0.668l-7.127,-0.482l-7.164,-0.334l-7.164,-0.167l-7.164,-0l-7.164,0.167l-7.145,0.334l-7.146,0.482l-7.108,0.668l-7.071,0.836l-7.034,0.983l-6.997,1.151l-6.941,1.318l-6.868,1.466l-6.811,1.633l-6.737,1.8l-6.663,1.949l-6.57,2.097l-6.459,2.246l-6.384,2.394l-6.255,2.561l-6.143,2.673l-6.032,2.84l-5.902,2.969l-5.772,3.1l-5.642,3.248l-5.494,3.359l-5.345,3.489l-5.178,3.619l-5.03,3.731l-4.862,3.841l-4.696,3.954l-4.51,4.064l-4.343,4.176l-4.157,4.25l-3.972,4.362l-3.786,4.454l-3.582,4.529l-3.378,4.621l-3.192,4.696l-2.97,4.751l-2.765,4.825l-2.561,4.9l-2.339,4.937l-2.134,5.011l-1.912,5.048l-1.689,5.086l-1.466,5.122l-1.243,5.16l-1.021,5.178l-0.798,5.196l-0.576,5.234l-0.334,5.215l-0.111,5.234" style="fill:none;fill-rule:nonzero;stroke:#333;stroke-opacity:0.25;stroke-width:5.6px;"/><path d="M1945.1,889.449l-0.167,7.85l-0.502,7.833l-0.853,7.832l-1.188,7.813l-1.541,7.777l-1.856,7.721l-2.208,7.683l-2.543,7.647l-2.858,7.554l-3.192,7.498l-3.527,7.424l-3.823,7.349l-4.157,7.238l-4.473,7.146l-4.77,7.034l-5.085,6.923l-5.364,6.792l-5.679,6.682l-5.939,6.533l-6.236,6.403l-6.515,6.254l-6.792,6.088l-7.035,5.939l-7.293,5.772l-7.536,5.587l-7.795,5.419l-7.999,5.234l-8.24,5.048l-8.445,4.863l-8.667,4.658l-8.853,4.454l-9.039,4.232l-9.224,4.046l-9.41,3.823l-9.539,3.582l-9.707,3.378l-9.855,3.155l-9.985,2.914l-10.096,2.691l-10.227,2.45l-10.3,2.209l-10.412,1.967l-10.487,1.745l-10.56,1.484l-10.616,1.244l-10.672,0.983l-10.69,0.743l-10.728,0.501l-10.746,0.26l-10.764,-0l-10.746,-0.26l-10.728,-0.501l-10.69,-0.743l-10.672,-0.983l-10.616,-1.244l-10.56,-1.484l-10.486,-1.745l-10.412,-1.967l-10.301,-2.209l-10.226,-2.45l-10.097,-2.691l-9.985,-2.914l-9.855,-3.155l-9.706,-3.378l-9.559,-3.582l-9.391,-3.823l-9.224,-4.046l-9.038,-4.232l-8.853,-4.454l-8.668,-4.658l-8.444,-4.863l-8.241,-5.048l-7.999,-5.234l-7.795,-5.419l-7.535,-5.587l-7.294,-5.772l-7.034,-5.939l-6.793,-6.088l-6.514,-6.254l-6.236,-6.403l-5.939,-6.533l-5.68,-6.682l-5.363,-6.792l-5.086,-6.923l-4.77,-7.034l-4.472,-7.146l-4.158,-7.238l-3.823,-7.349l-3.526,-7.424l-3.193,-7.498l-2.858,-7.554l-2.543,-7.647l-2.208,-7.683l-1.856,-7.721l-1.54,-7.777l-1.188,-7.813l-0.854,-7.832l-0.501,-7.833l-0.167,-7.85" style="fill:none;fill-rule:nonzero;stroke:#333;stroke-opacity:0.25;stroke-width:9.27px;"/><path d="M1945.1,805.85l-0.223,-10.467l-0.687,-10.449l-1.132,-10.45l-1.578,-10.393l-2.041,-10.375l-2.487,-10.3l-2.951,-10.264l-3.378,-10.17l-3.823,-10.097l-4.25,-9.985l-4.696,-9.911l-5.104,-9.781l-5.549,-9.651l-5.939,-9.521l-6.366,-9.391l-6.774,-9.224l-7.164,-9.076l-7.573,-8.89l-7.925,-8.723l-8.314,-8.518l-8.686,-8.334l-9.039,-8.129l-9.391,-7.925l-9.725,-7.683l-10.059,-7.461l-10.375,-7.22l-10.672,-6.997l-10.987,-6.719l-11.266,-6.477l-11.544,-6.217l-11.804,-5.921l-12.064,-5.661l-12.305,-5.382l-12.527,-5.104l-12.732,-4.788l-12.955,-4.51l-13.122,-4.195l-13.307,-3.879l-13.474,-3.582l-13.623,-3.266l-13.752,-2.951l-13.883,-2.635l-13.975,-2.302l-14.069,-1.986l-14.161,-1.652l-14.216,-1.336l-14.272,-0.983l-14.31,-0.669l-14.328,-0.334l-14.328,0l-14.328,0.334l-14.309,0.669l-14.273,0.983l-14.216,1.336l-14.161,1.652l-14.069,1.986l-13.993,2.302l-13.864,2.635l-13.753,2.951l-13.623,3.266l-13.474,3.582l-13.307,3.879l-13.141,4.195l-12.936,4.51l-12.731,4.788l-12.528,5.104l-12.305,5.382l-12.064,5.661l-11.804,5.921l-11.544,6.217l-11.266,6.477l-10.987,6.719l-10.672,6.997l-10.374,7.22l-10.06,7.461l-9.725,7.683l-9.391,7.925l-9.039,8.129l-8.686,8.334l-8.314,8.518l-7.944,8.723l-7.553,8.89l-7.165,9.076l-6.774,9.224l-6.366,9.391l-5.957,9.521l-5.531,9.651l-5.123,9.781l-4.677,9.911l-4.268,9.985l-3.824,10.097l-3.377,10.17l-2.933,10.264l-2.487,10.3l-2.041,10.375l-1.578,10.393l-1.151,10.45l-0.668,10.449l-0.241,10.467" style="fill:none;fill-rule:nonzero;stroke:#333;stroke-opacity:0.25;stroke-width:6.02px;"/><path d="M1945.1,889.449l-0.279,13.084l-0.854,13.066l-1.41,13.048l-1.986,13.01l-2.561,12.954l-3.1,12.899l-3.674,12.807l-4.232,12.713l-4.77,12.62l-5.326,12.491l-5.847,12.379l-6.403,12.231l-6.923,12.064l-7.442,11.915l-7.962,11.73l-8.463,11.525l-8.964,11.34l-9.447,11.117l-9.911,10.895l-10.393,10.672l-10.858,10.411l-11.303,10.153l-11.729,9.892l-12.157,9.614l-12.565,9.335l-12.973,9.039l-13.363,8.723l-13.715,8.407l-14.087,8.092l-14.439,7.758l-14.755,7.424l-15.071,7.071l-15.367,6.737l-15.664,6.366l-15.924,5.995l-16.184,5.623l-16.407,5.253l-16.648,4.862l-16.834,4.473l-17.019,4.083l-17.204,3.694l-17.335,3.285l-17.483,2.877l-17.595,2.487l-17.687,2.06l-17.78,1.651l-17.836,1.244l-17.891,0.835l-17.91,0.408l-17.91,0l-17.91,-0.408l-17.892,-0.835l-17.836,-1.244l-17.761,-1.651l-17.706,-2.06l-17.594,-2.487l-17.465,-2.877l-17.353,-3.285l-17.186,-3.694l-17.038,-4.083l-16.834,-4.473l-16.629,-4.862l-16.425,-5.253l-16.166,-5.623l-15.924,-5.995l-15.664,-6.366l-15.368,-6.737l-15.088,-7.071l-14.755,-7.424l-14.421,-7.758l-14.087,-8.092l-13.734,-8.407l-13.344,-8.723l-12.973,-9.039l-12.565,-9.335l-12.157,-9.614l-11.748,-9.892l-11.284,-10.153l-10.858,-10.411l-10.393,-10.672l-9.929,-10.895l-9.447,-11.117l-8.965,-11.34l-8.463,-11.525l-7.943,-11.73l-7.461,-11.915l-6.923,-12.064l-6.384,-12.231l-5.865,-12.379l-5.327,-12.491l-4.77,-12.62l-4.213,-12.713l-3.674,-12.807l-3.118,-12.899l-2.543,-12.954l-1.986,-13.01l-1.429,-13.048l-0.854,-13.066l-0.278,-13.084" style="fill:none;fill-rule:nonzero;stroke:#333;stroke-opacity:0.25;stroke-width:4.75px;"/><path d="M1719.23,805.85l-0.055,-2.617l-0.167,-2.617l-0.279,-2.598l-0.408,-2.598l-0.501,-2.599l-0.631,-2.579l-0.724,-2.562l-0.854,-2.542l-0.946,-2.524l-1.077,-2.506l-1.169,-2.468l-1.281,-2.45l-1.373,-2.413l-1.503,-2.376l-1.578,-2.338l-1.707,-2.32l-1.782,-2.264l-1.893,-2.228l-1.986,-2.171l-2.079,-2.134l-2.171,-2.079l-2.265,-2.042l-2.338,-1.967l-2.431,-1.93l-2.506,-1.856l-2.598,-1.819l-2.673,-1.744l-2.747,-1.689l-2.821,-1.615l-2.876,-1.541l-2.951,-1.484l-3.026,-1.429l-3.062,-1.337l-3.137,-1.28l-3.192,-1.188l-3.229,-1.132l-3.285,-1.04l-3.322,-0.983l-3.378,-0.891l-3.397,-0.817l-3.433,-0.742l-3.471,-0.65l-3.508,-0.575l-3.507,-0.501l-3.545,-0.408l-3.564,-0.335l-3.563,-0.259l-3.564,-0.149l-3.582,-0.093l-3.6,0l-3.582,0.093l-3.564,0.149l-3.563,0.259l-3.563,0.335l-3.545,0.408l-3.508,0.501l-3.508,0.575l-3.47,0.65l-3.434,0.742l-3.396,0.817l-3.378,0.891l-3.322,0.983l-3.285,1.04l-3.23,1.132l-3.192,1.188l-3.137,1.28l-3.062,1.337l-3.025,1.429l-2.951,1.484l-2.877,1.541l-2.821,1.615l-2.747,1.689l-2.672,1.744l-2.599,1.819l-2.505,1.856l-2.432,1.93l-2.338,1.967l-2.264,2.042l-2.172,2.079l-2.079,2.134l-1.985,2.171l-1.893,2.228l-1.801,2.264l-1.689,2.32l-1.577,2.338l-1.504,2.376l-1.373,2.413l-1.281,2.45l-1.169,2.468l-1.076,2.506l-0.947,2.524l-0.854,2.542l-0.723,2.562l-0.631,2.579l-0.502,2.599l-0.408,2.598l-0.278,2.598l-0.167,2.617l-0.056,2.617" style="fill:none;fill-rule:nonzero;stroke:#333;stroke-opacity:0.25;stroke-width:5.81px;"/><path d="M1719.23,889.449l-0.111,5.234l-0.334,5.215l-0.575,5.234l-0.799,5.196l-1.02,5.178l-1.244,5.16l-1.466,5.122l-1.689,5.086l-1.912,5.048l-2.134,5.011l-2.338,4.937l-2.562,4.9l-2.765,4.825l-2.97,4.751l-3.192,4.696l-3.378,4.621l-3.582,4.529l-3.786,4.454l-3.972,4.362l-4.157,4.25l-4.343,4.176l-4.51,4.064l-4.695,3.953l-4.863,3.842l-5.03,3.731l-5.196,3.619l-5.327,3.489l-5.494,3.359l-5.642,3.248l-5.772,3.1l-5.902,2.969l-6.032,2.84l-6.143,2.673l-6.254,2.561l-6.385,2.394l-6.459,2.246l-6.57,2.097l-6.663,1.949l-6.737,1.8l-6.811,1.633l-6.867,1.466l-6.941,1.318l-6.997,1.151l-7.035,0.983l-7.071,0.836l-7.108,0.668l-7.146,0.482l-7.145,0.334l-7.164,0.167l-7.164,0l-7.164,-0.167l-7.164,-0.334l-7.127,-0.482l-7.108,-0.668l-7.071,-0.836l-7.053,-0.983l-6.978,-1.151l-6.942,-1.318l-6.885,-1.466l-6.812,-1.633l-6.737,-1.8l-6.644,-1.949l-6.57,-2.097l-6.478,-2.246l-6.365,-2.394l-6.255,-2.561l-6.162,-2.673l-6.032,-2.84l-5.902,-2.969l-5.772,-3.1l-5.623,-3.248l-5.494,-3.359l-5.345,-3.489l-5.178,-3.619l-5.03,-3.731l-4.862,-3.842l-4.696,-3.953l-4.529,-4.064l-4.343,-4.176l-4.157,-4.25l-3.953,-4.362l-3.786,-4.454l-3.582,-4.529l-3.397,-4.621l-3.173,-4.696l-2.97,-4.751l-2.784,-4.825l-2.542,-4.9l-2.358,-4.937l-2.115,-5.011l-1.912,-5.048l-1.689,-5.086l-1.466,-5.122l-1.262,-5.16l-1.021,-5.178l-0.779,-5.196l-0.576,-5.234l-0.334,-5.215l-0.111,-5.234" style="fill:none;fill-rule:nonzero;stroke:#333;stroke-opacity:0.25;stroke-width:8.67px;"/><path d="M1719.23,805.85l-0.167,-7.851l-0.519,-7.832l-0.854,-7.832l-1.188,-7.813l-1.522,-7.777l-1.874,-7.721l-2.19,-7.683l-2.543,-7.647l-2.858,-7.554l-3.192,-7.498l-3.527,-7.424l-3.842,-7.349l-4.138,-7.238l-4.473,-7.146l-4.77,-7.034l-5.085,-6.923l-5.364,-6.792l-5.679,-6.682l-5.958,-6.533l-6.236,-6.403l-6.514,-6.255l-6.775,-6.087l-7.034,-5.939l-7.294,-5.772l-7.553,-5.587l-7.777,-5.419l-8.018,-5.234l-8.222,-5.048l-8.463,-4.863l-8.649,-4.658l-8.852,-4.454l-9.058,-4.232l-9.224,-4.046l-9.391,-3.823l-9.558,-3.582l-9.707,-3.378l-9.836,-3.155l-9.985,-2.914l-10.115,-2.691l-10.208,-2.45l-10.319,-2.209l-10.394,-1.967l-10.486,-1.745l-10.56,-1.484l-10.616,-1.244l-10.672,-0.984l-10.709,-0.742l-10.727,-0.501l-10.746,-0.26l-10.746,0l-10.746,0.26l-10.728,0.501l-10.709,0.742l-10.653,0.984l-10.616,1.244l-10.56,1.484l-10.487,1.745l-10.411,1.967l-10.32,2.209l-10.207,2.45l-10.097,2.691l-9.985,2.914l-9.855,3.155l-9.707,3.378l-9.558,3.582l-9.391,3.823l-9.224,4.046l-9.039,4.232l-8.853,4.454l-8.667,4.658l-8.445,4.863l-8.24,5.048l-8.018,5.234l-7.776,5.419l-7.535,5.587l-7.294,5.772l-7.053,5.939l-6.774,6.087l-6.515,6.255l-6.236,6.403l-5.957,6.533l-5.661,6.682l-5.382,6.792l-5.067,6.923l-4.788,7.034l-4.455,7.146l-4.157,7.238l-3.842,7.349l-3.508,7.424l-3.192,7.498l-2.877,7.554l-2.524,7.647l-2.208,7.683l-1.856,7.721l-1.541,7.777l-1.188,7.813l-0.853,7.832l-0.501,7.832l-0.186,7.851" style="fill:none;fill-rule:nonzero;stroke:#333;stroke-opacity:0.25;stroke-width:4.54px;"/><path d="M1719.23,889.449l-0.222,10.467l-0.687,10.449l-1.132,10.449l-1.596,10.394l-2.042,10.375l-2.487,10.3l-2.932,10.264l-3.378,10.17l-3.823,10.097l-4.251,9.985l-4.695,9.911l-5.104,9.781l-5.549,9.651l-5.958,9.521l-6.366,9.391l-6.756,9.224l-7.182,9.076l-7.554,8.89l-7.943,8.723l-8.315,8.518l-8.668,8.334l-9.038,8.129l-9.391,7.925l-9.725,7.683l-10.06,7.461l-10.375,7.22l-10.69,6.997l-10.969,6.719l-11.284,6.477l-11.544,6.217l-11.804,5.921l-12.045,5.661l-12.305,5.382l-12.528,5.104l-12.75,4.788l-12.936,4.51l-13.14,4.195l-13.308,3.878l-13.455,3.582l-13.623,3.267l-13.753,2.951l-13.882,2.635l-13.976,2.302l-14.086,1.986l-14.143,1.651l-14.235,1.337l-14.254,0.983l-14.309,0.669l-14.328,0.334l-14.347,-0l-14.328,-0.334l-14.291,-0.669l-14.272,-0.983l-14.217,-1.337l-14.161,-1.651l-14.086,-1.986l-13.976,-2.302l-13.882,-2.635l-13.753,-2.951l-13.604,-3.267l-13.474,-3.582l-13.308,-3.878l-13.14,-4.195l-12.936,-4.51l-12.75,-4.788l-12.528,-5.104l-12.286,-5.382l-12.064,-5.661l-11.804,-5.921l-11.544,-6.217l-11.266,-6.477l-10.987,-6.719l-10.69,-6.997l-10.375,-7.22l-10.041,-7.461l-9.744,-7.683l-9.372,-7.925l-9.039,-8.129l-8.686,-8.334l-8.314,-8.518l-7.944,-8.723l-7.554,-8.89l-7.164,-9.076l-6.774,-9.224l-6.366,-9.391l-5.958,-9.521l-5.53,-9.651l-5.123,-9.781l-4.695,-9.911l-4.251,-9.985l-3.823,-10.097l-3.378,-10.17l-2.932,-10.264l-2.487,-10.3l-2.042,-10.375l-1.596,-10.394l-1.132,-10.449l-0.687,-10.449l-0.222,-10.467" style="fill:none;fill-rule:nonzero;stroke:#333;stroke-opacity:0.25;stroke-width:4.97px;"/><path d="M1493.36,889.449l-0.056,2.617l-0.167,2.617l-0.297,2.598l-0.389,2.598l-0.52,2.599l-0.613,2.579l-0.742,2.562l-0.835,2.542l-0.965,2.524l-1.058,2.506l-1.169,2.468l-1.281,2.45l-1.392,2.413l-1.485,2.376l-1.596,2.338l-1.689,2.32l-1.781,2.264l-1.894,2.227l-1.985,2.172l-2.079,2.134l-2.172,2.079l-2.264,2.042l-2.338,1.967l-2.432,1.93l-2.524,1.856l-2.58,1.819l-2.672,1.744l-2.747,1.689l-2.821,1.615l-2.895,1.54l-2.951,1.485l-3.007,1.429l-3.081,1.337l-3.118,1.28l-3.192,1.188l-3.229,1.132l-3.285,1.04l-3.341,0.983l-3.359,0.891l-3.397,0.817l-3.452,0.742l-3.471,0.65l-3.489,0.575l-3.526,0.501l-3.526,0.408l-3.564,0.334l-3.563,0.26l-3.582,0.149l-3.582,0.093l-3.582,-0l-3.582,-0.093l-3.582,-0.149l-3.564,-0.26l-3.545,-0.334l-3.545,-0.408l-3.526,-0.501l-3.489,-0.575l-3.471,-0.65l-3.433,-0.742l-3.415,-0.817l-3.36,-0.891l-3.322,-0.983l-3.285,-1.04l-3.229,-1.132l-3.192,-1.188l-3.137,-1.28l-3.081,-1.337l-3.006,-1.429l-2.951,-1.485l-2.877,-1.54l-2.821,-1.615l-2.747,-1.689l-2.673,-1.744l-2.598,-1.819l-2.506,-1.856l-2.431,-1.93l-2.357,-1.967l-2.264,-2.042l-2.153,-2.079l-2.079,-2.134l-1.986,-2.172l-1.893,-2.227l-1.8,-2.264l-1.689,-2.32l-1.596,-2.338l-1.485,-2.376l-1.392,-2.413l-1.262,-2.45l-1.188,-2.468l-1.058,-2.506l-0.946,-2.524l-0.854,-2.542l-0.724,-2.562l-0.631,-2.579l-0.501,-2.599l-0.408,-2.598l-0.278,-2.598l-0.168,-2.617l-0.055,-2.617" style="fill:none;fill-rule:nonzero;stroke:#333;stroke-opacity:0.25;stroke-width:5.6px;"/><path d="M1493.36,805.85l-0.111,-5.234l-0.353,-5.215l-0.557,-5.234l-0.798,-5.196l-1.021,-5.178l-1.243,-5.16l-1.466,-5.122l-1.689,-5.086l-1.912,-5.048l-2.134,-5.011l-2.339,-4.937l-2.561,-4.9l-2.765,-4.825l-2.988,-4.751l-3.174,-4.696l-3.378,-4.621l-3.6,-4.529l-3.768,-4.454l-3.972,-4.362l-4.157,-4.25l-4.343,-4.176l-4.51,-4.064l-4.696,-3.954l-4.862,-3.841l-5.03,-3.731l-5.197,-3.619l-5.345,-3.489l-5.475,-3.359l-5.642,-3.248l-5.772,-3.1l-5.902,-2.969l-6.032,-2.84l-6.143,-2.673l-6.273,-2.561l-6.366,-2.394l-6.477,-2.246l-6.552,-2.097l-6.663,-1.949l-6.737,-1.8l-6.811,-1.633l-6.867,-1.466l-6.942,-1.318l-6.997,-1.151l-7.034,-0.983l-7.071,-0.836l-7.108,-0.668l-7.146,-0.482l-7.145,-0.334l-7.164,-0.167l-7.183,-0l-7.164,0.167l-7.145,0.334l-7.127,0.482l-7.108,0.668l-7.09,0.836l-7.034,0.983l-6.997,1.151l-6.923,1.318l-6.886,1.466l-6.811,1.633l-6.737,1.8l-6.644,1.949l-6.571,2.097l-6.477,2.246l-6.366,2.394l-6.273,2.561l-6.143,2.673l-6.032,2.84l-5.902,2.969l-5.772,3.1l-5.624,3.248l-5.493,3.359l-5.345,3.489l-5.197,3.619l-5.011,3.731l-4.863,3.841l-4.695,3.954l-4.529,4.064l-4.343,4.176l-4.157,4.25l-3.972,4.362l-3.767,4.454l-3.582,4.529l-3.397,4.621l-3.174,4.696l-2.988,4.751l-2.765,4.825l-2.561,4.9l-2.339,4.937l-2.134,5.011l-1.912,5.048l-1.689,5.086l-1.466,5.122l-1.243,5.16l-1.021,5.178l-0.798,5.196l-0.557,5.234l-0.353,5.215l-0.111,5.234" style="fill:none;fill-rule:nonzero;stroke:#333;stroke-opacity:0.25;stroke-width:5.39px;"/><path d="M1493.36,889.449l-0.167,7.85l-0.52,7.833l-0.853,7.832l-1.188,7.813l-1.522,7.777l-1.875,7.721l-2.208,7.683l-2.524,7.647l-2.877,7.554l-3.192,7.498l-3.508,7.424l-3.842,7.349l-4.157,7.238l-4.455,7.146l-4.769,7.034l-5.086,6.923l-5.382,6.792l-5.661,6.682l-5.957,6.533l-6.236,6.403l-6.515,6.254l-6.774,6.088l-7.034,5.939l-7.294,5.772l-7.554,5.587l-7.776,5.419l-8.018,5.234l-8.24,5.048l-8.445,4.863l-8.649,4.658l-8.871,4.454l-9.039,4.232l-9.224,4.046l-9.391,3.823l-9.558,3.582l-9.707,3.378l-9.855,3.155l-9.967,2.914l-10.115,2.691l-10.207,2.45l-10.319,2.209l-10.412,1.967l-10.487,1.745l-10.56,1.484l-10.616,1.244l-10.653,0.983l-10.709,0.743l-10.728,0.501l-10.746,0.26l-10.746,-0l-10.746,-0.26l-10.727,-0.501l-10.709,-0.743l-10.672,-0.983l-10.616,-1.244l-10.542,-1.484l-10.486,-1.745l-10.412,-1.967l-10.319,-2.209l-10.208,-2.45l-10.115,-2.691l-9.966,-2.914l-9.855,-3.155l-9.707,-3.378l-9.558,-3.582l-9.391,-3.823l-9.224,-4.046l-9.057,-4.232l-8.853,-4.454l-8.649,-4.658l-8.463,-4.863l-8.222,-5.048l-8.018,-5.234l-7.776,-5.419l-7.554,-5.587l-7.294,-5.772l-7.034,-5.939l-6.774,-6.088l-6.515,-6.254l-6.236,-6.403l-5.958,-6.533l-5.66,-6.682l-5.383,-6.792l-5.085,-6.923l-4.77,-7.034l-4.454,-7.146l-4.157,-7.238l-3.842,-7.349l-3.508,-7.424l-3.192,-7.498l-2.877,-7.554l-2.524,-7.647l-2.209,-7.683l-1.874,-7.721l-1.522,-7.777l-1.188,-7.813l-0.854,-7.832l-0.519,-7.833l-0.167,-7.85" style="fill:none;fill-rule:nonzero;stroke:#333;stroke-opacity:0.25;stroke-width:7.46px;"/><path d="M1267.49,805.85l-0.056,-2.617l-0.185,-2.617l-0.279,-2.598l-0.39,-2.598l-0.519,-2.599l-0.613,-2.579l-0.742,-2.562l-0.835,-2.542l-0.965,-2.524l-1.058,-2.506l-1.17,-2.468l-1.28,-2.45l-1.392,-2.413l-1.485,-2.376l-1.596,-2.338l-1.689,-2.32l-1.8,-2.264l-1.875,-2.228l-1.986,-2.171l-2.078,-2.134l-2.172,-2.079l-2.264,-2.042l-2.357,-1.967l-2.431,-1.93l-2.506,-1.856l-2.598,-1.819l-2.673,-1.744l-2.747,-1.689l-2.802,-1.615l-2.896,-1.541l-2.95,-1.484l-3.007,-1.429l-3.081,-1.337l-3.137,-1.28l-3.173,-1.188l-3.248,-1.132l-3.285,-1.04l-3.322,-0.983l-3.36,-0.891l-3.415,-0.817l-3.433,-0.742l-3.471,-0.65l-3.489,-0.575l-3.526,-0.501l-3.545,-0.408l-3.545,-0.335l-3.564,-0.259l-3.582,-0.149l-3.582,-0.093l-3.582,0l-3.582,0.093l-3.582,0.149l-3.563,0.259l-3.563,0.335l-3.527,0.408l-3.526,0.501l-3.489,0.575l-3.471,0.65l-3.434,0.742l-3.414,0.817l-3.36,0.891l-3.34,0.983l-3.267,1.04l-3.248,1.132l-3.174,1.188l-3.136,1.28l-3.081,1.337l-3.007,1.429l-2.951,1.484l-2.895,1.541l-2.821,1.615l-2.728,1.689l-2.673,1.744l-2.598,1.819l-2.524,1.856l-2.432,1.93l-2.338,1.967l-2.264,2.042l-2.172,2.079l-2.079,2.134l-1.985,2.171l-1.875,2.228l-1.8,2.264l-1.689,2.32l-1.596,2.338l-1.485,2.376l-1.392,2.413l-1.281,2.45l-1.169,2.468l-1.058,2.506l-0.965,2.524l-0.835,2.542l-0.742,2.562l-0.613,2.579l-0.52,2.599l-0.389,2.598l-0.279,2.598l-0.185,2.617l-0.056,2.617" style="fill:none;fill-rule:nonzero;stroke:#333;stroke-opacity:0.25;stroke-width:5.6px;"/><path d="M1267.49,889.449l-0.13,5.234l-0.334,5.215l-0.576,5.234l-0.779,5.196l-1.021,5.178l-1.243,5.16l-1.467,5.122l-1.688,5.086l-1.912,5.048l-2.134,5.011l-2.339,4.937l-2.561,4.9l-2.766,4.825l-2.988,4.751l-3.173,4.696l-3.397,4.621l-3.582,4.529l-3.767,4.454l-3.972,4.362l-4.157,4.25l-4.343,4.176l-4.529,4.064l-4.695,3.953l-4.863,3.842l-5.03,3.731l-5.178,3.619l-5.345,3.489l-5.494,3.359l-5.623,3.248l-5.772,3.1l-5.902,2.969l-6.032,2.84l-6.162,2.673l-6.254,2.561l-6.366,2.394l-6.478,2.246l-6.57,2.097l-6.644,1.949l-6.737,1.8l-6.812,1.633l-6.885,1.466l-6.923,1.318l-6.997,1.151l-7.034,0.983l-7.09,0.836l-7.108,0.668l-7.127,0.482l-7.164,0.334l-7.164,0.167l-7.164,0l-7.164,-0.167l-7.145,-0.334l-7.146,-0.482l-7.108,-0.668l-7.071,-0.836l-7.035,-0.983l-6.996,-1.151l-6.942,-1.318l-6.867,-1.466l-6.811,-1.633l-6.737,-1.8l-6.663,-1.949l-6.552,-2.097l-6.477,-2.246l-6.366,-2.394l-6.273,-2.561l-6.143,-2.673l-6.032,-2.84l-5.902,-2.969l-5.772,-3.1l-5.642,-3.248l-5.494,-3.359l-5.327,-3.489l-5.196,-3.619l-5.03,-3.731l-4.863,-3.842l-4.695,-3.953l-4.51,-4.064l-4.343,-4.176l-4.157,-4.25l-3.972,-4.362l-3.786,-4.454l-3.582,-4.529l-3.378,-4.621l-3.192,-4.696l-2.97,-4.751l-2.765,-4.825l-2.562,-4.9l-2.338,-4.937l-2.134,-5.011l-1.912,-5.048l-1.689,-5.086l-1.466,-5.122l-1.244,-5.16l-1.02,-5.178l-0.798,-5.196l-0.557,-5.234l-0.353,-5.215l-0.111,-5.234" style="fill:none;fill-rule:nonzero;stroke:#333;stroke-opacity:0.25;stroke-width:5.39px;"/><path d="M1041.6,889.449l-0.056,2.617l-0.167,2.617l-0.278,2.598l-0.408,2.598l-0.502,2.599l-0.631,2.579l-0.723,2.562l-0.854,2.542l-0.947,2.524l-1.076,2.506l-1.169,2.468l-1.281,2.45l-1.373,2.413l-1.485,2.376l-1.596,2.338l-1.689,2.32l-1.801,2.264l-1.893,2.227l-1.985,2.172l-2.079,2.134l-2.172,2.079l-2.245,2.042l-2.357,1.967l-2.432,1.93l-2.505,1.856l-2.599,1.819l-2.672,1.744l-2.747,1.689l-2.821,1.615l-2.877,1.54l-2.951,1.485l-3.025,1.429l-3.062,1.337l-3.137,1.28l-3.192,1.188l-3.229,1.132l-3.286,1.04l-3.322,0.983l-3.378,0.891l-3.396,0.817l-3.433,0.742l-3.471,0.65l-3.508,0.575l-3.508,0.501l-3.545,0.408l-3.544,0.334l-3.582,0.26l-3.564,0.149l-3.582,0.093l-3.582,-0l-3.582,-0.093l-3.582,-0.149l-3.563,-0.26l-3.564,-0.334l-3.526,-0.408l-3.526,-0.501l-3.49,-0.575l-3.47,-0.65l-3.452,-0.742l-3.397,-0.817l-3.378,-0.891l-3.322,-0.983l-3.285,-1.04l-3.229,-1.132l-3.192,-1.188l-3.118,-1.28l-3.081,-1.337l-3.026,-1.429l-2.95,-1.485l-2.877,-1.54l-2.821,-1.615l-2.747,-1.689l-2.673,-1.744l-2.579,-1.819l-2.525,-1.856l-2.431,-1.93l-2.338,-1.967l-2.265,-2.042l-2.171,-2.079l-2.079,-2.134l-1.986,-2.172l-1.893,-2.227l-1.781,-2.264l-1.708,-2.32l-1.578,-2.338l-1.484,-2.376l-1.392,-2.413l-1.281,-2.45l-1.169,-2.468l-1.058,-2.506l-0.965,-2.524l-0.835,-2.542l-0.743,-2.562l-0.631,-2.579l-0.501,-2.599l-0.39,-2.598l-0.297,-2.598l-0.167,-2.617l-0.055,-2.617" style="fill:none;fill-rule:nonzero;stroke:#333;stroke-opacity:0.25;stroke-width:7.46px;"/><text x="770.393px" y="879.612px" style="font-family:'Arial-BoldMT', 'Arial', sans-serif;font-weight:700;font-size:28.501px;">Spleen</text><text x="978.773px" y="879.612px" style="font-family:'Arial-BoldMT', 'Arial', sans-serif;font-weight:700;font-size:28.501px;">Pancreas</text><text x="1219.99px" y="879.612px" style="font-family:'Arial-BoldMT', 'Arial', sans-serif;font-weight:700;font-size:28.501px;">Kidney</text><text x="1459.17px" y="879.612px" style="font-family:'Arial-BoldMT', 'Arial', sans-serif;font-weight:700;font-size:28.501px;">Lung</text><text x="1682.69px" y="879.612px" style="font-family:'Arial-BoldMT', 'Arial', sans-serif;font-weight:700;font-size:28.501px;">Heart</text><text x="1910.49px" y="879.612px" style="font-family:'Arial-BoldMT', 'Arial', sans-serif;font-weight:700;font-size:28.501px;">Liver</text><text x="2112.67px" y="879.612px" style="font-family:'Arial-BoldMT', 'Arial', sans-serif;font-weight:700;font-size:28.501px;">S.Cortex</text><text x="2524.78px" y="879.612px" style="font-family:'Arial-BoldMT', 'Arial', sans-serif;font-weight:700;font-size:28.501px;">Hypothalamus</text><text x="2343.91px" y="879.612px" style="font-family:'Arial-BoldMT', 'Arial', sans-serif;font-weight:700;font-size:28.501px;">Medulla</text><text x="2771.79px" y="879.612px" style="font-family:'Arial-BoldMT', 'Arial', sans-serif;font-weight:700;font-size:28.501px;">Cerebellum</text><text x="3014.68px" y="879.612px" style="font-family:'Arial-BoldMT', 'Arial', sans-serif;font-weight:700;font-size:28.501px;">B.Cortex</text><ellipse cx="815.353" cy="822.858" rx="23.917" ry="23.915" style="fill:#837bab;stroke:#000;stroke-width:3.33px;stroke-linecap:round;stroke-linejoin:miter;stroke-miterlimit:2;"/><ellipse cx="1041.21" cy="822.858" rx="23.917" ry="23.915" style="fill:#837bab;stroke:#000;stroke-width:3.33px;stroke-linecap:round;stroke-linejoin:miter;stroke-miterlimit:2;"/><ellipse cx="1267.07" cy="822.858" rx="23.917" ry="23.915" style="fill:#837bab;stroke:#000;stroke-width:3.33px;stroke-linecap:round;stroke-linejoin:miter;stroke-miterlimit:2;"/><circle cx="1492.92" cy="822.858" r="23.915" style="fill:#837bab;stroke:#000;stroke-width:3.33px;stroke-linecap:round;stroke-linejoin:miter;stroke-miterlimit:2;"/><ellipse cx="1718.78" cy="822.858" rx="23.917" ry="23.915" style="fill:#837bab;stroke:#000;stroke-width:3.33px;stroke-linecap:round;stroke-linejoin:miter;stroke-miterlimit:2;"/><ellipse cx="1944.63" cy="822.858" rx="23.917" ry="23.915" style="fill:#837bab;stroke:#000;stroke-width:3.33px;stroke-linecap:round;stroke-linejoin:miter;stroke-miterlimit:2;"/><circle cx="2170.49" cy="822.858" r="23.915" style="fill:#837bab;stroke:#000;stroke-width:3.33px;stroke-linecap:round;stroke-linejoin:miter;stroke-miterlimit:2;"/><ellipse cx="2396.35" cy="822.858" rx="23.917" ry="23.915" style="fill:#837bab;stroke:#000;stroke-width:3.33px;stroke-linecap:round;stroke-linejoin:miter;stroke-miterlimit:2;"/><ellipse cx="2622.2" cy="822.858" rx="23.917" ry="23.915" style="fill:#837bab;stroke:#000;stroke-width:3.33px;stroke-linecap:round;stroke-linejoin:miter;stroke-miterlimit:2;"/><circle cx="2848.06" cy="822.858" r="23.915" style="fill:#837bab;stroke:#000;stroke-width:3.33px;stroke-linecap:round;stroke-linejoin:miter;stroke-miterlimit:2;"/><ellipse cx="3073.92" cy="822.858" rx="23.917" ry="23.915" style="fill:#837bab;stroke:#000;stroke-width:3.33px;stroke-linecap:round;stroke-linejoin:miter;stroke-miterlimit:2;"/></g></svg>