<?xml version="1.0" encoding="UTF-8" standalone="no"?><!DOCTYPE svg PUBLIC "-//W3C//DTD SVG 1.1//EN" "http://www.w3.org/Graphics/SVG/1.1/DTD/svg11.dtd"><svg width="100%" height="100%" viewBox="0 0 5000 2923" version="1.1" xmlns="http://www.w3.org/2000/svg" xmlns:xlink="http://www.w3.org/1999/xlink" xml:space="preserve" xmlns:serif="http://www.serif.com/" style="fill-rule:evenodd;clip-rule:evenodd;stroke-linejoin:bevel;stroke-miterlimit:1;"><g id="surface1"><rect x="0" y="0" width="5000" height="2922.22" style="fill:#fefefe;"/><path d="M4043.14,1414.09l-0.093,-4.501l-0.243,-4.486l-0.392,-4.486l-0.56,-4.486l-0.71,-4.456l-0.877,-4.425l-1.027,-4.41l-1.177,-4.364l-1.344,-4.35l-1.494,-4.288l-1.643,-4.258l-1.793,-4.212l-1.942,-4.152l-2.091,-4.09l-2.222,-4.03l-2.372,-3.969l-2.521,-3.893l-2.651,-3.832l-2.782,-3.741l-2.913,-3.665l-3.044,-3.588l-3.175,-3.498l-3.286,-3.391l-3.399,-3.315l-3.529,-3.209l-3.641,-3.102l-3.735,-2.996l-3.865,-2.904l-3.94,-2.783l-4.052,-2.661l-4.146,-2.555l-4.22,-2.433l-4.313,-2.311l-4.388,-2.19l-4.463,-2.068l-4.538,-1.932l-4.612,-1.794l-4.65,-1.673l-4.724,-1.551l-4.78,-1.399l-4.818,-1.262l-4.874,-1.141l-4.892,-0.988l-4.93,-0.852l-4.967,-0.714l-4.985,-0.563l-5.005,-0.426l-5.023,-0.289l-5.023,-0.136l-5.023,-0l-5.023,0.136l-5.004,0.289l-5.005,0.426l-4.986,0.563l-4.967,0.714l-4.929,0.852l-4.893,0.988l-4.873,1.141l-4.818,1.262l-4.78,1.399l-4.725,1.551l-4.668,1.673l-4.594,1.794l-4.537,1.932l-4.463,2.068l-4.388,2.19l-4.314,2.311l-4.238,2.433l-4.127,2.555l-4.052,2.661l-3.959,2.783l-3.847,2.904l-3.734,2.996l-3.641,3.102l-3.53,3.209l-3.398,3.315l-3.305,3.391l-3.156,3.498l-3.044,3.588l-2.913,3.665l-2.782,3.741l-2.652,3.832l-2.521,3.893l-2.371,3.969l-2.222,4.03l-2.092,4.09l-1.942,4.152l-1.792,4.212l-1.643,4.258l-1.494,4.288l-1.345,4.35l-1.176,4.364l-1.027,4.41l-0.878,4.425l-0.709,4.456l-0.561,4.486l-0.41,4.486l-0.224,4.486l-0.094,4.501" style="fill:none;fill-rule:nonzero;stroke:#333;stroke-opacity:0.27;stroke-width:57.67px;"/><path d="M4043.14,1581.38l-0.168,8.127l-0.485,8.114l-0.784,8.1l-1.121,8.072l-1.438,8.045l-1.736,8.004l-2.054,7.963l-2.372,7.894l-2.689,7.839l-2.969,7.756l-3.286,7.675l-3.585,7.592l-3.884,7.496l-4.183,7.399l-4.463,7.277l-4.743,7.166l-5.023,7.043l-5.303,6.905l-5.565,6.768l-5.826,6.618l-6.087,6.466l-6.349,6.301l-6.573,6.151l-6.816,5.972l-7.058,5.793l-7.264,5.602l-7.488,5.422l-7.712,5.217l-7.899,5.025l-8.085,4.819l-8.291,4.613l-8.44,4.393l-8.627,4.173l-8.777,3.954l-8.944,3.721l-9.075,3.5l-9.206,3.254l-9.318,3.02l-9.448,2.787l-9.561,2.526l-9.635,2.293l-9.729,2.046l-9.803,1.784l-9.86,1.538l-9.934,1.291l-9.971,1.029l-10.009,0.769l-10.028,0.508l-10.046,0.261l-10.046,-0l-10.046,-0.261l-10.027,-0.508l-10.009,-0.769l-9.972,-1.029l-9.915,-1.291l-9.859,-1.538l-9.804,-1.784l-9.729,-2.046l-9.654,-2.293l-9.542,-2.526l-9.448,-2.787l-9.337,-3.02l-9.206,-3.254l-9.075,-3.5l-8.925,-3.721l-8.777,-3.954l-8.627,-4.173l-8.459,-4.393l-8.272,-4.613l-8.104,-4.819l-7.899,-5.025l-7.693,-5.217l-7.488,-5.422l-7.282,-5.602l-7.04,-5.793l-6.816,-5.972l-6.591,-6.151l-6.331,-6.301l-6.087,-6.466l-5.826,-6.618l-5.565,-6.768l-5.303,-6.905l-5.023,-7.043l-4.743,-7.166l-4.463,-7.277l-4.183,-7.399l-3.884,-7.496l-3.585,-7.592l-3.286,-7.675l-2.988,-7.756l-2.67,-7.839l-2.372,-7.894l-2.054,-7.963l-1.755,-8.004l-1.419,-8.045l-1.121,-8.072l-0.802,-8.1l-0.467,-8.114l-0.168,-8.127" style="fill:none;fill-rule:nonzero;stroke:#333;stroke-opacity:0.27;stroke-width:59.19px;"/><path d="M4043.14,1414.09l-0.242,-13.504l-0.729,-13.488l-1.195,-13.458l-1.661,-13.413l-2.148,-13.366l-2.614,-13.306l-3.1,-13.215l-3.548,-13.123l-4.014,-13.017l-4.482,-12.896l-4.93,-12.758l-5.378,-12.607l-5.826,-12.454l-6.255,-12.287l-6.704,-12.105l-7.114,-11.891l-7.544,-11.694l-7.936,-11.481l-8.347,-11.238l-8.758,-11.01l-9.131,-10.736l-9.505,-10.477l-9.859,-10.204l-10.233,-9.93l-10.587,-9.626l-10.906,-9.306l-11.222,-9.003l-11.559,-8.683l-11.838,-8.348l-12.157,-8.014l-12.417,-7.649l-12.679,-7.3l-12.922,-6.934l-13.183,-6.569l-13.389,-6.189l-13.613,-5.809l-13.818,-5.414l-13.986,-5.018l-14.173,-4.608l-14.322,-4.212l-14.472,-3.817l-14.583,-3.391l-14.715,-2.965l-14.789,-2.555l-14.901,-2.144l-14.939,-1.704l-15.013,-1.277l-15.05,-0.867l-15.069,-0.425l-15.07,-0l-15.069,0.425l-15.05,0.867l-14.995,1.277l-14.957,1.704l-14.883,2.144l-14.807,2.555l-14.696,2.965l-14.602,3.391l-14.472,3.817l-14.322,4.212l-14.155,4.608l-14.004,5.018l-13.8,5.414l-13.613,5.809l-13.407,6.189l-13.164,6.569l-12.941,6.934l-12.679,7.3l-12.417,7.649l-12.138,8.014l-11.857,8.348l-11.54,8.683l-11.242,9.003l-10.905,9.306l-10.569,9.626l-10.233,9.93l-9.878,10.204l-9.504,10.477l-9.131,10.736l-8.739,11.01l-8.347,11.238l-7.955,11.481l-7.544,11.694l-7.114,11.891l-6.685,12.105l-6.275,12.287l-5.826,12.454l-5.377,12.607l-4.93,12.758l-4.482,12.896l-4.014,13.017l-3.548,13.123l-3.081,13.215l-2.633,13.306l-2.129,13.366l-1.681,13.413l-1.195,13.458l-0.709,13.488l-0.243,13.504" style="fill:none;fill-rule:nonzero;stroke:#333;stroke-opacity:0.27;stroke-width:52.67px;"/><path d="M4043.14,1581.38l-0.336,16.255l-0.952,16.227l-1.587,16.2l-2.222,16.158l-2.876,16.09l-3.492,16.008l-4.108,15.912l-4.743,15.801l-5.359,15.665l-5.957,15.513l-6.573,15.363l-7.17,15.184l-7.768,14.991l-8.347,14.786l-8.926,14.566l-9.504,14.333l-10.047,14.072l-10.606,13.811l-11.129,13.536l-11.652,13.235l-12.175,12.932l-12.679,12.617l-13.165,12.287l-13.631,11.944l-14.098,11.573l-14.546,11.23l-14.976,10.832l-15.406,10.448l-15.797,10.049l-16.19,9.638l-16.563,9.212l-16.899,8.786l-17.254,8.361l-17.553,7.894l-17.87,7.454l-18.15,6.988l-18.412,6.508l-18.654,6.04l-18.897,5.56l-19.103,5.08l-19.27,4.572l-19.458,4.091l-19.607,3.569l-19.737,3.076l-19.85,2.581l-19.942,2.045l-20.018,1.551l-20.055,1.03l-20.092,0.522l-20.093,-0l-20.092,-0.522l-20.055,-1.03l-20.017,-1.551l-19.943,-2.045l-19.831,-2.581l-19.737,-3.076l-19.607,-3.569l-19.458,-4.091l-19.289,-4.572l-19.103,-5.08l-18.878,-5.56l-18.673,-6.04l-18.412,-6.508l-18.15,-6.988l-17.87,-7.454l-17.553,-7.894l-17.254,-8.361l-16.899,-8.786l-16.563,-9.212l-16.19,-9.638l-15.797,-10.049l-15.387,-10.448l-14.994,-10.832l-14.547,-11.23l-14.098,-11.573l-13.631,-11.944l-13.165,-12.287l-12.679,-12.617l-12.175,-12.932l-11.652,-13.235l-11.129,-13.536l-10.606,-13.811l-10.046,-14.072l-9.486,-14.333l-8.926,-14.566l-8.366,-14.786l-7.749,-14.991l-7.189,-15.184l-6.573,-15.363l-5.957,-15.513l-5.359,-15.665l-4.743,-15.801l-4.108,-15.912l-3.492,-16.008l-2.857,-16.09l-2.241,-16.158l-1.587,-16.2l-0.952,-16.227l-0.318,-16.255" style="fill:none;fill-rule:nonzero;stroke:#333;stroke-opacity:0.27;stroke-width:62.3px;"/><path d="M4043.14,1414.09l-0.41,-22.506l-1.195,-22.476l-1.98,-22.43l-2.801,-22.369l-3.566,-22.278l-4.37,-22.156l-5.135,-22.035l-5.938,-21.867l-6.685,-21.7l-7.469,-21.487l-8.216,-21.259l-8.963,-21.031l-9.71,-20.758l-10.439,-20.468l-11.148,-20.164l-11.876,-19.845l-12.548,-19.48l-13.258,-19.13l-13.911,-18.735l-14.584,-18.339l-15.2,-17.898l-15.853,-17.473l-16.451,-17.016l-17.049,-16.53l-17.627,-16.028l-18.188,-15.541l-18.71,-15.009l-19.252,-14.462l-19.757,-13.914l-20.223,-13.336l-20.708,-12.759l-21.138,-12.165l-21.549,-11.573l-21.959,-10.933l-22.333,-10.311l-22.688,-9.671l-23.005,-9.033l-23.323,-8.364l-23.622,-7.694l-23.864,-7.026l-24.107,-6.341l-24.331,-5.657l-24.499,-4.957l-24.667,-4.258l-24.817,-3.543l-24.928,-2.859l-25.004,-2.144l-25.078,-1.415l-25.115,-0.714l-25.115,-0l-25.116,0.714l-25.078,1.415l-25.003,2.144l-24.929,2.859l-24.816,3.543l-24.667,4.258l-24.499,4.957l-24.331,5.657l-24.107,6.341l-23.865,7.026l-23.621,7.694l-23.323,8.364l-23.005,9.033l-22.688,9.671l-22.333,10.311l-21.96,10.933l-21.567,11.573l-21.119,12.165l-20.709,12.759l-20.223,13.336l-19.756,13.914l-19.252,14.462l-18.71,15.009l-18.188,15.541l-17.627,16.028l-17.049,16.53l-16.451,17.016l-15.853,17.473l-15.2,17.898l-14.584,18.339l-13.911,18.735l-13.258,19.13l-12.549,19.48l-11.876,19.845l-11.148,20.164l-10.438,20.468l-9.71,20.758l-8.963,21.031l-8.216,21.259l-7.469,21.487l-6.704,21.7l-5.919,21.867l-5.136,22.035l-4.369,22.156l-3.567,22.278l-2.801,22.369l-1.979,22.43l-1.195,22.476l-0.411,22.506" style="fill:none;fill-rule:nonzero;stroke:#333;stroke-opacity:0.27;stroke-width:14.42px;"/><path d="M4043.14,1581.38l-0.485,24.382l-1.438,24.341l-2.39,24.313l-3.342,24.232l-4.295,24.135l-5.229,24.011l-6.181,23.861l-7.095,23.695l-8.048,23.504l-8.945,23.27l-9.859,23.05l-10.756,22.776l-11.652,22.488l-12.53,22.172l-13.388,21.842l-14.229,21.499l-15.088,21.115l-15.891,20.716l-16.694,20.305l-17.496,19.852l-18.263,19.398l-19.009,18.932l-19.737,18.424l-20.466,17.916l-21.157,17.367l-21.81,16.831l-22.464,16.255l-23.098,15.678l-23.715,15.06l-24.275,14.457l-24.835,13.825l-25.358,13.193l-25.863,12.52l-26.347,11.848l-26.796,11.175l-27.226,10.475l-27.617,9.775l-27.991,9.075l-28.346,8.333l-28.645,7.606l-28.924,6.864l-29.186,6.123l-29.411,5.382l-29.596,4.613l-29.784,3.844l-29.896,3.089l-30.026,2.32l-30.082,1.551l-30.139,0.769l-30.138,-0l-30.139,-0.769l-30.101,-1.551l-30.007,-2.32l-29.915,-3.089l-29.765,-3.844l-29.596,-4.613l-29.411,-5.382l-29.186,-6.123l-28.943,-6.864l-28.645,-7.606l-28.327,-8.333l-27.991,-9.075l-27.617,-9.775l-27.226,-10.475l-26.795,-11.175l-26.348,-11.848l-25.862,-12.52l-25.377,-13.193l-24.835,-13.825l-24.276,-14.457l-23.696,-15.06l-23.098,-15.678l-22.464,-16.255l-21.829,-16.831l-21.138,-17.367l-20.466,-17.916l-19.737,-18.424l-19.009,-18.932l-18.263,-19.398l-17.496,-19.852l-16.694,-20.305l-15.891,-20.716l-15.088,-21.115l-14.229,-21.499l-13.388,-21.842l-12.53,-22.172l-11.652,-22.488l-10.756,-22.776l-9.859,-23.05l-8.963,-23.27l-8.03,-23.504l-7.114,-23.695l-6.162,-23.861l-5.247,-24.011l-4.276,-24.135l-3.343,-24.232l-2.39,-24.313l-1.438,-24.341l-0.485,-24.382" style="fill:none;fill-rule:nonzero;stroke:#333;stroke-opacity:0.27;stroke-width:17.56px;"/><path d="M4043.14,1414.09l-0.56,-31.493l-1.68,-31.478l-2.783,-31.402l-3.902,-31.326l-5.005,-31.189l-6.106,-31.022l-7.208,-30.84l-8.29,-30.626l-9.374,-30.368l-10.439,-30.079l-11.521,-29.775l-12.548,-29.44l-13.594,-29.06l-14.603,-28.65l-15.629,-28.239l-16.6,-27.767l-17.59,-27.281l-18.543,-26.779l-19.495,-26.232l-20.391,-25.669l-21.306,-25.076l-22.183,-24.452l-23.043,-23.814l-23.864,-23.145l-24.667,-22.445l-25.47,-21.746l-26.199,-21.015l-26.945,-20.241l-27.655,-19.48l-28.327,-18.689l-28.981,-17.868l-29.578,-17.031l-30.194,-16.18l-30.736,-15.313l-31.259,-14.447l-31.763,-13.534l-32.23,-12.637l-32.64,-11.709l-33.071,-10.781l-33.406,-9.824l-33.761,-8.881l-34.041,-7.907l-34.321,-6.95l-34.527,-5.961l-34.732,-4.972l-34.9,-4l-35.012,-2.996l-35.105,-1.992l-35.162,-1.003l-35.18,-0l-35.142,1.003l-35.106,1.992l-35.031,2.996l-34.881,4l-34.732,4.972l-34.545,5.961l-34.303,6.95l-34.06,7.907l-33.742,8.881l-33.425,9.824l-33.051,10.781l-32.659,11.709l-32.23,12.637l-31.744,13.534l-31.278,14.447l-30.736,15.313l-30.176,16.18l-29.596,17.031l-28.962,17.868l-28.328,18.689l-27.654,19.48l-26.946,20.241l-26.217,21.015l-25.451,21.746l-24.686,22.445l-23.864,23.145l-23.024,23.814l-22.184,24.452l-21.306,25.076l-20.41,25.669l-19.476,26.232l-18.542,26.779l-17.59,27.281l-16.619,27.767l-15.611,28.239l-14.621,28.65l-13.594,29.06l-12.548,29.44l-11.503,29.775l-10.438,30.079l-9.374,30.368l-8.291,30.626l-7.208,30.84l-6.106,31.022l-5.004,31.189l-3.903,31.326l-2.801,31.402l-1.662,31.478l-0.56,31.493" style="fill:none;fill-rule:nonzero;stroke:#333;stroke-opacity:0.27;stroke-width:15.01px;"/><path d="M4043.14,1581.38l-0.653,32.496l-1.905,32.482l-3.193,32.399l-4.444,32.318l-5.733,32.166l-6.983,32.015l-8.217,31.823l-9.486,31.59l-10.718,31.343l-11.932,31.04l-13.146,30.711l-14.341,30.368l-15.536,29.984l-16.694,29.571l-17.851,29.132l-18.991,28.652l-20.111,28.158l-21.194,27.622l-22.258,27.073l-23.323,26.469l-24.349,25.878l-25.34,25.234l-26.329,24.56l-27.281,23.888l-28.197,23.16l-29.092,22.433l-29.952,21.678l-30.811,20.895l-31.595,20.098l-32.36,19.276l-33.126,18.437l-33.817,17.573l-34.489,16.694l-35.124,15.815l-35.741,14.896l-36.3,13.962l-36.824,13.042l-37.309,12.082l-37.775,11.12l-38.205,10.145l-38.56,9.157l-38.915,8.155l-39.214,7.166l-39.475,6.151l-39.699,5.134l-39.885,4.119l-40.017,3.089l-40.11,2.059l-40.184,1.03l-40.204,-0l-40.184,-1.03l-40.11,-2.059l-40.016,-3.089l-39.886,-4.119l-39.699,-5.134l-39.456,-6.151l-39.214,-7.166l-38.915,-8.155l-38.578,-9.157l-38.187,-10.145l-37.776,-11.12l-37.327,-12.082l-36.823,-13.042l-36.301,-13.962l-35.74,-14.896l-35.124,-15.815l-34.49,-16.694l-33.817,-17.573l-33.107,-18.437l-32.379,-19.276l-31.595,-20.098l-30.792,-20.895l-29.97,-21.678l-29.093,-22.433l-28.197,-23.16l-27.281,-23.888l-26.329,-24.56l-25.339,-25.234l-24.35,-25.878l-23.323,-26.469l-22.258,-27.073l-21.194,-27.622l-20.111,-28.158l-18.972,-28.652l-17.852,-29.132l-16.712,-29.571l-15.517,-29.984l-14.36,-30.368l-13.146,-30.711l-11.932,-31.04l-10.718,-31.343l-9.468,-31.59l-8.234,-31.823l-6.984,-32.015l-5.714,-32.166l-4.463,-32.318l-3.193,-32.399l-1.905,-32.482l-0.635,-32.496" style="fill:none;fill-rule:nonzero;stroke:#333;stroke-opacity:0.27;stroke-width:18.69px;"/><path d="M4043.14,1414.09l-0.728,-40.496l-2.147,-40.465l-3.585,-40.389l-5.023,-40.253l-6.424,-40.1l-7.861,-39.902l-9.262,-39.644l-10.663,-39.371l-12.044,-39.051l-13.426,-38.67l-14.789,-38.291l-16.152,-37.834l-17.478,-37.364l-18.785,-36.845l-20.074,-36.299l-21.362,-35.706l-22.613,-35.082l-23.846,-34.428l-25.04,-33.728l-26.236,-32.999l-27.393,-32.238l-28.514,-31.433l-29.616,-30.626l-30.698,-29.76l-31.726,-28.862l-32.715,-27.95l-33.705,-27.023l-34.658,-26.034l-35.553,-25.045l-36.413,-24.012l-37.253,-22.977l-38.037,-21.898l-38.802,-20.803l-39.531,-19.708l-40.185,-18.552l-40.838,-17.412l-41.436,-16.24l-41.977,-15.055l-42.5,-13.853l-42.967,-12.653l-43.396,-11.405l-43.788,-10.173l-44.106,-8.926l-44.405,-7.664l-44.666,-6.403l-44.853,-5.124l-45.021,-3.863l-45.132,-2.57l-45.208,-1.277l-45.226,-0l-45.208,1.277l-45.133,2.57l-45.021,3.863l-44.853,5.124l-44.666,6.403l-44.404,7.664l-44.106,8.926l-43.789,10.173l-43.396,11.405l-42.967,12.653l-42.5,13.853l-41.977,15.055l-41.435,16.24l-40.839,17.412l-40.184,18.552l-39.531,19.708l-38.803,20.803l-38.037,21.898l-37.253,22.977l-36.412,24.012l-35.554,25.045l-34.657,26.034l-33.705,27.023l-32.715,27.95l-31.726,28.862l-30.699,29.76l-29.615,30.626l-28.514,31.433l-27.394,32.238l-26.235,32.999l-25.041,33.728l-23.845,34.428l-22.614,35.082l-21.362,35.706l-20.073,36.299l-18.785,36.845l-17.478,37.364l-16.153,37.834l-14.789,38.291l-13.426,38.67l-12.044,39.051l-10.662,39.371l-9.262,39.644l-7.861,39.902l-6.424,40.1l-5.023,40.253l-3.585,40.389l-2.148,40.465l-0.709,40.496" style="fill:none;fill-rule:nonzero;stroke:#333;stroke-opacity:0.27;stroke-width:13.54px;"/><path d="M4043.14,1581.37l-0.802,40.623l-2.391,40.596l-3.977,40.513l-5.583,40.376l-7.152,40.225l-8.72,40.019l-10.289,39.772l-11.858,39.498l-13.388,39.154l-14.92,38.811l-16.432,38.399l-17.927,37.96l-19.42,37.479l-20.876,36.972l-22.315,36.408l-23.733,35.818l-25.115,35.187l-26.498,34.527l-27.841,33.828l-29.149,33.113l-30.418,32.332l-31.689,31.534l-32.92,30.711l-34.097,29.86l-35.237,28.954l-36.375,28.048l-37.439,27.086l-38.504,26.126l-39.494,25.124l-40.465,24.08l-41.398,23.05l-42.276,21.966l-43.116,20.881l-43.9,19.756l-44.667,18.616l-45.375,17.463l-46.029,16.296l-46.646,15.101l-47.224,13.894l-47.747,12.685l-48.214,11.45l-48.644,10.2l-49.017,8.951l-49.334,7.688l-49.614,6.425l-49.858,5.149l-50.025,3.857l-50.137,2.581l-50.231,1.291l-50.249,-0l-50.231,-1.291l-50.137,-2.581l-50.025,-3.857l-49.858,-5.149l-49.614,-6.425l-49.334,-7.688l-49.017,-8.951l-48.644,-10.2l-48.214,-11.45l-47.747,-12.685l-47.224,-13.894l-46.646,-15.101l-46.029,-16.296l-45.375,-17.463l-44.667,-18.616l-43.919,-19.756l-43.116,-20.881l-42.257,-21.966l-41.398,-23.05l-40.465,-24.08l-39.494,-25.124l-38.504,-26.126l-37.439,-27.086l-36.375,-28.048l-35.255,-28.954l-34.097,-29.86l-32.902,-30.711l-31.689,-31.534l-30.418,-32.332l-29.149,-33.113l-27.841,-33.828l-26.498,-34.527l-25.115,-35.187l-23.733,-35.818l-22.315,-36.408l-20.876,-36.972l-19.42,-37.479l-17.927,-37.96l-16.432,-38.399l-14.92,-38.811l-13.407,-39.154l-11.839,-39.498l-10.289,-39.772l-8.72,-40.019l-7.152,-40.225l-5.583,-40.376l-3.977,-40.513l-2.391,-40.596l-0.803,-40.623" style="fill:none;fill-rule:nonzero;stroke:#333;stroke-opacity:0.27;stroke-width:11.61px;"/><path d="M3726.41,1581.38l-0.074,4.063l-0.243,4.05l-0.392,4.05l-0.561,4.05l-0.709,4.023l-0.878,3.995l-1.027,3.981l-1.195,3.94l-1.326,3.927l-1.494,3.871l-1.643,3.844l-1.792,3.803l-1.942,3.748l-2.092,3.693l-2.222,3.638l-2.39,3.583l-2.502,3.515l-2.652,3.46l-2.782,3.377l-2.913,3.308l-3.044,3.24l-3.174,3.158l-3.287,3.061l-3.417,2.993l-3.51,2.897l-3.642,2.801l-3.753,2.704l-3.847,2.622l-3.94,2.513l-4.052,2.402l-4.145,2.307l-4.22,2.196l-4.314,2.087l-4.388,1.977l-4.463,1.867l-4.537,1.744l-4.613,1.62l-4.668,1.51l-4.724,1.4l-4.762,1.263l-4.818,1.14l-4.873,1.029l-4.893,0.893l-4.948,0.768l-4.948,0.646l-4.986,0.508l-5.004,0.384l-5.023,0.261l-5.024,0.123l-5.023,0l-5.023,-0.123l-5.004,-0.261l-5.004,-0.384l-4.986,-0.508l-4.967,-0.646l-4.93,-0.768l-4.911,-0.893l-4.855,-1.029l-4.818,-1.14l-4.78,-1.263l-4.724,-1.4l-4.669,-1.51l-4.593,-1.62l-4.538,-1.744l-4.463,-1.867l-4.406,-1.977l-4.314,-2.087l-4.22,-2.196l-4.145,-2.307l-4.034,-2.402l-3.959,-2.513l-3.846,-2.622l-3.735,-2.704l-3.641,-2.801l-3.529,-2.897l-3.417,-2.993l-3.287,-3.061l-3.174,-3.158l-3.044,-3.24l-2.913,-3.308l-2.782,-3.377l-2.652,-3.46l-2.502,-3.515l-2.372,-3.583l-2.24,-3.638l-2.073,-3.693l-1.942,-3.748l-1.793,-3.803l-1.662,-3.844l-1.475,-3.871l-1.344,-3.927l-1.195,-3.94l-1.027,-3.981l-0.859,-3.995l-0.729,-4.023l-0.56,-4.05l-0.392,-4.05l-0.243,-4.05l-0.074,-4.063" style="fill:none;fill-rule:nonzero;stroke:#333;stroke-opacity:0.27;stroke-width:54.94px;"/><path d="M3726.41,1414.09l-0.149,-9.003l-0.486,-8.987l-0.803,-8.972l-1.101,-8.941l-1.438,-8.912l-1.737,-8.865l-2.054,-8.82l-2.371,-8.744l-2.689,-8.683l-2.988,-8.592l-3.286,-8.5l-3.586,-8.41l-3.884,-8.303l-4.164,-8.196l-4.463,-8.06l-4.743,-7.938l-5.023,-7.801l-5.303,-7.649l-5.564,-7.497l-5.845,-7.329l-6.087,-7.163l-6.331,-6.98l-6.573,-6.812l-6.834,-6.615l-7.04,-6.417l-7.282,-6.205l-7.488,-6.006l-7.693,-5.779l-7.899,-5.566l-8.086,-5.337l-8.291,-5.11l-8.458,-4.866l-8.609,-4.623l-8.795,-4.379l-8.926,-4.121l-9.075,-3.878l-9.205,-3.604l-9.337,-3.346l-9.43,-3.086l-9.561,-2.799l-9.635,-2.539l-9.729,-2.266l-9.803,-1.977l-9.878,-1.703l-9.915,-1.429l-9.972,-1.141l-10.009,-0.851l-10.027,-0.563l-10.046,-0.289l-10.046,0l-10.047,0.289l-10.027,0.563l-10.009,0.851l-9.971,1.141l-9.916,1.429l-9.878,1.703l-9.803,1.977l-9.729,2.266l-9.635,2.539l-9.542,2.799l-9.449,3.086l-9.336,3.346l-9.206,3.604l-9.075,3.878l-8.926,4.121l-8.795,4.379l-8.608,4.623l-8.459,4.866l-8.272,5.11l-8.105,5.337l-7.898,5.566l-7.694,5.779l-7.488,6.006l-7.282,6.205l-7.04,6.417l-6.834,6.615l-6.573,6.812l-6.33,6.98l-6.088,7.163l-5.826,7.329l-5.583,7.497l-5.284,7.649l-5.024,7.801l-4.761,7.938l-4.463,8.06l-4.164,8.196l-3.884,8.303l-3.585,8.41l-3.287,8.5l-2.988,8.592l-2.688,8.683l-2.353,8.744l-2.073,8.82l-1.737,8.865l-1.437,8.912l-1.102,8.941l-0.803,8.972l-0.486,8.987l-0.149,9.003" style="fill:none;fill-rule:nonzero;stroke:#333;stroke-opacity:0.27;stroke-width:49.73px;"/><path d="M3726.41,1581.38l-0.243,12.191l-0.709,12.177l-1.195,12.15l-1.662,12.109l-2.148,12.067l-2.614,12.013l-3.099,11.93l-3.548,11.848l-4.015,11.752l-4.482,11.642l-4.929,11.518l-5.378,11.381l-5.826,11.244l-6.256,11.093l-6.703,10.928l-7.115,10.736l-7.544,10.557l-7.954,10.365l-8.347,10.146l-8.739,9.939l-9.132,9.693l-9.504,9.459l-9.878,9.212l-10.214,8.964l-10.588,8.691l-10.905,8.402l-11.241,8.127l-11.54,7.839l-11.858,7.537l-12.137,7.235l-12.418,6.906l-12.679,6.589l-12.94,6.261l-13.165,5.931l-13.407,5.587l-13.613,5.244l-13.799,4.888l-14.005,4.53l-14.154,4.16l-14.323,3.803l-14.471,3.446l-14.584,3.061l-14.714,2.677l-14.808,2.307l-14.883,1.936l-14.957,1.537l-14.994,1.153l-15.051,0.783l-15.069,0.384l-15.069,0l-15.069,-0.384l-15.051,-0.783l-14.995,-1.153l-14.957,-1.537l-14.882,-1.936l-14.808,-2.307l-14.714,-2.677l-14.584,-3.061l-14.472,-3.446l-14.322,-3.803l-14.154,-4.16l-14.005,-4.53l-13.799,-4.888l-13.613,-5.244l-13.407,-5.587l-13.165,-5.931l-12.94,-6.261l-12.679,-6.589l-12.418,-6.906l-12.138,-7.235l-11.857,-7.537l-11.54,-7.839l-11.241,-8.127l-10.905,-8.402l-10.588,-8.691l-10.214,-8.964l-9.878,-9.212l-9.505,-9.459l-9.131,-9.693l-8.739,-9.939l-8.366,-10.146l-7.936,-10.365l-7.544,-10.557l-7.114,-10.736l-6.704,-10.928l-6.255,-11.093l-5.826,-11.244l-5.378,-11.381l-4.93,-11.518l-4.481,-11.642l-4.015,-11.752l-3.548,-11.848l-3.1,-11.93l-2.614,-12.013l-2.147,-12.067l-1.662,-12.109l-1.195,-12.15l-0.729,-12.177l-0.224,-12.191" style="fill:none;fill-rule:nonzero;stroke:#333;stroke-opacity:0.27;stroke-width:54.94px;"/><path d="M3726.41,1414.09l-0.317,-18.005l-0.953,-17.974l-1.587,-17.944l-2.241,-17.899l-2.857,-17.822l-3.491,-17.731l-4.108,-17.625l-4.743,-17.503l-5.36,-17.351l-5.956,-17.183l-6.573,-17.017l-7.189,-16.818l-7.768,-16.606l-8.347,-16.378l-8.926,-16.134l-9.486,-15.876l-10.046,-15.587l-10.606,-15.298l-11.13,-14.994l-11.652,-14.659l-12.175,-14.325l-12.679,-13.975l-13.164,-13.61l-13.631,-13.23l-14.099,-12.819l-14.546,-12.439l-14.995,-11.999l-15.386,-11.572l-15.798,-11.131l-16.189,-10.675l-16.563,-10.204l-16.899,-9.732l-17.254,-9.261l-17.572,-8.744l-17.851,-8.258l-18.151,-7.74l-18.411,-7.208l-18.673,-6.691l-18.879,-6.159l-19.102,-5.626l-19.29,-5.064l-19.457,-4.532l-19.607,-3.953l-19.737,-3.407l-19.831,-2.858l-19.943,-2.266l-20.018,-1.719l-20.055,-1.14l-20.092,-0.578l-20.092,0l-20.092,0.578l-20.074,1.14l-19.999,1.719l-19.943,2.266l-19.849,2.858l-19.738,3.407l-19.607,3.953l-19.457,4.532l-19.271,5.064l-19.102,5.626l-18.897,6.159l-18.655,6.691l-18.411,7.208l-18.151,7.74l-17.87,8.258l-17.553,8.744l-17.254,9.261l-16.899,9.732l-16.563,10.204l-16.189,10.675l-15.798,11.131l-15.405,11.572l-14.976,11.999l-14.546,12.439l-14.098,12.819l-13.632,13.23l-13.164,13.61l-12.679,13.975l-12.175,14.325l-11.652,14.659l-11.148,14.994l-10.588,15.298l-10.046,15.587l-9.505,15.876l-8.925,16.134l-8.347,16.378l-7.768,16.606l-7.171,16.818l-6.573,17.017l-5.975,17.183l-5.341,17.351l-4.742,17.503l-4.127,17.625l-3.473,17.731l-2.876,17.822l-2.222,17.899l-1.587,17.944l-0.971,17.974l-0.318,18.005" style="fill:none;fill-rule:nonzero;stroke:#333;stroke-opacity:0.27;stroke-width:14.42px;"/><path d="M3726.41,1581.38l-0.392,20.318l-1.195,20.291l-1.998,20.25l-2.782,20.195l-3.567,20.113l-4.369,20.002l-5.154,19.893l-5.92,19.742l-6.685,19.591l-7.469,19.398l-8.216,19.193l-8.963,18.987l-9.71,18.74l-10.438,18.478l-11.148,18.205l-11.876,17.915l-12.567,17.587l-13.239,17.271l-13.912,16.913l-14.584,16.557l-15.218,16.159l-15.835,15.774l-16.451,15.362l-17.049,14.923l-17.627,14.471l-18.188,14.03l-18.729,13.55l-19.233,13.056l-19.756,12.562l-20.242,12.04l-20.69,11.519l-21.138,10.983l-21.548,10.447l-21.96,9.871l-22.333,9.308l-22.688,8.731l-23.024,8.155l-23.322,7.551l-23.603,6.947l-23.864,6.342l-24.107,5.725l-24.332,5.107l-24.499,4.476l-24.686,3.844l-24.797,3.199l-24.929,2.581l-25.003,1.935l-25.078,1.277l-25.116,0.645l-25.134,0l-25.096,-0.645l-25.078,-1.277l-25.022,-1.935l-24.91,-2.581l-24.817,-3.199l-24.667,-3.844l-24.518,-4.476l-24.312,-5.107l-24.107,-5.725l-23.864,-6.342l-23.622,-6.947l-23.322,-7.551l-23.024,-8.155l-22.688,-8.731l-22.333,-9.308l-21.941,-9.871l-21.568,-10.447l-21.138,-10.983l-20.689,-11.519l-20.223,-12.04l-19.757,-12.562l-19.252,-13.056l-18.729,-13.55l-18.169,-14.03l-17.627,-14.471l-17.049,-14.923l-16.451,-15.362l-15.853,-15.774l-15.219,-16.159l-14.565,-16.557l-13.911,-16.913l-13.258,-17.271l-12.567,-17.587l-11.857,-17.915l-11.167,-18.205l-10.438,-18.478l-9.692,-18.74l-8.981,-18.987l-8.216,-19.193l-7.451,-19.398l-6.704,-19.591l-5.919,-19.742l-5.154,-19.893l-4.351,-20.002l-3.585,-20.113l-2.782,-20.195l-1.98,-20.25l-1.195,-20.291l-0.41,-20.318" style="fill:none;fill-rule:nonzero;stroke:#333;stroke-opacity:0.27;stroke-width:17.84px;"/><path d="M3726.41,1414.09l-0.467,-27.007l-1.437,-26.962l-2.391,-26.931l-3.342,-26.84l-4.295,-26.734l-5.228,-26.596l-6.181,-26.43l-7.115,-26.246l-8.029,-26.034l-8.944,-25.776l-9.86,-25.532l-10.774,-25.228l-11.634,-24.909l-12.529,-24.559l-13.389,-24.194l-14.247,-23.813l-15.07,-23.388l-15.89,-22.948l-16.713,-22.49l-17.478,-21.989l-18.262,-21.487l-19.009,-20.971l-19.757,-20.407l-20.447,-19.845l-21.156,-19.236l-21.81,-18.644l-22.483,-18.005l-23.099,-17.366l-23.696,-16.682l-24.275,-16.012l-24.835,-15.314l-25.358,-14.613l-25.881,-13.869l-26.329,-13.123l-26.815,-12.379l-27.225,-11.602l-27.618,-10.828l-27.991,-10.051l-28.327,-9.231l-28.644,-8.424l-28.925,-7.604l-29.186,-6.782l-29.41,-5.961l-29.616,-5.109l-29.765,-4.258l-29.914,-3.422l-30.008,-2.57l-30.082,-1.718l-30.138,-0.852l-30.157,0l-30.139,0.852l-30.082,1.718l-30.008,2.57l-29.914,3.422l-29.765,4.258l-29.616,5.109l-29.41,5.961l-29.186,6.782l-28.925,7.604l-28.644,8.424l-28.327,9.231l-27.991,10.051l-27.618,10.828l-27.225,11.602l-26.796,12.379l-26.348,13.123l-25.881,13.869l-25.358,14.613l-24.835,15.314l-24.275,16.012l-23.696,16.682l-23.099,17.366l-22.464,18.005l-21.829,18.644l-21.156,19.236l-20.447,19.845l-19.756,20.407l-19.01,20.971l-18.243,21.487l-17.497,21.989l-16.694,22.49l-15.909,22.948l-15.069,23.388l-14.248,23.813l-13.389,24.194l-12.511,24.559l-11.652,24.909l-10.755,25.228l-9.86,25.532l-8.963,25.776l-8.029,26.034l-7.115,26.246l-6.18,26.43l-5.229,26.596l-4.295,26.734l-3.342,26.84l-2.39,26.931l-1.42,26.962l-0.485,27.007" style="fill:none;fill-rule:nonzero;stroke:#333;stroke-opacity:0.27;stroke-width:15.3px;"/><path d="M3726.41,1581.38l-0.56,28.432l-1.662,28.418l-2.801,28.35l-3.884,28.281l-5.004,28.158l-6.106,28.006l-7.208,27.842l-8.291,27.65l-9.374,27.416l-10.457,27.155l-11.503,26.881l-12.548,26.579l-13.594,26.235l-14.602,25.865l-15.63,25.494l-16.619,25.069l-17.571,24.629l-18.561,24.176l-19.476,23.682l-20.41,23.174l-21.306,22.639l-22.165,22.075l-23.043,21.499l-23.864,20.896l-24.667,20.263l-25.47,19.632l-26.217,18.973l-26.945,18.273l-27.637,17.586l-28.327,16.873l-28.98,16.131l-29.597,15.376l-30.176,14.608l-30.736,13.824l-31.259,13.043l-31.763,12.218l-32.229,11.409l-32.66,10.571l-33.051,9.733l-33.425,8.869l-33.742,8.018l-34.041,7.139l-34.322,6.274l-34.526,5.381l-34.751,4.49l-34.881,3.61l-35.012,2.705l-35.106,1.798l-35.161,0.906l-35.18,0l-35.162,-0.906l-35.105,-1.798l-35.012,-2.705l-34.882,-3.61l-34.732,-4.49l-34.545,-5.381l-34.321,-6.274l-34.041,-7.139l-33.742,-8.018l-33.425,-8.869l-33.052,-9.733l-32.659,-10.571l-32.23,-11.409l-31.763,-12.218l-31.258,-13.043l-30.736,-13.824l-30.176,-14.608l-29.597,-15.376l-28.981,-16.131l-28.327,-16.873l-27.636,-17.586l-26.945,-18.273l-26.217,-18.973l-25.47,-19.632l-24.668,-20.263l-23.864,-20.896l-23.043,-21.499l-22.164,-22.075l-21.307,-22.639l-20.409,-23.174l-19.476,-23.682l-18.561,-24.176l-17.572,-24.629l-16.619,-25.069l-15.629,-25.494l-14.603,-25.865l-13.594,-26.235l-12.548,-26.579l-11.503,-26.881l-10.456,-27.155l-9.374,-27.416l-8.291,-27.65l-7.189,-27.842l-6.125,-28.006l-5.005,-28.158l-3.884,-28.281l-2.801,-28.35l-1.661,-28.418l-0.561,-28.432" style="fill:none;fill-rule:nonzero;stroke:#333;stroke-opacity:0.27;stroke-width:19.54px;"/><path d="M3726.41,1414.09l-0.635,-35.995l-1.904,-35.979l-3.193,-35.888l-4.463,-35.797l-5.714,-35.629l-6.984,-35.462l-8.235,-35.249l-9.467,-34.991l-10.718,-34.717l-11.933,-34.383l-13.145,-34.017l-14.36,-33.638l-15.517,-33.211l-16.713,-32.756l-17.851,-32.268l-18.972,-31.737l-20.111,-31.189l-21.194,-30.596l-22.259,-29.988l-23.322,-29.318l-24.35,-28.665l-25.339,-27.95l-26.329,-27.205l-27.282,-26.46l-28.196,-25.654l-29.093,-24.847l-29.97,-24.012l-30.792,-23.145l-31.595,-22.262l-32.379,-21.351l-33.108,-20.422l-33.817,-19.465l-34.489,-18.491l-35.124,-17.519l-35.74,-16.499l-36.301,-15.465l-36.823,-14.447l-37.328,-13.382l-37.776,-12.317l-38.186,-11.238l-38.579,-10.143l-38.914,-9.033l-39.214,-7.938l-39.456,-6.812l-39.699,-5.687l-39.886,-4.563l-40.017,-3.421l-40.109,-2.281l-40.185,-1.141l-40.203,0l-40.185,1.141l-40.109,2.281l-40.017,3.421l-39.886,4.563l-39.699,5.687l-39.475,6.812l-39.213,7.938l-38.896,9.033l-38.579,10.143l-38.186,11.238l-37.795,12.317l-37.309,13.382l-36.823,14.447l-36.301,15.465l-35.74,16.499l-35.124,17.519l-34.489,18.491l-33.817,19.465l-33.126,20.422l-32.361,21.351l-31.595,22.262l-30.81,23.145l-29.952,24.012l-29.093,24.847l-28.196,25.654l-27.282,26.46l-26.329,27.205l-25.339,27.95l-24.35,28.665l-23.323,29.318l-22.258,29.988l-21.194,30.596l-20.111,31.189l-18.99,31.737l-17.852,32.268l-16.694,32.756l-15.536,33.211l-14.341,33.638l-13.145,34.017l-11.933,34.383l-10.718,34.717l-9.486,34.991l-8.216,35.249l-6.984,35.462l-5.732,35.629l-4.445,35.797l-3.193,35.888l-1.904,35.979l-0.635,35.995" style="fill:none;fill-rule:nonzero;stroke:#333;stroke-opacity:0.27;stroke-width:11.48px;"/><path d="M3726.41,1581.37l-0.709,36.56l-2.148,36.532l-3.585,36.463l-5.023,36.34l-6.424,36.202l-7.861,36.024l-9.262,35.791l-10.662,35.544l-12.044,35.255l-13.445,34.912l-14.789,34.569l-16.134,34.157l-17.478,33.731l-18.785,33.265l-20.073,32.77l-21.362,32.235l-22.614,31.672l-23.845,31.082l-25.059,30.45l-26.236,29.791l-27.375,29.105l-28.514,28.377l-29.634,27.65l-30.68,26.867l-31.726,26.057l-32.734,25.233l-33.704,24.396l-34.639,23.503l-35.554,22.612l-36.412,21.677l-37.253,20.744l-38.037,19.769l-38.803,18.781l-39.531,17.793l-40.203,16.749l-40.82,15.719l-41.435,14.662l-41.996,13.592l-42.5,12.506l-42.967,11.423l-43.377,10.296l-43.789,9.185l-44.106,8.058l-44.404,6.92l-44.667,5.78l-44.852,4.626l-45.021,3.487l-45.133,2.32l-45.208,1.154l-45.226,-0l-45.208,-1.154l-45.132,-2.32l-45.021,-3.487l-44.853,-4.626l-44.666,-5.78l-44.405,-6.92l-44.124,-8.058l-43.77,-9.185l-43.396,-10.296l-42.967,-11.423l-42.5,-12.506l-41.977,-13.592l-41.436,-14.662l-40.838,-15.719l-40.203,-16.749l-39.513,-17.793l-38.802,-18.781l-38.038,-19.769l-37.252,-20.744l-36.432,-21.677l-35.535,-22.612l-34.657,-23.503l-33.705,-24.396l-32.734,-25.233l-31.725,-26.057l-30.68,-26.867l-29.616,-27.65l-28.514,-28.377l-27.393,-29.105l-26.236,-29.791l-25.04,-30.45l-23.846,-31.082l-22.613,-31.672l-21.362,-32.235l-20.092,-32.77l-18.786,-33.265l-17.459,-33.731l-16.152,-34.157l-14.789,-34.569l-13.426,-34.912l-12.044,-35.255l-10.663,-35.544l-9.262,-35.791l-7.861,-36.024l-6.442,-36.202l-5.005,-36.34l-3.585,-36.463l-2.147,-36.532l-0.729,-36.56" style="fill:none;fill-rule:nonzero;stroke:#333;stroke-opacity:0.27;stroke-width:11.33px;"/><path d="M3409.69,1414.09l-0.075,-4.501l-0.243,-4.486l-0.392,-4.486l-0.56,-4.486l-0.71,-4.456l-0.877,-4.425l-1.027,-4.41l-1.195,-4.364l-1.326,-4.35l-1.494,-4.288l-1.643,-4.258l-1.793,-4.212l-1.942,-4.152l-2.091,-4.09l-2.241,-4.03l-2.372,-3.969l-2.502,-3.893l-2.651,-3.832l-2.783,-3.741l-2.913,-3.665l-3.043,-3.588l-3.175,-3.498l-3.286,-3.391l-3.417,-3.315l-3.53,-3.209l-3.622,-3.102l-3.754,-2.996l-3.846,-2.904l-3.959,-2.783l-4.033,-2.661l-4.146,-2.555l-4.22,-2.433l-4.313,-2.311l-4.389,-2.19l-4.481,-2.068l-4.538,-1.932l-4.593,-1.794l-4.669,-1.673l-4.724,-1.551l-4.761,-1.399l-4.837,-1.262l-4.855,-1.141l-4.911,-0.988l-4.93,-0.852l-4.967,-0.714l-4.985,-0.563l-4.986,-0.426l-5.023,-0.289l-5.023,-0.136l-5.023,-0l-5.023,0.136l-5.023,0.289l-5.005,0.426l-4.967,0.563l-4.967,0.714l-4.93,0.852l-4.911,0.988l-4.855,1.141l-4.836,1.262l-4.762,1.399l-4.724,1.551l-4.668,1.673l-4.612,1.794l-4.519,1.932l-4.482,2.068l-4.388,2.19l-4.313,2.311l-4.221,2.433l-4.145,2.555l-4.033,2.661l-3.959,2.783l-3.847,2.904l-3.753,2.996l-3.623,3.102l-3.529,3.209l-3.417,3.315l-3.287,3.391l-3.174,3.498l-3.044,3.588l-2.913,3.665l-2.782,3.741l-2.652,3.832l-2.502,3.893l-2.371,3.969l-2.241,4.03l-2.091,4.09l-1.942,4.152l-1.793,4.212l-1.643,4.258l-1.494,4.288l-1.326,4.35l-1.195,4.364l-1.027,4.41l-0.878,4.425l-0.709,4.456l-0.56,4.486l-0.393,4.486l-0.242,4.486l-0.075,4.501" style="fill:none;fill-rule:nonzero;stroke:#333;stroke-opacity:0.27;stroke-width:54.73px;"/><path d="M3409.69,1581.38l-0.15,8.127l-0.485,8.114l-0.803,8.1l-1.102,8.072l-1.438,8.045l-1.736,8.004l-2.073,7.963l-2.372,7.894l-2.67,7.839l-2.988,7.757l-3.286,7.674l-3.585,7.592l-3.884,7.496l-4.164,7.399l-4.463,7.277l-4.762,7.166l-5.023,7.043l-5.284,6.905l-5.584,6.769l-5.826,6.617l-6.087,6.466l-6.33,6.302l-6.592,6.15l-6.816,5.972l-7.039,5.793l-7.283,5.602l-7.488,5.423l-7.693,5.216l-7.899,5.025l-8.104,4.819l-8.272,4.613l-8.459,4.393l-8.627,4.173l-8.776,3.954l-8.926,3.721l-9.075,3.501l-9.206,3.253l-9.337,3.021l-9.448,2.787l-9.542,2.526l-9.636,2.292l-9.728,2.046l-9.804,1.785l-9.878,1.537l-9.915,1.291l-9.972,1.029l-10.008,0.769l-10.028,0.508l-10.046,0.261l-10.046,-0l-10.046,-0.261l-10.028,-0.508l-10.008,-0.769l-9.972,-1.029l-9.915,-1.291l-9.878,-1.537l-9.804,-1.785l-9.728,-2.046l-9.636,-2.292l-9.56,-2.526l-9.43,-2.787l-9.337,-3.021l-9.206,-3.253l-9.075,-3.501l-8.926,-3.721l-8.795,-3.954l-8.627,-4.173l-8.44,-4.393l-8.291,-4.613l-8.085,-4.819l-7.899,-5.025l-7.693,-5.216l-7.507,-5.423l-7.264,-5.602l-7.058,-5.793l-6.816,-5.972l-6.573,-6.15l-6.349,-6.302l-6.087,-6.466l-5.826,-6.617l-5.565,-6.769l-5.303,-6.905l-5.023,-7.043l-4.743,-7.166l-4.463,-7.277l-4.164,-7.399l-3.884,-7.496l-3.585,-7.592l-3.305,-7.674l-2.969,-7.757l-2.689,-7.839l-2.372,-7.894l-2.054,-7.963l-1.736,-8.004l-1.438,-8.045l-1.12,-8.072l-0.785,-8.1l-0.485,-8.114l-0.15,-8.127" style="fill:none;fill-rule:nonzero;stroke:#333;stroke-opacity:0.27;stroke-width:59.47px;"/><path d="M3409.69,1414.09l-0.243,-13.504l-0.71,-13.488l-1.195,-13.458l-1.68,-13.413l-2.148,-13.366l-2.614,-13.306l-3.081,-13.215l-3.548,-13.123l-4.033,-13.017l-4.463,-12.896l-4.93,-12.758l-5.378,-12.607l-5.826,-12.454l-6.274,-12.287l-6.685,-12.105l-7.114,-11.891l-7.544,-11.694l-7.955,-11.481l-8.347,-11.238l-8.739,-11.01l-9.131,-10.736l-9.505,-10.477l-9.878,-10.204l-10.233,-9.93l-10.569,-9.626l-10.905,-9.306l-11.241,-9.003l-11.54,-8.683l-11.857,-8.348l-12.138,-8.014l-12.417,-7.649l-12.68,-7.3l-12.94,-6.934l-13.165,-6.569l-13.407,-6.189l-13.613,-5.809l-13.799,-5.414l-14.005,-5.018l-14.173,-4.608l-14.322,-4.212l-14.453,-3.817l-14.602,-3.391l-14.696,-2.965l-14.808,-2.555l-14.882,-2.144l-14.957,-1.704l-14.995,-1.277l-15.05,-0.867l-15.07,-0.425l-15.069,-0l-15.069,0.425l-15.051,0.867l-15.013,1.277l-14.957,1.704l-14.882,2.144l-14.79,2.555l-14.714,2.965l-14.584,3.391l-14.471,3.817l-14.323,4.212l-14.172,4.608l-13.987,5.018l-13.818,5.414l-13.612,5.809l-13.389,6.189l-13.183,6.569l-12.922,6.934l-12.698,7.3l-12.399,7.649l-12.156,8.014l-11.839,8.348l-11.558,8.683l-11.223,9.003l-10.924,9.306l-10.569,9.626l-10.232,9.93l-9.86,10.204l-9.504,10.477l-9.132,10.736l-8.757,11.01l-8.347,11.238l-7.936,11.481l-7.544,11.694l-7.115,11.891l-6.703,12.105l-6.256,12.287l-5.826,12.454l-5.378,12.607l-4.929,12.758l-4.482,12.896l-4.015,13.017l-3.547,13.123l-3.1,13.215l-2.614,13.306l-2.148,13.366l-1.662,13.413l-1.195,13.458l-0.728,13.488l-0.243,13.504" style="fill:none;fill-rule:nonzero;stroke:#333;stroke-opacity:0.27;stroke-width:14.42px;"/><path d="M3409.69,1581.38l-0.318,16.255l-0.952,16.227l-1.606,16.2l-2.222,16.158l-2.857,16.09l-3.492,16.008l-4.108,15.912l-4.743,15.801l-5.359,15.665l-5.976,15.513l-6.573,15.363l-7.17,15.184l-7.768,14.991l-8.347,14.786l-8.926,14.566l-9.486,14.333l-10.046,14.072l-10.606,13.811l-11.129,13.536l-11.671,13.235l-12.175,12.932l-12.66,12.617l-13.165,12.287l-13.65,11.944l-14.098,11.573l-14.546,11.23l-14.976,10.832l-15.387,10.448l-15.816,10.049l-16.171,9.638l-16.563,9.212l-16.918,8.786l-17.235,8.361l-17.571,7.894l-17.871,7.454l-18.131,6.988l-18.43,6.508l-18.655,6.04l-18.878,5.56l-19.103,5.08l-19.289,4.572l-19.458,4.091l-19.606,3.569l-19.738,3.076l-19.849,2.581l-19.925,2.045l-20.017,1.551l-20.055,1.03l-20.092,0.522l-20.111,-0l-20.074,-0.522l-20.074,-1.03l-19.998,-1.551l-19.943,-2.045l-19.85,-2.581l-19.737,-3.076l-19.607,-3.569l-19.457,-4.091l-19.29,-4.572l-19.084,-5.08l-18.897,-5.56l-18.654,-6.04l-18.412,-6.508l-18.15,-6.988l-17.87,-7.454l-17.572,-7.894l-17.235,-8.361l-16.918,-8.786l-16.544,-9.212l-16.19,-9.638l-15.797,-10.049l-15.406,-10.448l-14.976,-10.832l-14.546,-11.23l-14.098,-11.573l-13.65,-11.944l-13.146,-12.287l-12.679,-12.617l-12.175,-12.932l-11.671,-13.235l-11.129,-13.536l-10.587,-13.811l-10.047,-14.072l-9.504,-14.333l-8.926,-14.566l-8.347,-14.786l-7.768,-14.991l-7.17,-15.184l-6.573,-15.363l-5.976,-15.513l-5.359,-15.665l-4.724,-15.801l-4.127,-15.912l-3.492,-16.008l-2.857,-16.09l-2.222,-16.158l-1.606,-16.2l-0.952,-16.227l-0.317,-16.255" style="fill:none;fill-rule:nonzero;stroke:#333;stroke-opacity:0.27;stroke-width:19.54px;"/><path d="M3409.69,1414.09l-0.393,-22.506l-1.195,-22.476l-1.998,-22.43l-2.782,-22.369l-3.585,-22.278l-4.351,-22.156l-5.154,-22.035l-5.919,-21.867l-6.704,-21.7l-7.45,-21.487l-8.217,-21.259l-8.963,-21.031l-9.71,-20.758l-10.438,-20.468l-11.166,-20.164l-11.858,-19.845l-12.567,-19.48l-13.239,-19.13l-13.93,-18.735l-14.565,-18.339l-15.219,-17.898l-15.835,-17.473l-16.451,-17.016l-17.048,-16.53l-17.628,-16.028l-18.187,-15.541l-18.729,-15.009l-19.252,-14.462l-19.738,-13.914l-20.241,-13.336l-20.69,-12.759l-21.138,-12.165l-21.549,-11.573l-21.96,-10.933l-22.333,-10.311l-22.687,-9.671l-23.024,-9.033l-23.323,-8.364l-23.603,-7.694l-23.883,-7.026l-24.107,-6.341l-24.312,-5.657l-24.518,-4.957l-24.667,-4.258l-24.798,-3.543l-24.929,-2.859l-25.022,-2.144l-25.059,-1.415l-25.115,-0.714l-25.134,-0l-25.116,0.714l-25.059,1.415l-25.022,2.144l-24.928,2.859l-24.798,3.543l-24.667,4.258l-24.518,4.957l-24.313,5.657l-24.107,6.341l-23.883,7.026l-23.602,7.694l-23.323,8.364l-23.024,9.033l-22.688,9.671l-22.333,10.311l-21.959,10.933l-21.549,11.573l-21.138,12.165l-20.69,12.759l-20.242,13.336l-19.737,13.914l-19.252,14.462l-18.729,15.009l-18.188,15.541l-17.627,16.028l-17.03,16.53l-16.47,17.016l-15.835,17.473l-15.218,17.898l-14.565,18.339l-13.93,18.735l-13.24,19.13l-12.567,19.48l-11.857,19.845l-11.167,20.164l-10.438,20.468l-9.71,20.758l-8.963,21.031l-8.216,21.259l-7.451,21.487l-6.703,21.7l-5.92,21.867l-5.153,22.035l-4.351,22.156l-3.586,22.278l-2.782,22.369l-1.998,22.43l-1.195,22.476l-0.392,22.506" style="fill:none;fill-rule:nonzero;stroke:#333;stroke-opacity:0.27;stroke-width:14.42px;"/><path d="M3409.69,1581.38l-0.486,24.382l-1.419,24.341l-2.39,24.313l-3.343,24.232l-4.294,24.135l-5.229,24.011l-6.181,23.861l-7.114,23.695l-8.03,23.504l-8.944,23.27l-9.878,23.05l-10.756,22.776l-11.652,22.488l-12.511,22.172l-13.388,21.842l-14.248,21.499l-15.069,21.115l-15.91,20.716l-16.694,20.305l-17.478,19.852l-18.262,19.398l-19.009,18.932l-19.756,18.424l-20.447,17.916l-21.157,17.367l-21.829,16.831l-22.464,16.255l-23.098,15.678l-23.696,15.06l-24.275,14.457l-24.836,13.825l-25.358,13.193l-25.881,12.52l-26.347,11.848l-26.796,11.175l-27.226,10.475l-27.617,9.775l-27.991,9.075l-28.327,8.333l-28.645,7.606l-28.924,6.864l-29.187,6.123l-29.41,5.382l-29.615,4.613l-29.765,3.844l-29.915,3.089l-30.007,2.32l-30.083,1.551l-30.138,0.769l-30.157,-0l-30.138,-0.769l-30.083,-1.551l-30.008,-2.32l-29.914,-3.089l-29.765,-3.844l-29.615,-4.613l-29.41,-5.382l-29.187,-6.123l-28.924,-6.864l-28.645,-7.606l-28.327,-8.333l-27.991,-9.075l-27.617,-9.775l-27.226,-10.475l-26.796,-11.175l-26.347,-11.848l-25.881,-12.52l-25.358,-13.193l-24.836,-13.825l-24.275,-14.457l-23.696,-15.06l-23.099,-15.678l-22.482,-16.255l-21.81,-16.831l-21.157,-17.367l-20.447,-17.916l-19.756,-18.424l-19.009,-18.932l-18.262,-19.398l-17.479,-19.852l-16.712,-20.305l-15.891,-20.716l-15.069,-21.115l-14.248,-21.499l-13.388,-21.842l-12.53,-22.172l-11.633,-22.488l-10.775,-22.776l-9.859,-23.05l-8.944,-23.27l-8.03,-23.504l-7.114,-23.695l-6.181,-23.861l-5.229,-24.011l-4.294,-24.135l-3.343,-24.232l-2.39,-24.313l-1.438,-24.341l-0.467,-24.382" style="fill:none;fill-rule:nonzero;stroke:#333;stroke-opacity:0.27;stroke-width:18.97px;"/><path d="M3409.69,1414.09l-0.561,-31.493l-1.661,-31.478l-2.801,-31.402l-3.903,-31.326l-5.005,-31.189l-6.106,-31.022l-7.207,-30.84l-8.291,-30.626l-9.374,-30.368l-10.438,-30.079l-11.503,-29.775l-12.548,-29.44l-13.594,-29.06l-14.622,-28.65l-15.61,-28.239l-16.619,-27.767l-17.59,-27.281l-18.543,-26.779l-19.476,-26.232l-20.41,-25.669l-21.306,-25.076l-22.183,-24.452l-23.024,-23.814l-23.864,-23.145l-24.686,-22.445l-25.452,-21.746l-26.217,-21.015l-26.945,-20.241l-27.655,-19.48l-28.327,-18.689l-28.962,-17.868l-29.597,-17.031l-30.176,-16.18l-30.736,-15.313l-31.277,-14.447l-31.744,-13.534l-32.23,-12.637l-32.659,-11.709l-33.052,-10.781l-33.425,-9.824l-33.742,-8.881l-34.06,-7.907l-34.302,-6.95l-34.545,-5.961l-34.732,-4.972l-34.882,-4l-35.031,-2.996l-35.105,-1.992l-35.143,-1.003l-35.18,-0l-35.161,1.003l-35.106,1.992l-35.012,2.996l-34.9,4l-34.732,4.972l-34.526,5.961l-34.322,6.95l-34.041,7.907l-33.761,8.881l-33.406,9.824l-33.07,10.781l-32.641,11.709l-32.229,12.637l-31.763,13.534l-31.259,14.447l-30.736,15.313l-30.194,16.18l-29.579,17.031l-28.98,17.868l-28.327,18.689l-27.655,19.48l-26.946,20.241l-26.198,21.015l-25.47,21.746l-24.667,22.445l-23.864,23.145l-23.043,23.814l-22.184,24.452l-21.306,25.076l-20.391,25.669l-19.495,26.232l-18.542,26.779l-17.59,27.281l-16.6,27.767l-15.63,28.239l-14.602,28.65l-13.594,29.06l-12.549,29.44l-11.521,29.775l-10.438,30.079l-9.374,30.368l-8.291,30.626l-7.208,30.84l-6.106,31.022l-5.004,31.189l-3.903,31.326l-2.782,31.402l-1.681,31.478l-0.541,31.493" style="fill:none;fill-rule:nonzero;stroke:#333;stroke-opacity:0.27;stroke-width:12.65px;"/><path d="M3409.69,1581.37l-0.635,32.496l-1.924,32.482l-3.174,32.4l-4.463,32.317l-5.714,32.166l-6.984,32.015l-8.234,31.824l-9.468,31.589l-10.718,31.343l-11.932,31.04l-13.146,30.711l-14.36,30.368l-15.536,29.984l-16.693,29.571l-17.852,29.133l-18.991,28.651l-20.092,28.158l-21.194,27.622l-22.277,27.073l-23.304,26.469l-24.35,25.878l-25.358,25.234l-26.31,24.56l-27.281,23.888l-28.197,23.16l-29.093,22.433l-29.97,21.678l-30.792,20.895l-31.595,20.099l-32.379,19.275l-33.107,18.437l-33.817,17.573l-34.49,16.694l-35.142,15.815l-35.722,14.896l-36.301,13.962l-36.823,13.042l-37.327,12.082l-37.776,11.12l-38.187,10.145l-38.578,9.157l-38.915,8.155l-39.214,7.167l-39.475,6.15l-39.68,5.135l-39.886,4.118l-40.016,3.089l-40.129,2.059l-40.166,1.03l-40.203,0l-40.184,-1.03l-40.129,-2.059l-40.016,-3.089l-39.867,-4.118l-39.699,-5.135l-39.475,-6.15l-39.214,-7.167l-38.915,-8.155l-38.56,-9.157l-38.205,-10.145l-37.775,-11.12l-37.309,-12.082l-36.842,-13.042l-36.282,-13.962l-35.741,-14.896l-35.124,-15.815l-34.489,-16.694l-33.817,-17.573l-33.126,-18.437l-32.36,-19.275l-31.614,-20.099l-30.792,-20.895l-29.952,-21.678l-29.092,-22.433l-28.197,-23.16l-27.281,-23.888l-26.329,-24.56l-25.358,-25.234l-24.331,-25.878l-23.323,-26.469l-22.277,-27.073l-21.194,-27.622l-20.092,-28.158l-18.991,-28.651l-17.851,-29.133l-16.694,-29.571l-15.536,-29.984l-14.341,-30.368l-13.146,-30.711l-11.951,-31.04l-10.7,-31.343l-9.485,-31.589l-8.235,-31.824l-6.984,-32.015l-5.714,-32.166l-4.463,-32.317l-3.174,-32.4l-1.924,-32.482l-0.635,-32.496" style="fill:none;fill-rule:nonzero;stroke:#333;stroke-opacity:0.27;stroke-width:11.61px;"/><path d="M3092.98,1581.38l-0.075,4.064l-0.242,4.05l-0.411,4.05l-0.542,4.049l-0.728,4.023l-0.859,3.995l-1.046,3.981l-1.176,3.94l-1.345,3.927l-1.493,3.871l-1.644,3.844l-1.792,3.803l-1.942,3.748l-2.073,3.693l-2.241,3.638l-2.371,3.583l-2.521,3.515l-2.633,3.46l-2.782,3.377l-2.932,3.309l-3.044,3.239l-3.155,3.158l-3.287,3.062l-3.417,2.992l-3.529,2.897l-3.642,2.801l-3.734,2.704l-3.847,2.623l-3.959,2.512l-4.052,2.402l-4.126,2.307l-4.239,2.196l-4.295,2.087l-4.407,1.977l-4.463,1.867l-4.537,1.744l-4.594,1.62l-4.668,1.51l-4.724,1.4l-4.781,1.263l-4.817,1.14l-4.855,1.029l-4.911,0.893l-4.93,0.769l-4.967,0.645l-4.986,0.508l-5.004,0.384l-5.005,0.261l-5.023,0.124l-5.023,-0l-5.023,-0.124l-5.023,-0.261l-5.004,-0.384l-4.986,-0.508l-4.948,-0.645l-4.949,-0.769l-4.892,-0.893l-4.874,-1.029l-4.818,-1.14l-4.78,-1.263l-4.705,-1.4l-4.669,-1.51l-4.612,-1.62l-4.538,-1.744l-4.462,-1.867l-4.389,-1.977l-4.313,-2.087l-4.22,-2.196l-4.146,-2.307l-4.052,-2.402l-3.94,-2.512l-3.846,-2.623l-3.754,-2.704l-3.641,-2.801l-3.51,-2.897l-3.418,-2.992l-3.286,-3.062l-3.175,-3.158l-3.043,-3.239l-2.913,-3.309l-2.783,-3.377l-2.651,-3.46l-2.521,-3.515l-2.372,-3.583l-2.222,-3.638l-2.091,-3.693l-1.942,-3.748l-1.793,-3.803l-1.643,-3.844l-1.494,-3.871l-1.344,-3.927l-1.177,-3.94l-1.027,-3.981l-0.877,-3.995l-0.71,-4.023l-0.56,-4.049l-0.392,-4.05l-0.243,-4.05l-0.075,-4.064" style="fill:none;fill-rule:nonzero;stroke:#333;stroke-opacity:0.27;stroke-width:50.69px;"/><path d="M3092.98,1414.09l-0.168,-9.003l-0.467,-8.987l-0.803,-8.972l-1.12,-8.941l-1.419,-8.912l-1.756,-8.865l-2.054,-8.82l-2.371,-8.744l-2.67,-8.683l-2.988,-8.592l-3.287,-8.5l-3.585,-8.41l-3.884,-8.303l-4.183,-8.196l-4.462,-8.06l-4.743,-7.938l-5.023,-7.801l-5.304,-7.649l-5.564,-7.497l-5.826,-7.329l-6.088,-7.163l-6.33,-6.98l-6.591,-6.812l-6.816,-6.615l-7.059,-6.417l-7.263,-6.205l-7.488,-6.006l-7.694,-5.779l-7.898,-5.566l-8.105,-5.337l-8.272,-5.11l-8.459,-4.866l-8.627,-4.623l-8.776,-4.379l-8.926,-4.121l-9.075,-3.878l-9.206,-3.604l-9.336,-3.346l-9.449,-3.086l-9.542,-2.799l-9.654,-2.539l-9.728,-2.266l-9.804,-1.977l-9.859,-1.703l-9.934,-1.429l-9.953,-1.141l-10.009,-0.851l-10.027,-0.563l-10.047,-0.289l-10.046,0l-10.046,0.289l-10.046,0.563l-9.99,0.851l-9.971,1.141l-9.935,1.429l-9.859,1.703l-9.803,1.977l-9.729,2.266l-9.654,2.539l-9.542,2.799l-9.449,3.086l-9.317,3.346l-9.206,3.604l-9.075,3.878l-8.945,4.121l-8.776,4.379l-8.627,4.623l-8.459,4.866l-8.272,5.11l-8.086,5.337l-7.898,5.566l-7.712,5.779l-7.488,6.006l-7.264,6.205l-7.059,6.417l-6.815,6.615l-6.573,6.812l-6.349,6.98l-6.088,7.163l-5.826,7.329l-5.564,7.497l-5.303,7.649l-5.023,7.801l-4.743,7.938l-4.463,8.06l-4.183,8.196l-3.884,8.303l-3.585,8.41l-3.287,8.5l-2.987,8.592l-2.671,8.683l-2.371,8.744l-2.054,8.82l-1.755,8.865l-1.42,8.912l-1.12,8.941l-0.784,8.972l-0.486,8.987l-0.168,9.003" style="fill:none;fill-rule:nonzero;stroke:#333;stroke-opacity:0.27;stroke-width:14.42px;"/><path d="M3092.98,1581.38l-0.243,12.191l-0.709,12.177l-1.195,12.15l-1.681,12.109l-2.147,12.067l-2.615,12.013l-3.081,11.93l-3.566,11.848l-4.015,11.752l-4.463,11.642l-4.93,11.518l-5.396,11.381l-5.826,11.244l-6.256,11.093l-6.685,10.928l-7.133,10.736l-7.525,10.557l-7.955,10.365l-8.347,10.146l-8.739,9.939l-9.131,9.693l-9.504,9.459l-9.878,9.212l-10.233,8.964l-10.569,8.691l-10.905,8.402l-11.242,8.127l-11.558,7.839l-11.839,7.537l-12.137,7.235l-12.418,6.906l-12.679,6.589l-12.941,6.261l-13.183,5.931l-13.388,5.587l-13.613,5.244l-13.818,4.888l-13.986,4.53l-14.173,4.16l-14.323,3.803l-14.453,3.446l-14.602,3.061l-14.696,2.677l-14.807,2.307l-14.883,1.936l-14.957,1.537l-15.013,1.153l-15.032,0.783l-15.069,0.384l-15.088,0l-15.069,-0.384l-15.032,-0.783l-15.013,-1.153l-14.958,-1.537l-14.882,-1.936l-14.808,-2.307l-14.696,-2.677l-14.602,-3.061l-14.453,-3.446l-14.322,-3.803l-14.173,-4.16l-13.986,-4.53l-13.818,-4.888l-13.613,-5.244l-13.389,-5.587l-13.183,-5.931l-12.94,-6.261l-12.679,-6.589l-12.418,-6.906l-12.137,-7.235l-11.839,-7.537l-11.559,-7.839l-11.241,-8.127l-10.905,-8.402l-10.569,-8.691l-10.233,-8.964l-9.878,-9.212l-9.505,-9.459l-9.131,-9.693l-8.739,-9.939l-8.347,-10.146l-7.955,-10.365l-7.525,-10.557l-7.133,-10.736l-6.685,-10.928l-6.255,-11.093l-5.826,-11.244l-5.378,-11.381l-4.949,-11.518l-4.462,-11.642l-4.015,-11.752l-3.567,-11.848l-3.081,-11.93l-2.614,-12.013l-2.147,-12.067l-1.681,-12.109l-1.195,-12.15l-0.71,-12.177l-0.242,-12.191" style="fill:none;fill-rule:nonzero;stroke:#333;stroke-opacity:0.27;stroke-width:17.56px;"/><path d="M3092.98,1414.09l-0.317,-18.005l-0.953,-17.974l-1.606,-17.944l-2.222,-17.899l-2.857,-17.822l-3.492,-17.731l-4.126,-17.625l-4.725,-17.503l-5.359,-17.351l-5.975,-17.183l-6.573,-17.017l-7.171,-16.818l-7.768,-16.606l-8.347,-16.378l-8.925,-16.134l-9.486,-15.876l-10.065,-15.587l-10.588,-15.298l-11.129,-14.994l-11.671,-14.659l-12.174,-14.325l-12.661,-13.975l-13.164,-13.61l-13.65,-13.23l-14.099,-12.819l-14.546,-12.439l-14.976,-11.999l-15.405,-11.572l-15.797,-11.131l-16.19,-10.675l-16.544,-10.204l-16.918,-9.732l-17.236,-9.261l-17.571,-8.744l-17.87,-8.258l-18.15,-7.74l-18.412,-7.208l-18.655,-6.691l-18.897,-6.159l-19.084,-5.626l-19.289,-5.064l-19.457,-4.532l-19.607,-3.953l-19.738,-3.407l-19.849,-2.858l-19.943,-2.266l-19.999,-1.719l-20.073,-1.14l-20.074,-0.578l-20.111,0l-20.092,0.578l-20.055,1.14l-20.018,1.719l-19.924,2.266l-19.849,2.858l-19.738,3.407l-19.607,3.953l-19.457,4.532l-19.289,5.064l-19.103,5.626l-18.879,6.159l-18.654,6.691l-18.412,7.208l-18.15,7.74l-17.87,8.258l-17.571,8.744l-17.236,9.261l-16.918,9.732l-16.563,10.204l-16.171,10.675l-15.797,11.131l-15.405,11.572l-14.976,11.999l-14.546,12.439l-14.099,12.819l-13.65,13.23l-13.164,13.61l-12.661,13.975l-12.174,14.325l-11.671,14.659l-11.129,14.994l-10.588,15.298l-10.065,15.587l-9.486,15.876l-8.926,16.134l-8.346,16.378l-7.768,16.606l-7.171,16.818l-6.573,17.017l-5.975,17.183l-5.359,17.351l-4.743,17.503l-4.108,17.625l-3.492,17.731l-2.857,17.822l-2.222,17.899l-1.606,17.944l-0.953,17.974l-0.317,18.005" style="fill:none;fill-rule:nonzero;stroke:#333;stroke-opacity:0.27;stroke-width:13.83px;"/><path d="M3092.98,1581.38l-0.411,20.318l-1.195,20.291l-1.979,20.25l-2.783,20.195l-3.585,20.113l-4.351,20.002l-5.153,19.893l-5.92,19.742l-6.703,19.591l-7.451,19.398l-8.216,19.193l-8.982,18.987l-9.691,18.74l-10.438,18.478l-11.167,18.205l-11.857,17.915l-12.567,17.587l-13.24,17.271l-13.93,16.913l-14.565,16.557l-15.218,16.159l-15.854,15.774l-16.451,15.362l-17.048,14.923l-17.628,14.471l-18.169,14.03l-18.729,13.55l-19.252,13.056l-19.756,12.562l-20.223,12.04l-20.69,11.519l-21.138,10.983l-21.567,10.447l-21.941,9.871l-22.333,9.308l-22.688,8.731l-23.024,8.155l-23.323,7.551l-23.621,6.947l-23.864,6.342l-24.107,5.725l-24.313,5.107l-24.518,4.476l-24.667,3.844l-24.816,3.199l-24.91,2.581l-25.022,1.935l-25.078,1.277l-25.097,0.645l-25.134,0l-25.115,-0.645l-25.078,-1.277l-25.003,-1.935l-24.929,-2.581l-24.798,-3.199l-24.686,-3.844l-24.499,-4.476l-24.331,-5.107l-24.107,-5.725l-23.864,-6.342l-23.603,-6.947l-23.323,-7.551l-23.024,-8.155l-22.687,-8.731l-22.333,-9.308l-21.96,-9.871l-21.549,-10.447l-21.138,-10.983l-20.69,-11.519l-20.241,-12.04l-19.756,-12.562l-19.234,-13.056l-18.729,-13.55l-18.187,-14.03l-17.628,-14.471l-17.048,-14.923l-16.451,-15.362l-15.835,-15.774l-15.219,-16.159l-14.583,-16.557l-13.912,-16.913l-13.239,-17.271l-12.567,-17.587l-11.876,-17.915l-11.148,-18.205l-10.438,-18.478l-9.71,-18.74l-8.964,-18.987l-8.216,-19.193l-7.469,-19.398l-6.685,-19.591l-5.919,-19.742l-5.154,-19.893l-4.37,-20.002l-3.566,-20.113l-2.782,-20.195l-1.998,-20.25l-1.196,-20.291l-0.392,-20.318" style="fill:none;fill-rule:nonzero;stroke:#333;stroke-opacity:0.27;stroke-width:18.41px;"/><path d="M3092.98,1414.09l-0.485,-27.007l-1.438,-26.962l-2.39,-26.931l-3.343,-26.84l-4.276,-26.734l-5.247,-26.596l-6.162,-26.43l-7.115,-26.246l-8.029,-26.034l-8.963,-25.776l-9.86,-25.532l-10.755,-25.228l-11.652,-24.909l-12.53,-24.559l-13.389,-24.194l-14.229,-23.813l-15.069,-23.388l-15.909,-22.948l-16.694,-22.49l-17.497,-21.989l-18.262,-21.487l-19.009,-20.971l-19.738,-20.407l-20.466,-19.845l-21.138,-19.236l-21.828,-18.644l-22.464,-18.005l-23.099,-17.366l-23.696,-16.682l-24.275,-16.012l-24.835,-15.314l-25.377,-14.613l-25.862,-13.869l-26.348,-13.123l-26.796,-12.379l-27.225,-11.602l-27.618,-10.828l-27.991,-10.051l-28.327,-9.231l-28.644,-8.424l-28.944,-7.604l-29.186,-6.782l-29.41,-5.961l-29.597,-5.109l-29.765,-4.258l-29.914,-3.422l-30.008,-2.57l-30.101,-1.718l-30.138,-0.852l-30.139,0l-30.138,0.852l-30.082,1.718l-30.027,2.57l-29.895,3.422l-29.784,4.258l-29.597,5.109l-29.41,5.961l-29.186,6.782l-28.925,7.604l-28.644,8.424l-28.346,9.231l-27.972,10.051l-27.637,10.828l-27.225,11.602l-26.796,12.379l-26.348,13.123l-25.862,13.869l-25.358,14.613l-24.835,15.314l-24.275,16.012l-23.715,16.682l-23.099,17.366l-22.464,18.005l-21.81,18.644l-21.156,19.236l-20.466,19.845l-19.738,20.407l-19.009,20.971l-18.262,21.487l-17.497,21.989l-16.694,22.49l-15.89,22.948l-15.07,23.388l-14.247,23.813l-13.389,24.194l-12.529,24.559l-11.652,24.909l-10.756,25.228l-9.86,25.532l-8.944,25.776l-8.048,26.034l-7.096,26.246l-6.181,26.43l-5.228,26.596l-4.295,26.734l-3.342,26.84l-2.391,26.931l-1.437,26.962l-0.467,27.007" style="fill:none;fill-rule:nonzero;stroke:#333;stroke-opacity:0.27;stroke-width:11.77px;"/><path d="M3092.98,1581.37l-0.56,28.432l-1.681,28.418l-2.782,28.35l-3.903,28.281l-5.004,28.158l-6.106,28.006l-7.208,27.842l-8.291,27.65l-9.374,27.416l-10.438,27.155l-11.503,26.881l-12.567,26.579l-13.575,26.235l-14.621,25.865l-15.611,25.494l-16.619,25.069l-17.59,24.629l-18.542,24.176l-19.476,23.682l-20.41,23.174l-21.306,22.639l-22.184,22.076l-23.024,21.499l-23.864,20.895l-24.686,20.263l-25.451,19.632l-26.217,18.973l-26.946,18.273l-27.654,17.587l-28.328,16.872l-28.962,16.131l-29.596,15.376l-30.176,14.608l-30.736,13.825l-31.278,13.042l-31.763,12.218l-32.211,11.409l-32.659,10.571l-33.051,9.734l-33.425,8.868l-33.743,8.018l-34.059,7.139l-34.303,6.274l-34.545,5.381l-34.732,4.49l-34.9,3.61l-35.012,2.705l-35.106,1.798l-35.161,0.906l-35.161,0l-35.162,-0.906l-35.105,-1.798l-35.012,-2.705l-34.901,-3.61l-34.731,-4.49l-34.546,-5.381l-34.302,-6.274l-34.041,-7.139l-33.761,-8.018l-33.425,-8.868l-33.052,-9.734l-32.659,-10.571l-32.211,-11.409l-31.763,-12.218l-31.259,-13.042l-30.754,-13.825l-30.176,-14.608l-29.597,-15.376l-28.962,-16.131l-28.327,-16.872l-27.655,-17.587l-26.945,-18.273l-26.217,-18.973l-25.452,-19.632l-24.667,-20.263l-23.883,-20.895l-23.024,-21.499l-22.183,-22.076l-21.306,-22.639l-20.391,-23.174l-19.495,-23.682l-18.543,-24.176l-17.59,-24.629l-16.619,-25.069l-15.61,-25.494l-14.621,-25.865l-13.576,-26.235l-12.567,-26.579l-11.502,-26.881l-10.439,-27.155l-9.374,-27.416l-8.29,-27.65l-7.208,-27.842l-6.106,-28.006l-5.005,-28.158l-3.902,-28.281l-2.783,-28.35l-1.68,-28.418l-0.561,-28.432" style="fill:none;fill-rule:nonzero;stroke:#333;stroke-opacity:0.27;stroke-width:11.33px;"/><path d="M2776.26,1414.09l-0.093,-4.501l-0.224,-4.486l-0.411,-4.486l-0.56,-4.486l-0.71,-4.456l-0.877,-4.425l-1.027,-4.41l-1.177,-4.364l-1.344,-4.35l-1.494,-4.288l-1.643,-4.258l-1.793,-4.212l-1.942,-4.152l-2.091,-4.09l-2.222,-4.03l-2.372,-3.969l-2.521,-3.893l-2.651,-3.832l-2.783,-3.741l-2.913,-3.665l-3.043,-3.588l-3.156,-3.498l-3.305,-3.391l-3.399,-3.315l-3.529,-3.209l-3.641,-3.102l-3.735,-2.996l-3.865,-2.904l-3.94,-2.783l-4.052,-2.661l-4.127,-2.555l-4.239,-2.433l-4.313,-2.311l-4.388,-2.19l-4.463,-2.068l-4.538,-1.932l-4.612,-1.794l-4.65,-1.673l-4.724,-1.551l-4.78,-1.399l-4.818,-1.262l-4.874,-1.141l-4.892,-0.988l-4.93,-0.852l-4.967,-0.714l-4.985,-0.563l-5.005,-0.426l-5.004,-0.289l-5.023,-0.136l-5.042,-0l-5.023,0.136l-5.005,0.289l-5.004,0.426l-4.986,0.563l-4.967,0.714l-4.929,0.852l-4.893,0.988l-4.873,1.141l-4.818,1.262l-4.78,1.399l-4.725,1.551l-4.649,1.673l-4.613,1.794l-4.537,1.932l-4.463,2.068l-4.388,2.19l-4.314,2.311l-4.238,2.433l-4.127,2.555l-4.052,2.661l-3.94,2.783l-3.866,2.904l-3.734,2.996l-3.642,3.102l-3.529,3.209l-3.398,3.315l-3.305,3.391l-3.156,3.498l-3.044,3.588l-2.913,3.665l-2.782,3.741l-2.652,3.832l-2.521,3.893l-2.371,3.969l-2.222,4.03l-2.092,4.09l-1.942,4.152l-1.792,4.212l-1.643,4.258l-1.494,4.288l-1.345,4.35l-1.176,4.364l-1.027,4.41l-0.878,4.425l-0.709,4.456l-0.561,4.486l-0.41,4.486l-0.224,4.486l-0.094,4.501" style="fill:none;fill-rule:nonzero;stroke:#333;stroke-opacity:0.27;stroke-width:13.54px;"/><path d="M2776.26,1581.38l-0.168,8.127l-0.485,8.114l-0.784,8.1l-1.121,8.072l-1.419,8.045l-1.755,8.004l-2.054,7.963l-2.372,7.894l-2.67,7.839l-2.988,7.757l-3.286,7.674l-3.585,7.592l-3.884,7.496l-4.183,7.399l-4.463,7.277l-4.743,7.166l-5.023,7.043l-5.303,6.905l-5.565,6.769l-5.826,6.617l-6.087,6.466l-6.349,6.302l-6.573,6.15l-6.816,5.972l-7.058,5.793l-7.264,5.602l-7.488,5.423l-7.712,5.216l-7.899,5.025l-8.085,4.819l-8.272,4.613l-8.459,4.393l-8.627,4.173l-8.777,3.954l-8.944,3.721l-9.075,3.501l-9.206,3.253l-9.318,3.021l-9.448,2.787l-9.542,2.526l-9.654,2.292l-9.729,2.046l-9.803,1.785l-9.86,1.537l-9.934,1.291l-9.971,1.029l-9.991,0.769l-10.046,0.508l-10.027,0.261l-10.065,-0l-10.046,-0.261l-10.028,-0.508l-10.008,-0.769l-9.953,-1.029l-9.934,-1.291l-9.86,-1.537l-9.803,-1.785l-9.729,-2.046l-9.654,-2.292l-9.542,-2.526l-9.448,-2.787l-9.318,-3.021l-9.225,-3.253l-9.075,-3.501l-8.925,-3.721l-8.777,-3.954l-8.627,-4.173l-8.459,-4.393l-8.272,-4.613l-8.085,-4.819l-7.918,-5.025l-7.693,-5.216l-7.488,-5.423l-7.264,-5.602l-7.058,-5.793l-6.816,-5.972l-6.592,-6.15l-6.33,-6.302l-6.087,-6.466l-5.826,-6.617l-5.565,-6.769l-5.303,-6.905l-5.023,-7.043l-4.743,-7.166l-4.463,-7.277l-4.183,-7.399l-3.884,-7.496l-3.585,-7.592l-3.286,-7.674l-2.988,-7.757l-2.67,-7.839l-2.372,-7.894l-2.054,-7.963l-1.755,-8.004l-1.419,-8.045l-1.121,-8.072l-0.803,-8.1l-0.466,-8.114l-0.168,-8.127" style="fill:none;fill-rule:nonzero;stroke:#333;stroke-opacity:0.27;stroke-width:18.12px;"/><path d="M2776.26,1414.09l-0.242,-13.504l-0.729,-13.488l-1.195,-13.458l-1.662,-13.413l-2.147,-13.366l-2.614,-13.306l-3.081,-13.215l-3.567,-13.123l-4.015,-13.017l-4.481,-12.896l-4.93,-12.758l-5.378,-12.607l-5.826,-12.454l-6.255,-12.287l-6.704,-12.105l-7.114,-11.891l-7.544,-11.694l-7.936,-11.481l-8.347,-11.238l-8.758,-11.01l-9.131,-10.736l-9.505,-10.477l-9.859,-10.204l-10.233,-9.93l-10.569,-9.626l-10.924,-9.306l-11.222,-9.003l-11.559,-8.683l-11.839,-8.348l-12.137,-8.014l-12.418,-7.649l-12.697,-7.3l-12.922,-6.934l-13.183,-6.569l-13.389,-6.189l-13.613,-5.809l-13.818,-5.414l-13.986,-5.018l-14.173,-4.608l-14.322,-4.212l-14.472,-3.817l-14.584,-3.391l-14.714,-2.965l-14.789,-2.555l-14.882,-2.144l-14.958,-1.704l-15.013,-1.277l-15.05,-0.867l-15.07,-0.425l-15.069,-0l-15.069,0.425l-15.032,0.867l-15.013,1.277l-14.957,1.704l-14.883,2.144l-14.807,2.555l-14.696,2.965l-14.602,3.391l-14.453,3.817l-14.323,4.212l-14.173,4.608l-14.004,5.018l-13.8,5.414l-13.613,5.809l-13.407,6.189l-13.164,6.569l-12.941,6.934l-12.679,7.3l-12.418,7.649l-12.137,8.014l-11.857,8.348l-11.54,8.683l-11.242,9.003l-10.905,9.306l-10.569,9.626l-10.233,9.93l-9.878,10.204l-9.504,10.477l-9.131,10.736l-8.739,11.01l-8.347,11.238l-7.955,11.481l-7.544,11.694l-7.114,11.891l-6.685,12.105l-6.275,12.287l-5.826,12.454l-5.377,12.607l-4.93,12.758l-4.463,12.896l-4.033,13.017l-3.548,13.123l-3.081,13.215l-2.615,13.306l-2.147,13.366l-1.681,13.413l-1.195,13.458l-0.709,13.488l-0.243,13.504" style="fill:none;fill-rule:nonzero;stroke:#333;stroke-opacity:0.27;stroke-width:13.83px;"/><path d="M2776.26,1581.38l-0.317,16.255l-0.971,16.227l-1.587,16.2l-2.222,16.158l-2.857,16.09l-3.492,16.008l-4.127,15.912l-4.743,15.801l-5.34,15.665l-5.976,15.513l-6.573,15.363l-7.17,15.184l-7.768,14.991l-8.347,14.786l-8.926,14.566l-9.504,14.333l-10.047,14.072l-10.587,13.811l-11.148,13.536l-11.652,13.235l-12.175,12.932l-12.679,12.617l-13.165,12.287l-13.631,11.944l-14.098,11.573l-14.547,11.23l-14.975,10.832l-15.406,10.448l-15.797,10.049l-16.19,9.638l-16.544,9.212l-16.918,8.786l-17.254,8.361l-17.553,7.894l-17.87,7.454l-18.15,6.988l-18.412,6.508l-18.654,6.04l-18.897,5.56l-19.103,5.08l-19.271,4.572l-19.457,4.091l-19.607,3.569l-19.737,3.076l-19.85,2.581l-19.943,2.045l-19.998,1.551l-20.074,1.03l-20.092,0.522l-20.093,-0l-20.092,-0.522l-20.055,-1.03l-20.017,-1.551l-19.925,-2.045l-19.849,-2.581l-19.738,-3.076l-19.606,-3.569l-19.458,-4.091l-19.289,-4.572l-19.103,-5.08l-18.878,-5.56l-18.673,-6.04l-18.412,-6.508l-18.15,-6.988l-17.852,-7.454l-17.571,-7.894l-17.254,-8.361l-16.899,-8.786l-16.563,-9.212l-16.19,-9.638l-15.797,-10.049l-15.387,-10.448l-14.994,-10.832l-14.547,-11.23l-14.098,-11.573l-13.631,-11.944l-13.165,-12.287l-12.679,-12.617l-12.175,-12.932l-11.652,-13.235l-11.129,-13.536l-10.606,-13.811l-10.046,-14.072l-9.486,-14.333l-8.926,-14.566l-8.347,-14.786l-7.768,-14.991l-7.17,-15.184l-6.592,-15.363l-5.957,-15.513l-5.359,-15.665l-4.743,-15.801l-4.108,-15.912l-3.492,-16.008l-2.857,-16.09l-2.241,-16.158l-1.587,-16.2l-0.952,-16.227l-0.318,-16.255" style="fill:none;fill-rule:nonzero;stroke:#333;stroke-opacity:0.27;stroke-width:18.69px;"/><path d="M2776.26,1414.09l-0.41,-22.506l-1.195,-22.476l-1.98,-22.43l-2.801,-22.369l-3.566,-22.278l-4.37,-22.156l-5.135,-22.035l-5.919,-21.867l-6.704,-21.7l-7.469,-21.487l-8.216,-21.259l-8.963,-21.031l-9.71,-20.758l-10.439,-20.468l-11.148,-20.164l-11.876,-19.845l-12.548,-19.48l-13.258,-19.13l-13.911,-18.735l-14.584,-18.339l-15.2,-17.898l-15.853,-17.473l-16.451,-17.016l-17.049,-16.53l-17.627,-16.028l-18.188,-15.541l-18.711,-15.009l-19.251,-14.462l-19.757,-13.914l-20.223,-13.336l-20.708,-12.759l-21.119,-12.165l-21.568,-11.573l-21.959,-10.933l-22.333,-10.311l-22.688,-9.671l-23.006,-9.033l-23.322,-8.364l-23.622,-7.694l-23.864,-7.026l-24.107,-6.341l-24.331,-5.657l-24.499,-4.957l-24.667,-4.258l-24.817,-3.543l-24.928,-2.859l-25.004,-2.144l-25.078,-1.415l-25.115,-0.714l-25.115,-0l-25.116,0.714l-25.078,1.415l-25.003,2.144l-24.929,2.859l-24.816,3.543l-24.667,4.258l-24.499,4.957l-24.332,5.657l-24.107,6.341l-23.864,7.026l-23.621,7.694l-23.323,8.364l-23.005,9.033l-22.688,9.671l-22.333,10.311l-21.96,10.933l-21.548,11.573l-21.138,12.165l-20.709,12.759l-20.223,13.336l-19.756,13.914l-19.252,14.462l-18.71,15.009l-18.188,15.541l-17.627,16.028l-17.049,16.53l-16.451,17.016l-15.835,17.473l-15.218,17.898l-14.584,18.339l-13.912,18.735l-13.257,19.13l-12.549,19.48l-11.876,19.845l-11.148,20.164l-10.438,20.468l-9.71,20.758l-8.963,21.031l-8.216,21.259l-7.47,21.487l-6.684,21.7l-5.939,21.867l-5.135,22.035l-4.369,22.156l-3.567,22.278l-2.782,22.369l-1.998,22.43l-1.195,22.476l-0.392,22.506" style="fill:none;fill-rule:nonzero;stroke:#333;stroke-opacity:0.27;stroke-width:11.77px;"/><path d="M2776.26,1581.37l-0.485,24.382l-1.438,24.341l-2.39,24.314l-3.343,24.231l-4.294,24.135l-5.229,24.011l-6.181,23.861l-7.095,23.695l-8.049,23.504l-8.944,23.27l-9.859,23.05l-10.756,22.776l-11.652,22.488l-12.53,22.172l-13.388,21.842l-14.229,21.499l-15.088,21.115l-15.891,20.716l-16.694,20.305l-17.496,19.852l-18.263,19.398l-19.009,18.932l-19.737,18.424l-20.466,17.916l-21.138,17.367l-21.829,16.831l-22.464,16.255l-23.098,15.678l-23.697,15.061l-24.293,14.456l-24.835,13.825l-25.359,13.193l-25.862,12.52l-26.348,11.848l-26.795,11.175l-27.226,10.475l-27.617,9.775l-27.991,9.075l-28.346,8.333l-28.645,7.606l-28.924,6.864l-29.186,6.123l-29.411,5.382l-29.596,4.613l-29.784,3.844l-29.896,3.089l-30.026,2.32l-30.082,1.551l-30.139,0.769l-30.138,0l-30.139,-0.769l-30.101,-1.551l-30.007,-2.32l-29.915,-3.089l-29.765,-3.844l-29.597,-4.613l-29.41,-5.382l-29.186,-6.123l-28.924,-6.864l-28.645,-7.606l-28.346,-8.333l-27.991,-9.075l-27.617,-9.775l-27.226,-10.475l-26.796,-11.175l-26.347,-11.848l-25.863,-12.52l-25.376,-13.193l-24.817,-13.825l-24.294,-14.456l-23.696,-15.061l-23.098,-15.678l-22.464,-16.255l-21.829,-16.831l-21.138,-17.367l-20.466,-17.916l-19.737,-18.424l-19.009,-18.932l-18.263,-19.398l-17.496,-19.852l-16.694,-20.305l-15.891,-20.716l-15.088,-21.115l-14.229,-21.499l-13.388,-21.842l-12.53,-22.172l-11.652,-22.488l-10.756,-22.776l-9.859,-23.05l-8.963,-23.27l-8.03,-23.504l-7.095,-23.695l-6.181,-23.861l-5.247,-24.011l-4.277,-24.135l-3.342,-24.231l-2.39,-24.314l-1.438,-24.341l-0.486,-24.382" style="fill:none;fill-rule:nonzero;stroke:#333;stroke-opacity:0.27;stroke-width:11.04px;"/><path d="M2459.53,1581.38l-0.075,4.064l-0.242,4.05l-0.392,4.05l-0.561,4.049l-0.709,4.023l-0.878,3.995l-1.027,3.981l-1.176,3.94l-1.345,3.927l-1.494,3.871l-1.643,3.844l-1.792,3.803l-1.942,3.748l-2.092,3.693l-2.222,3.638l-2.371,3.583l-2.521,3.515l-2.652,3.46l-2.782,3.377l-2.913,3.309l-3.044,3.239l-3.174,3.158l-3.287,3.062l-3.417,2.992l-3.51,2.897l-3.642,2.801l-3.753,2.704l-3.847,2.623l-3.94,2.512l-4.052,2.402l-4.145,2.307l-4.22,2.196l-4.314,2.087l-4.388,1.977l-4.463,1.867l-4.537,1.744l-4.613,1.62l-4.668,1.51l-4.706,1.4l-4.78,1.263l-4.818,1.14l-4.873,1.029l-4.893,0.893l-4.948,0.769l-4.948,0.645l-4.986,0.508l-5.004,0.384l-5.024,0.261l-5.023,0.124l-5.023,-0l-5.023,-0.124l-5.004,-0.261l-5.005,-0.384l-4.985,-0.508l-4.967,-0.645l-4.93,-0.769l-4.911,-0.893l-4.855,-1.029l-4.818,-1.14l-4.78,-1.263l-4.724,-1.4l-4.669,-1.51l-4.593,-1.62l-4.538,-1.744l-4.463,-1.867l-4.406,-1.977l-4.295,-2.087l-4.239,-2.196l-4.127,-2.307l-4.052,-2.402l-3.959,-2.512l-3.846,-2.623l-3.735,-2.704l-3.641,-2.801l-3.529,-2.897l-3.418,-2.992l-3.286,-3.062l-3.156,-3.158l-3.043,-3.239l-2.913,-3.309l-2.801,-3.377l-2.633,-3.46l-2.521,-3.515l-2.372,-3.583l-2.24,-3.638l-2.073,-3.693l-1.942,-3.748l-1.793,-3.803l-1.643,-3.844l-1.494,-3.871l-1.344,-3.927l-1.177,-3.94l-1.045,-3.981l-0.859,-3.995l-0.729,-4.023l-0.541,-4.049l-0.411,-4.05l-0.243,-4.05l-0.074,-4.064" style="fill:none;fill-rule:nonzero;stroke:#333;stroke-opacity:0.27;stroke-width:13.03px;"/><path d="M2459.53,1414.09l-0.149,-9.003l-0.486,-8.987l-0.784,-8.972l-1.12,-8.941l-1.438,-8.912l-1.737,-8.865l-2.054,-8.82l-2.371,-8.744l-2.689,-8.683l-2.969,-8.592l-3.287,-8.5l-3.604,-8.41l-3.884,-8.303l-4.164,-8.196l-4.463,-8.06l-4.743,-7.938l-5.023,-7.801l-5.303,-7.649l-5.564,-7.497l-5.826,-7.329l-6.088,-7.163l-6.349,-6.98l-6.573,-6.812l-6.815,-6.615l-7.059,-6.417l-7.264,-6.205l-7.506,-6.006l-7.694,-5.779l-7.898,-5.566l-8.086,-5.337l-8.291,-5.11l-8.44,-4.866l-8.627,-4.623l-8.795,-4.379l-8.926,-4.121l-9.075,-3.878l-9.206,-3.604l-9.336,-3.346l-9.43,-3.086l-9.561,-2.799l-9.635,-2.539l-9.729,-2.266l-9.803,-1.977l-9.878,-1.703l-9.916,-1.429l-9.971,-1.141l-10.009,-0.851l-10.027,-0.563l-10.046,-0.289l-10.047,0l-10.046,0.289l-10.027,0.563l-10.009,0.851l-9.971,1.141l-9.916,1.429l-9.878,1.703l-9.803,1.977l-9.729,2.266l-9.635,2.539l-9.542,2.799l-9.449,3.086l-9.336,3.346l-9.206,3.604l-9.075,3.878l-8.926,4.121l-8.776,4.379l-8.627,4.623l-8.459,4.866l-8.272,5.11l-8.105,5.337l-7.898,5.566l-7.694,5.779l-7.488,6.006l-7.282,6.205l-7.04,6.417l-6.816,6.615l-6.591,6.812l-6.33,6.98l-6.088,7.163l-5.826,7.329l-5.583,7.497l-5.285,7.649l-5.023,7.801l-4.761,7.938l-4.463,8.06l-4.164,8.196l-3.884,8.303l-3.585,8.41l-3.287,8.5l-2.988,8.592l-2.67,8.683l-2.371,8.744l-2.073,8.82l-1.737,8.865l-1.438,8.912l-1.101,8.941l-0.803,8.972l-0.486,8.987l-0.149,9.003" style="fill:none;fill-rule:nonzero;stroke:#333;stroke-opacity:0.27;stroke-width:12.36px;"/><path d="M2459.53,1581.38l-0.224,12.191l-0.728,12.177l-1.195,12.15l-1.662,12.109l-2.148,12.067l-2.614,12.013l-3.1,11.93l-3.547,11.848l-4.015,11.752l-4.482,11.642l-4.929,11.518l-5.378,11.381l-5.826,11.244l-6.256,11.093l-6.703,10.928l-7.115,10.736l-7.544,10.557l-7.936,10.365l-8.365,10.146l-8.739,9.939l-9.132,9.693l-9.504,9.459l-9.878,9.212l-10.214,8.964l-10.588,8.691l-10.905,8.402l-11.241,8.127l-11.54,7.839l-11.858,7.537l-12.137,7.235l-12.418,6.906l-12.679,6.589l-12.94,6.261l-13.165,5.931l-13.407,5.587l-13.613,5.244l-13.799,4.888l-14.005,4.53l-14.154,4.16l-14.323,3.803l-14.471,3.446l-14.584,3.061l-14.715,2.677l-14.807,2.307l-14.883,1.936l-14.957,1.537l-14.994,1.153l-15.051,0.783l-15.069,0.384l-15.069,0l-15.07,-0.384l-15.05,-0.783l-14.995,-1.153l-14.957,-1.537l-14.882,-1.936l-14.808,-2.307l-14.714,-2.677l-14.584,-3.061l-14.472,-3.446l-14.322,-3.803l-14.154,-4.16l-14.005,-4.53l-13.8,-4.888l-13.612,-5.244l-13.407,-5.587l-13.165,-5.931l-12.94,-6.261l-12.68,-6.589l-12.417,-6.906l-12.138,-7.235l-11.857,-7.537l-11.54,-7.839l-11.241,-8.127l-10.905,-8.402l-10.588,-8.691l-10.214,-8.964l-9.878,-9.212l-9.505,-9.459l-9.131,-9.693l-8.739,-9.939l-8.347,-10.146l-7.955,-10.365l-7.544,-10.557l-7.114,-10.736l-6.704,-10.928l-6.255,-11.093l-5.826,-11.244l-5.378,-11.381l-4.93,-11.518l-4.481,-11.642l-4.015,-11.752l-3.548,-11.848l-3.1,-11.93l-2.614,-12.013l-2.147,-12.067l-1.662,-12.109l-1.195,-12.15l-0.71,-12.177l-0.243,-12.191" style="fill:none;fill-rule:nonzero;stroke:#333;stroke-opacity:0.27;stroke-width:22.09px;"/><path d="M2459.53,1414.09l-0.317,-18.005l-0.953,-17.974l-1.587,-17.944l-2.241,-17.899l-2.857,-17.822l-3.491,-17.731l-4.109,-17.625l-4.743,-17.503l-5.359,-17.351l-5.956,-17.183l-6.573,-17.017l-7.19,-16.818l-7.749,-16.606l-8.365,-16.378l-8.926,-16.134l-9.486,-15.876l-10.046,-15.587l-10.607,-15.298l-11.129,-14.994l-11.652,-14.659l-12.175,-14.325l-12.679,-13.975l-13.164,-13.61l-13.632,-13.23l-14.098,-12.819l-14.546,-12.439l-14.995,-11.999l-15.386,-11.572l-15.798,-11.131l-16.189,-10.675l-16.563,-10.204l-16.899,-9.732l-17.254,-9.261l-17.553,-8.744l-17.87,-8.258l-18.151,-7.74l-18.411,-7.208l-18.673,-6.691l-18.879,-6.159l-19.102,-5.626l-19.29,-5.064l-19.457,-4.532l-19.607,-3.953l-19.719,-3.407l-19.849,-2.858l-19.943,-2.266l-20.018,-1.719l-20.055,-1.14l-20.092,-0.578l-20.092,0l-20.092,0.578l-20.055,1.14l-20.018,1.719l-19.943,2.266l-19.849,2.858l-19.738,3.407l-19.607,3.953l-19.438,4.532l-19.29,5.064l-19.102,5.626l-18.897,6.159l-18.655,6.691l-18.412,7.208l-18.15,7.74l-17.87,8.258l-17.553,8.744l-17.254,9.261l-16.899,9.732l-16.563,10.204l-16.189,10.675l-15.798,11.131l-15.405,11.572l-14.976,11.999l-14.546,12.439l-14.099,12.819l-13.631,13.23l-13.164,13.61l-12.679,13.975l-12.175,14.325l-11.652,14.659l-11.13,14.994l-10.606,15.298l-10.046,15.587l-9.505,15.876l-8.925,16.134l-8.347,16.378l-7.768,16.606l-7.171,16.818l-6.573,17.017l-5.956,17.183l-5.36,17.351l-4.743,17.503l-4.108,17.625l-3.492,17.731l-2.875,17.822l-2.222,17.899l-1.587,17.944l-0.953,17.974l-0.317,18.005" style="fill:none;fill-rule:nonzero;stroke:#333;stroke-opacity:0.27;stroke-width:14.71px;"/><path d="M2459.53,1581.37l-0.392,20.318l-1.195,20.291l-1.998,20.25l-2.782,20.195l-3.567,20.113l-4.369,20.002l-5.136,19.893l-5.938,19.742l-6.685,19.591l-7.469,19.399l-8.216,19.192l-8.963,18.987l-9.71,18.74l-10.438,18.478l-11.148,18.205l-11.876,17.916l-12.567,17.586l-13.24,17.271l-13.911,16.913l-14.584,16.557l-15.218,16.159l-15.835,15.774l-16.451,15.363l-17.049,14.923l-17.627,14.47l-18.188,14.03l-18.729,13.551l-19.233,13.056l-19.756,12.561l-20.223,12.04l-20.709,11.519l-21.138,10.983l-21.548,10.447l-21.96,9.871l-22.333,9.308l-22.688,8.732l-23.005,8.154l-23.342,7.551l-23.602,6.947l-23.865,6.343l-24.107,5.724l-24.331,5.108l-24.499,4.475l-24.667,3.844l-24.816,3.199l-24.929,2.581l-25.003,1.936l-25.078,1.276l-25.116,0.646l-25.115,-0l-25.115,-0.646l-25.078,-1.276l-25.022,-1.936l-24.91,-2.581l-24.817,-3.199l-24.667,-3.844l-24.518,-4.475l-24.312,-5.108l-24.107,-5.724l-23.864,-6.343l-23.622,-6.947l-23.323,-7.551l-23.023,-8.154l-22.67,-8.732l-22.333,-9.308l-21.959,-9.871l-21.568,-10.447l-21.138,-10.983l-20.689,-11.519l-20.223,-12.04l-19.757,-12.561l-19.252,-13.056l-18.729,-13.551l-18.169,-14.03l-17.627,-14.47l-17.049,-14.923l-16.451,-15.363l-15.853,-15.774l-15.219,-16.159l-14.565,-16.557l-13.911,-16.913l-13.258,-17.271l-12.567,-17.586l-11.857,-17.916l-11.167,-18.205l-10.42,-18.478l-9.71,-18.74l-8.981,-18.987l-8.217,-19.192l-7.45,-19.399l-6.704,-19.591l-5.919,-19.742l-5.135,-19.893l-4.37,-20.002l-3.585,-20.113l-2.782,-20.195l-1.98,-20.25l-1.195,-20.291l-0.411,-20.318" style="fill:none;fill-rule:nonzero;stroke:#333;stroke-opacity:0.27;stroke-width:13.03px;"/><path d="M2142.82,1414.09l-0.075,-4.501l-0.243,-4.486l-0.392,-4.486l-0.56,-4.486l-0.71,-4.456l-0.877,-4.425l-1.027,-4.41l-1.196,-4.364l-1.325,-4.35l-1.494,-4.288l-1.643,-4.258l-1.793,-4.212l-1.942,-4.152l-2.091,-4.09l-2.241,-4.03l-2.372,-3.969l-2.502,-3.893l-2.651,-3.832l-2.783,-3.741l-2.913,-3.665l-3.043,-3.588l-3.175,-3.498l-3.286,-3.391l-3.418,-3.315l-3.51,-3.209l-3.641,-3.102l-3.754,-2.996l-3.846,-2.904l-3.94,-2.783l-4.052,-2.661l-4.146,-2.555l-4.22,-2.433l-4.313,-2.311l-4.389,-2.19l-4.462,-2.068l-4.538,-1.932l-4.612,-1.794l-4.669,-1.673l-4.724,-1.551l-4.762,-1.399l-4.836,-1.262l-4.855,-1.141l-4.911,-0.988l-4.93,-0.852l-4.967,-0.714l-4.967,-0.563l-5.004,-0.426l-5.023,-0.289l-5.023,-0.136l-5.023,-0l-5.023,0.136l-5.023,0.289l-4.986,0.426l-4.986,0.563l-4.967,0.714l-4.93,0.852l-4.911,0.988l-4.855,1.141l-4.836,1.262l-4.762,1.399l-4.724,1.551l-4.668,1.673l-4.594,1.794l-4.537,1.932l-4.482,2.068l-4.388,2.19l-4.314,2.311l-4.22,2.433l-4.145,2.555l-4.034,2.661l-3.958,2.783l-3.847,2.904l-3.753,2.996l-3.623,3.102l-3.529,3.209l-3.417,3.315l-3.287,3.391l-3.174,3.498l-3.044,3.588l-2.913,3.665l-2.782,3.741l-2.652,3.832l-2.502,3.893l-2.371,3.969l-2.241,4.03l-2.091,4.09l-1.942,4.152l-1.793,4.212l-1.643,4.258l-1.494,4.288l-1.326,4.35l-1.195,4.364l-1.027,4.41l-0.878,4.425l-0.709,4.456l-0.56,4.486l-0.393,4.486l-0.242,4.486l-0.075,4.501" style="fill:none;fill-rule:nonzero;stroke:#333;stroke-opacity:0.27;stroke-width:12.06px;"/><path d="M2142.82,1581.38l-0.15,8.127l-0.485,8.114l-0.803,8.1l-1.102,8.072l-1.438,8.045l-1.736,8.004l-2.073,7.963l-2.353,7.894l-2.689,7.839l-2.988,7.757l-3.286,7.674l-3.585,7.592l-3.884,7.496l-4.164,7.399l-4.463,7.277l-4.743,7.166l-5.042,7.043l-5.284,6.905l-5.565,6.769l-5.845,6.617l-6.087,6.466l-6.33,6.302l-6.573,6.15l-6.835,5.972l-7.039,5.793l-7.283,5.602l-7.488,5.423l-7.693,5.216l-7.899,5.025l-8.104,4.819l-8.272,4.613l-8.459,4.393l-8.608,4.173l-8.795,3.954l-8.926,3.721l-9.075,3.501l-9.206,3.253l-9.337,3.021l-9.448,2.787l-9.542,2.526l-9.636,2.292l-9.728,2.046l-9.804,1.785l-9.878,1.537l-9.915,1.291l-9.972,1.029l-10.008,0.769l-10.028,0.508l-10.046,0.261l-10.046,-0l-10.046,-0.261l-10.028,-0.508l-10.008,-0.769l-9.972,-1.029l-9.915,-1.291l-9.878,-1.537l-9.804,-1.785l-9.729,-2.046l-9.635,-2.292l-9.56,-2.526l-9.43,-2.787l-9.337,-3.021l-9.206,-3.253l-9.075,-3.501l-8.926,-3.721l-8.795,-3.954l-8.608,-4.173l-8.459,-4.393l-8.291,-4.613l-8.085,-4.819l-7.899,-5.025l-7.693,-5.216l-7.488,-5.423l-7.283,-5.602l-7.039,-5.793l-6.835,-5.972l-6.573,-6.15l-6.33,-6.302l-6.087,-6.466l-5.845,-6.617l-5.565,-6.769l-5.284,-6.905l-5.042,-7.043l-4.743,-7.166l-4.463,-7.277l-4.164,-7.399l-3.884,-7.496l-3.585,-7.592l-3.287,-7.674l-2.987,-7.757l-2.689,-7.839l-2.372,-7.894l-2.054,-7.963l-1.736,-8.004l-1.438,-8.045l-1.102,-8.072l-0.803,-8.1l-0.485,-8.114l-0.15,-8.127" style="fill:none;fill-rule:nonzero;stroke:#333;stroke-opacity:0.27;stroke-width:18.41px;"/><path d="M2142.82,1414.09l-0.243,-13.504l-0.71,-13.488l-1.195,-13.458l-1.68,-13.413l-2.129,-13.366l-2.633,-13.306l-3.081,-13.215l-3.548,-13.123l-4.015,-13.017l-4.481,-12.896l-4.93,-12.758l-5.378,-12.607l-5.826,-12.454l-6.274,-12.287l-6.685,-12.105l-7.114,-11.891l-7.544,-11.694l-7.955,-11.481l-8.347,-11.238l-8.739,-11.01l-9.131,-10.736l-9.505,-10.477l-9.878,-10.204l-10.233,-9.93l-10.569,-9.626l-10.905,-9.306l-11.241,-9.003l-11.54,-8.683l-11.857,-8.348l-12.138,-8.014l-12.418,-7.649l-12.679,-7.3l-12.94,-6.934l-13.165,-6.569l-13.407,-6.189l-13.613,-5.809l-13.799,-5.414l-14.005,-5.018l-14.154,-4.608l-14.322,-4.212l-14.472,-3.817l-14.602,-3.391l-14.696,-2.965l-14.808,-2.555l-14.882,-2.144l-14.958,-1.704l-14.994,-1.277l-15.051,-0.867l-15.069,-0.425l-15.069,-0l-15.069,0.425l-15.051,0.867l-15.013,1.277l-14.938,1.704l-14.901,2.144l-14.79,2.555l-14.714,2.965l-14.584,3.391l-14.471,3.817l-14.323,4.212l-14.173,4.608l-13.986,5.018l-13.818,5.414l-13.612,5.809l-13.389,6.189l-13.183,6.569l-12.922,6.934l-12.679,7.3l-12.418,7.649l-12.137,8.014l-11.858,8.348l-11.558,8.683l-11.223,9.003l-10.905,9.306l-10.588,9.626l-10.233,9.93l-9.859,10.204l-9.505,10.477l-9.131,10.736l-8.757,11.01l-8.347,11.238l-7.936,11.481l-7.544,11.694l-7.115,11.891l-6.703,12.105l-6.256,12.287l-5.826,12.454l-5.378,12.607l-4.929,12.758l-4.482,12.896l-4.015,13.017l-3.548,13.123l-3.099,13.215l-2.615,13.306l-2.147,13.366l-1.662,13.413l-1.195,13.458l-0.728,13.488l-0.224,13.504" style="fill:none;fill-rule:nonzero;stroke:#333;stroke-opacity:0.27;stroke-width:9.42px;"/><path d="M2142.82,1581.37l-0.318,16.255l-0.952,16.227l-1.587,16.2l-2.241,16.159l-2.857,16.09l-3.492,16.007l-4.108,15.912l-4.743,15.802l-5.359,15.664l-5.976,15.513l-6.573,15.363l-7.17,15.184l-7.768,14.991l-8.347,14.786l-8.926,14.566l-9.486,14.333l-10.046,14.072l-10.606,13.811l-11.129,13.536l-11.671,13.235l-12.156,12.932l-12.679,12.617l-13.165,12.287l-13.631,11.944l-14.117,11.573l-14.546,11.23l-14.976,10.832l-15.387,10.448l-15.816,10.049l-16.171,9.638l-16.563,9.212l-16.899,8.786l-17.254,8.361l-17.571,7.894l-17.852,7.455l-18.15,6.987l-18.412,6.508l-18.673,6.04l-18.879,5.561l-19.102,5.079l-19.289,4.572l-19.458,4.091l-19.607,3.569l-19.737,3.076l-19.85,2.581l-19.924,2.045l-20.017,1.552l-20.055,1.029l-20.093,0.522l-20.092,-0l-20.092,-0.522l-20.074,-1.029l-19.999,-1.552l-19.942,-2.045l-19.85,-2.581l-19.737,-3.076l-19.607,-3.569l-19.458,-4.091l-19.289,-4.572l-19.084,-5.079l-18.897,-5.561l-18.654,-6.04l-18.412,-6.508l-18.15,-6.987l-17.871,-7.455l-17.552,-7.894l-17.254,-8.361l-16.918,-8.786l-16.544,-9.212l-16.19,-9.638l-15.797,-10.049l-15.406,-10.448l-14.976,-10.832l-14.546,-11.23l-14.098,-11.573l-13.632,-11.944l-13.164,-12.287l-12.679,-12.617l-12.175,-12.932l-11.652,-13.235l-11.148,-13.536l-10.587,-13.811l-10.047,-14.072l-9.504,-14.333l-8.926,-14.566l-8.347,-14.786l-7.768,-14.991l-7.17,-15.184l-6.573,-15.363l-5.976,-15.513l-5.34,-15.664l-4.743,-15.802l-4.127,-15.912l-3.492,-16.007l-2.857,-16.09l-2.222,-16.159l-1.587,-16.2l-0.971,-16.227l-0.318,-16.255" style="fill:none;fill-rule:nonzero;stroke:#333;stroke-opacity:0.27;stroke-width:9.91px;"/><path d="M1826.1,1581.38l-0.075,4.064l-0.242,4.05l-0.393,4.05l-0.56,4.049l-0.728,4.023l-0.859,3.995l-1.027,3.981l-1.195,3.94l-1.345,3.927l-1.475,3.871l-1.643,3.844l-1.811,3.803l-1.924,3.748l-2.091,3.693l-2.241,3.638l-2.371,3.583l-2.502,3.515l-2.652,3.46l-2.782,3.377l-2.913,3.309l-3.044,3.239l-3.174,3.158l-3.287,3.062l-3.417,2.992l-3.529,2.897l-3.623,2.801l-3.753,2.704l-3.847,2.623l-3.959,2.512l-4.033,2.402l-4.145,2.307l-4.221,2.196l-4.313,2.087l-4.407,1.977l-4.463,1.867l-4.537,1.744l-4.594,1.62l-4.668,1.51l-4.724,1.4l-4.781,1.263l-4.817,1.14l-4.855,1.029l-4.911,0.893l-4.93,0.769l-4.967,0.645l-4.986,0.508l-5.004,0.384l-5.005,0.261l-5.023,0.124l-5.023,-0l-5.023,-0.124l-5.023,-0.261l-5.004,-0.384l-4.986,-0.508l-4.949,-0.645l-4.948,-0.769l-4.892,-0.893l-4.874,-1.029l-4.818,-1.14l-4.761,-1.263l-4.725,-1.4l-4.668,-1.51l-4.612,-1.62l-4.538,-1.744l-4.462,-1.867l-4.389,-1.977l-4.313,-2.087l-4.22,-2.196l-4.146,-2.307l-4.052,-2.402l-3.94,-2.512l-3.846,-2.623l-3.754,-2.704l-3.641,-2.801l-3.511,-2.897l-3.417,-2.992l-3.286,-3.062l-3.175,-3.158l-3.043,-3.239l-2.913,-3.309l-2.783,-3.377l-2.651,-3.46l-2.502,-3.515l-2.391,-3.583l-2.222,-3.638l-2.091,-3.693l-1.942,-3.748l-1.793,-3.803l-1.643,-3.844l-1.494,-3.871l-1.326,-3.927l-1.195,-3.94l-1.027,-3.981l-0.877,-3.995l-0.71,-4.023l-0.56,-4.049l-0.392,-4.05l-0.243,-4.05l-0.075,-4.064" style="fill:none;fill-rule:nonzero;stroke:#333;stroke-opacity:0.27;stroke-width:13.31px;"/><path d="M1826.1,1414.09l-0.168,-9.003l-0.467,-8.987l-0.803,-8.972l-1.12,-8.941l-1.419,-8.912l-1.756,-8.865l-2.054,-8.82l-2.371,-8.744l-2.67,-8.683l-2.988,-8.592l-3.287,-8.5l-3.585,-8.41l-3.884,-8.303l-4.183,-8.196l-4.463,-8.06l-4.743,-7.938l-5.023,-7.801l-5.303,-7.649l-5.564,-7.497l-5.826,-7.329l-6.088,-7.163l-6.33,-6.98l-6.592,-6.812l-6.815,-6.615l-7.04,-6.417l-7.283,-6.205l-7.487,-6.006l-7.694,-5.779l-7.898,-5.566l-8.105,-5.337l-8.272,-5.11l-8.459,-4.866l-8.627,-4.623l-8.776,-4.379l-8.926,-4.121l-9.075,-3.878l-9.206,-3.604l-9.336,-3.346l-9.449,-3.086l-9.542,-2.799l-9.654,-2.539l-9.729,-2.266l-9.784,-1.977l-9.878,-1.703l-9.916,-1.429l-9.971,-1.141l-10.009,-0.851l-10.027,-0.563l-10.047,-0.289l-10.046,0l-10.046,0.289l-10.027,0.563l-10.009,0.851l-9.972,1.141l-9.934,1.429l-9.859,1.703l-9.803,1.977l-9.729,2.266l-9.635,2.539l-9.561,2.799l-9.43,3.086l-9.337,3.346l-9.205,3.604l-9.076,3.878l-8.944,4.121l-8.776,4.379l-8.627,4.623l-8.441,4.866l-8.29,5.11l-8.086,5.337l-7.899,5.566l-7.712,5.779l-7.487,6.006l-7.264,6.205l-7.059,6.417l-6.815,6.615l-6.573,6.812l-6.349,6.98l-6.088,7.163l-5.826,7.329l-5.564,7.497l-5.303,7.649l-5.023,7.801l-4.743,7.938l-4.463,8.06l-4.183,8.196l-3.884,8.303l-3.585,8.41l-3.287,8.5l-2.969,8.592l-2.689,8.683l-2.371,8.744l-2.054,8.82l-1.737,8.865l-1.438,8.912l-1.12,8.941l-0.784,8.972l-0.486,8.987l-0.149,9.003" style="fill:none;fill-rule:nonzero;stroke:#333;stroke-opacity:0.27;stroke-width:10.59px;"/><path d="M1826.1,1581.37l-0.243,12.191l-0.709,12.177l-1.195,12.15l-1.681,12.109l-2.147,12.068l-2.615,12.012l-3.081,11.93l-3.548,11.848l-4.033,11.752l-4.463,11.642l-4.93,11.518l-5.377,11.381l-5.826,11.244l-6.275,11.093l-6.685,10.928l-7.133,10.736l-7.525,10.557l-7.955,10.365l-8.347,10.146l-8.739,9.939l-9.131,9.693l-9.504,9.459l-9.878,9.212l-10.233,8.965l-10.569,8.69l-10.905,8.402l-11.242,8.127l-11.54,7.839l-11.857,7.537l-12.138,7.235l-12.417,6.906l-12.679,6.59l-12.941,6.26l-13.164,5.931l-13.408,5.587l-13.612,5.245l-13.818,4.887l-13.986,4.53l-14.173,4.16l-14.323,3.803l-14.453,3.446l-14.602,3.062l-14.696,2.677l-14.807,2.306l-14.883,1.936l-14.957,1.537l-15.013,1.154l-15.032,0.782l-15.069,0.385l-15.088,-0l-15.051,-0.385l-15.05,-0.782l-15.013,-1.154l-14.958,-1.537l-14.882,-1.936l-14.808,-2.306l-14.696,-2.677l-14.583,-3.062l-14.472,-3.446l-14.322,-3.803l-14.173,-4.16l-13.986,-4.53l-13.818,-4.887l-13.613,-5.245l-13.389,-5.587l-13.183,-5.931l-12.922,-6.26l-12.697,-6.59l-12.418,-6.906l-12.138,-7.235l-11.838,-7.537l-11.559,-7.839l-11.222,-8.127l-10.924,-8.402l-10.569,-8.69l-10.233,-8.965l-9.86,-9.212l-9.523,-9.459l-9.112,-9.693l-8.758,-9.939l-8.347,-10.146l-7.955,-10.365l-7.525,-10.557l-7.114,-10.736l-6.704,-10.928l-6.255,-11.093l-5.826,-11.244l-5.378,-11.381l-4.93,-11.518l-4.482,-11.642l-4.014,-11.752l-3.567,-11.848l-3.081,-11.93l-2.614,-12.012l-2.148,-12.068l-1.68,-12.109l-1.177,-12.15l-0.728,-12.177l-0.243,-12.191" style="fill:none;fill-rule:nonzero;stroke:#333;stroke-opacity:0.27;stroke-width:15.01px;"/><path d="M1509.38,1414.09l-0.093,-4.501l-0.224,-4.486l-0.411,-4.486l-0.541,-4.486l-0.729,-4.456l-0.877,-4.425l-1.027,-4.41l-1.177,-4.364l-1.344,-4.35l-1.494,-4.288l-1.643,-4.258l-1.793,-4.212l-1.942,-4.152l-2.091,-4.09l-2.222,-4.03l-2.372,-3.969l-2.521,-3.893l-2.651,-3.832l-2.783,-3.741l-2.913,-3.665l-3.043,-3.588l-3.156,-3.498l-3.305,-3.391l-3.399,-3.315l-3.529,-3.209l-3.641,-3.102l-3.735,-2.996l-3.846,-2.904l-3.959,-2.783l-4.052,-2.661l-4.127,-2.555l-4.239,-2.433l-4.313,-2.311l-4.388,-2.19l-4.463,-2.068l-4.538,-1.932l-4.594,-1.794l-4.668,-1.673l-4.724,-1.551l-4.78,-1.399l-4.818,-1.262l-4.874,-1.141l-4.892,-0.988l-4.93,-0.852l-4.967,-0.714l-4.986,-0.563l-5.004,-0.426l-5.004,-0.289l-5.023,-0.136l-5.023,-0l-5.024,0.136l-5.023,0.289l-5.004,0.426l-4.986,0.563l-4.967,0.714l-4.929,0.852l-4.893,0.988l-4.874,1.141l-4.817,1.262l-4.78,1.399l-4.706,1.551l-4.668,1.673l-4.613,1.794l-4.537,1.932l-4.463,2.068l-4.388,2.19l-4.314,2.311l-4.22,2.433l-4.145,2.555l-4.052,2.661l-3.94,2.783l-3.866,2.904l-3.734,2.996l-3.642,3.102l-3.529,3.209l-3.398,3.315l-3.287,3.391l-3.174,3.498l-3.044,3.588l-2.913,3.665l-2.782,3.741l-2.652,3.832l-2.521,3.893l-2.371,3.969l-2.222,4.03l-2.092,4.09l-1.942,4.152l-1.792,4.212l-1.644,4.258l-1.493,4.288l-1.345,4.35l-1.176,4.364l-1.027,4.41l-0.878,4.425l-0.709,4.456l-0.561,4.486l-0.392,4.486l-0.243,4.486l-0.074,4.501" style="fill:none;fill-rule:nonzero;stroke:#333;stroke-opacity:0.27;stroke-width:12.06px;"/><path d="M1509.38,1581.37l-0.168,8.127l-0.467,8.114l-0.802,8.1l-1.121,8.072l-1.419,8.045l-1.755,8.004l-2.054,7.963l-2.372,7.894l-2.67,7.839l-2.988,7.757l-3.286,7.674l-3.585,7.592l-3.884,7.496l-4.183,7.4l-4.463,7.276l-4.743,7.166l-5.023,7.043l-5.303,6.906l-5.565,6.768l-5.826,6.617l-6.087,6.466l-6.331,6.302l-6.591,6.15l-6.816,5.972l-7.058,5.794l-7.264,5.601l-7.488,5.423l-7.712,5.217l-7.899,5.024l-8.085,4.819l-8.272,4.613l-8.459,4.393l-8.627,4.174l-8.777,3.953l-8.944,3.721l-9.075,3.501l-9.206,3.253l-9.318,3.021l-9.449,2.787l-9.541,2.526l-9.654,2.292l-9.729,2.046l-9.804,1.785l-9.859,1.537l-9.934,1.291l-9.971,1.03l-9.991,0.768l-10.027,0.508l-10.046,0.261l-10.065,0l-10.046,-0.261l-10.028,-0.508l-9.99,-0.768l-9.971,-1.03l-9.934,-1.291l-9.86,-1.537l-9.803,-1.785l-9.729,-2.046l-9.654,-2.292l-9.542,-2.526l-9.448,-2.787l-9.318,-3.021l-9.206,-3.253l-9.075,-3.501l-8.945,-3.721l-8.776,-3.953l-8.627,-4.174l-8.459,-4.393l-8.272,-4.613l-8.085,-4.819l-7.899,-5.024l-7.712,-5.217l-7.488,-5.423l-7.264,-5.601l-7.058,-5.794l-6.816,-5.972l-6.592,-6.15l-6.33,-6.302l-6.087,-6.466l-5.826,-6.617l-5.565,-6.768l-5.303,-6.906l-5.023,-7.043l-4.743,-7.166l-4.463,-7.276l-4.183,-7.4l-3.884,-7.496l-3.585,-7.592l-3.286,-7.674l-2.988,-7.757l-2.67,-7.839l-2.372,-7.894l-2.054,-7.963l-1.755,-8.004l-1.419,-8.045l-1.121,-8.072l-0.803,-8.1l-0.466,-8.114l-0.169,-8.127" style="fill:none;fill-rule:nonzero;stroke:#333;stroke-opacity:0.27;stroke-width:11.89px;"/><path d="M1192.67,1581.37l-0.094,4.064l-0.242,4.05l-0.392,4.05l-0.561,4.05l-0.709,4.022l-0.878,3.995l-1.027,3.981l-1.176,3.941l-1.345,3.926l-1.494,3.871l-1.643,3.845l-1.792,3.802l-1.943,3.748l-2.091,3.693l-2.222,3.638l-2.371,3.584l-2.521,3.514l-2.652,3.46l-2.782,3.377l-2.913,3.309l-3.044,3.24l-3.174,3.157l-3.287,3.062l-3.398,2.993l-3.53,2.896l-3.641,2.801l-3.734,2.705l-3.866,2.622l-3.94,2.512l-4.052,2.403l-4.145,2.306l-4.22,2.197l-4.314,2.086l-4.388,1.977l-4.463,1.867l-4.538,1.744l-4.612,1.62l-4.649,1.51l-4.725,1.4l-4.78,1.263l-4.818,1.14l-4.873,1.03l-4.893,0.892l-4.929,0.769l-4.967,0.645l-4.986,0.508l-5.005,0.384l-5.023,0.261l-5.023,0.124l-5.023,-0l-5.023,-0.124l-5.004,-0.261l-5.005,-0.384l-4.985,-0.508l-4.967,-0.645l-4.93,-0.769l-4.892,-0.892l-4.874,-1.03l-4.818,-1.14l-4.78,-1.263l-4.724,-1.4l-4.669,-1.51l-4.593,-1.62l-4.538,-1.744l-4.463,-1.867l-4.388,-1.977l-4.313,-2.086l-4.239,-2.197l-4.127,-2.306l-4.052,-2.403l-3.959,-2.512l-3.846,-2.622l-3.735,-2.705l-3.641,-2.801l-3.529,-2.896l-3.399,-2.993l-3.305,-3.062l-3.156,-3.157l-3.044,-3.24l-2.913,-3.309l-2.782,-3.377l-2.651,-3.46l-2.521,-3.514l-2.372,-3.584l-2.222,-3.638l-2.091,-3.693l-1.942,-3.748l-1.793,-3.802l-1.643,-3.845l-1.494,-3.871l-1.344,-3.926l-1.177,-3.941l-1.027,-3.981l-0.877,-3.995l-0.71,-4.022l-0.56,-4.05l-0.411,-4.05l-0.224,-4.05l-0.094,-4.064" style="fill:none;fill-rule:nonzero;stroke:#333;stroke-opacity:0.27;stroke-width:16.14px;"/><circle cx="876.412" cy="1474.16" r="43.251" style="fill:#686a94;stroke:#0d0d12;stroke-opacity:0.67;stroke-width:7.28px;stroke-linecap:round;stroke-linejoin:round;stroke-miterlimit:1.5;"/><circle cx="1192.76" cy="1474.16" r="43.251" style="fill:#686a94;stroke:#0d0d12;stroke-opacity:0.67;stroke-width:7.28px;stroke-linecap:round;stroke-linejoin:round;stroke-miterlimit:1.5;"/><circle cx="1509.1" cy="1474.16" r="43.251" style="fill:#686a94;stroke:#0d0d12;stroke-opacity:0.67;stroke-width:7.28px;stroke-linecap:round;stroke-linejoin:round;stroke-miterlimit:1.5;"/><circle cx="1825.45" cy="1474.16" r="43.251" style="fill:#686a94;stroke:#0d0d12;stroke-opacity:0.67;stroke-width:7.28px;stroke-linecap:round;stroke-linejoin:round;stroke-miterlimit:1.5;"/><circle cx="2141.79" cy="1474.16" r="43.251" style="fill:#686a94;stroke:#0d0d12;stroke-opacity:0.67;stroke-width:7.28px;stroke-linecap:round;stroke-linejoin:round;stroke-miterlimit:1.5;"/><circle cx="2458.14" cy="1474.16" r="43.251" style="fill:#686a94;stroke:#0d0d12;stroke-opacity:0.67;stroke-width:7.28px;stroke-linecap:round;stroke-linejoin:round;stroke-miterlimit:1.5;"/><circle cx="2774.48" cy="1474.16" r="43.251" style="fill:#686a94;stroke:#0d0d12;stroke-opacity:0.67;stroke-width:7.28px;stroke-linecap:round;stroke-linejoin:round;stroke-miterlimit:1.5;"/><circle cx="3090.83" cy="1474.16" r="43.251" style="fill:#686a94;stroke:#0d0d12;stroke-opacity:0.67;stroke-width:7.28px;stroke-linecap:round;stroke-linejoin:round;stroke-miterlimit:1.5;"/><circle cx="3407.17" cy="1474.16" r="43.251" style="fill:#686a94;stroke:#0d0d12;stroke-opacity:0.67;stroke-width:7.28px;stroke-linecap:round;stroke-linejoin:round;stroke-miterlimit:1.5;"/><circle cx="3723.51" cy="1474.16" r="43.251" style="fill:#686a94;stroke:#0d0d12;stroke-opacity:0.67;stroke-width:7.28px;stroke-linecap:round;stroke-linejoin:round;stroke-miterlimit:1.5;"/><circle cx="4039.86" cy="1474.16" r="43.251" style="fill:#686a94;stroke:#0d0d12;stroke-opacity:0.67;stroke-width:7.28px;stroke-linecap:round;stroke-linejoin:round;stroke-miterlimit:1.5;"/><text x="794.649px" y="1570.22px" style="font-family:'OpenSans-SemiBold', 'Open Sans', sans-serif;font-weight:600;font-size:46.412px;">Spleen</text><text x="1079.37px" y="1574.92px" style="font-family:'OpenSans-SemiBold', 'Open Sans', sans-serif;font-weight:600;font-size:46.412px;">Pancreas</text><text x="1422.95px" y="1570.22px" style="font-family:'OpenSans-SemiBold', 'Open Sans', sans-serif;font-weight:600;font-size:46.412px;">Kidney</text><text x="1763.2px" y="1569.05px" style="font-family:'OpenSans-SemiBold', 'Open Sans', sans-serif;font-weight:600;font-size:46.412px;">Lung</text><text x="2070.48px" y="1574.92px" style="font-family:'OpenSans-SemiBold', 'Open Sans', sans-serif;font-weight:600;font-size:46.412px;">Heart</text><text x="2396px" y="1575.77px" style="font-family:'OpenSans-SemiBold', 'Open Sans', sans-serif;font-weight:600;font-size:46.412px;">Liver</text><text x="2671.16px" y="1575.07px" style="font-family:'OpenSans-SemiBold', 'Open Sans', sans-serif;font-weight:600;font-size:46.412px;">S.Cortex</text><text x="2991.22px" y="1576.09px" style="font-family:'OpenSans-SemiBold', 'Open Sans', sans-serif;font-weight:600;font-size:46.412px;">Medulla</text><text x="3225.88px" y="1570.22px" style="font-family:'OpenSans-SemiBold', 'Open Sans', sans-serif;font-weight:600;font-size:46.412px;">Hypothalamus</text><text x="3582.26px" y="1576.09px" style="font-family:'OpenSans-SemiBold', 'Open Sans', sans-serif;font-weight:600;font-size:46.412px;">Cerebellum</text><text x="3932.57px" y="1575.07px" style="font-family:'OpenSans-SemiBold', 'Open Sans', sans-serif;font-weight:600;font-size:46.412px;">B.Cortex</text></g></svg>