<?xml version="1.0" encoding="UTF-8" standalone="no"?><!DOCTYPE svg PUBLIC "-//W3C//DTD SVG 1.1//EN" "http://www.w3.org/Graphics/SVG/1.1/DTD/svg11.dtd"><svg width="100%" height="100%" viewBox="0 0 7145 1256" version="1.1" xmlns="http://www.w3.org/2000/svg" xmlns:xlink="http://www.w3.org/1999/xlink" xml:space="preserve" xmlns:serif="http://www.serif.com/" style="fill-rule:evenodd;clip-rule:evenodd;"><rect x="0" y="0" width="7144.44" height="1255.56" style="fill:#fff;"/><g><g><rect x="780.556" y="163.889" width="5555.56" height="833.333" style="fill:none;fill-rule:nonzero;stroke:#ddd;stroke-width:5.56px;"/><g><g><g><g><g><path d="M780.556,997.222l-0,-833.333" style="fill:none;fill-rule:nonzero;stroke:#ddd;stroke-width:5.56px;"/><path d="M1475,997.222l0,-833.333" style="fill:none;fill-rule:nonzero;stroke:#ddd;stroke-width:5.56px;"/><path d="M2169.44,997.222l0,-833.333" style="fill:none;fill-rule:nonzero;stroke:#ddd;stroke-width:5.56px;"/><path d="M2863.89,997.222l-0,-833.333" style="fill:none;fill-rule:nonzero;stroke:#ddd;stroke-width:5.56px;"/><path d="M3558.33,997.222l0,-833.333" style="fill:none;fill-rule:nonzero;stroke:#ddd;stroke-width:5.56px;"/><path d="M4252.78,997.222l-0,-833.333" style="fill:none;fill-rule:nonzero;stroke:#ddd;stroke-width:5.56px;"/><path d="M4947.22,997.222l0,-833.333" style="fill:none;fill-rule:nonzero;stroke:#ddd;stroke-width:5.56px;"/><path d="M5641.67,997.222l-0,-833.333" style="fill:none;fill-rule:nonzero;stroke:#ddd;stroke-width:5.56px;"/><path d="M6336.11,997.222l0,-833.333" style="fill:none;fill-rule:nonzero;stroke:#ddd;stroke-width:5.56px;"/></g></g></g></g><g><g><g><g><path d="M780.556,997.222l-0,27.778" style="fill:none;fill-rule:nonzero;stroke:#888;stroke-width:5.56px;"/><path d="M1475,997.222l0,27.778" style="fill:none;fill-rule:nonzero;stroke:#888;stroke-width:5.56px;"/><path d="M2169.44,997.222l0,27.778" style="fill:none;fill-rule:nonzero;stroke:#888;stroke-width:5.56px;"/><path d="M2863.89,997.222l-0,27.778" style="fill:none;fill-rule:nonzero;stroke:#888;stroke-width:5.56px;"/><path d="M3558.33,997.222l0,27.778" style="fill:none;fill-rule:nonzero;stroke:#888;stroke-width:5.56px;"/><path d="M4252.78,997.222l-0,27.778" style="fill:none;fill-rule:nonzero;stroke:#888;stroke-width:5.56px;"/><path d="M4947.22,997.222l0,27.778" style="fill:none;fill-rule:nonzero;stroke:#888;stroke-width:5.56px;"/><path d="M5641.67,997.222l-0,27.778" style="fill:none;fill-rule:nonzero;stroke:#888;stroke-width:5.56px;"/><path d="M6336.11,997.222l0,27.778" style="fill:none;fill-rule:nonzero;stroke:#888;stroke-width:5.56px;"/></g><g><text x="780.556px" y="1125px" style="font-family:'ArialMT', 'Arial', sans-serif;font-size:111.111px;">0</text><text x="1382.31px" y="1125px" style="font-family:'ArialMT', 'Arial', sans-serif;font-size:111.111px;">100</text><text x="2076.75px" y="1125px" style="font-family:'ArialMT', 'Arial', sans-serif;font-size:111.111px;">200</text><text x="2771.2px" y="1125px" style="font-family:'ArialMT', 'Arial', sans-serif;font-size:111.111px;">300</text><text x="3465.64px" y="1125px" style="font-family:'ArialMT', 'Arial', sans-serif;font-size:111.111px;">400</text><text x="4160.09px" y="1125px" style="font-family:'ArialMT', 'Arial', sans-serif;font-size:111.111px;">500</text><text x="4854.53px" y="1125px" style="font-family:'ArialMT', 'Arial', sans-serif;font-size:111.111px;">600</text><text x="5548.98px" y="1125px" style="font-family:'ArialMT', 'Arial', sans-serif;font-size:111.111px;">700</text><text x="6150.73px" y="1125px" style="font-family:'ArialMT', 'Arial', sans-serif;font-size:111.111px;">800</text></g><g><path d="M780.556,997.222l5555.56,0" style="fill:none;fill-rule:nonzero;stroke:#888;stroke-width:5.56px;"/></g><g><text x="3137.27px" y="1219.44px" style="font-family:'Arial-BoldMT', 'Arial', sans-serif;font-weight:700;font-size:61.111px;">Number of Overlapping Sites</text></g></g></g></g><g><g><g><g><path d="M780.556,247.222l-27.778,0" style="fill:none;fill-rule:nonzero;stroke:#888;stroke-width:5.56px;"/><path d="M780.556,413.889l-27.778,-0" style="fill:none;fill-rule:nonzero;stroke:#888;stroke-width:5.56px;"/><path d="M780.556,580.556l-27.778,-0" style="fill:none;fill-rule:nonzero;stroke:#888;stroke-width:5.56px;"/><path d="M780.556,747.222l-27.778,0" style="fill:none;fill-rule:nonzero;stroke:#888;stroke-width:5.56px;"/><path d="M780.556,913.889l-27.778,-0" style="fill:none;fill-rule:nonzero;stroke:#888;stroke-width:5.56px;"/></g><g><text x="309.429px" y="277.778px" style="font-family:'ArialMT', 'Arial', sans-serif;font-size:111.111px;">B.Cortex</text><text x="173.524px" y="444.444px" style="font-family:'ArialMT', 'Arial', sans-serif;font-size:111.111px;">Cerebellum</text><text x="31.434px" y="611.111px" style="font-family:'ArialMT', 'Arial', sans-serif;font-size:111.111px;">Hypothalamus</text><text x="352.561px" y="777.778px" style="font-family:'ArialMT', 'Arial', sans-serif;font-size:111.111px;">Medulla</text><text x="309.429px" y="944.444px" style="font-family:'ArialMT', 'Arial', sans-serif;font-size:111.111px;">S.Cortex</text></g><g><path d="M780.556,163.889l-0,833.333" style="fill:none;fill-rule:nonzero;stroke:#888;stroke-width:5.56px;"/></g></g></g></g><g><rect x="5986.11" y="169.444" width="159.722" height="150" style="fill:#3b4cc0;fill-rule:nonzero;"/><rect x="4736.11" y="169.444" width="1250" height="150" style="fill:#8db0fe;fill-rule:nonzero;"/><rect x="3388.89" y="169.444" width="1347.22" height="150" style="fill:#ddd;fill-rule:nonzero;"/><rect x="2215.28" y="169.444" width="1173.61" height="150" style="fill:#f49a7b;fill-rule:nonzero;"/><rect x="777.778" y="169.444" width="1437.5" height="150" style="fill:#b40426;fill-rule:nonzero;"/><rect x="4500" y="336.111" width="1250" height="150" style="fill:#3b4cc0;fill-rule:nonzero;"/><rect x="4375" y="336.111" width="125" height="150" style="fill:#8db0fe;fill-rule:nonzero;"/><rect x="3125" y="336.111" width="1250" height="150" style="fill:#ddd;fill-rule:nonzero;"/><rect x="2020.83" y="336.111" width="1104.17" height="150" style="fill:#f49a7b;fill-rule:nonzero;"/><rect x="777.778" y="336.111" width="1243.06" height="150" style="fill:#b40426;fill-rule:nonzero;"/><rect x="4916.67" y="502.778" width="1347.22" height="150" style="fill:#3b4cc0;fill-rule:nonzero;"/><rect x="3666.67" y="502.778" width="1250" height="150" style="fill:#8db0fe;fill-rule:nonzero;"/><rect x="3493.06" y="502.778" width="173.611" height="150" style="fill:#ddd;fill-rule:nonzero;"/><rect x="2194.44" y="502.778" width="1298.61" height="150" style="fill:#f49a7b;fill-rule:nonzero;"/><rect x="777.778" y="502.778" width="1416.67" height="150" style="fill:#b40426;fill-rule:nonzero;"/><rect x="4534.72" y="669.444" width="1173.61" height="150" style="fill:#3b4cc0;fill-rule:nonzero;"/><rect x="3430.56" y="669.444" width="1104.17" height="150" style="fill:#8db0fe;fill-rule:nonzero;"/><rect x="2131.94" y="669.444" width="1298.61" height="150" style="fill:#ddd;fill-rule:nonzero;"/><rect x="1993.06" y="669.444" width="138.889" height="150" style="fill:#f49a7b;fill-rule:nonzero;"/><rect x="777.778" y="669.444" width="1215.28" height="150" style="fill:#b40426;fill-rule:nonzero;"/><rect x="4722.22" y="836.111" width="1437.5" height="150" style="fill:#3b4cc0;fill-rule:nonzero;"/><rect x="3479.17" y="836.111" width="1243.06" height="150" style="fill:#8db0fe;fill-rule:nonzero;"/><rect x="2062.5" y="836.111" width="1416.67" height="150" style="fill:#ddd;fill-rule:nonzero;"/><rect x="847.222" y="836.111" width="1215.28" height="150" style="fill:#f49a7b;fill-rule:nonzero;"/><rect x="777.778" y="836.111" width="69.444" height="150" style="fill:#b40426;fill-rule:nonzero;"/></g><g><text x="6014.16px" y="272.222px" style="font-family:'ArialMT', 'Arial', sans-serif;font-size:94.444px;">23</text><text x="5772.98px" y="272.222px" style="font-family:'ArialMT', 'Arial', sans-serif;font-size:94.444px;">180</text><text x="4522.98px" y="272.222px" style="font-family:'ArialMT', 'Arial', sans-serif;font-size:94.444px;">194</text><text x="3175.76px" y="272.222px" style="font-family:'ArialMT', 'Arial', sans-serif;font-size:94.444px;">169</text><text x="2002.15px" y="272.222px" style="font-family:'ArialMT', 'Arial', sans-serif;font-size:94.444px;">207</text><text x="5536.87px" y="438.889px" style="font-family:'ArialMT', 'Arial', sans-serif;font-size:94.444px;">180</text><text x="4381.91px" y="438.889px" style="font-family:'ArialMT', 'Arial', sans-serif;font-size:94.444px;">18</text><text x="4161.87px" y="438.889px" style="font-family:'ArialMT', 'Arial', sans-serif;font-size:94.444px;">180</text><text x="2911.87px" y="438.889px" style="font-family:'ArialMT', 'Arial', sans-serif;font-size:94.444px;">159</text><text x="1807.7px" y="438.889px" style="font-family:'ArialMT', 'Arial', sans-serif;font-size:94.444px;">179</text><text x="6050.76px" y="605.556px" style="font-family:'ArialMT', 'Arial', sans-serif;font-size:94.444px;">194</text><text x="4703.53px" y="605.556px" style="font-family:'ArialMT', 'Arial', sans-serif;font-size:94.444px;">180</text><text x="3520.16px" y="605.556px" style="font-family:'ArialMT', 'Arial', sans-serif;font-size:94.444px;">25</text><text x="3279.92px" y="605.556px" style="font-family:'ArialMT', 'Arial', sans-serif;font-size:94.444px;">187</text><text x="1981.31px" y="605.556px" style="font-family:'ArialMT', 'Arial', sans-serif;font-size:94.444px;">204</text><text x="5495.2px" y="772.222px" style="font-family:'ArialMT', 'Arial', sans-serif;font-size:94.444px;">169</text><text x="4321.59px" y="772.222px" style="font-family:'ArialMT', 'Arial', sans-serif;font-size:94.444px;">159</text><text x="3217.42px" y="772.222px" style="font-family:'ArialMT', 'Arial', sans-serif;font-size:94.444px;">187</text><text x="2010.81px" y="772.222px" style="font-family:'ArialMT', 'Arial', sans-serif;font-size:94.444px;">20</text><text x="1779.92px" y="772.222px" style="font-family:'ArialMT', 'Arial', sans-serif;font-size:94.444px;">175</text><text x="5946.59px" y="938.889px" style="font-family:'ArialMT', 'Arial', sans-serif;font-size:94.444px;">207</text><text x="4509.09px" y="938.889px" style="font-family:'ArialMT', 'Arial', sans-serif;font-size:94.444px;">179</text><text x="3266.03px" y="938.889px" style="font-family:'ArialMT', 'Arial', sans-serif;font-size:94.444px;">204</text><text x="1849.37px" y="938.889px" style="font-family:'ArialMT', 'Arial', sans-serif;font-size:94.444px;">175</text><text x="791.815px" y="938.889px" style="font-family:'ArialMT', 'Arial', sans-serif;font-size:94.444px;">10</text></g><g><g><rect x="6433.33" y="161.111" width="683.333" height="438.889" style="fill:none;fill-rule:nonzero;"/><g><g><g><g><g><g><rect x="6433.33" y="250" width="681.744" height="61.111" style="fill:none;fill-rule:nonzero;"/><g><g><rect x="6438.89" y="255.556" width="55.556" height="55.556" style="fill:#3b4cc0;fill-rule:nonzero;"/></g><g><text x="6522.22px" y="300px" style="font-family:'ArialMT', 'Arial', sans-serif;font-size:55.556px;">Overlaps B.Cortex</text></g></g></g><g><rect x="6433.33" y="322.222" width="681.744" height="61.111" style="fill:none;fill-rule:nonzero;"/><g><g><rect x="6438.89" y="327.778" width="55.556" height="55.556" style="fill:#8db0fe;fill-rule:nonzero;"/></g><g><text x="6522.22px" y="372.222px" style="font-family:'ArialMT', 'Arial', sans-serif;font-size:55.556px;">Overlaps Cerebellum</text></g></g></g><g><rect x="6433.33" y="394.444" width="681.744" height="61.111" style="fill:none;fill-rule:nonzero;"/><g><g><rect x="6438.89" y="400" width="55.556" height="55.556" style="fill:#ddd;fill-rule:nonzero;"/></g><g><text x="6522.22px" y="444.444px" style="font-family:'ArialMT', 'Arial', sans-serif;font-size:55.556px;">Overlaps Hypothalamus</text></g></g></g><g><rect x="6433.33" y="466.667" width="681.744" height="61.111" style="fill:none;fill-rule:nonzero;"/><g><g><rect x="6438.89" y="472.222" width="55.556" height="55.556" style="fill:#f49a7b;fill-rule:nonzero;"/></g><g><text x="6522.22px" y="516.667px" style="font-family:'ArialMT', 'Arial', sans-serif;font-size:55.556px;">Overlaps Medulla</text></g></g></g><g><rect x="6433.33" y="538.889" width="681.744" height="61.111" style="fill:none;fill-rule:nonzero;"/><g><g><rect x="6438.89" y="544.444" width="55.556" height="55.556" style="fill:#b40426;fill-rule:nonzero;"/></g><g><text x="6522.22px" y="588.889px" style="font-family:'ArialMT', 'Arial', sans-serif;font-size:55.556px;">Overlaps S.Cortex</text></g></g></g></g></g></g></g><g><text x="6433.33px" y="211.111px" style="font-family:'Arial-BoldMT', 'Arial', sans-serif;font-weight:700;font-size:61.111px;">Compared T<tspan x="6788.75px 6805.73px " y="211.111px 211.111px ">is</tspan>sue</text></g></g></g></g><g><g><g><g><text x="2240.51px" y="116.667px" style="font-family:'Arial-BoldMT', 'Arial', sans-serif;font-weight:700;font-size:111.111px;">Shared Modiﬁcation Sites Between Brain Regions</text></g></g></g></g></g></g></g></svg>