<?xml version="1.0" encoding="UTF-8" standalone="no"?><!DOCTYPE svg PUBLIC "-//W3C//DTD SVG 1.1//EN" "http://www.w3.org/Graphics/SVG/1.1/DTD/svg11.dtd"><svg width="100%" height="100%" viewBox="0 0 7145 1256" version="1.1" xmlns="http://www.w3.org/2000/svg" xmlns:xlink="http://www.w3.org/1999/xlink" xml:space="preserve" xmlns:serif="http://www.serif.com/" style="fill-rule:evenodd;clip-rule:evenodd;"><rect x="0" y="0" width="7144.44" height="1255.56" style="fill:#fff;"/><g><g><rect x="780.556" y="163.889" width="5555.56" height="833.333" style="fill:none;fill-rule:nonzero;stroke:#ddd;stroke-width:5.56px;"/><g><g><g><g><g><path d="M780.556,997.222l-0,-833.333" style="fill:none;fill-rule:nonzero;stroke:#ddd;stroke-width:5.56px;"/><path d="M1397.22,997.222l0,-833.333" style="fill:none;fill-rule:nonzero;stroke:#ddd;stroke-width:5.56px;"/><path d="M2013.89,997.222l-0,-833.333" style="fill:none;fill-rule:nonzero;stroke:#ddd;stroke-width:5.56px;"/><path d="M2630.56,997.222l-0,-833.333" style="fill:none;fill-rule:nonzero;stroke:#ddd;stroke-width:5.56px;"/><path d="M3247.22,997.222l0,-833.333" style="fill:none;fill-rule:nonzero;stroke:#ddd;stroke-width:5.56px;"/><path d="M3869.44,997.222l0,-833.333" style="fill:none;fill-rule:nonzero;stroke:#ddd;stroke-width:5.56px;"/><path d="M4486.11,997.222l0,-833.333" style="fill:none;fill-rule:nonzero;stroke:#ddd;stroke-width:5.56px;"/><path d="M5102.78,997.222l-0,-833.333" style="fill:none;fill-rule:nonzero;stroke:#ddd;stroke-width:5.56px;"/><path d="M5719.44,997.222l0,-833.333" style="fill:none;fill-rule:nonzero;stroke:#ddd;stroke-width:5.56px;"/><path d="M6336.11,997.222l0,-833.333" style="fill:none;fill-rule:nonzero;stroke:#ddd;stroke-width:5.56px;"/></g></g></g></g><g><g><g><g><path d="M780.556,997.222l-0,27.778" style="fill:none;fill-rule:nonzero;stroke:#888;stroke-width:5.56px;"/><path d="M1397.22,997.222l0,27.778" style="fill:none;fill-rule:nonzero;stroke:#888;stroke-width:5.56px;"/><path d="M2013.89,997.222l-0,27.778" style="fill:none;fill-rule:nonzero;stroke:#888;stroke-width:5.56px;"/><path d="M2630.56,997.222l-0,27.778" style="fill:none;fill-rule:nonzero;stroke:#888;stroke-width:5.56px;"/><path d="M3247.22,997.222l0,27.778" style="fill:none;fill-rule:nonzero;stroke:#888;stroke-width:5.56px;"/><path d="M3869.44,997.222l0,27.778" style="fill:none;fill-rule:nonzero;stroke:#888;stroke-width:5.56px;"/><path d="M4486.11,997.222l0,27.778" style="fill:none;fill-rule:nonzero;stroke:#888;stroke-width:5.56px;"/><path d="M5102.78,997.222l-0,27.778" style="fill:none;fill-rule:nonzero;stroke:#888;stroke-width:5.56px;"/><path d="M5719.44,997.222l0,27.778" style="fill:none;fill-rule:nonzero;stroke:#888;stroke-width:5.56px;"/><path d="M6336.11,997.222l0,27.778" style="fill:none;fill-rule:nonzero;stroke:#888;stroke-width:5.56px;"/></g><g><text x="780.556px" y="1125px" style="font-family:'ArialMT', 'Arial', sans-serif;font-size:111.111px;">0</text><text x="1305.15px" y="1125px" style="font-family:'ArialMT', 'Arial', sans-serif;font-size:111.111px;">100</text><text x="1922.43px" y="1125px" style="font-family:'ArialMT', 'Arial', sans-serif;font-size:111.111px;">200</text><text x="2539.72px" y="1125px" style="font-family:'ArialMT', 'Arial', sans-serif;font-size:111.111px;">300</text><text x="3157px" y="1125px" style="font-family:'ArialMT', 'Arial', sans-serif;font-size:111.111px;">400</text><text x="3774.28px" y="1125px" style="font-family:'ArialMT', 'Arial', sans-serif;font-size:111.111px;">500</text><text x="4391.57px" y="1125px" style="font-family:'ArialMT', 'Arial', sans-serif;font-size:111.111px;">600</text><text x="5008.85px" y="1125px" style="font-family:'ArialMT', 'Arial', sans-serif;font-size:111.111px;">700</text><text x="5626.14px" y="1125px" style="font-family:'ArialMT', 'Arial', sans-serif;font-size:111.111px;">800</text><text x="6150.73px" y="1125px" style="font-family:'ArialMT', 'Arial', sans-serif;font-size:111.111px;">900</text></g><g><path d="M780.556,997.222l5555.56,0" style="fill:none;fill-rule:nonzero;stroke:#888;stroke-width:5.56px;"/></g><g><text x="3137.27px" y="1219.44px" style="font-family:'Arial-BoldMT', 'Arial', sans-serif;font-weight:700;font-size:61.111px;">Number of Overlapping Sites</text></g></g></g></g><g><g><g><g><path d="M780.556,247.222l-27.778,0" style="fill:none;fill-rule:nonzero;stroke:#888;stroke-width:5.56px;"/><path d="M780.556,413.889l-27.778,-0" style="fill:none;fill-rule:nonzero;stroke:#888;stroke-width:5.56px;"/><path d="M780.556,580.556l-27.778,-0" style="fill:none;fill-rule:nonzero;stroke:#888;stroke-width:5.56px;"/><path d="M780.556,747.222l-27.778,0" style="fill:none;fill-rule:nonzero;stroke:#888;stroke-width:5.56px;"/><path d="M780.556,913.889l-27.778,-0" style="fill:none;fill-rule:nonzero;stroke:#888;stroke-width:5.56px;"/></g><g><text x="309.429px" y="277.778px" style="font-family:'ArialMT', 'Arial', sans-serif;font-size:111.111px;">B.Cortex</text><text x="173.524px" y="444.444px" style="font-family:'ArialMT', 'Arial', sans-serif;font-size:111.111px;">Cerebellum</text><text x="31.434px" y="611.111px" style="font-family:'ArialMT', 'Arial', sans-serif;font-size:111.111px;">Hypothalamus</text><text x="352.561px" y="777.778px" style="font-family:'ArialMT', 'Arial', sans-serif;font-size:111.111px;">Medulla</text><text x="309.429px" y="944.444px" style="font-family:'ArialMT', 'Arial', sans-serif;font-size:111.111px;">S.Cortex</text></g><g><path d="M780.556,163.889l-0,833.333" style="fill:none;fill-rule:nonzero;stroke:#888;stroke-width:5.56px;"/></g></g></g></g><g><rect x="5895.06" y="169.444" width="135.802" height="150" style="fill:#3b4cc0;fill-rule:nonzero;"/><rect x="4691.36" y="169.444" width="1203.7" height="150" style="fill:#8db0fe;fill-rule:nonzero;"/><rect x="3327.16" y="169.444" width="1364.2" height="150" style="fill:#ddd;fill-rule:nonzero;"/><rect x="2135.8" y="169.444" width="1191.36" height="150" style="fill:#f49a7b;fill-rule:nonzero;"/><rect x="777.778" y="169.444" width="1358.03" height="150" style="fill:#b40426;fill-rule:nonzero;"/><rect x="4481.48" y="336.111" width="1240.74" height="150" style="fill:#3b4cc0;fill-rule:nonzero;"/><rect x="4401.23" y="336.111" width="80.247" height="150" style="fill:#8db0fe;fill-rule:nonzero;"/><rect x="3135.8" y="336.111" width="1265.43" height="150" style="fill:#ddd;fill-rule:nonzero;"/><rect x="2037.04" y="336.111" width="1098.77" height="150" style="fill:#f49a7b;fill-rule:nonzero;"/><rect x="777.778" y="336.111" width="1259.26" height="150" style="fill:#b40426;fill-rule:nonzero;"/><rect x="4728.4" y="502.778" width="1320.99" height="150" style="fill:#3b4cc0;fill-rule:nonzero;"/><rect x="3506.17" y="502.778" width="1222.22" height="150" style="fill:#8db0fe;fill-rule:nonzero;"/><rect x="3425.93" y="502.778" width="80.247" height="150" style="fill:#ddd;fill-rule:nonzero;"/><rect x="2160.49" y="502.778" width="1265.43" height="150" style="fill:#f49a7b;fill-rule:nonzero;"/><rect x="777.778" y="502.778" width="1382.72" height="150" style="fill:#b40426;fill-rule:nonzero;"/><rect x="4506.17" y="669.444" width="1179.01" height="150" style="fill:#3b4cc0;fill-rule:nonzero;"/><rect x="3382.72" y="669.444" width="1123.46" height="150" style="fill:#8db0fe;fill-rule:nonzero;"/><rect x="2067.9" y="669.444" width="1314.82" height="150" style="fill:#ddd;fill-rule:nonzero;"/><rect x="2012.35" y="669.444" width="55.556" height="150" style="fill:#f49a7b;fill-rule:nonzero;"/><rect x="777.778" y="669.444" width="1234.57" height="150" style="fill:#b40426;fill-rule:nonzero;"/><rect x="4703.7" y="836.111" width="1358.03" height="150" style="fill:#3b4cc0;fill-rule:nonzero;"/><rect x="3469.14" y="836.111" width="1234.57" height="150" style="fill:#8db0fe;fill-rule:nonzero;"/><rect x="2049.38" y="836.111" width="1419.75" height="150" style="fill:#ddd;fill-rule:nonzero;"/><rect x="796.296" y="836.111" width="1253.09" height="150" style="fill:#f49a7b;fill-rule:nonzero;"/><rect x="777.778" y="836.111" width="18.519" height="150" style="fill:#b40426;fill-rule:nonzero;"/></g><g><text x="5911.38px" y="277.778px" style="font-family:'ArialMT', 'Arial', sans-serif;font-size:94.444px;">22</text><text x="5677.39px" y="277.778px" style="font-family:'ArialMT', 'Arial', sans-serif;font-size:94.444px;">195</text><text x="4473.68px" y="277.778px" style="font-family:'ArialMT', 'Arial', sans-serif;font-size:94.444px;">221</text><text x="3109.48px" y="277.778px" style="font-family:'ArialMT', 'Arial', sans-serif;font-size:94.444px;">193</text><text x="1918.12px" y="277.778px" style="font-family:'ArialMT', 'Arial', sans-serif;font-size:94.444px;">220</text><text x="5504.55px" y="444.444px" style="font-family:'ArialMT', 'Arial', sans-serif;font-size:94.444px;">201</text><text x="4386.39px" y="444.444px" style="font-family:'ArialMT', 'Arial', sans-serif;font-size:94.444px;">13</text><text x="4183.56px" y="444.444px" style="font-family:'ArialMT', 'Arial', sans-serif;font-size:94.444px;">205</text><text x="2918.12px" y="444.444px" style="font-family:'ArialMT', 'Arial', sans-serif;font-size:94.444px;">178</text><text x="1819.36px" y="444.444px" style="font-family:'ArialMT', 'Arial', sans-serif;font-size:94.444px;">204</text><text x="5831.71px" y="611.111px" style="font-family:'ArialMT', 'Arial', sans-serif;font-size:94.444px;">214</text><text x="4510.72px" y="611.111px" style="font-family:'ArialMT', 'Arial', sans-serif;font-size:94.444px;">198</text><text x="3410.67px" y="611.111px" style="font-family:'ArialMT', 'Arial', sans-serif;font-size:94.444px;">13</text><text x="3208.25px" y="611.111px" style="font-family:'ArialMT', 'Arial', sans-serif;font-size:94.444px;">205</text><text x="1942.82px" y="611.111px" style="font-family:'ArialMT', 'Arial', sans-serif;font-size:94.444px;">224</text><text x="5467.51px" y="777.778px" style="font-family:'ArialMT', 'Arial', sans-serif;font-size:94.444px;">191</text><text x="4288.5px" y="777.778px" style="font-family:'ArialMT', 'Arial', sans-serif;font-size:94.444px;">182</text><text x="3165.04px" y="777.778px" style="font-family:'ArialMT', 'Arial', sans-serif;font-size:94.444px;">213</text><text x="2013.08px" y="777.778px" style="font-family:'ArialMT', 'Arial', sans-serif;font-size:94.444px;">9</text><text x="1794.67px" y="777.778px" style="font-family:'ArialMT', 'Arial', sans-serif;font-size:94.444px;">200</text><text x="5844.05px" y="944.444px" style="font-family:'ArialMT', 'Arial', sans-serif;font-size:94.444px;">220</text><text x="4486.03px" y="944.444px" style="font-family:'ArialMT', 'Arial', sans-serif;font-size:94.444px;">200</text><text x="3251.46px" y="944.444px" style="font-family:'ArialMT', 'Arial', sans-serif;font-size:94.444px;">230</text><text x="1831.71px" y="944.444px" style="font-family:'ArialMT', 'Arial', sans-serif;font-size:94.444px;">203</text><text x="773.966px" y="944.444px" style="font-family:'ArialMT', 'Arial', sans-serif;font-size:94.444px;">3</text></g><g><g><rect x="6433.33" y="161.111" width="683.333" height="438.889" style="fill:none;fill-rule:nonzero;"/><g><g><g><g><g><g><rect x="6433.33" y="250" width="681.744" height="61.111" style="fill:none;fill-rule:nonzero;"/><g><g><rect x="6438.89" y="255.556" width="55.556" height="55.556" style="fill:#3b4cc0;fill-rule:nonzero;"/></g><g><text x="6522.22px" y="300px" style="font-family:'ArialMT', 'Arial', sans-serif;font-size:55.556px;">Overlaps B.Cortex</text></g></g></g><g><rect x="6433.33" y="322.222" width="681.744" height="61.111" style="fill:none;fill-rule:nonzero;"/><g><g><rect x="6438.89" y="327.778" width="55.556" height="55.556" style="fill:#8db0fe;fill-rule:nonzero;"/></g><g><text x="6522.22px" y="372.222px" style="font-family:'ArialMT', 'Arial', sans-serif;font-size:55.556px;">Overlaps Cerebellum</text></g></g></g><g><rect x="6433.33" y="394.444" width="681.744" height="61.111" style="fill:none;fill-rule:nonzero;"/><g><g><rect x="6438.89" y="400" width="55.556" height="55.556" style="fill:#ddd;fill-rule:nonzero;"/></g><g><text x="6522.22px" y="444.444px" style="font-family:'ArialMT', 'Arial', sans-serif;font-size:55.556px;">Overlaps Hypothalamus</text></g></g></g><g><rect x="6433.33" y="466.667" width="681.744" height="61.111" style="fill:none;fill-rule:nonzero;"/><g><g><rect x="6438.89" y="472.222" width="55.556" height="55.556" style="fill:#f49a7b;fill-rule:nonzero;"/></g><g><text x="6522.22px" y="516.667px" style="font-family:'ArialMT', 'Arial', sans-serif;font-size:55.556px;">Overlaps Medulla</text></g></g></g><g><rect x="6433.33" y="538.889" width="681.744" height="61.111" style="fill:none;fill-rule:nonzero;"/><g><g><rect x="6438.89" y="544.444" width="55.556" height="55.556" style="fill:#b40426;fill-rule:nonzero;"/></g><g><text x="6522.22px" y="588.889px" style="font-family:'ArialMT', 'Arial', sans-serif;font-size:55.556px;">Overlaps S.Cortex</text></g></g></g></g></g></g></g><g><text x="6433.33px" y="211.111px" style="font-family:'Arial-BoldMT', 'Arial', sans-serif;font-weight:700;font-size:61.111px;">Compared T<tspan x="6788.75px 6805.73px " y="211.111px 211.111px ">is</tspan>sue</text></g></g></g></g><g><g><g><g><text x="2240.51px" y="116.667px" style="font-family:'Arial-BoldMT', 'Arial', sans-serif;font-weight:700;font-size:111.111px;">Shared Modiﬁcation Sites Between Brain Regions</text></g></g></g></g></g></g></g></svg>