<?xml version="1.0" encoding="UTF-8" standalone="no"?><!DOCTYPE svg PUBLIC "-//W3C//DTD SVG 1.1//EN" "http://www.w3.org/Graphics/SVG/1.1/DTD/svg11.dtd"><svg width="100%" height="100%" viewBox="0 0 6789 1256" version="1.1" xmlns="http://www.w3.org/2000/svg" xmlns:xlink="http://www.w3.org/1999/xlink" xml:space="preserve" xmlns:serif="http://www.serif.com/" style="fill-rule:evenodd;clip-rule:evenodd;"><rect x="0" y="0" width="6788.89" height="1255.56" style="fill:#fff;"/><rect x="541.667" y="163.889" width="5555.56" height="833.333" style="fill:none;fill-rule:nonzero;stroke:#ddd;stroke-width:5.56px;"/><g><g><g><path d="M541.667,997.222l-0,-833.333" style="fill:none;fill-rule:nonzero;stroke:#ddd;stroke-width:5.56px;"/><path d="M1002.78,997.222l-0,-833.333" style="fill:none;fill-rule:nonzero;stroke:#ddd;stroke-width:5.56px;"/><path d="M1469.44,997.222l0,-833.333" style="fill:none;fill-rule:nonzero;stroke:#ddd;stroke-width:5.56px;"/><path d="M1930.56,997.222l-0,-833.333" style="fill:none;fill-rule:nonzero;stroke:#ddd;stroke-width:5.56px;"/><path d="M2391.67,997.222l-0,-833.333" style="fill:none;fill-rule:nonzero;stroke:#ddd;stroke-width:5.56px;"/><path d="M2858.33,997.222l0,-833.333" style="fill:none;fill-rule:nonzero;stroke:#ddd;stroke-width:5.56px;"/><path d="M3319.44,997.222l0,-833.333" style="fill:none;fill-rule:nonzero;stroke:#ddd;stroke-width:5.56px;"/><path d="M3780.56,997.222l-0,-833.333" style="fill:none;fill-rule:nonzero;stroke:#ddd;stroke-width:5.56px;"/><path d="M4247.22,997.222l0,-833.333" style="fill:none;fill-rule:nonzero;stroke:#ddd;stroke-width:5.56px;"/><path d="M4708.33,997.222l0,-833.333" style="fill:none;fill-rule:nonzero;stroke:#ddd;stroke-width:5.56px;"/><path d="M5169.44,997.222l0,-833.333" style="fill:none;fill-rule:nonzero;stroke:#ddd;stroke-width:5.56px;"/><path d="M5636.11,997.222l0,-833.333" style="fill:none;fill-rule:nonzero;stroke:#ddd;stroke-width:5.56px;"/><path d="M6097.22,997.222l0,-833.333" style="fill:none;fill-rule:nonzero;stroke:#ddd;stroke-width:5.56px;"/></g></g></g><g><g><g><path d="M541.667,997.222l-0,27.778" style="fill:none;fill-rule:nonzero;stroke:#888;stroke-width:5.56px;"/><path d="M1002.78,997.222l-0,27.778" style="fill:none;fill-rule:nonzero;stroke:#888;stroke-width:5.56px;"/><path d="M1469.44,997.222l0,27.778" style="fill:none;fill-rule:nonzero;stroke:#888;stroke-width:5.56px;"/><path d="M1930.56,997.222l-0,27.778" style="fill:none;fill-rule:nonzero;stroke:#888;stroke-width:5.56px;"/><path d="M2391.67,997.222l-0,27.778" style="fill:none;fill-rule:nonzero;stroke:#888;stroke-width:5.56px;"/><path d="M2858.33,997.222l0,27.778" style="fill:none;fill-rule:nonzero;stroke:#888;stroke-width:5.56px;"/><path d="M3319.44,997.222l0,27.778" style="fill:none;fill-rule:nonzero;stroke:#888;stroke-width:5.56px;"/><path d="M3780.56,997.222l-0,27.778" style="fill:none;fill-rule:nonzero;stroke:#888;stroke-width:5.56px;"/><path d="M4247.22,997.222l0,27.778" style="fill:none;fill-rule:nonzero;stroke:#888;stroke-width:5.56px;"/><path d="M4708.33,997.222l0,27.778" style="fill:none;fill-rule:nonzero;stroke:#888;stroke-width:5.56px;"/><path d="M5169.44,997.222l0,27.778" style="fill:none;fill-rule:nonzero;stroke:#888;stroke-width:5.56px;"/><path d="M5636.11,997.222l0,27.778" style="fill:none;fill-rule:nonzero;stroke:#888;stroke-width:5.56px;"/><path d="M6097.22,997.222l0,27.778" style="fill:none;fill-rule:nonzero;stroke:#888;stroke-width:5.56px;"/></g><g><text x="541.667px" y="1125px" style="font-family:'ArialMT', 'Arial', sans-serif;font-size:111.111px;">0</text><text x="942.835px" y="1125px" style="font-family:'ArialMT', 'Arial', sans-serif;font-size:111.111px;">20</text><text x="1405.8px" y="1125px" style="font-family:'ArialMT', 'Arial', sans-serif;font-size:111.111px;">40</text><text x="1868.76px" y="1125px" style="font-family:'ArialMT', 'Arial', sans-serif;font-size:111.111px;">60</text><text x="2331.72px" y="1125px" style="font-family:'ArialMT', 'Arial', sans-serif;font-size:111.111px;">80</text><text x="2763.79px" y="1125px" style="font-family:'ArialMT', 'Arial', sans-serif;font-size:111.111px;">100</text><text x="3226.75px" y="1125px" style="font-family:'ArialMT', 'Arial', sans-serif;font-size:111.111px;">120</text><text x="3689.72px" y="1125px" style="font-family:'ArialMT', 'Arial', sans-serif;font-size:111.111px;">140</text><text x="4152.68px" y="1125px" style="font-family:'ArialMT', 'Arial', sans-serif;font-size:111.111px;">160</text><text x="4615.64px" y="1125px" style="font-family:'ArialMT', 'Arial', sans-serif;font-size:111.111px;">180</text><text x="5078.6px" y="1125px" style="font-family:'ArialMT', 'Arial', sans-serif;font-size:111.111px;">200</text><text x="5541.57px" y="1125px" style="font-family:'ArialMT', 'Arial', sans-serif;font-size:111.111px;">220</text><text x="5911.84px" y="1125px" style="font-family:'ArialMT', 'Arial', sans-serif;font-size:111.111px;">240</text></g><g><path d="M541.667,997.222l5555.56,0" style="fill:none;fill-rule:nonzero;stroke:#888;stroke-width:5.56px;"/></g><g><text x="2898.38px" y="1219.44px" style="font-family:'Arial-BoldMT', 'Arial', sans-serif;font-weight:700;font-size:61.111px;">Number of Overlapping Sites</text></g></g></g><g><g><g><path d="M541.667,230.556l-27.778,-0" style="fill:none;fill-rule:nonzero;stroke:#888;stroke-width:5.56px;"/><path d="M541.667,369.444l-27.778,0" style="fill:none;fill-rule:nonzero;stroke:#888;stroke-width:5.56px;"/><path d="M541.667,508.333l-27.778,0" style="fill:none;fill-rule:nonzero;stroke:#888;stroke-width:5.56px;"/><path d="M541.667,647.222l-27.778,0" style="fill:none;fill-rule:nonzero;stroke:#888;stroke-width:5.56px;"/><path d="M541.667,786.111l-27.778,0" style="fill:none;fill-rule:nonzero;stroke:#888;stroke-width:5.56px;"/><path d="M541.667,925l-27.778,0" style="fill:none;fill-rule:nonzero;stroke:#888;stroke-width:5.56px;"/></g><g><text x="231.076px" y="263.889px" style="font-family:'ArialMT', 'Arial', sans-serif;font-size:111.111px;">Heart</text><text x="163.043px" y="402.778px" style="font-family:'ArialMT', 'Arial', sans-serif;font-size:111.111px;">Kidney</text><text x="261.947px" y="541.667px" style="font-family:'ArialMT', 'Arial', sans-serif;font-size:111.111px;">Liver</text><text x="255.599px" y="680.556px" style="font-family:'ArialMT', 'Arial', sans-serif;font-size:111.111px;">Lung</text><text x="33.377px" y="819.444px" style="font-family:'ArialMT', 'Arial', sans-serif;font-size:111.111px;">Pancreas</text><text x="156.803px" y="958.333px" style="font-family:'ArialMT', 'Arial', sans-serif;font-size:111.111px;">Spleen</text></g><g><path d="M541.667,163.889l-0,833.333" style="fill:none;fill-rule:nonzero;stroke:#888;stroke-width:5.56px;"/></g></g></g><rect x="2205.56" y="445.833" width="879.63" height="125" style="fill:#c0d4f5;fill-rule:nonzero;"/><rect x="4150" y="445.833" width="625" height="125" style="fill:#3b4cc0;fill-rule:nonzero;"/><rect x="1603.7" y="445.833" width="601.852" height="125" style="fill:#f2cbb7;fill-rule:nonzero;"/><rect x="3085.18" y="445.833" width="1064.82" height="125" style="fill:#7b9ff9;fill-rule:nonzero;"/><rect x="1001.85" y="445.833" width="601.852" height="125" style="fill:#ee8468;fill-rule:nonzero;"/><rect x="538.889" y="445.833" width="462.963" height="125" style="fill:#b40426;fill-rule:nonzero;"/><rect x="2298.15" y="168.056" width="625" height="125" style="fill:#c0d4f5;fill-rule:nonzero;"/><rect x="4011.11" y="168.056" width="1759.26" height="125" style="fill:#3b4cc0;fill-rule:nonzero;"/><rect x="1534.26" y="168.056" width="763.889" height="125" style="fill:#f2cbb7;fill-rule:nonzero;"/><rect x="2923.15" y="168.056" width="1087.96" height="125" style="fill:#7b9ff9;fill-rule:nonzero;"/><rect x="1094.44" y="168.056" width="439.815" height="125" style="fill:#ee8468;fill-rule:nonzero;"/><rect x="538.889" y="168.056" width="555.556" height="125" style="fill:#b40426;fill-rule:nonzero;"/><rect x="2714.82" y="584.722" width="601.852" height="125" style="fill:#c0d4f5;fill-rule:nonzero;"/><rect x="3918.52" y="584.722" width="763.889" height="125" style="fill:#3b4cc0;fill-rule:nonzero;"/><rect x="1904.63" y="584.722" width="810.185" height="125" style="fill:#f2cbb7;fill-rule:nonzero;"/><rect x="3316.67" y="584.722" width="601.852" height="125" style="fill:#7b9ff9;fill-rule:nonzero;"/><rect x="1395.37" y="584.722" width="509.259" height="125" style="fill:#ee8468;fill-rule:nonzero;"/><rect x="538.889" y="584.722" width="856.481" height="125" style="fill:#b40426;fill-rule:nonzero;"/><rect x="2228.7" y="306.944" width="1064.82" height="125" style="fill:#c0d4f5;fill-rule:nonzero;"/><rect x="3779.63" y="306.944" width="1087.96" height="125" style="fill:#3b4cc0;fill-rule:nonzero;"/><rect x="1626.85" y="306.944" width="601.852" height="125" style="fill:#f2cbb7;fill-rule:nonzero;"/><rect x="3293.52" y="306.944" width="486.111" height="125" style="fill:#7b9ff9;fill-rule:nonzero;"/><rect x="1094.44" y="306.944" width="532.407" height="125" style="fill:#ee8468;fill-rule:nonzero;"/><rect x="538.889" y="306.944" width="555.556" height="125" style="fill:#b40426;fill-rule:nonzero;"/><rect x="4450.93" y="723.611" width="601.852" height="125" style="fill:#c0d4f5;fill-rule:nonzero;"/><rect x="5585.19" y="723.611" width="439.815" height="125" style="fill:#3b4cc0;fill-rule:nonzero;"/><rect x="3941.67" y="723.611" width="509.259" height="125" style="fill:#7b9ff9;fill-rule:nonzero;"/><rect x="5052.78" y="723.611" width="532.407" height="125" style="fill:#f2cbb7;fill-rule:nonzero;"/><rect x="1349.07" y="723.611" width="2592.59" height="125" style="fill:#ee8468;fill-rule:nonzero;"/><rect x="538.889" y="723.611" width="810.185" height="125" style="fill:#b40426;fill-rule:nonzero;"/><rect x="2529.63" y="862.5" width="462.963" height="125" style="fill:#c0d4f5;fill-rule:nonzero;"/><rect x="3548.15" y="862.5" width="555.556" height="125" style="fill:#3b4cc0;fill-rule:nonzero;"/><rect x="1673.15" y="862.5" width="856.481" height="125" style="fill:#f2cbb7;fill-rule:nonzero;"/><rect x="2992.59" y="862.5" width="555.556" height="125" style="fill:#7b9ff9;fill-rule:nonzero;"/><rect x="862.963" y="862.5" width="810.185" height="125" style="fill:#ee8468;fill-rule:nonzero;"/><rect x="538.889" y="862.5" width="324.074" height="125" style="fill:#b40426;fill-rule:nonzero;"/><text x="2924.58px" y="536.111px" style="font-family:'ArialMT', 'Arial', sans-serif;font-size:94.444px;">38</text><text x="4614.39px" y="536.111px" style="font-family:'ArialMT', 'Arial', sans-serif;font-size:94.444px;">27</text><text x="2044.95px" y="536.111px" style="font-family:'ArialMT', 'Arial', sans-serif;font-size:94.444px;">26</text><text x="3989.39px" y="536.111px" style="font-family:'ArialMT', 'Arial', sans-serif;font-size:94.444px;">46</text><text x="1443.1px" y="536.111px" style="font-family:'ArialMT', 'Arial', sans-serif;font-size:94.444px;">26</text><text x="841.245px" y="536.111px" style="font-family:'ArialMT', 'Arial', sans-serif;font-size:94.444px;">20</text><text x="2762.54px" y="258.333px" style="font-family:'ArialMT', 'Arial', sans-serif;font-size:94.444px;">27</text><text x="5609.76px" y="258.333px" style="font-family:'ArialMT', 'Arial', sans-serif;font-size:94.444px;">76</text><text x="2137.54px" y="258.333px" style="font-family:'ArialMT', 'Arial', sans-serif;font-size:94.444px;">33</text><text x="3850.51px" y="258.333px" style="font-family:'ArialMT', 'Arial', sans-serif;font-size:94.444px;">47</text><text x="1373.65px" y="258.333px" style="font-family:'ArialMT', 'Arial', sans-serif;font-size:94.444px;">19</text><text x="933.838px" y="258.333px" style="font-family:'ArialMT', 'Arial', sans-serif;font-size:94.444px;">24</text><text x="3156.06px" y="675px" style="font-family:'ArialMT', 'Arial', sans-serif;font-size:94.444px;">26</text><text x="4521.8px" y="675px" style="font-family:'ArialMT', 'Arial', sans-serif;font-size:94.444px;">33</text><text x="2554.21px" y="675px" style="font-family:'ArialMT', 'Arial', sans-serif;font-size:94.444px;">35</text><text x="3757.91px" y="675px" style="font-family:'ArialMT', 'Arial', sans-serif;font-size:94.444px;">26</text><text x="1744.02px" y="675px" style="font-family:'ArialMT', 'Arial', sans-serif;font-size:94.444px;">22</text><text x="1234.76px" y="675px" style="font-family:'ArialMT', 'Arial', sans-serif;font-size:94.444px;">37</text><text x="3132.91px" y="397.222px" style="font-family:'ArialMT', 'Arial', sans-serif;font-size:94.444px;">46</text><text x="4706.99px" y="397.222px" style="font-family:'ArialMT', 'Arial', sans-serif;font-size:94.444px;">47</text><text x="2068.1px" y="397.222px" style="font-family:'ArialMT', 'Arial', sans-serif;font-size:94.444px;">26</text><text x="3619.02px" y="397.222px" style="font-family:'ArialMT', 'Arial', sans-serif;font-size:94.444px;">21</text><text x="1466.25px" y="397.222px" style="font-family:'ArialMT', 'Arial', sans-serif;font-size:94.444px;">23</text><text x="933.838px" y="397.222px" style="font-family:'ArialMT', 'Arial', sans-serif;font-size:94.444px;">24</text><text x="4892.17px" y="813.889px" style="font-family:'ArialMT', 'Arial', sans-serif;font-size:94.444px;">26</text><text x="5864.39px" y="813.889px" style="font-family:'ArialMT', 'Arial', sans-serif;font-size:94.444px;">19</text><text x="4290.32px" y="813.889px" style="font-family:'ArialMT', 'Arial', sans-serif;font-size:94.444px;">22</text><text x="5424.58px" y="813.889px" style="font-family:'ArialMT', 'Arial', sans-serif;font-size:94.444px;">23</text><text x="3735.54px" y="813.889px" style="font-family:'ArialMT', 'Arial', sans-serif;font-size:94.444px;">1<tspan x="3781.06px 3833.59px " y="813.889px 813.889px ">12</tspan></text><text x="1188.47px" y="813.889px" style="font-family:'ArialMT', 'Arial', sans-serif;font-size:94.444px;">35</text><text x="2831.99px" y="952.778px" style="font-family:'ArialMT', 'Arial', sans-serif;font-size:94.444px;">20</text><text x="3943.1px" y="952.778px" style="font-family:'ArialMT', 'Arial', sans-serif;font-size:94.444px;">24</text><text x="2369.02px" y="952.778px" style="font-family:'ArialMT', 'Arial', sans-serif;font-size:94.444px;">37</text><text x="3387.54px" y="952.778px" style="font-family:'ArialMT', 'Arial', sans-serif;font-size:94.444px;">24</text><text x="1512.54px" y="952.778px" style="font-family:'ArialMT', 'Arial', sans-serif;font-size:94.444px;">35</text><text x="702.356px" y="952.778px" style="font-family:'ArialMT', 'Arial', sans-serif;font-size:94.444px;">14</text><rect x="6194.44" y="161.111" width="566.667" height="511.111" style="fill:none;fill-rule:nonzero;"/><g><rect x="6194.44" y="395.025" width="561.328" height="61.111" style="fill:none;fill-rule:nonzero;"/><g><g><rect x="6200" y="400.581" width="55.556" height="55.556" style="fill:#c0d4f5;fill-rule:nonzero;"/></g><g><text x="6283.33px" y="445.025px" style="font-family:'ArialMT', 'Arial', sans-serif;font-size:55.556px;">Overlaps Liver</text></g></g></g><g><rect x="6194.44" y="250" width="561.328" height="61.111" style="fill:none;fill-rule:nonzero;"/><g><g><rect x="6200" y="255.556" width="55.556" height="55.556" style="fill:#3b4cc0;fill-rule:nonzero;"/></g><g><text x="6283.33px" y="300px" style="font-family:'ArialMT', 'Arial', sans-serif;font-size:55.556px;">Overlaps Heart</text></g></g></g><g><rect x="6194.44" y="466.667" width="561.328" height="61.111" style="fill:none;fill-rule:nonzero;"/><g><g><rect x="6200" y="472.222" width="55.556" height="55.556" style="fill:#f2cbb7;fill-rule:nonzero;"/></g><g><text x="6283.33px" y="516.667px" style="font-family:'ArialMT', 'Arial', sans-serif;font-size:55.556px;">Overlaps Lung</text></g></g></g><g><rect x="6194.44" y="322.222" width="561.328" height="61.111" style="fill:none;fill-rule:nonzero;"/><g><g><rect x="6200" y="327.778" width="55.556" height="55.556" style="fill:#7b9ff9;fill-rule:nonzero;"/></g><g><text x="6283.33px" y="372.222px" style="font-family:'ArialMT', 'Arial', sans-serif;font-size:55.556px;">Overlaps Kidney</text></g></g></g><g><rect x="6194.44" y="538.889" width="561.328" height="61.111" style="fill:none;fill-rule:nonzero;"/><g><g><rect x="6200" y="544.444" width="55.556" height="55.556" style="fill:#ee8468;fill-rule:nonzero;"/></g><g><text x="6283.33px" y="588.889px" style="font-family:'ArialMT', 'Arial', sans-serif;font-size:55.556px;">Overlaps Pancreas</text></g></g></g><g><rect x="6194.44" y="611.111" width="561.328" height="61.111" style="fill:none;fill-rule:nonzero;"/><g><g><rect x="6200" y="616.667" width="55.556" height="55.556" style="fill:#b40426;fill-rule:nonzero;"/></g><g><text x="6283.33px" y="661.111px" style="font-family:'ArialMT', 'Arial', sans-serif;font-size:55.556px;">Overlaps Spleen</text></g></g></g><text x="6194.44px" y="211.111px" style="font-family:'Arial-BoldMT', 'Arial', sans-serif;font-weight:700;font-size:61.111px;">Compared T<tspan x="6549.86px 6566.84px " y="211.111px 211.111px ">is</tspan>sue</text><g><g><g><text x="2024.19px" y="116.667px" style="font-family:'Arial-BoldMT', 'Arial', sans-serif;font-weight:700;font-size:111.111px;">Shared Modiﬁcation Sites Between Organ T<tspan x="4325.02px 4355.89px " y="116.667px 116.667px ">is</tspan>sue</text></g></g></g></svg>