<?xml version="1.0" encoding="UTF-8" standalone="no"?><!DOCTYPE svg PUBLIC "-//W3C//DTD SVG 1.1//EN" "http://www.w3.org/Graphics/SVG/1.1/DTD/svg11.dtd"><svg width="100%" height="100%" viewBox="0 0 7145 1256" version="1.1" xmlns="http://www.w3.org/2000/svg" xmlns:xlink="http://www.w3.org/1999/xlink" xml:space="preserve" xmlns:serif="http://www.serif.com/" style="fill-rule:evenodd;clip-rule:evenodd;"><rect x="0" y="0" width="7144.44" height="1255.56" style="fill:#fff;"/><g><g><g><rect x="780.556" y="163.889" width="5555.56" height="833.333" style="fill:none;fill-rule:nonzero;stroke:#ddd;stroke-width:5.56px;"/><g><g><g><g><g><path d="M780.556,997.222l-0,-833.333" style="fill:none;fill-rule:nonzero;stroke:#ddd;stroke-width:5.56px;"/><path d="M1475,997.222l0,-833.333" style="fill:none;fill-rule:nonzero;stroke:#ddd;stroke-width:5.56px;"/><path d="M2169.44,997.222l0,-833.333" style="fill:none;fill-rule:nonzero;stroke:#ddd;stroke-width:5.56px;"/><path d="M2863.89,997.222l-0,-833.333" style="fill:none;fill-rule:nonzero;stroke:#ddd;stroke-width:5.56px;"/><path d="M3558.33,997.222l0,-833.333" style="fill:none;fill-rule:nonzero;stroke:#ddd;stroke-width:5.56px;"/><path d="M4252.78,997.222l-0,-833.333" style="fill:none;fill-rule:nonzero;stroke:#ddd;stroke-width:5.56px;"/><path d="M4947.22,997.222l0,-833.333" style="fill:none;fill-rule:nonzero;stroke:#ddd;stroke-width:5.56px;"/><path d="M5641.67,997.222l-0,-833.333" style="fill:none;fill-rule:nonzero;stroke:#ddd;stroke-width:5.56px;"/><path d="M6336.11,997.222l0,-833.333" style="fill:none;fill-rule:nonzero;stroke:#ddd;stroke-width:5.56px;"/></g></g></g></g><g><g><g><g><path d="M780.556,997.222l-0,27.778" style="fill:none;fill-rule:nonzero;stroke:#888;stroke-width:5.56px;"/><path d="M1475,997.222l0,27.778" style="fill:none;fill-rule:nonzero;stroke:#888;stroke-width:5.56px;"/><path d="M2169.44,997.222l0,27.778" style="fill:none;fill-rule:nonzero;stroke:#888;stroke-width:5.56px;"/><path d="M2863.89,997.222l-0,27.778" style="fill:none;fill-rule:nonzero;stroke:#888;stroke-width:5.56px;"/><path d="M3558.33,997.222l0,27.778" style="fill:none;fill-rule:nonzero;stroke:#888;stroke-width:5.56px;"/><path d="M4252.78,997.222l-0,27.778" style="fill:none;fill-rule:nonzero;stroke:#888;stroke-width:5.56px;"/><path d="M4947.22,997.222l0,27.778" style="fill:none;fill-rule:nonzero;stroke:#888;stroke-width:5.56px;"/><path d="M5641.67,997.222l-0,27.778" style="fill:none;fill-rule:nonzero;stroke:#888;stroke-width:5.56px;"/><path d="M6336.11,997.222l0,27.778" style="fill:none;fill-rule:nonzero;stroke:#888;stroke-width:5.56px;"/></g><g><text x="780.556px" y="1125px" style="font-family:'ArialMT', 'Arial', sans-serif;font-size:111.111px;">0</text><text x="1382.31px" y="1125px" style="font-family:'ArialMT', 'Arial', sans-serif;font-size:111.111px;">200</text><text x="2076.75px" y="1125px" style="font-family:'ArialMT', 'Arial', sans-serif;font-size:111.111px;">400</text><text x="2771.2px" y="1125px" style="font-family:'ArialMT', 'Arial', sans-serif;font-size:111.111px;">600</text><text x="3465.64px" y="1125px" style="font-family:'ArialMT', 'Arial', sans-serif;font-size:111.111px;">800</text><text x="4113.75px" y="1125px" style="font-family:'ArialMT', 'Arial', sans-serif;font-size:111.111px;">1,000</text><text x="4808.2px" y="1125px" style="font-family:'ArialMT', 'Arial', sans-serif;font-size:111.111px;">1,200</text><text x="5502.64px" y="1125px" style="font-family:'ArialMT', 'Arial', sans-serif;font-size:111.111px;">1,400</text><text x="6058.06px" y="1125px" style="font-family:'ArialMT', 'Arial', sans-serif;font-size:111.111px;">1,600</text></g><g><path d="M780.556,997.222l5555.56,0" style="fill:none;fill-rule:nonzero;stroke:#888;stroke-width:5.56px;"/></g><g><text x="3137.27px" y="1219.44px" style="font-family:'Arial-BoldMT', 'Arial', sans-serif;font-weight:700;font-size:61.111px;">Number of Overlapping Sites</text></g></g></g></g><g><g><g><g><path d="M780.556,247.222l-27.778,0" style="fill:none;fill-rule:nonzero;stroke:#888;stroke-width:5.56px;"/><path d="M780.556,413.889l-27.778,-0" style="fill:none;fill-rule:nonzero;stroke:#888;stroke-width:5.56px;"/><path d="M780.556,580.556l-27.778,-0" style="fill:none;fill-rule:nonzero;stroke:#888;stroke-width:5.56px;"/><path d="M780.556,747.222l-27.778,0" style="fill:none;fill-rule:nonzero;stroke:#888;stroke-width:5.56px;"/><path d="M780.556,913.889l-27.778,-0" style="fill:none;fill-rule:nonzero;stroke:#888;stroke-width:5.56px;"/></g><g><text x="364.985px" y="277.778px" style="font-family:'ArialMT', 'Arial', sans-serif;font-size:111.111px;">Bcortex</text><text x="173.524px" y="444.444px" style="font-family:'ArialMT', 'Arial', sans-serif;font-size:111.111px;">Cerebellum</text><text x="31.434px" y="611.111px" style="font-family:'ArialMT', 'Arial', sans-serif;font-size:111.111px;">Hypothalamus</text><text x="352.561px" y="777.778px" style="font-family:'ArialMT', 'Arial', sans-serif;font-size:111.111px;">Medulla</text><text x="364.985px" y="944.444px" style="font-family:'ArialMT', 'Arial', sans-serif;font-size:111.111px;">Scortex</text></g><g><path d="M780.556,163.889l-0,833.333" style="fill:none;fill-rule:nonzero;stroke:#888;stroke-width:5.56px;"/></g></g></g></g><g><rect x="5569.44" y="169.444" width="131.944" height="150" style="fill:#3b4cc0;fill-rule:nonzero;"/><rect x="4378.47" y="169.444" width="1190.97" height="150" style="fill:#8db0fe;fill-rule:nonzero;"/><rect x="3135.42" y="169.444" width="1243.06" height="150" style="fill:#ddd;fill-rule:nonzero;"/><rect x="2083.33" y="169.444" width="1052.08" height="150" style="fill:#f49a7b;fill-rule:nonzero;"/><rect x="777.778" y="169.444" width="1305.56" height="150" style="fill:#b40426;fill-rule:nonzero;"/><rect x="4222.22" y="336.111" width="1190.97" height="150" style="fill:#3b4cc0;fill-rule:nonzero;"/><rect x="4090.28" y="336.111" width="131.944" height="150" style="fill:#8db0fe;fill-rule:nonzero;"/><rect x="2934.03" y="336.111" width="1156.25" height="150" style="fill:#ddd;fill-rule:nonzero;"/><rect x="1930.56" y="336.111" width="1003.47" height="150" style="fill:#f49a7b;fill-rule:nonzero;"/><rect x="777.778" y="336.111" width="1152.78" height="150" style="fill:#b40426;fill-rule:nonzero;"/><rect x="4493.06" y="502.778" width="1243.06" height="150" style="fill:#3b4cc0;fill-rule:nonzero;"/><rect x="3336.81" y="502.778" width="1156.25" height="150" style="fill:#8db0fe;fill-rule:nonzero;"/><rect x="3201.39" y="502.778" width="135.417" height="150" style="fill:#ddd;fill-rule:nonzero;"/><rect x="2055.56" y="502.778" width="1145.83" height="150" style="fill:#f49a7b;fill-rule:nonzero;"/><rect x="777.778" y="502.778" width="1277.78" height="150" style="fill:#b40426;fill-rule:nonzero;"/><rect x="4114.58" y="669.444" width="1052.08" height="150" style="fill:#3b4cc0;fill-rule:nonzero;"/><rect x="3111.11" y="669.444" width="1003.47" height="150" style="fill:#8db0fe;fill-rule:nonzero;"/><rect x="1965.28" y="669.444" width="1145.83" height="150" style="fill:#ddd;fill-rule:nonzero;"/><rect x="1843.75" y="669.444" width="121.528" height="150" style="fill:#f49a7b;fill-rule:nonzero;"/><rect x="777.778" y="669.444" width="1065.97" height="150" style="fill:#b40426;fill-rule:nonzero;"/><rect x="4354.17" y="836.111" width="1305.56" height="150" style="fill:#3b4cc0;fill-rule:nonzero;"/><rect x="3201.39" y="836.111" width="1152.78" height="150" style="fill:#8db0fe;fill-rule:nonzero;"/><rect x="1923.61" y="836.111" width="1277.78" height="150" style="fill:#ddd;fill-rule:nonzero;"/><rect x="857.639" y="836.111" width="1065.97" height="150" style="fill:#f49a7b;fill-rule:nonzero;"/><rect x="777.778" y="836.111" width="79.861" height="150" style="fill:#b40426;fill-rule:nonzero;"/></g><g><text x="5589.91px" y="277.778px" style="font-family:'ArialMT', 'Arial', sans-serif;font-size:83.333px;fill:#fff;">38</text><text x="5361.04px" y="277.778px" style="font-family:'ArialMT', 'Arial', sans-serif;font-size:83.333px;">343</text><text x="4170.06px" y="277.778px" style="font-family:'ArialMT', 'Arial', sans-serif;font-size:83.333px;">358</text><text x="2927.01px" y="277.778px" style="font-family:'ArialMT', 'Arial', sans-serif;font-size:83.333px;">303</text><text x="1874.92px" y="277.778px" style="font-family:'ArialMT', 'Arial', sans-serif;font-size:83.333px;fill:#fff;">376</text><text x="5204.79px" y="444.444px" style="font-family:'ArialMT', 'Arial', sans-serif;font-size:83.333px;fill:#fff;">343</text><text x="4112.98px" y="444.444px" style="font-family:'ArialMT', 'Arial', sans-serif;font-size:83.333px;">38</text><text x="3881.87px" y="444.444px" style="font-family:'ArialMT', 'Arial', sans-serif;font-size:83.333px;">333</text><text x="2725.62px" y="444.444px" style="font-family:'ArialMT', 'Arial', sans-serif;font-size:83.333px;">289</text><text x="1722.15px" y="444.444px" style="font-family:'ArialMT', 'Arial', sans-serif;font-size:83.333px;fill:#fff;">332</text><text x="5527.7px" y="611.111px" style="font-family:'ArialMT', 'Arial', sans-serif;font-size:83.333px;fill:#fff;">358</text><text x="4284.65px" y="611.111px" style="font-family:'ArialMT', 'Arial', sans-serif;font-size:83.333px;">333</text><text x="3223.09px" y="611.111px" style="font-family:'ArialMT', 'Arial', sans-serif;font-size:83.333px;">39</text><text x="2992.98px" y="611.111px" style="font-family:'ArialMT', 'Arial', sans-serif;font-size:83.333px;">330</text><text x="1847.15px" y="611.111px" style="font-family:'ArialMT', 'Arial', sans-serif;font-size:83.333px;fill:#fff;">368</text><text x="4958.26px" y="777.778px" style="font-family:'ArialMT', 'Arial', sans-serif;font-size:83.333px;fill:#fff;">303</text><text x="3906.18px" y="777.778px" style="font-family:'ArialMT', 'Arial', sans-serif;font-size:83.333px;">289</text><text x="2902.7px" y="777.778px" style="font-family:'ArialMT', 'Arial', sans-serif;font-size:83.333px;">330</text><text x="1858.09px" y="777.778px" style="font-family:'ArialMT', 'Arial', sans-serif;font-size:83.333px;">35</text><text x="1635.34px" y="777.778px" style="font-family:'ArialMT', 'Arial', sans-serif;font-size:83.333px;fill:#fff;">307</text><text x="5451.31px" y="944.444px" style="font-family:'ArialMT', 'Arial', sans-serif;font-size:83.333px;fill:#fff;">376</text><text x="4145.76px" y="944.444px" style="font-family:'ArialMT', 'Arial', sans-serif;font-size:83.333px;">332</text><text x="2992.98px" y="944.444px" style="font-family:'ArialMT', 'Arial', sans-serif;font-size:83.333px;">368</text><text x="1715.2px" y="944.444px" style="font-family:'ArialMT', 'Arial', sans-serif;font-size:83.333px;">307</text><text x="782.549px" y="944.444px" style="font-family:'ArialMT', 'Arial', sans-serif;font-size:83.333px;fill:#fff;">23</text></g><g><g><rect x="6433.33" y="161.111" width="683.333" height="438.889" style="fill:none;fill-rule:nonzero;"/><g><g><g><g><g><g><rect x="6433.33" y="250" width="681.744" height="61.111" style="fill:none;fill-rule:nonzero;"/><g><g><rect x="6438.89" y="255.556" width="55.556" height="55.556" style="fill:#3b4cc0;fill-rule:nonzero;"/></g><g><text x="6522.22px" y="300px" style="font-family:'ArialMT', 'Arial', sans-serif;font-size:55.556px;">Overlaps Bcortex</text></g></g></g><g><rect x="6433.33" y="322.222" width="681.744" height="61.111" style="fill:none;fill-rule:nonzero;"/><g><g><rect x="6438.89" y="327.778" width="55.556" height="55.556" style="fill:#8db0fe;fill-rule:nonzero;"/></g><g><text x="6522.22px" y="372.222px" style="font-family:'ArialMT', 'Arial', sans-serif;font-size:55.556px;">Overlaps Cerebellum</text></g></g></g><g><rect x="6433.33" y="394.444" width="681.744" height="61.111" style="fill:none;fill-rule:nonzero;"/><g><g><rect x="6438.89" y="400" width="55.556" height="55.556" style="fill:#ddd;fill-rule:nonzero;"/></g><g><text x="6522.22px" y="444.444px" style="font-family:'ArialMT', 'Arial', sans-serif;font-size:55.556px;">Overlaps Hypothalamus</text></g></g></g><g><rect x="6433.33" y="466.667" width="681.744" height="61.111" style="fill:none;fill-rule:nonzero;"/><g><g><rect x="6438.89" y="472.222" width="55.556" height="55.556" style="fill:#f49a7b;fill-rule:nonzero;"/></g><g><text x="6522.22px" y="516.667px" style="font-family:'ArialMT', 'Arial', sans-serif;font-size:55.556px;">Overlaps Medulla</text></g></g></g><g><rect x="6433.33" y="538.889" width="681.744" height="61.111" style="fill:none;fill-rule:nonzero;"/><g><g><rect x="6438.89" y="544.444" width="55.556" height="55.556" style="fill:#b40426;fill-rule:nonzero;"/></g><g><text x="6522.22px" y="588.889px" style="font-family:'ArialMT', 'Arial', sans-serif;font-size:55.556px;">Overlaps Scortex</text></g></g></g></g></g></g></g><g><text x="6433.33px" y="211.111px" style="font-family:'Arial-BoldMT', 'Arial', sans-serif;font-weight:700;font-size:61.111px;">Compared T<tspan x="6788.75px 6805.73px " y="211.111px 211.111px ">is</tspan>sue</text></g></g></g></g><g><g><g><g><text x="2240.51px" y="116.667px" style="font-family:'Arial-BoldMT', 'Arial', sans-serif;font-weight:700;font-size:111.111px;">Shared Modiﬁcation Sites Between Brain Regions</text></g></g></g></g></g></g></g></g></svg>