<?xml version="1.0" encoding="UTF-8" standalone="no"?><!DOCTYPE svg PUBLIC "-//W3C//DTD SVG 1.1//EN" "http://www.w3.org/Graphics/SVG/1.1/DTD/svg11.dtd"><svg width="100%" height="100%" viewBox="0 0 6789 1256" version="1.1" xmlns="http://www.w3.org/2000/svg" xmlns:xlink="http://www.w3.org/1999/xlink" xml:space="preserve" xmlns:serif="http://www.serif.com/" style="fill-rule:evenodd;clip-rule:evenodd;"><rect x="0" y="0" width="6788.89" height="1255.56" style="fill:#fff;"/><g><g><g><rect x="541.667" y="163.889" width="5555.56" height="833.333" style="fill:none;fill-rule:nonzero;stroke:#ddd;stroke-width:5.56px;"/><g><g><g><g><g><path d="M541.667,997.222l-0,-833.333" style="fill:none;fill-rule:nonzero;stroke:#ddd;stroke-width:5.56px;"/><path d="M1158.33,997.222l0,-833.333" style="fill:none;fill-rule:nonzero;stroke:#ddd;stroke-width:5.56px;"/><path d="M1775,997.222l0,-833.333" style="fill:none;fill-rule:nonzero;stroke:#ddd;stroke-width:5.56px;"/><path d="M2391.67,997.222l-0,-833.333" style="fill:none;fill-rule:nonzero;stroke:#ddd;stroke-width:5.56px;"/><path d="M3008.33,997.222l0,-833.333" style="fill:none;fill-rule:nonzero;stroke:#ddd;stroke-width:5.56px;"/><path d="M3630.56,997.222l-0,-833.333" style="fill:none;fill-rule:nonzero;stroke:#ddd;stroke-width:5.56px;"/><path d="M4247.22,997.222l0,-833.333" style="fill:none;fill-rule:nonzero;stroke:#ddd;stroke-width:5.56px;"/><path d="M4863.89,997.222l-0,-833.333" style="fill:none;fill-rule:nonzero;stroke:#ddd;stroke-width:5.56px;"/><path d="M5480.56,997.222l-0,-833.333" style="fill:none;fill-rule:nonzero;stroke:#ddd;stroke-width:5.56px;"/><path d="M6097.22,997.222l0,-833.333" style="fill:none;fill-rule:nonzero;stroke:#ddd;stroke-width:5.56px;"/></g></g></g></g><g><g><g><g><path d="M541.667,997.222l-0,27.778" style="fill:none;fill-rule:nonzero;stroke:#888;stroke-width:5.56px;"/><path d="M1158.33,997.222l0,27.778" style="fill:none;fill-rule:nonzero;stroke:#888;stroke-width:5.56px;"/><path d="M1775,997.222l0,27.778" style="fill:none;fill-rule:nonzero;stroke:#888;stroke-width:5.56px;"/><path d="M2391.67,997.222l-0,27.778" style="fill:none;fill-rule:nonzero;stroke:#888;stroke-width:5.56px;"/><path d="M3008.33,997.222l0,27.778" style="fill:none;fill-rule:nonzero;stroke:#888;stroke-width:5.56px;"/><path d="M3630.56,997.222l-0,27.778" style="fill:none;fill-rule:nonzero;stroke:#888;stroke-width:5.56px;"/><path d="M4247.22,997.222l0,27.778" style="fill:none;fill-rule:nonzero;stroke:#888;stroke-width:5.56px;"/><path d="M4863.89,997.222l-0,27.778" style="fill:none;fill-rule:nonzero;stroke:#888;stroke-width:5.56px;"/><path d="M5480.56,997.222l-0,27.778" style="fill:none;fill-rule:nonzero;stroke:#888;stroke-width:5.56px;"/><path d="M6097.22,997.222l0,27.778" style="fill:none;fill-rule:nonzero;stroke:#888;stroke-width:5.56px;"/></g><g><text x="541.667px" y="1125px" style="font-family:'ArialMT', 'Arial', sans-serif;font-size:111.111px;">0</text><text x="1097.16px" y="1125px" style="font-family:'ArialMT', 'Arial', sans-serif;font-size:111.111px;">50</text><text x="1683.54px" y="1125px" style="font-family:'ArialMT', 'Arial', sans-serif;font-size:111.111px;">100</text><text x="2300.83px" y="1125px" style="font-family:'ArialMT', 'Arial', sans-serif;font-size:111.111px;">150</text><text x="2918.11px" y="1125px" style="font-family:'ArialMT', 'Arial', sans-serif;font-size:111.111px;">200</text><text x="3535.39px" y="1125px" style="font-family:'ArialMT', 'Arial', sans-serif;font-size:111.111px;">250</text><text x="4152.68px" y="1125px" style="font-family:'ArialMT', 'Arial', sans-serif;font-size:111.111px;">300</text><text x="4769.96px" y="1125px" style="font-family:'ArialMT', 'Arial', sans-serif;font-size:111.111px;">350</text><text x="5387.25px" y="1125px" style="font-family:'ArialMT', 'Arial', sans-serif;font-size:111.111px;">400</text><text x="5911.84px" y="1125px" style="font-family:'ArialMT', 'Arial', sans-serif;font-size:111.111px;">450</text></g><g><path d="M541.667,997.222l5555.56,0" style="fill:none;fill-rule:nonzero;stroke:#888;stroke-width:5.56px;"/></g><g><text x="2898.38px" y="1219.44px" style="font-family:'Arial-BoldMT', 'Arial', sans-serif;font-weight:700;font-size:61.111px;">Number of Overlapping Sites</text></g></g></g></g><g><g><g><g><path d="M541.667,230.556l-27.778,-0" style="fill:none;fill-rule:nonzero;stroke:#888;stroke-width:5.56px;"/><path d="M541.667,369.444l-27.778,0" style="fill:none;fill-rule:nonzero;stroke:#888;stroke-width:5.56px;"/><path d="M541.667,508.333l-27.778,0" style="fill:none;fill-rule:nonzero;stroke:#888;stroke-width:5.56px;"/><path d="M541.667,647.222l-27.778,0" style="fill:none;fill-rule:nonzero;stroke:#888;stroke-width:5.56px;"/><path d="M541.667,786.111l-27.778,0" style="fill:none;fill-rule:nonzero;stroke:#888;stroke-width:5.56px;"/><path d="M541.667,925l-27.778,0" style="fill:none;fill-rule:nonzero;stroke:#888;stroke-width:5.56px;"/></g><g><text x="231.076px" y="263.889px" style="font-family:'ArialMT', 'Arial', sans-serif;font-size:111.111px;">Heart</text><text x="163.043px" y="402.778px" style="font-family:'ArialMT', 'Arial', sans-serif;font-size:111.111px;">Kidney</text><text x="261.947px" y="541.667px" style="font-family:'ArialMT', 'Arial', sans-serif;font-size:111.111px;">Liver</text><text x="255.599px" y="680.556px" style="font-family:'ArialMT', 'Arial', sans-serif;font-size:111.111px;">Lung</text><text x="33.377px" y="819.444px" style="font-family:'ArialMT', 'Arial', sans-serif;font-size:111.111px;">Pancreas</text><text x="156.803px" y="958.333px" style="font-family:'ArialMT', 'Arial', sans-serif;font-size:111.111px;">Spleen</text></g><g><path d="M541.667,163.889l-0,833.333" style="fill:none;fill-rule:nonzero;stroke:#888;stroke-width:5.56px;"/></g></g></g></g><g><rect x="2600.62" y="445.833" width="962.963" height="125" style="fill:#c0d4f5;fill-rule:nonzero;"/><rect x="4822.84" y="445.833" width="728.395" height="125" style="fill:#3b4cc0;fill-rule:nonzero;"/><rect x="1946.3" y="445.833" width="654.321" height="125" style="fill:#f2cbb7;fill-rule:nonzero;"/><rect x="3563.58" y="445.833" width="1259.26" height="125" style="fill:#7b9ff9;fill-rule:nonzero;"/><rect x="1193.21" y="445.833" width="753.086" height="125" style="fill:#ee8468;fill-rule:nonzero;"/><rect x="538.889" y="445.833" width="654.321" height="125" style="fill:#b40426;fill-rule:nonzero;"/><rect x="2304.32" y="168.056" width="728.395" height="125" style="fill:#c0d4f5;fill-rule:nonzero;"/><rect x="4230.25" y="168.056" width="1555.56" height="125" style="fill:#3b4cc0;fill-rule:nonzero;"/><rect x="1563.58" y="168.056" width="740.741" height="125" style="fill:#f2cbb7;fill-rule:nonzero;"/><rect x="3032.72" y="168.056" width="1197.53" height="125" style="fill:#7b9ff9;fill-rule:nonzero;"/><rect x="1094.44" y="168.056" width="469.136" height="125" style="fill:#ee8468;fill-rule:nonzero;"/><rect x="538.889" y="168.056" width="555.556" height="125" style="fill:#b40426;fill-rule:nonzero;"/><rect x="2674.69" y="584.722" width="654.321" height="125" style="fill:#c0d4f5;fill-rule:nonzero;"/><rect x="4069.75" y="584.722" width="740.741" height="125" style="fill:#3b4cc0;fill-rule:nonzero;"/><rect x="1970.99" y="584.722" width="703.704" height="125" style="fill:#f2cbb7;fill-rule:nonzero;"/><rect x="3329.01" y="584.722" width="740.741" height="125" style="fill:#7b9ff9;fill-rule:nonzero;"/><rect x="1427.78" y="584.722" width="543.21" height="125" style="fill:#ee8468;fill-rule:nonzero;"/><rect x="538.889" y="584.722" width="888.889" height="125" style="fill:#b40426;fill-rule:nonzero;"/><rect x="2551.24" y="306.944" width="1259.26" height="125" style="fill:#c0d4f5;fill-rule:nonzero;"/><rect x="4378.4" y="306.944" width="1197.53" height="125" style="fill:#3b4cc0;fill-rule:nonzero;"/><rect x="1810.49" y="306.944" width="740.741" height="125" style="fill:#f2cbb7;fill-rule:nonzero;"/><rect x="3810.49" y="306.944" width="567.901" height="125" style="fill:#7b9ff9;fill-rule:nonzero;"/><rect x="1205.56" y="306.944" width="604.938" height="125" style="fill:#ee8468;fill-rule:nonzero;"/><rect x="538.889" y="306.944" width="666.667" height="125" style="fill:#b40426;fill-rule:nonzero;"/><rect x="3699.38" y="723.611" width="753.086" height="125" style="fill:#c0d4f5;fill-rule:nonzero;"/><rect x="5057.41" y="723.611" width="469.136" height="125" style="fill:#3b4cc0;fill-rule:nonzero;"/><rect x="3156.17" y="723.611" width="543.21" height="125" style="fill:#f2cbb7;fill-rule:nonzero;"/><rect x="4452.47" y="723.611" width="604.938" height="125" style="fill:#7b9ff9;fill-rule:nonzero;"/><rect x="1403.09" y="723.611" width="1753.09" height="125" style="fill:#ee8468;fill-rule:nonzero;"/><rect x="538.889" y="723.611" width="864.198" height="125" style="fill:#b40426;fill-rule:nonzero;"/><rect x="2575.93" y="862.5" width="654.321" height="125" style="fill:#c0d4f5;fill-rule:nonzero;"/><rect x="3896.91" y="862.5" width="555.556" height="125" style="fill:#3b4cc0;fill-rule:nonzero;"/><rect x="1687.04" y="862.5" width="888.889" height="125" style="fill:#f2cbb7;fill-rule:nonzero;"/><rect x="3230.25" y="862.5" width="666.667" height="125" style="fill:#7b9ff9;fill-rule:nonzero;"/><rect x="822.84" y="862.5" width="864.198" height="125" style="fill:#ee8468;fill-rule:nonzero;"/><rect x="538.889" y="862.5" width="283.951" height="125" style="fill:#b40426;fill-rule:nonzero;"/></g><g><text x="3433.9px" y="536.111px" style="font-family:'ArialMT', 'Arial', sans-serif;font-size:83.333px;">78</text><text x="5421.56px" y="536.111px" style="font-family:'ArialMT', 'Arial', sans-serif;font-size:83.333px;fill:#fff;">59</text><text x="2470.94px" y="536.111px" style="font-family:'ArialMT', 'Arial', sans-serif;font-size:83.333px;">53</text><text x="4669.99px" y="536.111px" style="font-family:'ArialMT', 'Arial', sans-serif;font-size:83.333px;">102</text><text x="1816.62px" y="536.111px" style="font-family:'ArialMT', 'Arial', sans-serif;font-size:83.333px;">61</text><text x="1063.53px" y="536.111px" style="font-family:'ArialMT', 'Arial', sans-serif;font-size:83.333px;fill:#fff;">53</text><text x="2903.04px" y="258.333px" style="font-family:'ArialMT', 'Arial', sans-serif;font-size:83.333px;">59</text><text x="5632.95px" y="258.333px" style="font-family:'ArialMT', 'Arial', sans-serif;font-size:83.333px;fill:#fff;">126</text><text x="2174.64px" y="258.333px" style="font-family:'ArialMT', 'Arial', sans-serif;font-size:83.333px;">60</text><text x="4100.57px" y="258.333px" style="font-family:'ArialMT', 'Arial', sans-serif;font-size:83.333px;">97</text><text x="1433.9px" y="258.333px" style="font-family:'ArialMT', 'Arial', sans-serif;font-size:83.333px;">38</text><text x="964.765px" y="258.333px" style="font-family:'ArialMT', 'Arial', sans-serif;font-size:83.333px;fill:#fff;">45</text><text x="3199.33px" y="675px" style="font-family:'ArialMT', 'Arial', sans-serif;font-size:83.333px;">53</text><text x="4680.81px" y="675px" style="font-family:'ArialMT', 'Arial', sans-serif;font-size:83.333px;fill:#fff;">60</text><text x="2545.01px" y="675px" style="font-family:'ArialMT', 'Arial', sans-serif;font-size:83.333px;">57</text><text x="3940.07px" y="675px" style="font-family:'ArialMT', 'Arial', sans-serif;font-size:83.333px;">60</text><text x="1841.31px" y="675px" style="font-family:'ArialMT', 'Arial', sans-serif;font-size:83.333px;">44</text><text x="1298.1px" y="675px" style="font-family:'ArialMT', 'Arial', sans-serif;font-size:83.333px;fill:#fff;">72</text><text x="3657.64px" y="397.222px" style="font-family:'ArialMT', 'Arial', sans-serif;font-size:83.333px;">102</text><text x="5446.25px" y="397.222px" style="font-family:'ArialMT', 'Arial', sans-serif;font-size:83.333px;fill:#fff;">97</text><text x="2421.55px" y="397.222px" style="font-family:'ArialMT', 'Arial', sans-serif;font-size:83.333px;">60</text><text x="4248.72px" y="397.222px" style="font-family:'ArialMT', 'Arial', sans-serif;font-size:83.333px;">46</text><text x="1680.81px" y="397.222px" style="font-family:'ArialMT', 'Arial', sans-serif;font-size:83.333px;">49</text><text x="1075.88px" y="397.222px" style="font-family:'ArialMT', 'Arial', sans-serif;font-size:83.333px;fill:#fff;">54</text><text x="4322.79px" y="813.889px" style="font-family:'ArialMT', 'Arial', sans-serif;font-size:83.333px;">61</text><text x="5396.86px" y="813.889px" style="font-family:'ArialMT', 'Arial', sans-serif;font-size:83.333px;fill:#fff;">38</text><text x="3569.7px" y="813.889px" style="font-family:'ArialMT', 'Arial', sans-serif;font-size:83.333px;">44</text><text x="4927.73px" y="813.889px" style="font-family:'ArialMT', 'Arial', sans-serif;font-size:83.333px;">49</text><text x="3003.32px" y="813.889px" style="font-family:'ArialMT', 'Arial', sans-serif;font-size:83.333px;">142</text><text x="1273.41px" y="813.889px" style="font-family:'ArialMT', 'Arial', sans-serif;font-size:83.333px;fill:#fff;">70</text><text x="3100.57px" y="952.778px" style="font-family:'ArialMT', 'Arial', sans-serif;font-size:83.333px;">53</text><text x="4322.79px" y="952.778px" style="font-family:'ArialMT', 'Arial', sans-serif;font-size:83.333px;fill:#fff;">45</text><text x="2446.25px" y="952.778px" style="font-family:'ArialMT', 'Arial', sans-serif;font-size:83.333px;">72</text><text x="3767.23px" y="952.778px" style="font-family:'ArialMT', 'Arial', sans-serif;font-size:83.333px;">54</text><text x="1557.36px" y="952.778px" style="font-family:'ArialMT', 'Arial', sans-serif;font-size:83.333px;">70</text><text x="693.16px" y="952.778px" style="font-family:'ArialMT', 'Arial', sans-serif;font-size:83.333px;fill:#fff;">23</text></g><g><g><rect x="6194.44" y="161.111" width="566.667" height="511.111" style="fill:none;fill-rule:nonzero;"/><g><g><g><g><g><g><rect x="6194.44" y="250" width="561.328" height="61.111" style="fill:none;fill-rule:nonzero;"/><g><g><rect x="6200" y="255.556" width="55.556" height="55.556" style="fill:#3b4cc0;fill-rule:nonzero;"/></g><g><text x="6283.33px" y="300px" style="font-family:'ArialMT', 'Arial', sans-serif;font-size:55.556px;">Overlaps Liver</text></g></g></g><g><rect x="6194.44" y="322.222" width="561.328" height="61.111" style="fill:none;fill-rule:nonzero;"/><g><g><rect x="6200" y="327.778" width="55.556" height="55.556" style="fill:#7b9ff9;fill-rule:nonzero;"/></g><g><text x="6283.33px" y="372.222px" style="font-family:'ArialMT', 'Arial', sans-serif;font-size:55.556px;">Overlaps Heart</text></g></g></g><g><rect x="6194.44" y="394.444" width="561.328" height="61.111" style="fill:none;fill-rule:nonzero;"/><g><g><rect x="6200" y="400" width="55.556" height="55.556" style="fill:#c0d4f5;fill-rule:nonzero;"/></g><g><text x="6283.33px" y="444.444px" style="font-family:'ArialMT', 'Arial', sans-serif;font-size:55.556px;">Overlaps Lung</text></g></g></g><g><rect x="6194.44" y="466.667" width="561.328" height="61.111" style="fill:none;fill-rule:nonzero;"/><g><g><rect x="6200" y="472.222" width="55.556" height="55.556" style="fill:#f2cbb7;fill-rule:nonzero;"/></g><g><text x="6283.33px" y="516.667px" style="font-family:'ArialMT', 'Arial', sans-serif;font-size:55.556px;">Overlaps Kidney</text></g></g></g><g><rect x="6194.44" y="538.889" width="561.328" height="61.111" style="fill:none;fill-rule:nonzero;"/><g><g><rect x="6200" y="544.444" width="55.556" height="55.556" style="fill:#ee8468;fill-rule:nonzero;"/></g><g><text x="6283.33px" y="588.889px" style="font-family:'ArialMT', 'Arial', sans-serif;font-size:55.556px;">Overlaps Pancreas</text></g></g></g><g><rect x="6194.44" y="611.111" width="561.328" height="61.111" style="fill:none;fill-rule:nonzero;"/><g><g><rect x="6200" y="616.667" width="55.556" height="55.556" style="fill:#b40426;fill-rule:nonzero;"/></g><g><text x="6283.33px" y="661.111px" style="font-family:'ArialMT', 'Arial', sans-serif;font-size:55.556px;">Overlaps Spleen</text></g></g></g></g></g></g></g><g><text x="6194.44px" y="211.111px" style="font-family:'Arial-BoldMT', 'Arial', sans-serif;font-weight:700;font-size:61.111px;">Compared T<tspan x="6549.86px 6566.84px " y="211.111px 211.111px ">is</tspan>sue</text></g></g></g></g><g><g><g><g><text x="2024.19px" y="116.667px" style="font-family:'Arial-BoldMT', 'Arial', sans-serif;font-weight:700;font-size:111.111px;">Shared Modiﬁcation Sites Between Organ T<tspan x="4325.02px 4355.89px " y="116.667px 116.667px ">is</tspan>sue</text></g></g></g></g></g></g></g></g></svg>