<?xml version="1.0" encoding="UTF-8" standalone="no"?><!DOCTYPE svg PUBLIC "-//W3C//DTD SVG 1.1//EN" "http://www.w3.org/Graphics/SVG/1.1/DTD/svg11.dtd"><svg width="100%" height="100%" viewBox="0 0 6789 1256" version="1.1" xmlns="http://www.w3.org/2000/svg" xmlns:xlink="http://www.w3.org/1999/xlink" xml:space="preserve" xmlns:serif="http://www.serif.com/" style="fill-rule:evenodd;clip-rule:evenodd;"><rect x="0" y="0" width="6788.89" height="1255.56" style="fill:#fff;"/><rect x="541.667" y="163.889" width="5555.56" height="833.333" style="fill:none;fill-rule:nonzero;stroke:#ddd;stroke-width:5.56px;"/><g><g><g><g><path d="M541.667,997.222l-0,-833.333" style="fill:none;fill-rule:nonzero;stroke:#ddd;stroke-width:5.56px;"/><path d="M969.444,997.222l0,-833.333" style="fill:none;fill-rule:nonzero;stroke:#ddd;stroke-width:5.56px;"/><path d="M1397.22,997.222l0,-833.333" style="fill:none;fill-rule:nonzero;stroke:#ddd;stroke-width:5.56px;"/><path d="M1825,997.222l0,-833.333" style="fill:none;fill-rule:nonzero;stroke:#ddd;stroke-width:5.56px;"/><path d="M2252.78,997.222l-0,-833.333" style="fill:none;fill-rule:nonzero;stroke:#ddd;stroke-width:5.56px;"/><path d="M2680.56,997.222l-0,-833.333" style="fill:none;fill-rule:nonzero;stroke:#ddd;stroke-width:5.56px;"/><path d="M3108.33,997.222l0,-833.333" style="fill:none;fill-rule:nonzero;stroke:#ddd;stroke-width:5.56px;"/><path d="M3530.56,997.222l-0,-833.333" style="fill:none;fill-rule:nonzero;stroke:#ddd;stroke-width:5.56px;"/><path d="M3958.33,997.222l0,-833.333" style="fill:none;fill-rule:nonzero;stroke:#ddd;stroke-width:5.56px;"/><path d="M4386.11,997.222l0,-833.333" style="fill:none;fill-rule:nonzero;stroke:#ddd;stroke-width:5.56px;"/><path d="M4813.89,997.222l-0,-833.333" style="fill:none;fill-rule:nonzero;stroke:#ddd;stroke-width:5.56px;"/><path d="M5241.67,997.222l-0,-833.333" style="fill:none;fill-rule:nonzero;stroke:#ddd;stroke-width:5.56px;"/><path d="M5669.44,997.222l0,-833.333" style="fill:none;fill-rule:nonzero;stroke:#ddd;stroke-width:5.56px;"/><path d="M6097.22,997.222l0,-833.333" style="fill:none;fill-rule:nonzero;stroke:#ddd;stroke-width:5.56px;"/></g></g></g></g><g><g><g><g><path d="M541.667,997.222l-0,27.778" style="fill:none;fill-rule:nonzero;stroke:#888;stroke-width:5.56px;"/><path d="M969.444,997.222l0,27.778" style="fill:none;fill-rule:nonzero;stroke:#888;stroke-width:5.56px;"/><path d="M1397.22,997.222l0,27.778" style="fill:none;fill-rule:nonzero;stroke:#888;stroke-width:5.56px;"/><path d="M1825,997.222l0,27.778" style="fill:none;fill-rule:nonzero;stroke:#888;stroke-width:5.56px;"/><path d="M2252.78,997.222l-0,27.778" style="fill:none;fill-rule:nonzero;stroke:#888;stroke-width:5.56px;"/><path d="M2680.56,997.222l-0,27.778" style="fill:none;fill-rule:nonzero;stroke:#888;stroke-width:5.56px;"/><path d="M3108.33,997.222l0,27.778" style="fill:none;fill-rule:nonzero;stroke:#888;stroke-width:5.56px;"/><path d="M3530.56,997.222l-0,27.778" style="fill:none;fill-rule:nonzero;stroke:#888;stroke-width:5.56px;"/><path d="M3958.33,997.222l0,27.778" style="fill:none;fill-rule:nonzero;stroke:#888;stroke-width:5.56px;"/><path d="M4386.11,997.222l0,27.778" style="fill:none;fill-rule:nonzero;stroke:#888;stroke-width:5.56px;"/><path d="M4813.89,997.222l-0,27.778" style="fill:none;fill-rule:nonzero;stroke:#888;stroke-width:5.56px;"/><path d="M5241.67,997.222l-0,27.778" style="fill:none;fill-rule:nonzero;stroke:#888;stroke-width:5.56px;"/><path d="M5669.44,997.222l0,27.778" style="fill:none;fill-rule:nonzero;stroke:#888;stroke-width:5.56px;"/><path d="M6097.22,997.222l0,27.778" style="fill:none;fill-rule:nonzero;stroke:#888;stroke-width:5.56px;"/></g><g><text x="541.667px" y="1125px" style="font-family:'ArialMT', 'Arial', sans-serif;font-size:111.111px;">0</text><text x="907.222px" y="1125px" style="font-family:'ArialMT', 'Arial', sans-serif;font-size:111.111px;">20</text><text x="1334.57px" y="1125px" style="font-family:'ArialMT', 'Arial', sans-serif;font-size:111.111px;">40</text><text x="1761.92px" y="1125px" style="font-family:'ArialMT', 'Arial', sans-serif;font-size:111.111px;">60</text><text x="2189.27px" y="1125px" style="font-family:'ArialMT', 'Arial', sans-serif;font-size:111.111px;">80</text><text x="2585.73px" y="1125px" style="font-family:'ArialMT', 'Arial', sans-serif;font-size:111.111px;">100</text><text x="3013.08px" y="1125px" style="font-family:'ArialMT', 'Arial', sans-serif;font-size:111.111px;">120</text><text x="3440.43px" y="1125px" style="font-family:'ArialMT', 'Arial', sans-serif;font-size:111.111px;">140</text><text x="3867.78px" y="1125px" style="font-family:'ArialMT', 'Arial', sans-serif;font-size:111.111px;">160</text><text x="4295.13px" y="1125px" style="font-family:'ArialMT', 'Arial', sans-serif;font-size:111.111px;">180</text><text x="4722.48px" y="1125px" style="font-family:'ArialMT', 'Arial', sans-serif;font-size:111.111px;">200</text><text x="5149.83px" y="1125px" style="font-family:'ArialMT', 'Arial', sans-serif;font-size:111.111px;">220</text><text x="5577.18px" y="1125px" style="font-family:'ArialMT', 'Arial', sans-serif;font-size:111.111px;">240</text><text x="5911.84px" y="1125px" style="font-family:'ArialMT', 'Arial', sans-serif;font-size:111.111px;">260</text></g><g><path d="M541.667,997.222l5555.56,0" style="fill:none;fill-rule:nonzero;stroke:#888;stroke-width:5.56px;"/></g><g><text x="2898.38px" y="1219.44px" style="font-family:'Arial-BoldMT', 'Arial', sans-serif;font-weight:700;font-size:61.111px;">Number of Overlapping Sites</text></g></g></g></g><g><g><g><g><path d="M541.667,230.556l-27.778,-0" style="fill:none;fill-rule:nonzero;stroke:#888;stroke-width:5.56px;"/><path d="M541.667,369.444l-27.778,0" style="fill:none;fill-rule:nonzero;stroke:#888;stroke-width:5.56px;"/><path d="M541.667,508.333l-27.778,0" style="fill:none;fill-rule:nonzero;stroke:#888;stroke-width:5.56px;"/><path d="M541.667,647.222l-27.778,0" style="fill:none;fill-rule:nonzero;stroke:#888;stroke-width:5.56px;"/><path d="M541.667,786.111l-27.778,0" style="fill:none;fill-rule:nonzero;stroke:#888;stroke-width:5.56px;"/><path d="M541.667,925l-27.778,0" style="fill:none;fill-rule:nonzero;stroke:#888;stroke-width:5.56px;"/></g><g><text x="231.076px" y="263.889px" style="font-family:'ArialMT', 'Arial', sans-serif;font-size:111.111px;">Heart</text><text x="163.043px" y="402.778px" style="font-family:'ArialMT', 'Arial', sans-serif;font-size:111.111px;">Kidney</text><text x="261.947px" y="541.667px" style="font-family:'ArialMT', 'Arial', sans-serif;font-size:111.111px;">Liver</text><text x="255.599px" y="680.556px" style="font-family:'ArialMT', 'Arial', sans-serif;font-size:111.111px;">Lung</text><text x="33.377px" y="819.444px" style="font-family:'ArialMT', 'Arial', sans-serif;font-size:111.111px;">Pancreas</text><text x="156.803px" y="958.333px" style="font-family:'ArialMT', 'Arial', sans-serif;font-size:111.111px;">Spleen</text></g><g><path d="M541.667,163.889l-0,833.333" style="fill:none;fill-rule:nonzero;stroke:#888;stroke-width:5.56px;"/></g></g></g></g><g><rect x="2397.86" y="445.833" width="747.863" height="125" style="fill:#c0d4f5;fill-rule:nonzero;"/><rect x="4235.47" y="445.833" width="747.863" height="125" style="fill:#3b4cc0;fill-rule:nonzero;"/><rect x="1735.47" y="445.833" width="662.393" height="125" style="fill:#f2cbb7;fill-rule:nonzero;"/><rect x="3145.73" y="445.833" width="1089.74" height="125" style="fill:#7b9ff9;fill-rule:nonzero;"/><rect x="1051.71" y="445.833" width="683.761" height="125" style="fill:#ee8468;fill-rule:nonzero;"/><rect x="538.889" y="445.833" width="512.821" height="125" style="fill:#b40426;fill-rule:nonzero;"/><rect x="2397.86" y="168.056" width="641.026" height="125" style="fill:#c0d4f5;fill-rule:nonzero;"/><rect x="4043.16" y="168.056" width="1089.74" height="125" style="fill:#3b4cc0;fill-rule:nonzero;"/><rect x="1650" y="168.056" width="747.863" height="125" style="fill:#f2cbb7;fill-rule:nonzero;"/><rect x="3038.89" y="168.056" width="1004.27" height="125" style="fill:#7b9ff9;fill-rule:nonzero;"/><rect x="1137.18" y="168.056" width="512.821" height="125" style="fill:#ee8468;fill-rule:nonzero;"/><rect x="538.889" y="168.056" width="598.291" height="125" style="fill:#b40426;fill-rule:nonzero;"/><rect x="2632.91" y="584.722" width="683.761" height="125" style="fill:#c0d4f5;fill-rule:nonzero;"/><rect x="3957.69" y="584.722" width="1175.21" height="125" style="fill:#3b4cc0;fill-rule:nonzero;"/><rect x="2055.98" y="584.722" width="576.923" height="125" style="fill:#f2cbb7;fill-rule:nonzero;"/><rect x="3316.67" y="584.722" width="641.026" height="125" style="fill:#7b9ff9;fill-rule:nonzero;"/><rect x="1414.96" y="584.722" width="641.026" height="125" style="fill:#ee8468;fill-rule:nonzero;"/><rect x="538.889" y="584.722" width="876.068" height="125" style="fill:#b40426;fill-rule:nonzero;"/><rect x="2611.54" y="306.944" width="1089.74" height="125" style="fill:#c0d4f5;fill-rule:nonzero;"/><rect x="4107.27" y="306.944" width="1196.58" height="125" style="fill:#3b4cc0;fill-rule:nonzero;"/><rect x="1885.04" y="306.944" width="726.496" height="125" style="fill:#f2cbb7;fill-rule:nonzero;"/><rect x="3701.28" y="306.944" width="405.983" height="125" style="fill:#7b9ff9;fill-rule:nonzero;"/><rect x="1201.28" y="306.944" width="683.761" height="125" style="fill:#ee8468;fill-rule:nonzero;"/><rect x="538.889" y="306.944" width="662.393" height="125" style="fill:#b40426;fill-rule:nonzero;"/><rect x="4150" y="723.611" width="662.393" height="125" style="fill:#c0d4f5;fill-rule:nonzero;"/><rect x="5432.05" y="723.611" width="598.291" height="125" style="fill:#3b4cc0;fill-rule:nonzero;"/><rect x="3402.14" y="723.611" width="747.863" height="125" style="fill:#f2cbb7;fill-rule:nonzero;"/><rect x="4812.39" y="723.611" width="619.658" height="125" style="fill:#7b9ff9;fill-rule:nonzero;"/><rect x="1436.33" y="723.611" width="1965.81" height="125" style="fill:#ee8468;fill-rule:nonzero;"/><rect x="538.889" y="723.611" width="897.436" height="125" style="fill:#b40426;fill-rule:nonzero;"/><rect x="2910.68" y="862.5" width="512.821" height="125" style="fill:#c0d4f5;fill-rule:nonzero;"/><rect x="4000.43" y="862.5" width="641.026" height="125" style="fill:#3b4cc0;fill-rule:nonzero;"/><rect x="1970.51" y="862.5" width="940.171" height="125" style="fill:#f2cbb7;fill-rule:nonzero;"/><rect x="3423.5" y="862.5" width="576.923" height="125" style="fill:#7b9ff9;fill-rule:nonzero;"/><rect x="752.564" y="862.5" width="1217.95" height="125" style="fill:#ee8468;fill-rule:nonzero;"/><rect x="538.889" y="862.5" width="213.675" height="125" style="fill:#b40426;fill-rule:nonzero;"/></g><g><text x="3016.05px" y="536.111px" style="font-family:'ArialMT', 'Arial', sans-serif;font-size:83.333px;">35</text><text x="4853.65px" y="536.111px" style="font-family:'ArialMT', 'Arial', sans-serif;font-size:83.333px;">35</text><text x="2268.18px" y="536.111px" style="font-family:'ArialMT', 'Arial', sans-serif;font-size:83.333px;">31</text><text x="4105.79px" y="536.111px" style="font-family:'ArialMT', 'Arial', sans-serif;font-size:83.333px;">51</text><text x="1605.79px" y="536.111px" style="font-family:'ArialMT', 'Arial', sans-serif;font-size:83.333px;">32</text><text x="922.03px" y="536.111px" style="font-family:'ArialMT', 'Arial', sans-serif;font-size:83.333px;">24</text><text x="2909.21px" y="258.333px" style="font-family:'ArialMT', 'Arial', sans-serif;font-size:83.333px;">30</text><text x="5003.23px" y="258.333px" style="font-family:'ArialMT', 'Arial', sans-serif;font-size:83.333px;">51</text><text x="2268.18px" y="258.333px" style="font-family:'ArialMT', 'Arial', sans-serif;font-size:83.333px;">35</text><text x="3913.48px" y="258.333px" style="font-family:'ArialMT', 'Arial', sans-serif;font-size:83.333px;">47</text><text x="1520.32px" y="258.333px" style="font-family:'ArialMT', 'Arial', sans-serif;font-size:83.333px;">24</text><text x="1007.5px" y="258.333px" style="font-family:'ArialMT', 'Arial', sans-serif;font-size:83.333px;">28</text><text x="3186.99px" y="675px" style="font-family:'ArialMT', 'Arial', sans-serif;font-size:83.333px;">32</text><text x="5003.23px" y="675px" style="font-family:'ArialMT', 'Arial', sans-serif;font-size:83.333px;">55</text><text x="2503.23px" y="675px" style="font-family:'ArialMT', 'Arial', sans-serif;font-size:83.333px;">27</text><text x="3828.01px" y="675px" style="font-family:'ArialMT', 'Arial', sans-serif;font-size:83.333px;">30</text><text x="1926.3px" y="675px" style="font-family:'ArialMT', 'Arial', sans-serif;font-size:83.333px;">30</text><text x="1285.28px" y="675px" style="font-family:'ArialMT', 'Arial', sans-serif;font-size:83.333px;">41</text><text x="3571.6px" y="397.222px" style="font-family:'ArialMT', 'Arial', sans-serif;font-size:83.333px;">51</text><text x="5174.17px" y="397.222px" style="font-family:'ArialMT', 'Arial', sans-serif;font-size:83.333px;">56</text><text x="2481.86px" y="397.222px" style="font-family:'ArialMT', 'Arial', sans-serif;font-size:83.333px;">34</text><text x="3977.59px" y="397.222px" style="font-family:'ArialMT', 'Arial', sans-serif;font-size:83.333px;">19</text><text x="1755.36px" y="397.222px" style="font-family:'ArialMT', 'Arial', sans-serif;font-size:83.333px;">32</text><text x="1071.6px" y="397.222px" style="font-family:'ArialMT', 'Arial', sans-serif;font-size:83.333px;">31</text><text x="4682.71px" y="813.889px" style="font-family:'ArialMT', 'Arial', sans-serif;font-size:83.333px;">31</text><text x="5900.66px" y="813.889px" style="font-family:'ArialMT', 'Arial', sans-serif;font-size:83.333px;">28</text><text x="4020.32px" y="813.889px" style="font-family:'ArialMT', 'Arial', sans-serif;font-size:83.333px;">35</text><text x="5302.37px" y="813.889px" style="font-family:'ArialMT', 'Arial', sans-serif;font-size:83.333px;">29</text><text x="3272.46px" y="813.889px" style="font-family:'ArialMT', 'Arial', sans-serif;font-size:83.333px;">92</text><text x="1306.64px" y="813.889px" style="font-family:'ArialMT', 'Arial', sans-serif;font-size:83.333px;">42</text><text x="3293.83px" y="952.778px" style="font-family:'ArialMT', 'Arial', sans-serif;font-size:83.333px;">24</text><text x="4511.77px" y="952.778px" style="font-family:'ArialMT', 'Arial', sans-serif;font-size:83.333px;">30</text><text x="2781px" y="952.778px" style="font-family:'ArialMT', 'Arial', sans-serif;font-size:83.333px;">44</text><text x="3870.75px" y="952.778px" style="font-family:'ArialMT', 'Arial', sans-serif;font-size:83.333px;">27</text><text x="1840.83px" y="952.778px" style="font-family:'ArialMT', 'Arial', sans-serif;font-size:83.333px;">57</text><text x="622.885px" y="952.778px" style="font-family:'ArialMT', 'Arial', sans-serif;font-size:83.333px;">10</text></g><rect x="6194.44" y="161.111" width="566.667" height="511.111" style="fill:none;fill-rule:nonzero;"/><g><rect x="6194.44" y="395.025" width="561.328" height="61.111" style="fill:none;fill-rule:nonzero;"/><g><g><rect x="6200" y="400.581" width="55.556" height="55.556" style="fill:#c0d4f5;fill-rule:nonzero;"/></g><g><text x="6283.33px" y="445.025px" style="font-family:'ArialMT', 'Arial', sans-serif;font-size:55.556px;">Overlaps Liver</text></g></g></g><g><rect x="6194.44" y="250" width="561.328" height="61.111" style="fill:none;fill-rule:nonzero;"/><g><g><rect x="6200" y="255.556" width="55.556" height="55.556" style="fill:#3b4cc0;fill-rule:nonzero;"/></g><g><text x="6283.33px" y="300px" style="font-family:'ArialMT', 'Arial', sans-serif;font-size:55.556px;">Overlaps Heart</text></g></g></g><g><rect x="6194.44" y="466.667" width="561.328" height="61.111" style="fill:none;fill-rule:nonzero;"/><g><g><rect x="6200" y="472.222" width="55.556" height="55.556" style="fill:#f2cbb7;fill-rule:nonzero;"/></g><g><text x="6283.33px" y="516.667px" style="font-family:'ArialMT', 'Arial', sans-serif;font-size:55.556px;">Overlaps Lung</text></g></g></g><g><rect x="6194.44" y="322.222" width="561.328" height="61.111" style="fill:none;fill-rule:nonzero;"/><g><g><rect x="6200" y="327.778" width="55.556" height="55.556" style="fill:#7b9ff9;fill-rule:nonzero;"/></g><g><text x="6283.33px" y="372.222px" style="font-family:'ArialMT', 'Arial', sans-serif;font-size:55.556px;">Overlaps Kidney</text></g></g></g><g><rect x="6194.44" y="538.889" width="561.328" height="61.111" style="fill:none;fill-rule:nonzero;"/><g><g><rect x="6200" y="544.444" width="55.556" height="55.556" style="fill:#ee8468;fill-rule:nonzero;"/></g><g><text x="6283.33px" y="588.889px" style="font-family:'ArialMT', 'Arial', sans-serif;font-size:55.556px;">Overlaps Pancreas</text></g></g></g><g><rect x="6194.44" y="611.111" width="561.328" height="61.111" style="fill:none;fill-rule:nonzero;"/><g><g><rect x="6200" y="616.667" width="55.556" height="55.556" style="fill:#b40426;fill-rule:nonzero;"/></g><g><text x="6283.33px" y="661.111px" style="font-family:'ArialMT', 'Arial', sans-serif;font-size:55.556px;">Overlaps Spleen</text></g></g></g><text x="6194.44px" y="211.111px" style="font-family:'Arial-BoldMT', 'Arial', sans-serif;font-weight:700;font-size:61.111px;">Compared T<tspan x="6549.86px 6566.84px " y="211.111px 211.111px ">is</tspan>sue</text><g><g><g><g><text x="2024.19px" y="116.667px" style="font-family:'Arial-BoldMT', 'Arial', sans-serif;font-weight:700;font-size:111.111px;">Shared Modiﬁcation Sites Between Organ T<tspan x="4325.02px 4355.89px " y="116.667px 116.667px ">is</tspan>sue</text></g></g></g></g></svg>