<?xml version="1.0" encoding="UTF-8" standalone="no"?><!DOCTYPE svg PUBLIC "-//W3C//DTD SVG 1.1//EN" "http://www.w3.org/Graphics/SVG/1.1/DTD/svg11.dtd"><svg width="100%" height="100%" viewBox="0 0 6789 1256" version="1.1" xmlns="http://www.w3.org/2000/svg" xmlns:xlink="http://www.w3.org/1999/xlink" xml:space="preserve" xmlns:serif="http://www.serif.com/" style="fill-rule:evenodd;clip-rule:evenodd;"><rect x="0" y="0" width="6788.89" height="1255.56" style="fill:#fff;"/><rect x="541.667" y="163.889" width="5555.56" height="833.333" style="fill:none;fill-rule:nonzero;stroke:#ddd;stroke-width:5.56px;"/><g><g><g><g><path d="M541.667,997.222l-0,-833.333" style="fill:none;fill-rule:nonzero;stroke:#ddd;stroke-width:5.56px;"/><path d="M913.889,997.222l-0,-833.333" style="fill:none;fill-rule:nonzero;stroke:#ddd;stroke-width:5.56px;"/><path d="M1280.56,997.222l-0,-833.333" style="fill:none;fill-rule:nonzero;stroke:#ddd;stroke-width:5.56px;"/><path d="M1652.78,997.222l-0,-833.333" style="fill:none;fill-rule:nonzero;stroke:#ddd;stroke-width:5.56px;"/><path d="M2025,997.222l0,-833.333" style="fill:none;fill-rule:nonzero;stroke:#ddd;stroke-width:5.56px;"/><path d="M2391.67,997.222l-0,-833.333" style="fill:none;fill-rule:nonzero;stroke:#ddd;stroke-width:5.56px;"/><path d="M2763.89,997.222l-0,-833.333" style="fill:none;fill-rule:nonzero;stroke:#ddd;stroke-width:5.56px;"/><path d="M3136.11,997.222l0,-833.333" style="fill:none;fill-rule:nonzero;stroke:#ddd;stroke-width:5.56px;"/><path d="M3502.78,997.222l-0,-833.333" style="fill:none;fill-rule:nonzero;stroke:#ddd;stroke-width:5.56px;"/><path d="M3875,997.222l0,-833.333" style="fill:none;fill-rule:nonzero;stroke:#ddd;stroke-width:5.56px;"/><path d="M4247.22,997.222l0,-833.333" style="fill:none;fill-rule:nonzero;stroke:#ddd;stroke-width:5.56px;"/><path d="M4613.89,997.222l-0,-833.333" style="fill:none;fill-rule:nonzero;stroke:#ddd;stroke-width:5.56px;"/><path d="M4986.11,997.222l0,-833.333" style="fill:none;fill-rule:nonzero;stroke:#ddd;stroke-width:5.56px;"/><path d="M5358.33,997.222l0,-833.333" style="fill:none;fill-rule:nonzero;stroke:#ddd;stroke-width:5.56px;"/><path d="M5725,997.222l0,-833.333" style="fill:none;fill-rule:nonzero;stroke:#ddd;stroke-width:5.56px;"/><path d="M6097.22,997.222l0,-833.333" style="fill:none;fill-rule:nonzero;stroke:#ddd;stroke-width:5.56px;"/></g></g></g></g><g><g><g><g><path d="M541.667,997.222l-0,27.778" style="fill:none;fill-rule:nonzero;stroke:#888;stroke-width:5.56px;"/><path d="M913.889,997.222l-0,27.778" style="fill:none;fill-rule:nonzero;stroke:#888;stroke-width:5.56px;"/><path d="M1280.56,997.222l-0,27.778" style="fill:none;fill-rule:nonzero;stroke:#888;stroke-width:5.56px;"/><path d="M1652.78,997.222l-0,27.778" style="fill:none;fill-rule:nonzero;stroke:#888;stroke-width:5.56px;"/><path d="M2025,997.222l0,27.778" style="fill:none;fill-rule:nonzero;stroke:#888;stroke-width:5.56px;"/><path d="M2391.67,997.222l-0,27.778" style="fill:none;fill-rule:nonzero;stroke:#888;stroke-width:5.56px;"/><path d="M2763.89,997.222l-0,27.778" style="fill:none;fill-rule:nonzero;stroke:#888;stroke-width:5.56px;"/><path d="M3136.11,997.222l0,27.778" style="fill:none;fill-rule:nonzero;stroke:#888;stroke-width:5.56px;"/><path d="M3502.78,997.222l-0,27.778" style="fill:none;fill-rule:nonzero;stroke:#888;stroke-width:5.56px;"/><path d="M3875,997.222l0,27.778" style="fill:none;fill-rule:nonzero;stroke:#888;stroke-width:5.56px;"/><path d="M4247.22,997.222l0,27.778" style="fill:none;fill-rule:nonzero;stroke:#888;stroke-width:5.56px;"/><path d="M4613.89,997.222l-0,27.778" style="fill:none;fill-rule:nonzero;stroke:#888;stroke-width:5.56px;"/><path d="M4986.11,997.222l0,27.778" style="fill:none;fill-rule:nonzero;stroke:#888;stroke-width:5.56px;"/><path d="M5358.33,997.222l0,27.778" style="fill:none;fill-rule:nonzero;stroke:#888;stroke-width:5.56px;"/><path d="M5725,997.222l0,27.778" style="fill:none;fill-rule:nonzero;stroke:#888;stroke-width:5.56px;"/><path d="M6097.22,997.222l0,27.778" style="fill:none;fill-rule:nonzero;stroke:#888;stroke-width:5.56px;"/></g><g><text x="541.667px" y="1125px" style="font-family:'ArialMT', 'Arial', sans-serif;font-size:111.111px;">0</text><text x="850.242px" y="1125px" style="font-family:'ArialMT', 'Arial', sans-serif;font-size:111.111px;">20</text><text x="1220.61px" y="1125px" style="font-family:'ArialMT', 'Arial', sans-serif;font-size:111.111px;">40</text><text x="1590.98px" y="1125px" style="font-family:'ArialMT', 'Arial', sans-serif;font-size:111.111px;">60</text><text x="1961.35px" y="1125px" style="font-family:'ArialMT', 'Arial', sans-serif;font-size:111.111px;">80</text><text x="2300.83px" y="1125px" style="font-family:'ArialMT', 'Arial', sans-serif;font-size:111.111px;">100</text><text x="2671.2px" y="1125px" style="font-family:'ArialMT', 'Arial', sans-serif;font-size:111.111px;">120</text><text x="3041.57px" y="1125px" style="font-family:'ArialMT', 'Arial', sans-serif;font-size:111.111px;">140</text><text x="3411.94px" y="1125px" style="font-family:'ArialMT', 'Arial', sans-serif;font-size:111.111px;">160</text><text x="3782.31px" y="1125px" style="font-family:'ArialMT', 'Arial', sans-serif;font-size:111.111px;">180</text><text x="4152.68px" y="1125px" style="font-family:'ArialMT', 'Arial', sans-serif;font-size:111.111px;">200</text><text x="4523.05px" y="1125px" style="font-family:'ArialMT', 'Arial', sans-serif;font-size:111.111px;">220</text><text x="4893.42px" y="1125px" style="font-family:'ArialMT', 'Arial', sans-serif;font-size:111.111px;">240</text><text x="5263.79px" y="1125px" style="font-family:'ArialMT', 'Arial', sans-serif;font-size:111.111px;">260</text><text x="5634.16px" y="1125px" style="font-family:'ArialMT', 'Arial', sans-serif;font-size:111.111px;">280</text><text x="5911.84px" y="1125px" style="font-family:'ArialMT', 'Arial', sans-serif;font-size:111.111px;">300</text></g><g><path d="M541.667,997.222l5555.56,0" style="fill:none;fill-rule:nonzero;stroke:#888;stroke-width:5.56px;"/></g><g><text x="2849.16px" y="1219.44px" style="font-family:'Arial-BoldMT', 'Arial', sans-serif;font-weight:700;font-size:61.111px;">Number of Overlapping Proteins</text></g></g></g></g><g><g><g><g><path d="M541.667,230.556l-27.778,-0" style="fill:none;fill-rule:nonzero;stroke:#888;stroke-width:5.56px;"/><path d="M541.667,369.444l-27.778,0" style="fill:none;fill-rule:nonzero;stroke:#888;stroke-width:5.56px;"/><path d="M541.667,508.333l-27.778,0" style="fill:none;fill-rule:nonzero;stroke:#888;stroke-width:5.56px;"/><path d="M541.667,647.222l-27.778,0" style="fill:none;fill-rule:nonzero;stroke:#888;stroke-width:5.56px;"/><path d="M541.667,786.111l-27.778,0" style="fill:none;fill-rule:nonzero;stroke:#888;stroke-width:5.56px;"/><path d="M541.667,925l-27.778,0" style="fill:none;fill-rule:nonzero;stroke:#888;stroke-width:5.56px;"/></g><g><text x="231.076px" y="263.889px" style="font-family:'ArialMT', 'Arial', sans-serif;font-size:111.111px;">Heart</text><text x="163.043px" y="402.778px" style="font-family:'ArialMT', 'Arial', sans-serif;font-size:111.111px;">Kidney</text><text x="261.947px" y="541.667px" style="font-family:'ArialMT', 'Arial', sans-serif;font-size:111.111px;">Liver</text><text x="255.599px" y="680.556px" style="font-family:'ArialMT', 'Arial', sans-serif;font-size:111.111px;">Lung</text><text x="33.377px" y="819.444px" style="font-family:'ArialMT', 'Arial', sans-serif;font-size:111.111px;">Pancreas</text><text x="156.803px" y="958.333px" style="font-family:'ArialMT', 'Arial', sans-serif;font-size:111.111px;">Spleen</text></g><g><path d="M541.667,163.889l-0,833.333" style="fill:none;fill-rule:nonzero;stroke:#888;stroke-width:5.56px;"/></g></g></g></g><g><rect x="2575.93" y="445.833" width="388.889" height="125" style="fill:#c0d4f5;fill-rule:nonzero;"/><rect x="4057.41" y="445.833" width="888.889" height="125" style="fill:#3b4cc0;fill-rule:nonzero;"/><rect x="1964.82" y="445.833" width="611.111" height="125" style="fill:#f2cbb7;fill-rule:nonzero;"/><rect x="2964.82" y="445.833" width="1092.59" height="125" style="fill:#7b9ff9;fill-rule:nonzero;"/><rect x="1057.41" y="445.833" width="907.407" height="125" style="fill:#ee8468;fill-rule:nonzero;"/><rect x="538.889" y="445.833" width="518.519" height="125" style="fill:#b40426;fill-rule:nonzero;"/><rect x="3057.41" y="168.056" width="870.37" height="125" style="fill:#c0d4f5;fill-rule:nonzero;"/><rect x="5057.41" y="168.056" width="777.778" height="125" style="fill:#3b4cc0;fill-rule:nonzero;"/><rect x="2205.56" y="168.056" width="851.852" height="125" style="fill:#f2cbb7;fill-rule:nonzero;"/><rect x="3927.78" y="168.056" width="1129.63" height="125" style="fill:#7b9ff9;fill-rule:nonzero;"/><rect x="1224.07" y="168.056" width="981.481" height="125" style="fill:#ee8468;fill-rule:nonzero;"/><rect x="538.889" y="168.056" width="685.185" height="125" style="fill:#b40426;fill-rule:nonzero;"/><rect x="2464.82" y="584.722" width="685.185" height="125" style="fill:#c0d4f5;fill-rule:nonzero;"/><rect x="3798.15" y="584.722" width="907.407" height="125" style="fill:#3b4cc0;fill-rule:nonzero;"/><rect x="2094.44" y="584.722" width="370.37" height="125" style="fill:#f2cbb7;fill-rule:nonzero;"/><rect x="3150" y="584.722" width="648.148" height="125" style="fill:#7b9ff9;fill-rule:nonzero;"/><rect x="1316.67" y="584.722" width="777.778" height="125" style="fill:#ee8468;fill-rule:nonzero;"/><rect x="538.889" y="584.722" width="777.778" height="125" style="fill:#b40426;fill-rule:nonzero;"/><rect x="2501.85" y="306.944" width="1092.59" height="125" style="fill:#c0d4f5;fill-rule:nonzero;"/><rect x="3798.15" y="306.944" width="1222.22" height="125" style="fill:#3b4cc0;fill-rule:nonzero;"/><rect x="1853.7" y="306.944" width="648.148" height="125" style="fill:#f2cbb7;fill-rule:nonzero;"/><rect x="3594.44" y="306.944" width="203.704" height="125" style="fill:#7b9ff9;fill-rule:nonzero;"/><rect x="1057.41" y="306.944" width="796.296" height="125" style="fill:#ee8468;fill-rule:nonzero;"/><rect x="538.889" y="306.944" width="518.519" height="125" style="fill:#b40426;fill-rule:nonzero;"/><rect x="3372.22" y="723.611" width="851.852" height="125" style="fill:#c0d4f5;fill-rule:nonzero;"/><rect x="4983.33" y="723.611" width="944.444" height="125" style="fill:#3b4cc0;fill-rule:nonzero;"/><rect x="2687.04" y="723.611" width="685.185" height="125" style="fill:#f2cbb7;fill-rule:nonzero;"/><rect x="4224.07" y="723.611" width="759.259" height="125" style="fill:#7b9ff9;fill-rule:nonzero;"/><rect x="1409.26" y="723.611" width="1277.78" height="125" style="fill:#ee8468;fill-rule:nonzero;"/><rect x="538.889" y="723.611" width="870.37" height="125" style="fill:#b40426;fill-rule:nonzero;"/><rect x="2353.7" y="862.5" width="574.074" height="125" style="fill:#c0d4f5;fill-rule:nonzero;"/><rect x="3446.3" y="862.5" width="740.741" height="125" style="fill:#3b4cc0;fill-rule:nonzero;"/><rect x="1594.44" y="862.5" width="759.259" height="125" style="fill:#f2cbb7;fill-rule:nonzero;"/><rect x="2927.78" y="862.5" width="518.519" height="125" style="fill:#7b9ff9;fill-rule:nonzero;"/><rect x="650" y="862.5" width="944.444" height="125" style="fill:#ee8468;fill-rule:nonzero;"/><rect x="538.889" y="862.5" width="111.111" height="125" style="fill:#b40426;fill-rule:nonzero;"/></g><g><text x="2835.14px" y="536.111px" style="font-family:'ArialMT', 'Arial', sans-serif;font-size:83.333px;">21</text><text x="4816.62px" y="536.111px" style="font-family:'ArialMT', 'Arial', sans-serif;font-size:83.333px;">48</text><text x="2446.25px" y="536.111px" style="font-family:'ArialMT', 'Arial', sans-serif;font-size:83.333px;">33</text><text x="3927.73px" y="536.111px" style="font-family:'ArialMT', 'Arial', sans-serif;font-size:83.333px;">59</text><text x="1835.13px" y="536.111px" style="font-family:'ArialMT', 'Arial', sans-serif;font-size:83.333px;">49</text><text x="927.728px" y="536.111px" style="font-family:'ArialMT', 'Arial', sans-serif;font-size:83.333px;">28</text><text x="3798.1px" y="258.333px" style="font-family:'ArialMT', 'Arial', sans-serif;font-size:83.333px;">47</text><text x="5705.51px" y="258.333px" style="font-family:'ArialMT', 'Arial', sans-serif;font-size:83.333px;">42</text><text x="2927.73px" y="258.333px" style="font-family:'ArialMT', 'Arial', sans-serif;font-size:83.333px;">46</text><text x="4927.73px" y="258.333px" style="font-family:'ArialMT', 'Arial', sans-serif;font-size:83.333px;">61</text><text x="2075.88px" y="258.333px" style="font-family:'ArialMT', 'Arial', sans-serif;font-size:83.333px;">53</text><text x="1094.39px" y="258.333px" style="font-family:'ArialMT', 'Arial', sans-serif;font-size:83.333px;">37</text><text x="3020.32px" y="675px" style="font-family:'ArialMT', 'Arial', sans-serif;font-size:83.333px;">37</text><text x="4575.88px" y="675px" style="font-family:'ArialMT', 'Arial', sans-serif;font-size:83.333px;">49</text><text x="2335.14px" y="675px" style="font-family:'ArialMT', 'Arial', sans-serif;font-size:83.333px;">20</text><text x="3668.47px" y="675px" style="font-family:'ArialMT', 'Arial', sans-serif;font-size:83.333px;">35</text><text x="1964.77px" y="675px" style="font-family:'ArialMT', 'Arial', sans-serif;font-size:83.333px;">42</text><text x="1186.99px" y="675px" style="font-family:'ArialMT', 'Arial', sans-serif;font-size:83.333px;">42</text><text x="3464.76px" y="397.222px" style="font-family:'ArialMT', 'Arial', sans-serif;font-size:83.333px;">59</text><text x="4890.69px" y="397.222px" style="font-family:'ArialMT', 'Arial', sans-serif;font-size:83.333px;">66</text><text x="2372.17px" y="397.222px" style="font-family:'ArialMT', 'Arial', sans-serif;font-size:83.333px;">35</text><text x="3671.56px" y="397.222px" style="font-family:'ArialMT', 'Arial', sans-serif;font-size:83.333px;">1<tspan x="3711.72px " y="397.222px ">1</tspan></text><text x="1724.02px" y="397.222px" style="font-family:'ArialMT', 'Arial', sans-serif;font-size:83.333px;">43</text><text x="927.728px" y="397.222px" style="font-family:'ArialMT', 'Arial', sans-serif;font-size:83.333px;">28</text><text x="4094.39px" y="813.889px" style="font-family:'ArialMT', 'Arial', sans-serif;font-size:83.333px;">46</text><text x="5798.1px" y="813.889px" style="font-family:'ArialMT', 'Arial', sans-serif;font-size:83.333px;">51</text><text x="3242.54px" y="813.889px" style="font-family:'ArialMT', 'Arial', sans-serif;font-size:83.333px;">37</text><text x="4853.65px" y="813.889px" style="font-family:'ArialMT', 'Arial', sans-serif;font-size:83.333px;">41</text><text x="2557.36px" y="813.889px" style="font-family:'ArialMT', 'Arial', sans-serif;font-size:83.333px;">69</text><text x="1279.58px" y="813.889px" style="font-family:'ArialMT', 'Arial', sans-serif;font-size:83.333px;">47</text><text x="2798.1px" y="952.778px" style="font-family:'ArialMT', 'Arial', sans-serif;font-size:83.333px;">31</text><text x="4057.36px" y="952.778px" style="font-family:'ArialMT', 'Arial', sans-serif;font-size:83.333px;">40</text><text x="2224.02px" y="952.778px" style="font-family:'ArialMT', 'Arial', sans-serif;font-size:83.333px;">41</text><text x="3316.62px" y="952.778px" style="font-family:'ArialMT', 'Arial', sans-serif;font-size:83.333px;">28</text><text x="1464.77px" y="952.778px" style="font-family:'ArialMT', 'Arial', sans-serif;font-size:83.333px;">51</text><text x="543.494px" y="952.778px" style="font-family:'ArialMT', 'Arial', sans-serif;font-size:83.333px;">6</text></g><rect x="6194.44" y="161.111" width="566.667" height="511.111" style="fill:none;fill-rule:nonzero;"/><g><rect x="6194.44" y="395.025" width="561.328" height="61.111" style="fill:none;fill-rule:nonzero;"/><g><g><rect x="6200" y="400.581" width="55.556" height="55.556" style="fill:#c0d4f5;fill-rule:nonzero;"/></g><g><text x="6283.33px" y="445.025px" style="font-family:'ArialMT', 'Arial', sans-serif;font-size:55.556px;">Overlaps Liver</text></g></g></g><g><rect x="6194.44" y="250" width="561.328" height="61.111" style="fill:none;fill-rule:nonzero;"/><g><g><rect x="6200" y="255.556" width="55.556" height="55.556" style="fill:#3b4cc0;fill-rule:nonzero;"/></g><g><text x="6283.33px" y="300px" style="font-family:'ArialMT', 'Arial', sans-serif;font-size:55.556px;">Overlaps Heart</text></g></g></g><g><rect x="6194.44" y="466.667" width="561.328" height="61.111" style="fill:none;fill-rule:nonzero;"/><g><g><rect x="6200" y="472.222" width="55.556" height="55.556" style="fill:#f2cbb7;fill-rule:nonzero;"/></g><g><text x="6283.33px" y="516.667px" style="font-family:'ArialMT', 'Arial', sans-serif;font-size:55.556px;">Overlaps Lung</text></g></g></g><g><rect x="6194.44" y="322.222" width="561.328" height="61.111" style="fill:none;fill-rule:nonzero;"/><g><g><rect x="6200" y="327.778" width="55.556" height="55.556" style="fill:#7b9ff9;fill-rule:nonzero;"/></g><g><text x="6283.33px" y="372.222px" style="font-family:'ArialMT', 'Arial', sans-serif;font-size:55.556px;">Overlaps Kidney</text></g></g></g><g><rect x="6194.44" y="538.889" width="561.328" height="61.111" style="fill:none;fill-rule:nonzero;"/><g><g><rect x="6200" y="544.444" width="55.556" height="55.556" style="fill:#ee8468;fill-rule:nonzero;"/></g><g><text x="6283.33px" y="588.889px" style="font-family:'ArialMT', 'Arial', sans-serif;font-size:55.556px;">Overlaps Pancreas</text></g></g></g><g><rect x="6194.44" y="611.111" width="561.328" height="61.111" style="fill:none;fill-rule:nonzero;"/><g><g><rect x="6200" y="616.667" width="55.556" height="55.556" style="fill:#b40426;fill-rule:nonzero;"/></g><g><text x="6283.33px" y="661.111px" style="font-family:'ArialMT', 'Arial', sans-serif;font-size:55.556px;">Overlaps Spleen</text></g></g></g><g><text x="6194.44px" y="211.111px" style="font-family:'Arial-BoldMT', 'Arial', sans-serif;font-weight:700;font-size:61.111px;">Compared T<tspan x="6549.86px 6566.84px " y="211.111px 211.111px ">is</tspan>sue</text></g><g><g><g><g><text x="2277.25px" y="116.667px" style="font-family:'Arial-BoldMT', 'Arial', sans-serif;font-weight:700;font-size:111.111px;">Shared Proteins Between Organ T<tspan x="4071.96px 4102.83px " y="116.667px 116.667px ">is</tspan>sue</text></g></g></g></g></svg>