<svg class="marks" width="1222" height="226" viewBox="0 0 1222 226" version="1.1" xmlns="http://www.w3.org/2000/svg" xmlns:xlink="http://www.w3.org/1999/xlink"><rect width="1222" height="226" style="fill: white;"></rect><g transform="translate(97,29)"><g class="mark-group role-frame root"><g transform="translate(0,0)"><path class="background" d="M0.5,0.5h1000v150h-1000Z" style="fill: none; stroke: #ddd;"></path><g><g class="mark-group role-axis"><g transform="translate(0.5,150.5)"><path class="background" d="M0,0h0v0h0Z" style="pointer-events: none; fill: none;"></path><g><g class="mark-rule role-axis-grid" style="pointer-events: none;"><line transform="translate(0,0)" x2="0" y2="-150" style="fill: none; stroke: #ddd; stroke-width: 1; opacity: 1;"></line><line transform="translate(67,0)" x2="0" y2="-150" style="fill: none; stroke: #ddd; stroke-width: 1; opacity: 1;"></line><line transform="translate(133,0)" x2="0" y2="-150" style="fill: none; stroke: #ddd; stroke-width: 1; opacity: 1;"></line><line transform="translate(200,0)" x2="0" y2="-150" style="fill: none; stroke: #ddd; stroke-width: 1; opacity: 1;"></line><line transform="translate(267,0)" x2="0" y2="-150" style="fill: none; stroke: #ddd; stroke-width: 1; opacity: 1;"></line><line transform="translate(333,0)" x2="0" y2="-150" style="fill: none; stroke: #ddd; stroke-width: 1; opacity: 1;"></line><line transform="translate(400,0)" x2="0" y2="-150" style="fill: none; stroke: #ddd; stroke-width: 1; opacity: 1;"></line><line transform="translate(467,0)" x2="0" y2="-150" style="fill: none; stroke: #ddd; stroke-width: 1; opacity: 1;"></line><line transform="translate(533,0)" x2="0" y2="-150" style="fill: none; stroke: #ddd; stroke-width: 1; opacity: 1;"></line><line transform="translate(600,0)" x2="0" y2="-150" style="fill: none; stroke: #ddd; stroke-width: 1; opacity: 1;"></line><line transform="translate(667,0)" x2="0" y2="-150" style="fill: none; stroke: #ddd; stroke-width: 1; opacity: 1;"></line><line transform="translate(733,0)" x2="0" y2="-150" style="fill: none; stroke: #ddd; stroke-width: 1; opacity: 1;"></line><line transform="translate(800,0)" x2="0" y2="-150" style="fill: none; stroke: #ddd; stroke-width: 1; opacity: 1;"></line><line transform="translate(867,0)" x2="0" y2="-150" style="fill: none; stroke: #ddd; stroke-width: 1; opacity: 1;"></line><line transform="translate(933,0)" x2="0" y2="-150" style="fill: none; stroke: #ddd; stroke-width: 1; opacity: 1;"></line><line transform="translate(1000,0)" x2="0" y2="-150" style="fill: none; stroke: #ddd; stroke-width: 1; opacity: 1;"></line></g></g><path class="foreground" d="" style="pointer-events: none; display: none; fill: none;"></path></g></g><g class="mark-group role-axis"><g transform="translate(0.5,150.5)"><path class="background" d="M0,0h0v0h0Z" style="pointer-events: none; fill: none;"></path><g><g class="mark-rule role-axis-tick" style="pointer-events: none;"><line transform="translate(0,0)" x2="0" y2="5" style="fill: none; stroke: #888; stroke-width: 1; opacity: 1;"></line><line transform="translate(67,0)" x2="0" y2="5" style="fill: none; stroke: #888; stroke-width: 1; opacity: 1;"></line><line transform="translate(133,0)" x2="0" y2="5" style="fill: none; stroke: #888; stroke-width: 1; opacity: 1;"></line><line transform="translate(200,0)" x2="0" y2="5" style="fill: none; stroke: #888; stroke-width: 1; opacity: 1;"></line><line transform="translate(267,0)" x2="0" y2="5" style="fill: none; stroke: #888; stroke-width: 1; opacity: 1;"></line><line transform="translate(333,0)" x2="0" y2="5" style="fill: none; stroke: #888; stroke-width: 1; opacity: 1;"></line><line transform="translate(400,0)" x2="0" y2="5" style="fill: none; stroke: #888; stroke-width: 1; opacity: 1;"></line><line transform="translate(467,0)" x2="0" y2="5" style="fill: none; stroke: #888; stroke-width: 1; opacity: 1;"></line><line transform="translate(533,0)" x2="0" y2="5" style="fill: none; stroke: #888; stroke-width: 1; opacity: 1;"></line><line transform="translate(600,0)" x2="0" y2="5" style="fill: none; stroke: #888; stroke-width: 1; opacity: 1;"></line><line transform="translate(667,0)" x2="0" y2="5" style="fill: none; stroke: #888; stroke-width: 1; opacity: 1;"></line><line transform="translate(733,0)" x2="0" y2="5" style="fill: none; stroke: #888; stroke-width: 1; opacity: 1;"></line><line transform="translate(800,0)" x2="0" y2="5" style="fill: none; stroke: #888; stroke-width: 1; opacity: 1;"></line><line transform="translate(867,0)" x2="0" y2="5" style="fill: none; stroke: #888; stroke-width: 1; opacity: 1;"></line><line transform="translate(933,0)" x2="0" y2="5" style="fill: none; stroke: #888; stroke-width: 1; opacity: 1;"></line><line transform="translate(1000,0)" x2="0" y2="5" style="fill: none; stroke: #888; stroke-width: 1; opacity: 1;"></line></g><g class="mark-text role-axis-label" style="pointer-events: none;"><text text-anchor="start" transform="translate(0,23)" style="font-family: sans-serif; font-size: 20px; fill: #000; opacity: 1;">0</text><text text-anchor="middle" transform="translate(66.66666666666667,23)" style="font-family: sans-serif; font-size: 20px; fill: #000; opacity: 1;">20</text><text text-anchor="middle" transform="translate(133.33333333333334,23)" style="font-family: sans-serif; font-size: 20px; fill: #000; opacity: 1;">40</text><text text-anchor="middle" transform="translate(200,23)" style="font-family: sans-serif; font-size: 20px; fill: #000; opacity: 1;">60</text><text text-anchor="middle" transform="translate(266.6666666666667,23)" style="font-family: sans-serif; font-size: 20px; fill: #000; opacity: 1;">80</text><text text-anchor="middle" transform="translate(333.3333333333333,23)" style="font-family: sans-serif; font-size: 20px; fill: #000; opacity: 1;">100</text><text text-anchor="middle" transform="translate(400,23)" style="font-family: sans-serif; font-size: 20px; fill: #000; opacity: 1;">120</text><text text-anchor="middle" transform="translate(466.6666666666667,23)" style="font-family: sans-serif; font-size: 20px; fill: #000; opacity: 1;">140</text><text text-anchor="middle" transform="translate(533.3333333333334,23)" style="font-family: sans-serif; font-size: 20px; fill: #000; opacity: 1;">160</text><text text-anchor="middle" transform="translate(600,23)" style="font-family: sans-serif; font-size: 20px; fill: #000; opacity: 1;">180</text><text text-anchor="middle" transform="translate(666.6666666666666,23)" style="font-family: sans-serif; font-size: 20px; fill: #000; opacity: 1;">200</text><text text-anchor="middle" transform="translate(733.3333333333333,23)" style="font-family: sans-serif; font-size: 20px; fill: #000; opacity: 1;">220</text><text text-anchor="middle" transform="translate(800,23)" style="font-family: sans-serif; font-size: 20px; fill: #000; opacity: 1;">240</text><text text-anchor="middle" transform="translate(866.6666666666667,23)" style="font-family: sans-serif; font-size: 20px; fill: #000; opacity: 1;">260</text><text text-anchor="middle" transform="translate(933.3333333333334,23)" style="font-family: sans-serif; font-size: 20px; fill: #000; opacity: 1;">280</text><text text-anchor="end" transform="translate(1000,23)" style="font-family: sans-serif; font-size: 20px; fill: #000; opacity: 1;">300</text></g><g class="mark-rule role-axis-domain" style="pointer-events: none;"><line transform="translate(0,0)" x2="1000" y2="0" style="fill: none; stroke: #888; stroke-width: 1; opacity: 1;"></line></g><g class="mark-text role-axis-title" style="pointer-events: none;"><text text-anchor="middle" transform="translate(500,40)" style="font-family: sans-serif; font-size: 11px; font-weight: bold; fill: #000; opacity: 1;">Number of Overlapping Proteins</text></g></g><path class="foreground" d="" style="pointer-events: none; display: none; fill: none;"></path></g></g><g class="mark-group role-axis"><g transform="translate(0.5,0.5)"><path class="background" d="M0,0h0v0h0Z" style="pointer-events: none; fill: none;"></path><g><g class="mark-rule role-axis-tick" style="pointer-events: none;"><line transform="translate(0,12)" x2="-5" y2="0" style="fill: none; stroke: #888; stroke-width: 1; opacity: 1;"></line><line transform="translate(0,37)" x2="-5" y2="0" style="fill: none; stroke: #888; stroke-width: 1; opacity: 1;"></line><line transform="translate(0,62)" x2="-5" y2="0" style="fill: none; stroke: #888; stroke-width: 1; opacity: 1;"></line><line transform="translate(0,87)" x2="-5" y2="0" style="fill: none; stroke: #888; stroke-width: 1; opacity: 1;"></line><line transform="translate(0,112)" x2="-5" y2="0" style="fill: none; stroke: #888; stroke-width: 1; opacity: 1;"></line><line transform="translate(0,137)" x2="-5" y2="0" style="fill: none; stroke: #888; stroke-width: 1; opacity: 1;"></line></g><g class="mark-text role-axis-label" style="pointer-events: none;"><text text-anchor="end" transform="translate(-7,18)" style="font-family: sans-serif; font-size: 20px; fill: #000; opacity: 1;">Heart</text><text text-anchor="end" transform="translate(-7,43)" style="font-family: sans-serif; font-size: 20px; fill: #000; opacity: 1;">Kidney</text><text text-anchor="end" transform="translate(-7,68)" style="font-family: sans-serif; font-size: 20px; fill: #000; opacity: 1;">Liver</text><text text-anchor="end" transform="translate(-7,93)" style="font-family: sans-serif; font-size: 20px; fill: #000; opacity: 1;">Lung</text><text text-anchor="end" transform="translate(-7,118)" style="font-family: sans-serif; font-size: 20px; fill: #000; opacity: 1;">Pancreas</text><text text-anchor="end" transform="translate(-7,143)" style="font-family: sans-serif; font-size: 20px; fill: #000; opacity: 1;">Spleen</text></g><g class="mark-rule role-axis-domain" style="pointer-events: none;"><line transform="translate(0,0)" x2="0" y2="150" style="fill: none; stroke: #888; stroke-width: 1; opacity: 1;"></line></g></g><path class="foreground" d="" style="pointer-events: none; display: none; fill: none;"></path></g></g><g class="mark-rect role-mark layer_0_marks"><path d="M366.66666666666663,51.25h70v22.5h-70Z" style="fill: #3b4cc0;"></path><path d="M633.3333333333333,51.25h160.0000000000001v22.5h-160.0000000000001Z" style="fill: #7b9ff9;"></path><path d="M256.66666666666663,51.25h110v22.5h-110Z" style="fill: #c0d4f5;"></path><path d="M436.66666666666663,51.25h196.66666666666663v22.5h-196.66666666666663Z" style="fill: #f2cbb7;"></path><path d="M93.33333333333334,51.25h163.3333333333333v22.5h-163.3333333333333Z" style="fill: #ee8468;"></path><path d="M0,51.25h93.33333333333334v22.5h-93.33333333333334Z" style="fill: #b40426;"></path><path d="M453.3333333333333,1.25h156.66666666666669v22.5h-156.66666666666669Z" style="fill: #3b4cc0;"></path><path d="M813.3333333333334,1.25h140v22.5h-140Z" style="fill: #7b9ff9;"></path><path d="M300,1.25h153.33333333333331v22.5h-153.33333333333331Z" style="fill: #c0d4f5;"></path><path d="M610,1.25h203.33333333333337v22.5h-203.33333333333337Z" style="fill: #f2cbb7;"></path><path d="M123.33333333333334,1.25h176.66666666666666v22.5h-176.66666666666666Z" style="fill: #ee8468;"></path><path d="M0,1.25h123.33333333333334v22.5h-123.33333333333334Z" style="fill: #b40426;"></path><path d="M346.6666666666667,76.25h123.33333333333331v22.5h-123.33333333333331Z" style="fill: #3b4cc0;"></path><path d="M586.6666666666666,76.25h163.33333333333337v22.5h-163.33333333333337Z" style="fill: #7b9ff9;"></path><path d="M280,76.25h66.66666666666669v22.5h-66.66666666666669Z" style="fill: #c0d4f5;"></path><path d="M470,76.25h116.66666666666663v22.5h-116.66666666666663Z" style="fill: #f2cbb7;"></path><path d="M140,76.25h140v22.5h-140Z" style="fill: #ee8468;"></path><path d="M0,76.25h140v22.5h-140Z" style="fill: #b40426;"></path><path d="M353.3333333333333,26.25h196.66666666666669v22.5h-196.66666666666669Z" style="fill: #3b4cc0;"></path><path d="M586.6666666666666,26.25h220v22.5h-220Z" style="fill: #7b9ff9;"></path><path d="M236.66666666666666,26.25h116.66666666666666v22.5h-116.66666666666666Z" style="fill: #c0d4f5;"></path><path d="M550,26.25h36.66666666666663v22.5h-36.66666666666663Z" style="fill: #f2cbb7;"></path><path d="M93.33333333333334,26.25h143.33333333333331v22.5h-143.33333333333331Z" style="fill: #ee8468;"></path><path d="M0,26.25h93.33333333333334v22.5h-93.33333333333334Z" style="fill: #b40426;"></path><path d="M510,101.25h153.33333333333337v22.5h-153.33333333333337Z" style="fill: #3b4cc0;"></path><path d="M800,101.25h170v22.5h-170Z" style="fill: #7b9ff9;"></path><path d="M386.6666666666667,101.25h123.33333333333331v22.5h-123.33333333333331Z" style="fill: #c0d4f5;"></path><path d="M663.3333333333334,101.25h136.66666666666663v22.5h-136.66666666666663Z" style="fill: #f2cbb7;"></path><path d="M156.66666666666669,101.25h230v22.5h-230Z" style="fill: #ee8468;"></path><path d="M0,101.25h156.66666666666669v22.5h-156.66666666666669Z" style="fill: #b40426;"></path><path d="M326.6666666666667,126.25h103.33333333333331v22.5h-103.33333333333331Z" style="fill: #3b4cc0;"></path><path d="M523.3333333333334,126.25h133.33333333333326v22.5h-133.33333333333326Z" style="fill: #7b9ff9;"></path><path d="M190,126.25h136.66666666666669v22.5h-136.66666666666669Z" style="fill: #c0d4f5;"></path><path d="M430,126.25h93.33333333333337v22.5h-93.33333333333337Z" style="fill: #f2cbb7;"></path><path d="M20,126.25h170v22.5h-170Z" style="fill: #ee8468;"></path><path d="M0,126.25h20v22.5h-20Z" style="fill: #b40426;"></path></g><g class="mark-text role-mark layer_1_marks"><text text-anchor="middle" transform="translate(421.66666666666663,67.5)" style="font-family: sans-serif; font-size: 15px; fill: black;">21</text><text text-anchor="middle" transform="translate(778.3333333333334,67.5)" style="font-family: sans-serif; font-size: 15px; fill: black;">48</text><text text-anchor="middle" transform="translate(351.66666666666663,67.5)" style="font-family: sans-serif; font-size: 15px; fill: black;">33</text><text text-anchor="middle" transform="translate(618.3333333333333,67.5)" style="font-family: sans-serif; font-size: 15px; fill: black;">59</text><text text-anchor="middle" transform="translate(241.66666666666663,67.5)" style="font-family: sans-serif; font-size: 15px; fill: black;">49</text><text text-anchor="middle" transform="translate(78.33333333333334,67.5)" style="font-family: sans-serif; font-size: 15px; fill: black;">28</text><text text-anchor="middle" transform="translate(595,17.5)" style="font-family: sans-serif; font-size: 15px; fill: black;">47</text><text text-anchor="middle" transform="translate(938.3333333333334,17.5)" style="font-family: sans-serif; font-size: 15px; fill: black;">42</text><text text-anchor="middle" transform="translate(438.3333333333333,17.5)" style="font-family: sans-serif; font-size: 15px; fill: black;">46</text><text text-anchor="middle" transform="translate(798.3333333333334,17.5)" style="font-family: sans-serif; font-size: 15px; fill: black;">61</text><text text-anchor="middle" transform="translate(285,17.5)" style="font-family: sans-serif; font-size: 15px; fill: black;">53</text><text text-anchor="middle" transform="translate(108.33333333333334,17.5)" style="font-family: sans-serif; font-size: 15px; fill: black;">37</text><text text-anchor="middle" transform="translate(455,92.5)" style="font-family: sans-serif; font-size: 15px; fill: black;">37</text><text text-anchor="middle" transform="translate(735,92.5)" style="font-family: sans-serif; font-size: 15px; fill: black;">49</text><text text-anchor="middle" transform="translate(331.6666666666667,92.5)" style="font-family: sans-serif; font-size: 15px; fill: black;">20</text><text text-anchor="middle" transform="translate(571.6666666666666,92.5)" style="font-family: sans-serif; font-size: 15px; fill: black;">35</text><text text-anchor="middle" transform="translate(265,92.5)" style="font-family: sans-serif; font-size: 15px; fill: black;">42</text><text text-anchor="middle" transform="translate(125,92.5)" style="font-family: sans-serif; font-size: 15px; fill: black;">42</text><text text-anchor="middle" transform="translate(535,42.5)" style="font-family: sans-serif; font-size: 15px; fill: black;">59</text><text text-anchor="middle" transform="translate(791.6666666666666,42.5)" style="font-family: sans-serif; font-size: 15px; fill: black;">66</text><text text-anchor="middle" transform="translate(338.3333333333333,42.5)" style="font-family: sans-serif; font-size: 15px; fill: black;">35</text><text text-anchor="middle" transform="translate(571.6666666666666,42.5)" style="font-family: sans-serif; font-size: 15px; fill: black;">11</text><text text-anchor="middle" transform="translate(221.66666666666666,42.5)" style="font-family: sans-serif; font-size: 15px; fill: black;">43</text><text text-anchor="middle" transform="translate(78.33333333333334,42.5)" style="font-family: sans-serif; font-size: 15px; fill: black;">28</text><text text-anchor="middle" transform="translate(648.3333333333334,117.5)" style="font-family: sans-serif; font-size: 15px; fill: black;">46</text><text text-anchor="middle" transform="translate(955,117.5)" style="font-family: sans-serif; font-size: 15px; fill: black;">51</text><text text-anchor="middle" transform="translate(495,117.5)" style="font-family: sans-serif; font-size: 15px; fill: black;">37</text><text text-anchor="middle" transform="translate(785,117.5)" style="font-family: sans-serif; font-size: 15px; fill: black;">41</text><text text-anchor="middle" transform="translate(371.6666666666667,117.5)" style="font-family: sans-serif; font-size: 15px; fill: black;">69</text><text text-anchor="middle" transform="translate(141.66666666666669,117.5)" style="font-family: sans-serif; font-size: 15px; fill: black;">47</text><text text-anchor="middle" transform="translate(415,142.5)" style="font-family: sans-serif; font-size: 15px; fill: black;">31</text><text text-anchor="middle" transform="translate(641.6666666666666,142.5)" style="font-family: sans-serif; font-size: 15px; fill: black;">40</text><text text-anchor="middle" transform="translate(311.6666666666667,142.5)" style="font-family: sans-serif; font-size: 15px; fill: black;">41</text><text text-anchor="middle" transform="translate(508.33333333333337,142.5)" style="font-family: sans-serif; font-size: 15px; fill: black;">28</text><text text-anchor="middle" transform="translate(175,142.5)" style="font-family: sans-serif; font-size: 15px; fill: black;">51</text><text text-anchor="middle" transform="translate(5,142.5)" style="font-family: sans-serif; font-size: 15px; fill: black;">6</text></g><g class="mark-group role-legend"><g transform="translate(1018,0)"><path class="background" d="M0,0h102v92h-102Z" style="pointer-events: none; fill: none;"></path><g><g class="mark-group role-legend-entry"><g transform="translate(0,16)"><path class="background" d="M0,0h0v0h0Z" style="pointer-events: none; fill: none;"></path><g><g class="mark-group role-scope"><g transform="translate(0,0)"><path class="background" d="M0,0h101.0390625v11h-101.0390625Z" style="pointer-events: none; fill: none; opacity: 1;"></path><g><g class="mark-symbol role-legend-symbol" style="pointer-events: none;"><path transform="translate(6,6)" d="M-5,-5h10v10h-10Z" style="fill: #3b4cc0; stroke-width: 1.5; opacity: 1;"></path></g><g class="mark-text role-legend-label" style="pointer-events: none;"><text text-anchor="start" transform="translate(16,9)" style="font-family: sans-serif; font-size: 10px; fill: #000; opacity: 1;">Overlaps Liver</text></g></g><path class="foreground" d="" style="pointer-events: none; display: none; fill: none;"></path></g><g transform="translate(0,13)"><path class="background" d="M0,0h101.0390625v11h-101.0390625Z" style="pointer-events: none; fill: none; opacity: 1;"></path><g><g class="mark-symbol role-legend-symbol" style="pointer-events: none;"><path transform="translate(6,6)" d="M-5,-5h10v10h-10Z" style="fill: #7b9ff9; stroke-width: 1.5; opacity: 1;"></path></g><g class="mark-text role-legend-label" style="pointer-events: none;"><text text-anchor="start" transform="translate(16,9)" style="font-family: sans-serif; font-size: 10px; fill: #000; opacity: 1;">Overlaps Heart</text></g></g><path class="foreground" d="" style="pointer-events: none; display: none; fill: none;"></path></g><g transform="translate(0,26)"><path class="background" d="M0,0h101.0390625v11h-101.0390625Z" style="pointer-events: none; fill: none; opacity: 1;"></path><g><g class="mark-symbol role-legend-symbol" style="pointer-events: none;"><path transform="translate(6,6)" d="M-5,-5h10v10h-10Z" style="fill: #c0d4f5; stroke-width: 1.5; opacity: 1;"></path></g><g class="mark-text role-legend-label" style="pointer-events: none;"><text text-anchor="start" transform="translate(16,9)" style="font-family: sans-serif; font-size: 10px; fill: #000; opacity: 1;">Overlaps Lung</text></g></g><path class="foreground" d="" style="pointer-events: none; display: none; fill: none;"></path></g><g transform="translate(0,39)"><path class="background" d="M0,0h101.0390625v11h-101.0390625Z" style="pointer-events: none; fill: none; opacity: 1;"></path><g><g class="mark-symbol role-legend-symbol" style="pointer-events: none;"><path transform="translate(6,6)" d="M-5,-5h10v10h-10Z" style="fill: #f2cbb7; stroke-width: 1.5; opacity: 1;"></path></g><g class="mark-text role-legend-label" style="pointer-events: none;"><text text-anchor="start" transform="translate(16,9)" style="font-family: sans-serif; font-size: 10px; fill: #000; opacity: 1;">Overlaps Kidney</text></g></g><path class="foreground" d="" style="pointer-events: none; display: none; fill: none;"></path></g><g transform="translate(0,52)"><path class="background" d="M0,0h101.0390625v11h-101.0390625Z" style="pointer-events: none; fill: none; opacity: 1;"></path><g><g class="mark-symbol role-legend-symbol" style="pointer-events: none;"><path transform="translate(6,6)" d="M-5,-5h10v10h-10Z" style="fill: #ee8468; stroke-width: 1.5; opacity: 1;"></path></g><g class="mark-text role-legend-label" style="pointer-events: none;"><text text-anchor="start" transform="translate(16,9)" style="font-family: sans-serif; font-size: 10px; fill: #000; opacity: 1;">Overlaps Pancreas</text></g></g><path class="foreground" d="" style="pointer-events: none; display: none; fill: none;"></path></g><g transform="translate(0,65)"><path class="background" d="M0,0h101.0390625v11h-101.0390625Z" style="pointer-events: none; fill: none; opacity: 1;"></path><g><g class="mark-symbol role-legend-symbol" style="pointer-events: none;"><path transform="translate(6,6)" d="M-5,-5h10v10h-10Z" style="fill: #b40426; stroke-width: 1.5; opacity: 1;"></path></g><g class="mark-text role-legend-label" style="pointer-events: none;"><text text-anchor="start" transform="translate(16,9)" style="font-family: sans-serif; font-size: 10px; fill: #000; opacity: 1;">Overlaps Spleen</text></g></g><path class="foreground" d="" style="pointer-events: none; display: none; fill: none;"></path></g></g></g><path class="foreground" d="" style="pointer-events: none; display: none; fill: none;"></path></g></g><g class="mark-text role-legend-title" style="pointer-events: none;"><text text-anchor="start" transform="translate(0,9)" style="font-family: sans-serif; font-size: 11px; font-weight: bold; fill: #000; opacity: 1;">Compared Tissue</text></g></g><path class="foreground" d="" style="pointer-events: none; display: none; fill: none;"></path></g></g><g class="mark-group role-title"><g transform="translate(500,-24)"><path class="background" d="M0,0h0v0h0Z" style="pointer-events: none; fill: none;"></path><g><g class="mark-text role-title-text" style="pointer-events: none;"><text text-anchor="middle" transform="translate(0,16)" style="font-family: sans-serif; font-size: 20px; font-weight: bold; fill: #000; opacity: 1;">Shared Proteins Between Organ Tissue</text></g></g><path class="foreground" d="" style="pointer-events: none; display: none; fill: none;"></path></g></g></g><path class="foreground" d="" style="display: none; fill: none;"></path></g></g></g></svg>