<?xml version="1.0" encoding="UTF-8" standalone="no"?><!DOCTYPE svg PUBLIC "-//W3C//DTD SVG 1.1//EN" "http://www.w3.org/Graphics/SVG/1.1/DTD/svg11.dtd"><svg width="100%" height="100%" viewBox="0 0 6789 1256" version="1.1" xmlns="http://www.w3.org/2000/svg" xmlns:xlink="http://www.w3.org/1999/xlink" xml:space="preserve" xmlns:serif="http://www.serif.com/" style="fill-rule:evenodd;clip-rule:evenodd;"><rect x="0" y="0" width="6788.89" height="1255.56" style="fill:#fff;"/><rect x="541.667" y="163.889" width="5555.56" height="833.333" style="fill:none;fill-rule:nonzero;stroke:#ddd;stroke-width:5.56px;"/><g><g><g><path d="M541.667,997.222l-0,-833.333" style="fill:none;fill-rule:nonzero;stroke:#ddd;stroke-width:5.56px;"/><path d="M1097.22,997.222l0,-833.333" style="fill:none;fill-rule:nonzero;stroke:#ddd;stroke-width:5.56px;"/><path d="M1652.78,997.222l-0,-833.333" style="fill:none;fill-rule:nonzero;stroke:#ddd;stroke-width:5.56px;"/><path d="M2208.33,997.222l0,-833.333" style="fill:none;fill-rule:nonzero;stroke:#ddd;stroke-width:5.56px;"/><path d="M2763.89,997.222l-0,-833.333" style="fill:none;fill-rule:nonzero;stroke:#ddd;stroke-width:5.56px;"/><path d="M3319.44,997.222l0,-833.333" style="fill:none;fill-rule:nonzero;stroke:#ddd;stroke-width:5.56px;"/><path d="M3875,997.222l0,-833.333" style="fill:none;fill-rule:nonzero;stroke:#ddd;stroke-width:5.56px;"/><path d="M4430.56,997.222l-0,-833.333" style="fill:none;fill-rule:nonzero;stroke:#ddd;stroke-width:5.56px;"/><path d="M4986.11,997.222l0,-833.333" style="fill:none;fill-rule:nonzero;stroke:#ddd;stroke-width:5.56px;"/><path d="M5541.67,997.222l-0,-833.333" style="fill:none;fill-rule:nonzero;stroke:#ddd;stroke-width:5.56px;"/><path d="M6097.22,997.222l0,-833.333" style="fill:none;fill-rule:nonzero;stroke:#ddd;stroke-width:5.56px;"/></g></g></g><g><g><g><path d="M541.667,997.222l-0,27.778" style="fill:none;fill-rule:nonzero;stroke:#888;stroke-width:5.56px;"/><path d="M1097.22,997.222l0,27.778" style="fill:none;fill-rule:nonzero;stroke:#888;stroke-width:5.56px;"/><path d="M1652.78,997.222l-0,27.778" style="fill:none;fill-rule:nonzero;stroke:#888;stroke-width:5.56px;"/><path d="M2208.33,997.222l0,27.778" style="fill:none;fill-rule:nonzero;stroke:#888;stroke-width:5.56px;"/><path d="M2763.89,997.222l-0,27.778" style="fill:none;fill-rule:nonzero;stroke:#888;stroke-width:5.56px;"/><path d="M3319.44,997.222l0,27.778" style="fill:none;fill-rule:nonzero;stroke:#888;stroke-width:5.56px;"/><path d="M3875,997.222l0,27.778" style="fill:none;fill-rule:nonzero;stroke:#888;stroke-width:5.56px;"/><path d="M4430.56,997.222l-0,27.778" style="fill:none;fill-rule:nonzero;stroke:#888;stroke-width:5.56px;"/><path d="M4986.11,997.222l0,27.778" style="fill:none;fill-rule:nonzero;stroke:#888;stroke-width:5.56px;"/><path d="M5541.67,997.222l-0,27.778" style="fill:none;fill-rule:nonzero;stroke:#888;stroke-width:5.56px;"/><path d="M6097.22,997.222l0,27.778" style="fill:none;fill-rule:nonzero;stroke:#888;stroke-width:5.56px;"/></g><g><text x="541.667px" y="1125px" style="font-family:'ArialMT', 'Arial', sans-serif;font-size:111.111px;">0</text><text x="1035.43px" y="1125px" style="font-family:'ArialMT', 'Arial', sans-serif;font-size:111.111px;">20</text><text x="1590.98px" y="1125px" style="font-family:'ArialMT', 'Arial', sans-serif;font-size:111.111px;">40</text><text x="2146.54px" y="1125px" style="font-family:'ArialMT', 'Arial', sans-serif;font-size:111.111px;">60</text><text x="2702.09px" y="1125px" style="font-family:'ArialMT', 'Arial', sans-serif;font-size:111.111px;">80</text><text x="3226.75px" y="1125px" style="font-family:'ArialMT', 'Arial', sans-serif;font-size:111.111px;">100</text><text x="3782.31px" y="1125px" style="font-family:'ArialMT', 'Arial', sans-serif;font-size:111.111px;">120</text><text x="4337.86px" y="1125px" style="font-family:'ArialMT', 'Arial', sans-serif;font-size:111.111px;">140</text><text x="4893.42px" y="1125px" style="font-family:'ArialMT', 'Arial', sans-serif;font-size:111.111px;">160</text><text x="5448.98px" y="1125px" style="font-family:'ArialMT', 'Arial', sans-serif;font-size:111.111px;">180</text><text x="5911.84px" y="1125px" style="font-family:'ArialMT', 'Arial', sans-serif;font-size:111.111px;">200</text></g><g><path d="M541.667,997.222l5555.56,0" style="fill:none;fill-rule:nonzero;stroke:#888;stroke-width:5.56px;"/></g><g><text x="2849.16px" y="1219.44px" style="font-family:'Arial-BoldMT', 'Arial', sans-serif;font-weight:700;font-size:61.111px;">Number of Overlapping Proteins</text></g></g></g><g><g><g><path d="M541.667,230.556l-27.778,-0" style="fill:none;fill-rule:nonzero;stroke:#888;stroke-width:5.56px;"/><path d="M541.667,369.444l-27.778,0" style="fill:none;fill-rule:nonzero;stroke:#888;stroke-width:5.56px;"/><path d="M541.667,508.333l-27.778,0" style="fill:none;fill-rule:nonzero;stroke:#888;stroke-width:5.56px;"/><path d="M541.667,647.222l-27.778,0" style="fill:none;fill-rule:nonzero;stroke:#888;stroke-width:5.56px;"/><path d="M541.667,786.111l-27.778,0" style="fill:none;fill-rule:nonzero;stroke:#888;stroke-width:5.56px;"/><path d="M541.667,925l-27.778,0" style="fill:none;fill-rule:nonzero;stroke:#888;stroke-width:5.56px;"/></g><g><text x="231.076px" y="263.889px" style="font-family:'ArialMT', 'Arial', sans-serif;font-size:111.111px;">Heart</text><text x="163.043px" y="402.778px" style="font-family:'ArialMT', 'Arial', sans-serif;font-size:111.111px;">Kidney</text><text x="261.947px" y="541.667px" style="font-family:'ArialMT', 'Arial', sans-serif;font-size:111.111px;">Liver</text><text x="255.599px" y="680.556px" style="font-family:'ArialMT', 'Arial', sans-serif;font-size:111.111px;">Lung</text><text x="33.377px" y="819.444px" style="font-family:'ArialMT', 'Arial', sans-serif;font-size:111.111px;">Pancreas</text><text x="156.803px" y="958.333px" style="font-family:'ArialMT', 'Arial', sans-serif;font-size:111.111px;">Spleen</text></g><g><path d="M541.667,163.889l-0,833.333" style="fill:none;fill-rule:nonzero;stroke:#888;stroke-width:5.56px;"/></g></g></g><rect x="2483.33" y="445.833" width="722.222" height="125" style="fill:#c0d4f5;fill-rule:nonzero;"/><rect x="4372.22" y="445.833" width="694.444" height="125" style="fill:#3b4cc0;fill-rule:nonzero;"/><rect x="1816.67" y="445.833" width="666.667" height="125" style="fill:#f2cbb7;fill-rule:nonzero;"/><rect x="3205.56" y="445.833" width="1166.67" height="125" style="fill:#7b9ff9;fill-rule:nonzero;"/><rect x="1094.44" y="445.833" width="722.222" height="125" style="fill:#ee8468;fill-rule:nonzero;"/><rect x="538.889" y="445.833" width="555.556" height="125" style="fill:#b40426;fill-rule:nonzero;"/><rect x="2344.44" y="168.056" width="694.444" height="125" style="fill:#c0d4f5;fill-rule:nonzero;"/><rect x="4122.22" y="168.056" width="1055.56" height="125" style="fill:#3b4cc0;fill-rule:nonzero;"/><rect x="1650" y="168.056" width="694.444" height="125" style="fill:#f2cbb7;fill-rule:nonzero;"/><rect x="3038.89" y="168.056" width="1083.33" height="125" style="fill:#7b9ff9;fill-rule:nonzero;"/><rect x="1122.22" y="168.056" width="527.778" height="125" style="fill:#ee8468;fill-rule:nonzero;"/><rect x="538.889" y="168.056" width="583.333" height="125" style="fill:#b40426;fill-rule:nonzero;"/><rect x="2677.78" y="584.722" width="666.667" height="125" style="fill:#c0d4f5;fill-rule:nonzero;"/><rect x="4011.11" y="584.722" width="694.444" height="125" style="fill:#3b4cc0;fill-rule:nonzero;"/><rect x="2094.44" y="584.722" width="583.333" height="125" style="fill:#f2cbb7;fill-rule:nonzero;"/><rect x="3344.44" y="584.722" width="666.667" height="125" style="fill:#7b9ff9;fill-rule:nonzero;"/><rect x="1455.56" y="584.722" width="638.889" height="125" style="fill:#ee8468;fill-rule:nonzero;"/><rect x="538.889" y="584.722" width="916.667" height="125" style="fill:#b40426;fill-rule:nonzero;"/><rect x="2511.11" y="306.944" width="1166.67" height="125" style="fill:#c0d4f5;fill-rule:nonzero;"/><rect x="4150" y="306.944" width="1083.33" height="125" style="fill:#3b4cc0;fill-rule:nonzero;"/><rect x="1844.44" y="306.944" width="666.667" height="125" style="fill:#f2cbb7;fill-rule:nonzero;"/><rect x="3677.78" y="306.944" width="472.222" height="125" style="fill:#7b9ff9;fill-rule:nonzero;"/><rect x="1177.78" y="306.944" width="666.667" height="125" style="fill:#ee8468;fill-rule:nonzero;"/><rect x="538.889" y="306.944" width="638.889" height="125" style="fill:#b40426;fill-rule:nonzero;"/><rect x="3955.56" y="723.611" width="722.222" height="125" style="fill:#c0d4f5;fill-rule:nonzero;"/><rect x="5344.44" y="723.611" width="527.778" height="125" style="fill:#3b4cc0;fill-rule:nonzero;"/><rect x="3316.67" y="723.611" width="638.889" height="125" style="fill:#f2cbb7;fill-rule:nonzero;"/><rect x="4677.78" y="723.611" width="666.667" height="125" style="fill:#7b9ff9;fill-rule:nonzero;"/><rect x="1455.56" y="723.611" width="1861.11" height="125" style="fill:#ee8468;fill-rule:nonzero;"/><rect x="538.889" y="723.611" width="916.667" height="125" style="fill:#b40426;fill-rule:nonzero;"/><rect x="2622.22" y="862.5" width="555.556" height="125" style="fill:#c0d4f5;fill-rule:nonzero;"/><rect x="3816.67" y="862.5" width="583.333" height="125" style="fill:#3b4cc0;fill-rule:nonzero;"/><rect x="1705.56" y="862.5" width="916.667" height="125" style="fill:#f2cbb7;fill-rule:nonzero;"/><rect x="3177.78" y="862.5" width="638.889" height="125" style="fill:#7b9ff9;fill-rule:nonzero;"/><rect x="788.889" y="862.5" width="916.667" height="125" style="fill:#ee8468;fill-rule:nonzero;"/><rect x="538.889" y="862.5" width="250" height="125" style="fill:#b40426;fill-rule:nonzero;"/><text x="3057.31px" y="536.111px" style="font-family:'ArialMT', 'Arial', sans-serif;font-size:83.333px;">26</text><text x="4918.42px" y="536.111px" style="font-family:'ArialMT', 'Arial', sans-serif;font-size:83.333px;">25</text><text x="2335.09px" y="536.111px" style="font-family:'ArialMT', 'Arial', sans-serif;font-size:83.333px;">24</text><text x="4223.98px" y="536.111px" style="font-family:'ArialMT', 'Arial', sans-serif;font-size:83.333px;">42</text><text x="1668.42px" y="536.111px" style="font-family:'ArialMT', 'Arial', sans-serif;font-size:83.333px;">26</text><text x="946.197px" y="536.111px" style="font-family:'ArialMT', 'Arial', sans-serif;font-size:83.333px;">20</text><text x="2890.64px" y="258.333px" style="font-family:'ArialMT', 'Arial', sans-serif;font-size:83.333px;">25</text><text x="5029.53px" y="258.333px" style="font-family:'ArialMT', 'Arial', sans-serif;font-size:83.333px;">38</text><text x="2196.2px" y="258.333px" style="font-family:'ArialMT', 'Arial', sans-serif;font-size:83.333px;">25</text><text x="3973.97px" y="258.333px" style="font-family:'ArialMT', 'Arial', sans-serif;font-size:83.333px;">39</text><text x="1501.75px" y="258.333px" style="font-family:'ArialMT', 'Arial', sans-serif;font-size:83.333px;">19</text><text x="973.975px" y="258.333px" style="font-family:'ArialMT', 'Arial', sans-serif;font-size:83.333px;">21</text><text x="3196.2px" y="675px" style="font-family:'ArialMT', 'Arial', sans-serif;font-size:83.333px;">24</text><text x="4557.31px" y="675px" style="font-family:'ArialMT', 'Arial', sans-serif;font-size:83.333px;">25</text><text x="2529.53px" y="675px" style="font-family:'ArialMT', 'Arial', sans-serif;font-size:83.333px;">21</text><text x="3862.86px" y="675px" style="font-family:'ArialMT', 'Arial', sans-serif;font-size:83.333px;">24</text><text x="1946.2px" y="675px" style="font-family:'ArialMT', 'Arial', sans-serif;font-size:83.333px;">23</text><text x="1307.31px" y="675px" style="font-family:'ArialMT', 'Arial', sans-serif;font-size:83.333px;">33</text><text x="3529.53px" y="397.222px" style="font-family:'ArialMT', 'Arial', sans-serif;font-size:83.333px;">42</text><text x="5085.09px" y="397.222px" style="font-family:'ArialMT', 'Arial', sans-serif;font-size:83.333px;">39</text><text x="2362.86px" y="397.222px" style="font-family:'ArialMT', 'Arial', sans-serif;font-size:83.333px;">24</text><text x="4001.75px" y="397.222px" style="font-family:'ArialMT', 'Arial', sans-serif;font-size:83.333px;">17</text><text x="1696.2px" y="397.222px" style="font-family:'ArialMT', 'Arial', sans-serif;font-size:83.333px;">24</text><text x="1029.53px" y="397.222px" style="font-family:'ArialMT', 'Arial', sans-serif;font-size:83.333px;">23</text><text x="4529.53px" y="813.889px" style="font-family:'ArialMT', 'Arial', sans-serif;font-size:83.333px;">26</text><text x="5723.98px" y="813.889px" style="font-family:'ArialMT', 'Arial', sans-serif;font-size:83.333px;">19</text><text x="3807.31px" y="813.889px" style="font-family:'ArialMT', 'Arial', sans-serif;font-size:83.333px;">23</text><text x="5196.2px" y="813.889px" style="font-family:'ArialMT', 'Arial', sans-serif;font-size:83.333px;">24</text><text x="3168.42px" y="813.889px" style="font-family:'ArialMT', 'Arial', sans-serif;font-size:83.333px;">67</text><text x="1307.31px" y="813.889px" style="font-family:'ArialMT', 'Arial', sans-serif;font-size:83.333px;">33</text><text x="3029.53px" y="952.778px" style="font-family:'ArialMT', 'Arial', sans-serif;font-size:83.333px;">20</text><text x="4251.75px" y="952.778px" style="font-family:'ArialMT', 'Arial', sans-serif;font-size:83.333px;">21</text><text x="2473.97px" y="952.778px" style="font-family:'ArialMT', 'Arial', sans-serif;font-size:83.333px;">33</text><text x="3668.42px" y="952.778px" style="font-family:'ArialMT', 'Arial', sans-serif;font-size:83.333px;">23</text><text x="1557.31px" y="952.778px" style="font-family:'ArialMT', 'Arial', sans-serif;font-size:83.333px;">33</text><text x="686.987px" y="952.778px" style="font-family:'ArialMT', 'Arial', sans-serif;font-size:83.333px;">9</text><rect x="6194.44" y="161.111" width="566.667" height="511.111" style="fill:none;fill-rule:nonzero;"/><g><rect x="6194.44" y="395.025" width="561.328" height="61.111" style="fill:none;fill-rule:nonzero;"/><g><g><rect x="6200" y="400.581" width="55.556" height="55.556" style="fill:#c0d4f5;fill-rule:nonzero;"/></g><g><text x="6283.33px" y="445.025px" style="font-family:'ArialMT', 'Arial', sans-serif;font-size:55.556px;">Overlaps Liver</text></g></g></g><g><rect x="6194.44" y="250" width="561.328" height="61.111" style="fill:none;fill-rule:nonzero;"/><g><g><rect x="6200" y="255.556" width="55.556" height="55.556" style="fill:#3b4cc0;fill-rule:nonzero;"/></g><g><text x="6283.33px" y="300px" style="font-family:'ArialMT', 'Arial', sans-serif;font-size:55.556px;">Overlaps Heart</text></g></g></g><g><rect x="6194.44" y="466.667" width="561.328" height="61.111" style="fill:none;fill-rule:nonzero;"/><g><g><rect x="6200" y="472.222" width="55.556" height="55.556" style="fill:#f2cbb7;fill-rule:nonzero;"/></g><g><text x="6283.33px" y="516.667px" style="font-family:'ArialMT', 'Arial', sans-serif;font-size:55.556px;">Overlaps Lung</text></g></g></g><g><rect x="6194.44" y="322.222" width="561.328" height="61.111" style="fill:none;fill-rule:nonzero;"/><g><g><rect x="6200" y="327.778" width="55.556" height="55.556" style="fill:#7b9ff9;fill-rule:nonzero;"/></g><g><text x="6283.33px" y="372.222px" style="font-family:'ArialMT', 'Arial', sans-serif;font-size:55.556px;">Overlaps Kidney</text></g></g></g><g><rect x="6194.44" y="538.889" width="561.328" height="61.111" style="fill:none;fill-rule:nonzero;"/><g><g><rect x="6200" y="544.444" width="55.556" height="55.556" style="fill:#ee8468;fill-rule:nonzero;"/></g><g><text x="6283.33px" y="588.889px" style="font-family:'ArialMT', 'Arial', sans-serif;font-size:55.556px;">Overlaps Pancreas</text></g></g></g><g><rect x="6194.44" y="611.111" width="561.328" height="61.111" style="fill:none;fill-rule:nonzero;"/><g><g><rect x="6200" y="616.667" width="55.556" height="55.556" style="fill:#b40426;fill-rule:nonzero;"/></g><g><text x="6283.33px" y="661.111px" style="font-family:'ArialMT', 'Arial', sans-serif;font-size:55.556px;">Overlaps Spleen</text></g></g></g><text x="6194.44px" y="211.111px" style="font-family:'Arial-BoldMT', 'Arial', sans-serif;font-weight:700;font-size:61.111px;">Compared T<tspan x="6549.86px 6566.84px " y="211.111px 211.111px ">is</tspan>sue</text><g><g><g><text x="2277.25px" y="116.667px" style="font-family:'Arial-BoldMT', 'Arial', sans-serif;font-weight:700;font-size:111.111px;">Shared Proteins Between Organ T<tspan x="4071.96px 4102.83px " y="116.667px 116.667px ">is</tspan>sue</text></g></g></g></svg>