<?xml version="1.0" encoding="UTF-8" standalone="no"?><!DOCTYPE svg PUBLIC "-//W3C//DTD SVG 1.1//EN" "http://www.w3.org/Graphics/SVG/1.1/DTD/svg11.dtd"><svg width="100%" height="100%" viewBox="0 0 7145 1256" version="1.1" xmlns="http://www.w3.org/2000/svg" xmlns:xlink="http://www.w3.org/1999/xlink" xml:space="preserve" xmlns:serif="http://www.serif.com/" style="fill-rule:evenodd;clip-rule:evenodd;"><rect x="0" y="0" width="7144.44" height="1255.56" style="fill:#fff;"/><g><g><g><rect x="780.556" y="163.889" width="5555.56" height="833.333" style="fill:none;fill-rule:nonzero;stroke:#ddd;stroke-width:5.56px;"/><g><g><g><g><g><path d="M780.556,997.222l-0,-833.333" style="fill:none;fill-rule:nonzero;stroke:#ddd;stroke-width:5.56px;"/><path d="M1241.67,997.222l-0,-833.333" style="fill:none;fill-rule:nonzero;stroke:#ddd;stroke-width:5.56px;"/><path d="M1708.33,997.222l0,-833.333" style="fill:none;fill-rule:nonzero;stroke:#ddd;stroke-width:5.56px;"/><path d="M2169.44,997.222l0,-833.333" style="fill:none;fill-rule:nonzero;stroke:#ddd;stroke-width:5.56px;"/><path d="M2630.56,997.222l-0,-833.333" style="fill:none;fill-rule:nonzero;stroke:#ddd;stroke-width:5.56px;"/><path d="M3097.22,997.222l0,-833.333" style="fill:none;fill-rule:nonzero;stroke:#ddd;stroke-width:5.56px;"/><path d="M3558.33,997.222l0,-833.333" style="fill:none;fill-rule:nonzero;stroke:#ddd;stroke-width:5.56px;"/><path d="M4019.44,997.222l0,-833.333" style="fill:none;fill-rule:nonzero;stroke:#ddd;stroke-width:5.56px;"/><path d="M4486.11,997.222l0,-833.333" style="fill:none;fill-rule:nonzero;stroke:#ddd;stroke-width:5.56px;"/><path d="M4947.22,997.222l0,-833.333" style="fill:none;fill-rule:nonzero;stroke:#ddd;stroke-width:5.56px;"/><path d="M5408.33,997.222l0,-833.333" style="fill:none;fill-rule:nonzero;stroke:#ddd;stroke-width:5.56px;"/><path d="M5875,997.222l0,-833.333" style="fill:none;fill-rule:nonzero;stroke:#ddd;stroke-width:5.56px;"/><path d="M6336.11,997.222l0,-833.333" style="fill:none;fill-rule:nonzero;stroke:#ddd;stroke-width:5.56px;"/></g></g></g></g><g><g><g><g><path d="M780.556,997.222l-0,27.778" style="fill:none;fill-rule:nonzero;stroke:#888;stroke-width:5.56px;"/><path d="M1241.67,997.222l-0,27.778" style="fill:none;fill-rule:nonzero;stroke:#888;stroke-width:5.56px;"/><path d="M1708.33,997.222l0,27.778" style="fill:none;fill-rule:nonzero;stroke:#888;stroke-width:5.56px;"/><path d="M2169.44,997.222l0,27.778" style="fill:none;fill-rule:nonzero;stroke:#888;stroke-width:5.56px;"/><path d="M2630.56,997.222l-0,27.778" style="fill:none;fill-rule:nonzero;stroke:#888;stroke-width:5.56px;"/><path d="M3097.22,997.222l0,27.778" style="fill:none;fill-rule:nonzero;stroke:#888;stroke-width:5.56px;"/><path d="M3558.33,997.222l0,27.778" style="fill:none;fill-rule:nonzero;stroke:#888;stroke-width:5.56px;"/><path d="M4019.44,997.222l0,27.778" style="fill:none;fill-rule:nonzero;stroke:#888;stroke-width:5.56px;"/><path d="M4486.11,997.222l0,27.778" style="fill:none;fill-rule:nonzero;stroke:#888;stroke-width:5.56px;"/><path d="M4947.22,997.222l0,27.778" style="fill:none;fill-rule:nonzero;stroke:#888;stroke-width:5.56px;"/><path d="M5408.33,997.222l0,27.778" style="fill:none;fill-rule:nonzero;stroke:#888;stroke-width:5.56px;"/><path d="M5875,997.222l0,27.778" style="fill:none;fill-rule:nonzero;stroke:#888;stroke-width:5.56px;"/><path d="M6336.11,997.222l0,27.778" style="fill:none;fill-rule:nonzero;stroke:#888;stroke-width:5.56px;"/></g><g><text x="780.556px" y="1125px" style="font-family:'ArialMT', 'Arial', sans-serif;font-size:111.111px;">0</text><text x="1181.72px" y="1125px" style="font-family:'ArialMT', 'Arial', sans-serif;font-size:111.111px;">50</text><text x="1613.79px" y="1125px" style="font-family:'ArialMT', 'Arial', sans-serif;font-size:111.111px;">100</text><text x="2076.75px" y="1125px" style="font-family:'ArialMT', 'Arial', sans-serif;font-size:111.111px;">150</text><text x="2539.72px" y="1125px" style="font-family:'ArialMT', 'Arial', sans-serif;font-size:111.111px;">200</text><text x="3002.68px" y="1125px" style="font-family:'ArialMT', 'Arial', sans-serif;font-size:111.111px;">250</text><text x="3465.64px" y="1125px" style="font-family:'ArialMT', 'Arial', sans-serif;font-size:111.111px;">300</text><text x="3928.6px" y="1125px" style="font-family:'ArialMT', 'Arial', sans-serif;font-size:111.111px;">350</text><text x="4391.57px" y="1125px" style="font-family:'ArialMT', 'Arial', sans-serif;font-size:111.111px;">400</text><text x="4854.53px" y="1125px" style="font-family:'ArialMT', 'Arial', sans-serif;font-size:111.111px;">450</text><text x="5317.49px" y="1125px" style="font-family:'ArialMT', 'Arial', sans-serif;font-size:111.111px;">500</text><text x="5780.46px" y="1125px" style="font-family:'ArialMT', 'Arial', sans-serif;font-size:111.111px;">550</text><text x="6150.73px" y="1125px" style="font-family:'ArialMT', 'Arial', sans-serif;font-size:111.111px;">600</text></g><g><path d="M780.556,997.222l5555.56,0" style="fill:none;fill-rule:nonzero;stroke:#888;stroke-width:5.56px;"/></g><g><text x="3088.05px" y="1219.44px" style="font-family:'Arial-BoldMT', 'Arial', sans-serif;font-weight:700;font-size:61.111px;">Number of Overlapping Proteins</text></g></g></g></g><g><g><g><g><path d="M780.556,247.222l-27.778,0" style="fill:none;fill-rule:nonzero;stroke:#888;stroke-width:5.56px;"/><path d="M780.556,413.889l-27.778,-0" style="fill:none;fill-rule:nonzero;stroke:#888;stroke-width:5.56px;"/><path d="M780.556,580.556l-27.778,-0" style="fill:none;fill-rule:nonzero;stroke:#888;stroke-width:5.56px;"/><path d="M780.556,747.222l-27.778,0" style="fill:none;fill-rule:nonzero;stroke:#888;stroke-width:5.56px;"/><path d="M780.556,913.889l-27.778,-0" style="fill:none;fill-rule:nonzero;stroke:#888;stroke-width:5.56px;"/></g><g><text x="309.429px" y="277.778px" style="font-family:'ArialMT', 'Arial', sans-serif;font-size:111.111px;">B.Cortex</text><text x="173.524px" y="444.444px" style="font-family:'ArialMT', 'Arial', sans-serif;font-size:111.111px;">Cerebellum</text><text x="31.434px" y="611.111px" style="font-family:'ArialMT', 'Arial', sans-serif;font-size:111.111px;">Hypothalamus</text><text x="352.561px" y="777.778px" style="font-family:'ArialMT', 'Arial', sans-serif;font-size:111.111px;">Medulla</text><text x="309.429px" y="944.444px" style="font-family:'ArialMT', 'Arial', sans-serif;font-size:111.111px;">S.Cortex</text></g><g><path d="M780.556,163.889l-0,833.333" style="fill:none;fill-rule:nonzero;stroke:#888;stroke-width:5.56px;"/></g></g></g></g><g><rect x="5740.74" y="169.444" width="175.926" height="150" style="fill:#3b4cc0;fill-rule:nonzero;"/><rect x="4537.04" y="169.444" width="1203.7" height="150" style="fill:#8db0fe;fill-rule:nonzero;"/><rect x="3250" y="169.444" width="1287.04" height="150" style="fill:#ddd;fill-rule:nonzero;"/><rect x="2120.37" y="169.444" width="1129.63" height="150" style="fill:#f49a7b;fill-rule:nonzero;"/><rect x="777.778" y="169.444" width="1342.59" height="150" style="fill:#b40426;fill-rule:nonzero;"/><rect x="4453.7" y="336.111" width="1203.7" height="150" style="fill:#3b4cc0;fill-rule:nonzero;"/><rect x="4342.59" y="336.111" width="111.111" height="150" style="fill:#8db0fe;fill-rule:nonzero;"/><rect x="3111.11" y="336.111" width="1231.48" height="150" style="fill:#ddd;fill-rule:nonzero;"/><rect x="2018.52" y="336.111" width="1092.59" height="150" style="fill:#f49a7b;fill-rule:nonzero;"/><rect x="777.778" y="336.111" width="1240.74" height="150" style="fill:#b40426;fill-rule:nonzero;"/><rect x="4722.22" y="502.778" width="1287.04" height="150" style="fill:#3b4cc0;fill-rule:nonzero;"/><rect x="3490.74" y="502.778" width="1231.48" height="150" style="fill:#8db0fe;fill-rule:nonzero;"/><rect x="3370.37" y="502.778" width="120.37" height="150" style="fill:#ddd;fill-rule:nonzero;"/><rect x="2148.15" y="502.778" width="1222.22" height="150" style="fill:#f49a7b;fill-rule:nonzero;"/><rect x="777.778" y="502.778" width="1370.37" height="150" style="fill:#b40426;fill-rule:nonzero;"/><rect x="4370.37" y="669.444" width="1129.63" height="150" style="fill:#3b4cc0;fill-rule:nonzero;"/><rect x="3277.78" y="669.444" width="1092.59" height="150" style="fill:#8db0fe;fill-rule:nonzero;"/><rect x="2055.56" y="669.444" width="1222.22" height="150" style="fill:#ddd;fill-rule:nonzero;"/><rect x="1981.48" y="669.444" width="74.074" height="150" style="fill:#f49a7b;fill-rule:nonzero;"/><rect x="777.778" y="669.444" width="1203.7" height="150" style="fill:#b40426;fill-rule:nonzero;"/><rect x="4620.37" y="836.111" width="1342.59" height="150" style="fill:#3b4cc0;fill-rule:nonzero;"/><rect x="3379.63" y="836.111" width="1240.74" height="150" style="fill:#8db0fe;fill-rule:nonzero;"/><rect x="2009.26" y="836.111" width="1370.37" height="150" style="fill:#ddd;fill-rule:nonzero;"/><rect x="805.556" y="836.111" width="1203.7" height="150" style="fill:#f49a7b;fill-rule:nonzero;"/><rect x="777.778" y="836.111" width="27.778" height="150" style="fill:#b40426;fill-rule:nonzero;"/></g><g><text x="5756.06px" y="272.222px" style="font-family:'ArialMT', 'Arial', sans-serif;font-size:94.444px;">19</text><text x="5527.61px" y="272.222px" style="font-family:'ArialMT', 'Arial', sans-serif;font-size:94.444px;">130</text><text x="4323.9px" y="272.222px" style="font-family:'ArialMT', 'Arial', sans-serif;font-size:94.444px;">139</text><text x="3036.87px" y="272.222px" style="font-family:'ArialMT', 'Arial', sans-serif;font-size:94.444px;">122</text><text x="1907.24px" y="272.222px" style="font-family:'ArialMT', 'Arial', sans-serif;font-size:94.444px;">145</text><text x="5444.28px" y="438.889px" style="font-family:'ArialMT', 'Arial', sans-serif;font-size:94.444px;">130</text><text x="4343.88px" y="438.889px" style="font-family:'ArialMT', 'Arial', sans-serif;font-size:94.444px;">12</text><text x="4129.46px" y="438.889px" style="font-family:'ArialMT', 'Arial', sans-serif;font-size:94.444px;">133</text><text x="2904.99px" y="438.889px" style="font-family:'ArialMT', 'Arial', sans-serif;font-size:94.444px;">1<tspan x="2950.51px 3003.03px " y="438.889px 438.889px ">18</tspan></text><text x="1805.39px" y="438.889px" style="font-family:'ArialMT', 'Arial', sans-serif;font-size:94.444px;">134</text><text x="5796.13px" y="605.556px" style="font-family:'ArialMT', 'Arial', sans-serif;font-size:94.444px;">139</text><text x="4509.09px" y="605.556px" style="font-family:'ArialMT', 'Arial', sans-serif;font-size:94.444px;">133</text><text x="3375.03px" y="605.556px" style="font-family:'ArialMT', 'Arial', sans-serif;font-size:94.444px;">13</text><text x="3157.24px" y="605.556px" style="font-family:'ArialMT', 'Arial', sans-serif;font-size:94.444px;">132</text><text x="1935.02px" y="605.556px" style="font-family:'ArialMT', 'Arial', sans-serif;font-size:94.444px;">148</text><text x="5286.87px" y="772.222px" style="font-family:'ArialMT', 'Arial', sans-serif;font-size:94.444px;">122</text><text x="4164.25px" y="772.222px" style="font-family:'ArialMT', 'Arial', sans-serif;font-size:94.444px;">1<tspan x="4209.76px 4262.29px " y="772.222px 772.222px ">18</tspan></text><text x="3064.65px" y="772.222px" style="font-family:'ArialMT', 'Arial', sans-serif;font-size:94.444px;">132</text><text x="1992.42px" y="772.222px" style="font-family:'ArialMT', 'Arial', sans-serif;font-size:94.444px;">8</text><text x="1768.35px" y="772.222px" style="font-family:'ArialMT', 'Arial', sans-serif;font-size:94.444px;">130</text><text x="5749.83px" y="938.889px" style="font-family:'ArialMT', 'Arial', sans-serif;font-size:94.444px;">145</text><text x="4407.24px" y="938.889px" style="font-family:'ArialMT', 'Arial', sans-serif;font-size:94.444px;">134</text><text x="3166.5px" y="938.889px" style="font-family:'ArialMT', 'Arial', sans-serif;font-size:94.444px;">148</text><text x="1796.13px" y="938.889px" style="font-family:'ArialMT', 'Arial', sans-serif;font-size:94.444px;">130</text><text x="801.59px" y="938.889px" style="font-family:'ArialMT', 'Arial', sans-serif;font-size:94.444px;">3</text></g><g><g><rect x="6433.33" y="161.111" width="683.333" height="438.889" style="fill:none;fill-rule:nonzero;"/><g><g><g><g><g><g><rect x="6433.33" y="250" width="681.744" height="61.111" style="fill:none;fill-rule:nonzero;"/><g><g><rect x="6438.89" y="255.556" width="55.556" height="55.556" style="fill:#3b4cc0;fill-rule:nonzero;"/></g><g><text x="6522.22px" y="300px" style="font-family:'ArialMT', 'Arial', sans-serif;font-size:55.556px;">Overlaps B.Cortex</text></g></g></g><g><rect x="6433.33" y="322.222" width="681.744" height="61.111" style="fill:none;fill-rule:nonzero;"/><g><g><rect x="6438.89" y="327.778" width="55.556" height="55.556" style="fill:#8db0fe;fill-rule:nonzero;"/></g><g><text x="6522.22px" y="372.222px" style="font-family:'ArialMT', 'Arial', sans-serif;font-size:55.556px;">Overlaps Cerebellum</text></g></g></g><g><rect x="6433.33" y="394.444" width="681.744" height="61.111" style="fill:none;fill-rule:nonzero;"/><g><g><rect x="6438.89" y="400" width="55.556" height="55.556" style="fill:#ddd;fill-rule:nonzero;"/></g><g><text x="6522.22px" y="444.444px" style="font-family:'ArialMT', 'Arial', sans-serif;font-size:55.556px;">Overlaps Hypothalamus</text></g></g></g><g><rect x="6433.33" y="466.667" width="681.744" height="61.111" style="fill:none;fill-rule:nonzero;"/><g><g><rect x="6438.89" y="472.222" width="55.556" height="55.556" style="fill:#f49a7b;fill-rule:nonzero;"/></g><g><text x="6522.22px" y="516.667px" style="font-family:'ArialMT', 'Arial', sans-serif;font-size:55.556px;">Overlaps Medulla</text></g></g></g><g><rect x="6433.33" y="538.889" width="681.744" height="61.111" style="fill:none;fill-rule:nonzero;"/><g><g><rect x="6438.89" y="544.444" width="55.556" height="55.556" style="fill:#b40426;fill-rule:nonzero;"/></g><g><text x="6522.22px" y="588.889px" style="font-family:'ArialMT', 'Arial', sans-serif;font-size:55.556px;">Overlaps S.Cortex</text></g></g></g></g></g></g></g><g><text x="6433.33px" y="211.111px" style="font-family:'Arial-BoldMT', 'Arial', sans-serif;font-weight:700;font-size:61.111px;">Compared T<tspan x="6788.75px 6805.73px " y="211.111px 211.111px ">is</tspan>sue</text></g></g></g></g><g><g><g><g><text x="2493.57px" y="116.667px" style="font-family:'Arial-BoldMT', 'Arial', sans-serif;font-weight:700;font-size:111.111px;">Shared Proteins Between Brain Regions</text></g></g></g></g></g></g></g></g></svg>