<?xml version="1.0" encoding="UTF-8" standalone="no"?><!DOCTYPE svg PUBLIC "-//W3C//DTD SVG 1.1//EN" "http://www.w3.org/Graphics/SVG/1.1/DTD/svg11.dtd"><svg width="100%" height="100%" viewBox="0 0 6789 1256" version="1.1" xmlns="http://www.w3.org/2000/svg" xmlns:xlink="http://www.w3.org/1999/xlink" xml:space="preserve" xmlns:serif="http://www.serif.com/" style="fill-rule:evenodd;clip-rule:evenodd;"><rect x="0" y="0" width="6788.89" height="1255.56" style="fill:#fff;"/><g><g><g><rect x="541.667" y="163.889" width="5555.56" height="833.333" style="fill:none;fill-rule:nonzero;stroke:#ddd;stroke-width:5.56px;"/><g><g><g><g><g><path d="M541.667,997.222l-0,-833.333" style="fill:none;fill-rule:nonzero;stroke:#ddd;stroke-width:5.56px;"/><path d="M1336.11,997.222l0,-833.333" style="fill:none;fill-rule:nonzero;stroke:#ddd;stroke-width:5.56px;"/><path d="M2130.56,997.222l-0,-833.333" style="fill:none;fill-rule:nonzero;stroke:#ddd;stroke-width:5.56px;"/><path d="M2925,997.222l0,-833.333" style="fill:none;fill-rule:nonzero;stroke:#ddd;stroke-width:5.56px;"/><path d="M3713.89,997.222l-0,-833.333" style="fill:none;fill-rule:nonzero;stroke:#ddd;stroke-width:5.56px;"/><path d="M4508.33,997.222l0,-833.333" style="fill:none;fill-rule:nonzero;stroke:#ddd;stroke-width:5.56px;"/><path d="M5302.78,997.222l-0,-833.333" style="fill:none;fill-rule:nonzero;stroke:#ddd;stroke-width:5.56px;"/><path d="M6097.22,997.222l0,-833.333" style="fill:none;fill-rule:nonzero;stroke:#ddd;stroke-width:5.56px;"/></g></g></g></g><g><g><g><g><path d="M541.667,997.222l-0,27.778" style="fill:none;fill-rule:nonzero;stroke:#888;stroke-width:5.56px;"/><path d="M1336.11,997.222l0,27.778" style="fill:none;fill-rule:nonzero;stroke:#888;stroke-width:5.56px;"/><path d="M2130.56,997.222l-0,27.778" style="fill:none;fill-rule:nonzero;stroke:#888;stroke-width:5.56px;"/><path d="M2925,997.222l0,27.778" style="fill:none;fill-rule:nonzero;stroke:#888;stroke-width:5.56px;"/><path d="M3713.89,997.222l-0,27.778" style="fill:none;fill-rule:nonzero;stroke:#888;stroke-width:5.56px;"/><path d="M4508.33,997.222l0,27.778" style="fill:none;fill-rule:nonzero;stroke:#888;stroke-width:5.56px;"/><path d="M5302.78,997.222l-0,27.778" style="fill:none;fill-rule:nonzero;stroke:#888;stroke-width:5.56px;"/><path d="M6097.22,997.222l0,27.778" style="fill:none;fill-rule:nonzero;stroke:#888;stroke-width:5.56px;"/></g><g><text x="541.667px" y="1125px" style="font-family:'ArialMT', 'Arial', sans-serif;font-size:111.111px;">0</text><text x="1273.52px" y="1125px" style="font-family:'ArialMT', 'Arial', sans-serif;font-size:111.111px;">50</text><text x="2036.28px" y="1125px" style="font-family:'ArialMT', 'Arial', sans-serif;font-size:111.111px;">100</text><text x="2829.93px" y="1125px" style="font-family:'ArialMT', 'Arial', sans-serif;font-size:111.111px;">150</text><text x="3623.58px" y="1125px" style="font-family:'ArialMT', 'Arial', sans-serif;font-size:111.111px;">200</text><text x="4417.23px" y="1125px" style="font-family:'ArialMT', 'Arial', sans-serif;font-size:111.111px;">250</text><text x="5210.88px" y="1125px" style="font-family:'ArialMT', 'Arial', sans-serif;font-size:111.111px;">300</text><text x="5911.84px" y="1125px" style="font-family:'ArialMT', 'Arial', sans-serif;font-size:111.111px;">350</text></g><g><path d="M541.667,997.222l5555.56,0" style="fill:none;fill-rule:nonzero;stroke:#888;stroke-width:5.56px;"/></g><g><text x="2849.16px" y="1219.44px" style="font-family:'Arial-BoldMT', 'Arial', sans-serif;font-weight:700;font-size:61.111px;">Number of Overlapping Proteins</text></g></g></g></g><g><g><g><g><path d="M541.667,230.556l-27.778,-0" style="fill:none;fill-rule:nonzero;stroke:#888;stroke-width:5.56px;"/><path d="M541.667,369.444l-27.778,0" style="fill:none;fill-rule:nonzero;stroke:#888;stroke-width:5.56px;"/><path d="M541.667,508.333l-27.778,0" style="fill:none;fill-rule:nonzero;stroke:#888;stroke-width:5.56px;"/><path d="M541.667,647.222l-27.778,0" style="fill:none;fill-rule:nonzero;stroke:#888;stroke-width:5.56px;"/><path d="M541.667,786.111l-27.778,0" style="fill:none;fill-rule:nonzero;stroke:#888;stroke-width:5.56px;"/><path d="M541.667,925l-27.778,0" style="fill:none;fill-rule:nonzero;stroke:#888;stroke-width:5.56px;"/></g><g><text x="231.076px" y="263.889px" style="font-family:'ArialMT', 'Arial', sans-serif;font-size:111.111px;">Heart</text><text x="163.043px" y="402.778px" style="font-family:'ArialMT', 'Arial', sans-serif;font-size:111.111px;">Kidney</text><text x="261.947px" y="541.667px" style="font-family:'ArialMT', 'Arial', sans-serif;font-size:111.111px;">Liver</text><text x="255.599px" y="680.556px" style="font-family:'ArialMT', 'Arial', sans-serif;font-size:111.111px;">Lung</text><text x="33.377px" y="819.444px" style="font-family:'ArialMT', 'Arial', sans-serif;font-size:111.111px;">Pancreas</text><text x="156.803px" y="958.333px" style="font-family:'ArialMT', 'Arial', sans-serif;font-size:111.111px;">Spleen</text></g><g><path d="M541.667,163.889l-0,833.333" style="fill:none;fill-rule:nonzero;stroke:#888;stroke-width:5.56px;"/></g></g></g></g><g><rect x="2729.37" y="445.833" width="634.921" height="125" style="fill:#c0d4f5;fill-rule:nonzero;"/><rect x="4602.38" y="445.833" width="730.159" height="125" style="fill:#3b4cc0;fill-rule:nonzero;"/><rect x="2062.7" y="445.833" width="666.667" height="125" style="fill:#f2cbb7;fill-rule:nonzero;"/><rect x="3364.29" y="445.833" width="1238.1" height="125" style="fill:#7b9ff9;fill-rule:nonzero;"/><rect x="1269.05" y="445.833" width="793.651" height="125" style="fill:#ee8468;fill-rule:nonzero;"/><rect x="538.889" y="445.833" width="730.159" height="125" style="fill:#b40426;fill-rule:nonzero;"/><rect x="2253.18" y="168.056" width="730.159" height="125" style="fill:#c0d4f5;fill-rule:nonzero;"/><rect x="4015.08" y="168.056" width="777.778" height="125" style="fill:#3b4cc0;fill-rule:nonzero;"/><rect x="1602.38" y="168.056" width="650.794" height="125" style="fill:#f2cbb7;fill-rule:nonzero;"/><rect x="2983.33" y="168.056" width="1031.75" height="125" style="fill:#7b9ff9;fill-rule:nonzero;"/><rect x="1094.44" y="168.056" width="507.937" height="125" style="fill:#ee8468;fill-rule:nonzero;"/><rect x="538.889" y="168.056" width="555.556" height="125" style="fill:#b40426;fill-rule:nonzero;"/><rect x="2396.03" y="584.722" width="666.667" height="125" style="fill:#c0d4f5;fill-rule:nonzero;"/><rect x="3808.73" y="584.722" width="650.794" height="125" style="fill:#3b4cc0;fill-rule:nonzero;"/><rect x="1951.59" y="584.722" width="444.444" height="125" style="fill:#f2cbb7;fill-rule:nonzero;"/><rect x="3062.7" y="584.722" width="746.032" height="125" style="fill:#7b9ff9;fill-rule:nonzero;"/><rect x="1380.16" y="584.722" width="571.429" height="125" style="fill:#ee8468;fill-rule:nonzero;"/><rect x="538.889" y="584.722" width="841.27" height="125" style="fill:#b40426;fill-rule:nonzero;"/><rect x="2602.38" y="306.944" width="1238.1" height="125" style="fill:#c0d4f5;fill-rule:nonzero;"/><rect x="4332.54" y="306.944" width="1031.75" height="125" style="fill:#3b4cc0;fill-rule:nonzero;"/><rect x="1856.35" y="306.944" width="746.032" height="125" style="fill:#f2cbb7;fill-rule:nonzero;"/><rect x="3840.48" y="306.944" width="492.063" height="125" style="fill:#7b9ff9;fill-rule:nonzero;"/><rect x="1205.56" y="306.944" width="650.794" height="125" style="fill:#ee8468;fill-rule:nonzero;"/><rect x="538.889" y="306.944" width="666.667" height="125" style="fill:#b40426;fill-rule:nonzero;"/><rect x="3221.43" y="723.611" width="793.651" height="125" style="fill:#c0d4f5;fill-rule:nonzero;"/><rect x="4665.87" y="723.611" width="507.937" height="125" style="fill:#3b4cc0;fill-rule:nonzero;"/><rect x="2650" y="723.611" width="571.429" height="125" style="fill:#f2cbb7;fill-rule:nonzero;"/><rect x="4015.08" y="723.611" width="650.794" height="125" style="fill:#7b9ff9;fill-rule:nonzero;"/><rect x="1443.65" y="723.611" width="1206.35" height="125" style="fill:#ee8468;fill-rule:nonzero;"/><rect x="538.889" y="723.611" width="904.762" height="125" style="fill:#b40426;fill-rule:nonzero;"/><rect x="2491.27" y="862.5" width="730.159" height="125" style="fill:#c0d4f5;fill-rule:nonzero;"/><rect x="3888.1" y="862.5" width="555.556" height="125" style="fill:#3b4cc0;fill-rule:nonzero;"/><rect x="1650" y="862.5" width="841.27" height="125" style="fill:#f2cbb7;fill-rule:nonzero;"/><rect x="3221.43" y="862.5" width="666.667" height="125" style="fill:#7b9ff9;fill-rule:nonzero;"/><rect x="745.238" y="862.5" width="904.762" height="125" style="fill:#ee8468;fill-rule:nonzero;"/><rect x="538.889" y="862.5" width="206.349" height="125" style="fill:#b40426;fill-rule:nonzero;"/></g><g><text x="3234.61px" y="536.111px" style="font-family:'ArialMT', 'Arial', sans-serif;font-size:83.333px;">40</text><text x="5202.86px" y="536.111px" style="font-family:'ArialMT', 'Arial', sans-serif;font-size:83.333px;fill:#fff;">46</text><text x="2599.69px" y="536.111px" style="font-family:'ArialMT', 'Arial', sans-serif;font-size:83.333px;">42</text><text x="4472.7px" y="536.111px" style="font-family:'ArialMT', 'Arial', sans-serif;font-size:83.333px;">78</text><text x="1933.02px" y="536.111px" style="font-family:'ArialMT', 'Arial', sans-serif;font-size:83.333px;">50</text><text x="1139.37px" y="536.111px" style="font-family:'ArialMT', 'Arial', sans-serif;font-size:83.333px;fill:#fff;">46</text><text x="2853.65px" y="258.333px" style="font-family:'ArialMT', 'Arial', sans-serif;font-size:83.333px;">46</text><text x="4663.18px" y="258.333px" style="font-family:'ArialMT', 'Arial', sans-serif;font-size:83.333px;fill:#fff;">49</text><text x="2123.49px" y="258.333px" style="font-family:'ArialMT', 'Arial', sans-serif;font-size:83.333px;">41</text><text x="3885.4px" y="258.333px" style="font-family:'ArialMT', 'Arial', sans-serif;font-size:83.333px;">65</text><text x="1472.7px" y="258.333px" style="font-family:'ArialMT', 'Arial', sans-serif;font-size:83.333px;">32</text><text x="964.765px" y="258.333px" style="font-family:'ArialMT', 'Arial', sans-serif;font-size:83.333px;fill:#fff;">35</text><text x="2933.02px" y="675px" style="font-family:'ArialMT', 'Arial', sans-serif;font-size:83.333px;">42</text><text x="4329.84px" y="675px" style="font-family:'ArialMT', 'Arial', sans-serif;font-size:83.333px;fill:#fff;">41</text><text x="2266.35px" y="675px" style="font-family:'ArialMT', 'Arial', sans-serif;font-size:83.333px;">28</text><text x="3679.05px" y="675px" style="font-family:'ArialMT', 'Arial', sans-serif;font-size:83.333px;">47</text><text x="1821.91px" y="675px" style="font-family:'ArialMT', 'Arial', sans-serif;font-size:83.333px;">36</text><text x="1250.48px" y="675px" style="font-family:'ArialMT', 'Arial', sans-serif;font-size:83.333px;fill:#fff;">53</text><text x="3710.8px" y="397.222px" style="font-family:'ArialMT', 'Arial', sans-serif;font-size:83.333px;">78</text><text x="5234.61px" y="397.222px" style="font-family:'ArialMT', 'Arial', sans-serif;font-size:83.333px;fill:#fff;">65</text><text x="2472.7px" y="397.222px" style="font-family:'ArialMT', 'Arial', sans-serif;font-size:83.333px;">47</text><text x="4202.86px" y="397.222px" style="font-family:'ArialMT', 'Arial', sans-serif;font-size:83.333px;">31</text><text x="1726.67px" y="397.222px" style="font-family:'ArialMT', 'Arial', sans-serif;font-size:83.333px;">41</text><text x="1075.88px" y="397.222px" style="font-family:'ArialMT', 'Arial', sans-serif;font-size:83.333px;fill:#fff;">42</text><text x="3885.4px" y="813.889px" style="font-family:'ArialMT', 'Arial', sans-serif;font-size:83.333px;">50</text><text x="5044.13px" y="813.889px" style="font-family:'ArialMT', 'Arial', sans-serif;font-size:83.333px;fill:#fff;">32</text><text x="3091.75px" y="813.889px" style="font-family:'ArialMT', 'Arial', sans-serif;font-size:83.333px;">36</text><text x="4536.19px" y="813.889px" style="font-family:'ArialMT', 'Arial', sans-serif;font-size:83.333px;">41</text><text x="2520.32px" y="813.889px" style="font-family:'ArialMT', 'Arial', sans-serif;font-size:83.333px;">76</text><text x="1313.97px" y="813.889px" style="font-family:'ArialMT', 'Arial', sans-serif;font-size:83.333px;fill:#fff;">57</text><text x="3091.75px" y="952.778px" style="font-family:'ArialMT', 'Arial', sans-serif;font-size:83.333px;">46</text><text x="4313.97px" y="952.778px" style="font-family:'ArialMT', 'Arial', sans-serif;font-size:83.333px;fill:#fff;">35</text><text x="2361.59px" y="952.778px" style="font-family:'ArialMT', 'Arial', sans-serif;font-size:83.333px;">53</text><text x="3758.42px" y="952.778px" style="font-family:'ArialMT', 'Arial', sans-serif;font-size:83.333px;">42</text><text x="1520.32px" y="952.778px" style="font-family:'ArialMT', 'Arial', sans-serif;font-size:83.333px;">57</text><text x="615.559px" y="952.778px" style="font-family:'ArialMT', 'Arial', sans-serif;font-size:83.333px;fill:#fff;">13</text></g><g><g><rect x="6194.44" y="161.111" width="566.667" height="511.111" style="fill:none;fill-rule:nonzero;"/><g><g><g><g><g><g><rect x="6194.44" y="250" width="561.328" height="61.111" style="fill:none;fill-rule:nonzero;"/><g><g><rect x="6200" y="255.556" width="55.556" height="55.556" style="fill:#3b4cc0;fill-rule:nonzero;"/></g><g><text x="6283.33px" y="300px" style="font-family:'ArialMT', 'Arial', sans-serif;font-size:55.556px;">Overlaps Liver</text></g></g></g><g><rect x="6194.44" y="322.222" width="561.328" height="61.111" style="fill:none;fill-rule:nonzero;"/><g><g><rect x="6200" y="327.778" width="55.556" height="55.556" style="fill:#7b9ff9;fill-rule:nonzero;"/></g><g><text x="6283.33px" y="372.222px" style="font-family:'ArialMT', 'Arial', sans-serif;font-size:55.556px;">Overlaps Heart</text></g></g></g><g><rect x="6194.44" y="394.444" width="561.328" height="61.111" style="fill:none;fill-rule:nonzero;"/><g><g><rect x="6200" y="400" width="55.556" height="55.556" style="fill:#c0d4f5;fill-rule:nonzero;"/></g><g><text x="6283.33px" y="444.444px" style="font-family:'ArialMT', 'Arial', sans-serif;font-size:55.556px;">Overlaps Lung</text></g></g></g><g><rect x="6194.44" y="466.667" width="561.328" height="61.111" style="fill:none;fill-rule:nonzero;"/><g><g><rect x="6200" y="472.222" width="55.556" height="55.556" style="fill:#f2cbb7;fill-rule:nonzero;"/></g><g><text x="6283.33px" y="516.667px" style="font-family:'ArialMT', 'Arial', sans-serif;font-size:55.556px;">Overlaps Kidney</text></g></g></g><g><rect x="6194.44" y="538.889" width="561.328" height="61.111" style="fill:none;fill-rule:nonzero;"/><g><g><rect x="6200" y="544.444" width="55.556" height="55.556" style="fill:#ee8468;fill-rule:nonzero;"/></g><g><text x="6283.33px" y="588.889px" style="font-family:'ArialMT', 'Arial', sans-serif;font-size:55.556px;">Overlaps Pancreas</text></g></g></g><g><rect x="6194.44" y="611.111" width="561.328" height="61.111" style="fill:none;fill-rule:nonzero;"/><g><g><rect x="6200" y="616.667" width="55.556" height="55.556" style="fill:#b40426;fill-rule:nonzero;"/></g><g><text x="6283.33px" y="661.111px" style="font-family:'ArialMT', 'Arial', sans-serif;font-size:55.556px;">Overlaps Spleen</text></g></g></g></g></g></g></g><g><text x="6194.44px" y="211.111px" style="font-family:'Arial-BoldMT', 'Arial', sans-serif;font-weight:700;font-size:61.111px;">Compared T<tspan x="6549.86px 6566.84px " y="211.111px 211.111px ">is</tspan>sue</text></g></g></g></g><g><g><g><g><text x="2277.25px" y="116.667px" style="font-family:'Arial-BoldMT', 'Arial', sans-serif;font-weight:700;font-size:111.111px;">Shared Proteins Between Organ T<tspan x="4071.96px 4102.83px " y="116.667px 116.667px ">is</tspan>sue</text></g></g></g></g></g></g></g></g></svg>