<?xml version="1.0" encoding="UTF-8" standalone="no"?><!DOCTYPE svg PUBLIC "-//W3C//DTD SVG 1.1//EN" "http://www.w3.org/Graphics/SVG/1.1/DTD/svg11.dtd"><svg width="100%" height="100%" viewBox="0 0 7145 1256" version="1.1" xmlns="http://www.w3.org/2000/svg" xmlns:xlink="http://www.w3.org/1999/xlink" xml:space="preserve" xmlns:serif="http://www.serif.com/" style="fill-rule:evenodd;clip-rule:evenodd;"><rect x="0" y="0" width="7144.44" height="1255.56" style="fill:#fff;"/><g><g><g><rect x="780.556" y="163.889" width="5555.56" height="833.333" style="fill:none;fill-rule:nonzero;stroke:#ddd;stroke-width:5.56px;"/><g><g><g><g><g><path d="M780.556,997.222l-0,-833.333" style="fill:none;fill-rule:nonzero;stroke:#ddd;stroke-width:5.56px;"/><path d="M1397.22,997.222l0,-833.333" style="fill:none;fill-rule:nonzero;stroke:#ddd;stroke-width:5.56px;"/><path d="M2013.89,997.222l-0,-833.333" style="fill:none;fill-rule:nonzero;stroke:#ddd;stroke-width:5.56px;"/><path d="M2630.56,997.222l-0,-833.333" style="fill:none;fill-rule:nonzero;stroke:#ddd;stroke-width:5.56px;"/><path d="M3247.22,997.222l0,-833.333" style="fill:none;fill-rule:nonzero;stroke:#ddd;stroke-width:5.56px;"/><path d="M3869.44,997.222l0,-833.333" style="fill:none;fill-rule:nonzero;stroke:#ddd;stroke-width:5.56px;"/><path d="M4486.11,997.222l0,-833.333" style="fill:none;fill-rule:nonzero;stroke:#ddd;stroke-width:5.56px;"/><path d="M5102.78,997.222l-0,-833.333" style="fill:none;fill-rule:nonzero;stroke:#ddd;stroke-width:5.56px;"/><path d="M5719.44,997.222l0,-833.333" style="fill:none;fill-rule:nonzero;stroke:#ddd;stroke-width:5.56px;"/><path d="M6336.11,997.222l0,-833.333" style="fill:none;fill-rule:nonzero;stroke:#ddd;stroke-width:5.56px;"/></g></g></g></g><g><g><g><g><path d="M780.556,997.222l-0,27.778" style="fill:none;fill-rule:nonzero;stroke:#888;stroke-width:5.56px;"/><path d="M1397.22,997.222l0,27.778" style="fill:none;fill-rule:nonzero;stroke:#888;stroke-width:5.56px;"/><path d="M2013.89,997.222l-0,27.778" style="fill:none;fill-rule:nonzero;stroke:#888;stroke-width:5.56px;"/><path d="M2630.56,997.222l-0,27.778" style="fill:none;fill-rule:nonzero;stroke:#888;stroke-width:5.56px;"/><path d="M3247.22,997.222l0,27.778" style="fill:none;fill-rule:nonzero;stroke:#888;stroke-width:5.56px;"/><path d="M3869.44,997.222l0,27.778" style="fill:none;fill-rule:nonzero;stroke:#888;stroke-width:5.56px;"/><path d="M4486.11,997.222l0,27.778" style="fill:none;fill-rule:nonzero;stroke:#888;stroke-width:5.56px;"/><path d="M5102.78,997.222l-0,27.778" style="fill:none;fill-rule:nonzero;stroke:#888;stroke-width:5.56px;"/><path d="M5719.44,997.222l0,27.778" style="fill:none;fill-rule:nonzero;stroke:#888;stroke-width:5.56px;"/><path d="M6336.11,997.222l0,27.778" style="fill:none;fill-rule:nonzero;stroke:#888;stroke-width:5.56px;"/></g><g><text x="780.556px" y="1125px" style="font-family:'ArialMT', 'Arial', sans-serif;font-size:111.111px;">0</text><text x="1305.15px" y="1125px" style="font-family:'ArialMT', 'Arial', sans-serif;font-size:111.111px;">100</text><text x="1922.43px" y="1125px" style="font-family:'ArialMT', 'Arial', sans-serif;font-size:111.111px;">200</text><text x="2539.72px" y="1125px" style="font-family:'ArialMT', 'Arial', sans-serif;font-size:111.111px;">300</text><text x="3157px" y="1125px" style="font-family:'ArialMT', 'Arial', sans-serif;font-size:111.111px;">400</text><text x="3774.28px" y="1125px" style="font-family:'ArialMT', 'Arial', sans-serif;font-size:111.111px;">500</text><text x="4391.57px" y="1125px" style="font-family:'ArialMT', 'Arial', sans-serif;font-size:111.111px;">600</text><text x="5008.85px" y="1125px" style="font-family:'ArialMT', 'Arial', sans-serif;font-size:111.111px;">700</text><text x="5626.14px" y="1125px" style="font-family:'ArialMT', 'Arial', sans-serif;font-size:111.111px;">800</text><text x="6150.73px" y="1125px" style="font-family:'ArialMT', 'Arial', sans-serif;font-size:111.111px;">900</text></g><g><path d="M780.556,997.222l5555.56,0" style="fill:none;fill-rule:nonzero;stroke:#888;stroke-width:5.56px;"/></g><g><text x="3088.05px" y="1219.44px" style="font-family:'Arial-BoldMT', 'Arial', sans-serif;font-weight:700;font-size:61.111px;">Number of Overlapping Proteins</text></g></g></g></g><g><g><g><g><path d="M780.556,247.222l-27.778,0" style="fill:none;fill-rule:nonzero;stroke:#888;stroke-width:5.56px;"/><path d="M780.556,413.889l-27.778,-0" style="fill:none;fill-rule:nonzero;stroke:#888;stroke-width:5.56px;"/><path d="M780.556,580.556l-27.778,-0" style="fill:none;fill-rule:nonzero;stroke:#888;stroke-width:5.56px;"/><path d="M780.556,747.222l-27.778,0" style="fill:none;fill-rule:nonzero;stroke:#888;stroke-width:5.56px;"/><path d="M780.556,913.889l-27.778,-0" style="fill:none;fill-rule:nonzero;stroke:#888;stroke-width:5.56px;"/></g><g><text x="364.985px" y="277.778px" style="font-family:'ArialMT', 'Arial', sans-serif;font-size:111.111px;">Bcortex</text><text x="173.524px" y="444.444px" style="font-family:'ArialMT', 'Arial', sans-serif;font-size:111.111px;">Cerebellum</text><text x="31.434px" y="611.111px" style="font-family:'ArialMT', 'Arial', sans-serif;font-size:111.111px;">Hypothalamus</text><text x="352.561px" y="777.778px" style="font-family:'ArialMT', 'Arial', sans-serif;font-size:111.111px;">Medulla</text><text x="364.985px" y="944.444px" style="font-family:'ArialMT', 'Arial', sans-serif;font-size:111.111px;">Scortex</text></g><g><path d="M780.556,163.889l-0,833.333" style="fill:none;fill-rule:nonzero;stroke:#888;stroke-width:5.56px;"/></g></g></g></g><g><rect x="5740.74" y="169.444" width="123.457" height="150" style="fill:#3b4cc0;fill-rule:nonzero;"/><rect x="4530.86" y="169.444" width="1209.88" height="150" style="fill:#8db0fe;fill-rule:nonzero;"/><rect x="3240.74" y="169.444" width="1290.12" height="150" style="fill:#ddd;fill-rule:nonzero;"/><rect x="2135.8" y="169.444" width="1104.94" height="150" style="fill:#f49a7b;fill-rule:nonzero;"/><rect x="777.778" y="169.444" width="1358.03" height="150" style="fill:#b40426;fill-rule:nonzero;"/><rect x="4358.02" y="336.111" width="1209.88" height="150" style="fill:#3b4cc0;fill-rule:nonzero;"/><rect x="4216.05" y="336.111" width="141.975" height="150" style="fill:#8db0fe;fill-rule:nonzero;"/><rect x="3018.52" y="336.111" width="1197.53" height="150" style="fill:#ddd;fill-rule:nonzero;"/><rect x="1975.31" y="336.111" width="1043.21" height="150" style="fill:#f49a7b;fill-rule:nonzero;"/><rect x="777.778" y="336.111" width="1197.53" height="150" style="fill:#b40426;fill-rule:nonzero;"/><rect x="4530.86" y="502.778" width="1290.12" height="150" style="fill:#3b4cc0;fill-rule:nonzero;"/><rect x="3333.33" y="502.778" width="1197.53" height="150" style="fill:#8db0fe;fill-rule:nonzero;"/><rect x="3222.22" y="502.778" width="111.111" height="150" style="fill:#ddd;fill-rule:nonzero;"/><rect x="2074.07" y="502.778" width="1148.15" height="150" style="fill:#f49a7b;fill-rule:nonzero;"/><rect x="777.778" y="502.778" width="1296.3" height="150" style="fill:#b40426;fill-rule:nonzero;"/><rect x="4141.98" y="669.444" width="1104.94" height="150" style="fill:#3b4cc0;fill-rule:nonzero;"/><rect x="3098.76" y="669.444" width="1043.21" height="150" style="fill:#8db0fe;fill-rule:nonzero;"/><rect x="1950.62" y="669.444" width="1148.15" height="150" style="fill:#ddd;fill-rule:nonzero;"/><rect x="1882.72" y="669.444" width="67.901" height="150" style="fill:#f49a7b;fill-rule:nonzero;"/><rect x="777.778" y="669.444" width="1104.94" height="150" style="fill:#b40426;fill-rule:nonzero;"/><rect x="4419.75" y="836.111" width="1358.03" height="150" style="fill:#3b4cc0;fill-rule:nonzero;"/><rect x="3222.22" y="836.111" width="1197.53" height="150" style="fill:#8db0fe;fill-rule:nonzero;"/><rect x="1925.93" y="836.111" width="1296.3" height="150" style="fill:#ddd;fill-rule:nonzero;"/><rect x="820.988" y="836.111" width="1104.94" height="150" style="fill:#f49a7b;fill-rule:nonzero;"/><rect x="777.778" y="836.111" width="43.21" height="150" style="fill:#b40426;fill-rule:nonzero;"/></g><g><text x="5756.86px" y="277.778px" style="font-family:'ArialMT', 'Arial', sans-serif;font-size:83.333px;fill:#fff;">20</text><text x="5532.33px" y="277.778px" style="font-family:'ArialMT', 'Arial', sans-serif;font-size:83.333px;">196</text><text x="4322.46px" y="277.778px" style="font-family:'ArialMT', 'Arial', sans-serif;font-size:83.333px;">209</text><text x="3032.33px" y="277.778px" style="font-family:'ArialMT', 'Arial', sans-serif;font-size:83.333px;">179</text><text x="1927.39px" y="277.778px" style="font-family:'ArialMT', 'Arial', sans-serif;font-size:83.333px;fill:#fff;">220</text><text x="5359.49px" y="444.444px" style="font-family:'ArialMT', 'Arial', sans-serif;font-size:83.333px;fill:#fff;">196</text><text x="4237.16px" y="444.444px" style="font-family:'ArialMT', 'Arial', sans-serif;font-size:83.333px;">23</text><text x="4007.64px" y="444.444px" style="font-family:'ArialMT', 'Arial', sans-serif;font-size:83.333px;">194</text><text x="2810.11px" y="444.444px" style="font-family:'ArialMT', 'Arial', sans-serif;font-size:83.333px;">169</text><text x="1766.9px" y="444.444px" style="font-family:'ArialMT', 'Arial', sans-serif;font-size:83.333px;fill:#fff;">194</text><text x="5612.58px" y="611.111px" style="font-family:'ArialMT', 'Arial', sans-serif;font-size:83.333px;fill:#fff;">209</text><text x="4322.46px" y="611.111px" style="font-family:'ArialMT', 'Arial', sans-serif;font-size:83.333px;">194</text><text x="3228.73px" y="611.111px" style="font-family:'ArialMT', 'Arial', sans-serif;font-size:83.333px;">18</text><text x="3013.81px" y="611.111px" style="font-family:'ArialMT', 'Arial', sans-serif;font-size:83.333px;">186</text><text x="1865.67px" y="611.111px" style="font-family:'ArialMT', 'Arial', sans-serif;font-size:83.333px;fill:#fff;">210</text><text x="5038.51px" y="777.778px" style="font-family:'ArialMT', 'Arial', sans-serif;font-size:83.333px;fill:#fff;">179</text><text x="3933.57px" y="777.778px" style="font-family:'ArialMT', 'Arial', sans-serif;font-size:83.333px;">169</text><text x="2890.36px" y="777.778px" style="font-family:'ArialMT', 'Arial', sans-serif;font-size:83.333px;">186</text><text x="1888.28px" y="777.778px" style="font-family:'ArialMT', 'Arial', sans-serif;font-size:83.333px;">1<tspan x="1928.44px " y="777.778px ">1</tspan></text><text x="1674.31px" y="777.778px" style="font-family:'ArialMT', 'Arial', sans-serif;font-size:83.333px;fill:#fff;">179</text><text x="5569.37px" y="944.444px" style="font-family:'ArialMT', 'Arial', sans-serif;font-size:83.333px;fill:#fff;">220</text><text x="4211.35px" y="944.444px" style="font-family:'ArialMT', 'Arial', sans-serif;font-size:83.333px;">194</text><text x="3013.81px" y="944.444px" style="font-family:'ArialMT', 'Arial', sans-serif;font-size:83.333px;">210</text><text x="1717.52px" y="944.444px" style="font-family:'ArialMT', 'Arial', sans-serif;font-size:83.333px;">179</text><text x="791.243px" y="944.444px" style="font-family:'ArialMT', 'Arial', sans-serif;font-size:83.333px;fill:#fff;">7</text></g><g><g><rect x="6433.33" y="161.111" width="683.333" height="438.889" style="fill:none;fill-rule:nonzero;"/><g><g><g><g><g><g><rect x="6433.33" y="250" width="681.744" height="61.111" style="fill:none;fill-rule:nonzero;"/><g><g><rect x="6438.89" y="255.556" width="55.556" height="55.556" style="fill:#3b4cc0;fill-rule:nonzero;"/></g><g><text x="6522.22px" y="300px" style="font-family:'ArialMT', 'Arial', sans-serif;font-size:55.556px;">Overlaps Bcortex</text></g></g></g><g><rect x="6433.33" y="322.222" width="681.744" height="61.111" style="fill:none;fill-rule:nonzero;"/><g><g><rect x="6438.89" y="327.778" width="55.556" height="55.556" style="fill:#8db0fe;fill-rule:nonzero;"/></g><g><text x="6522.22px" y="372.222px" style="font-family:'ArialMT', 'Arial', sans-serif;font-size:55.556px;">Overlaps Cerebellum</text></g></g></g><g><rect x="6433.33" y="394.444" width="681.744" height="61.111" style="fill:none;fill-rule:nonzero;"/><g><g><rect x="6438.89" y="400" width="55.556" height="55.556" style="fill:#ddd;fill-rule:nonzero;"/></g><g><text x="6522.22px" y="444.444px" style="font-family:'ArialMT', 'Arial', sans-serif;font-size:55.556px;">Overlaps Hypothalamus</text></g></g></g><g><rect x="6433.33" y="466.667" width="681.744" height="61.111" style="fill:none;fill-rule:nonzero;"/><g><g><rect x="6438.89" y="472.222" width="55.556" height="55.556" style="fill:#f49a7b;fill-rule:nonzero;"/></g><g><text x="6522.22px" y="516.667px" style="font-family:'ArialMT', 'Arial', sans-serif;font-size:55.556px;">Overlaps Medulla</text></g></g></g><g><rect x="6433.33" y="538.889" width="681.744" height="61.111" style="fill:none;fill-rule:nonzero;"/><g><g><rect x="6438.89" y="544.444" width="55.556" height="55.556" style="fill:#b40426;fill-rule:nonzero;"/></g><g><text x="6522.22px" y="588.889px" style="font-family:'ArialMT', 'Arial', sans-serif;font-size:55.556px;">Overlaps Scortex</text></g></g></g></g></g></g></g><g><text x="6433.33px" y="211.111px" style="font-family:'Arial-BoldMT', 'Arial', sans-serif;font-weight:700;font-size:61.111px;">Compared T<tspan x="6788.75px 6805.73px " y="211.111px 211.111px ">is</tspan>sue</text></g></g></g></g><g><g><g><g><text x="2493.57px" y="116.667px" style="font-family:'Arial-BoldMT', 'Arial', sans-serif;font-weight:700;font-size:111.111px;">Shared Proteins Between Brain Regions</text></g></g></g></g></g></g></g></g></svg>