<?xml version="1.0" encoding="UTF-8" standalone="no"?><!DOCTYPE svg PUBLIC "-//W3C//DTD SVG 1.1//EN" "http://www.w3.org/Graphics/SVG/1.1/DTD/svg11.dtd"><svg width="100%" height="100%" viewBox="0 0 7145 1256" version="1.1" xmlns="http://www.w3.org/2000/svg" xmlns:xlink="http://www.w3.org/1999/xlink" xml:space="preserve" xmlns:serif="http://www.serif.com/" style="fill-rule:evenodd;clip-rule:evenodd;"><rect x="0" y="0" width="7144.44" height="1255.56" style="fill:#fff;"/><g><g><rect x="780.556" y="163.889" width="5555.56" height="833.333" style="fill:none;fill-rule:nonzero;stroke:#ddd;stroke-width:5.56px;"/><g><g><g><g><g><path d="M780.556,997.222l-0,-833.333" style="fill:none;fill-rule:nonzero;stroke:#ddd;stroke-width:5.56px;"/><path d="M1397.22,997.222l0,-833.333" style="fill:none;fill-rule:nonzero;stroke:#ddd;stroke-width:5.56px;"/><path d="M2013.89,997.222l-0,-833.333" style="fill:none;fill-rule:nonzero;stroke:#ddd;stroke-width:5.56px;"/><path d="M2630.56,997.222l-0,-833.333" style="fill:none;fill-rule:nonzero;stroke:#ddd;stroke-width:5.56px;"/><path d="M3247.22,997.222l0,-833.333" style="fill:none;fill-rule:nonzero;stroke:#ddd;stroke-width:5.56px;"/><path d="M3869.44,997.222l0,-833.333" style="fill:none;fill-rule:nonzero;stroke:#ddd;stroke-width:5.56px;"/><path d="M4486.11,997.222l0,-833.333" style="fill:none;fill-rule:nonzero;stroke:#ddd;stroke-width:5.56px;"/><path d="M5102.78,997.222l-0,-833.333" style="fill:none;fill-rule:nonzero;stroke:#ddd;stroke-width:5.56px;"/><path d="M5719.44,997.222l0,-833.333" style="fill:none;fill-rule:nonzero;stroke:#ddd;stroke-width:5.56px;"/><path d="M6336.11,997.222l0,-833.333" style="fill:none;fill-rule:nonzero;stroke:#ddd;stroke-width:5.56px;"/></g></g></g></g><g><g><g><g><path d="M780.556,997.222l-0,27.778" style="fill:none;fill-rule:nonzero;stroke:#888;stroke-width:5.56px;"/><path d="M1397.22,997.222l0,27.778" style="fill:none;fill-rule:nonzero;stroke:#888;stroke-width:5.56px;"/><path d="M2013.89,997.222l-0,27.778" style="fill:none;fill-rule:nonzero;stroke:#888;stroke-width:5.56px;"/><path d="M2630.56,997.222l-0,27.778" style="fill:none;fill-rule:nonzero;stroke:#888;stroke-width:5.56px;"/><path d="M3247.22,997.222l0,27.778" style="fill:none;fill-rule:nonzero;stroke:#888;stroke-width:5.56px;"/><path d="M3869.44,997.222l0,27.778" style="fill:none;fill-rule:nonzero;stroke:#888;stroke-width:5.56px;"/><path d="M4486.11,997.222l0,27.778" style="fill:none;fill-rule:nonzero;stroke:#888;stroke-width:5.56px;"/><path d="M5102.78,997.222l-0,27.778" style="fill:none;fill-rule:nonzero;stroke:#888;stroke-width:5.56px;"/><path d="M5719.44,997.222l0,27.778" style="fill:none;fill-rule:nonzero;stroke:#888;stroke-width:5.56px;"/><path d="M6336.11,997.222l0,27.778" style="fill:none;fill-rule:nonzero;stroke:#888;stroke-width:5.56px;"/></g><g><text x="780.556px" y="1125px" style="font-family:'ArialMT', 'Arial', sans-serif;font-size:111.111px;">0</text><text x="1305.15px" y="1125px" style="font-family:'ArialMT', 'Arial', sans-serif;font-size:111.111px;">100</text><text x="1922.43px" y="1125px" style="font-family:'ArialMT', 'Arial', sans-serif;font-size:111.111px;">200</text><text x="2539.72px" y="1125px" style="font-family:'ArialMT', 'Arial', sans-serif;font-size:111.111px;">300</text><text x="3157px" y="1125px" style="font-family:'ArialMT', 'Arial', sans-serif;font-size:111.111px;">400</text><text x="3774.28px" y="1125px" style="font-family:'ArialMT', 'Arial', sans-serif;font-size:111.111px;">500</text><text x="4391.57px" y="1125px" style="font-family:'ArialMT', 'Arial', sans-serif;font-size:111.111px;">600</text><text x="5008.85px" y="1125px" style="font-family:'ArialMT', 'Arial', sans-serif;font-size:111.111px;">700</text><text x="5626.14px" y="1125px" style="font-family:'ArialMT', 'Arial', sans-serif;font-size:111.111px;">800</text><text x="6150.73px" y="1125px" style="font-family:'ArialMT', 'Arial', sans-serif;font-size:111.111px;">900</text></g><g><path d="M780.556,997.222l5555.56,0" style="fill:none;fill-rule:nonzero;stroke:#888;stroke-width:5.56px;"/></g><g><text x="3088.05px" y="1219.44px" style="font-family:'Arial-BoldMT', 'Arial', sans-serif;font-weight:700;font-size:61.111px;">Number of Overlapping Proteins</text></g></g></g></g><g><g><g><g><path d="M780.556,247.222l-27.778,0" style="fill:none;fill-rule:nonzero;stroke:#888;stroke-width:5.56px;"/><path d="M780.556,413.889l-27.778,-0" style="fill:none;fill-rule:nonzero;stroke:#888;stroke-width:5.56px;"/><path d="M780.556,580.556l-27.778,-0" style="fill:none;fill-rule:nonzero;stroke:#888;stroke-width:5.56px;"/><path d="M780.556,747.222l-27.778,0" style="fill:none;fill-rule:nonzero;stroke:#888;stroke-width:5.56px;"/><path d="M780.556,913.889l-27.778,-0" style="fill:none;fill-rule:nonzero;stroke:#888;stroke-width:5.56px;"/></g><g><text x="309.429px" y="277.778px" style="font-family:'ArialMT', 'Arial', sans-serif;font-size:111.111px;">B.Cortex</text><text x="173.524px" y="444.444px" style="font-family:'ArialMT', 'Arial', sans-serif;font-size:111.111px;">Cerebellum</text><text x="31.434px" y="611.111px" style="font-family:'ArialMT', 'Arial', sans-serif;font-size:111.111px;">Hypothalamus</text><text x="352.561px" y="777.778px" style="font-family:'ArialMT', 'Arial', sans-serif;font-size:111.111px;">Medulla</text><text x="309.429px" y="944.444px" style="font-family:'ArialMT', 'Arial', sans-serif;font-size:111.111px;">S.Cortex</text></g><g><path d="M780.556,163.889l-0,833.333" style="fill:none;fill-rule:nonzero;stroke:#888;stroke-width:5.56px;"/></g></g></g></g><g><rect x="5876.54" y="169.444" width="98.765" height="150" style="fill:#3b4cc0;fill-rule:nonzero;"/><rect x="4672.84" y="169.444" width="1203.7" height="150" style="fill:#8db0fe;fill-rule:nonzero;"/><rect x="3308.64" y="169.444" width="1364.2" height="150" style="fill:#ddd;fill-rule:nonzero;"/><rect x="2123.46" y="169.444" width="1185.18" height="150" style="fill:#f49a7b;fill-rule:nonzero;"/><rect x="777.778" y="169.444" width="1345.68" height="150" style="fill:#b40426;fill-rule:nonzero;"/><rect x="4475.31" y="336.111" width="1203.7" height="150" style="fill:#3b4cc0;fill-rule:nonzero;"/><rect x="4407.41" y="336.111" width="67.901" height="150" style="fill:#8db0fe;fill-rule:nonzero;"/><rect x="3141.97" y="336.111" width="1265.43" height="150" style="fill:#ddd;fill-rule:nonzero;"/><rect x="2000" y="336.111" width="1141.98" height="150" style="fill:#f49a7b;fill-rule:nonzero;"/><rect x="777.778" y="336.111" width="1222.22" height="150" style="fill:#b40426;fill-rule:nonzero;"/><rect x="4660.49" y="502.778" width="1296.3" height="150" style="fill:#3b4cc0;fill-rule:nonzero;"/><rect x="3456.79" y="502.778" width="1203.7" height="150" style="fill:#8db0fe;fill-rule:nonzero;"/><rect x="3370.37" y="502.778" width="86.42" height="150" style="fill:#ddd;fill-rule:nonzero;"/><rect x="2111.11" y="502.778" width="1259.26" height="150" style="fill:#f49a7b;fill-rule:nonzero;"/><rect x="777.778" y="502.778" width="1333.33" height="150" style="fill:#b40426;fill-rule:nonzero;"/><rect x="4500" y="669.444" width="1203.7" height="150" style="fill:#3b4cc0;fill-rule:nonzero;"/><rect x="3370.37" y="669.444" width="1129.63" height="150" style="fill:#8db0fe;fill-rule:nonzero;"/><rect x="2049.38" y="669.444" width="1320.99" height="150" style="fill:#ddd;fill-rule:nonzero;"/><rect x="2000" y="669.444" width="49.383" height="150" style="fill:#f49a7b;fill-rule:nonzero;"/><rect x="777.778" y="669.444" width="1222.22" height="150" style="fill:#b40426;fill-rule:nonzero;"/><rect x="4654.32" y="836.111" width="1339.51" height="150" style="fill:#3b4cc0;fill-rule:nonzero;"/><rect x="3444.44" y="836.111" width="1209.88" height="150" style="fill:#8db0fe;fill-rule:nonzero;"/><rect x="2037.04" y="836.111" width="1407.41" height="150" style="fill:#ddd;fill-rule:nonzero;"/><rect x="814.815" y="836.111" width="1222.22" height="150" style="fill:#f49a7b;fill-rule:nonzero;"/><rect x="777.778" y="836.111" width="37.037" height="150" style="fill:#b40426;fill-rule:nonzero;"/></g><g><text x="5870.78px" y="277.778px" style="font-family:'ArialMT', 'Arial', sans-serif;font-size:94.444px;">16</text><text x="5658.87px" y="277.778px" style="font-family:'ArialMT', 'Arial', sans-serif;font-size:94.444px;">195</text><text x="4455.16px" y="277.778px" style="font-family:'ArialMT', 'Arial', sans-serif;font-size:94.444px;">221</text><text x="3090.97px" y="277.778px" style="font-family:'ArialMT', 'Arial', sans-serif;font-size:94.444px;">192</text><text x="1905.78px" y="277.778px" style="font-family:'ArialMT', 'Arial', sans-serif;font-size:94.444px;">218</text><text x="5461.34px" y="444.444px" style="font-family:'ArialMT', 'Arial', sans-serif;font-size:94.444px;">195</text><text x="4392.78px" y="444.444px" style="font-family:'ArialMT', 'Arial', sans-serif;font-size:94.444px;">1<tspan x="4438.29px " y="444.444px ">1</tspan></text><text x="4189.73px" y="444.444px" style="font-family:'ArialMT', 'Arial', sans-serif;font-size:94.444px;">205</text><text x="2924.3px" y="444.444px" style="font-family:'ArialMT', 'Arial', sans-serif;font-size:94.444px;">185</text><text x="1782.32px" y="444.444px" style="font-family:'ArialMT', 'Arial', sans-serif;font-size:94.444px;">198</text><text x="5739.11px" y="611.111px" style="font-family:'ArialMT', 'Arial', sans-serif;font-size:94.444px;">210</text><text x="4442.82px" y="611.111px" style="font-family:'ArialMT', 'Arial', sans-serif;font-size:94.444px;">195</text><text x="3361.95px" y="611.111px" style="font-family:'ArialMT', 'Arial', sans-serif;font-size:94.444px;">14</text><text x="3152.69px" y="611.111px" style="font-family:'ArialMT', 'Arial', sans-serif;font-size:94.444px;">204</text><text x="1893.43px" y="611.111px" style="font-family:'ArialMT', 'Arial', sans-serif;font-size:94.444px;">216</text><text x="5486.03px" y="777.778px" style="font-family:'ArialMT', 'Arial', sans-serif;font-size:94.444px;">195</text><text x="4282.32px" y="777.778px" style="font-family:'ArialMT', 'Arial', sans-serif;font-size:94.444px;">183</text><text x="3152.69px" y="777.778px" style="font-family:'ArialMT', 'Arial', sans-serif;font-size:94.444px;">214</text><text x="1997.47px" y="777.778px" style="font-family:'ArialMT', 'Arial', sans-serif;font-size:94.444px;">8</text><text x="1782.32px" y="777.778px" style="font-family:'ArialMT', 'Arial', sans-serif;font-size:94.444px;">198</text><text x="5776.15px" y="944.444px" style="font-family:'ArialMT', 'Arial', sans-serif;font-size:94.444px;">217</text><text x="4436.64px" y="944.444px" style="font-family:'ArialMT', 'Arial', sans-serif;font-size:94.444px;">196</text><text x="3226.77px" y="944.444px" style="font-family:'ArialMT', 'Arial', sans-serif;font-size:94.444px;">228</text><text x="1819.36px" y="944.444px" style="font-family:'ArialMT', 'Arial', sans-serif;font-size:94.444px;">198</text><text x="785.824px" y="944.444px" style="font-family:'ArialMT', 'Arial', sans-serif;font-size:94.444px;">6</text></g><g><g><rect x="6433.33" y="161.111" width="683.333" height="438.889" style="fill:none;fill-rule:nonzero;"/><g><g><g><g><g><g><rect x="6433.33" y="250" width="681.744" height="61.111" style="fill:none;fill-rule:nonzero;"/><g><g><rect x="6438.89" y="255.556" width="55.556" height="55.556" style="fill:#3b4cc0;fill-rule:nonzero;"/></g><g><text x="6522.22px" y="300px" style="font-family:'ArialMT', 'Arial', sans-serif;font-size:55.556px;">Overlaps B.Cortex</text></g></g></g><g><rect x="6433.33" y="322.222" width="681.744" height="61.111" style="fill:none;fill-rule:nonzero;"/><g><g><rect x="6438.89" y="327.778" width="55.556" height="55.556" style="fill:#8db0fe;fill-rule:nonzero;"/></g><g><text x="6522.22px" y="372.222px" style="font-family:'ArialMT', 'Arial', sans-serif;font-size:55.556px;">Overlaps Cerebellum</text></g></g></g><g><rect x="6433.33" y="394.444" width="681.744" height="61.111" style="fill:none;fill-rule:nonzero;"/><g><g><rect x="6438.89" y="400" width="55.556" height="55.556" style="fill:#ddd;fill-rule:nonzero;"/></g><g><text x="6522.22px" y="444.444px" style="font-family:'ArialMT', 'Arial', sans-serif;font-size:55.556px;">Overlaps Hypothalamus</text></g></g></g><g><rect x="6433.33" y="466.667" width="681.744" height="61.111" style="fill:none;fill-rule:nonzero;"/><g><g><rect x="6438.89" y="472.222" width="55.556" height="55.556" style="fill:#f49a7b;fill-rule:nonzero;"/></g><g><text x="6522.22px" y="516.667px" style="font-family:'ArialMT', 'Arial', sans-serif;font-size:55.556px;">Overlaps Medulla</text></g></g></g><g><rect x="6433.33" y="538.889" width="681.744" height="61.111" style="fill:none;fill-rule:nonzero;"/><g><g><rect x="6438.89" y="544.444" width="55.556" height="55.556" style="fill:#b40426;fill-rule:nonzero;"/></g><g><text x="6522.22px" y="588.889px" style="font-family:'ArialMT', 'Arial', sans-serif;font-size:55.556px;">Overlaps S.Cortex</text></g></g></g></g></g></g></g><g><text x="6433.33px" y="211.111px" style="font-family:'Arial-BoldMT', 'Arial', sans-serif;font-weight:700;font-size:61.111px;">Compared T<tspan x="6788.75px 6805.73px " y="211.111px 211.111px ">is</tspan>sue</text></g></g></g></g><g><g><g><g><text x="2493.57px" y="116.667px" style="font-family:'Arial-BoldMT', 'Arial', sans-serif;font-weight:700;font-size:111.111px;">Shared Proteins Between Brain Regions</text></g></g></g></g></g></g></g></svg>