<?xml version="1.0" encoding="utf-8" standalone="no"?>
<!DOCTYPE svg PUBLIC "-//W3C//DTD SVG 1.1//EN"
  "http://www.w3.org/Graphics/SVG/1.1/DTD/svg11.dtd">
<!-- Created with matplotlib (https://matplotlib.org/) -->
<svg height="533.518125pt" version="1.1" viewBox="0 0 820.8 533.518125" width="820.8pt" xmlns="http://www.w3.org/2000/svg" xmlns:xlink="http://www.w3.org/1999/xlink">
 <metadata>
  <rdf:RDF xmlns:cc="http://creativecommons.org/ns#" xmlns:dc="http://purl.org/dc/elements/1.1/" xmlns:rdf="http://www.w3.org/1999/02/22-rdf-syntax-ns#">
   <cc:Work>
    <dc:type rdf:resource="http://purl.org/dc/dcmitype/StillImage"/>
    <dc:date>2021-07-04T09:14:57.885709</dc:date>
    <dc:format>image/svg+xml</dc:format>
    <dc:creator>
     <cc:Agent>
      <dc:title>Matplotlib v3.3.2, https://matplotlib.org/</dc:title>
     </cc:Agent>
    </dc:creator>
   </cc:Work>
  </rdf:RDF>
 </metadata>
 <defs>
  <style type="text/css">*{stroke-linecap:butt;stroke-linejoin:round;}</style>
 </defs>
 <g id="figure_1">
  <g id="patch_1">
   <path d="M 0 533.518125 
L 820.8 533.518125 
L 820.8 0 
L 0 0 
z
" style="fill:#ffffff;"/>
  </g>
  <g id="axes_1">
   <g id="patch_2">
    <path d="M 7.2 526.318125 
L 813.6 526.318125 
L 813.6 22.318125 
L 7.2 22.318125 
z
" style="fill:#ffffff;"/>
   </g>
   <g id="PolyCollection_1">
    <path clip-path="url(#pc853555976)" d="M 353.092386 406.898396 
L 353.092386 462.17267 
L 353.092386 462.17267 
L 362.112411 462.223493 
L 370.772043 462.373158 
L 379.08662 462.617459 
L 387.071476 462.95219 
L 394.741948 463.373144 
L 402.113371 463.876117 
L 409.201081 464.456901 
L 416.020414 465.11129 
L 422.586705 465.83508 
L 428.915292 466.624062 
L 435.021509 467.474033 
L 440.920692 468.380785 
L 446.628177 469.340113 
L 452.1593 470.34781 
L 457.529397 471.39967 
L 462.753803 472.491488 
L 467.847855 473.619057 
L 472.826889 474.778171 
L 477.706239 475.964625 
L 482.501242 477.174212 
L 487.227234 478.402726 
L 491.899551 479.645961 
L 496.533528 480.899712 
L 501.144501 482.159771 
L 505.747807 483.421933 
L 510.35878 484.681993 
L 514.992757 485.935743 
L 519.665073 487.178978 
L 524.391065 488.407493 
L 529.186069 489.617079 
L 534.065419 490.803533 
L 539.044452 491.962648 
L 544.138504 493.090217 
L 549.362911 494.182035 
L 554.733008 495.233895 
L 560.264131 496.241592 
L 565.971616 497.20092 
L 571.870799 498.107672 
L 577.977016 498.957642 
L 584.305602 499.746625 
L 590.871894 500.470414 
L 597.691227 501.124804 
L 604.778937 501.705588 
L 612.15036 502.20856 
L 619.820832 502.629515 
L 627.805688 502.964245 
L 636.120264 503.208546 
L 644.779897 503.358211 
L 653.799922 503.409034 
L 653.799922 503.409034 
L 653.799922 448.134759 
L 653.799922 448.134759 
L 644.779897 448.083936 
L 636.120264 447.934272 
L 627.805688 447.689971 
L 619.820832 447.35524 
L 612.15036 446.934286 
L 604.778937 446.431313 
L 597.691227 445.850529 
L 590.871894 445.19614 
L 584.305602 444.47235 
L 577.977016 443.683367 
L 571.870799 442.833397 
L 565.971616 441.926645 
L 560.264131 440.967317 
L 554.733008 439.95962 
L 549.362911 438.90776 
L 544.138504 437.815942 
L 539.044452 436.688373 
L 534.065419 435.529258 
L 529.186069 434.342805 
L 524.391065 433.133218 
L 519.665073 431.904704 
L 514.992757 430.661469 
L 510.35878 429.407718 
L 505.747807 428.147659 
L 501.144501 426.885496 
L 496.533528 425.625437 
L 491.899551 424.371687 
L 487.227234 423.128451 
L 482.501242 421.899937 
L 477.706239 420.69035 
L 472.826889 419.503897 
L 467.847855 418.344782 
L 462.753803 417.217213 
L 457.529397 416.125395 
L 452.1593 415.073535 
L 446.628177 414.065838 
L 440.920692 413.10651 
L 435.021509 412.199758 
L 428.915292 411.349788 
L 422.586705 410.560805 
L 416.020414 409.837016 
L 409.201081 409.182626 
L 402.113371 408.601842 
L 394.741948 408.09887 
L 387.071476 407.677915 
L 379.08662 407.343184 
L 370.772043 407.098884 
L 362.112411 406.949219 
L 353.092386 406.898396 
z
" style="fill:#c6dbef;fill-opacity:0.6;"/>
    <path clip-path="url(#pc853555976)" d="M 353.092386 245.901104 
L 353.092386 295.472477 
L 353.092386 295.472477 
L 362.112411 295.506359 
L 370.772043 295.606136 
L 379.08662 295.769003 
L 387.071476 295.992157 
L 394.741948 296.272793 
L 402.113371 296.608108 
L 409.201081 296.995297 
L 416.020414 297.431557 
L 422.586705 297.914083 
L 428.915292 298.440072 
L 435.021509 299.006719 
L 440.920692 299.61122 
L 446.628177 300.250772 
L 452.1593 300.92257 
L 457.529397 301.62381 
L 462.753803 302.351689 
L 467.847855 303.103401 
L 472.826889 303.876144 
L 477.706239 304.667113 
L 482.501242 305.473505 
L 487.227234 306.292514 
L 491.899551 307.121338 
L 496.533528 307.957171 
L 501.144501 308.797211 
L 505.747807 309.638652 
L 510.35878 310.478692 
L 514.992757 311.314526 
L 519.665073 312.143349 
L 524.391065 312.962358 
L 529.186069 313.76875 
L 534.065419 314.559719 
L 539.044452 315.332462 
L 544.138504 316.084175 
L 549.362911 316.812053 
L 554.733008 317.513293 
L 560.264131 318.185091 
L 565.971616 318.824643 
L 571.870799 319.429144 
L 577.977016 319.995791 
L 584.305602 320.52178 
L 590.871894 321.004306 
L 597.691227 321.440566 
L 604.778937 321.827755 
L 612.15036 322.16307 
L 619.820832 322.443707 
L 627.805688 322.66686 
L 636.120264 322.829728 
L 644.779897 322.929504 
L 653.799922 322.963386 
L 653.799922 322.963386 
L 653.799922 273.392013 
L 653.799922 273.392013 
L 644.779897 273.358131 
L 636.120264 273.258354 
L 627.805688 273.095487 
L 619.820832 272.872333 
L 612.15036 272.591697 
L 604.778937 272.256382 
L 597.691227 271.869193 
L 590.871894 271.432933 
L 584.305602 270.950407 
L 577.977016 270.424418 
L 571.870799 269.857771 
L 565.971616 269.25327 
L 560.264131 268.613718 
L 554.733008 267.94192 
L 549.362911 267.24068 
L 544.138504 266.512801 
L 539.044452 265.761088 
L 534.065419 264.988346 
L 529.186069 264.197376 
L 524.391065 263.390985 
L 519.665073 262.571976 
L 514.992757 261.743152 
L 510.35878 260.907319 
L 505.747807 260.067279 
L 501.144501 259.225837 
L 496.533528 258.385798 
L 491.899551 257.549964 
L 487.227234 256.721141 
L 482.501242 255.902131 
L 477.706239 255.09574 
L 472.826889 254.304771 
L 467.847855 253.532028 
L 462.753803 252.780315 
L 457.529397 252.052437 
L 452.1593 251.351196 
L 446.628177 250.679398 
L 440.920692 250.039847 
L 435.021509 249.435345 
L 428.915292 248.868698 
L 422.586705 248.34271 
L 416.020414 247.860184 
L 409.201081 247.423924 
L 402.113371 247.036734 
L 394.741948 246.70142 
L 387.071476 246.420783 
L 379.08662 246.19763 
L 370.772043 246.034762 
L 362.112411 245.934986 
L 353.092386 245.901104 
z
" style="fill:#e6550d;fill-opacity:0.6;"/>
    <path clip-path="url(#pc853555976)" d="M 353.092386 349.211355 
L 353.092386 406.898396 
L 353.092386 406.898396 
L 362.112411 406.943572 
L 370.772043 407.076607 
L 379.08662 407.293764 
L 387.071476 407.591302 
L 394.741948 407.965484 
L 402.113371 408.41257 
L 409.201081 408.928823 
L 416.020414 409.510502 
L 422.586705 410.153871 
L 428.915292 410.855189 
L 435.021509 411.610718 
L 440.920692 412.41672 
L 446.628177 413.269455 
L 452.1593 414.165186 
L 457.529397 415.100173 
L 462.753803 416.070678 
L 467.847855 417.072962 
L 472.826889 418.103286 
L 477.706239 419.157911 
L 482.501242 420.233099 
L 487.227234 421.325112 
L 491.899551 422.43021 
L 496.533528 423.544655 
L 501.144501 424.664707 
L 505.747807 425.78663 
L 510.35878 426.906682 
L 514.992757 428.021127 
L 519.665073 429.126225 
L 524.391065 430.218238 
L 529.186069 431.293426 
L 534.065419 432.348052 
L 539.044452 433.378375 
L 544.138504 434.380659 
L 549.362911 435.351164 
L 554.733008 436.286151 
L 560.264131 437.181882 
L 565.971616 438.034617 
L 571.870799 438.840619 
L 577.977016 439.596148 
L 584.305602 440.297467 
L 590.871894 440.940835 
L 597.691227 441.522515 
L 604.778937 442.038767 
L 612.15036 442.485853 
L 619.820832 442.860035 
L 627.805688 443.157574 
L 636.120264 443.37473 
L 644.779897 443.507765 
L 653.799922 443.552941 
L 653.799922 443.552941 
L 653.799922 385.865901 
L 653.799922 385.865901 
L 644.779897 385.820725 
L 636.120264 385.687689 
L 627.805688 385.470533 
L 619.820832 385.172995 
L 612.15036 384.798813 
L 604.778937 384.351726 
L 597.691227 383.835474 
L 590.871894 383.253794 
L 584.305602 382.610426 
L 577.977016 381.909108 
L 571.870799 381.153578 
L 565.971616 380.347577 
L 560.264131 379.494841 
L 554.733008 378.59911 
L 549.362911 377.664123 
L 544.138504 376.693619 
L 539.044452 375.691335 
L 534.065419 374.661011 
L 529.186069 373.606385 
L 524.391065 372.531197 
L 519.665073 371.439184 
L 514.992757 370.334087 
L 510.35878 369.219642 
L 505.747807 368.099589 
L 501.144501 366.977667 
L 496.533528 365.857614 
L 491.899551 364.743169 
L 487.227234 363.638071 
L 482.501242 362.546059 
L 477.706239 361.47087 
L 472.826889 360.416245 
L 467.847855 359.385921 
L 462.753803 358.383637 
L 457.529397 357.413133 
L 452.1593 356.478146 
L 446.628177 355.582415 
L 440.920692 354.729679 
L 435.021509 353.923677 
L 428.915292 353.168148 
L 422.586705 352.46683 
L 416.020414 351.823462 
L 409.201081 351.241782 
L 402.113371 350.725529 
L 394.741948 350.278443 
L 387.071476 349.904261 
L 379.08662 349.606723 
L 370.772043 349.389567 
L 362.112411 349.256531 
L 353.092386 349.211355 
z
" style="fill:#fd8d3c;fill-opacity:0.6;"/>
    <path clip-path="url(#pc853555976)" d="M 353.092386 196.549073 
L 353.092386 245.901104 
L 353.092386 245.901104 
L 362.112411 245.929339 
L 370.772043 246.012486 
L 379.08662 246.148209 
L 387.071476 246.33417 
L 394.741948 246.568034 
L 402.113371 246.847463 
L 409.201081 247.17012 
L 416.020414 247.53367 
L 422.586705 247.935775 
L 428.915292 248.374099 
L 435.021509 248.846305 
L 440.920692 249.350056 
L 446.628177 249.883016 
L 452.1593 250.442848 
L 457.529397 251.027215 
L 462.753803 251.63378 
L 467.847855 252.260207 
L 472.826889 252.90416 
L 477.706239 253.563301 
L 482.501242 254.235293 
L 487.227234 254.917801 
L 491.899551 255.608488 
L 496.533528 256.305016 
L 501.144501 257.005049 
L 505.747807 257.70625 
L 510.35878 258.406283 
L 514.992757 259.102811 
L 519.665073 259.793497 
L 524.391065 260.476005 
L 529.186069 261.147998 
L 534.065419 261.807139 
L 539.044452 262.451091 
L 544.138504 263.077518 
L 549.362911 263.684084 
L 554.733008 264.268451 
L 560.264131 264.828282 
L 565.971616 265.361242 
L 571.870799 265.864993 
L 577.977016 266.337199 
L 584.305602 266.775523 
L 590.871894 267.177628 
L 597.691227 267.541178 
L 604.778937 267.863836 
L 612.15036 268.143265 
L 619.820832 268.377128 
L 627.805688 268.56309 
L 636.120264 268.698812 
L 644.779897 268.78196 
L 653.799922 268.810195 
L 653.799922 268.810195 
L 653.799922 219.458164 
L 653.799922 219.458164 
L 644.779897 219.429929 
L 636.120264 219.346782 
L 627.805688 219.211059 
L 619.820832 219.025097 
L 612.15036 218.791234 
L 604.778937 218.511805 
L 597.691227 218.189147 
L 590.871894 217.825597 
L 584.305602 217.423492 
L 577.977016 216.985168 
L 571.870799 216.512962 
L 565.971616 216.009211 
L 560.264131 215.476251 
L 554.733008 214.91642 
L 549.362911 214.332053 
L 544.138504 213.725487 
L 539.044452 213.09906 
L 534.065419 212.455108 
L 529.186069 211.795967 
L 524.391065 211.123974 
L 519.665073 210.441466 
L 514.992757 209.75078 
L 510.35878 209.054252 
L 505.747807 208.354219 
L 501.144501 207.653018 
L 496.533528 206.952985 
L 491.899551 206.256457 
L 487.227234 205.56577 
L 482.501242 204.883263 
L 477.706239 204.21127 
L 472.826889 203.552129 
L 467.847855 202.908176 
L 462.753803 202.281749 
L 457.529397 201.675184 
L 452.1593 201.090817 
L 446.628177 200.530985 
L 440.920692 199.998025 
L 435.021509 199.494274 
L 428.915292 199.022068 
L 422.586705 198.583744 
L 416.020414 198.181639 
L 409.201081 197.818089 
L 402.113371 197.495432 
L 394.741948 197.216003 
L 387.071476 196.982139 
L 379.08662 196.796178 
L 370.772043 196.660455 
L 362.112411 196.577308 
L 353.092386 196.549073 
z
" style="fill:#fdae6b;fill-opacity:0.6;"/>
    <path clip-path="url(#pc853555976)" d="M 353.092386 295.472477 
L 353.092386 349.211355 
L 353.092386 349.211355 
L 362.112411 349.250884 
L 370.772043 349.36729 
L 379.08662 349.557302 
L 387.071476 349.817648 
L 394.741948 350.145057 
L 402.113371 350.536258 
L 409.201081 350.987979 
L 416.020414 351.496948 
L 422.586705 352.059896 
L 428.915292 352.673549 
L 435.021509 353.334637 
L 440.920692 354.039889 
L 446.628177 354.786032 
L 452.1593 355.569797 
L 457.529397 356.38791 
L 462.753803 357.237102 
L 467.847855 358.1141 
L 472.826889 359.015634 
L 477.706239 359.938431 
L 482.501242 360.879221 
L 487.227234 361.834732 
L 491.899551 362.801693 
L 496.533528 363.776832 
L 501.144501 364.756878 
L 505.747807 365.73856 
L 510.35878 366.718606 
L 514.992757 367.693745 
L 519.665073 368.660706 
L 524.391065 369.616217 
L 529.186069 370.557007 
L 534.065419 371.479804 
L 539.044452 372.381337 
L 544.138504 373.258336 
L 549.362911 374.107527 
L 554.733008 374.925641 
L 560.264131 375.709405 
L 565.971616 376.455549 
L 571.870799 377.1608 
L 577.977016 377.821889 
L 584.305602 378.435542 
L 590.871894 378.998489 
L 597.691227 379.507459 
L 604.778937 379.95918 
L 612.15036 380.350381 
L 619.820832 380.67779 
L 627.805688 380.938136 
L 636.120264 381.128147 
L 644.779897 381.244553 
L 653.799922 381.284082 
L 653.799922 381.284082 
L 653.799922 327.545204 
L 653.799922 327.545204 
L 644.779897 327.505675 
L 636.120264 327.389269 
L 627.805688 327.199258 
L 619.820832 326.938911 
L 612.15036 326.611502 
L 604.778937 326.220302 
L 597.691227 325.768581 
L 590.871894 325.259611 
L 584.305602 324.696664 
L 577.977016 324.083011 
L 571.870799 323.421922 
L 565.971616 322.716671 
L 560.264131 321.970527 
L 554.733008 321.186763 
L 549.362911 320.368649 
L 544.138504 319.519457 
L 539.044452 318.642459 
L 534.065419 317.740926 
L 529.186069 316.818128 
L 524.391065 315.877339 
L 519.665073 314.921828 
L 514.992757 313.954867 
L 510.35878 312.979728 
L 505.747807 311.999682 
L 501.144501 311.018 
L 496.533528 310.037954 
L 491.899551 309.062814 
L 487.227234 308.095854 
L 482.501242 307.140343 
L 477.706239 306.199553 
L 472.826889 305.276756 
L 467.847855 304.375222 
L 462.753803 303.498224 
L 457.529397 302.649032 
L 452.1593 301.830919 
L 446.628177 301.047154 
L 440.920692 300.301011 
L 435.021509 299.595759 
L 428.915292 298.934671 
L 422.586705 298.321017 
L 416.020414 297.75807 
L 409.201081 297.2491 
L 402.113371 296.79738 
L 394.741948 296.406179 
L 387.071476 296.07877 
L 379.08662 295.818424 
L 370.772043 295.628412 
L 362.112411 295.512006 
L 353.092386 295.472477 
z
" style="fill:#fdd0a2;fill-opacity:0.6;"/>
    <path clip-path="url(#pc853555976)" d="M 353.092386 102.694914 
L 353.092386 124.62915 
L 353.092386 124.62915 
L 362.112411 124.646091 
L 370.772043 124.695979 
L 379.08662 124.777413 
L 387.071476 124.88899 
L 394.741948 125.029308 
L 402.113371 125.196966 
L 409.201081 125.39056 
L 416.020414 125.60869 
L 422.586705 125.849953 
L 428.915292 126.112947 
L 435.021509 126.396271 
L 440.920692 126.698522 
L 446.628177 127.018298 
L 452.1593 127.354197 
L 457.529397 127.704817 
L 462.753803 128.068756 
L 467.847855 128.444612 
L 472.826889 128.830984 
L 477.706239 129.226468 
L 482.501242 129.629664 
L 487.227234 130.039169 
L 491.899551 130.45358 
L 496.533528 130.871497 
L 501.144501 131.291517 
L 505.747807 131.712238 
L 510.35878 132.132258 
L 514.992757 132.550174 
L 519.665073 132.964586 
L 524.391065 133.374091 
L 529.186069 133.777286 
L 534.065419 134.172771 
L 539.044452 134.559143 
L 544.138504 134.934999 
L 549.362911 135.298938 
L 554.733008 135.649558 
L 560.264131 135.985457 
L 565.971616 136.305233 
L 571.870799 136.607484 
L 577.977016 136.890807 
L 584.305602 137.153802 
L 590.871894 137.395065 
L 597.691227 137.613195 
L 604.778937 137.806789 
L 612.15036 137.974447 
L 619.820832 138.114765 
L 627.805688 138.226342 
L 636.120264 138.307775 
L 644.779897 138.357664 
L 653.799922 138.374605 
L 653.799922 138.374605 
L 653.799922 116.440369 
L 653.799922 116.440369 
L 644.779897 116.423428 
L 636.120264 116.373539 
L 627.805688 116.292106 
L 619.820832 116.180529 
L 612.15036 116.040211 
L 604.778937 115.872553 
L 597.691227 115.678959 
L 590.871894 115.460829 
L 584.305602 115.219566 
L 577.977016 114.956571 
L 571.870799 114.673248 
L 565.971616 114.370997 
L 560.264131 114.051221 
L 554.733008 113.715322 
L 549.362911 113.364702 
L 544.138504 113.000763 
L 539.044452 112.624907 
L 534.065419 112.238535 
L 529.186069 111.84305 
L 524.391065 111.439855 
L 519.665073 111.03035 
L 514.992757 110.615938 
L 510.35878 110.198022 
L 505.747807 109.778002 
L 501.144501 109.357281 
L 496.533528 108.937261 
L 491.899551 108.519344 
L 487.227234 108.104933 
L 482.501242 107.695428 
L 477.706239 107.292232 
L 472.826889 106.896748 
L 467.847855 106.510376 
L 462.753803 106.13452 
L 457.529397 105.770581 
L 452.1593 105.419961 
L 446.628177 105.084062 
L 440.920692 104.764286 
L 435.021509 104.462035 
L 428.915292 104.178712 
L 422.586705 103.915717 
L 416.020414 103.674454 
L 409.201081 103.456324 
L 402.113371 103.26273 
L 394.741948 103.095072 
L 387.071476 102.954754 
L 379.08662 102.843177 
L 370.772043 102.761743 
L 362.112411 102.711855 
L 353.092386 102.694914 
z
" style="fill:#31a354;fill-opacity:0.6;"/>
    <path clip-path="url(#pc853555976)" d="M 353.092386 124.62915 
L 353.092386 155.995108 
L 353.092386 155.995108 
L 362.112411 156.017696 
L 370.772043 156.084213 
L 379.08662 156.192791 
L 387.071476 156.341561 
L 394.741948 156.528652 
L 402.113371 156.752195 
L 409.201081 157.010321 
L 416.020414 157.301161 
L 422.586705 157.622845 
L 428.915292 157.973504 
L 435.021509 158.351269 
L 440.920692 158.75427 
L 446.628177 159.180637 
L 452.1593 159.628503 
L 457.529397 160.095996 
L 462.753803 160.581249 
L 467.847855 161.08239 
L 472.826889 161.597552 
L 477.706239 162.124865 
L 482.501242 162.662459 
L 487.227234 163.208466 
L 491.899551 163.761015 
L 496.533528 164.318237 
L 501.144501 164.878263 
L 505.747807 165.439224 
L 510.35878 165.999251 
L 514.992757 166.556473 
L 519.665073 167.109022 
L 524.391065 167.655029 
L 529.186069 168.192623 
L 534.065419 168.719935 
L 539.044452 169.235097 
L 544.138504 169.736239 
L 549.362911 170.221492 
L 554.733008 170.688985 
L 560.264131 171.13685 
L 565.971616 171.563218 
L 571.870799 171.966219 
L 577.977016 172.343984 
L 584.305602 172.694643 
L 590.871894 173.016327 
L 597.691227 173.307167 
L 604.778937 173.565293 
L 612.15036 173.788836 
L 619.820832 173.975927 
L 627.805688 174.124696 
L 636.120264 174.233275 
L 644.779897 174.299792 
L 653.799922 174.32238 
L 653.799922 174.32238 
L 653.799922 142.956423 
L 653.799922 142.956423 
L 644.779897 142.933835 
L 636.120264 142.867317 
L 627.805688 142.758739 
L 619.820832 142.60997 
L 612.15036 142.422879 
L 604.778937 142.199336 
L 597.691227 141.94121 
L 590.871894 141.65037 
L 584.305602 141.328686 
L 577.977016 140.978026 
L 571.870799 140.600262 
L 565.971616 140.197261 
L 560.264131 139.770893 
L 554.733008 139.323028 
L 549.362911 138.855534 
L 544.138504 138.370282 
L 539.044452 137.86914 
L 534.065419 137.353978 
L 529.186069 136.826665 
L 524.391065 136.289071 
L 519.665073 135.743065 
L 514.992757 135.190516 
L 510.35878 134.633293 
L 505.747807 134.073267 
L 501.144501 133.512306 
L 496.533528 132.95228 
L 491.899551 132.395057 
L 487.227234 131.842508 
L 482.501242 131.296502 
L 477.706239 130.758908 
L 472.826889 130.231595 
L 467.847855 129.716433 
L 462.753803 129.215291 
L 457.529397 128.730039 
L 452.1593 128.262545 
L 446.628177 127.81468 
L 440.920692 127.388312 
L 435.021509 126.985311 
L 428.915292 126.607547 
L 422.586705 126.256888 
L 416.020414 125.935203 
L 409.201081 125.644364 
L 402.113371 125.386237 
L 394.741948 125.162694 
L 387.071476 124.975603 
L 379.08662 124.826834 
L 370.772043 124.718256 
L 362.112411 124.651738 
L 353.092386 124.62915 
z
" style="fill:#74c476;fill-opacity:0.6;"/>
    <path clip-path="url(#pc853555976)" d="M 353.092386 82.296075 
L 353.092386 102.694914 
L 353.092386 102.694914 
L 362.112411 102.706208 
L 370.772043 102.739467 
L 379.08662 102.793756 
L 387.071476 102.868141 
L 394.741948 102.961686 
L 402.113371 103.073458 
L 409.201081 103.202521 
L 416.020414 103.347941 
L 422.586705 103.508783 
L 428.915292 103.684112 
L 435.021509 103.872995 
L 440.920692 104.074495 
L 446.628177 104.287679 
L 452.1593 104.511612 
L 457.529397 104.745359 
L 462.753803 104.987985 
L 467.847855 105.238556 
L 472.826889 105.496137 
L 477.706239 105.759793 
L 482.501242 106.02859 
L 487.227234 106.301593 
L 491.899551 106.577868 
L 496.533528 106.856479 
L 501.144501 107.136492 
L 505.747807 107.416973 
L 510.35878 107.696986 
L 514.992757 107.975597 
L 519.665073 108.251871 
L 524.391065 108.524875 
L 529.186069 108.793672 
L 534.065419 109.057328 
L 539.044452 109.314909 
L 544.138504 109.56548 
L 549.362911 109.808106 
L 554.733008 110.041853 
L 560.264131 110.265786 
L 565.971616 110.47897 
L 571.870799 110.68047 
L 577.977016 110.869352 
L 584.305602 111.044682 
L 590.871894 111.205524 
L 597.691227 111.350944 
L 604.778937 111.480007 
L 612.15036 111.591779 
L 619.820832 111.685324 
L 627.805688 111.759709 
L 636.120264 111.813998 
L 644.779897 111.847257 
L 653.799922 111.858551 
L 653.799922 111.858551 
L 653.799922 91.459711 
L 653.799922 91.459711 
L 644.779897 91.448417 
L 636.120264 91.415158 
L 627.805688 91.360869 
L 619.820832 91.286485 
L 612.15036 91.192939 
L 604.778937 91.081168 
L 597.691227 90.952104 
L 590.871894 90.806684 
L 584.305602 90.645842 
L 577.977016 90.470513 
L 571.870799 90.281631 
L 565.971616 90.08013 
L 560.264131 89.866946 
L 554.733008 89.643013 
L 549.362911 89.409267 
L 544.138504 89.166641 
L 539.044452 88.91607 
L 534.065419 88.658489 
L 529.186069 88.394832 
L 524.391065 88.126035 
L 519.665073 87.853032 
L 514.992757 87.576758 
L 510.35878 87.298146 
L 505.747807 87.018133 
L 501.144501 86.737653 
L 496.533528 86.457639 
L 491.899551 86.179028 
L 487.227234 85.902754 
L 482.501242 85.629751 
L 477.706239 85.360954 
L 472.826889 85.097297 
L 467.847855 84.839716 
L 462.753803 84.589145 
L 457.529397 84.346519 
L 452.1593 84.112772 
L 446.628177 83.88884 
L 440.920692 83.675656 
L 435.021509 83.474155 
L 428.915292 83.285273 
L 422.586705 83.109943 
L 416.020414 82.949101 
L 409.201081 82.803681 
L 402.113371 82.674618 
L 394.741948 82.562847 
L 387.071476 82.469301 
L 379.08662 82.394917 
L 370.772043 82.340628 
L 362.112411 82.307369 
L 353.092386 82.296075 
z
" style="fill:#a1d99b;fill-opacity:0.6;"/>
    <path clip-path="url(#pc853555976)" d="M 353.092386 61.897235 
L 353.092386 82.296075 
L 353.092386 82.296075 
L 362.112411 82.301722 
L 370.772043 82.318351 
L 379.08662 82.345496 
L 387.071476 82.382688 
L 394.741948 82.429461 
L 402.113371 82.485346 
L 409.201081 82.549878 
L 416.020414 82.622588 
L 422.586705 82.703009 
L 428.915292 82.790674 
L 435.021509 82.885115 
L 440.920692 82.985865 
L 446.628177 83.092457 
L 452.1593 83.204424 
L 457.529397 83.321297 
L 462.753803 83.44261 
L 467.847855 83.567895 
L 472.826889 83.696686 
L 477.706239 83.828514 
L 482.501242 83.962913 
L 487.227234 84.099414 
L 491.899551 84.237551 
L 496.533528 84.376857 
L 501.144501 84.516864 
L 505.747807 84.657104 
L 510.35878 84.797111 
L 514.992757 84.936416 
L 519.665073 85.074553 
L 524.391065 85.211055 
L 529.186069 85.345453 
L 534.065419 85.477282 
L 539.044452 85.606072 
L 544.138504 85.731358 
L 549.362911 85.852671 
L 554.733008 85.969544 
L 560.264131 86.08151 
L 565.971616 86.188102 
L 571.870799 86.288853 
L 577.977016 86.383294 
L 584.305602 86.470959 
L 590.871894 86.55138 
L 597.691227 86.62409 
L 604.778937 86.688621 
L 612.15036 86.744507 
L 619.820832 86.79128 
L 627.805688 86.828472 
L 636.120264 86.855616 
L 644.779897 86.872246 
L 653.799922 86.877893 
L 653.799922 86.877893 
L 653.799922 66.479053 
L 653.799922 66.479053 
L 644.779897 66.473406 
L 636.120264 66.456777 
L 627.805688 66.429632 
L 619.820832 66.39244 
L 612.15036 66.345667 
L 604.778937 66.289782 
L 597.691227 66.22525 
L 590.871894 66.15254 
L 584.305602 66.072119 
L 577.977016 65.984454 
L 571.870799 65.890013 
L 565.971616 65.789263 
L 560.264131 65.682671 
L 554.733008 65.570705 
L 549.362911 65.453831 
L 544.138504 65.332518 
L 539.044452 65.207233 
L 534.065419 65.078442 
L 529.186069 64.946614 
L 524.391065 64.812215 
L 519.665073 64.675714 
L 514.992757 64.537577 
L 510.35878 64.398271 
L 505.747807 64.258264 
L 501.144501 64.118024 
L 496.533528 63.978018 
L 491.899551 63.838712 
L 487.227234 63.700575 
L 482.501242 63.564073 
L 477.706239 63.429675 
L 472.826889 63.297846 
L 467.847855 63.169056 
L 462.753803 63.043771 
L 457.529397 62.922457 
L 452.1593 62.805584 
L 446.628177 62.693618 
L 440.920692 62.587026 
L 435.021509 62.486276 
L 428.915292 62.391834 
L 422.586705 62.30417 
L 416.020414 62.223749 
L 409.201081 62.151039 
L 402.113371 62.086507 
L 394.741948 62.030621 
L 387.071476 61.983849 
L 379.08662 61.946656 
L 370.772043 61.919512 
L 362.112411 61.902882 
L 353.092386 61.897235 
z
" style="fill:#c7e9c0;fill-opacity:0.6;"/>
    <path clip-path="url(#pc853555976)" d="M 353.092386 155.995108 
L 353.092386 191.967255 
L 353.092386 191.967255 
L 362.112411 191.99549 
L 370.772043 192.078637 
L 379.08662 192.214359 
L 387.071476 192.400321 
L 394.741948 192.634184 
L 402.113371 192.913614 
L 409.201081 193.236271 
L 416.020414 193.599821 
L 422.586705 194.001926 
L 428.915292 194.44025 
L 435.021509 194.912456 
L 440.920692 195.416207 
L 446.628177 195.949167 
L 452.1593 196.508999 
L 457.529397 197.093365 
L 462.753803 197.699931 
L 467.847855 198.326358 
L 472.826889 198.970311 
L 477.706239 199.629452 
L 482.501242 200.301444 
L 487.227234 200.983952 
L 491.899551 201.674638 
L 496.533528 202.371166 
L 501.144501 203.071199 
L 505.747807 203.772401 
L 510.35878 204.472434 
L 514.992757 205.168962 
L 519.665073 205.859648 
L 524.391065 206.542156 
L 529.186069 207.214148 
L 534.065419 207.873289 
L 539.044452 208.517242 
L 544.138504 209.143669 
L 549.362911 209.750235 
L 554.733008 210.334602 
L 560.264131 210.894433 
L 565.971616 211.427393 
L 571.870799 211.931144 
L 577.977016 212.40335 
L 584.305602 212.841674 
L 590.871894 213.243779 
L 597.691227 213.607329 
L 604.778937 213.929987 
L 612.15036 214.209416 
L 619.820832 214.443279 
L 627.805688 214.629241 
L 636.120264 214.764963 
L 644.779897 214.848111 
L 653.799922 214.876346 
L 653.799922 214.876346 
L 653.799922 178.904199 
L 653.799922 178.904199 
L 644.779897 178.875964 
L 636.120264 178.792816 
L 627.805688 178.657094 
L 619.820832 178.471132 
L 612.15036 178.237269 
L 604.778937 177.95784 
L 597.691227 177.635182 
L 590.871894 177.271632 
L 584.305602 176.869527 
L 577.977016 176.431203 
L 571.870799 175.958997 
L 565.971616 175.455246 
L 560.264131 174.922286 
L 554.733008 174.362455 
L 549.362911 173.778088 
L 544.138504 173.171522 
L 539.044452 172.545095 
L 534.065419 171.901142 
L 529.186069 171.242001 
L 524.391065 170.570009 
L 519.665073 169.887501 
L 514.992757 169.196815 
L 510.35878 168.500287 
L 505.747807 167.800254 
L 501.144501 167.099052 
L 496.533528 166.399019 
L 491.899551 165.702491 
L 487.227234 165.011805 
L 482.501242 164.329297 
L 477.706239 163.657305 
L 472.826889 162.998164 
L 467.847855 162.354211 
L 462.753803 161.727784 
L 457.529397 161.121218 
L 452.1593 160.536852 
L 446.628177 159.97702 
L 440.920692 159.44406 
L 435.021509 158.940309 
L 428.915292 158.468103 
L 422.586705 158.029779 
L 416.020414 157.627674 
L 409.201081 157.264124 
L 402.113371 156.941467 
L 394.741948 156.662037 
L 387.071476 156.428174 
L 379.08662 156.242212 
L 370.772043 156.10649 
L 362.112411 156.023343 
L 353.092386 155.995108 
z
" style="fill:#756bb1;fill-opacity:0.6;"/>
    <path clip-path="url(#pc853555976)" d="M 353.092386 45.227216 
L 353.092386 61.897235 
L 353.092386 61.897235 
L 362.112411 61.897235 
L 370.772043 61.897235 
L 379.08662 61.897235 
L 387.071476 61.897235 
L 394.741948 61.897235 
L 402.113371 61.897235 
L 409.201081 61.897235 
L 416.020414 61.897235 
L 422.586705 61.897235 
L 428.915292 61.897235 
L 435.021509 61.897235 
L 440.920692 61.897235 
L 446.628177 61.897235 
L 452.1593 61.897235 
L 457.529397 61.897235 
L 462.753803 61.897235 
L 467.847855 61.897235 
L 472.826889 61.897235 
L 477.706239 61.897235 
L 482.501242 61.897235 
L 487.227234 61.897235 
L 491.899551 61.897235 
L 496.533528 61.897235 
L 501.144501 61.897235 
L 505.747807 61.897235 
L 510.35878 61.897235 
L 514.992757 61.897235 
L 519.665073 61.897235 
L 524.391065 61.897235 
L 529.186069 61.897235 
L 534.065419 61.897235 
L 539.044452 61.897235 
L 544.138504 61.897235 
L 549.362911 61.897235 
L 554.733008 61.897235 
L 560.264131 61.897235 
L 565.971616 61.897235 
L 571.870799 61.897235 
L 577.977016 61.897235 
L 584.305602 61.897235 
L 590.871894 61.897235 
L 597.691227 61.897235 
L 604.778937 61.897235 
L 612.15036 61.897235 
L 619.820832 61.897235 
L 627.805688 61.897235 
L 636.120264 61.897235 
L 644.779897 61.897235 
L 653.799922 61.897235 
L 653.799922 61.897235 
L 653.799922 45.227216 
L 653.799922 45.227216 
L 644.779897 45.227216 
L 636.120264 45.227216 
L 627.805688 45.227216 
L 619.820832 45.227216 
L 612.15036 45.227216 
L 604.778937 45.227216 
L 597.691227 45.227216 
L 590.871894 45.227216 
L 584.305602 45.227216 
L 577.977016 45.227216 
L 571.870799 45.227216 
L 565.971616 45.227216 
L 560.264131 45.227216 
L 554.733008 45.227216 
L 549.362911 45.227216 
L 544.138504 45.227216 
L 539.044452 45.227216 
L 534.065419 45.227216 
L 529.186069 45.227216 
L 524.391065 45.227216 
L 519.665073 45.227216 
L 514.992757 45.227216 
L 510.35878 45.227216 
L 505.747807 45.227216 
L 501.144501 45.227216 
L 496.533528 45.227216 
L 491.899551 45.227216 
L 487.227234 45.227216 
L 482.501242 45.227216 
L 477.706239 45.227216 
L 472.826889 45.227216 
L 467.847855 45.227216 
L 462.753803 45.227216 
L 457.529397 45.227216 
L 452.1593 45.227216 
L 446.628177 45.227216 
L 440.920692 45.227216 
L 435.021509 45.227216 
L 428.915292 45.227216 
L 422.586705 45.227216 
L 416.020414 45.227216 
L 409.201081 45.227216 
L 402.113371 45.227216 
L 394.741948 45.227216 
L 387.071476 45.227216 
L 379.08662 45.227216 
L 370.772043 45.227216 
L 362.112411 45.227216 
L 353.092386 45.227216 
z
" style="fill:#9e9ac8;fill-opacity:0.6;"/>
    <path clip-path="url(#pc853555976)" d="M 42.93854 194.918628 
L 42.93854 460.542226 
L 42.93854 460.542226 
L 51.958564 460.544235 
L 60.618197 460.550153 
L 68.932774 460.559812 
L 76.91763 460.573047 
L 84.588101 460.589691 
L 91.959524 460.609578 
L 99.047234 460.632542 
L 105.866567 460.658416 
L 112.432859 460.687034 
L 118.761446 460.718229 
L 124.867662 460.751836 
L 130.766845 460.787688 
L 136.474331 460.825619 
L 142.005454 460.865462 
L 147.375551 460.907052 
L 152.599957 460.950221 
L 157.694009 460.994804 
L 162.673043 461.040635 
L 167.552393 461.087546 
L 172.347396 461.135372 
L 177.073388 461.183946 
L 181.745705 461.233102 
L 186.379682 461.282674 
L 190.990655 461.332496 
L 195.59396 461.3824 
L 200.204934 461.432222 
L 204.838911 461.481794 
L 209.511227 461.53095 
L 214.237219 461.579524 
L 219.032223 461.62735 
L 223.911573 461.674261 
L 228.890606 461.720092 
L 233.984658 461.764675 
L 239.209065 461.807844 
L 244.579162 461.849434 
L 250.110285 461.889277 
L 255.81777 461.927208 
L 261.716953 461.96306 
L 267.82317 461.996667 
L 274.151756 462.027862 
L 280.718048 462.05648 
L 287.537381 462.082354 
L 294.625091 462.105318 
L 301.996514 462.125205 
L 309.666986 462.141849 
L 317.651842 462.155084 
L 325.966418 462.164743 
L 334.626051 462.170661 
L 343.646076 462.17267 
L 343.646076 462.17267 
L 343.646076 196.549073 
L 343.646076 196.549073 
L 334.626051 196.547063 
L 325.966418 196.541146 
L 317.651842 196.531486 
L 309.666986 196.518251 
L 301.996514 196.501607 
L 294.625091 196.48172 
L 287.537381 196.458757 
L 280.718048 196.432883 
L 274.151756 196.404265 
L 267.82317 196.373069 
L 261.716953 196.339462 
L 255.81777 196.30361 
L 250.110285 196.265679 
L 244.579162 196.225836 
L 239.209065 196.184246 
L 233.984658 196.141077 
L 228.890606 196.096494 
L 223.911573 196.050664 
L 219.032223 196.003753 
L 214.237219 195.955927 
L 209.511227 195.907352 
L 204.838911 195.858196 
L 200.204934 195.808624 
L 195.59396 195.758803 
L 190.990655 195.708898 
L 186.379682 195.659077 
L 181.745705 195.609504 
L 177.073388 195.560348 
L 172.347396 195.511774 
L 167.552393 195.463948 
L 162.673043 195.417037 
L 157.694009 195.371207 
L 152.599957 195.326624 
L 147.375551 195.283454 
L 142.005454 195.241865 
L 136.474331 195.202021 
L 130.766845 195.164091 
L 124.867662 195.128239 
L 118.761446 195.094632 
L 112.432859 195.063436 
L 105.866567 195.034818 
L 99.047234 195.008944 
L 91.959524 194.98598 
L 84.588101 194.966093 
L 76.91763 194.949449 
L 68.932774 194.936214 
L 60.618197 194.926555 
L 51.958564 194.920637 
L 42.93854 194.918628 
z
" style="fill:#3182bd;fill-opacity:0.6;"/>
    <path clip-path="url(#pc853555976)" d="M 42.93854 48.178589 
L 42.93854 194.918628 
L 42.93854 194.918628 
L 51.958564 194.91499 
L 60.618197 194.904279 
L 68.932774 194.886793 
L 76.91763 194.862836 
L 84.588101 194.832707 
L 91.959524 194.796709 
L 99.047234 194.755141 
L 105.866567 194.708305 
L 112.432859 194.656502 
L 118.761446 194.600032 
L 124.867662 194.539198 
L 130.766845 194.4743 
L 136.474331 194.405639 
L 142.005454 194.333516 
L 147.375551 194.258232 
L 152.599957 194.180088 
L 157.694009 194.099386 
L 162.673043 194.016426 
L 167.552393 193.931509 
L 172.347396 193.844936 
L 177.073388 193.757009 
L 181.745705 193.668028 
L 186.379682 193.578294 
L 190.990655 193.488109 
L 195.59396 193.397773 
L 200.204934 193.307588 
L 204.838911 193.217855 
L 209.511227 193.128874 
L 214.237219 193.040946 
L 219.032223 192.954374 
L 223.911573 192.869457 
L 228.890606 192.786497 
L 233.984658 192.705794 
L 239.209065 192.62765 
L 244.579162 192.552367 
L 250.110285 192.480244 
L 255.81777 192.411582 
L 261.716953 192.346684 
L 267.82317 192.28585 
L 274.151756 192.229381 
L 280.718048 192.177578 
L 287.537381 192.130742 
L 294.625091 192.089174 
L 301.996514 192.053175 
L 309.666986 192.023046 
L 317.651842 191.999089 
L 325.966418 191.981604 
L 334.626051 191.970892 
L 343.646076 191.967255 
L 343.646076 191.967255 
L 343.646076 45.227216 
L 343.646076 45.227216 
L 334.626051 45.230853 
L 325.966418 45.241565 
L 317.651842 45.25905 
L 309.666986 45.283008 
L 301.996514 45.313136 
L 294.625091 45.349135 
L 287.537381 45.390703 
L 280.718048 45.437539 
L 274.151756 45.489342 
L 267.82317 45.545811 
L 261.716953 45.606646 
L 255.81777 45.671544 
L 250.110285 45.740205 
L 244.579162 45.812328 
L 239.209065 45.887612 
L 233.984658 45.965755 
L 228.890606 46.046458 
L 223.911573 46.129418 
L 219.032223 46.214335 
L 214.237219 46.300908 
L 209.511227 46.388835 
L 204.838911 46.477816 
L 200.204934 46.56755 
L 195.59396 46.657735 
L 190.990655 46.74807 
L 186.379682 46.838255 
L 181.745705 46.927989 
L 177.073388 47.01697 
L 172.347396 47.104897 
L 167.552393 47.19147 
L 162.673043 47.276387 
L 157.694009 47.359347 
L 152.599957 47.44005 
L 147.375551 47.518193 
L 142.005454 47.593477 
L 136.474331 47.6656 
L 130.766845 47.734261 
L 124.867662 47.79916 
L 118.761446 47.859994 
L 112.432859 47.916463 
L 105.866567 47.968266 
L 99.047234 48.015102 
L 91.959524 48.05667 
L 84.588101 48.092669 
L 76.91763 48.122797 
L 68.932774 48.146755 
L 60.618197 48.16424 
L 51.958564 48.174952 
L 42.93854 48.178589 
z
" style="fill:#6baed6;fill-opacity:0.6;"/>
   </g>
   <g id="PathCollection_1">
    <defs>
     <path d="M 0 3 
C 0.795609 3 1.55874 2.683901 2.12132 2.12132 
C 2.683901 1.55874 3 0.795609 3 -0 
C 3 -0.795609 2.683901 -1.55874 2.12132 -2.12132 
C 1.55874 -2.683901 0.795609 -3 0 -3 
C -0.795609 -3 -1.55874 -2.683901 -2.12132 -2.12132 
C -2.683901 -1.55874 -3 -0.795609 -3 0 
C -3 0.795609 -2.683901 1.55874 -2.12132 2.12132 
C -1.55874 2.683901 -0.795609 3 0 3 
z
" id="C0_0_eef0c9d1ac"/>
    </defs>
    <g clip-path="url(#pc853555976)">
     <use style="fill:#3182bd;stroke:#000000;" x="348.369231" xlink:href="#C0_0_eef0c9d1ac" y="329.360872"/>
    </g>
    <g clip-path="url(#pc853555976)">
     <use style="fill:#6baed6;stroke:#000000;" x="348.369231" xlink:href="#C0_0_eef0c9d1ac" y="118.597235"/>
    </g>
    <g clip-path="url(#pc853555976)">
     <use style="fill:#9ecae1;stroke:#000000;" x="38.215385" xlink:href="#C0_0_eef0c9d1ac" y="254.360407"/>
    </g>
    <g clip-path="url(#pc853555976)">
     <use style="fill:#c6dbef;stroke:#000000;" x="658.523077" xlink:href="#C0_0_eef0c9d1ac" y="475.771897"/>
    </g>
    <g clip-path="url(#pc853555976)">
     <use style="fill:#e6550d;stroke:#000000;" x="658.523077" xlink:href="#C0_0_eef0c9d1ac" y="298.177699"/>
    </g>
    <g clip-path="url(#pc853555976)">
     <use style="fill:#fd8d3c;stroke:#000000;" x="658.523077" xlink:href="#C0_0_eef0c9d1ac" y="414.709421"/>
    </g>
    <g clip-path="url(#pc853555976)">
     <use style="fill:#fdae6b;stroke:#000000;" x="658.523077" xlink:href="#C0_0_eef0c9d1ac" y="244.134179"/>
    </g>
    <g clip-path="url(#pc853555976)">
     <use style="fill:#fdd0a2;stroke:#000000;" x="658.523077" xlink:href="#C0_0_eef0c9d1ac" y="354.414643"/>
    </g>
    <g clip-path="url(#pc853555976)">
     <use style="fill:#31a354;stroke:#000000;" x="658.523077" xlink:href="#C0_0_eef0c9d1ac" y="127.407487"/>
    </g>
    <g clip-path="url(#pc853555976)">
     <use style="fill:#74c476;stroke:#000000;" x="658.523077" xlink:href="#C0_0_eef0c9d1ac" y="158.639402"/>
    </g>
    <g clip-path="url(#pc853555976)">
     <use style="fill:#a1d99b;stroke:#000000;" x="658.523077" xlink:href="#C0_0_eef0c9d1ac" y="101.659131"/>
    </g>
    <g clip-path="url(#pc853555976)">
     <use style="fill:#c7e9c0;stroke:#000000;" x="658.523077" xlink:href="#C0_0_eef0c9d1ac" y="76.678473"/>
    </g>
    <g clip-path="url(#pc853555976)">
     <use style="fill:#756bb1;stroke:#000000;" x="658.523077" xlink:href="#C0_0_eef0c9d1ac" y="196.890272"/>
    </g>
    <g clip-path="url(#pc853555976)">
     <use style="fill:#9e9ac8;stroke:#000000;" x="658.523077" xlink:href="#C0_0_eef0c9d1ac" y="53.562226"/>
    </g>
   </g>
   <g id="PatchCollection_1">
    <path clip-path="url(#pc853555976)" d="M 343.646076 462.17267 
L 353.092386 462.17267 
L 353.092386 196.549073 
L 343.646076 196.549073 
z
" style="fill:#3182bd;stroke:#000000;"/>
    <path clip-path="url(#pc853555976)" d="M 343.646076 191.967255 
L 353.092386 191.967255 
L 353.092386 45.227216 
L 343.646076 45.227216 
z
" style="fill:#6baed6;stroke:#000000;"/>
    <path clip-path="url(#pc853555976)" d="M 33.49223 460.542226 
L 42.93854 460.542226 
L 42.93854 48.178589 
L 33.49223 48.178589 
z
" style="fill:#9ecae1;stroke:#000000;"/>
    <path clip-path="url(#pc853555976)" d="M 653.799922 503.409034 
L 663.246232 503.409034 
L 663.246232 448.134759 
L 653.799922 448.134759 
z
" style="fill:#c6dbef;stroke:#000000;"/>
    <path clip-path="url(#pc853555976)" d="M 653.799922 322.963386 
L 663.246232 322.963386 
L 663.246232 273.392013 
L 653.799922 273.392013 
z
" style="fill:#e6550d;stroke:#000000;"/>
    <path clip-path="url(#pc853555976)" d="M 653.799922 443.552941 
L 663.246232 443.552941 
L 663.246232 385.865901 
L 653.799922 385.865901 
z
" style="fill:#fd8d3c;stroke:#000000;"/>
    <path clip-path="url(#pc853555976)" d="M 653.799922 268.810195 
L 663.246232 268.810195 
L 663.246232 219.458164 
L 653.799922 219.458164 
z
" style="fill:#fdae6b;stroke:#000000;"/>
    <path clip-path="url(#pc853555976)" d="M 653.799922 381.284082 
L 663.246232 381.284082 
L 663.246232 327.545204 
L 653.799922 327.545204 
z
" style="fill:#fdd0a2;stroke:#000000;"/>
    <path clip-path="url(#pc853555976)" d="M 653.799922 138.374605 
L 663.246232 138.374605 
L 663.246232 116.440369 
L 653.799922 116.440369 
z
" style="fill:#31a354;stroke:#000000;"/>
    <path clip-path="url(#pc853555976)" d="M 653.799922 174.32238 
L 663.246232 174.32238 
L 663.246232 142.956423 
L 653.799922 142.956423 
z
" style="fill:#74c476;stroke:#000000;"/>
    <path clip-path="url(#pc853555976)" d="M 653.799922 111.858551 
L 663.246232 111.858551 
L 663.246232 91.459711 
L 653.799922 91.459711 
z
" style="fill:#a1d99b;stroke:#000000;"/>
    <path clip-path="url(#pc853555976)" d="M 653.799922 86.877893 
L 663.246232 86.877893 
L 663.246232 66.479053 
L 653.799922 66.479053 
z
" style="fill:#c7e9c0;stroke:#000000;"/>
    <path clip-path="url(#pc853555976)" d="M 653.799922 214.876346 
L 663.246232 214.876346 
L 663.246232 178.904199 
L 653.799922 178.904199 
z
" style="fill:#756bb1;stroke:#000000;"/>
    <path clip-path="url(#pc853555976)" d="M 653.799922 61.897235 
L 663.246232 61.897235 
L 663.246232 45.227216 
L 653.799922 45.227216 
z
" style="fill:#9e9ac8;stroke:#000000;"/>
   </g>
   <g id="text_1">
    <!-- Brain - 1211 -->
    <g transform="translate(355.453963 331.568372)scale(0.08 -0.08)">
     <defs>
      <path d="M 19.671875 34.8125 
L 19.671875 8.109375 
L 35.5 8.109375 
Q 43.453125 8.109375 47.28125 11.40625 
Q 51.125 14.703125 51.125 21.484375 
Q 51.125 28.328125 47.28125 31.5625 
Q 43.453125 34.8125 35.5 34.8125 
z
M 19.671875 64.796875 
L 19.671875 42.828125 
L 34.28125 42.828125 
Q 41.5 42.828125 45.03125 45.53125 
Q 48.578125 48.25 48.578125 53.8125 
Q 48.578125 59.328125 45.03125 62.0625 
Q 41.5 64.796875 34.28125 64.796875 
z
M 9.8125 72.90625 
L 35.015625 72.90625 
Q 46.296875 72.90625 52.390625 68.21875 
Q 58.5 63.53125 58.5 54.890625 
Q 58.5 48.1875 55.375 44.234375 
Q 52.25 40.28125 46.1875 39.3125 
Q 53.46875 37.75 57.5 32.78125 
Q 61.53125 27.828125 61.53125 20.40625 
Q 61.53125 10.640625 54.890625 5.3125 
Q 48.25 0 35.984375 0 
L 9.8125 0 
z
" id="DejaVuSans-66"/>
      <path d="M 41.109375 46.296875 
Q 39.59375 47.171875 37.8125 47.578125 
Q 36.03125 48 33.890625 48 
Q 26.265625 48 22.1875 43.046875 
Q 18.109375 38.09375 18.109375 28.8125 
L 18.109375 0 
L 9.078125 0 
L 9.078125 54.6875 
L 18.109375 54.6875 
L 18.109375 46.1875 
Q 20.953125 51.171875 25.484375 53.578125 
Q 30.03125 56 36.53125 56 
Q 37.453125 56 38.578125 55.875 
Q 39.703125 55.765625 41.0625 55.515625 
z
" id="DejaVuSans-114"/>
      <path d="M 34.28125 27.484375 
Q 23.390625 27.484375 19.1875 25 
Q 14.984375 22.515625 14.984375 16.5 
Q 14.984375 11.71875 18.140625 8.90625 
Q 21.296875 6.109375 26.703125 6.109375 
Q 34.1875 6.109375 38.703125 11.40625 
Q 43.21875 16.703125 43.21875 25.484375 
L 43.21875 27.484375 
z
M 52.203125 31.203125 
L 52.203125 0 
L 43.21875 0 
L 43.21875 8.296875 
Q 40.140625 3.328125 35.546875 0.953125 
Q 30.953125 -1.421875 24.3125 -1.421875 
Q 15.921875 -1.421875 10.953125 3.296875 
Q 6 8.015625 6 15.921875 
Q 6 25.140625 12.171875 29.828125 
Q 18.359375 34.515625 30.609375 34.515625 
L 43.21875 34.515625 
L 43.21875 35.40625 
Q 43.21875 41.609375 39.140625 45 
Q 35.0625 48.390625 27.6875 48.390625 
Q 23 48.390625 18.546875 47.265625 
Q 14.109375 46.140625 10.015625 43.890625 
L 10.015625 52.203125 
Q 14.9375 54.109375 19.578125 55.046875 
Q 24.21875 56 28.609375 56 
Q 40.484375 56 46.34375 49.84375 
Q 52.203125 43.703125 52.203125 31.203125 
z
" id="DejaVuSans-97"/>
      <path d="M 9.421875 54.6875 
L 18.40625 54.6875 
L 18.40625 0 
L 9.421875 0 
z
M 9.421875 75.984375 
L 18.40625 75.984375 
L 18.40625 64.59375 
L 9.421875 64.59375 
z
" id="DejaVuSans-105"/>
      <path d="M 54.890625 33.015625 
L 54.890625 0 
L 45.90625 0 
L 45.90625 32.71875 
Q 45.90625 40.484375 42.875 44.328125 
Q 39.84375 48.1875 33.796875 48.1875 
Q 26.515625 48.1875 22.3125 43.546875 
Q 18.109375 38.921875 18.109375 30.90625 
L 18.109375 0 
L 9.078125 0 
L 9.078125 54.6875 
L 18.109375 54.6875 
L 18.109375 46.1875 
Q 21.34375 51.125 25.703125 53.5625 
Q 30.078125 56 35.796875 56 
Q 45.21875 56 50.046875 50.171875 
Q 54.890625 44.34375 54.890625 33.015625 
z
" id="DejaVuSans-110"/>
      <path id="DejaVuSans-32"/>
      <path d="M 4.890625 31.390625 
L 31.203125 31.390625 
L 31.203125 23.390625 
L 4.890625 23.390625 
z
" id="DejaVuSans-45"/>
      <path d="M 12.40625 8.296875 
L 28.515625 8.296875 
L 28.515625 63.921875 
L 10.984375 60.40625 
L 10.984375 69.390625 
L 28.421875 72.90625 
L 38.28125 72.90625 
L 38.28125 8.296875 
L 54.390625 8.296875 
L 54.390625 0 
L 12.40625 0 
z
" id="DejaVuSans-49"/>
      <path d="M 19.1875 8.296875 
L 53.609375 8.296875 
L 53.609375 0 
L 7.328125 0 
L 7.328125 8.296875 
Q 12.9375 14.109375 22.625 23.890625 
Q 32.328125 33.6875 34.8125 36.53125 
Q 39.546875 41.84375 41.421875 45.53125 
Q 43.3125 49.21875 43.3125 52.78125 
Q 43.3125 58.59375 39.234375 62.25 
Q 35.15625 65.921875 28.609375 65.921875 
Q 23.96875 65.921875 18.8125 64.3125 
Q 13.671875 62.703125 7.8125 59.421875 
L 7.8125 69.390625 
Q 13.765625 71.78125 18.9375 73 
Q 24.125 74.21875 28.421875 74.21875 
Q 39.75 74.21875 46.484375 68.546875 
Q 53.21875 62.890625 53.21875 53.421875 
Q 53.21875 48.921875 51.53125 44.890625 
Q 49.859375 40.875 45.40625 35.40625 
Q 44.1875 33.984375 37.640625 27.21875 
Q 31.109375 20.453125 19.1875 8.296875 
z
" id="DejaVuSans-50"/>
     </defs>
     <use xlink:href="#DejaVuSans-66"/>
     <use x="68.603516" xlink:href="#DejaVuSans-114"/>
     <use x="109.716797" xlink:href="#DejaVuSans-97"/>
     <use x="170.996094" xlink:href="#DejaVuSans-105"/>
     <use x="198.779297" xlink:href="#DejaVuSans-110"/>
     <use x="262.158203" xlink:href="#DejaVuSans-32"/>
     <use x="293.945312" xlink:href="#DejaVuSans-45"/>
     <use x="330.029297" xlink:href="#DejaVuSans-32"/>
     <use x="361.816406" xlink:href="#DejaVuSans-49"/>
     <use x="425.439453" xlink:href="#DejaVuSans-50"/>
     <use x="489.0625" xlink:href="#DejaVuSans-49"/>
     <use x="552.685547" xlink:href="#DejaVuSans-49"/>
    </g>
   </g>
   <g id="text_2">
    <!-- Body - 669 -->
    <g transform="translate(355.453963 120.804735)scale(0.08 -0.08)">
     <defs>
      <path d="M 30.609375 48.390625 
Q 23.390625 48.390625 19.1875 42.75 
Q 14.984375 37.109375 14.984375 27.296875 
Q 14.984375 17.484375 19.15625 11.84375 
Q 23.34375 6.203125 30.609375 6.203125 
Q 37.796875 6.203125 41.984375 11.859375 
Q 46.1875 17.53125 46.1875 27.296875 
Q 46.1875 37.015625 41.984375 42.703125 
Q 37.796875 48.390625 30.609375 48.390625 
z
M 30.609375 56 
Q 42.328125 56 49.015625 48.375 
Q 55.71875 40.765625 55.71875 27.296875 
Q 55.71875 13.875 49.015625 6.21875 
Q 42.328125 -1.421875 30.609375 -1.421875 
Q 18.84375 -1.421875 12.171875 6.21875 
Q 5.515625 13.875 5.515625 27.296875 
Q 5.515625 40.765625 12.171875 48.375 
Q 18.84375 56 30.609375 56 
z
" id="DejaVuSans-111"/>
      <path d="M 45.40625 46.390625 
L 45.40625 75.984375 
L 54.390625 75.984375 
L 54.390625 0 
L 45.40625 0 
L 45.40625 8.203125 
Q 42.578125 3.328125 38.25 0.953125 
Q 33.9375 -1.421875 27.875 -1.421875 
Q 17.96875 -1.421875 11.734375 6.484375 
Q 5.515625 14.40625 5.515625 27.296875 
Q 5.515625 40.1875 11.734375 48.09375 
Q 17.96875 56 27.875 56 
Q 33.9375 56 38.25 53.625 
Q 42.578125 51.265625 45.40625 46.390625 
z
M 14.796875 27.296875 
Q 14.796875 17.390625 18.875 11.75 
Q 22.953125 6.109375 30.078125 6.109375 
Q 37.203125 6.109375 41.296875 11.75 
Q 45.40625 17.390625 45.40625 27.296875 
Q 45.40625 37.203125 41.296875 42.84375 
Q 37.203125 48.484375 30.078125 48.484375 
Q 22.953125 48.484375 18.875 42.84375 
Q 14.796875 37.203125 14.796875 27.296875 
z
" id="DejaVuSans-100"/>
      <path d="M 32.171875 -5.078125 
Q 28.375 -14.84375 24.75 -17.8125 
Q 21.140625 -20.796875 15.09375 -20.796875 
L 7.90625 -20.796875 
L 7.90625 -13.28125 
L 13.1875 -13.28125 
Q 16.890625 -13.28125 18.9375 -11.515625 
Q 21 -9.765625 23.484375 -3.21875 
L 25.09375 0.875 
L 2.984375 54.6875 
L 12.5 54.6875 
L 29.59375 11.921875 
L 46.6875 54.6875 
L 56.203125 54.6875 
z
" id="DejaVuSans-121"/>
      <path d="M 33.015625 40.375 
Q 26.375 40.375 22.484375 35.828125 
Q 18.609375 31.296875 18.609375 23.390625 
Q 18.609375 15.53125 22.484375 10.953125 
Q 26.375 6.390625 33.015625 6.390625 
Q 39.65625 6.390625 43.53125 10.953125 
Q 47.40625 15.53125 47.40625 23.390625 
Q 47.40625 31.296875 43.53125 35.828125 
Q 39.65625 40.375 33.015625 40.375 
z
M 52.59375 71.296875 
L 52.59375 62.3125 
Q 48.875 64.0625 45.09375 64.984375 
Q 41.3125 65.921875 37.59375 65.921875 
Q 27.828125 65.921875 22.671875 59.328125 
Q 17.53125 52.734375 16.796875 39.40625 
Q 19.671875 43.65625 24.015625 45.921875 
Q 28.375 48.1875 33.59375 48.1875 
Q 44.578125 48.1875 50.953125 41.515625 
Q 57.328125 34.859375 57.328125 23.390625 
Q 57.328125 12.15625 50.6875 5.359375 
Q 44.046875 -1.421875 33.015625 -1.421875 
Q 20.359375 -1.421875 13.671875 8.265625 
Q 6.984375 17.96875 6.984375 36.375 
Q 6.984375 53.65625 15.1875 63.9375 
Q 23.390625 74.21875 37.203125 74.21875 
Q 40.921875 74.21875 44.703125 73.484375 
Q 48.484375 72.75 52.59375 71.296875 
z
" id="DejaVuSans-54"/>
      <path d="M 10.984375 1.515625 
L 10.984375 10.5 
Q 14.703125 8.734375 18.5 7.8125 
Q 22.3125 6.890625 25.984375 6.890625 
Q 35.75 6.890625 40.890625 13.453125 
Q 46.046875 20.015625 46.78125 33.40625 
Q 43.953125 29.203125 39.59375 26.953125 
Q 35.25 24.703125 29.984375 24.703125 
Q 19.046875 24.703125 12.671875 31.3125 
Q 6.296875 37.9375 6.296875 49.421875 
Q 6.296875 60.640625 12.9375 67.421875 
Q 19.578125 74.21875 30.609375 74.21875 
Q 43.265625 74.21875 49.921875 64.515625 
Q 56.59375 54.828125 56.59375 36.375 
Q 56.59375 19.140625 48.40625 8.859375 
Q 40.234375 -1.421875 26.421875 -1.421875 
Q 22.703125 -1.421875 18.890625 -0.6875 
Q 15.09375 0.046875 10.984375 1.515625 
z
M 30.609375 32.421875 
Q 37.25 32.421875 41.125 36.953125 
Q 45.015625 41.5 45.015625 49.421875 
Q 45.015625 57.28125 41.125 61.84375 
Q 37.25 66.40625 30.609375 66.40625 
Q 23.96875 66.40625 20.09375 61.84375 
Q 16.21875 57.28125 16.21875 49.421875 
Q 16.21875 41.5 20.09375 36.953125 
Q 23.96875 32.421875 30.609375 32.421875 
z
" id="DejaVuSans-57"/>
     </defs>
     <use xlink:href="#DejaVuSans-66"/>
     <use x="68.603516" xlink:href="#DejaVuSans-111"/>
     <use x="129.785156" xlink:href="#DejaVuSans-100"/>
     <use x="193.261719" xlink:href="#DejaVuSans-121"/>
     <use x="252.441406" xlink:href="#DejaVuSans-32"/>
     <use x="284.228516" xlink:href="#DejaVuSans-45"/>
     <use x="320.3125" xlink:href="#DejaVuSans-32"/>
     <use x="352.099609" xlink:href="#DejaVuSans-54"/>
     <use x="415.722656" xlink:href="#DejaVuSans-54"/>
     <use x="479.345703" xlink:href="#DejaVuSans-57"/>
    </g>
   </g>
   <g id="text_3">
    <!-- Total - 1880 -->
    <g transform="translate(45.300117 256.567907)scale(0.08 -0.08)">
     <defs>
      <path d="M -0.296875 72.90625 
L 61.375 72.90625 
L 61.375 64.59375 
L 35.5 64.59375 
L 35.5 0 
L 25.59375 0 
L 25.59375 64.59375 
L -0.296875 64.59375 
z
" id="DejaVuSans-84"/>
      <path d="M 18.3125 70.21875 
L 18.3125 54.6875 
L 36.8125 54.6875 
L 36.8125 47.703125 
L 18.3125 47.703125 
L 18.3125 18.015625 
Q 18.3125 11.328125 20.140625 9.421875 
Q 21.96875 7.515625 27.59375 7.515625 
L 36.8125 7.515625 
L 36.8125 0 
L 27.59375 0 
Q 17.1875 0 13.234375 3.875 
Q 9.28125 7.765625 9.28125 18.015625 
L 9.28125 47.703125 
L 2.6875 47.703125 
L 2.6875 54.6875 
L 9.28125 54.6875 
L 9.28125 70.21875 
z
" id="DejaVuSans-116"/>
      <path d="M 9.421875 75.984375 
L 18.40625 75.984375 
L 18.40625 0 
L 9.421875 0 
z
" id="DejaVuSans-108"/>
      <path d="M 31.78125 34.625 
Q 24.75 34.625 20.71875 30.859375 
Q 16.703125 27.09375 16.703125 20.515625 
Q 16.703125 13.921875 20.71875 10.15625 
Q 24.75 6.390625 31.78125 6.390625 
Q 38.8125 6.390625 42.859375 10.171875 
Q 46.921875 13.96875 46.921875 20.515625 
Q 46.921875 27.09375 42.890625 30.859375 
Q 38.875 34.625 31.78125 34.625 
z
M 21.921875 38.8125 
Q 15.578125 40.375 12.03125 44.71875 
Q 8.5 49.078125 8.5 55.328125 
Q 8.5 64.0625 14.71875 69.140625 
Q 20.953125 74.21875 31.78125 74.21875 
Q 42.671875 74.21875 48.875 69.140625 
Q 55.078125 64.0625 55.078125 55.328125 
Q 55.078125 49.078125 51.53125 44.71875 
Q 48 40.375 41.703125 38.8125 
Q 48.828125 37.15625 52.796875 32.3125 
Q 56.78125 27.484375 56.78125 20.515625 
Q 56.78125 9.90625 50.3125 4.234375 
Q 43.84375 -1.421875 31.78125 -1.421875 
Q 19.734375 -1.421875 13.25 4.234375 
Q 6.78125 9.90625 6.78125 20.515625 
Q 6.78125 27.484375 10.78125 32.3125 
Q 14.796875 37.15625 21.921875 38.8125 
z
M 18.3125 54.390625 
Q 18.3125 48.734375 21.84375 45.5625 
Q 25.390625 42.390625 31.78125 42.390625 
Q 38.140625 42.390625 41.71875 45.5625 
Q 45.3125 48.734375 45.3125 54.390625 
Q 45.3125 60.0625 41.71875 63.234375 
Q 38.140625 66.40625 31.78125 66.40625 
Q 25.390625 66.40625 21.84375 63.234375 
Q 18.3125 60.0625 18.3125 54.390625 
z
" id="DejaVuSans-56"/>
      <path d="M 31.78125 66.40625 
Q 24.171875 66.40625 20.328125 58.90625 
Q 16.5 51.421875 16.5 36.375 
Q 16.5 21.390625 20.328125 13.890625 
Q 24.171875 6.390625 31.78125 6.390625 
Q 39.453125 6.390625 43.28125 13.890625 
Q 47.125 21.390625 47.125 36.375 
Q 47.125 51.421875 43.28125 58.90625 
Q 39.453125 66.40625 31.78125 66.40625 
z
M 31.78125 74.21875 
Q 44.046875 74.21875 50.515625 64.515625 
Q 56.984375 54.828125 56.984375 36.375 
Q 56.984375 17.96875 50.515625 8.265625 
Q 44.046875 -1.421875 31.78125 -1.421875 
Q 19.53125 -1.421875 13.0625 8.265625 
Q 6.59375 17.96875 6.59375 36.375 
Q 6.59375 54.828125 13.0625 64.515625 
Q 19.53125 74.21875 31.78125 74.21875 
z
" id="DejaVuSans-48"/>
     </defs>
     <use xlink:href="#DejaVuSans-84"/>
     <use x="44.083984" xlink:href="#DejaVuSans-111"/>
     <use x="105.265625" xlink:href="#DejaVuSans-116"/>
     <use x="144.474609" xlink:href="#DejaVuSans-97"/>
     <use x="205.753906" xlink:href="#DejaVuSans-108"/>
     <use x="233.537109" xlink:href="#DejaVuSans-32"/>
     <use x="265.324219" xlink:href="#DejaVuSans-45"/>
     <use x="301.408203" xlink:href="#DejaVuSans-32"/>
     <use x="333.195312" xlink:href="#DejaVuSans-49"/>
     <use x="396.818359" xlink:href="#DejaVuSans-56"/>
     <use x="460.441406" xlink:href="#DejaVuSans-56"/>
     <use x="524.064453" xlink:href="#DejaVuSans-48"/>
    </g>
   </g>
   <g id="text_4">
    <!-- Bcortex - 252 -->
    <g transform="translate(665.607809 477.979397)scale(0.08 -0.08)">
     <defs>
      <path d="M 48.78125 52.59375 
L 48.78125 44.1875 
Q 44.96875 46.296875 41.140625 47.34375 
Q 37.3125 48.390625 33.40625 48.390625 
Q 24.65625 48.390625 19.8125 42.84375 
Q 14.984375 37.3125 14.984375 27.296875 
Q 14.984375 17.28125 19.8125 11.734375 
Q 24.65625 6.203125 33.40625 6.203125 
Q 37.3125 6.203125 41.140625 7.25 
Q 44.96875 8.296875 48.78125 10.40625 
L 48.78125 2.09375 
Q 45.015625 0.34375 40.984375 -0.53125 
Q 36.96875 -1.421875 32.421875 -1.421875 
Q 20.0625 -1.421875 12.78125 6.34375 
Q 5.515625 14.109375 5.515625 27.296875 
Q 5.515625 40.671875 12.859375 48.328125 
Q 20.21875 56 33.015625 56 
Q 37.15625 56 41.109375 55.140625 
Q 45.0625 54.296875 48.78125 52.59375 
z
" id="DejaVuSans-99"/>
      <path d="M 56.203125 29.59375 
L 56.203125 25.203125 
L 14.890625 25.203125 
Q 15.484375 15.921875 20.484375 11.0625 
Q 25.484375 6.203125 34.421875 6.203125 
Q 39.59375 6.203125 44.453125 7.46875 
Q 49.3125 8.734375 54.109375 11.28125 
L 54.109375 2.78125 
Q 49.265625 0.734375 44.1875 -0.34375 
Q 39.109375 -1.421875 33.890625 -1.421875 
Q 20.796875 -1.421875 13.15625 6.1875 
Q 5.515625 13.8125 5.515625 26.8125 
Q 5.515625 40.234375 12.765625 48.109375 
Q 20.015625 56 32.328125 56 
Q 43.359375 56 49.78125 48.890625 
Q 56.203125 41.796875 56.203125 29.59375 
z
M 47.21875 32.234375 
Q 47.125 39.59375 43.09375 43.984375 
Q 39.0625 48.390625 32.421875 48.390625 
Q 24.90625 48.390625 20.390625 44.140625 
Q 15.875 39.890625 15.1875 32.171875 
z
" id="DejaVuSans-101"/>
      <path d="M 54.890625 54.6875 
L 35.109375 28.078125 
L 55.90625 0 
L 45.3125 0 
L 29.390625 21.484375 
L 13.484375 0 
L 2.875 0 
L 24.125 28.609375 
L 4.6875 54.6875 
L 15.28125 54.6875 
L 29.78125 35.203125 
L 44.28125 54.6875 
z
" id="DejaVuSans-120"/>
      <path d="M 10.796875 72.90625 
L 49.515625 72.90625 
L 49.515625 64.59375 
L 19.828125 64.59375 
L 19.828125 46.734375 
Q 21.96875 47.46875 24.109375 47.828125 
Q 26.265625 48.1875 28.421875 48.1875 
Q 40.625 48.1875 47.75 41.5 
Q 54.890625 34.8125 54.890625 23.390625 
Q 54.890625 11.625 47.5625 5.09375 
Q 40.234375 -1.421875 26.90625 -1.421875 
Q 22.3125 -1.421875 17.546875 -0.640625 
Q 12.796875 0.140625 7.71875 1.703125 
L 7.71875 11.625 
Q 12.109375 9.234375 16.796875 8.0625 
Q 21.484375 6.890625 26.703125 6.890625 
Q 35.15625 6.890625 40.078125 11.328125 
Q 45.015625 15.765625 45.015625 23.390625 
Q 45.015625 31 40.078125 35.4375 
Q 35.15625 39.890625 26.703125 39.890625 
Q 22.75 39.890625 18.8125 39.015625 
Q 14.890625 38.140625 10.796875 36.28125 
z
" id="DejaVuSans-53"/>
     </defs>
     <use xlink:href="#DejaVuSans-66"/>
     <use x="68.603516" xlink:href="#DejaVuSans-99"/>
     <use x="123.583984" xlink:href="#DejaVuSans-111"/>
     <use x="184.765625" xlink:href="#DejaVuSans-114"/>
     <use x="225.878906" xlink:href="#DejaVuSans-116"/>
     <use x="265.087891" xlink:href="#DejaVuSans-101"/>
     <use x="324.861328" xlink:href="#DejaVuSans-120"/>
     <use x="384.041016" xlink:href="#DejaVuSans-32"/>
     <use x="415.828125" xlink:href="#DejaVuSans-45"/>
     <use x="451.912109" xlink:href="#DejaVuSans-32"/>
     <use x="483.699219" xlink:href="#DejaVuSans-50"/>
     <use x="547.322266" xlink:href="#DejaVuSans-53"/>
     <use x="610.945312" xlink:href="#DejaVuSans-50"/>
    </g>
   </g>
   <g id="text_5">
    <!-- Cerebellum - 226 -->
    <g transform="translate(665.607809 300.385199)scale(0.08 -0.08)">
     <defs>
      <path d="M 64.40625 67.28125 
L 64.40625 56.890625 
Q 59.421875 61.53125 53.78125 63.8125 
Q 48.140625 66.109375 41.796875 66.109375 
Q 29.296875 66.109375 22.65625 58.46875 
Q 16.015625 50.828125 16.015625 36.375 
Q 16.015625 21.96875 22.65625 14.328125 
Q 29.296875 6.6875 41.796875 6.6875 
Q 48.140625 6.6875 53.78125 8.984375 
Q 59.421875 11.28125 64.40625 15.921875 
L 64.40625 5.609375 
Q 59.234375 2.09375 53.4375 0.328125 
Q 47.65625 -1.421875 41.21875 -1.421875 
Q 24.65625 -1.421875 15.125 8.703125 
Q 5.609375 18.84375 5.609375 36.375 
Q 5.609375 53.953125 15.125 64.078125 
Q 24.65625 74.21875 41.21875 74.21875 
Q 47.75 74.21875 53.53125 72.484375 
Q 59.328125 70.75 64.40625 67.28125 
z
" id="DejaVuSans-67"/>
      <path d="M 48.6875 27.296875 
Q 48.6875 37.203125 44.609375 42.84375 
Q 40.53125 48.484375 33.40625 48.484375 
Q 26.265625 48.484375 22.1875 42.84375 
Q 18.109375 37.203125 18.109375 27.296875 
Q 18.109375 17.390625 22.1875 11.75 
Q 26.265625 6.109375 33.40625 6.109375 
Q 40.53125 6.109375 44.609375 11.75 
Q 48.6875 17.390625 48.6875 27.296875 
z
M 18.109375 46.390625 
Q 20.953125 51.265625 25.265625 53.625 
Q 29.59375 56 35.59375 56 
Q 45.5625 56 51.78125 48.09375 
Q 58.015625 40.1875 58.015625 27.296875 
Q 58.015625 14.40625 51.78125 6.484375 
Q 45.5625 -1.421875 35.59375 -1.421875 
Q 29.59375 -1.421875 25.265625 0.953125 
Q 20.953125 3.328125 18.109375 8.203125 
L 18.109375 0 
L 9.078125 0 
L 9.078125 75.984375 
L 18.109375 75.984375 
z
" id="DejaVuSans-98"/>
      <path d="M 8.5 21.578125 
L 8.5 54.6875 
L 17.484375 54.6875 
L 17.484375 21.921875 
Q 17.484375 14.15625 20.5 10.265625 
Q 23.53125 6.390625 29.59375 6.390625 
Q 36.859375 6.390625 41.078125 11.03125 
Q 45.3125 15.671875 45.3125 23.6875 
L 45.3125 54.6875 
L 54.296875 54.6875 
L 54.296875 0 
L 45.3125 0 
L 45.3125 8.40625 
Q 42.046875 3.421875 37.71875 1 
Q 33.40625 -1.421875 27.6875 -1.421875 
Q 18.265625 -1.421875 13.375 4.4375 
Q 8.5 10.296875 8.5 21.578125 
z
M 31.109375 56 
z
" id="DejaVuSans-117"/>
      <path d="M 52 44.1875 
Q 55.375 50.25 60.0625 53.125 
Q 64.75 56 71.09375 56 
Q 79.640625 56 84.28125 50.015625 
Q 88.921875 44.046875 88.921875 33.015625 
L 88.921875 0 
L 79.890625 0 
L 79.890625 32.71875 
Q 79.890625 40.578125 77.09375 44.375 
Q 74.3125 48.1875 68.609375 48.1875 
Q 61.625 48.1875 57.5625 43.546875 
Q 53.515625 38.921875 53.515625 30.90625 
L 53.515625 0 
L 44.484375 0 
L 44.484375 32.71875 
Q 44.484375 40.625 41.703125 44.40625 
Q 38.921875 48.1875 33.109375 48.1875 
Q 26.21875 48.1875 22.15625 43.53125 
Q 18.109375 38.875 18.109375 30.90625 
L 18.109375 0 
L 9.078125 0 
L 9.078125 54.6875 
L 18.109375 54.6875 
L 18.109375 46.1875 
Q 21.1875 51.21875 25.484375 53.609375 
Q 29.78125 56 35.6875 56 
Q 41.65625 56 45.828125 52.96875 
Q 50 49.953125 52 44.1875 
z
" id="DejaVuSans-109"/>
     </defs>
     <use xlink:href="#DejaVuSans-67"/>
     <use x="69.824219" xlink:href="#DejaVuSans-101"/>
     <use x="131.347656" xlink:href="#DejaVuSans-114"/>
     <use x="170.210938" xlink:href="#DejaVuSans-101"/>
     <use x="231.734375" xlink:href="#DejaVuSans-98"/>
     <use x="295.210938" xlink:href="#DejaVuSans-101"/>
     <use x="356.734375" xlink:href="#DejaVuSans-108"/>
     <use x="384.517578" xlink:href="#DejaVuSans-108"/>
     <use x="412.300781" xlink:href="#DejaVuSans-117"/>
     <use x="475.679688" xlink:href="#DejaVuSans-109"/>
     <use x="573.091797" xlink:href="#DejaVuSans-32"/>
     <use x="604.878906" xlink:href="#DejaVuSans-45"/>
     <use x="640.962891" xlink:href="#DejaVuSans-32"/>
     <use x="672.75" xlink:href="#DejaVuSans-50"/>
     <use x="736.373047" xlink:href="#DejaVuSans-50"/>
     <use x="799.996094" xlink:href="#DejaVuSans-54"/>
    </g>
   </g>
   <g id="text_6">
    <!-- Hypothalamus - 263 -->
    <g transform="translate(665.607809 416.916921)scale(0.08 -0.08)">
     <defs>
      <path d="M 9.8125 72.90625 
L 19.671875 72.90625 
L 19.671875 43.015625 
L 55.515625 43.015625 
L 55.515625 72.90625 
L 65.375 72.90625 
L 65.375 0 
L 55.515625 0 
L 55.515625 34.71875 
L 19.671875 34.71875 
L 19.671875 0 
L 9.8125 0 
z
" id="DejaVuSans-72"/>
      <path d="M 18.109375 8.203125 
L 18.109375 -20.796875 
L 9.078125 -20.796875 
L 9.078125 54.6875 
L 18.109375 54.6875 
L 18.109375 46.390625 
Q 20.953125 51.265625 25.265625 53.625 
Q 29.59375 56 35.59375 56 
Q 45.5625 56 51.78125 48.09375 
Q 58.015625 40.1875 58.015625 27.296875 
Q 58.015625 14.40625 51.78125 6.484375 
Q 45.5625 -1.421875 35.59375 -1.421875 
Q 29.59375 -1.421875 25.265625 0.953125 
Q 20.953125 3.328125 18.109375 8.203125 
z
M 48.6875 27.296875 
Q 48.6875 37.203125 44.609375 42.84375 
Q 40.53125 48.484375 33.40625 48.484375 
Q 26.265625 48.484375 22.1875 42.84375 
Q 18.109375 37.203125 18.109375 27.296875 
Q 18.109375 17.390625 22.1875 11.75 
Q 26.265625 6.109375 33.40625 6.109375 
Q 40.53125 6.109375 44.609375 11.75 
Q 48.6875 17.390625 48.6875 27.296875 
z
" id="DejaVuSans-112"/>
      <path d="M 54.890625 33.015625 
L 54.890625 0 
L 45.90625 0 
L 45.90625 32.71875 
Q 45.90625 40.484375 42.875 44.328125 
Q 39.84375 48.1875 33.796875 48.1875 
Q 26.515625 48.1875 22.3125 43.546875 
Q 18.109375 38.921875 18.109375 30.90625 
L 18.109375 0 
L 9.078125 0 
L 9.078125 75.984375 
L 18.109375 75.984375 
L 18.109375 46.1875 
Q 21.34375 51.125 25.703125 53.5625 
Q 30.078125 56 35.796875 56 
Q 45.21875 56 50.046875 50.171875 
Q 54.890625 44.34375 54.890625 33.015625 
z
" id="DejaVuSans-104"/>
      <path d="M 44.28125 53.078125 
L 44.28125 44.578125 
Q 40.484375 46.53125 36.375 47.5 
Q 32.28125 48.484375 27.875 48.484375 
Q 21.1875 48.484375 17.84375 46.4375 
Q 14.5 44.390625 14.5 40.28125 
Q 14.5 37.15625 16.890625 35.375 
Q 19.28125 33.59375 26.515625 31.984375 
L 29.59375 31.296875 
Q 39.15625 29.25 43.1875 25.515625 
Q 47.21875 21.78125 47.21875 15.09375 
Q 47.21875 7.46875 41.1875 3.015625 
Q 35.15625 -1.421875 24.609375 -1.421875 
Q 20.21875 -1.421875 15.453125 -0.5625 
Q 10.6875 0.296875 5.421875 2 
L 5.421875 11.28125 
Q 10.40625 8.6875 15.234375 7.390625 
Q 20.0625 6.109375 24.8125 6.109375 
Q 31.15625 6.109375 34.5625 8.28125 
Q 37.984375 10.453125 37.984375 14.40625 
Q 37.984375 18.0625 35.515625 20.015625 
Q 33.0625 21.96875 24.703125 23.78125 
L 21.578125 24.515625 
Q 13.234375 26.265625 9.515625 29.90625 
Q 5.8125 33.546875 5.8125 39.890625 
Q 5.8125 47.609375 11.28125 51.796875 
Q 16.75 56 26.8125 56 
Q 31.78125 56 36.171875 55.265625 
Q 40.578125 54.546875 44.28125 53.078125 
z
" id="DejaVuSans-115"/>
      <path d="M 40.578125 39.3125 
Q 47.65625 37.796875 51.625 33 
Q 55.609375 28.21875 55.609375 21.1875 
Q 55.609375 10.40625 48.1875 4.484375 
Q 40.765625 -1.421875 27.09375 -1.421875 
Q 22.515625 -1.421875 17.65625 -0.515625 
Q 12.796875 0.390625 7.625 2.203125 
L 7.625 11.71875 
Q 11.71875 9.328125 16.59375 8.109375 
Q 21.484375 6.890625 26.8125 6.890625 
Q 36.078125 6.890625 40.9375 10.546875 
Q 45.796875 14.203125 45.796875 21.1875 
Q 45.796875 27.640625 41.28125 31.265625 
Q 36.765625 34.90625 28.71875 34.90625 
L 20.21875 34.90625 
L 20.21875 43.015625 
L 29.109375 43.015625 
Q 36.375 43.015625 40.234375 45.921875 
Q 44.09375 48.828125 44.09375 54.296875 
Q 44.09375 59.90625 40.109375 62.90625 
Q 36.140625 65.921875 28.71875 65.921875 
Q 24.65625 65.921875 20.015625 65.03125 
Q 15.375 64.15625 9.8125 62.3125 
L 9.8125 71.09375 
Q 15.4375 72.65625 20.34375 73.4375 
Q 25.25 74.21875 29.59375 74.21875 
Q 40.828125 74.21875 47.359375 69.109375 
Q 53.90625 64.015625 53.90625 55.328125 
Q 53.90625 49.265625 50.4375 45.09375 
Q 46.96875 40.921875 40.578125 39.3125 
z
" id="DejaVuSans-51"/>
     </defs>
     <use xlink:href="#DejaVuSans-72"/>
     <use x="75.195312" xlink:href="#DejaVuSans-121"/>
     <use x="134.375" xlink:href="#DejaVuSans-112"/>
     <use x="197.851562" xlink:href="#DejaVuSans-111"/>
     <use x="259.033203" xlink:href="#DejaVuSans-116"/>
     <use x="298.242188" xlink:href="#DejaVuSans-104"/>
     <use x="361.621094" xlink:href="#DejaVuSans-97"/>
     <use x="422.900391" xlink:href="#DejaVuSans-108"/>
     <use x="450.683594" xlink:href="#DejaVuSans-97"/>
     <use x="511.962891" xlink:href="#DejaVuSans-109"/>
     <use x="609.375" xlink:href="#DejaVuSans-117"/>
     <use x="672.753906" xlink:href="#DejaVuSans-115"/>
     <use x="724.853516" xlink:href="#DejaVuSans-32"/>
     <use x="756.640625" xlink:href="#DejaVuSans-45"/>
     <use x="792.724609" xlink:href="#DejaVuSans-32"/>
     <use x="824.511719" xlink:href="#DejaVuSans-50"/>
     <use x="888.134766" xlink:href="#DejaVuSans-54"/>
     <use x="951.757812" xlink:href="#DejaVuSans-51"/>
    </g>
   </g>
   <g id="text_7">
    <!-- Medulla - 225 -->
    <g transform="translate(665.607809 246.341679)scale(0.08 -0.08)">
     <defs>
      <path d="M 9.8125 72.90625 
L 24.515625 72.90625 
L 43.109375 23.296875 
L 61.8125 72.90625 
L 76.515625 72.90625 
L 76.515625 0 
L 66.890625 0 
L 66.890625 64.015625 
L 48.09375 14.015625 
L 38.1875 14.015625 
L 19.390625 64.015625 
L 19.390625 0 
L 9.8125 0 
z
" id="DejaVuSans-77"/>
     </defs>
     <use xlink:href="#DejaVuSans-77"/>
     <use x="86.279297" xlink:href="#DejaVuSans-101"/>
     <use x="147.802734" xlink:href="#DejaVuSans-100"/>
     <use x="211.279297" xlink:href="#DejaVuSans-117"/>
     <use x="274.658203" xlink:href="#DejaVuSans-108"/>
     <use x="302.441406" xlink:href="#DejaVuSans-108"/>
     <use x="330.224609" xlink:href="#DejaVuSans-97"/>
     <use x="391.503906" xlink:href="#DejaVuSans-32"/>
     <use x="423.291016" xlink:href="#DejaVuSans-45"/>
     <use x="459.375" xlink:href="#DejaVuSans-32"/>
     <use x="491.162109" xlink:href="#DejaVuSans-50"/>
     <use x="554.785156" xlink:href="#DejaVuSans-50"/>
     <use x="618.408203" xlink:href="#DejaVuSans-53"/>
    </g>
   </g>
   <g id="text_8">
    <!-- Scortex - 245 -->
    <g transform="translate(665.607809 356.622143)scale(0.08 -0.08)">
     <defs>
      <path d="M 53.515625 70.515625 
L 53.515625 60.890625 
Q 47.90625 63.578125 42.921875 64.890625 
Q 37.9375 66.21875 33.296875 66.21875 
Q 25.25 66.21875 20.875 63.09375 
Q 16.5 59.96875 16.5 54.203125 
Q 16.5 49.359375 19.40625 46.890625 
Q 22.3125 44.4375 30.421875 42.921875 
L 36.375 41.703125 
Q 47.40625 39.59375 52.65625 34.296875 
Q 57.90625 29 57.90625 20.125 
Q 57.90625 9.515625 50.796875 4.046875 
Q 43.703125 -1.421875 29.984375 -1.421875 
Q 24.8125 -1.421875 18.96875 -0.25 
Q 13.140625 0.921875 6.890625 3.21875 
L 6.890625 13.375 
Q 12.890625 10.015625 18.65625 8.296875 
Q 24.421875 6.59375 29.984375 6.59375 
Q 38.421875 6.59375 43.015625 9.90625 
Q 47.609375 13.234375 47.609375 19.390625 
Q 47.609375 24.75 44.3125 27.78125 
Q 41.015625 30.8125 33.5 32.328125 
L 27.484375 33.5 
Q 16.453125 35.6875 11.515625 40.375 
Q 6.59375 45.0625 6.59375 53.421875 
Q 6.59375 63.09375 13.40625 68.65625 
Q 20.21875 74.21875 32.171875 74.21875 
Q 37.3125 74.21875 42.625 73.28125 
Q 47.953125 72.359375 53.515625 70.515625 
z
" id="DejaVuSans-83"/>
      <path d="M 37.796875 64.3125 
L 12.890625 25.390625 
L 37.796875 25.390625 
z
M 35.203125 72.90625 
L 47.609375 72.90625 
L 47.609375 25.390625 
L 58.015625 25.390625 
L 58.015625 17.1875 
L 47.609375 17.1875 
L 47.609375 0 
L 37.796875 0 
L 37.796875 17.1875 
L 4.890625 17.1875 
L 4.890625 26.703125 
z
" id="DejaVuSans-52"/>
     </defs>
     <use xlink:href="#DejaVuSans-83"/>
     <use x="63.476562" xlink:href="#DejaVuSans-99"/>
     <use x="118.457031" xlink:href="#DejaVuSans-111"/>
     <use x="179.638672" xlink:href="#DejaVuSans-114"/>
     <use x="220.751953" xlink:href="#DejaVuSans-116"/>
     <use x="259.960938" xlink:href="#DejaVuSans-101"/>
     <use x="319.734375" xlink:href="#DejaVuSans-120"/>
     <use x="378.914062" xlink:href="#DejaVuSans-32"/>
     <use x="410.701172" xlink:href="#DejaVuSans-45"/>
     <use x="446.785156" xlink:href="#DejaVuSans-32"/>
     <use x="478.572266" xlink:href="#DejaVuSans-50"/>
     <use x="542.195312" xlink:href="#DejaVuSans-52"/>
     <use x="605.818359" xlink:href="#DejaVuSans-53"/>
    </g>
   </g>
   <g id="text_9">
    <!-- Liver - 100 -->
    <g transform="translate(665.607809 129.614987)scale(0.08 -0.08)">
     <defs>
      <path d="M 9.8125 72.90625 
L 19.671875 72.90625 
L 19.671875 8.296875 
L 55.171875 8.296875 
L 55.171875 0 
L 9.8125 0 
z
" id="DejaVuSans-76"/>
      <path d="M 2.984375 54.6875 
L 12.5 54.6875 
L 29.59375 8.796875 
L 46.6875 54.6875 
L 56.203125 54.6875 
L 35.6875 0 
L 23.484375 0 
z
" id="DejaVuSans-118"/>
     </defs>
     <use xlink:href="#DejaVuSans-76"/>
     <use x="55.712891" xlink:href="#DejaVuSans-105"/>
     <use x="83.496094" xlink:href="#DejaVuSans-118"/>
     <use x="142.675781" xlink:href="#DejaVuSans-101"/>
     <use x="204.199219" xlink:href="#DejaVuSans-114"/>
     <use x="245.3125" xlink:href="#DejaVuSans-32"/>
     <use x="277.099609" xlink:href="#DejaVuSans-45"/>
     <use x="313.183594" xlink:href="#DejaVuSans-32"/>
     <use x="344.970703" xlink:href="#DejaVuSans-49"/>
     <use x="408.59375" xlink:href="#DejaVuSans-48"/>
     <use x="472.216797" xlink:href="#DejaVuSans-48"/>
    </g>
   </g>
   <g id="text_10">
    <!-- Heart - 143 -->
    <g transform="translate(665.607809 160.846902)scale(0.08 -0.08)">
     <use xlink:href="#DejaVuSans-72"/>
     <use x="75.195312" xlink:href="#DejaVuSans-101"/>
     <use x="136.71875" xlink:href="#DejaVuSans-97"/>
     <use x="197.998047" xlink:href="#DejaVuSans-114"/>
     <use x="239.111328" xlink:href="#DejaVuSans-116"/>
     <use x="278.320312" xlink:href="#DejaVuSans-32"/>
     <use x="310.107422" xlink:href="#DejaVuSans-45"/>
     <use x="346.191406" xlink:href="#DejaVuSans-32"/>
     <use x="377.978516" xlink:href="#DejaVuSans-49"/>
     <use x="441.601562" xlink:href="#DejaVuSans-52"/>
     <use x="505.224609" xlink:href="#DejaVuSans-51"/>
    </g>
   </g>
   <g id="text_11">
    <!-- Lung - 93 -->
    <g transform="translate(665.607809 103.866631)scale(0.08 -0.08)">
     <defs>
      <path d="M 45.40625 27.984375 
Q 45.40625 37.75 41.375 43.109375 
Q 37.359375 48.484375 30.078125 48.484375 
Q 22.859375 48.484375 18.828125 43.109375 
Q 14.796875 37.75 14.796875 27.984375 
Q 14.796875 18.265625 18.828125 12.890625 
Q 22.859375 7.515625 30.078125 7.515625 
Q 37.359375 7.515625 41.375 12.890625 
Q 45.40625 18.265625 45.40625 27.984375 
z
M 54.390625 6.78125 
Q 54.390625 -7.171875 48.1875 -13.984375 
Q 42 -20.796875 29.203125 -20.796875 
Q 24.46875 -20.796875 20.265625 -20.09375 
Q 16.0625 -19.390625 12.109375 -17.921875 
L 12.109375 -9.1875 
Q 16.0625 -11.328125 19.921875 -12.34375 
Q 23.78125 -13.375 27.78125 -13.375 
Q 36.625 -13.375 41.015625 -8.765625 
Q 45.40625 -4.15625 45.40625 5.171875 
L 45.40625 9.625 
Q 42.625 4.78125 38.28125 2.390625 
Q 33.9375 0 27.875 0 
Q 17.828125 0 11.671875 7.65625 
Q 5.515625 15.328125 5.515625 27.984375 
Q 5.515625 40.671875 11.671875 48.328125 
Q 17.828125 56 27.875 56 
Q 33.9375 56 38.28125 53.609375 
Q 42.625 51.21875 45.40625 46.390625 
L 45.40625 54.6875 
L 54.390625 54.6875 
z
" id="DejaVuSans-103"/>
     </defs>
     <use xlink:href="#DejaVuSans-76"/>
     <use x="53.962891" xlink:href="#DejaVuSans-117"/>
     <use x="117.341797" xlink:href="#DejaVuSans-110"/>
     <use x="180.720703" xlink:href="#DejaVuSans-103"/>
     <use x="244.197266" xlink:href="#DejaVuSans-32"/>
     <use x="275.984375" xlink:href="#DejaVuSans-45"/>
     <use x="312.068359" xlink:href="#DejaVuSans-32"/>
     <use x="343.855469" xlink:href="#DejaVuSans-57"/>
     <use x="407.478516" xlink:href="#DejaVuSans-51"/>
    </g>
   </g>
   <g id="text_12">
    <!-- Kidney - 93 -->
    <g transform="translate(665.607809 78.885973)scale(0.08 -0.08)">
     <defs>
      <path d="M 9.8125 72.90625 
L 19.671875 72.90625 
L 19.671875 42.09375 
L 52.390625 72.90625 
L 65.09375 72.90625 
L 28.90625 38.921875 
L 67.671875 0 
L 54.6875 0 
L 19.671875 35.109375 
L 19.671875 0 
L 9.8125 0 
z
" id="DejaVuSans-75"/>
     </defs>
     <use xlink:href="#DejaVuSans-75"/>
     <use x="65.576172" xlink:href="#DejaVuSans-105"/>
     <use x="93.359375" xlink:href="#DejaVuSans-100"/>
     <use x="156.835938" xlink:href="#DejaVuSans-110"/>
     <use x="220.214844" xlink:href="#DejaVuSans-101"/>
     <use x="281.738281" xlink:href="#DejaVuSans-121"/>
     <use x="340.917969" xlink:href="#DejaVuSans-32"/>
     <use x="372.705078" xlink:href="#DejaVuSans-45"/>
     <use x="408.789062" xlink:href="#DejaVuSans-32"/>
     <use x="440.576172" xlink:href="#DejaVuSans-57"/>
     <use x="504.199219" xlink:href="#DejaVuSans-51"/>
    </g>
   </g>
   <g id="text_13">
    <!-- Pancreas - 164 -->
    <g transform="translate(665.607809 199.097772)scale(0.08 -0.08)">
     <defs>
      <path d="M 19.671875 64.796875 
L 19.671875 37.40625 
L 32.078125 37.40625 
Q 38.96875 37.40625 42.71875 40.96875 
Q 46.484375 44.53125 46.484375 51.125 
Q 46.484375 57.671875 42.71875 61.234375 
Q 38.96875 64.796875 32.078125 64.796875 
z
M 9.8125 72.90625 
L 32.078125 72.90625 
Q 44.34375 72.90625 50.609375 67.359375 
Q 56.890625 61.8125 56.890625 51.125 
Q 56.890625 40.328125 50.609375 34.8125 
Q 44.34375 29.296875 32.078125 29.296875 
L 19.671875 29.296875 
L 19.671875 0 
L 9.8125 0 
z
" id="DejaVuSans-80"/>
     </defs>
     <use xlink:href="#DejaVuSans-80"/>
     <use x="55.802734" xlink:href="#DejaVuSans-97"/>
     <use x="117.082031" xlink:href="#DejaVuSans-110"/>
     <use x="180.460938" xlink:href="#DejaVuSans-99"/>
     <use x="235.441406" xlink:href="#DejaVuSans-114"/>
     <use x="274.304688" xlink:href="#DejaVuSans-101"/>
     <use x="335.828125" xlink:href="#DejaVuSans-97"/>
     <use x="397.107422" xlink:href="#DejaVuSans-115"/>
     <use x="449.207031" xlink:href="#DejaVuSans-32"/>
     <use x="480.994141" xlink:href="#DejaVuSans-45"/>
     <use x="517.078125" xlink:href="#DejaVuSans-32"/>
     <use x="548.865234" xlink:href="#DejaVuSans-49"/>
     <use x="612.488281" xlink:href="#DejaVuSans-54"/>
     <use x="676.111328" xlink:href="#DejaVuSans-52"/>
    </g>
   </g>
   <g id="text_14">
    <!-- Spleen - 76 -->
    <g transform="translate(665.607809 55.769726)scale(0.08 -0.08)">
     <defs>
      <path d="M 8.203125 72.90625 
L 55.078125 72.90625 
L 55.078125 68.703125 
L 28.609375 0 
L 18.3125 0 
L 43.21875 64.59375 
L 8.203125 64.59375 
z
" id="DejaVuSans-55"/>
     </defs>
     <use xlink:href="#DejaVuSans-83"/>
     <use x="63.476562" xlink:href="#DejaVuSans-112"/>
     <use x="126.953125" xlink:href="#DejaVuSans-108"/>
     <use x="154.736328" xlink:href="#DejaVuSans-101"/>
     <use x="216.259766" xlink:href="#DejaVuSans-101"/>
     <use x="277.783203" xlink:href="#DejaVuSans-110"/>
     <use x="341.162109" xlink:href="#DejaVuSans-32"/>
     <use x="372.949219" xlink:href="#DejaVuSans-45"/>
     <use x="409.033203" xlink:href="#DejaVuSans-32"/>
     <use x="440.820312" xlink:href="#DejaVuSans-55"/>
     <use x="504.443359" xlink:href="#DejaVuSans-54"/>
    </g>
   </g>
   <g id="text_15">
    <!-- Citrulinated Proteins -->
    <g transform="translate(349.194375 16.318125)scale(0.12 -0.12)">
     <use xlink:href="#DejaVuSans-67"/>
     <use x="69.824219" xlink:href="#DejaVuSans-105"/>
     <use x="97.607422" xlink:href="#DejaVuSans-116"/>
     <use x="136.816406" xlink:href="#DejaVuSans-114"/>
     <use x="177.929688" xlink:href="#DejaVuSans-117"/>
     <use x="241.308594" xlink:href="#DejaVuSans-108"/>
     <use x="269.091797" xlink:href="#DejaVuSans-105"/>
     <use x="296.875" xlink:href="#DejaVuSans-110"/>
     <use x="360.253906" xlink:href="#DejaVuSans-97"/>
     <use x="421.533203" xlink:href="#DejaVuSans-116"/>
     <use x="460.742188" xlink:href="#DejaVuSans-101"/>
     <use x="522.265625" xlink:href="#DejaVuSans-100"/>
     <use x="585.742188" xlink:href="#DejaVuSans-32"/>
     <use x="617.529297" xlink:href="#DejaVuSans-80"/>
     <use x="676.082031" xlink:href="#DejaVuSans-114"/>
     <use x="714.945312" xlink:href="#DejaVuSans-111"/>
     <use x="776.126953" xlink:href="#DejaVuSans-116"/>
     <use x="815.335938" xlink:href="#DejaVuSans-101"/>
     <use x="876.859375" xlink:href="#DejaVuSans-105"/>
     <use x="904.642578" xlink:href="#DejaVuSans-110"/>
     <use x="968.021484" xlink:href="#DejaVuSans-115"/>
    </g>
   </g>
  </g>
 </g>
 <defs>
  <clipPath id="pc853555976">
   <rect height="504" width="806.4" x="7.2" y="22.318125"/>
  </clipPath>
 </defs>
</svg>
